G04 #@! TF.GenerationSoftware,KiCad,Pcbnew,(5.1.10)-1*
G04 #@! TF.CreationDate,2021-07-21T20:55:27-04:00*
G04 #@! TF.ProjectId,ProtoTooManyKeys,50726f74-6f54-46f6-9f4d-616e794b6579,1.5*
G04 #@! TF.SameCoordinates,Original*
G04 #@! TF.FileFunction,Copper,L1,Top*
G04 #@! TF.FilePolarity,Positive*
%FSLAX46Y46*%
G04 Gerber Fmt 4.6, Leading zero omitted, Abs format (unit mm)*
G04 Created by KiCad (PCBNEW (5.1.10)-1) date 2021-07-21 20:55:27*
%MOMM*%
%LPD*%
G01*
G04 APERTURE LIST*
G04 #@! TA.AperFunction,ComponentPad*
%ADD10O,1.000000X2.100000*%
G04 #@! TD*
G04 #@! TA.AperFunction,ComponentPad*
%ADD11O,1.000000X1.600000*%
G04 #@! TD*
G04 #@! TA.AperFunction,ComponentPad*
%ADD12C,2.250000*%
G04 #@! TD*
G04 #@! TA.AperFunction,ComponentPad*
%ADD13C,1.300000*%
G04 #@! TD*
G04 #@! TA.AperFunction,ViaPad*
%ADD14C,0.800000*%
G04 #@! TD*
G04 #@! TA.AperFunction,Conductor*
%ADD15C,0.381000*%
G04 #@! TD*
G04 #@! TA.AperFunction,Conductor*
%ADD16C,0.254000*%
G04 #@! TD*
G04 #@! TA.AperFunction,Conductor*
%ADD17C,0.100000*%
G04 #@! TD*
G04 APERTURE END LIST*
D10*
X340739000Y-371524000D03*
X349379000Y-371524000D03*
D11*
X340739000Y-367344000D03*
X349379000Y-367344000D03*
D12*
X447040000Y-403860000D03*
X453390000Y-401320000D03*
X447040000Y-384810000D03*
X453390000Y-382270000D03*
X427990000Y-403860000D03*
X434340000Y-401320000D03*
X427990000Y-384810000D03*
X434340000Y-382270000D03*
D13*
X350075000Y-414750000D03*
X350075000Y-412750000D03*
X348075000Y-414750000D03*
X348075000Y-412750000D03*
X346075000Y-414750000D03*
X346075000Y-412750000D03*
D14*
X398526000Y-411480000D03*
X389255000Y-413766000D03*
X395478000Y-414782000D03*
X366268000Y-404749000D03*
X366268000Y-402463000D03*
X377063000Y-405765000D03*
X403479000Y-381635000D03*
X373634000Y-397510000D03*
X399415000Y-405384000D03*
X380619000Y-386842000D03*
X461645000Y-408051000D03*
X461645000Y-368173000D03*
X380619000Y-366903000D03*
X342646000Y-377444000D03*
X347726000Y-378587000D03*
X347599000Y-374269000D03*
X342609000Y-374306000D03*
X380238000Y-408975000D03*
X401320000Y-408975000D03*
X401320000Y-410429000D03*
X400431000Y-415798000D03*
X400050000Y-410718000D03*
X400177000Y-412207000D03*
X360172000Y-379857000D03*
X350393000Y-403225000D03*
X398907000Y-414655000D03*
X403479000Y-377825000D03*
X403479000Y-373126000D03*
X437511990Y-392049000D03*
X436945613Y-373005021D03*
X404889079Y-377944376D03*
X453517000Y-391033000D03*
X456473000Y-370643001D03*
X404876000Y-370643001D03*
X448056000Y-396494000D03*
X448056000Y-394970000D03*
X399669000Y-386334000D03*
X429262534Y-395094466D03*
X427355000Y-395478000D03*
X425866000Y-395478000D03*
X437966000Y-393573000D03*
X437966000Y-372884199D03*
X385922588Y-372762045D03*
X385664000Y-384302000D03*
X446405000Y-397256000D03*
X446405000Y-395039999D03*
X399653871Y-385320995D03*
X425866000Y-392176000D03*
X437007000Y-411226000D03*
X438693000Y-372139971D03*
X385131450Y-372150404D03*
X385121000Y-393065000D03*
X453390000Y-410083000D03*
X457200000Y-369697000D03*
X383667000Y-370205000D03*
X405130000Y-392811000D03*
X405130000Y-391028000D03*
X383667000Y-390779000D03*
X448183000Y-414182000D03*
X448183000Y-415636000D03*
X399796000Y-401828000D03*
X431419000Y-415636000D03*
X386334000Y-418487001D03*
X386334000Y-413531999D03*
X386572003Y-412077999D03*
X386588000Y-406781000D03*
X399803876Y-399727778D03*
X391795000Y-399796000D03*
X437007000Y-412750000D03*
X439420000Y-371370001D03*
X384394000Y-371475000D03*
X384429000Y-399542000D03*
X447421000Y-416363000D03*
X447204859Y-413974049D03*
X399689184Y-400721181D03*
X385572000Y-407005504D03*
X385572000Y-412077999D03*
X385572000Y-416306001D03*
X385572000Y-417760001D03*
X423487999Y-417760001D03*
X382798058Y-388898238D03*
X382827927Y-369189000D03*
X447040000Y-369189000D03*
X428117000Y-368300000D03*
X382100927Y-388181293D03*
X382256298Y-368299999D03*
X374650000Y-406019000D03*
X371475000Y-383667000D03*
X405130000Y-389382000D03*
X405010577Y-407732504D03*
X372237000Y-409702000D03*
X371729000Y-387096000D03*
X405754696Y-390162870D03*
X405892000Y-406908000D03*
X460918000Y-389001000D03*
X460756000Y-368935000D03*
X381326108Y-387549108D03*
X381451051Y-367630000D03*
X364490000Y-390271000D03*
X364490000Y-416306000D03*
X365217000Y-391103051D03*
X365217000Y-410937000D03*
X361724500Y-389255000D03*
X359283000Y-410210000D03*
X406654000Y-386461000D03*
X406654000Y-405892000D03*
D15*
X366268000Y-404749000D02*
X366268000Y-402463000D01*
D16*
X461645000Y-408051000D02*
X461645000Y-368173000D01*
X380619000Y-386842000D02*
X380619000Y-366903000D01*
D15*
X347599000Y-378460000D02*
X347726000Y-378587000D01*
X347599000Y-374269000D02*
X347599000Y-378460000D01*
X347599000Y-374269000D02*
X342900000Y-374269000D01*
X342646000Y-374343000D02*
X342609000Y-374306000D01*
X342646000Y-377444000D02*
X342646000Y-374343000D01*
D16*
X380238000Y-408975000D02*
X401320000Y-408975000D01*
X401320000Y-414909000D02*
X400431000Y-415798000D01*
X401320000Y-410429000D02*
X401320000Y-414909000D01*
X400050000Y-412080000D02*
X400177000Y-412207000D01*
X400050000Y-410718000D02*
X400050000Y-412080000D01*
X360172000Y-379857000D02*
X357378000Y-379857000D01*
X350075000Y-403797000D02*
X350075000Y-403543000D01*
X357378000Y-379857000D02*
X350075000Y-387160000D01*
X350075000Y-412750000D02*
X350075000Y-403797000D01*
X350139000Y-403225000D02*
X350075000Y-403161000D01*
X350393000Y-403225000D02*
X350139000Y-403225000D01*
X350075000Y-403161000D02*
X350075000Y-403797000D01*
X350075000Y-387160000D02*
X350075000Y-403161000D01*
X354358001Y-417033001D02*
X350075000Y-412750000D01*
X396528999Y-417033001D02*
X354358001Y-417033001D01*
X398907000Y-414655000D02*
X396528999Y-417033001D01*
X403479000Y-377825000D02*
X403479000Y-373126000D01*
X437784980Y-391776010D02*
X437511990Y-392049000D01*
X437784980Y-373844388D02*
X437784980Y-391776010D01*
X436945613Y-373005021D02*
X437784980Y-373844388D01*
X456473000Y-388077000D02*
X456473000Y-370643001D01*
X453517000Y-391033000D02*
X456473000Y-388077000D01*
X404889079Y-370656080D02*
X404876000Y-370643001D01*
X404889079Y-377944376D02*
X404889079Y-370656080D01*
X448056000Y-396494000D02*
X448056000Y-394970000D01*
X427738534Y-395094466D02*
X427355000Y-395478000D01*
X429262534Y-395094466D02*
X427738534Y-395094466D01*
X425866000Y-395478000D02*
X425138999Y-394750999D01*
X424507010Y-379168010D02*
X425138999Y-379799999D01*
X425138999Y-394750999D02*
X425138999Y-379799999D01*
X424507010Y-379168010D02*
X401500990Y-379168010D01*
X400380872Y-380288128D02*
X401500990Y-379168010D01*
X400380872Y-385622128D02*
X400380872Y-380288128D01*
X399669000Y-386334000D02*
X400380872Y-385622128D01*
X437966000Y-393573000D02*
X438238990Y-393300010D01*
X438238990Y-373157189D02*
X437966000Y-372884199D01*
X438238990Y-393300010D02*
X438238990Y-373157189D01*
X385922588Y-372762045D02*
X385391010Y-373293623D01*
X385391010Y-373293623D02*
X385391010Y-384302000D01*
X385391010Y-384302000D02*
X385664000Y-384302000D01*
X446405000Y-397256000D02*
X446405000Y-395039999D01*
X425866000Y-379884933D02*
X425866000Y-392176000D01*
X424695067Y-378714000D02*
X425866000Y-379884933D01*
X400939000Y-378714000D02*
X424695067Y-378714000D01*
X399653871Y-379999129D02*
X400939000Y-378714000D01*
X399653871Y-385320995D02*
X399653871Y-379999129D01*
X438693000Y-409540000D02*
X438693000Y-372139971D01*
X437007000Y-411226000D02*
X438693000Y-409540000D01*
X385131450Y-372150404D02*
X384937000Y-372344854D01*
X384937000Y-392881000D02*
X385121000Y-393065000D01*
X384937000Y-372344854D02*
X384937000Y-392881000D01*
X457200000Y-406273000D02*
X457200000Y-369697000D01*
X453390000Y-410083000D02*
X457200000Y-406273000D01*
X405130000Y-392811000D02*
X405130000Y-391028000D01*
X383667000Y-390779000D02*
X383667000Y-370205000D01*
X448183000Y-414182000D02*
X448183000Y-415636000D01*
X431419000Y-415636000D02*
X431419000Y-417830000D01*
X430761999Y-418487001D02*
X386334000Y-418487001D01*
X431419000Y-417830000D02*
X430761999Y-418487001D01*
X386334000Y-412316002D02*
X386572003Y-412077999D01*
X386334000Y-413531999D02*
X386334000Y-412316002D01*
X399161000Y-402463000D02*
X399796000Y-401828000D01*
X387477000Y-402463000D02*
X399161000Y-402463000D01*
X386588000Y-403352000D02*
X387477000Y-402463000D01*
X386588000Y-406781000D02*
X386588000Y-403352000D01*
X391863222Y-399727778D02*
X391795000Y-399796000D01*
X399803876Y-399727778D02*
X391863222Y-399727778D01*
X437007000Y-412750000D02*
X438404000Y-412750000D01*
X439420000Y-411734000D02*
X439420000Y-371370001D01*
X438404000Y-412750000D02*
X439420000Y-411734000D01*
X384394000Y-399507000D02*
X384429000Y-399542000D01*
X384394000Y-371475000D02*
X384394000Y-399507000D01*
X447421000Y-414190190D02*
X447204859Y-413974049D01*
X447421000Y-416363000D02*
X447421000Y-414190190D01*
X385572000Y-412077999D02*
X385572000Y-416306001D01*
X385572000Y-417760001D02*
X423487999Y-417760001D01*
X399689184Y-400721181D02*
X398401375Y-402008990D01*
X385572000Y-403725933D02*
X385572000Y-407005504D01*
X387288943Y-402008990D02*
X385572000Y-403725933D01*
X398401375Y-402008990D02*
X387288943Y-402008990D01*
X445677999Y-402497999D02*
X447040000Y-403860000D01*
X447040000Y-384810000D02*
X445677999Y-386172001D01*
X445677999Y-386172001D02*
X445677999Y-402497999D01*
X382798058Y-388898238D02*
X382827928Y-388868368D01*
X382827928Y-369189001D02*
X382827927Y-369189000D01*
X382827928Y-388868368D02*
X382827928Y-369189001D01*
X447040000Y-384810000D02*
X447040000Y-369189000D01*
X426593000Y-386207000D02*
X427990000Y-384810000D01*
X426593000Y-402463000D02*
X426593000Y-386207000D01*
X427990000Y-403860000D02*
X426593000Y-402463000D01*
X427990000Y-368427000D02*
X428117000Y-368300000D01*
X427990000Y-384810000D02*
X427990000Y-368427000D01*
X382100927Y-368455370D02*
X382256298Y-368299999D01*
X382100927Y-388181293D02*
X382100927Y-368455370D01*
X404021999Y-406743926D02*
X405010577Y-407732504D01*
X404021999Y-390490001D02*
X404021999Y-406743926D01*
X405130000Y-389382000D02*
X404021999Y-390490001D01*
X372456001Y-403825001D02*
X374650000Y-406019000D01*
X372456001Y-384648001D02*
X372456001Y-403825001D01*
X371475000Y-383667000D02*
X372456001Y-384648001D01*
X376363504Y-407732504D02*
X374650000Y-406019000D01*
X405010577Y-407732504D02*
X376363504Y-407732504D01*
X371729000Y-409194000D02*
X371729000Y-387096000D01*
X372237000Y-409702000D02*
X371729000Y-409194000D01*
X405892000Y-390300174D02*
X405754696Y-390162870D01*
X405892000Y-406908000D02*
X405892000Y-390300174D01*
X404117043Y-409702000D02*
X372237000Y-409702000D01*
X405892000Y-407927043D02*
X404117043Y-409702000D01*
X405892000Y-406908000D02*
X405892000Y-407927043D01*
X460918000Y-369097000D02*
X460756000Y-368935000D01*
X460918000Y-389001000D02*
X460918000Y-369097000D01*
X381451051Y-387424165D02*
X381451051Y-367630000D01*
X381326108Y-387549108D02*
X381451051Y-387424165D01*
X364490000Y-390271000D02*
X364490000Y-416306000D01*
X365217000Y-391103051D02*
X365217000Y-410937000D01*
X361724500Y-389255000D02*
X360172000Y-389255000D01*
X359283000Y-390144000D02*
X360172000Y-389255000D01*
X359283000Y-410210000D02*
X359283000Y-390144000D01*
X406654000Y-386461000D02*
X406654000Y-405892000D01*
X339738997Y-366492322D02*
X339650585Y-366698013D01*
X339604000Y-366917000D01*
X339604000Y-367217000D01*
X340612000Y-367217000D01*
X340612000Y-367197000D01*
X340866000Y-367197000D01*
X340866000Y-367217000D01*
X341874000Y-367217000D01*
X341874000Y-366917000D01*
X341827415Y-366698013D01*
X341739003Y-366492322D01*
X341689280Y-366420000D01*
X348428720Y-366420000D01*
X348378997Y-366492322D01*
X348290585Y-366698013D01*
X348244000Y-366917000D01*
X348244000Y-367217000D01*
X349252000Y-367217000D01*
X349252000Y-367197000D01*
X349506000Y-367197000D01*
X349506000Y-367217000D01*
X350514000Y-367217000D01*
X350514000Y-366917000D01*
X350467415Y-366698013D01*
X350379003Y-366492322D01*
X350329280Y-366420000D01*
X379698789Y-366420000D01*
X379623774Y-366601102D01*
X379584000Y-366801061D01*
X379584000Y-367004939D01*
X379623774Y-367204898D01*
X379701795Y-367393256D01*
X379815063Y-367562774D01*
X379857001Y-367604712D01*
X379857000Y-386140289D01*
X379815063Y-386182226D01*
X379701795Y-386351744D01*
X379623774Y-386540102D01*
X379584000Y-386740061D01*
X379584000Y-386943939D01*
X379623774Y-387143898D01*
X379701795Y-387332256D01*
X379815063Y-387501774D01*
X379959226Y-387645937D01*
X380128744Y-387759205D01*
X380317102Y-387837226D01*
X380328596Y-387839512D01*
X380330882Y-387851006D01*
X380408903Y-388039364D01*
X380522171Y-388208882D01*
X380666334Y-388353045D01*
X380835852Y-388466313D01*
X381024210Y-388544334D01*
X381140619Y-388567489D01*
X381183722Y-388671549D01*
X381296990Y-388841067D01*
X381441153Y-388985230D01*
X381610671Y-389098498D01*
X381798054Y-389176115D01*
X381802832Y-389200136D01*
X381880853Y-389388494D01*
X381994121Y-389558012D01*
X382138284Y-389702175D01*
X382307802Y-389815443D01*
X382496160Y-389893464D01*
X382696119Y-389933238D01*
X382899997Y-389933238D01*
X382905000Y-389932243D01*
X382905000Y-390077289D01*
X382863063Y-390119226D01*
X382749795Y-390288744D01*
X382671774Y-390477102D01*
X382632000Y-390677061D01*
X382632000Y-390880939D01*
X382671774Y-391080898D01*
X382749795Y-391269256D01*
X382863063Y-391438774D01*
X383007226Y-391582937D01*
X383176744Y-391696205D01*
X383365102Y-391774226D01*
X383565061Y-391814000D01*
X383632001Y-391814000D01*
X383632001Y-398875288D01*
X383625063Y-398882226D01*
X383511795Y-399051744D01*
X383433774Y-399240102D01*
X383394000Y-399440061D01*
X383394000Y-399643939D01*
X383433774Y-399843898D01*
X383511795Y-400032256D01*
X383625063Y-400201774D01*
X383769226Y-400345937D01*
X383938744Y-400459205D01*
X384127102Y-400537226D01*
X384327061Y-400577000D01*
X384530939Y-400577000D01*
X384730898Y-400537226D01*
X384919256Y-400459205D01*
X385088774Y-400345937D01*
X385232937Y-400201774D01*
X385346205Y-400032256D01*
X385424226Y-399843898D01*
X385464000Y-399643939D01*
X385464000Y-399440061D01*
X385424226Y-399240102D01*
X385346205Y-399051744D01*
X385232937Y-398882226D01*
X385156000Y-398805289D01*
X385156000Y-394100000D01*
X385222939Y-394100000D01*
X385422898Y-394060226D01*
X385611256Y-393982205D01*
X385780774Y-393868937D01*
X385924937Y-393724774D01*
X386038205Y-393555256D01*
X386116226Y-393366898D01*
X386156000Y-393166939D01*
X386156000Y-392963061D01*
X386116226Y-392763102D01*
X386038205Y-392574744D01*
X385924937Y-392405226D01*
X385780774Y-392261063D01*
X385699000Y-392206424D01*
X385699000Y-385337000D01*
X385765939Y-385337000D01*
X385965898Y-385297226D01*
X386154256Y-385219205D01*
X386154478Y-385219056D01*
X398618871Y-385219056D01*
X398618871Y-385422934D01*
X398658645Y-385622893D01*
X398736666Y-385811251D01*
X398755086Y-385838819D01*
X398751795Y-385843744D01*
X398673774Y-386032102D01*
X398634000Y-386232061D01*
X398634000Y-386435939D01*
X398673774Y-386635898D01*
X398751795Y-386824256D01*
X398865063Y-386993774D01*
X399009226Y-387137937D01*
X399178744Y-387251205D01*
X399367102Y-387329226D01*
X399567061Y-387369000D01*
X399770939Y-387369000D01*
X399970898Y-387329226D01*
X400159256Y-387251205D01*
X400328774Y-387137937D01*
X400472937Y-386993774D01*
X400586205Y-386824256D01*
X400664226Y-386635898D01*
X400704000Y-386435939D01*
X400704000Y-386376631D01*
X400893225Y-386187406D01*
X400922294Y-386163550D01*
X401017517Y-386047520D01*
X401088274Y-385915143D01*
X401131846Y-385771506D01*
X401142872Y-385659554D01*
X401142872Y-385659552D01*
X401146558Y-385622129D01*
X401142872Y-385584706D01*
X401142872Y-380603758D01*
X401816621Y-379930010D01*
X424191380Y-379930010D01*
X424377000Y-380115631D01*
X424376999Y-394713576D01*
X424373313Y-394750999D01*
X424376999Y-394788422D01*
X424376999Y-394788424D01*
X424388025Y-394900376D01*
X424431597Y-395044013D01*
X424446524Y-395071939D01*
X424502354Y-395176391D01*
X424541982Y-395224677D01*
X424597577Y-395292421D01*
X424626653Y-395316283D01*
X424831000Y-395520630D01*
X424831000Y-395579939D01*
X424870774Y-395779898D01*
X424948795Y-395968256D01*
X425062063Y-396137774D01*
X425206226Y-396281937D01*
X425375744Y-396395205D01*
X425564102Y-396473226D01*
X425764061Y-396513000D01*
X425831000Y-396513000D01*
X425831000Y-402425577D01*
X425827314Y-402463000D01*
X425831000Y-402500423D01*
X425831000Y-402500425D01*
X425842026Y-402612377D01*
X425885598Y-402756014D01*
X425914763Y-402810578D01*
X425956355Y-402888392D01*
X425971097Y-402906355D01*
X426051578Y-403004422D01*
X426080654Y-403028284D01*
X426327324Y-403274954D01*
X426297636Y-403346627D01*
X426230000Y-403686655D01*
X426230000Y-404033345D01*
X426297636Y-404373373D01*
X426430308Y-404693673D01*
X426622919Y-404981935D01*
X426868065Y-405227081D01*
X427156327Y-405419692D01*
X427476627Y-405552364D01*
X427816655Y-405620000D01*
X428163345Y-405620000D01*
X428503373Y-405552364D01*
X428823673Y-405419692D01*
X429111935Y-405227081D01*
X429357081Y-404981935D01*
X429549692Y-404693673D01*
X429682364Y-404373373D01*
X429750000Y-404033345D01*
X429750000Y-403686655D01*
X429682364Y-403346627D01*
X429549692Y-403026327D01*
X429357081Y-402738065D01*
X429111935Y-402492919D01*
X428823673Y-402300308D01*
X428503373Y-402167636D01*
X428163345Y-402100000D01*
X427816655Y-402100000D01*
X427476627Y-402167636D01*
X427404954Y-402197324D01*
X427355000Y-402147370D01*
X427355000Y-401146655D01*
X432580000Y-401146655D01*
X432580000Y-401493345D01*
X432647636Y-401833373D01*
X432780308Y-402153673D01*
X432972919Y-402441935D01*
X433218065Y-402687081D01*
X433506327Y-402879692D01*
X433826627Y-403012364D01*
X434166655Y-403080000D01*
X434513345Y-403080000D01*
X434853373Y-403012364D01*
X435173673Y-402879692D01*
X435461935Y-402687081D01*
X435707081Y-402441935D01*
X435899692Y-402153673D01*
X436032364Y-401833373D01*
X436100000Y-401493345D01*
X436100000Y-401146655D01*
X436032364Y-400806627D01*
X435899692Y-400486327D01*
X435707081Y-400198065D01*
X435461935Y-399952919D01*
X435173673Y-399760308D01*
X434853373Y-399627636D01*
X434513345Y-399560000D01*
X434166655Y-399560000D01*
X433826627Y-399627636D01*
X433506327Y-399760308D01*
X433218065Y-399952919D01*
X432972919Y-400198065D01*
X432780308Y-400486327D01*
X432647636Y-400806627D01*
X432580000Y-401146655D01*
X427355000Y-401146655D01*
X427355000Y-396513000D01*
X427456939Y-396513000D01*
X427656898Y-396473226D01*
X427845256Y-396395205D01*
X428014774Y-396281937D01*
X428158937Y-396137774D01*
X428272205Y-395968256D01*
X428318510Y-395856466D01*
X428560823Y-395856466D01*
X428602760Y-395898403D01*
X428772278Y-396011671D01*
X428960636Y-396089692D01*
X429160595Y-396129466D01*
X429364473Y-396129466D01*
X429564432Y-396089692D01*
X429752790Y-396011671D01*
X429922308Y-395898403D01*
X430066471Y-395754240D01*
X430179739Y-395584722D01*
X430257760Y-395396364D01*
X430266380Y-395353028D01*
X430433440Y-395464654D01*
X430958477Y-395682131D01*
X431515852Y-395793000D01*
X432084148Y-395793000D01*
X432641523Y-395682131D01*
X433166560Y-395464654D01*
X433639080Y-395148926D01*
X434040926Y-394747080D01*
X434356654Y-394274560D01*
X434574131Y-393749523D01*
X434685000Y-393192148D01*
X434685000Y-392623852D01*
X434574131Y-392066477D01*
X434356654Y-391541440D01*
X434040926Y-391068920D01*
X433639080Y-390667074D01*
X433166560Y-390351346D01*
X432641523Y-390133869D01*
X432084148Y-390023000D01*
X431515852Y-390023000D01*
X430958477Y-390133869D01*
X430433440Y-390351346D01*
X429960920Y-390667074D01*
X429559074Y-391068920D01*
X429243346Y-391541440D01*
X429025869Y-392066477D01*
X428915000Y-392623852D01*
X428915000Y-393192148D01*
X429025869Y-393749523D01*
X429154734Y-394060632D01*
X428960636Y-394099240D01*
X428772278Y-394177261D01*
X428602760Y-394290529D01*
X428560823Y-394332466D01*
X427775957Y-394332466D01*
X427738534Y-394328780D01*
X427701111Y-394332466D01*
X427701108Y-394332466D01*
X427589156Y-394343492D01*
X427445519Y-394387064D01*
X427355000Y-394435447D01*
X427355000Y-387091076D01*
X429171100Y-387091076D01*
X429171100Y-387608924D01*
X429272127Y-388116822D01*
X429470299Y-388595251D01*
X429758000Y-389025826D01*
X430124174Y-389392000D01*
X430554749Y-389679701D01*
X431033178Y-389877873D01*
X431541076Y-389978900D01*
X432058924Y-389978900D01*
X432566822Y-389877873D01*
X433045251Y-389679701D01*
X433475826Y-389392000D01*
X433842000Y-389025826D01*
X434129701Y-388595251D01*
X434327873Y-388116822D01*
X434428900Y-387608924D01*
X434428900Y-387091076D01*
X434327873Y-386583178D01*
X434129701Y-386104749D01*
X433842000Y-385674174D01*
X433475826Y-385308000D01*
X433045251Y-385020299D01*
X432566822Y-384822127D01*
X432058924Y-384721100D01*
X431541076Y-384721100D01*
X431033178Y-384822127D01*
X430554749Y-385020299D01*
X430124174Y-385308000D01*
X429758000Y-385674174D01*
X429470299Y-386104749D01*
X429272127Y-386583178D01*
X429171100Y-387091076D01*
X427355000Y-387091076D01*
X427355000Y-386522630D01*
X427404954Y-386472676D01*
X427476627Y-386502364D01*
X427816655Y-386570000D01*
X428163345Y-386570000D01*
X428503373Y-386502364D01*
X428823673Y-386369692D01*
X429111935Y-386177081D01*
X429357081Y-385931935D01*
X429549692Y-385643673D01*
X429682364Y-385323373D01*
X429750000Y-384983345D01*
X429750000Y-384636655D01*
X429682364Y-384296627D01*
X429549692Y-383976327D01*
X429357081Y-383688065D01*
X429111935Y-383442919D01*
X428823673Y-383250308D01*
X428752000Y-383220620D01*
X428752000Y-382096655D01*
X432580000Y-382096655D01*
X432580000Y-382443345D01*
X432647636Y-382783373D01*
X432780308Y-383103673D01*
X432972919Y-383391935D01*
X433218065Y-383637081D01*
X433506327Y-383829692D01*
X433826627Y-383962364D01*
X434166655Y-384030000D01*
X434513345Y-384030000D01*
X434853373Y-383962364D01*
X435173673Y-383829692D01*
X435461935Y-383637081D01*
X435707081Y-383391935D01*
X435899692Y-383103673D01*
X436032364Y-382783373D01*
X436100000Y-382443345D01*
X436100000Y-382096655D01*
X436032364Y-381756627D01*
X435899692Y-381436327D01*
X435707081Y-381148065D01*
X435461935Y-380902919D01*
X435173673Y-380710308D01*
X434853373Y-380577636D01*
X434513345Y-380510000D01*
X434166655Y-380510000D01*
X433826627Y-380577636D01*
X433506327Y-380710308D01*
X433218065Y-380902919D01*
X432972919Y-381148065D01*
X432780308Y-381436327D01*
X432647636Y-381756627D01*
X432580000Y-382096655D01*
X428752000Y-382096655D01*
X428752000Y-372903082D01*
X435910613Y-372903082D01*
X435910613Y-373106960D01*
X435950387Y-373306919D01*
X436028408Y-373495277D01*
X436141676Y-373664795D01*
X436285839Y-373808958D01*
X436455357Y-373922226D01*
X436643715Y-374000247D01*
X436843674Y-374040021D01*
X436902982Y-374040021D01*
X437022980Y-374160019D01*
X437022981Y-391131278D01*
X437021734Y-391131795D01*
X436852216Y-391245063D01*
X436708053Y-391389226D01*
X436594785Y-391558744D01*
X436516764Y-391747102D01*
X436476990Y-391947061D01*
X436476990Y-392150939D01*
X436516764Y-392350898D01*
X436594785Y-392539256D01*
X436708053Y-392708774D01*
X436852216Y-392852937D01*
X437021734Y-392966205D01*
X437103918Y-393000247D01*
X437048795Y-393082744D01*
X436970774Y-393271102D01*
X436931000Y-393471061D01*
X436931000Y-393674939D01*
X436970774Y-393874898D01*
X437048795Y-394063256D01*
X437162063Y-394232774D01*
X437306226Y-394376937D01*
X437475744Y-394490205D01*
X437664102Y-394568226D01*
X437864061Y-394608000D01*
X437931000Y-394608000D01*
X437931000Y-409224369D01*
X436964370Y-410191000D01*
X436905061Y-410191000D01*
X436705102Y-410230774D01*
X436516744Y-410308795D01*
X436347226Y-410422063D01*
X436203063Y-410566226D01*
X436089795Y-410735744D01*
X436011774Y-410924102D01*
X435972000Y-411124061D01*
X435972000Y-411327939D01*
X436011774Y-411527898D01*
X436089795Y-411716256D01*
X436203063Y-411885774D01*
X436305289Y-411988000D01*
X436203063Y-412090226D01*
X436089795Y-412259744D01*
X436011774Y-412448102D01*
X435972000Y-412648061D01*
X435972000Y-412851939D01*
X436011774Y-413051898D01*
X436089795Y-413240256D01*
X436203063Y-413409774D01*
X436347226Y-413553937D01*
X436516744Y-413667205D01*
X436705102Y-413745226D01*
X436905061Y-413785000D01*
X437108939Y-413785000D01*
X437308898Y-413745226D01*
X437497256Y-413667205D01*
X437666774Y-413553937D01*
X437708711Y-413512000D01*
X438366577Y-413512000D01*
X438404000Y-413515686D01*
X438441423Y-413512000D01*
X438441426Y-413512000D01*
X438553378Y-413500974D01*
X438697015Y-413457402D01*
X438829392Y-413386645D01*
X438945422Y-413291422D01*
X438969284Y-413262346D01*
X439932353Y-412299278D01*
X439961422Y-412275422D01*
X440000851Y-412227378D01*
X440056645Y-412159393D01*
X440119072Y-412042599D01*
X440127402Y-412027015D01*
X440170974Y-411883378D01*
X440182000Y-411771426D01*
X440182000Y-411771423D01*
X440185686Y-411734000D01*
X440182000Y-411696577D01*
X440182000Y-406141076D01*
X448221100Y-406141076D01*
X448221100Y-406658924D01*
X448322127Y-407166822D01*
X448520299Y-407645251D01*
X448808000Y-408075826D01*
X449174174Y-408442000D01*
X449604749Y-408729701D01*
X450083178Y-408927873D01*
X450591076Y-409028900D01*
X451108924Y-409028900D01*
X451616822Y-408927873D01*
X452095251Y-408729701D01*
X452525826Y-408442000D01*
X452892000Y-408075826D01*
X453179701Y-407645251D01*
X453377873Y-407166822D01*
X453478900Y-406658924D01*
X453478900Y-406141076D01*
X453377873Y-405633178D01*
X453179701Y-405154749D01*
X452892000Y-404724174D01*
X452525826Y-404358000D01*
X452095251Y-404070299D01*
X451616822Y-403872127D01*
X451108924Y-403771100D01*
X450591076Y-403771100D01*
X450083178Y-403872127D01*
X449604749Y-404070299D01*
X449174174Y-404358000D01*
X448808000Y-404724174D01*
X448520299Y-405154749D01*
X448322127Y-405633178D01*
X448221100Y-406141076D01*
X440182000Y-406141076D01*
X440182000Y-386172001D01*
X444912313Y-386172001D01*
X444915999Y-386209424D01*
X444916000Y-402460566D01*
X444912313Y-402497999D01*
X444927026Y-402647377D01*
X444970598Y-402791014D01*
X445041354Y-402923391D01*
X445083997Y-402975351D01*
X445136578Y-403039421D01*
X445165648Y-403063278D01*
X445377324Y-403274954D01*
X445347636Y-403346627D01*
X445280000Y-403686655D01*
X445280000Y-404033345D01*
X445347636Y-404373373D01*
X445480308Y-404693673D01*
X445672919Y-404981935D01*
X445918065Y-405227081D01*
X446206327Y-405419692D01*
X446526627Y-405552364D01*
X446866655Y-405620000D01*
X447213345Y-405620000D01*
X447553373Y-405552364D01*
X447873673Y-405419692D01*
X448161935Y-405227081D01*
X448407081Y-404981935D01*
X448599692Y-404693673D01*
X448732364Y-404373373D01*
X448800000Y-404033345D01*
X448800000Y-403686655D01*
X448732364Y-403346627D01*
X448599692Y-403026327D01*
X448407081Y-402738065D01*
X448161935Y-402492919D01*
X447873673Y-402300308D01*
X447553373Y-402167636D01*
X447213345Y-402100000D01*
X446866655Y-402100000D01*
X446526627Y-402167636D01*
X446454954Y-402197324D01*
X446439999Y-402182369D01*
X446439999Y-401146655D01*
X451630000Y-401146655D01*
X451630000Y-401493345D01*
X451697636Y-401833373D01*
X451830308Y-402153673D01*
X452022919Y-402441935D01*
X452268065Y-402687081D01*
X452556327Y-402879692D01*
X452876627Y-403012364D01*
X453216655Y-403080000D01*
X453563345Y-403080000D01*
X453903373Y-403012364D01*
X454223673Y-402879692D01*
X454511935Y-402687081D01*
X454757081Y-402441935D01*
X454949692Y-402153673D01*
X455082364Y-401833373D01*
X455150000Y-401493345D01*
X455150000Y-401146655D01*
X455082364Y-400806627D01*
X454949692Y-400486327D01*
X454757081Y-400198065D01*
X454511935Y-399952919D01*
X454223673Y-399760308D01*
X453903373Y-399627636D01*
X453563345Y-399560000D01*
X453216655Y-399560000D01*
X452876627Y-399627636D01*
X452556327Y-399760308D01*
X452268065Y-399952919D01*
X452022919Y-400198065D01*
X451830308Y-400486327D01*
X451697636Y-400806627D01*
X451630000Y-401146655D01*
X446439999Y-401146655D01*
X446439999Y-398291000D01*
X446506939Y-398291000D01*
X446706898Y-398251226D01*
X446895256Y-398173205D01*
X447064774Y-398059937D01*
X447208937Y-397915774D01*
X447322205Y-397746256D01*
X447400226Y-397557898D01*
X447440000Y-397357939D01*
X447440000Y-397327186D01*
X447565744Y-397411205D01*
X447754102Y-397489226D01*
X447954061Y-397529000D01*
X448157939Y-397529000D01*
X448357898Y-397489226D01*
X448546256Y-397411205D01*
X448715774Y-397297937D01*
X448859937Y-397153774D01*
X448973205Y-396984256D01*
X449051226Y-396795898D01*
X449091000Y-396595939D01*
X449091000Y-396392061D01*
X449051226Y-396192102D01*
X448973205Y-396003744D01*
X448859937Y-395834226D01*
X448818000Y-395792289D01*
X448818000Y-395671711D01*
X448859937Y-395629774D01*
X448973205Y-395460256D01*
X449051226Y-395271898D01*
X449068088Y-395187125D01*
X449483440Y-395464654D01*
X450008477Y-395682131D01*
X450565852Y-395793000D01*
X451134148Y-395793000D01*
X451691523Y-395682131D01*
X452216560Y-395464654D01*
X452689080Y-395148926D01*
X453090926Y-394747080D01*
X453406654Y-394274560D01*
X453624131Y-393749523D01*
X453735000Y-393192148D01*
X453735000Y-392623852D01*
X453624225Y-392066949D01*
X453818898Y-392028226D01*
X454007256Y-391950205D01*
X454176774Y-391836937D01*
X454320937Y-391692774D01*
X454434205Y-391523256D01*
X454512226Y-391334898D01*
X454552000Y-391134939D01*
X454552000Y-391075630D01*
X456438000Y-389189630D01*
X456438000Y-405957370D01*
X453347370Y-409048000D01*
X453288061Y-409048000D01*
X453088102Y-409087774D01*
X452899744Y-409165795D01*
X452730226Y-409279063D01*
X452586063Y-409423226D01*
X452483119Y-409577292D01*
X452216560Y-409399183D01*
X451691523Y-409181706D01*
X451134148Y-409070837D01*
X450565852Y-409070837D01*
X450008477Y-409181706D01*
X449483440Y-409399183D01*
X449010920Y-409714911D01*
X448609074Y-410116757D01*
X448293346Y-410589277D01*
X448075869Y-411114314D01*
X447965000Y-411671689D01*
X447965000Y-412239985D01*
X448075869Y-412797360D01*
X448220694Y-413147000D01*
X448081061Y-413147000D01*
X447881263Y-413186742D01*
X447864633Y-413170112D01*
X447695115Y-413056844D01*
X447506757Y-412978823D01*
X447306798Y-412939049D01*
X447102920Y-412939049D01*
X446902961Y-412978823D01*
X446714603Y-413056844D01*
X446545085Y-413170112D01*
X446400922Y-413314275D01*
X446287654Y-413483793D01*
X446209633Y-413672151D01*
X446169859Y-413872110D01*
X446169859Y-414075988D01*
X446209633Y-414275947D01*
X446287654Y-414464305D01*
X446400922Y-414633823D01*
X446545085Y-414777986D01*
X446659001Y-414854102D01*
X446659000Y-415661289D01*
X446617063Y-415703226D01*
X446503795Y-415872744D01*
X446425774Y-416061102D01*
X446386000Y-416261061D01*
X446386000Y-416464939D01*
X446425774Y-416664898D01*
X446503795Y-416853256D01*
X446617063Y-417022774D01*
X446761226Y-417166937D01*
X446930744Y-417280205D01*
X447119102Y-417358226D01*
X447319061Y-417398000D01*
X447522939Y-417398000D01*
X447722898Y-417358226D01*
X447911256Y-417280205D01*
X448080774Y-417166937D01*
X448224937Y-417022774D01*
X448338205Y-416853256D01*
X448416226Y-416664898D01*
X448420371Y-416644061D01*
X448484898Y-416631226D01*
X448673256Y-416553205D01*
X448842774Y-416439937D01*
X448986937Y-416295774D01*
X449100205Y-416126256D01*
X449178226Y-415937898D01*
X449218000Y-415737939D01*
X449218000Y-415534061D01*
X449178226Y-415334102D01*
X449100205Y-415145744D01*
X448986937Y-414976226D01*
X448945000Y-414934289D01*
X448945000Y-414883711D01*
X448986937Y-414841774D01*
X449100205Y-414672256D01*
X449178226Y-414483898D01*
X449209012Y-414329124D01*
X449483440Y-414512491D01*
X450008477Y-414729968D01*
X450565852Y-414840837D01*
X451134148Y-414840837D01*
X451691523Y-414729968D01*
X452216560Y-414512491D01*
X452689080Y-414196763D01*
X453090926Y-413794917D01*
X453406654Y-413322397D01*
X453624131Y-412797360D01*
X453735000Y-412239985D01*
X453735000Y-411671689D01*
X453624131Y-411114314D01*
X453615479Y-411093427D01*
X453691898Y-411078226D01*
X453880256Y-411000205D01*
X454049774Y-410886937D01*
X454193937Y-410742774D01*
X454307205Y-410573256D01*
X454385226Y-410384898D01*
X454425000Y-410184939D01*
X454425000Y-410125630D01*
X457712347Y-406838283D01*
X457741422Y-406814422D01*
X457813659Y-406726401D01*
X457836645Y-406698393D01*
X457892151Y-406594548D01*
X457907402Y-406566015D01*
X457950974Y-406422378D01*
X457962000Y-406310426D01*
X457962000Y-406310423D01*
X457965686Y-406273000D01*
X457962000Y-406235577D01*
X457962000Y-370398711D01*
X458003937Y-370356774D01*
X458117205Y-370187256D01*
X458195226Y-369998898D01*
X458235000Y-369798939D01*
X458235000Y-369595061D01*
X458195226Y-369395102D01*
X458117205Y-369206744D01*
X458003937Y-369037226D01*
X457859774Y-368893063D01*
X457690256Y-368779795D01*
X457501898Y-368701774D01*
X457301939Y-368662000D01*
X457098061Y-368662000D01*
X456898102Y-368701774D01*
X456709744Y-368779795D01*
X456540226Y-368893063D01*
X456396063Y-369037226D01*
X456282795Y-369206744D01*
X456204774Y-369395102D01*
X456165000Y-369595061D01*
X456165000Y-369650303D01*
X455982744Y-369725796D01*
X455813226Y-369839064D01*
X455669063Y-369983227D01*
X455555795Y-370152745D01*
X455477774Y-370341103D01*
X455438000Y-370541062D01*
X455438000Y-370744940D01*
X455477774Y-370944899D01*
X455555795Y-371133257D01*
X455669063Y-371302775D01*
X455711001Y-371344713D01*
X455711000Y-387761369D01*
X453474370Y-389998000D01*
X453415061Y-389998000D01*
X453215102Y-390037774D01*
X453026744Y-390115795D01*
X452857226Y-390229063D01*
X452713063Y-390373226D01*
X452599795Y-390542744D01*
X452578814Y-390593396D01*
X452216560Y-390351346D01*
X451691523Y-390133869D01*
X451134148Y-390023000D01*
X450565852Y-390023000D01*
X450008477Y-390133869D01*
X449483440Y-390351346D01*
X449010920Y-390667074D01*
X448609074Y-391068920D01*
X448293346Y-391541440D01*
X448075869Y-392066477D01*
X447965000Y-392623852D01*
X447965000Y-393192148D01*
X448075869Y-393749523D01*
X448152696Y-393935000D01*
X447954061Y-393935000D01*
X447754102Y-393974774D01*
X447565744Y-394052795D01*
X447396226Y-394166063D01*
X447252063Y-394310226D01*
X447206752Y-394378040D01*
X447064774Y-394236062D01*
X446895256Y-394122794D01*
X446706898Y-394044773D01*
X446506939Y-394004999D01*
X446439999Y-394004999D01*
X446439999Y-387091076D01*
X448221100Y-387091076D01*
X448221100Y-387608924D01*
X448322127Y-388116822D01*
X448520299Y-388595251D01*
X448808000Y-389025826D01*
X449174174Y-389392000D01*
X449604749Y-389679701D01*
X450083178Y-389877873D01*
X450591076Y-389978900D01*
X451108924Y-389978900D01*
X451616822Y-389877873D01*
X452095251Y-389679701D01*
X452525826Y-389392000D01*
X452892000Y-389025826D01*
X453179701Y-388595251D01*
X453377873Y-388116822D01*
X453478900Y-387608924D01*
X453478900Y-387091076D01*
X453377873Y-386583178D01*
X453179701Y-386104749D01*
X452892000Y-385674174D01*
X452525826Y-385308000D01*
X452095251Y-385020299D01*
X451616822Y-384822127D01*
X451108924Y-384721100D01*
X450591076Y-384721100D01*
X450083178Y-384822127D01*
X449604749Y-385020299D01*
X449174174Y-385308000D01*
X448808000Y-385674174D01*
X448520299Y-386104749D01*
X448322127Y-386583178D01*
X448221100Y-387091076D01*
X446439999Y-387091076D01*
X446439999Y-386487631D01*
X446454954Y-386472676D01*
X446526627Y-386502364D01*
X446866655Y-386570000D01*
X447213345Y-386570000D01*
X447553373Y-386502364D01*
X447873673Y-386369692D01*
X448161935Y-386177081D01*
X448407081Y-385931935D01*
X448599692Y-385643673D01*
X448732364Y-385323373D01*
X448800000Y-384983345D01*
X448800000Y-384636655D01*
X448732364Y-384296627D01*
X448599692Y-383976327D01*
X448407081Y-383688065D01*
X448161935Y-383442919D01*
X447873673Y-383250308D01*
X447802000Y-383220620D01*
X447802000Y-382096655D01*
X451630000Y-382096655D01*
X451630000Y-382443345D01*
X451697636Y-382783373D01*
X451830308Y-383103673D01*
X452022919Y-383391935D01*
X452268065Y-383637081D01*
X452556327Y-383829692D01*
X452876627Y-383962364D01*
X453216655Y-384030000D01*
X453563345Y-384030000D01*
X453903373Y-383962364D01*
X454223673Y-383829692D01*
X454511935Y-383637081D01*
X454757081Y-383391935D01*
X454949692Y-383103673D01*
X455082364Y-382783373D01*
X455150000Y-382443345D01*
X455150000Y-382096655D01*
X455082364Y-381756627D01*
X454949692Y-381436327D01*
X454757081Y-381148065D01*
X454511935Y-380902919D01*
X454223673Y-380710308D01*
X453903373Y-380577636D01*
X453563345Y-380510000D01*
X453216655Y-380510000D01*
X452876627Y-380577636D01*
X452556327Y-380710308D01*
X452268065Y-380902919D01*
X452022919Y-381148065D01*
X451830308Y-381436327D01*
X451697636Y-381756627D01*
X451630000Y-382096655D01*
X447802000Y-382096655D01*
X447802000Y-369890711D01*
X447843937Y-369848774D01*
X447957205Y-369679256D01*
X448035226Y-369490898D01*
X448075000Y-369290939D01*
X448075000Y-369087061D01*
X448035226Y-368887102D01*
X447957205Y-368698744D01*
X447843937Y-368529226D01*
X447699774Y-368385063D01*
X447530256Y-368271795D01*
X447341898Y-368193774D01*
X447141939Y-368154000D01*
X446938061Y-368154000D01*
X446738102Y-368193774D01*
X446549744Y-368271795D01*
X446380226Y-368385063D01*
X446236063Y-368529226D01*
X446122795Y-368698744D01*
X446044774Y-368887102D01*
X446005000Y-369087061D01*
X446005000Y-369290939D01*
X446044774Y-369490898D01*
X446122795Y-369679256D01*
X446236063Y-369848774D01*
X446278001Y-369890712D01*
X446278000Y-383220620D01*
X446206327Y-383250308D01*
X445918065Y-383442919D01*
X445672919Y-383688065D01*
X445480308Y-383976327D01*
X445347636Y-384296627D01*
X445280000Y-384636655D01*
X445280000Y-384983345D01*
X445347636Y-385323373D01*
X445377324Y-385395046D01*
X445165653Y-385606717D01*
X445136577Y-385630579D01*
X445083997Y-385694649D01*
X445041354Y-385746609D01*
X445028046Y-385771507D01*
X444970597Y-385878987D01*
X444927025Y-386022624D01*
X444915999Y-386134575D01*
X444912313Y-386172001D01*
X440182000Y-386172001D01*
X440182000Y-372071712D01*
X440223937Y-372029775D01*
X440337205Y-371860257D01*
X440415226Y-371671899D01*
X440455000Y-371471940D01*
X440455000Y-371268062D01*
X440415226Y-371068103D01*
X440337205Y-370879745D01*
X440223937Y-370710227D01*
X440079774Y-370566064D01*
X439910256Y-370452796D01*
X439721898Y-370374775D01*
X439521939Y-370335001D01*
X439318061Y-370335001D01*
X439118102Y-370374775D01*
X438929744Y-370452796D01*
X438760226Y-370566064D01*
X438616063Y-370710227D01*
X438502795Y-370879745D01*
X438424774Y-371068103D01*
X438410288Y-371140929D01*
X438391102Y-371144745D01*
X438202744Y-371222766D01*
X438033226Y-371336034D01*
X437889063Y-371480197D01*
X437775795Y-371649715D01*
X437697774Y-371838073D01*
X437688619Y-371884096D01*
X437664102Y-371888973D01*
X437475744Y-371966994D01*
X437348860Y-372051775D01*
X437247511Y-372009795D01*
X437047552Y-371970021D01*
X436843674Y-371970021D01*
X436643715Y-372009795D01*
X436455357Y-372087816D01*
X436285839Y-372201084D01*
X436141676Y-372345247D01*
X436028408Y-372514765D01*
X435950387Y-372703123D01*
X435910613Y-372903082D01*
X428752000Y-372903082D01*
X428752000Y-369120490D01*
X428776774Y-369103937D01*
X428920937Y-368959774D01*
X429034205Y-368790256D01*
X429112226Y-368601898D01*
X429152000Y-368401939D01*
X429152000Y-368198061D01*
X429112226Y-367998102D01*
X429034205Y-367809744D01*
X428920937Y-367640226D01*
X428776774Y-367496063D01*
X428607256Y-367382795D01*
X428418898Y-367304774D01*
X428218939Y-367265000D01*
X428015061Y-367265000D01*
X427815102Y-367304774D01*
X427626744Y-367382795D01*
X427457226Y-367496063D01*
X427313063Y-367640226D01*
X427199795Y-367809744D01*
X427121774Y-367998102D01*
X427082000Y-368198061D01*
X427082000Y-368401939D01*
X427121774Y-368601898D01*
X427199795Y-368790256D01*
X427228001Y-368832469D01*
X427228000Y-383220620D01*
X427156327Y-383250308D01*
X426868065Y-383442919D01*
X426628000Y-383682984D01*
X426628000Y-379922355D01*
X426631686Y-379884932D01*
X426628000Y-379847507D01*
X426616974Y-379735555D01*
X426573402Y-379591918D01*
X426502645Y-379459541D01*
X426407422Y-379343511D01*
X426378353Y-379319655D01*
X425260351Y-378201654D01*
X425236489Y-378172578D01*
X425120459Y-378077355D01*
X424988082Y-378006598D01*
X424844445Y-377963026D01*
X424732493Y-377952000D01*
X424732490Y-377952000D01*
X424695067Y-377948314D01*
X424657644Y-377952000D01*
X405924079Y-377952000D01*
X405924079Y-377842437D01*
X405884305Y-377642478D01*
X405806284Y-377454120D01*
X405693016Y-377284602D01*
X405651079Y-377242665D01*
X405651079Y-371331633D01*
X405679937Y-371302775D01*
X405793205Y-371133257D01*
X405871226Y-370944899D01*
X405911000Y-370744940D01*
X405911000Y-370541062D01*
X405871226Y-370341103D01*
X405793205Y-370152745D01*
X405679937Y-369983227D01*
X405535774Y-369839064D01*
X405366256Y-369725796D01*
X405177898Y-369647775D01*
X404977939Y-369608001D01*
X404774061Y-369608001D01*
X404574102Y-369647775D01*
X404385744Y-369725796D01*
X404216226Y-369839064D01*
X404072063Y-369983227D01*
X403958795Y-370152745D01*
X403880774Y-370341103D01*
X403841000Y-370541062D01*
X403841000Y-370744940D01*
X403880774Y-370944899D01*
X403958795Y-371133257D01*
X404072063Y-371302775D01*
X404127080Y-371357792D01*
X404127080Y-372314249D01*
X403969256Y-372208795D01*
X403780898Y-372130774D01*
X403580939Y-372091000D01*
X403377061Y-372091000D01*
X403177102Y-372130774D01*
X402988744Y-372208795D01*
X402819226Y-372322063D01*
X402675063Y-372466226D01*
X402561795Y-372635744D01*
X402483774Y-372824102D01*
X402444000Y-373024061D01*
X402444000Y-373227939D01*
X402483774Y-373427898D01*
X402561795Y-373616256D01*
X402675063Y-373785774D01*
X402717001Y-373827712D01*
X402717000Y-377123289D01*
X402675063Y-377165226D01*
X402561795Y-377334744D01*
X402483774Y-377523102D01*
X402444000Y-377723061D01*
X402444000Y-377926939D01*
X402448985Y-377952000D01*
X400976423Y-377952000D01*
X400939000Y-377948314D01*
X400901577Y-377952000D01*
X400901574Y-377952000D01*
X400789622Y-377963026D01*
X400645985Y-378006598D01*
X400601191Y-378030541D01*
X400513607Y-378077355D01*
X400464063Y-378118015D01*
X400397578Y-378172578D01*
X400373721Y-378201648D01*
X399141520Y-379433850D01*
X399112450Y-379457707D01*
X399088593Y-379486777D01*
X399088592Y-379486778D01*
X399017226Y-379573737D01*
X398946470Y-379706114D01*
X398902898Y-379849751D01*
X398888185Y-379999129D01*
X398891872Y-380036562D01*
X398891871Y-384619284D01*
X398849934Y-384661221D01*
X398736666Y-384830739D01*
X398658645Y-385019097D01*
X398618871Y-385219056D01*
X386154478Y-385219056D01*
X386323774Y-385105937D01*
X386467937Y-384961774D01*
X386581205Y-384792256D01*
X386659226Y-384603898D01*
X386699000Y-384403939D01*
X386699000Y-384200061D01*
X386659226Y-384000102D01*
X386581205Y-383811744D01*
X386467937Y-383642226D01*
X386323774Y-383498063D01*
X386154256Y-383384795D01*
X386153010Y-383384279D01*
X386153010Y-373771488D01*
X386224486Y-373757271D01*
X386412844Y-373679250D01*
X386582362Y-373565982D01*
X386726525Y-373421819D01*
X386839793Y-373252301D01*
X386917814Y-373063943D01*
X386957588Y-372863984D01*
X386957588Y-372660106D01*
X386917814Y-372460147D01*
X386839793Y-372271789D01*
X386726525Y-372102271D01*
X386582362Y-371958108D01*
X386412844Y-371844840D01*
X386224486Y-371766819D01*
X386081019Y-371738282D01*
X386048655Y-371660148D01*
X385935387Y-371490630D01*
X385791224Y-371346467D01*
X385621706Y-371233199D01*
X385433348Y-371155178D01*
X385377173Y-371144004D01*
X385311205Y-370984744D01*
X385197937Y-370815226D01*
X385053774Y-370671063D01*
X384884256Y-370557795D01*
X384695898Y-370479774D01*
X384668697Y-370474364D01*
X384702000Y-370306939D01*
X384702000Y-370103061D01*
X384662226Y-369903102D01*
X384584205Y-369714744D01*
X384470937Y-369545226D01*
X384326774Y-369401063D01*
X384157256Y-369287795D01*
X383968898Y-369209774D01*
X383862927Y-369188695D01*
X383862927Y-369087061D01*
X383823153Y-368887102D01*
X383745132Y-368698744D01*
X383631864Y-368529226D01*
X383487701Y-368385063D01*
X383318183Y-368271795D01*
X383291298Y-368260659D01*
X383291298Y-368198060D01*
X383251524Y-367998101D01*
X383173503Y-367809743D01*
X383060235Y-367640225D01*
X382916072Y-367496062D01*
X382746554Y-367382794D01*
X382558196Y-367304773D01*
X382425697Y-367278417D01*
X382368256Y-367139744D01*
X382254988Y-366970226D01*
X382110825Y-366826063D01*
X381941307Y-366712795D01*
X381752949Y-366634774D01*
X381615485Y-366607431D01*
X381614226Y-366601102D01*
X381539211Y-366420000D01*
X461104721Y-366420000D01*
X461316538Y-366440769D01*
X461489237Y-366492910D01*
X461648518Y-366577602D01*
X461788319Y-366691619D01*
X461903308Y-366830617D01*
X461989110Y-366989305D01*
X462042455Y-367161635D01*
X462048578Y-367219892D01*
X461946898Y-367177774D01*
X461746939Y-367138000D01*
X461543061Y-367138000D01*
X461343102Y-367177774D01*
X461154744Y-367255795D01*
X460985226Y-367369063D01*
X460841063Y-367513226D01*
X460727795Y-367682744D01*
X460649774Y-367871102D01*
X460643612Y-367902078D01*
X460454102Y-367939774D01*
X460265744Y-368017795D01*
X460096226Y-368131063D01*
X459952063Y-368275226D01*
X459838795Y-368444744D01*
X459760774Y-368633102D01*
X459721000Y-368833061D01*
X459721000Y-369036939D01*
X459760774Y-369236898D01*
X459838795Y-369425256D01*
X459952063Y-369594774D01*
X460096226Y-369738937D01*
X460156001Y-369778877D01*
X460156000Y-388299289D01*
X460114063Y-388341226D01*
X460000795Y-388510744D01*
X459922774Y-388699102D01*
X459883000Y-388899061D01*
X459883000Y-389102939D01*
X459922774Y-389302898D01*
X460000795Y-389491256D01*
X460114063Y-389660774D01*
X460258226Y-389804937D01*
X460427744Y-389918205D01*
X460616102Y-389996226D01*
X460816061Y-390036000D01*
X460883000Y-390036000D01*
X460883000Y-407349289D01*
X460841063Y-407391226D01*
X460727795Y-407560744D01*
X460649774Y-407749102D01*
X460610000Y-407949061D01*
X460610000Y-408152939D01*
X460649774Y-408352898D01*
X460727795Y-408541256D01*
X460841063Y-408710774D01*
X460985226Y-408854937D01*
X461154744Y-408968205D01*
X461343102Y-409046226D01*
X461543061Y-409086000D01*
X461746939Y-409086000D01*
X461946898Y-409046226D01*
X462064501Y-408997513D01*
X462064501Y-418686711D01*
X462057034Y-418762863D01*
X462044295Y-418805058D01*
X462023602Y-418843976D01*
X461995745Y-418878132D01*
X461961787Y-418906224D01*
X461923014Y-418927188D01*
X461880907Y-418940223D01*
X461806912Y-418948000D01*
X431378630Y-418948000D01*
X431931346Y-418395284D01*
X431960422Y-418371422D01*
X432035537Y-418279894D01*
X432055645Y-418255393D01*
X432105535Y-418162055D01*
X432126402Y-418123015D01*
X432169974Y-417979378D01*
X432181000Y-417867426D01*
X432181000Y-417867423D01*
X432184686Y-417830000D01*
X432181000Y-417792577D01*
X432181000Y-416337711D01*
X432222937Y-416295774D01*
X432336205Y-416126256D01*
X432414226Y-415937898D01*
X432454000Y-415737939D01*
X432454000Y-415534061D01*
X432414226Y-415334102D01*
X432336205Y-415145744D01*
X432222937Y-414976226D01*
X432086984Y-414840273D01*
X432641523Y-414729968D01*
X433166560Y-414512491D01*
X433639080Y-414196763D01*
X434040926Y-413794917D01*
X434356654Y-413322397D01*
X434574131Y-412797360D01*
X434685000Y-412239985D01*
X434685000Y-411671689D01*
X434574131Y-411114314D01*
X434356654Y-410589277D01*
X434040926Y-410116757D01*
X433639080Y-409714911D01*
X433166560Y-409399183D01*
X432641523Y-409181706D01*
X432084148Y-409070837D01*
X431515852Y-409070837D01*
X430958477Y-409181706D01*
X430433440Y-409399183D01*
X429960920Y-409714911D01*
X429559074Y-410116757D01*
X429243346Y-410589277D01*
X429025869Y-411114314D01*
X428915000Y-411671689D01*
X428915000Y-412239985D01*
X429025869Y-412797360D01*
X429243346Y-413322397D01*
X429559074Y-413794917D01*
X429960920Y-414196763D01*
X430433440Y-414512491D01*
X430930123Y-414718224D01*
X430928744Y-414718795D01*
X430759226Y-414832063D01*
X430615063Y-414976226D01*
X430501795Y-415145744D01*
X430423774Y-415334102D01*
X430384000Y-415534061D01*
X430384000Y-415737939D01*
X430423774Y-415937898D01*
X430501795Y-416126256D01*
X430615063Y-416295774D01*
X430657000Y-416337711D01*
X430657001Y-417514369D01*
X430446369Y-417725001D01*
X424522999Y-417725001D01*
X424522999Y-417658062D01*
X424483225Y-417458103D01*
X424405204Y-417269745D01*
X424291936Y-417100227D01*
X424147773Y-416956064D01*
X423978255Y-416842796D01*
X423789897Y-416764775D01*
X423589938Y-416725001D01*
X423386060Y-416725001D01*
X423186101Y-416764775D01*
X422997743Y-416842796D01*
X422828225Y-416956064D01*
X422786288Y-416998001D01*
X397641629Y-416998001D01*
X398949631Y-415690000D01*
X399008939Y-415690000D01*
X399208898Y-415650226D01*
X399397256Y-415572205D01*
X399424220Y-415554188D01*
X399396000Y-415696061D01*
X399396000Y-415899939D01*
X399435774Y-416099898D01*
X399513795Y-416288256D01*
X399627063Y-416457774D01*
X399771226Y-416601937D01*
X399940744Y-416715205D01*
X400129102Y-416793226D01*
X400329061Y-416833000D01*
X400532939Y-416833000D01*
X400732898Y-416793226D01*
X400921256Y-416715205D01*
X401090774Y-416601937D01*
X401234937Y-416457774D01*
X401348205Y-416288256D01*
X401426226Y-416099898D01*
X401466000Y-415899939D01*
X401466000Y-415840631D01*
X401832351Y-415474279D01*
X401861422Y-415450422D01*
X401925282Y-415372608D01*
X401956645Y-415334393D01*
X402027401Y-415202016D01*
X402027402Y-415202015D01*
X402070974Y-415058378D01*
X402082000Y-414946426D01*
X402082000Y-414946423D01*
X402085686Y-414909000D01*
X402082000Y-414871577D01*
X402082000Y-411130711D01*
X402123937Y-411088774D01*
X402237205Y-410919256D01*
X402315226Y-410730898D01*
X402355000Y-410530939D01*
X402355000Y-410464000D01*
X404079620Y-410464000D01*
X404117043Y-410467686D01*
X404154466Y-410464000D01*
X404154469Y-410464000D01*
X404266421Y-410452974D01*
X404410058Y-410409402D01*
X404542435Y-410338645D01*
X404658465Y-410243422D01*
X404682327Y-410214346D01*
X406404352Y-408492322D01*
X406433422Y-408468465D01*
X406528645Y-408352435D01*
X406599402Y-408220058D01*
X406642974Y-408076421D01*
X406654000Y-407964469D01*
X406654000Y-407964467D01*
X406657686Y-407927044D01*
X406654000Y-407889621D01*
X406654000Y-407609711D01*
X406695937Y-407567774D01*
X406809205Y-407398256D01*
X406887226Y-407209898D01*
X406927000Y-407009939D01*
X406927000Y-406892974D01*
X406955898Y-406887226D01*
X407144256Y-406809205D01*
X407313774Y-406695937D01*
X407457937Y-406551774D01*
X407571205Y-406382256D01*
X407649226Y-406193898D01*
X407659732Y-406141076D01*
X429171100Y-406141076D01*
X429171100Y-406658924D01*
X429272127Y-407166822D01*
X429470299Y-407645251D01*
X429758000Y-408075826D01*
X430124174Y-408442000D01*
X430554749Y-408729701D01*
X431033178Y-408927873D01*
X431541076Y-409028900D01*
X432058924Y-409028900D01*
X432566822Y-408927873D01*
X433045251Y-408729701D01*
X433475826Y-408442000D01*
X433842000Y-408075826D01*
X434129701Y-407645251D01*
X434327873Y-407166822D01*
X434428900Y-406658924D01*
X434428900Y-406141076D01*
X434327873Y-405633178D01*
X434129701Y-405154749D01*
X433842000Y-404724174D01*
X433475826Y-404358000D01*
X433045251Y-404070299D01*
X432566822Y-403872127D01*
X432058924Y-403771100D01*
X431541076Y-403771100D01*
X431033178Y-403872127D01*
X430554749Y-404070299D01*
X430124174Y-404358000D01*
X429758000Y-404724174D01*
X429470299Y-405154749D01*
X429272127Y-405633178D01*
X429171100Y-406141076D01*
X407659732Y-406141076D01*
X407689000Y-405993939D01*
X407689000Y-405790061D01*
X407649226Y-405590102D01*
X407571205Y-405401744D01*
X407457937Y-405232226D01*
X407416000Y-405190289D01*
X407416000Y-387162711D01*
X407457937Y-387120774D01*
X407571205Y-386951256D01*
X407649226Y-386762898D01*
X407689000Y-386562939D01*
X407689000Y-386359061D01*
X407649226Y-386159102D01*
X407571205Y-385970744D01*
X407457937Y-385801226D01*
X407313774Y-385657063D01*
X407144256Y-385543795D01*
X406955898Y-385465774D01*
X406755939Y-385426000D01*
X406552061Y-385426000D01*
X406352102Y-385465774D01*
X406163744Y-385543795D01*
X405994226Y-385657063D01*
X405850063Y-385801226D01*
X405736795Y-385970744D01*
X405658774Y-386159102D01*
X405619000Y-386359061D01*
X405619000Y-386562939D01*
X405658774Y-386762898D01*
X405736795Y-386951256D01*
X405850063Y-387120774D01*
X405892000Y-387162711D01*
X405892000Y-388680289D01*
X405789774Y-388578063D01*
X405620256Y-388464795D01*
X405431898Y-388386774D01*
X405231939Y-388347000D01*
X405028061Y-388347000D01*
X404828102Y-388386774D01*
X404639744Y-388464795D01*
X404470226Y-388578063D01*
X404326063Y-388722226D01*
X404212795Y-388891744D01*
X404134774Y-389080102D01*
X404095000Y-389280061D01*
X404095000Y-389339369D01*
X403509653Y-389924717D01*
X403480577Y-389948579D01*
X403456444Y-389977986D01*
X403385354Y-390064609D01*
X403357995Y-390115795D01*
X403314597Y-390196987D01*
X403271025Y-390340624D01*
X403266029Y-390391355D01*
X403256313Y-390490001D01*
X403259999Y-390527424D01*
X403260000Y-406706493D01*
X403256313Y-406743926D01*
X403271026Y-406893304D01*
X403294444Y-406970504D01*
X387605582Y-406970504D01*
X387623000Y-406882939D01*
X387623000Y-406679061D01*
X387583226Y-406479102D01*
X387505205Y-406290744D01*
X387391937Y-406121226D01*
X387350000Y-406079289D01*
X387350000Y-403667630D01*
X387792631Y-403225000D01*
X399123577Y-403225000D01*
X399161000Y-403228686D01*
X399198423Y-403225000D01*
X399198426Y-403225000D01*
X399310378Y-403213974D01*
X399454015Y-403170402D01*
X399586392Y-403099645D01*
X399702422Y-403004422D01*
X399726284Y-402975346D01*
X399838630Y-402863000D01*
X399897939Y-402863000D01*
X400097898Y-402823226D01*
X400286256Y-402745205D01*
X400455774Y-402631937D01*
X400599937Y-402487774D01*
X400713205Y-402318256D01*
X400791226Y-402129898D01*
X400831000Y-401929939D01*
X400831000Y-401726061D01*
X400791226Y-401526102D01*
X400713205Y-401337744D01*
X400614969Y-401190723D01*
X400684410Y-401023079D01*
X400724184Y-400823120D01*
X400724184Y-400619242D01*
X400684410Y-400419283D01*
X400646984Y-400328929D01*
X400721081Y-400218034D01*
X400799102Y-400029676D01*
X400838876Y-399829717D01*
X400838876Y-399625839D01*
X400799102Y-399425880D01*
X400721081Y-399237522D01*
X400607813Y-399068004D01*
X400463650Y-398923841D01*
X400294132Y-398810573D01*
X400105774Y-398732552D01*
X399905815Y-398692778D01*
X399701937Y-398692778D01*
X399501978Y-398732552D01*
X399313620Y-398810573D01*
X399144102Y-398923841D01*
X399102165Y-398965778D01*
X392415436Y-398965778D01*
X392285256Y-398878795D01*
X392096898Y-398800774D01*
X391896939Y-398761000D01*
X391693061Y-398761000D01*
X391493102Y-398800774D01*
X391304744Y-398878795D01*
X391135226Y-398992063D01*
X390991063Y-399136226D01*
X390877795Y-399305744D01*
X390799774Y-399494102D01*
X390760000Y-399694061D01*
X390760000Y-399897939D01*
X390799774Y-400097898D01*
X390877795Y-400286256D01*
X390991063Y-400455774D01*
X391135226Y-400599937D01*
X391304744Y-400713205D01*
X391493102Y-400791226D01*
X391693061Y-400831000D01*
X391896939Y-400831000D01*
X392096898Y-400791226D01*
X392285256Y-400713205D01*
X392454774Y-400599937D01*
X392564933Y-400489778D01*
X398679936Y-400489778D01*
X398654184Y-400619242D01*
X398654184Y-400678550D01*
X398085745Y-401246990D01*
X387326365Y-401246990D01*
X387288942Y-401243304D01*
X387251519Y-401246990D01*
X387251517Y-401246990D01*
X387139565Y-401258016D01*
X386995928Y-401301588D01*
X386863551Y-401372345D01*
X386747521Y-401467568D01*
X386723664Y-401496638D01*
X385059654Y-403160649D01*
X385030578Y-403184511D01*
X385006399Y-403213974D01*
X384935355Y-403300541D01*
X384910722Y-403346627D01*
X384864598Y-403432919D01*
X384821026Y-403576556D01*
X384810000Y-403688507D01*
X384806314Y-403725933D01*
X384810000Y-403763356D01*
X384810001Y-406303792D01*
X384768063Y-406345730D01*
X384654795Y-406515248D01*
X384576774Y-406703606D01*
X384537000Y-406903565D01*
X384537000Y-406970504D01*
X376679134Y-406970504D01*
X375685000Y-405976370D01*
X375685000Y-405917061D01*
X375645226Y-405717102D01*
X375567205Y-405528744D01*
X375453937Y-405359226D01*
X375309774Y-405215063D01*
X375140256Y-405101795D01*
X374951898Y-405023774D01*
X374751939Y-404984000D01*
X374692631Y-404984000D01*
X373218001Y-403509371D01*
X373218001Y-384685424D01*
X373221687Y-384648001D01*
X373217343Y-384603898D01*
X373206975Y-384498623D01*
X373163403Y-384354986D01*
X373126527Y-384285995D01*
X373092646Y-384222608D01*
X373021280Y-384135649D01*
X372997423Y-384106579D01*
X372968354Y-384082723D01*
X372510000Y-383624369D01*
X372510000Y-383565061D01*
X372470226Y-383365102D01*
X372392205Y-383176744D01*
X372278937Y-383007226D01*
X372134774Y-382863063D01*
X371965256Y-382749795D01*
X371776898Y-382671774D01*
X371576939Y-382632000D01*
X371373061Y-382632000D01*
X371173102Y-382671774D01*
X370984744Y-382749795D01*
X370815226Y-382863063D01*
X370671063Y-383007226D01*
X370557795Y-383176744D01*
X370479774Y-383365102D01*
X370440000Y-383565061D01*
X370440000Y-383768939D01*
X370479774Y-383968898D01*
X370557795Y-384157256D01*
X370671063Y-384326774D01*
X370815226Y-384470937D01*
X370984744Y-384584205D01*
X371173102Y-384662226D01*
X371373061Y-384702000D01*
X371432369Y-384702000D01*
X371694001Y-384963632D01*
X371694001Y-386061000D01*
X371627061Y-386061000D01*
X371427102Y-386100774D01*
X371238744Y-386178795D01*
X371069226Y-386292063D01*
X370925063Y-386436226D01*
X370811795Y-386605744D01*
X370733774Y-386794102D01*
X370694000Y-386994061D01*
X370694000Y-387197939D01*
X370733774Y-387397898D01*
X370811795Y-387586256D01*
X370925063Y-387755774D01*
X370967001Y-387797712D01*
X370967000Y-409156577D01*
X370963314Y-409194000D01*
X370967000Y-409231423D01*
X370967000Y-409231425D01*
X370978026Y-409343377D01*
X371021598Y-409487014D01*
X371021599Y-409487015D01*
X371092355Y-409619392D01*
X371104979Y-409634774D01*
X371187578Y-409735422D01*
X371202000Y-409747258D01*
X371202000Y-409803939D01*
X371241774Y-410003898D01*
X371319795Y-410192256D01*
X371433063Y-410361774D01*
X371577226Y-410505937D01*
X371746744Y-410619205D01*
X371935102Y-410697226D01*
X372135061Y-410737000D01*
X372338939Y-410737000D01*
X372538898Y-410697226D01*
X372727256Y-410619205D01*
X372896774Y-410505937D01*
X372938711Y-410464000D01*
X399045247Y-410464000D01*
X399015000Y-410616061D01*
X399015000Y-410819939D01*
X399054774Y-411019898D01*
X399132795Y-411208256D01*
X399246063Y-411377774D01*
X399288001Y-411419712D01*
X399288001Y-411674531D01*
X399259795Y-411716744D01*
X399181774Y-411905102D01*
X399142000Y-412105061D01*
X399142000Y-412308939D01*
X399181774Y-412508898D01*
X399259795Y-412697256D01*
X399373063Y-412866774D01*
X399517226Y-413010937D01*
X399686744Y-413124205D01*
X399875102Y-413202226D01*
X400075061Y-413242000D01*
X400278939Y-413242000D01*
X400478898Y-413202226D01*
X400558001Y-413169460D01*
X400558001Y-414593368D01*
X400388369Y-414763000D01*
X400329061Y-414763000D01*
X400129102Y-414802774D01*
X399940744Y-414880795D01*
X399913780Y-414898812D01*
X399942000Y-414756939D01*
X399942000Y-414553061D01*
X399902226Y-414353102D01*
X399824205Y-414164744D01*
X399710937Y-413995226D01*
X399566774Y-413851063D01*
X399397256Y-413737795D01*
X399208898Y-413659774D01*
X399008939Y-413620000D01*
X398805061Y-413620000D01*
X398605102Y-413659774D01*
X398416744Y-413737795D01*
X398247226Y-413851063D01*
X398103063Y-413995226D01*
X397989795Y-414164744D01*
X397911774Y-414353102D01*
X397872000Y-414553061D01*
X397872000Y-414612369D01*
X396213369Y-416271001D01*
X386607000Y-416271001D01*
X386607000Y-416204062D01*
X386567226Y-416004103D01*
X386489205Y-415815745D01*
X386375937Y-415646227D01*
X386334000Y-415604290D01*
X386334000Y-414566999D01*
X386435939Y-414566999D01*
X386635898Y-414527225D01*
X386824256Y-414449204D01*
X386993774Y-414335936D01*
X387137937Y-414191773D01*
X387251205Y-414022255D01*
X387329226Y-413833897D01*
X387369000Y-413633938D01*
X387369000Y-413430060D01*
X387329226Y-413230101D01*
X387251205Y-413041743D01*
X387171387Y-412922287D01*
X387231777Y-412881936D01*
X387375940Y-412737773D01*
X387489208Y-412568255D01*
X387567229Y-412379897D01*
X387607003Y-412179938D01*
X387607003Y-411976060D01*
X387567229Y-411776101D01*
X387489208Y-411587743D01*
X387375940Y-411418225D01*
X387231777Y-411274062D01*
X387062259Y-411160794D01*
X386873901Y-411082773D01*
X386673942Y-411042999D01*
X386470064Y-411042999D01*
X386270105Y-411082773D01*
X386081747Y-411160794D01*
X386072002Y-411167306D01*
X386062256Y-411160794D01*
X385873898Y-411082773D01*
X385673939Y-411042999D01*
X385470061Y-411042999D01*
X385270102Y-411082773D01*
X385081744Y-411160794D01*
X384912226Y-411274062D01*
X384768063Y-411418225D01*
X384654795Y-411587743D01*
X384576774Y-411776101D01*
X384537000Y-411976060D01*
X384537000Y-412179938D01*
X384576774Y-412379897D01*
X384654795Y-412568255D01*
X384768063Y-412737773D01*
X384810000Y-412779710D01*
X384810001Y-415604289D01*
X384768063Y-415646227D01*
X384654795Y-415815745D01*
X384576774Y-416004103D01*
X384537000Y-416204062D01*
X384537000Y-416271001D01*
X365525000Y-416271001D01*
X365525000Y-416204061D01*
X365485226Y-416004102D01*
X365407205Y-415815744D01*
X365293937Y-415646226D01*
X365252000Y-415604289D01*
X365252000Y-411972000D01*
X365318939Y-411972000D01*
X365518898Y-411932226D01*
X365707256Y-411854205D01*
X365876774Y-411740937D01*
X366020937Y-411596774D01*
X366134205Y-411427256D01*
X366212226Y-411238898D01*
X366252000Y-411038939D01*
X366252000Y-410835061D01*
X366212226Y-410635102D01*
X366134205Y-410446744D01*
X366020937Y-410277226D01*
X365979000Y-410235289D01*
X365979000Y-391804762D01*
X366020937Y-391762825D01*
X366134205Y-391593307D01*
X366212226Y-391404949D01*
X366252000Y-391204990D01*
X366252000Y-391001112D01*
X366212226Y-390801153D01*
X366134205Y-390612795D01*
X366020937Y-390443277D01*
X365876774Y-390299114D01*
X365707256Y-390185846D01*
X365518898Y-390107825D01*
X365512569Y-390106566D01*
X365485226Y-389969102D01*
X365407205Y-389780744D01*
X365293937Y-389611226D01*
X365149774Y-389467063D01*
X364980256Y-389353795D01*
X364791898Y-389275774D01*
X364591939Y-389236000D01*
X364388061Y-389236000D01*
X364188102Y-389275774D01*
X363999744Y-389353795D01*
X363830226Y-389467063D01*
X363686063Y-389611226D01*
X363572795Y-389780744D01*
X363494774Y-389969102D01*
X363455000Y-390169061D01*
X363455000Y-390372939D01*
X363494774Y-390572898D01*
X363572795Y-390761256D01*
X363686063Y-390930774D01*
X363728000Y-390972711D01*
X363728001Y-415604288D01*
X363686063Y-415646226D01*
X363572795Y-415815744D01*
X363494774Y-416004102D01*
X363455000Y-416204061D01*
X363455000Y-416271001D01*
X354673632Y-416271001D01*
X351346593Y-412943963D01*
X351360000Y-412876561D01*
X351360000Y-412623439D01*
X351310619Y-412375179D01*
X351213753Y-412141324D01*
X351073125Y-411930860D01*
X350894140Y-411751875D01*
X350837000Y-411713695D01*
X350837000Y-410108061D01*
X358248000Y-410108061D01*
X358248000Y-410311939D01*
X358287774Y-410511898D01*
X358365795Y-410700256D01*
X358479063Y-410869774D01*
X358623226Y-411013937D01*
X358792744Y-411127205D01*
X358981102Y-411205226D01*
X359181061Y-411245000D01*
X359384939Y-411245000D01*
X359584898Y-411205226D01*
X359773256Y-411127205D01*
X359942774Y-411013937D01*
X360086937Y-410869774D01*
X360200205Y-410700256D01*
X360278226Y-410511898D01*
X360318000Y-410311939D01*
X360318000Y-410108061D01*
X360278226Y-409908102D01*
X360200205Y-409719744D01*
X360086937Y-409550226D01*
X360045000Y-409508289D01*
X360045000Y-390459630D01*
X360487631Y-390017000D01*
X361022789Y-390017000D01*
X361064726Y-390058937D01*
X361234244Y-390172205D01*
X361422602Y-390250226D01*
X361622561Y-390290000D01*
X361826439Y-390290000D01*
X362026398Y-390250226D01*
X362214756Y-390172205D01*
X362384274Y-390058937D01*
X362528437Y-389914774D01*
X362641705Y-389745256D01*
X362719726Y-389556898D01*
X362759500Y-389356939D01*
X362759500Y-389153061D01*
X362719726Y-388953102D01*
X362641705Y-388764744D01*
X362528437Y-388595226D01*
X362384274Y-388451063D01*
X362214756Y-388337795D01*
X362026398Y-388259774D01*
X361826439Y-388220000D01*
X361622561Y-388220000D01*
X361422602Y-388259774D01*
X361234244Y-388337795D01*
X361064726Y-388451063D01*
X361022789Y-388493000D01*
X360209423Y-388493000D01*
X360172000Y-388489314D01*
X360134577Y-388493000D01*
X360134574Y-388493000D01*
X360022622Y-388504026D01*
X359878985Y-388547598D01*
X359827061Y-388575352D01*
X359746607Y-388618355D01*
X359678074Y-388674599D01*
X359630578Y-388713578D01*
X359606721Y-388742649D01*
X358770649Y-389578721D01*
X358741579Y-389602578D01*
X358717722Y-389631648D01*
X358717721Y-389631649D01*
X358646355Y-389718608D01*
X358575599Y-389850985D01*
X358532027Y-389994622D01*
X358517314Y-390144000D01*
X358521001Y-390181433D01*
X358521000Y-409508289D01*
X358479063Y-409550226D01*
X358365795Y-409719744D01*
X358287774Y-409908102D01*
X358248000Y-410108061D01*
X350837000Y-410108061D01*
X350837000Y-404161365D01*
X350883256Y-404142205D01*
X351052774Y-404028937D01*
X351196937Y-403884774D01*
X351310205Y-403715256D01*
X351388226Y-403526898D01*
X351428000Y-403326939D01*
X351428000Y-403123061D01*
X351388226Y-402923102D01*
X351310205Y-402734744D01*
X351196937Y-402565226D01*
X351052774Y-402421063D01*
X350883256Y-402307795D01*
X350837000Y-402288635D01*
X350837000Y-387475630D01*
X357693630Y-380619000D01*
X359470289Y-380619000D01*
X359512226Y-380660937D01*
X359681744Y-380774205D01*
X359870102Y-380852226D01*
X360070061Y-380892000D01*
X360273939Y-380892000D01*
X360473898Y-380852226D01*
X360662256Y-380774205D01*
X360831774Y-380660937D01*
X360975937Y-380516774D01*
X361089205Y-380347256D01*
X361167226Y-380158898D01*
X361207000Y-379958939D01*
X361207000Y-379755061D01*
X361167226Y-379555102D01*
X361089205Y-379366744D01*
X360975937Y-379197226D01*
X360831774Y-379053063D01*
X360662256Y-378939795D01*
X360473898Y-378861774D01*
X360273939Y-378822000D01*
X360070061Y-378822000D01*
X359870102Y-378861774D01*
X359681744Y-378939795D01*
X359512226Y-379053063D01*
X359470289Y-379095000D01*
X357415423Y-379095000D01*
X357378000Y-379091314D01*
X357340577Y-379095000D01*
X357340574Y-379095000D01*
X357228622Y-379106026D01*
X357084985Y-379149598D01*
X357050539Y-379168010D01*
X356952607Y-379220355D01*
X356945299Y-379226353D01*
X356836578Y-379315578D01*
X356812716Y-379344654D01*
X349562654Y-386594716D01*
X349533578Y-386618578D01*
X349500833Y-386658479D01*
X349438355Y-386734608D01*
X349432709Y-386745171D01*
X349367598Y-386866986D01*
X349324026Y-387010623D01*
X349313000Y-387122574D01*
X349309314Y-387160000D01*
X349313000Y-387197423D01*
X349313001Y-403123567D01*
X349309314Y-403161000D01*
X349313000Y-403198423D01*
X349313000Y-403834426D01*
X349313001Y-403834436D01*
X349313000Y-411713695D01*
X349255860Y-411751875D01*
X349076875Y-411930860D01*
X349075000Y-411933666D01*
X349073125Y-411930860D01*
X348894140Y-411751875D01*
X348683676Y-411611247D01*
X348449821Y-411514381D01*
X348201561Y-411465000D01*
X347948439Y-411465000D01*
X347700179Y-411514381D01*
X347466324Y-411611247D01*
X347255860Y-411751875D01*
X347076875Y-411930860D01*
X347075000Y-411933666D01*
X347073125Y-411930860D01*
X346894140Y-411751875D01*
X346683676Y-411611247D01*
X346449821Y-411514381D01*
X346201561Y-411465000D01*
X345948439Y-411465000D01*
X345700179Y-411514381D01*
X345466324Y-411611247D01*
X345255860Y-411751875D01*
X345076875Y-411930860D01*
X344936247Y-412141324D01*
X344839381Y-412375179D01*
X344790000Y-412623439D01*
X344790000Y-412876561D01*
X344839381Y-413124821D01*
X344936247Y-413358676D01*
X345076875Y-413569140D01*
X345255860Y-413748125D01*
X345258666Y-413750000D01*
X345255860Y-413751875D01*
X345076875Y-413930860D01*
X344936247Y-414141324D01*
X344839381Y-414375179D01*
X344790000Y-414623439D01*
X344790000Y-414876561D01*
X344839381Y-415124821D01*
X344936247Y-415358676D01*
X345076875Y-415569140D01*
X345255860Y-415748125D01*
X345466324Y-415888753D01*
X345700179Y-415985619D01*
X345948439Y-416035000D01*
X346201561Y-416035000D01*
X346449821Y-415985619D01*
X346683676Y-415888753D01*
X346894140Y-415748125D01*
X347073125Y-415569140D01*
X347075000Y-415566334D01*
X347076875Y-415569140D01*
X347255860Y-415748125D01*
X347466324Y-415888753D01*
X347700179Y-415985619D01*
X347948439Y-416035000D01*
X348201561Y-416035000D01*
X348449821Y-415985619D01*
X348683676Y-415888753D01*
X348894140Y-415748125D01*
X349006738Y-415635527D01*
X349369078Y-415635527D01*
X349422466Y-415864201D01*
X349652374Y-415970095D01*
X349898524Y-416029102D01*
X350151455Y-416038952D01*
X350401449Y-415999270D01*
X350638896Y-415911578D01*
X350727534Y-415864201D01*
X350780922Y-415635527D01*
X350075000Y-414929605D01*
X349369078Y-415635527D01*
X349006738Y-415635527D01*
X349073125Y-415569140D01*
X349154267Y-415447703D01*
X349189473Y-415455922D01*
X349895395Y-414750000D01*
X349189473Y-414044078D01*
X349154267Y-414052297D01*
X349073125Y-413930860D01*
X348894140Y-413751875D01*
X348891334Y-413750000D01*
X348894140Y-413748125D01*
X349073125Y-413569140D01*
X349075000Y-413566334D01*
X349076875Y-413569140D01*
X349255860Y-413748125D01*
X349377297Y-413829267D01*
X349369078Y-413864473D01*
X350075000Y-414570395D01*
X350089143Y-414556253D01*
X350268748Y-414735858D01*
X350254605Y-414750000D01*
X350960527Y-415455922D01*
X351189201Y-415402534D01*
X351295095Y-415172626D01*
X351319247Y-415071877D01*
X353792722Y-417545353D01*
X353816579Y-417574423D01*
X353932609Y-417669646D01*
X354064986Y-417740403D01*
X354208623Y-417783975D01*
X354320575Y-417795001D01*
X354320577Y-417795001D01*
X354358000Y-417798687D01*
X354395423Y-417795001D01*
X384537000Y-417795001D01*
X384537000Y-417861940D01*
X384576774Y-418061899D01*
X384654795Y-418250257D01*
X384768063Y-418419775D01*
X384912226Y-418563938D01*
X385081744Y-418677206D01*
X385270102Y-418755227D01*
X385334629Y-418768062D01*
X385338774Y-418788899D01*
X385404676Y-418948000D01*
X338804780Y-418948000D01*
X338592962Y-418927231D01*
X338420264Y-418875091D01*
X338260982Y-418790399D01*
X338121179Y-418676378D01*
X338006194Y-418537385D01*
X337920390Y-418378695D01*
X337867045Y-418206365D01*
X337845000Y-417996619D01*
X337845000Y-374204061D01*
X341574000Y-374204061D01*
X341574000Y-374407939D01*
X341613774Y-374607898D01*
X341691795Y-374796256D01*
X341805063Y-374965774D01*
X341820501Y-374981212D01*
X341820500Y-376816497D01*
X341728795Y-376953744D01*
X341650774Y-377142102D01*
X341611000Y-377342061D01*
X341611000Y-377545939D01*
X341650774Y-377745898D01*
X341728795Y-377934256D01*
X341842063Y-378103774D01*
X341986226Y-378247937D01*
X342155744Y-378361205D01*
X342344102Y-378439226D01*
X342544061Y-378479000D01*
X342747939Y-378479000D01*
X342947898Y-378439226D01*
X343136256Y-378361205D01*
X343305774Y-378247937D01*
X343449937Y-378103774D01*
X343563205Y-377934256D01*
X343641226Y-377745898D01*
X343681000Y-377545939D01*
X343681000Y-377342061D01*
X343641226Y-377142102D01*
X343563205Y-376953744D01*
X343471500Y-376816497D01*
X343471500Y-375094500D01*
X346773500Y-375094500D01*
X346773501Y-378181951D01*
X346730774Y-378285102D01*
X346691000Y-378485061D01*
X346691000Y-378688939D01*
X346730774Y-378888898D01*
X346808795Y-379077256D01*
X346922063Y-379246774D01*
X347066226Y-379390937D01*
X347235744Y-379504205D01*
X347424102Y-379582226D01*
X347624061Y-379622000D01*
X347827939Y-379622000D01*
X348027898Y-379582226D01*
X348216256Y-379504205D01*
X348385774Y-379390937D01*
X348529937Y-379246774D01*
X348643205Y-379077256D01*
X348721226Y-378888898D01*
X348761000Y-378688939D01*
X348761000Y-378485061D01*
X348721226Y-378285102D01*
X348643205Y-378096744D01*
X348529937Y-377927226D01*
X348424500Y-377821789D01*
X348424500Y-374896503D01*
X348516205Y-374759256D01*
X348594226Y-374570898D01*
X348634000Y-374370939D01*
X348634000Y-374167061D01*
X348594226Y-373967102D01*
X348516205Y-373778744D01*
X348402937Y-373609226D01*
X348258774Y-373465063D01*
X348089256Y-373351795D01*
X347900898Y-373273774D01*
X347700939Y-373234000D01*
X347497061Y-373234000D01*
X347297102Y-373273774D01*
X347108744Y-373351795D01*
X346971497Y-373443500D01*
X343181128Y-373443500D01*
X343099256Y-373388795D01*
X342910898Y-373310774D01*
X342710939Y-373271000D01*
X342507061Y-373271000D01*
X342307102Y-373310774D01*
X342118744Y-373388795D01*
X341949226Y-373502063D01*
X341805063Y-373646226D01*
X341691795Y-373815744D01*
X341613774Y-374004102D01*
X341574000Y-374204061D01*
X337845000Y-374204061D01*
X337845000Y-371651000D01*
X339604000Y-371651000D01*
X339604000Y-372201000D01*
X339650585Y-372419987D01*
X339738997Y-372625678D01*
X339865839Y-372810169D01*
X340026236Y-372966369D01*
X340214024Y-373088276D01*
X340437126Y-373168119D01*
X340612000Y-373041954D01*
X340612000Y-371651000D01*
X339604000Y-371651000D01*
X337845000Y-371651000D01*
X337845000Y-370847000D01*
X339604000Y-370847000D01*
X339604000Y-371397000D01*
X340612000Y-371397000D01*
X340612000Y-370006046D01*
X340866000Y-370006046D01*
X340866000Y-371397000D01*
X340886000Y-371397000D01*
X340886000Y-371651000D01*
X340866000Y-371651000D01*
X340866000Y-373041954D01*
X341040874Y-373168119D01*
X341263976Y-373088276D01*
X341451764Y-372966369D01*
X341612161Y-372810169D01*
X341739003Y-372625678D01*
X341827415Y-372419987D01*
X341874000Y-372201000D01*
X341874000Y-371910904D01*
X341888978Y-371917108D01*
X342074448Y-371954000D01*
X342263552Y-371954000D01*
X342449022Y-371917108D01*
X342623731Y-371844741D01*
X342780964Y-371739681D01*
X342914681Y-371605964D01*
X343019741Y-371448731D01*
X343092108Y-371274022D01*
X343129000Y-371088552D01*
X343129000Y-370899448D01*
X346989000Y-370899448D01*
X346989000Y-371088552D01*
X347025892Y-371274022D01*
X347098259Y-371448731D01*
X347203319Y-371605964D01*
X347337036Y-371739681D01*
X347494269Y-371844741D01*
X347668978Y-371917108D01*
X347854448Y-371954000D01*
X348043552Y-371954000D01*
X348229022Y-371917108D01*
X348244000Y-371910904D01*
X348244000Y-372201000D01*
X348290585Y-372419987D01*
X348378997Y-372625678D01*
X348505839Y-372810169D01*
X348666236Y-372966369D01*
X348854024Y-373088276D01*
X349077126Y-373168119D01*
X349252000Y-373041954D01*
X349252000Y-371651000D01*
X349506000Y-371651000D01*
X349506000Y-373041954D01*
X349680874Y-373168119D01*
X349903976Y-373088276D01*
X350091764Y-372966369D01*
X350252161Y-372810169D01*
X350379003Y-372625678D01*
X350467415Y-372419987D01*
X350514000Y-372201000D01*
X350514000Y-371651000D01*
X349506000Y-371651000D01*
X349252000Y-371651000D01*
X349232000Y-371651000D01*
X349232000Y-371397000D01*
X349252000Y-371397000D01*
X349252000Y-370006046D01*
X349506000Y-370006046D01*
X349506000Y-371397000D01*
X350514000Y-371397000D01*
X350514000Y-370847000D01*
X350467415Y-370628013D01*
X350379003Y-370422322D01*
X350252161Y-370237831D01*
X350091764Y-370081631D01*
X349903976Y-369959724D01*
X349680874Y-369879881D01*
X349506000Y-370006046D01*
X349252000Y-370006046D01*
X349077126Y-369879881D01*
X348854024Y-369959724D01*
X348666236Y-370081631D01*
X348521884Y-370222206D01*
X348403731Y-370143259D01*
X348229022Y-370070892D01*
X348043552Y-370034000D01*
X347854448Y-370034000D01*
X347668978Y-370070892D01*
X347494269Y-370143259D01*
X347337036Y-370248319D01*
X347203319Y-370382036D01*
X347098259Y-370539269D01*
X347025892Y-370713978D01*
X346989000Y-370899448D01*
X343129000Y-370899448D01*
X343092108Y-370713978D01*
X343019741Y-370539269D01*
X342914681Y-370382036D01*
X342780964Y-370248319D01*
X342623731Y-370143259D01*
X342449022Y-370070892D01*
X342263552Y-370034000D01*
X342074448Y-370034000D01*
X341888978Y-370070892D01*
X341714269Y-370143259D01*
X341596116Y-370222206D01*
X341451764Y-370081631D01*
X341263976Y-369959724D01*
X341040874Y-369879881D01*
X340866000Y-370006046D01*
X340612000Y-370006046D01*
X340437126Y-369879881D01*
X340214024Y-369959724D01*
X340026236Y-370081631D01*
X339865839Y-370237831D01*
X339738997Y-370422322D01*
X339650585Y-370628013D01*
X339604000Y-370847000D01*
X337845000Y-370847000D01*
X337845000Y-367471000D01*
X339604000Y-367471000D01*
X339604000Y-367771000D01*
X339650585Y-367989987D01*
X339738997Y-368195678D01*
X339865839Y-368380169D01*
X340026236Y-368536369D01*
X340214024Y-368658276D01*
X340437126Y-368738119D01*
X340612000Y-368611954D01*
X340612000Y-367471000D01*
X340866000Y-367471000D01*
X340866000Y-368611954D01*
X341040874Y-368738119D01*
X341263976Y-368658276D01*
X341451764Y-368536369D01*
X341612161Y-368380169D01*
X341739003Y-368195678D01*
X341827415Y-367989987D01*
X341874000Y-367771000D01*
X341874000Y-367471000D01*
X348244000Y-367471000D01*
X348244000Y-367771000D01*
X348290585Y-367989987D01*
X348378997Y-368195678D01*
X348505839Y-368380169D01*
X348666236Y-368536369D01*
X348854024Y-368658276D01*
X349077126Y-368738119D01*
X349252000Y-368611954D01*
X349252000Y-367471000D01*
X349506000Y-367471000D01*
X349506000Y-368611954D01*
X349680874Y-368738119D01*
X349903976Y-368658276D01*
X350091764Y-368536369D01*
X350252161Y-368380169D01*
X350379003Y-368195678D01*
X350467415Y-367989987D01*
X350514000Y-367771000D01*
X350514000Y-367471000D01*
X349506000Y-367471000D01*
X349252000Y-367471000D01*
X348244000Y-367471000D01*
X341874000Y-367471000D01*
X340866000Y-367471000D01*
X340612000Y-367471000D01*
X339604000Y-367471000D01*
X337845000Y-367471000D01*
X337845000Y-366681279D01*
X337852466Y-366605137D01*
X337865205Y-366562942D01*
X337885898Y-366524024D01*
X337913755Y-366489868D01*
X337947714Y-366461775D01*
X337986485Y-366440812D01*
X338028593Y-366427777D01*
X338102588Y-366420000D01*
X339788720Y-366420000D01*
X339738997Y-366492322D01*
G04 #@! TA.AperFunction,Conductor*
D17*
G36*
X339738997Y-366492322D02*
G01*
X339650585Y-366698013D01*
X339604000Y-366917000D01*
X339604000Y-367217000D01*
X340612000Y-367217000D01*
X340612000Y-367197000D01*
X340866000Y-367197000D01*
X340866000Y-367217000D01*
X341874000Y-367217000D01*
X341874000Y-366917000D01*
X341827415Y-366698013D01*
X341739003Y-366492322D01*
X341689280Y-366420000D01*
X348428720Y-366420000D01*
X348378997Y-366492322D01*
X348290585Y-366698013D01*
X348244000Y-366917000D01*
X348244000Y-367217000D01*
X349252000Y-367217000D01*
X349252000Y-367197000D01*
X349506000Y-367197000D01*
X349506000Y-367217000D01*
X350514000Y-367217000D01*
X350514000Y-366917000D01*
X350467415Y-366698013D01*
X350379003Y-366492322D01*
X350329280Y-366420000D01*
X379698789Y-366420000D01*
X379623774Y-366601102D01*
X379584000Y-366801061D01*
X379584000Y-367004939D01*
X379623774Y-367204898D01*
X379701795Y-367393256D01*
X379815063Y-367562774D01*
X379857001Y-367604712D01*
X379857000Y-386140289D01*
X379815063Y-386182226D01*
X379701795Y-386351744D01*
X379623774Y-386540102D01*
X379584000Y-386740061D01*
X379584000Y-386943939D01*
X379623774Y-387143898D01*
X379701795Y-387332256D01*
X379815063Y-387501774D01*
X379959226Y-387645937D01*
X380128744Y-387759205D01*
X380317102Y-387837226D01*
X380328596Y-387839512D01*
X380330882Y-387851006D01*
X380408903Y-388039364D01*
X380522171Y-388208882D01*
X380666334Y-388353045D01*
X380835852Y-388466313D01*
X381024210Y-388544334D01*
X381140619Y-388567489D01*
X381183722Y-388671549D01*
X381296990Y-388841067D01*
X381441153Y-388985230D01*
X381610671Y-389098498D01*
X381798054Y-389176115D01*
X381802832Y-389200136D01*
X381880853Y-389388494D01*
X381994121Y-389558012D01*
X382138284Y-389702175D01*
X382307802Y-389815443D01*
X382496160Y-389893464D01*
X382696119Y-389933238D01*
X382899997Y-389933238D01*
X382905000Y-389932243D01*
X382905000Y-390077289D01*
X382863063Y-390119226D01*
X382749795Y-390288744D01*
X382671774Y-390477102D01*
X382632000Y-390677061D01*
X382632000Y-390880939D01*
X382671774Y-391080898D01*
X382749795Y-391269256D01*
X382863063Y-391438774D01*
X383007226Y-391582937D01*
X383176744Y-391696205D01*
X383365102Y-391774226D01*
X383565061Y-391814000D01*
X383632001Y-391814000D01*
X383632001Y-398875288D01*
X383625063Y-398882226D01*
X383511795Y-399051744D01*
X383433774Y-399240102D01*
X383394000Y-399440061D01*
X383394000Y-399643939D01*
X383433774Y-399843898D01*
X383511795Y-400032256D01*
X383625063Y-400201774D01*
X383769226Y-400345937D01*
X383938744Y-400459205D01*
X384127102Y-400537226D01*
X384327061Y-400577000D01*
X384530939Y-400577000D01*
X384730898Y-400537226D01*
X384919256Y-400459205D01*
X385088774Y-400345937D01*
X385232937Y-400201774D01*
X385346205Y-400032256D01*
X385424226Y-399843898D01*
X385464000Y-399643939D01*
X385464000Y-399440061D01*
X385424226Y-399240102D01*
X385346205Y-399051744D01*
X385232937Y-398882226D01*
X385156000Y-398805289D01*
X385156000Y-394100000D01*
X385222939Y-394100000D01*
X385422898Y-394060226D01*
X385611256Y-393982205D01*
X385780774Y-393868937D01*
X385924937Y-393724774D01*
X386038205Y-393555256D01*
X386116226Y-393366898D01*
X386156000Y-393166939D01*
X386156000Y-392963061D01*
X386116226Y-392763102D01*
X386038205Y-392574744D01*
X385924937Y-392405226D01*
X385780774Y-392261063D01*
X385699000Y-392206424D01*
X385699000Y-385337000D01*
X385765939Y-385337000D01*
X385965898Y-385297226D01*
X386154256Y-385219205D01*
X386154478Y-385219056D01*
X398618871Y-385219056D01*
X398618871Y-385422934D01*
X398658645Y-385622893D01*
X398736666Y-385811251D01*
X398755086Y-385838819D01*
X398751795Y-385843744D01*
X398673774Y-386032102D01*
X398634000Y-386232061D01*
X398634000Y-386435939D01*
X398673774Y-386635898D01*
X398751795Y-386824256D01*
X398865063Y-386993774D01*
X399009226Y-387137937D01*
X399178744Y-387251205D01*
X399367102Y-387329226D01*
X399567061Y-387369000D01*
X399770939Y-387369000D01*
X399970898Y-387329226D01*
X400159256Y-387251205D01*
X400328774Y-387137937D01*
X400472937Y-386993774D01*
X400586205Y-386824256D01*
X400664226Y-386635898D01*
X400704000Y-386435939D01*
X400704000Y-386376631D01*
X400893225Y-386187406D01*
X400922294Y-386163550D01*
X401017517Y-386047520D01*
X401088274Y-385915143D01*
X401131846Y-385771506D01*
X401142872Y-385659554D01*
X401142872Y-385659552D01*
X401146558Y-385622129D01*
X401142872Y-385584706D01*
X401142872Y-380603758D01*
X401816621Y-379930010D01*
X424191380Y-379930010D01*
X424377000Y-380115631D01*
X424376999Y-394713576D01*
X424373313Y-394750999D01*
X424376999Y-394788422D01*
X424376999Y-394788424D01*
X424388025Y-394900376D01*
X424431597Y-395044013D01*
X424446524Y-395071939D01*
X424502354Y-395176391D01*
X424541982Y-395224677D01*
X424597577Y-395292421D01*
X424626653Y-395316283D01*
X424831000Y-395520630D01*
X424831000Y-395579939D01*
X424870774Y-395779898D01*
X424948795Y-395968256D01*
X425062063Y-396137774D01*
X425206226Y-396281937D01*
X425375744Y-396395205D01*
X425564102Y-396473226D01*
X425764061Y-396513000D01*
X425831000Y-396513000D01*
X425831000Y-402425577D01*
X425827314Y-402463000D01*
X425831000Y-402500423D01*
X425831000Y-402500425D01*
X425842026Y-402612377D01*
X425885598Y-402756014D01*
X425914763Y-402810578D01*
X425956355Y-402888392D01*
X425971097Y-402906355D01*
X426051578Y-403004422D01*
X426080654Y-403028284D01*
X426327324Y-403274954D01*
X426297636Y-403346627D01*
X426230000Y-403686655D01*
X426230000Y-404033345D01*
X426297636Y-404373373D01*
X426430308Y-404693673D01*
X426622919Y-404981935D01*
X426868065Y-405227081D01*
X427156327Y-405419692D01*
X427476627Y-405552364D01*
X427816655Y-405620000D01*
X428163345Y-405620000D01*
X428503373Y-405552364D01*
X428823673Y-405419692D01*
X429111935Y-405227081D01*
X429357081Y-404981935D01*
X429549692Y-404693673D01*
X429682364Y-404373373D01*
X429750000Y-404033345D01*
X429750000Y-403686655D01*
X429682364Y-403346627D01*
X429549692Y-403026327D01*
X429357081Y-402738065D01*
X429111935Y-402492919D01*
X428823673Y-402300308D01*
X428503373Y-402167636D01*
X428163345Y-402100000D01*
X427816655Y-402100000D01*
X427476627Y-402167636D01*
X427404954Y-402197324D01*
X427355000Y-402147370D01*
X427355000Y-401146655D01*
X432580000Y-401146655D01*
X432580000Y-401493345D01*
X432647636Y-401833373D01*
X432780308Y-402153673D01*
X432972919Y-402441935D01*
X433218065Y-402687081D01*
X433506327Y-402879692D01*
X433826627Y-403012364D01*
X434166655Y-403080000D01*
X434513345Y-403080000D01*
X434853373Y-403012364D01*
X435173673Y-402879692D01*
X435461935Y-402687081D01*
X435707081Y-402441935D01*
X435899692Y-402153673D01*
X436032364Y-401833373D01*
X436100000Y-401493345D01*
X436100000Y-401146655D01*
X436032364Y-400806627D01*
X435899692Y-400486327D01*
X435707081Y-400198065D01*
X435461935Y-399952919D01*
X435173673Y-399760308D01*
X434853373Y-399627636D01*
X434513345Y-399560000D01*
X434166655Y-399560000D01*
X433826627Y-399627636D01*
X433506327Y-399760308D01*
X433218065Y-399952919D01*
X432972919Y-400198065D01*
X432780308Y-400486327D01*
X432647636Y-400806627D01*
X432580000Y-401146655D01*
X427355000Y-401146655D01*
X427355000Y-396513000D01*
X427456939Y-396513000D01*
X427656898Y-396473226D01*
X427845256Y-396395205D01*
X428014774Y-396281937D01*
X428158937Y-396137774D01*
X428272205Y-395968256D01*
X428318510Y-395856466D01*
X428560823Y-395856466D01*
X428602760Y-395898403D01*
X428772278Y-396011671D01*
X428960636Y-396089692D01*
X429160595Y-396129466D01*
X429364473Y-396129466D01*
X429564432Y-396089692D01*
X429752790Y-396011671D01*
X429922308Y-395898403D01*
X430066471Y-395754240D01*
X430179739Y-395584722D01*
X430257760Y-395396364D01*
X430266380Y-395353028D01*
X430433440Y-395464654D01*
X430958477Y-395682131D01*
X431515852Y-395793000D01*
X432084148Y-395793000D01*
X432641523Y-395682131D01*
X433166560Y-395464654D01*
X433639080Y-395148926D01*
X434040926Y-394747080D01*
X434356654Y-394274560D01*
X434574131Y-393749523D01*
X434685000Y-393192148D01*
X434685000Y-392623852D01*
X434574131Y-392066477D01*
X434356654Y-391541440D01*
X434040926Y-391068920D01*
X433639080Y-390667074D01*
X433166560Y-390351346D01*
X432641523Y-390133869D01*
X432084148Y-390023000D01*
X431515852Y-390023000D01*
X430958477Y-390133869D01*
X430433440Y-390351346D01*
X429960920Y-390667074D01*
X429559074Y-391068920D01*
X429243346Y-391541440D01*
X429025869Y-392066477D01*
X428915000Y-392623852D01*
X428915000Y-393192148D01*
X429025869Y-393749523D01*
X429154734Y-394060632D01*
X428960636Y-394099240D01*
X428772278Y-394177261D01*
X428602760Y-394290529D01*
X428560823Y-394332466D01*
X427775957Y-394332466D01*
X427738534Y-394328780D01*
X427701111Y-394332466D01*
X427701108Y-394332466D01*
X427589156Y-394343492D01*
X427445519Y-394387064D01*
X427355000Y-394435447D01*
X427355000Y-387091076D01*
X429171100Y-387091076D01*
X429171100Y-387608924D01*
X429272127Y-388116822D01*
X429470299Y-388595251D01*
X429758000Y-389025826D01*
X430124174Y-389392000D01*
X430554749Y-389679701D01*
X431033178Y-389877873D01*
X431541076Y-389978900D01*
X432058924Y-389978900D01*
X432566822Y-389877873D01*
X433045251Y-389679701D01*
X433475826Y-389392000D01*
X433842000Y-389025826D01*
X434129701Y-388595251D01*
X434327873Y-388116822D01*
X434428900Y-387608924D01*
X434428900Y-387091076D01*
X434327873Y-386583178D01*
X434129701Y-386104749D01*
X433842000Y-385674174D01*
X433475826Y-385308000D01*
X433045251Y-385020299D01*
X432566822Y-384822127D01*
X432058924Y-384721100D01*
X431541076Y-384721100D01*
X431033178Y-384822127D01*
X430554749Y-385020299D01*
X430124174Y-385308000D01*
X429758000Y-385674174D01*
X429470299Y-386104749D01*
X429272127Y-386583178D01*
X429171100Y-387091076D01*
X427355000Y-387091076D01*
X427355000Y-386522630D01*
X427404954Y-386472676D01*
X427476627Y-386502364D01*
X427816655Y-386570000D01*
X428163345Y-386570000D01*
X428503373Y-386502364D01*
X428823673Y-386369692D01*
X429111935Y-386177081D01*
X429357081Y-385931935D01*
X429549692Y-385643673D01*
X429682364Y-385323373D01*
X429750000Y-384983345D01*
X429750000Y-384636655D01*
X429682364Y-384296627D01*
X429549692Y-383976327D01*
X429357081Y-383688065D01*
X429111935Y-383442919D01*
X428823673Y-383250308D01*
X428752000Y-383220620D01*
X428752000Y-382096655D01*
X432580000Y-382096655D01*
X432580000Y-382443345D01*
X432647636Y-382783373D01*
X432780308Y-383103673D01*
X432972919Y-383391935D01*
X433218065Y-383637081D01*
X433506327Y-383829692D01*
X433826627Y-383962364D01*
X434166655Y-384030000D01*
X434513345Y-384030000D01*
X434853373Y-383962364D01*
X435173673Y-383829692D01*
X435461935Y-383637081D01*
X435707081Y-383391935D01*
X435899692Y-383103673D01*
X436032364Y-382783373D01*
X436100000Y-382443345D01*
X436100000Y-382096655D01*
X436032364Y-381756627D01*
X435899692Y-381436327D01*
X435707081Y-381148065D01*
X435461935Y-380902919D01*
X435173673Y-380710308D01*
X434853373Y-380577636D01*
X434513345Y-380510000D01*
X434166655Y-380510000D01*
X433826627Y-380577636D01*
X433506327Y-380710308D01*
X433218065Y-380902919D01*
X432972919Y-381148065D01*
X432780308Y-381436327D01*
X432647636Y-381756627D01*
X432580000Y-382096655D01*
X428752000Y-382096655D01*
X428752000Y-372903082D01*
X435910613Y-372903082D01*
X435910613Y-373106960D01*
X435950387Y-373306919D01*
X436028408Y-373495277D01*
X436141676Y-373664795D01*
X436285839Y-373808958D01*
X436455357Y-373922226D01*
X436643715Y-374000247D01*
X436843674Y-374040021D01*
X436902982Y-374040021D01*
X437022980Y-374160019D01*
X437022981Y-391131278D01*
X437021734Y-391131795D01*
X436852216Y-391245063D01*
X436708053Y-391389226D01*
X436594785Y-391558744D01*
X436516764Y-391747102D01*
X436476990Y-391947061D01*
X436476990Y-392150939D01*
X436516764Y-392350898D01*
X436594785Y-392539256D01*
X436708053Y-392708774D01*
X436852216Y-392852937D01*
X437021734Y-392966205D01*
X437103918Y-393000247D01*
X437048795Y-393082744D01*
X436970774Y-393271102D01*
X436931000Y-393471061D01*
X436931000Y-393674939D01*
X436970774Y-393874898D01*
X437048795Y-394063256D01*
X437162063Y-394232774D01*
X437306226Y-394376937D01*
X437475744Y-394490205D01*
X437664102Y-394568226D01*
X437864061Y-394608000D01*
X437931000Y-394608000D01*
X437931000Y-409224369D01*
X436964370Y-410191000D01*
X436905061Y-410191000D01*
X436705102Y-410230774D01*
X436516744Y-410308795D01*
X436347226Y-410422063D01*
X436203063Y-410566226D01*
X436089795Y-410735744D01*
X436011774Y-410924102D01*
X435972000Y-411124061D01*
X435972000Y-411327939D01*
X436011774Y-411527898D01*
X436089795Y-411716256D01*
X436203063Y-411885774D01*
X436305289Y-411988000D01*
X436203063Y-412090226D01*
X436089795Y-412259744D01*
X436011774Y-412448102D01*
X435972000Y-412648061D01*
X435972000Y-412851939D01*
X436011774Y-413051898D01*
X436089795Y-413240256D01*
X436203063Y-413409774D01*
X436347226Y-413553937D01*
X436516744Y-413667205D01*
X436705102Y-413745226D01*
X436905061Y-413785000D01*
X437108939Y-413785000D01*
X437308898Y-413745226D01*
X437497256Y-413667205D01*
X437666774Y-413553937D01*
X437708711Y-413512000D01*
X438366577Y-413512000D01*
X438404000Y-413515686D01*
X438441423Y-413512000D01*
X438441426Y-413512000D01*
X438553378Y-413500974D01*
X438697015Y-413457402D01*
X438829392Y-413386645D01*
X438945422Y-413291422D01*
X438969284Y-413262346D01*
X439932353Y-412299278D01*
X439961422Y-412275422D01*
X440000851Y-412227378D01*
X440056645Y-412159393D01*
X440119072Y-412042599D01*
X440127402Y-412027015D01*
X440170974Y-411883378D01*
X440182000Y-411771426D01*
X440182000Y-411771423D01*
X440185686Y-411734000D01*
X440182000Y-411696577D01*
X440182000Y-406141076D01*
X448221100Y-406141076D01*
X448221100Y-406658924D01*
X448322127Y-407166822D01*
X448520299Y-407645251D01*
X448808000Y-408075826D01*
X449174174Y-408442000D01*
X449604749Y-408729701D01*
X450083178Y-408927873D01*
X450591076Y-409028900D01*
X451108924Y-409028900D01*
X451616822Y-408927873D01*
X452095251Y-408729701D01*
X452525826Y-408442000D01*
X452892000Y-408075826D01*
X453179701Y-407645251D01*
X453377873Y-407166822D01*
X453478900Y-406658924D01*
X453478900Y-406141076D01*
X453377873Y-405633178D01*
X453179701Y-405154749D01*
X452892000Y-404724174D01*
X452525826Y-404358000D01*
X452095251Y-404070299D01*
X451616822Y-403872127D01*
X451108924Y-403771100D01*
X450591076Y-403771100D01*
X450083178Y-403872127D01*
X449604749Y-404070299D01*
X449174174Y-404358000D01*
X448808000Y-404724174D01*
X448520299Y-405154749D01*
X448322127Y-405633178D01*
X448221100Y-406141076D01*
X440182000Y-406141076D01*
X440182000Y-386172001D01*
X444912313Y-386172001D01*
X444915999Y-386209424D01*
X444916000Y-402460566D01*
X444912313Y-402497999D01*
X444927026Y-402647377D01*
X444970598Y-402791014D01*
X445041354Y-402923391D01*
X445083997Y-402975351D01*
X445136578Y-403039421D01*
X445165648Y-403063278D01*
X445377324Y-403274954D01*
X445347636Y-403346627D01*
X445280000Y-403686655D01*
X445280000Y-404033345D01*
X445347636Y-404373373D01*
X445480308Y-404693673D01*
X445672919Y-404981935D01*
X445918065Y-405227081D01*
X446206327Y-405419692D01*
X446526627Y-405552364D01*
X446866655Y-405620000D01*
X447213345Y-405620000D01*
X447553373Y-405552364D01*
X447873673Y-405419692D01*
X448161935Y-405227081D01*
X448407081Y-404981935D01*
X448599692Y-404693673D01*
X448732364Y-404373373D01*
X448800000Y-404033345D01*
X448800000Y-403686655D01*
X448732364Y-403346627D01*
X448599692Y-403026327D01*
X448407081Y-402738065D01*
X448161935Y-402492919D01*
X447873673Y-402300308D01*
X447553373Y-402167636D01*
X447213345Y-402100000D01*
X446866655Y-402100000D01*
X446526627Y-402167636D01*
X446454954Y-402197324D01*
X446439999Y-402182369D01*
X446439999Y-401146655D01*
X451630000Y-401146655D01*
X451630000Y-401493345D01*
X451697636Y-401833373D01*
X451830308Y-402153673D01*
X452022919Y-402441935D01*
X452268065Y-402687081D01*
X452556327Y-402879692D01*
X452876627Y-403012364D01*
X453216655Y-403080000D01*
X453563345Y-403080000D01*
X453903373Y-403012364D01*
X454223673Y-402879692D01*
X454511935Y-402687081D01*
X454757081Y-402441935D01*
X454949692Y-402153673D01*
X455082364Y-401833373D01*
X455150000Y-401493345D01*
X455150000Y-401146655D01*
X455082364Y-400806627D01*
X454949692Y-400486327D01*
X454757081Y-400198065D01*
X454511935Y-399952919D01*
X454223673Y-399760308D01*
X453903373Y-399627636D01*
X453563345Y-399560000D01*
X453216655Y-399560000D01*
X452876627Y-399627636D01*
X452556327Y-399760308D01*
X452268065Y-399952919D01*
X452022919Y-400198065D01*
X451830308Y-400486327D01*
X451697636Y-400806627D01*
X451630000Y-401146655D01*
X446439999Y-401146655D01*
X446439999Y-398291000D01*
X446506939Y-398291000D01*
X446706898Y-398251226D01*
X446895256Y-398173205D01*
X447064774Y-398059937D01*
X447208937Y-397915774D01*
X447322205Y-397746256D01*
X447400226Y-397557898D01*
X447440000Y-397357939D01*
X447440000Y-397327186D01*
X447565744Y-397411205D01*
X447754102Y-397489226D01*
X447954061Y-397529000D01*
X448157939Y-397529000D01*
X448357898Y-397489226D01*
X448546256Y-397411205D01*
X448715774Y-397297937D01*
X448859937Y-397153774D01*
X448973205Y-396984256D01*
X449051226Y-396795898D01*
X449091000Y-396595939D01*
X449091000Y-396392061D01*
X449051226Y-396192102D01*
X448973205Y-396003744D01*
X448859937Y-395834226D01*
X448818000Y-395792289D01*
X448818000Y-395671711D01*
X448859937Y-395629774D01*
X448973205Y-395460256D01*
X449051226Y-395271898D01*
X449068088Y-395187125D01*
X449483440Y-395464654D01*
X450008477Y-395682131D01*
X450565852Y-395793000D01*
X451134148Y-395793000D01*
X451691523Y-395682131D01*
X452216560Y-395464654D01*
X452689080Y-395148926D01*
X453090926Y-394747080D01*
X453406654Y-394274560D01*
X453624131Y-393749523D01*
X453735000Y-393192148D01*
X453735000Y-392623852D01*
X453624225Y-392066949D01*
X453818898Y-392028226D01*
X454007256Y-391950205D01*
X454176774Y-391836937D01*
X454320937Y-391692774D01*
X454434205Y-391523256D01*
X454512226Y-391334898D01*
X454552000Y-391134939D01*
X454552000Y-391075630D01*
X456438000Y-389189630D01*
X456438000Y-405957370D01*
X453347370Y-409048000D01*
X453288061Y-409048000D01*
X453088102Y-409087774D01*
X452899744Y-409165795D01*
X452730226Y-409279063D01*
X452586063Y-409423226D01*
X452483119Y-409577292D01*
X452216560Y-409399183D01*
X451691523Y-409181706D01*
X451134148Y-409070837D01*
X450565852Y-409070837D01*
X450008477Y-409181706D01*
X449483440Y-409399183D01*
X449010920Y-409714911D01*
X448609074Y-410116757D01*
X448293346Y-410589277D01*
X448075869Y-411114314D01*
X447965000Y-411671689D01*
X447965000Y-412239985D01*
X448075869Y-412797360D01*
X448220694Y-413147000D01*
X448081061Y-413147000D01*
X447881263Y-413186742D01*
X447864633Y-413170112D01*
X447695115Y-413056844D01*
X447506757Y-412978823D01*
X447306798Y-412939049D01*
X447102920Y-412939049D01*
X446902961Y-412978823D01*
X446714603Y-413056844D01*
X446545085Y-413170112D01*
X446400922Y-413314275D01*
X446287654Y-413483793D01*
X446209633Y-413672151D01*
X446169859Y-413872110D01*
X446169859Y-414075988D01*
X446209633Y-414275947D01*
X446287654Y-414464305D01*
X446400922Y-414633823D01*
X446545085Y-414777986D01*
X446659001Y-414854102D01*
X446659000Y-415661289D01*
X446617063Y-415703226D01*
X446503795Y-415872744D01*
X446425774Y-416061102D01*
X446386000Y-416261061D01*
X446386000Y-416464939D01*
X446425774Y-416664898D01*
X446503795Y-416853256D01*
X446617063Y-417022774D01*
X446761226Y-417166937D01*
X446930744Y-417280205D01*
X447119102Y-417358226D01*
X447319061Y-417398000D01*
X447522939Y-417398000D01*
X447722898Y-417358226D01*
X447911256Y-417280205D01*
X448080774Y-417166937D01*
X448224937Y-417022774D01*
X448338205Y-416853256D01*
X448416226Y-416664898D01*
X448420371Y-416644061D01*
X448484898Y-416631226D01*
X448673256Y-416553205D01*
X448842774Y-416439937D01*
X448986937Y-416295774D01*
X449100205Y-416126256D01*
X449178226Y-415937898D01*
X449218000Y-415737939D01*
X449218000Y-415534061D01*
X449178226Y-415334102D01*
X449100205Y-415145744D01*
X448986937Y-414976226D01*
X448945000Y-414934289D01*
X448945000Y-414883711D01*
X448986937Y-414841774D01*
X449100205Y-414672256D01*
X449178226Y-414483898D01*
X449209012Y-414329124D01*
X449483440Y-414512491D01*
X450008477Y-414729968D01*
X450565852Y-414840837D01*
X451134148Y-414840837D01*
X451691523Y-414729968D01*
X452216560Y-414512491D01*
X452689080Y-414196763D01*
X453090926Y-413794917D01*
X453406654Y-413322397D01*
X453624131Y-412797360D01*
X453735000Y-412239985D01*
X453735000Y-411671689D01*
X453624131Y-411114314D01*
X453615479Y-411093427D01*
X453691898Y-411078226D01*
X453880256Y-411000205D01*
X454049774Y-410886937D01*
X454193937Y-410742774D01*
X454307205Y-410573256D01*
X454385226Y-410384898D01*
X454425000Y-410184939D01*
X454425000Y-410125630D01*
X457712347Y-406838283D01*
X457741422Y-406814422D01*
X457813659Y-406726401D01*
X457836645Y-406698393D01*
X457892151Y-406594548D01*
X457907402Y-406566015D01*
X457950974Y-406422378D01*
X457962000Y-406310426D01*
X457962000Y-406310423D01*
X457965686Y-406273000D01*
X457962000Y-406235577D01*
X457962000Y-370398711D01*
X458003937Y-370356774D01*
X458117205Y-370187256D01*
X458195226Y-369998898D01*
X458235000Y-369798939D01*
X458235000Y-369595061D01*
X458195226Y-369395102D01*
X458117205Y-369206744D01*
X458003937Y-369037226D01*
X457859774Y-368893063D01*
X457690256Y-368779795D01*
X457501898Y-368701774D01*
X457301939Y-368662000D01*
X457098061Y-368662000D01*
X456898102Y-368701774D01*
X456709744Y-368779795D01*
X456540226Y-368893063D01*
X456396063Y-369037226D01*
X456282795Y-369206744D01*
X456204774Y-369395102D01*
X456165000Y-369595061D01*
X456165000Y-369650303D01*
X455982744Y-369725796D01*
X455813226Y-369839064D01*
X455669063Y-369983227D01*
X455555795Y-370152745D01*
X455477774Y-370341103D01*
X455438000Y-370541062D01*
X455438000Y-370744940D01*
X455477774Y-370944899D01*
X455555795Y-371133257D01*
X455669063Y-371302775D01*
X455711001Y-371344713D01*
X455711000Y-387761369D01*
X453474370Y-389998000D01*
X453415061Y-389998000D01*
X453215102Y-390037774D01*
X453026744Y-390115795D01*
X452857226Y-390229063D01*
X452713063Y-390373226D01*
X452599795Y-390542744D01*
X452578814Y-390593396D01*
X452216560Y-390351346D01*
X451691523Y-390133869D01*
X451134148Y-390023000D01*
X450565852Y-390023000D01*
X450008477Y-390133869D01*
X449483440Y-390351346D01*
X449010920Y-390667074D01*
X448609074Y-391068920D01*
X448293346Y-391541440D01*
X448075869Y-392066477D01*
X447965000Y-392623852D01*
X447965000Y-393192148D01*
X448075869Y-393749523D01*
X448152696Y-393935000D01*
X447954061Y-393935000D01*
X447754102Y-393974774D01*
X447565744Y-394052795D01*
X447396226Y-394166063D01*
X447252063Y-394310226D01*
X447206752Y-394378040D01*
X447064774Y-394236062D01*
X446895256Y-394122794D01*
X446706898Y-394044773D01*
X446506939Y-394004999D01*
X446439999Y-394004999D01*
X446439999Y-387091076D01*
X448221100Y-387091076D01*
X448221100Y-387608924D01*
X448322127Y-388116822D01*
X448520299Y-388595251D01*
X448808000Y-389025826D01*
X449174174Y-389392000D01*
X449604749Y-389679701D01*
X450083178Y-389877873D01*
X450591076Y-389978900D01*
X451108924Y-389978900D01*
X451616822Y-389877873D01*
X452095251Y-389679701D01*
X452525826Y-389392000D01*
X452892000Y-389025826D01*
X453179701Y-388595251D01*
X453377873Y-388116822D01*
X453478900Y-387608924D01*
X453478900Y-387091076D01*
X453377873Y-386583178D01*
X453179701Y-386104749D01*
X452892000Y-385674174D01*
X452525826Y-385308000D01*
X452095251Y-385020299D01*
X451616822Y-384822127D01*
X451108924Y-384721100D01*
X450591076Y-384721100D01*
X450083178Y-384822127D01*
X449604749Y-385020299D01*
X449174174Y-385308000D01*
X448808000Y-385674174D01*
X448520299Y-386104749D01*
X448322127Y-386583178D01*
X448221100Y-387091076D01*
X446439999Y-387091076D01*
X446439999Y-386487631D01*
X446454954Y-386472676D01*
X446526627Y-386502364D01*
X446866655Y-386570000D01*
X447213345Y-386570000D01*
X447553373Y-386502364D01*
X447873673Y-386369692D01*
X448161935Y-386177081D01*
X448407081Y-385931935D01*
X448599692Y-385643673D01*
X448732364Y-385323373D01*
X448800000Y-384983345D01*
X448800000Y-384636655D01*
X448732364Y-384296627D01*
X448599692Y-383976327D01*
X448407081Y-383688065D01*
X448161935Y-383442919D01*
X447873673Y-383250308D01*
X447802000Y-383220620D01*
X447802000Y-382096655D01*
X451630000Y-382096655D01*
X451630000Y-382443345D01*
X451697636Y-382783373D01*
X451830308Y-383103673D01*
X452022919Y-383391935D01*
X452268065Y-383637081D01*
X452556327Y-383829692D01*
X452876627Y-383962364D01*
X453216655Y-384030000D01*
X453563345Y-384030000D01*
X453903373Y-383962364D01*
X454223673Y-383829692D01*
X454511935Y-383637081D01*
X454757081Y-383391935D01*
X454949692Y-383103673D01*
X455082364Y-382783373D01*
X455150000Y-382443345D01*
X455150000Y-382096655D01*
X455082364Y-381756627D01*
X454949692Y-381436327D01*
X454757081Y-381148065D01*
X454511935Y-380902919D01*
X454223673Y-380710308D01*
X453903373Y-380577636D01*
X453563345Y-380510000D01*
X453216655Y-380510000D01*
X452876627Y-380577636D01*
X452556327Y-380710308D01*
X452268065Y-380902919D01*
X452022919Y-381148065D01*
X451830308Y-381436327D01*
X451697636Y-381756627D01*
X451630000Y-382096655D01*
X447802000Y-382096655D01*
X447802000Y-369890711D01*
X447843937Y-369848774D01*
X447957205Y-369679256D01*
X448035226Y-369490898D01*
X448075000Y-369290939D01*
X448075000Y-369087061D01*
X448035226Y-368887102D01*
X447957205Y-368698744D01*
X447843937Y-368529226D01*
X447699774Y-368385063D01*
X447530256Y-368271795D01*
X447341898Y-368193774D01*
X447141939Y-368154000D01*
X446938061Y-368154000D01*
X446738102Y-368193774D01*
X446549744Y-368271795D01*
X446380226Y-368385063D01*
X446236063Y-368529226D01*
X446122795Y-368698744D01*
X446044774Y-368887102D01*
X446005000Y-369087061D01*
X446005000Y-369290939D01*
X446044774Y-369490898D01*
X446122795Y-369679256D01*
X446236063Y-369848774D01*
X446278001Y-369890712D01*
X446278000Y-383220620D01*
X446206327Y-383250308D01*
X445918065Y-383442919D01*
X445672919Y-383688065D01*
X445480308Y-383976327D01*
X445347636Y-384296627D01*
X445280000Y-384636655D01*
X445280000Y-384983345D01*
X445347636Y-385323373D01*
X445377324Y-385395046D01*
X445165653Y-385606717D01*
X445136577Y-385630579D01*
X445083997Y-385694649D01*
X445041354Y-385746609D01*
X445028046Y-385771507D01*
X444970597Y-385878987D01*
X444927025Y-386022624D01*
X444915999Y-386134575D01*
X444912313Y-386172001D01*
X440182000Y-386172001D01*
X440182000Y-372071712D01*
X440223937Y-372029775D01*
X440337205Y-371860257D01*
X440415226Y-371671899D01*
X440455000Y-371471940D01*
X440455000Y-371268062D01*
X440415226Y-371068103D01*
X440337205Y-370879745D01*
X440223937Y-370710227D01*
X440079774Y-370566064D01*
X439910256Y-370452796D01*
X439721898Y-370374775D01*
X439521939Y-370335001D01*
X439318061Y-370335001D01*
X439118102Y-370374775D01*
X438929744Y-370452796D01*
X438760226Y-370566064D01*
X438616063Y-370710227D01*
X438502795Y-370879745D01*
X438424774Y-371068103D01*
X438410288Y-371140929D01*
X438391102Y-371144745D01*
X438202744Y-371222766D01*
X438033226Y-371336034D01*
X437889063Y-371480197D01*
X437775795Y-371649715D01*
X437697774Y-371838073D01*
X437688619Y-371884096D01*
X437664102Y-371888973D01*
X437475744Y-371966994D01*
X437348860Y-372051775D01*
X437247511Y-372009795D01*
X437047552Y-371970021D01*
X436843674Y-371970021D01*
X436643715Y-372009795D01*
X436455357Y-372087816D01*
X436285839Y-372201084D01*
X436141676Y-372345247D01*
X436028408Y-372514765D01*
X435950387Y-372703123D01*
X435910613Y-372903082D01*
X428752000Y-372903082D01*
X428752000Y-369120490D01*
X428776774Y-369103937D01*
X428920937Y-368959774D01*
X429034205Y-368790256D01*
X429112226Y-368601898D01*
X429152000Y-368401939D01*
X429152000Y-368198061D01*
X429112226Y-367998102D01*
X429034205Y-367809744D01*
X428920937Y-367640226D01*
X428776774Y-367496063D01*
X428607256Y-367382795D01*
X428418898Y-367304774D01*
X428218939Y-367265000D01*
X428015061Y-367265000D01*
X427815102Y-367304774D01*
X427626744Y-367382795D01*
X427457226Y-367496063D01*
X427313063Y-367640226D01*
X427199795Y-367809744D01*
X427121774Y-367998102D01*
X427082000Y-368198061D01*
X427082000Y-368401939D01*
X427121774Y-368601898D01*
X427199795Y-368790256D01*
X427228001Y-368832469D01*
X427228000Y-383220620D01*
X427156327Y-383250308D01*
X426868065Y-383442919D01*
X426628000Y-383682984D01*
X426628000Y-379922355D01*
X426631686Y-379884932D01*
X426628000Y-379847507D01*
X426616974Y-379735555D01*
X426573402Y-379591918D01*
X426502645Y-379459541D01*
X426407422Y-379343511D01*
X426378353Y-379319655D01*
X425260351Y-378201654D01*
X425236489Y-378172578D01*
X425120459Y-378077355D01*
X424988082Y-378006598D01*
X424844445Y-377963026D01*
X424732493Y-377952000D01*
X424732490Y-377952000D01*
X424695067Y-377948314D01*
X424657644Y-377952000D01*
X405924079Y-377952000D01*
X405924079Y-377842437D01*
X405884305Y-377642478D01*
X405806284Y-377454120D01*
X405693016Y-377284602D01*
X405651079Y-377242665D01*
X405651079Y-371331633D01*
X405679937Y-371302775D01*
X405793205Y-371133257D01*
X405871226Y-370944899D01*
X405911000Y-370744940D01*
X405911000Y-370541062D01*
X405871226Y-370341103D01*
X405793205Y-370152745D01*
X405679937Y-369983227D01*
X405535774Y-369839064D01*
X405366256Y-369725796D01*
X405177898Y-369647775D01*
X404977939Y-369608001D01*
X404774061Y-369608001D01*
X404574102Y-369647775D01*
X404385744Y-369725796D01*
X404216226Y-369839064D01*
X404072063Y-369983227D01*
X403958795Y-370152745D01*
X403880774Y-370341103D01*
X403841000Y-370541062D01*
X403841000Y-370744940D01*
X403880774Y-370944899D01*
X403958795Y-371133257D01*
X404072063Y-371302775D01*
X404127080Y-371357792D01*
X404127080Y-372314249D01*
X403969256Y-372208795D01*
X403780898Y-372130774D01*
X403580939Y-372091000D01*
X403377061Y-372091000D01*
X403177102Y-372130774D01*
X402988744Y-372208795D01*
X402819226Y-372322063D01*
X402675063Y-372466226D01*
X402561795Y-372635744D01*
X402483774Y-372824102D01*
X402444000Y-373024061D01*
X402444000Y-373227939D01*
X402483774Y-373427898D01*
X402561795Y-373616256D01*
X402675063Y-373785774D01*
X402717001Y-373827712D01*
X402717000Y-377123289D01*
X402675063Y-377165226D01*
X402561795Y-377334744D01*
X402483774Y-377523102D01*
X402444000Y-377723061D01*
X402444000Y-377926939D01*
X402448985Y-377952000D01*
X400976423Y-377952000D01*
X400939000Y-377948314D01*
X400901577Y-377952000D01*
X400901574Y-377952000D01*
X400789622Y-377963026D01*
X400645985Y-378006598D01*
X400601191Y-378030541D01*
X400513607Y-378077355D01*
X400464063Y-378118015D01*
X400397578Y-378172578D01*
X400373721Y-378201648D01*
X399141520Y-379433850D01*
X399112450Y-379457707D01*
X399088593Y-379486777D01*
X399088592Y-379486778D01*
X399017226Y-379573737D01*
X398946470Y-379706114D01*
X398902898Y-379849751D01*
X398888185Y-379999129D01*
X398891872Y-380036562D01*
X398891871Y-384619284D01*
X398849934Y-384661221D01*
X398736666Y-384830739D01*
X398658645Y-385019097D01*
X398618871Y-385219056D01*
X386154478Y-385219056D01*
X386323774Y-385105937D01*
X386467937Y-384961774D01*
X386581205Y-384792256D01*
X386659226Y-384603898D01*
X386699000Y-384403939D01*
X386699000Y-384200061D01*
X386659226Y-384000102D01*
X386581205Y-383811744D01*
X386467937Y-383642226D01*
X386323774Y-383498063D01*
X386154256Y-383384795D01*
X386153010Y-383384279D01*
X386153010Y-373771488D01*
X386224486Y-373757271D01*
X386412844Y-373679250D01*
X386582362Y-373565982D01*
X386726525Y-373421819D01*
X386839793Y-373252301D01*
X386917814Y-373063943D01*
X386957588Y-372863984D01*
X386957588Y-372660106D01*
X386917814Y-372460147D01*
X386839793Y-372271789D01*
X386726525Y-372102271D01*
X386582362Y-371958108D01*
X386412844Y-371844840D01*
X386224486Y-371766819D01*
X386081019Y-371738282D01*
X386048655Y-371660148D01*
X385935387Y-371490630D01*
X385791224Y-371346467D01*
X385621706Y-371233199D01*
X385433348Y-371155178D01*
X385377173Y-371144004D01*
X385311205Y-370984744D01*
X385197937Y-370815226D01*
X385053774Y-370671063D01*
X384884256Y-370557795D01*
X384695898Y-370479774D01*
X384668697Y-370474364D01*
X384702000Y-370306939D01*
X384702000Y-370103061D01*
X384662226Y-369903102D01*
X384584205Y-369714744D01*
X384470937Y-369545226D01*
X384326774Y-369401063D01*
X384157256Y-369287795D01*
X383968898Y-369209774D01*
X383862927Y-369188695D01*
X383862927Y-369087061D01*
X383823153Y-368887102D01*
X383745132Y-368698744D01*
X383631864Y-368529226D01*
X383487701Y-368385063D01*
X383318183Y-368271795D01*
X383291298Y-368260659D01*
X383291298Y-368198060D01*
X383251524Y-367998101D01*
X383173503Y-367809743D01*
X383060235Y-367640225D01*
X382916072Y-367496062D01*
X382746554Y-367382794D01*
X382558196Y-367304773D01*
X382425697Y-367278417D01*
X382368256Y-367139744D01*
X382254988Y-366970226D01*
X382110825Y-366826063D01*
X381941307Y-366712795D01*
X381752949Y-366634774D01*
X381615485Y-366607431D01*
X381614226Y-366601102D01*
X381539211Y-366420000D01*
X461104721Y-366420000D01*
X461316538Y-366440769D01*
X461489237Y-366492910D01*
X461648518Y-366577602D01*
X461788319Y-366691619D01*
X461903308Y-366830617D01*
X461989110Y-366989305D01*
X462042455Y-367161635D01*
X462048578Y-367219892D01*
X461946898Y-367177774D01*
X461746939Y-367138000D01*
X461543061Y-367138000D01*
X461343102Y-367177774D01*
X461154744Y-367255795D01*
X460985226Y-367369063D01*
X460841063Y-367513226D01*
X460727795Y-367682744D01*
X460649774Y-367871102D01*
X460643612Y-367902078D01*
X460454102Y-367939774D01*
X460265744Y-368017795D01*
X460096226Y-368131063D01*
X459952063Y-368275226D01*
X459838795Y-368444744D01*
X459760774Y-368633102D01*
X459721000Y-368833061D01*
X459721000Y-369036939D01*
X459760774Y-369236898D01*
X459838795Y-369425256D01*
X459952063Y-369594774D01*
X460096226Y-369738937D01*
X460156001Y-369778877D01*
X460156000Y-388299289D01*
X460114063Y-388341226D01*
X460000795Y-388510744D01*
X459922774Y-388699102D01*
X459883000Y-388899061D01*
X459883000Y-389102939D01*
X459922774Y-389302898D01*
X460000795Y-389491256D01*
X460114063Y-389660774D01*
X460258226Y-389804937D01*
X460427744Y-389918205D01*
X460616102Y-389996226D01*
X460816061Y-390036000D01*
X460883000Y-390036000D01*
X460883000Y-407349289D01*
X460841063Y-407391226D01*
X460727795Y-407560744D01*
X460649774Y-407749102D01*
X460610000Y-407949061D01*
X460610000Y-408152939D01*
X460649774Y-408352898D01*
X460727795Y-408541256D01*
X460841063Y-408710774D01*
X460985226Y-408854937D01*
X461154744Y-408968205D01*
X461343102Y-409046226D01*
X461543061Y-409086000D01*
X461746939Y-409086000D01*
X461946898Y-409046226D01*
X462064501Y-408997513D01*
X462064501Y-418686711D01*
X462057034Y-418762863D01*
X462044295Y-418805058D01*
X462023602Y-418843976D01*
X461995745Y-418878132D01*
X461961787Y-418906224D01*
X461923014Y-418927188D01*
X461880907Y-418940223D01*
X461806912Y-418948000D01*
X431378630Y-418948000D01*
X431931346Y-418395284D01*
X431960422Y-418371422D01*
X432035537Y-418279894D01*
X432055645Y-418255393D01*
X432105535Y-418162055D01*
X432126402Y-418123015D01*
X432169974Y-417979378D01*
X432181000Y-417867426D01*
X432181000Y-417867423D01*
X432184686Y-417830000D01*
X432181000Y-417792577D01*
X432181000Y-416337711D01*
X432222937Y-416295774D01*
X432336205Y-416126256D01*
X432414226Y-415937898D01*
X432454000Y-415737939D01*
X432454000Y-415534061D01*
X432414226Y-415334102D01*
X432336205Y-415145744D01*
X432222937Y-414976226D01*
X432086984Y-414840273D01*
X432641523Y-414729968D01*
X433166560Y-414512491D01*
X433639080Y-414196763D01*
X434040926Y-413794917D01*
X434356654Y-413322397D01*
X434574131Y-412797360D01*
X434685000Y-412239985D01*
X434685000Y-411671689D01*
X434574131Y-411114314D01*
X434356654Y-410589277D01*
X434040926Y-410116757D01*
X433639080Y-409714911D01*
X433166560Y-409399183D01*
X432641523Y-409181706D01*
X432084148Y-409070837D01*
X431515852Y-409070837D01*
X430958477Y-409181706D01*
X430433440Y-409399183D01*
X429960920Y-409714911D01*
X429559074Y-410116757D01*
X429243346Y-410589277D01*
X429025869Y-411114314D01*
X428915000Y-411671689D01*
X428915000Y-412239985D01*
X429025869Y-412797360D01*
X429243346Y-413322397D01*
X429559074Y-413794917D01*
X429960920Y-414196763D01*
X430433440Y-414512491D01*
X430930123Y-414718224D01*
X430928744Y-414718795D01*
X430759226Y-414832063D01*
X430615063Y-414976226D01*
X430501795Y-415145744D01*
X430423774Y-415334102D01*
X430384000Y-415534061D01*
X430384000Y-415737939D01*
X430423774Y-415937898D01*
X430501795Y-416126256D01*
X430615063Y-416295774D01*
X430657000Y-416337711D01*
X430657001Y-417514369D01*
X430446369Y-417725001D01*
X424522999Y-417725001D01*
X424522999Y-417658062D01*
X424483225Y-417458103D01*
X424405204Y-417269745D01*
X424291936Y-417100227D01*
X424147773Y-416956064D01*
X423978255Y-416842796D01*
X423789897Y-416764775D01*
X423589938Y-416725001D01*
X423386060Y-416725001D01*
X423186101Y-416764775D01*
X422997743Y-416842796D01*
X422828225Y-416956064D01*
X422786288Y-416998001D01*
X397641629Y-416998001D01*
X398949631Y-415690000D01*
X399008939Y-415690000D01*
X399208898Y-415650226D01*
X399397256Y-415572205D01*
X399424220Y-415554188D01*
X399396000Y-415696061D01*
X399396000Y-415899939D01*
X399435774Y-416099898D01*
X399513795Y-416288256D01*
X399627063Y-416457774D01*
X399771226Y-416601937D01*
X399940744Y-416715205D01*
X400129102Y-416793226D01*
X400329061Y-416833000D01*
X400532939Y-416833000D01*
X400732898Y-416793226D01*
X400921256Y-416715205D01*
X401090774Y-416601937D01*
X401234937Y-416457774D01*
X401348205Y-416288256D01*
X401426226Y-416099898D01*
X401466000Y-415899939D01*
X401466000Y-415840631D01*
X401832351Y-415474279D01*
X401861422Y-415450422D01*
X401925282Y-415372608D01*
X401956645Y-415334393D01*
X402027401Y-415202016D01*
X402027402Y-415202015D01*
X402070974Y-415058378D01*
X402082000Y-414946426D01*
X402082000Y-414946423D01*
X402085686Y-414909000D01*
X402082000Y-414871577D01*
X402082000Y-411130711D01*
X402123937Y-411088774D01*
X402237205Y-410919256D01*
X402315226Y-410730898D01*
X402355000Y-410530939D01*
X402355000Y-410464000D01*
X404079620Y-410464000D01*
X404117043Y-410467686D01*
X404154466Y-410464000D01*
X404154469Y-410464000D01*
X404266421Y-410452974D01*
X404410058Y-410409402D01*
X404542435Y-410338645D01*
X404658465Y-410243422D01*
X404682327Y-410214346D01*
X406404352Y-408492322D01*
X406433422Y-408468465D01*
X406528645Y-408352435D01*
X406599402Y-408220058D01*
X406642974Y-408076421D01*
X406654000Y-407964469D01*
X406654000Y-407964467D01*
X406657686Y-407927044D01*
X406654000Y-407889621D01*
X406654000Y-407609711D01*
X406695937Y-407567774D01*
X406809205Y-407398256D01*
X406887226Y-407209898D01*
X406927000Y-407009939D01*
X406927000Y-406892974D01*
X406955898Y-406887226D01*
X407144256Y-406809205D01*
X407313774Y-406695937D01*
X407457937Y-406551774D01*
X407571205Y-406382256D01*
X407649226Y-406193898D01*
X407659732Y-406141076D01*
X429171100Y-406141076D01*
X429171100Y-406658924D01*
X429272127Y-407166822D01*
X429470299Y-407645251D01*
X429758000Y-408075826D01*
X430124174Y-408442000D01*
X430554749Y-408729701D01*
X431033178Y-408927873D01*
X431541076Y-409028900D01*
X432058924Y-409028900D01*
X432566822Y-408927873D01*
X433045251Y-408729701D01*
X433475826Y-408442000D01*
X433842000Y-408075826D01*
X434129701Y-407645251D01*
X434327873Y-407166822D01*
X434428900Y-406658924D01*
X434428900Y-406141076D01*
X434327873Y-405633178D01*
X434129701Y-405154749D01*
X433842000Y-404724174D01*
X433475826Y-404358000D01*
X433045251Y-404070299D01*
X432566822Y-403872127D01*
X432058924Y-403771100D01*
X431541076Y-403771100D01*
X431033178Y-403872127D01*
X430554749Y-404070299D01*
X430124174Y-404358000D01*
X429758000Y-404724174D01*
X429470299Y-405154749D01*
X429272127Y-405633178D01*
X429171100Y-406141076D01*
X407659732Y-406141076D01*
X407689000Y-405993939D01*
X407689000Y-405790061D01*
X407649226Y-405590102D01*
X407571205Y-405401744D01*
X407457937Y-405232226D01*
X407416000Y-405190289D01*
X407416000Y-387162711D01*
X407457937Y-387120774D01*
X407571205Y-386951256D01*
X407649226Y-386762898D01*
X407689000Y-386562939D01*
X407689000Y-386359061D01*
X407649226Y-386159102D01*
X407571205Y-385970744D01*
X407457937Y-385801226D01*
X407313774Y-385657063D01*
X407144256Y-385543795D01*
X406955898Y-385465774D01*
X406755939Y-385426000D01*
X406552061Y-385426000D01*
X406352102Y-385465774D01*
X406163744Y-385543795D01*
X405994226Y-385657063D01*
X405850063Y-385801226D01*
X405736795Y-385970744D01*
X405658774Y-386159102D01*
X405619000Y-386359061D01*
X405619000Y-386562939D01*
X405658774Y-386762898D01*
X405736795Y-386951256D01*
X405850063Y-387120774D01*
X405892000Y-387162711D01*
X405892000Y-388680289D01*
X405789774Y-388578063D01*
X405620256Y-388464795D01*
X405431898Y-388386774D01*
X405231939Y-388347000D01*
X405028061Y-388347000D01*
X404828102Y-388386774D01*
X404639744Y-388464795D01*
X404470226Y-388578063D01*
X404326063Y-388722226D01*
X404212795Y-388891744D01*
X404134774Y-389080102D01*
X404095000Y-389280061D01*
X404095000Y-389339369D01*
X403509653Y-389924717D01*
X403480577Y-389948579D01*
X403456444Y-389977986D01*
X403385354Y-390064609D01*
X403357995Y-390115795D01*
X403314597Y-390196987D01*
X403271025Y-390340624D01*
X403266029Y-390391355D01*
X403256313Y-390490001D01*
X403259999Y-390527424D01*
X403260000Y-406706493D01*
X403256313Y-406743926D01*
X403271026Y-406893304D01*
X403294444Y-406970504D01*
X387605582Y-406970504D01*
X387623000Y-406882939D01*
X387623000Y-406679061D01*
X387583226Y-406479102D01*
X387505205Y-406290744D01*
X387391937Y-406121226D01*
X387350000Y-406079289D01*
X387350000Y-403667630D01*
X387792631Y-403225000D01*
X399123577Y-403225000D01*
X399161000Y-403228686D01*
X399198423Y-403225000D01*
X399198426Y-403225000D01*
X399310378Y-403213974D01*
X399454015Y-403170402D01*
X399586392Y-403099645D01*
X399702422Y-403004422D01*
X399726284Y-402975346D01*
X399838630Y-402863000D01*
X399897939Y-402863000D01*
X400097898Y-402823226D01*
X400286256Y-402745205D01*
X400455774Y-402631937D01*
X400599937Y-402487774D01*
X400713205Y-402318256D01*
X400791226Y-402129898D01*
X400831000Y-401929939D01*
X400831000Y-401726061D01*
X400791226Y-401526102D01*
X400713205Y-401337744D01*
X400614969Y-401190723D01*
X400684410Y-401023079D01*
X400724184Y-400823120D01*
X400724184Y-400619242D01*
X400684410Y-400419283D01*
X400646984Y-400328929D01*
X400721081Y-400218034D01*
X400799102Y-400029676D01*
X400838876Y-399829717D01*
X400838876Y-399625839D01*
X400799102Y-399425880D01*
X400721081Y-399237522D01*
X400607813Y-399068004D01*
X400463650Y-398923841D01*
X400294132Y-398810573D01*
X400105774Y-398732552D01*
X399905815Y-398692778D01*
X399701937Y-398692778D01*
X399501978Y-398732552D01*
X399313620Y-398810573D01*
X399144102Y-398923841D01*
X399102165Y-398965778D01*
X392415436Y-398965778D01*
X392285256Y-398878795D01*
X392096898Y-398800774D01*
X391896939Y-398761000D01*
X391693061Y-398761000D01*
X391493102Y-398800774D01*
X391304744Y-398878795D01*
X391135226Y-398992063D01*
X390991063Y-399136226D01*
X390877795Y-399305744D01*
X390799774Y-399494102D01*
X390760000Y-399694061D01*
X390760000Y-399897939D01*
X390799774Y-400097898D01*
X390877795Y-400286256D01*
X390991063Y-400455774D01*
X391135226Y-400599937D01*
X391304744Y-400713205D01*
X391493102Y-400791226D01*
X391693061Y-400831000D01*
X391896939Y-400831000D01*
X392096898Y-400791226D01*
X392285256Y-400713205D01*
X392454774Y-400599937D01*
X392564933Y-400489778D01*
X398679936Y-400489778D01*
X398654184Y-400619242D01*
X398654184Y-400678550D01*
X398085745Y-401246990D01*
X387326365Y-401246990D01*
X387288942Y-401243304D01*
X387251519Y-401246990D01*
X387251517Y-401246990D01*
X387139565Y-401258016D01*
X386995928Y-401301588D01*
X386863551Y-401372345D01*
X386747521Y-401467568D01*
X386723664Y-401496638D01*
X385059654Y-403160649D01*
X385030578Y-403184511D01*
X385006399Y-403213974D01*
X384935355Y-403300541D01*
X384910722Y-403346627D01*
X384864598Y-403432919D01*
X384821026Y-403576556D01*
X384810000Y-403688507D01*
X384806314Y-403725933D01*
X384810000Y-403763356D01*
X384810001Y-406303792D01*
X384768063Y-406345730D01*
X384654795Y-406515248D01*
X384576774Y-406703606D01*
X384537000Y-406903565D01*
X384537000Y-406970504D01*
X376679134Y-406970504D01*
X375685000Y-405976370D01*
X375685000Y-405917061D01*
X375645226Y-405717102D01*
X375567205Y-405528744D01*
X375453937Y-405359226D01*
X375309774Y-405215063D01*
X375140256Y-405101795D01*
X374951898Y-405023774D01*
X374751939Y-404984000D01*
X374692631Y-404984000D01*
X373218001Y-403509371D01*
X373218001Y-384685424D01*
X373221687Y-384648001D01*
X373217343Y-384603898D01*
X373206975Y-384498623D01*
X373163403Y-384354986D01*
X373126527Y-384285995D01*
X373092646Y-384222608D01*
X373021280Y-384135649D01*
X372997423Y-384106579D01*
X372968354Y-384082723D01*
X372510000Y-383624369D01*
X372510000Y-383565061D01*
X372470226Y-383365102D01*
X372392205Y-383176744D01*
X372278937Y-383007226D01*
X372134774Y-382863063D01*
X371965256Y-382749795D01*
X371776898Y-382671774D01*
X371576939Y-382632000D01*
X371373061Y-382632000D01*
X371173102Y-382671774D01*
X370984744Y-382749795D01*
X370815226Y-382863063D01*
X370671063Y-383007226D01*
X370557795Y-383176744D01*
X370479774Y-383365102D01*
X370440000Y-383565061D01*
X370440000Y-383768939D01*
X370479774Y-383968898D01*
X370557795Y-384157256D01*
X370671063Y-384326774D01*
X370815226Y-384470937D01*
X370984744Y-384584205D01*
X371173102Y-384662226D01*
X371373061Y-384702000D01*
X371432369Y-384702000D01*
X371694001Y-384963632D01*
X371694001Y-386061000D01*
X371627061Y-386061000D01*
X371427102Y-386100774D01*
X371238744Y-386178795D01*
X371069226Y-386292063D01*
X370925063Y-386436226D01*
X370811795Y-386605744D01*
X370733774Y-386794102D01*
X370694000Y-386994061D01*
X370694000Y-387197939D01*
X370733774Y-387397898D01*
X370811795Y-387586256D01*
X370925063Y-387755774D01*
X370967001Y-387797712D01*
X370967000Y-409156577D01*
X370963314Y-409194000D01*
X370967000Y-409231423D01*
X370967000Y-409231425D01*
X370978026Y-409343377D01*
X371021598Y-409487014D01*
X371021599Y-409487015D01*
X371092355Y-409619392D01*
X371104979Y-409634774D01*
X371187578Y-409735422D01*
X371202000Y-409747258D01*
X371202000Y-409803939D01*
X371241774Y-410003898D01*
X371319795Y-410192256D01*
X371433063Y-410361774D01*
X371577226Y-410505937D01*
X371746744Y-410619205D01*
X371935102Y-410697226D01*
X372135061Y-410737000D01*
X372338939Y-410737000D01*
X372538898Y-410697226D01*
X372727256Y-410619205D01*
X372896774Y-410505937D01*
X372938711Y-410464000D01*
X399045247Y-410464000D01*
X399015000Y-410616061D01*
X399015000Y-410819939D01*
X399054774Y-411019898D01*
X399132795Y-411208256D01*
X399246063Y-411377774D01*
X399288001Y-411419712D01*
X399288001Y-411674531D01*
X399259795Y-411716744D01*
X399181774Y-411905102D01*
X399142000Y-412105061D01*
X399142000Y-412308939D01*
X399181774Y-412508898D01*
X399259795Y-412697256D01*
X399373063Y-412866774D01*
X399517226Y-413010937D01*
X399686744Y-413124205D01*
X399875102Y-413202226D01*
X400075061Y-413242000D01*
X400278939Y-413242000D01*
X400478898Y-413202226D01*
X400558001Y-413169460D01*
X400558001Y-414593368D01*
X400388369Y-414763000D01*
X400329061Y-414763000D01*
X400129102Y-414802774D01*
X399940744Y-414880795D01*
X399913780Y-414898812D01*
X399942000Y-414756939D01*
X399942000Y-414553061D01*
X399902226Y-414353102D01*
X399824205Y-414164744D01*
X399710937Y-413995226D01*
X399566774Y-413851063D01*
X399397256Y-413737795D01*
X399208898Y-413659774D01*
X399008939Y-413620000D01*
X398805061Y-413620000D01*
X398605102Y-413659774D01*
X398416744Y-413737795D01*
X398247226Y-413851063D01*
X398103063Y-413995226D01*
X397989795Y-414164744D01*
X397911774Y-414353102D01*
X397872000Y-414553061D01*
X397872000Y-414612369D01*
X396213369Y-416271001D01*
X386607000Y-416271001D01*
X386607000Y-416204062D01*
X386567226Y-416004103D01*
X386489205Y-415815745D01*
X386375937Y-415646227D01*
X386334000Y-415604290D01*
X386334000Y-414566999D01*
X386435939Y-414566999D01*
X386635898Y-414527225D01*
X386824256Y-414449204D01*
X386993774Y-414335936D01*
X387137937Y-414191773D01*
X387251205Y-414022255D01*
X387329226Y-413833897D01*
X387369000Y-413633938D01*
X387369000Y-413430060D01*
X387329226Y-413230101D01*
X387251205Y-413041743D01*
X387171387Y-412922287D01*
X387231777Y-412881936D01*
X387375940Y-412737773D01*
X387489208Y-412568255D01*
X387567229Y-412379897D01*
X387607003Y-412179938D01*
X387607003Y-411976060D01*
X387567229Y-411776101D01*
X387489208Y-411587743D01*
X387375940Y-411418225D01*
X387231777Y-411274062D01*
X387062259Y-411160794D01*
X386873901Y-411082773D01*
X386673942Y-411042999D01*
X386470064Y-411042999D01*
X386270105Y-411082773D01*
X386081747Y-411160794D01*
X386072002Y-411167306D01*
X386062256Y-411160794D01*
X385873898Y-411082773D01*
X385673939Y-411042999D01*
X385470061Y-411042999D01*
X385270102Y-411082773D01*
X385081744Y-411160794D01*
X384912226Y-411274062D01*
X384768063Y-411418225D01*
X384654795Y-411587743D01*
X384576774Y-411776101D01*
X384537000Y-411976060D01*
X384537000Y-412179938D01*
X384576774Y-412379897D01*
X384654795Y-412568255D01*
X384768063Y-412737773D01*
X384810000Y-412779710D01*
X384810001Y-415604289D01*
X384768063Y-415646227D01*
X384654795Y-415815745D01*
X384576774Y-416004103D01*
X384537000Y-416204062D01*
X384537000Y-416271001D01*
X365525000Y-416271001D01*
X365525000Y-416204061D01*
X365485226Y-416004102D01*
X365407205Y-415815744D01*
X365293937Y-415646226D01*
X365252000Y-415604289D01*
X365252000Y-411972000D01*
X365318939Y-411972000D01*
X365518898Y-411932226D01*
X365707256Y-411854205D01*
X365876774Y-411740937D01*
X366020937Y-411596774D01*
X366134205Y-411427256D01*
X366212226Y-411238898D01*
X366252000Y-411038939D01*
X366252000Y-410835061D01*
X366212226Y-410635102D01*
X366134205Y-410446744D01*
X366020937Y-410277226D01*
X365979000Y-410235289D01*
X365979000Y-391804762D01*
X366020937Y-391762825D01*
X366134205Y-391593307D01*
X366212226Y-391404949D01*
X366252000Y-391204990D01*
X366252000Y-391001112D01*
X366212226Y-390801153D01*
X366134205Y-390612795D01*
X366020937Y-390443277D01*
X365876774Y-390299114D01*
X365707256Y-390185846D01*
X365518898Y-390107825D01*
X365512569Y-390106566D01*
X365485226Y-389969102D01*
X365407205Y-389780744D01*
X365293937Y-389611226D01*
X365149774Y-389467063D01*
X364980256Y-389353795D01*
X364791898Y-389275774D01*
X364591939Y-389236000D01*
X364388061Y-389236000D01*
X364188102Y-389275774D01*
X363999744Y-389353795D01*
X363830226Y-389467063D01*
X363686063Y-389611226D01*
X363572795Y-389780744D01*
X363494774Y-389969102D01*
X363455000Y-390169061D01*
X363455000Y-390372939D01*
X363494774Y-390572898D01*
X363572795Y-390761256D01*
X363686063Y-390930774D01*
X363728000Y-390972711D01*
X363728001Y-415604288D01*
X363686063Y-415646226D01*
X363572795Y-415815744D01*
X363494774Y-416004102D01*
X363455000Y-416204061D01*
X363455000Y-416271001D01*
X354673632Y-416271001D01*
X351346593Y-412943963D01*
X351360000Y-412876561D01*
X351360000Y-412623439D01*
X351310619Y-412375179D01*
X351213753Y-412141324D01*
X351073125Y-411930860D01*
X350894140Y-411751875D01*
X350837000Y-411713695D01*
X350837000Y-410108061D01*
X358248000Y-410108061D01*
X358248000Y-410311939D01*
X358287774Y-410511898D01*
X358365795Y-410700256D01*
X358479063Y-410869774D01*
X358623226Y-411013937D01*
X358792744Y-411127205D01*
X358981102Y-411205226D01*
X359181061Y-411245000D01*
X359384939Y-411245000D01*
X359584898Y-411205226D01*
X359773256Y-411127205D01*
X359942774Y-411013937D01*
X360086937Y-410869774D01*
X360200205Y-410700256D01*
X360278226Y-410511898D01*
X360318000Y-410311939D01*
X360318000Y-410108061D01*
X360278226Y-409908102D01*
X360200205Y-409719744D01*
X360086937Y-409550226D01*
X360045000Y-409508289D01*
X360045000Y-390459630D01*
X360487631Y-390017000D01*
X361022789Y-390017000D01*
X361064726Y-390058937D01*
X361234244Y-390172205D01*
X361422602Y-390250226D01*
X361622561Y-390290000D01*
X361826439Y-390290000D01*
X362026398Y-390250226D01*
X362214756Y-390172205D01*
X362384274Y-390058937D01*
X362528437Y-389914774D01*
X362641705Y-389745256D01*
X362719726Y-389556898D01*
X362759500Y-389356939D01*
X362759500Y-389153061D01*
X362719726Y-388953102D01*
X362641705Y-388764744D01*
X362528437Y-388595226D01*
X362384274Y-388451063D01*
X362214756Y-388337795D01*
X362026398Y-388259774D01*
X361826439Y-388220000D01*
X361622561Y-388220000D01*
X361422602Y-388259774D01*
X361234244Y-388337795D01*
X361064726Y-388451063D01*
X361022789Y-388493000D01*
X360209423Y-388493000D01*
X360172000Y-388489314D01*
X360134577Y-388493000D01*
X360134574Y-388493000D01*
X360022622Y-388504026D01*
X359878985Y-388547598D01*
X359827061Y-388575352D01*
X359746607Y-388618355D01*
X359678074Y-388674599D01*
X359630578Y-388713578D01*
X359606721Y-388742649D01*
X358770649Y-389578721D01*
X358741579Y-389602578D01*
X358717722Y-389631648D01*
X358717721Y-389631649D01*
X358646355Y-389718608D01*
X358575599Y-389850985D01*
X358532027Y-389994622D01*
X358517314Y-390144000D01*
X358521001Y-390181433D01*
X358521000Y-409508289D01*
X358479063Y-409550226D01*
X358365795Y-409719744D01*
X358287774Y-409908102D01*
X358248000Y-410108061D01*
X350837000Y-410108061D01*
X350837000Y-404161365D01*
X350883256Y-404142205D01*
X351052774Y-404028937D01*
X351196937Y-403884774D01*
X351310205Y-403715256D01*
X351388226Y-403526898D01*
X351428000Y-403326939D01*
X351428000Y-403123061D01*
X351388226Y-402923102D01*
X351310205Y-402734744D01*
X351196937Y-402565226D01*
X351052774Y-402421063D01*
X350883256Y-402307795D01*
X350837000Y-402288635D01*
X350837000Y-387475630D01*
X357693630Y-380619000D01*
X359470289Y-380619000D01*
X359512226Y-380660937D01*
X359681744Y-380774205D01*
X359870102Y-380852226D01*
X360070061Y-380892000D01*
X360273939Y-380892000D01*
X360473898Y-380852226D01*
X360662256Y-380774205D01*
X360831774Y-380660937D01*
X360975937Y-380516774D01*
X361089205Y-380347256D01*
X361167226Y-380158898D01*
X361207000Y-379958939D01*
X361207000Y-379755061D01*
X361167226Y-379555102D01*
X361089205Y-379366744D01*
X360975937Y-379197226D01*
X360831774Y-379053063D01*
X360662256Y-378939795D01*
X360473898Y-378861774D01*
X360273939Y-378822000D01*
X360070061Y-378822000D01*
X359870102Y-378861774D01*
X359681744Y-378939795D01*
X359512226Y-379053063D01*
X359470289Y-379095000D01*
X357415423Y-379095000D01*
X357378000Y-379091314D01*
X357340577Y-379095000D01*
X357340574Y-379095000D01*
X357228622Y-379106026D01*
X357084985Y-379149598D01*
X357050539Y-379168010D01*
X356952607Y-379220355D01*
X356945299Y-379226353D01*
X356836578Y-379315578D01*
X356812716Y-379344654D01*
X349562654Y-386594716D01*
X349533578Y-386618578D01*
X349500833Y-386658479D01*
X349438355Y-386734608D01*
X349432709Y-386745171D01*
X349367598Y-386866986D01*
X349324026Y-387010623D01*
X349313000Y-387122574D01*
X349309314Y-387160000D01*
X349313000Y-387197423D01*
X349313001Y-403123567D01*
X349309314Y-403161000D01*
X349313000Y-403198423D01*
X349313000Y-403834426D01*
X349313001Y-403834436D01*
X349313000Y-411713695D01*
X349255860Y-411751875D01*
X349076875Y-411930860D01*
X349075000Y-411933666D01*
X349073125Y-411930860D01*
X348894140Y-411751875D01*
X348683676Y-411611247D01*
X348449821Y-411514381D01*
X348201561Y-411465000D01*
X347948439Y-411465000D01*
X347700179Y-411514381D01*
X347466324Y-411611247D01*
X347255860Y-411751875D01*
X347076875Y-411930860D01*
X347075000Y-411933666D01*
X347073125Y-411930860D01*
X346894140Y-411751875D01*
X346683676Y-411611247D01*
X346449821Y-411514381D01*
X346201561Y-411465000D01*
X345948439Y-411465000D01*
X345700179Y-411514381D01*
X345466324Y-411611247D01*
X345255860Y-411751875D01*
X345076875Y-411930860D01*
X344936247Y-412141324D01*
X344839381Y-412375179D01*
X344790000Y-412623439D01*
X344790000Y-412876561D01*
X344839381Y-413124821D01*
X344936247Y-413358676D01*
X345076875Y-413569140D01*
X345255860Y-413748125D01*
X345258666Y-413750000D01*
X345255860Y-413751875D01*
X345076875Y-413930860D01*
X344936247Y-414141324D01*
X344839381Y-414375179D01*
X344790000Y-414623439D01*
X344790000Y-414876561D01*
X344839381Y-415124821D01*
X344936247Y-415358676D01*
X345076875Y-415569140D01*
X345255860Y-415748125D01*
X345466324Y-415888753D01*
X345700179Y-415985619D01*
X345948439Y-416035000D01*
X346201561Y-416035000D01*
X346449821Y-415985619D01*
X346683676Y-415888753D01*
X346894140Y-415748125D01*
X347073125Y-415569140D01*
X347075000Y-415566334D01*
X347076875Y-415569140D01*
X347255860Y-415748125D01*
X347466324Y-415888753D01*
X347700179Y-415985619D01*
X347948439Y-416035000D01*
X348201561Y-416035000D01*
X348449821Y-415985619D01*
X348683676Y-415888753D01*
X348894140Y-415748125D01*
X349006738Y-415635527D01*
X349369078Y-415635527D01*
X349422466Y-415864201D01*
X349652374Y-415970095D01*
X349898524Y-416029102D01*
X350151455Y-416038952D01*
X350401449Y-415999270D01*
X350638896Y-415911578D01*
X350727534Y-415864201D01*
X350780922Y-415635527D01*
X350075000Y-414929605D01*
X349369078Y-415635527D01*
X349006738Y-415635527D01*
X349073125Y-415569140D01*
X349154267Y-415447703D01*
X349189473Y-415455922D01*
X349895395Y-414750000D01*
X349189473Y-414044078D01*
X349154267Y-414052297D01*
X349073125Y-413930860D01*
X348894140Y-413751875D01*
X348891334Y-413750000D01*
X348894140Y-413748125D01*
X349073125Y-413569140D01*
X349075000Y-413566334D01*
X349076875Y-413569140D01*
X349255860Y-413748125D01*
X349377297Y-413829267D01*
X349369078Y-413864473D01*
X350075000Y-414570395D01*
X350089143Y-414556253D01*
X350268748Y-414735858D01*
X350254605Y-414750000D01*
X350960527Y-415455922D01*
X351189201Y-415402534D01*
X351295095Y-415172626D01*
X351319247Y-415071877D01*
X353792722Y-417545353D01*
X353816579Y-417574423D01*
X353932609Y-417669646D01*
X354064986Y-417740403D01*
X354208623Y-417783975D01*
X354320575Y-417795001D01*
X354320577Y-417795001D01*
X354358000Y-417798687D01*
X354395423Y-417795001D01*
X384537000Y-417795001D01*
X384537000Y-417861940D01*
X384576774Y-418061899D01*
X384654795Y-418250257D01*
X384768063Y-418419775D01*
X384912226Y-418563938D01*
X385081744Y-418677206D01*
X385270102Y-418755227D01*
X385334629Y-418768062D01*
X385338774Y-418788899D01*
X385404676Y-418948000D01*
X338804780Y-418948000D01*
X338592962Y-418927231D01*
X338420264Y-418875091D01*
X338260982Y-418790399D01*
X338121179Y-418676378D01*
X338006194Y-418537385D01*
X337920390Y-418378695D01*
X337867045Y-418206365D01*
X337845000Y-417996619D01*
X337845000Y-374204061D01*
X341574000Y-374204061D01*
X341574000Y-374407939D01*
X341613774Y-374607898D01*
X341691795Y-374796256D01*
X341805063Y-374965774D01*
X341820501Y-374981212D01*
X341820500Y-376816497D01*
X341728795Y-376953744D01*
X341650774Y-377142102D01*
X341611000Y-377342061D01*
X341611000Y-377545939D01*
X341650774Y-377745898D01*
X341728795Y-377934256D01*
X341842063Y-378103774D01*
X341986226Y-378247937D01*
X342155744Y-378361205D01*
X342344102Y-378439226D01*
X342544061Y-378479000D01*
X342747939Y-378479000D01*
X342947898Y-378439226D01*
X343136256Y-378361205D01*
X343305774Y-378247937D01*
X343449937Y-378103774D01*
X343563205Y-377934256D01*
X343641226Y-377745898D01*
X343681000Y-377545939D01*
X343681000Y-377342061D01*
X343641226Y-377142102D01*
X343563205Y-376953744D01*
X343471500Y-376816497D01*
X343471500Y-375094500D01*
X346773500Y-375094500D01*
X346773501Y-378181951D01*
X346730774Y-378285102D01*
X346691000Y-378485061D01*
X346691000Y-378688939D01*
X346730774Y-378888898D01*
X346808795Y-379077256D01*
X346922063Y-379246774D01*
X347066226Y-379390937D01*
X347235744Y-379504205D01*
X347424102Y-379582226D01*
X347624061Y-379622000D01*
X347827939Y-379622000D01*
X348027898Y-379582226D01*
X348216256Y-379504205D01*
X348385774Y-379390937D01*
X348529937Y-379246774D01*
X348643205Y-379077256D01*
X348721226Y-378888898D01*
X348761000Y-378688939D01*
X348761000Y-378485061D01*
X348721226Y-378285102D01*
X348643205Y-378096744D01*
X348529937Y-377927226D01*
X348424500Y-377821789D01*
X348424500Y-374896503D01*
X348516205Y-374759256D01*
X348594226Y-374570898D01*
X348634000Y-374370939D01*
X348634000Y-374167061D01*
X348594226Y-373967102D01*
X348516205Y-373778744D01*
X348402937Y-373609226D01*
X348258774Y-373465063D01*
X348089256Y-373351795D01*
X347900898Y-373273774D01*
X347700939Y-373234000D01*
X347497061Y-373234000D01*
X347297102Y-373273774D01*
X347108744Y-373351795D01*
X346971497Y-373443500D01*
X343181128Y-373443500D01*
X343099256Y-373388795D01*
X342910898Y-373310774D01*
X342710939Y-373271000D01*
X342507061Y-373271000D01*
X342307102Y-373310774D01*
X342118744Y-373388795D01*
X341949226Y-373502063D01*
X341805063Y-373646226D01*
X341691795Y-373815744D01*
X341613774Y-374004102D01*
X341574000Y-374204061D01*
X337845000Y-374204061D01*
X337845000Y-371651000D01*
X339604000Y-371651000D01*
X339604000Y-372201000D01*
X339650585Y-372419987D01*
X339738997Y-372625678D01*
X339865839Y-372810169D01*
X340026236Y-372966369D01*
X340214024Y-373088276D01*
X340437126Y-373168119D01*
X340612000Y-373041954D01*
X340612000Y-371651000D01*
X339604000Y-371651000D01*
X337845000Y-371651000D01*
X337845000Y-370847000D01*
X339604000Y-370847000D01*
X339604000Y-371397000D01*
X340612000Y-371397000D01*
X340612000Y-370006046D01*
X340866000Y-370006046D01*
X340866000Y-371397000D01*
X340886000Y-371397000D01*
X340886000Y-371651000D01*
X340866000Y-371651000D01*
X340866000Y-373041954D01*
X341040874Y-373168119D01*
X341263976Y-373088276D01*
X341451764Y-372966369D01*
X341612161Y-372810169D01*
X341739003Y-372625678D01*
X341827415Y-372419987D01*
X341874000Y-372201000D01*
X341874000Y-371910904D01*
X341888978Y-371917108D01*
X342074448Y-371954000D01*
X342263552Y-371954000D01*
X342449022Y-371917108D01*
X342623731Y-371844741D01*
X342780964Y-371739681D01*
X342914681Y-371605964D01*
X343019741Y-371448731D01*
X343092108Y-371274022D01*
X343129000Y-371088552D01*
X343129000Y-370899448D01*
X346989000Y-370899448D01*
X346989000Y-371088552D01*
X347025892Y-371274022D01*
X347098259Y-371448731D01*
X347203319Y-371605964D01*
X347337036Y-371739681D01*
X347494269Y-371844741D01*
X347668978Y-371917108D01*
X347854448Y-371954000D01*
X348043552Y-371954000D01*
X348229022Y-371917108D01*
X348244000Y-371910904D01*
X348244000Y-372201000D01*
X348290585Y-372419987D01*
X348378997Y-372625678D01*
X348505839Y-372810169D01*
X348666236Y-372966369D01*
X348854024Y-373088276D01*
X349077126Y-373168119D01*
X349252000Y-373041954D01*
X349252000Y-371651000D01*
X349506000Y-371651000D01*
X349506000Y-373041954D01*
X349680874Y-373168119D01*
X349903976Y-373088276D01*
X350091764Y-372966369D01*
X350252161Y-372810169D01*
X350379003Y-372625678D01*
X350467415Y-372419987D01*
X350514000Y-372201000D01*
X350514000Y-371651000D01*
X349506000Y-371651000D01*
X349252000Y-371651000D01*
X349232000Y-371651000D01*
X349232000Y-371397000D01*
X349252000Y-371397000D01*
X349252000Y-370006046D01*
X349506000Y-370006046D01*
X349506000Y-371397000D01*
X350514000Y-371397000D01*
X350514000Y-370847000D01*
X350467415Y-370628013D01*
X350379003Y-370422322D01*
X350252161Y-370237831D01*
X350091764Y-370081631D01*
X349903976Y-369959724D01*
X349680874Y-369879881D01*
X349506000Y-370006046D01*
X349252000Y-370006046D01*
X349077126Y-369879881D01*
X348854024Y-369959724D01*
X348666236Y-370081631D01*
X348521884Y-370222206D01*
X348403731Y-370143259D01*
X348229022Y-370070892D01*
X348043552Y-370034000D01*
X347854448Y-370034000D01*
X347668978Y-370070892D01*
X347494269Y-370143259D01*
X347337036Y-370248319D01*
X347203319Y-370382036D01*
X347098259Y-370539269D01*
X347025892Y-370713978D01*
X346989000Y-370899448D01*
X343129000Y-370899448D01*
X343092108Y-370713978D01*
X343019741Y-370539269D01*
X342914681Y-370382036D01*
X342780964Y-370248319D01*
X342623731Y-370143259D01*
X342449022Y-370070892D01*
X342263552Y-370034000D01*
X342074448Y-370034000D01*
X341888978Y-370070892D01*
X341714269Y-370143259D01*
X341596116Y-370222206D01*
X341451764Y-370081631D01*
X341263976Y-369959724D01*
X341040874Y-369879881D01*
X340866000Y-370006046D01*
X340612000Y-370006046D01*
X340437126Y-369879881D01*
X340214024Y-369959724D01*
X340026236Y-370081631D01*
X339865839Y-370237831D01*
X339738997Y-370422322D01*
X339650585Y-370628013D01*
X339604000Y-370847000D01*
X337845000Y-370847000D01*
X337845000Y-367471000D01*
X339604000Y-367471000D01*
X339604000Y-367771000D01*
X339650585Y-367989987D01*
X339738997Y-368195678D01*
X339865839Y-368380169D01*
X340026236Y-368536369D01*
X340214024Y-368658276D01*
X340437126Y-368738119D01*
X340612000Y-368611954D01*
X340612000Y-367471000D01*
X340866000Y-367471000D01*
X340866000Y-368611954D01*
X341040874Y-368738119D01*
X341263976Y-368658276D01*
X341451764Y-368536369D01*
X341612161Y-368380169D01*
X341739003Y-368195678D01*
X341827415Y-367989987D01*
X341874000Y-367771000D01*
X341874000Y-367471000D01*
X348244000Y-367471000D01*
X348244000Y-367771000D01*
X348290585Y-367989987D01*
X348378997Y-368195678D01*
X348505839Y-368380169D01*
X348666236Y-368536369D01*
X348854024Y-368658276D01*
X349077126Y-368738119D01*
X349252000Y-368611954D01*
X349252000Y-367471000D01*
X349506000Y-367471000D01*
X349506000Y-368611954D01*
X349680874Y-368738119D01*
X349903976Y-368658276D01*
X350091764Y-368536369D01*
X350252161Y-368380169D01*
X350379003Y-368195678D01*
X350467415Y-367989987D01*
X350514000Y-367771000D01*
X350514000Y-367471000D01*
X349506000Y-367471000D01*
X349252000Y-367471000D01*
X348244000Y-367471000D01*
X341874000Y-367471000D01*
X340866000Y-367471000D01*
X340612000Y-367471000D01*
X339604000Y-367471000D01*
X337845000Y-367471000D01*
X337845000Y-366681279D01*
X337852466Y-366605137D01*
X337865205Y-366562942D01*
X337885898Y-366524024D01*
X337913755Y-366489868D01*
X337947714Y-366461775D01*
X337986485Y-366440812D01*
X338028593Y-366427777D01*
X338102588Y-366420000D01*
X339788720Y-366420000D01*
X339738997Y-366492322D01*
G37*
G04 #@! TD.AperFunction*
M02*
