G04 #@! TF.GenerationSoftware,KiCad,Pcbnew,(5.1.10)-1*
G04 #@! TF.CreationDate,2021-07-21T20:55:27-04:00*
G04 #@! TF.ProjectId,ProtoTooManyKeys,50726f74-6f54-46f6-9f4d-616e794b6579,1.5*
G04 #@! TF.SameCoordinates,Original*
G04 #@! TF.FileFunction,Soldermask,Bot*
G04 #@! TF.FilePolarity,Negative*
%FSLAX46Y46*%
G04 Gerber Fmt 4.6, Leading zero omitted, Abs format (unit mm)*
G04 Created by KiCad (PCBNEW (5.1.10)-1) date 2021-07-21 20:55:27*
%MOMM*%
%LPD*%
G01*
G04 APERTURE LIST*
%ADD10R,0.850000X0.300000*%
%ADD11R,0.600000X1.475000*%
%ADD12R,1.475000X0.600000*%
%ADD13R,2.000000X2.000000*%
%ADD14R,0.300000X1.475000*%
%ADD15R,1.475000X0.300000*%
%ADD16C,0.100000*%
%ADD17R,0.600000X1.450000*%
%ADD18R,0.300000X1.450000*%
%ADD19C,0.650000*%
%ADD20R,2.000000X1.500000*%
%ADD21R,2.000000X3.800000*%
%ADD22R,0.700000X1.000000*%
%ADD23R,0.700000X0.600000*%
%ADD24R,1.800000X1.100000*%
%ADD25C,2.250000*%
%ADD26C,3.987800*%
%ADD27C,1.300000*%
%ADD28R,2.000000X1.300000*%
%ADD29R,0.300000X1.000000*%
%ADD30C,4.500000*%
%ADD31R,1.400000X0.800000*%
%ADD32R,1.200000X0.900000*%
G04 APERTURE END LIST*
G36*
G01*
X375597000Y-403258000D02*
X375597000Y-404208000D01*
G75*
G02*
X375347000Y-404458000I-250000J0D01*
G01*
X374847000Y-404458000D01*
G75*
G02*
X374597000Y-404208000I0J250000D01*
G01*
X374597000Y-403258000D01*
G75*
G02*
X374847000Y-403008000I250000J0D01*
G01*
X375347000Y-403008000D01*
G75*
G02*
X375597000Y-403258000I0J-250000D01*
G01*
G37*
G36*
G01*
X377497000Y-403258000D02*
X377497000Y-404208000D01*
G75*
G02*
X377247000Y-404458000I-250000J0D01*
G01*
X376747000Y-404458000D01*
G75*
G02*
X376497000Y-404208000I0J250000D01*
G01*
X376497000Y-403258000D01*
G75*
G02*
X376747000Y-403008000I250000J0D01*
G01*
X377247000Y-403008000D01*
G75*
G02*
X377497000Y-403258000I0J-250000D01*
G01*
G37*
D10*
X375615000Y-406793000D03*
X375615000Y-407293000D03*
X375615000Y-407793000D03*
X375615000Y-408293000D03*
X378765000Y-408293000D03*
X378765000Y-407793000D03*
X378765000Y-407293000D03*
X378765000Y-406793000D03*
D11*
X364681250Y-400644250D03*
X365481250Y-400644250D03*
X366281250Y-400644250D03*
X367081250Y-400644250D03*
X367881250Y-400644250D03*
X368681250Y-400644250D03*
X369481250Y-400644250D03*
X370281250Y-400644250D03*
X371081250Y-400644250D03*
X371881250Y-400644250D03*
X372681250Y-400644250D03*
X373481250Y-400644250D03*
X374281250Y-400644250D03*
X375081250Y-400644250D03*
X375881250Y-400644250D03*
X376681250Y-400644250D03*
D12*
X378419250Y-398906250D03*
X378419250Y-398106250D03*
X378419250Y-397306250D03*
X378419250Y-396506250D03*
X378419250Y-395706250D03*
X378419250Y-394906250D03*
X378419250Y-394106250D03*
X378419250Y-393306250D03*
X378419250Y-392506250D03*
X378419250Y-391706250D03*
X378419250Y-390906250D03*
X378419250Y-390106250D03*
X378419250Y-389306250D03*
X378419250Y-388506250D03*
X378419250Y-387706250D03*
X378419250Y-386906250D03*
D11*
X376681250Y-385168250D03*
X375881250Y-385168250D03*
X375081250Y-385168250D03*
X374281250Y-385168250D03*
X373481250Y-385168250D03*
X372681250Y-385168250D03*
X371881250Y-385168250D03*
X371081250Y-385168250D03*
X370281250Y-385168250D03*
X369481250Y-385168250D03*
X368681250Y-385168250D03*
X367881250Y-385168250D03*
X367081250Y-385168250D03*
X366281250Y-385168250D03*
X365481250Y-385168250D03*
X364681250Y-385168250D03*
D12*
X362943250Y-386906250D03*
X362943250Y-387706250D03*
X362943250Y-388506250D03*
X362943250Y-389306250D03*
X362943250Y-390106250D03*
X362943250Y-390906250D03*
X362943250Y-391706250D03*
X362943250Y-392506250D03*
X362943250Y-393306250D03*
X362943250Y-394106250D03*
X362943250Y-394906250D03*
X362943250Y-395706250D03*
X362943250Y-396506250D03*
X362943250Y-397306250D03*
X362943250Y-398106250D03*
X362943250Y-398906250D03*
D13*
X405511000Y-398907000D03*
D14*
X402761000Y-403145000D03*
X403261000Y-403145000D03*
X403761000Y-403145000D03*
X404261000Y-403145000D03*
X404761000Y-403145000D03*
X405261000Y-403145000D03*
X405761000Y-403145000D03*
X406261000Y-403145000D03*
X406761000Y-403145000D03*
X407261000Y-403145000D03*
X407761000Y-403145000D03*
X408261000Y-403145000D03*
D15*
X409749000Y-401657000D03*
X409749000Y-401157000D03*
X409749000Y-400657000D03*
X409749000Y-400157000D03*
X409749000Y-399657000D03*
X409749000Y-399157000D03*
X409749000Y-398657000D03*
X409749000Y-398157000D03*
X409749000Y-397657000D03*
X409749000Y-397157000D03*
X409749000Y-396657000D03*
X409749000Y-396157000D03*
D14*
X408261000Y-394669000D03*
X407761000Y-394669000D03*
X407261000Y-394669000D03*
X406761000Y-394669000D03*
X406261000Y-394669000D03*
X405761000Y-394669000D03*
X405261000Y-394669000D03*
X404761000Y-394669000D03*
X404261000Y-394669000D03*
X403761000Y-394669000D03*
X403261000Y-394669000D03*
X402761000Y-394669000D03*
D15*
X401273000Y-396157000D03*
X401273000Y-396657000D03*
X401273000Y-397157000D03*
X401273000Y-397657000D03*
X401273000Y-398157000D03*
X401273000Y-398657000D03*
X401273000Y-399157000D03*
X401273000Y-399657000D03*
X401273000Y-400157000D03*
X401273000Y-400657000D03*
X401273000Y-401157000D03*
X401273000Y-401657000D03*
D13*
X405511000Y-383540000D03*
D14*
X402761000Y-387778000D03*
X403261000Y-387778000D03*
X403761000Y-387778000D03*
X404261000Y-387778000D03*
X404761000Y-387778000D03*
X405261000Y-387778000D03*
X405761000Y-387778000D03*
X406261000Y-387778000D03*
X406761000Y-387778000D03*
X407261000Y-387778000D03*
X407761000Y-387778000D03*
X408261000Y-387778000D03*
D15*
X409749000Y-386290000D03*
X409749000Y-385790000D03*
X409749000Y-385290000D03*
X409749000Y-384790000D03*
X409749000Y-384290000D03*
X409749000Y-383790000D03*
X409749000Y-383290000D03*
X409749000Y-382790000D03*
X409749000Y-382290000D03*
X409749000Y-381790000D03*
X409749000Y-381290000D03*
X409749000Y-380790000D03*
D14*
X408261000Y-379302000D03*
X407761000Y-379302000D03*
X407261000Y-379302000D03*
X406761000Y-379302000D03*
X406261000Y-379302000D03*
X405761000Y-379302000D03*
X405261000Y-379302000D03*
X404761000Y-379302000D03*
X404261000Y-379302000D03*
X403761000Y-379302000D03*
X403261000Y-379302000D03*
X402761000Y-379302000D03*
D15*
X401273000Y-380790000D03*
X401273000Y-381290000D03*
X401273000Y-381790000D03*
X401273000Y-382290000D03*
X401273000Y-382790000D03*
X401273000Y-383290000D03*
X401273000Y-383790000D03*
X401273000Y-384290000D03*
X401273000Y-384790000D03*
X401273000Y-385290000D03*
X401273000Y-385790000D03*
X401273000Y-386290000D03*
D16*
G36*
X372630097Y-379723488D02*
G01*
X371781569Y-380572016D01*
X370791619Y-379582066D01*
X371640147Y-378733538D01*
X372630097Y-379723488D01*
G37*
G36*
X371074462Y-378167853D02*
G01*
X370225934Y-379016381D01*
X369235984Y-378026431D01*
X370084512Y-377177903D01*
X371074462Y-378167853D01*
G37*
G36*
X369872381Y-379369934D02*
G01*
X369023853Y-380218462D01*
X368033903Y-379228512D01*
X368882431Y-378379984D01*
X369872381Y-379369934D01*
G37*
G36*
X371428016Y-380925569D02*
G01*
X370579488Y-381774097D01*
X369589538Y-380784147D01*
X370438066Y-379935619D01*
X371428016Y-380925569D01*
G37*
D17*
X348284000Y-372439000D03*
X341834000Y-372439000D03*
X347509000Y-372439000D03*
X342609000Y-372439000D03*
D18*
X343309000Y-372439000D03*
X346809000Y-372439000D03*
X343809000Y-372439000D03*
X346309000Y-372439000D03*
X344309000Y-372439000D03*
X345809000Y-372439000D03*
X345309000Y-372439000D03*
X344809000Y-372439000D03*
D19*
X347949000Y-370994000D03*
X342169000Y-370994000D03*
D20*
X374167000Y-415431000D03*
X374167000Y-410831000D03*
X374167000Y-413131000D03*
D21*
X380467000Y-413131000D03*
D22*
X345932000Y-377710000D03*
D23*
X343932000Y-377510000D03*
X345932000Y-379410000D03*
X343932000Y-379410000D03*
D24*
X350445000Y-408250000D03*
X344245000Y-404550000D03*
X350445000Y-404550000D03*
X344245000Y-408250000D03*
G36*
G01*
X413531000Y-386149002D02*
X413531000Y-385248998D01*
G75*
G02*
X413780998Y-384999000I249998J0D01*
G01*
X414306002Y-384999000D01*
G75*
G02*
X414556000Y-385248998I0J-249998D01*
G01*
X414556000Y-386149002D01*
G75*
G02*
X414306002Y-386399000I-249998J0D01*
G01*
X413780998Y-386399000D01*
G75*
G02*
X413531000Y-386149002I0J249998D01*
G01*
G37*
G36*
G01*
X411706000Y-386149002D02*
X411706000Y-385248998D01*
G75*
G02*
X411955998Y-384999000I249998J0D01*
G01*
X412481002Y-384999000D01*
G75*
G02*
X412731000Y-385248998I0J-249998D01*
G01*
X412731000Y-386149002D01*
G75*
G02*
X412481002Y-386399000I-249998J0D01*
G01*
X411955998Y-386399000D01*
G75*
G02*
X411706000Y-386149002I0J249998D01*
G01*
G37*
G36*
G01*
X401250998Y-391306000D02*
X402151002Y-391306000D01*
G75*
G02*
X402401000Y-391555998I0J-249998D01*
G01*
X402401000Y-392081002D01*
G75*
G02*
X402151002Y-392331000I-249998J0D01*
G01*
X401250998Y-392331000D01*
G75*
G02*
X401001000Y-392081002I0J249998D01*
G01*
X401001000Y-391555998D01*
G75*
G02*
X401250998Y-391306000I249998J0D01*
G01*
G37*
G36*
G01*
X401250998Y-389481000D02*
X402151002Y-389481000D01*
G75*
G02*
X402401000Y-389730998I0J-249998D01*
G01*
X402401000Y-390256002D01*
G75*
G02*
X402151002Y-390506000I-249998J0D01*
G01*
X401250998Y-390506000D01*
G75*
G02*
X401001000Y-390256002I0J249998D01*
G01*
X401001000Y-389730998D01*
G75*
G02*
X401250998Y-389481000I249998J0D01*
G01*
G37*
G36*
G01*
X403282998Y-391306000D02*
X404183002Y-391306000D01*
G75*
G02*
X404433000Y-391555998I0J-249998D01*
G01*
X404433000Y-392081002D01*
G75*
G02*
X404183002Y-392331000I-249998J0D01*
G01*
X403282998Y-392331000D01*
G75*
G02*
X403033000Y-392081002I0J249998D01*
G01*
X403033000Y-391555998D01*
G75*
G02*
X403282998Y-391306000I249998J0D01*
G01*
G37*
G36*
G01*
X403282998Y-389481000D02*
X404183002Y-389481000D01*
G75*
G02*
X404433000Y-389730998I0J-249998D01*
G01*
X404433000Y-390256002D01*
G75*
G02*
X404183002Y-390506000I-249998J0D01*
G01*
X403282998Y-390506000D01*
G75*
G02*
X403033000Y-390256002I0J249998D01*
G01*
X403033000Y-389730998D01*
G75*
G02*
X403282998Y-389481000I249998J0D01*
G01*
G37*
G36*
G01*
X413277000Y-401643002D02*
X413277000Y-400742998D01*
G75*
G02*
X413526998Y-400493000I249998J0D01*
G01*
X414052002Y-400493000D01*
G75*
G02*
X414302000Y-400742998I0J-249998D01*
G01*
X414302000Y-401643002D01*
G75*
G02*
X414052002Y-401893000I-249998J0D01*
G01*
X413526998Y-401893000D01*
G75*
G02*
X413277000Y-401643002I0J249998D01*
G01*
G37*
G36*
G01*
X411452000Y-401643002D02*
X411452000Y-400742998D01*
G75*
G02*
X411701998Y-400493000I249998J0D01*
G01*
X412227002Y-400493000D01*
G75*
G02*
X412477000Y-400742998I0J-249998D01*
G01*
X412477000Y-401643002D01*
G75*
G02*
X412227002Y-401893000I-249998J0D01*
G01*
X411701998Y-401893000D01*
G75*
G02*
X411452000Y-401643002I0J249998D01*
G01*
G37*
G36*
G01*
X401250998Y-406419000D02*
X402151002Y-406419000D01*
G75*
G02*
X402401000Y-406668998I0J-249998D01*
G01*
X402401000Y-407194002D01*
G75*
G02*
X402151002Y-407444000I-249998J0D01*
G01*
X401250998Y-407444000D01*
G75*
G02*
X401001000Y-407194002I0J249998D01*
G01*
X401001000Y-406668998D01*
G75*
G02*
X401250998Y-406419000I249998J0D01*
G01*
G37*
G36*
G01*
X401250998Y-404594000D02*
X402151002Y-404594000D01*
G75*
G02*
X402401000Y-404843998I0J-249998D01*
G01*
X402401000Y-405369002D01*
G75*
G02*
X402151002Y-405619000I-249998J0D01*
G01*
X401250998Y-405619000D01*
G75*
G02*
X401001000Y-405369002I0J249998D01*
G01*
X401001000Y-404843998D01*
G75*
G02*
X401250998Y-404594000I249998J0D01*
G01*
G37*
G36*
G01*
X403282998Y-406419000D02*
X404183002Y-406419000D01*
G75*
G02*
X404433000Y-406668998I0J-249998D01*
G01*
X404433000Y-407194002D01*
G75*
G02*
X404183002Y-407444000I-249998J0D01*
G01*
X403282998Y-407444000D01*
G75*
G02*
X403033000Y-407194002I0J249998D01*
G01*
X403033000Y-406668998D01*
G75*
G02*
X403282998Y-406419000I249998J0D01*
G01*
G37*
G36*
G01*
X403282998Y-404594000D02*
X404183002Y-404594000D01*
G75*
G02*
X404433000Y-404843998I0J-249998D01*
G01*
X404433000Y-405369002D01*
G75*
G02*
X404183002Y-405619000I-249998J0D01*
G01*
X403282998Y-405619000D01*
G75*
G02*
X403033000Y-405369002I0J249998D01*
G01*
X403033000Y-404843998D01*
G75*
G02*
X403282998Y-404594000I249998J0D01*
G01*
G37*
G36*
G01*
X373018000Y-408628002D02*
X373018000Y-407727998D01*
G75*
G02*
X373267998Y-407478000I249998J0D01*
G01*
X373793002Y-407478000D01*
G75*
G02*
X374043000Y-407727998I0J-249998D01*
G01*
X374043000Y-408628002D01*
G75*
G02*
X373793002Y-408878000I-249998J0D01*
G01*
X373267998Y-408878000D01*
G75*
G02*
X373018000Y-408628002I0J249998D01*
G01*
G37*
G36*
G01*
X371193000Y-408628002D02*
X371193000Y-407727998D01*
G75*
G02*
X371442998Y-407478000I249998J0D01*
G01*
X371968002Y-407478000D01*
G75*
G02*
X372218000Y-407727998I0J-249998D01*
G01*
X372218000Y-408628002D01*
G75*
G02*
X371968002Y-408878000I-249998J0D01*
G01*
X371442998Y-408878000D01*
G75*
G02*
X371193000Y-408628002I0J249998D01*
G01*
G37*
G36*
G01*
X373018000Y-406215002D02*
X373018000Y-405314998D01*
G75*
G02*
X373267998Y-405065000I249998J0D01*
G01*
X373793002Y-405065000D01*
G75*
G02*
X374043000Y-405314998I0J-249998D01*
G01*
X374043000Y-406215002D01*
G75*
G02*
X373793002Y-406465000I-249998J0D01*
G01*
X373267998Y-406465000D01*
G75*
G02*
X373018000Y-406215002I0J249998D01*
G01*
G37*
G36*
G01*
X371193000Y-406215002D02*
X371193000Y-405314998D01*
G75*
G02*
X371442998Y-405065000I249998J0D01*
G01*
X371968002Y-405065000D01*
G75*
G02*
X372218000Y-405314998I0J-249998D01*
G01*
X372218000Y-406215002D01*
G75*
G02*
X371968002Y-406465000I-249998J0D01*
G01*
X371442998Y-406465000D01*
G75*
G02*
X371193000Y-406215002I0J249998D01*
G01*
G37*
G36*
G01*
X373018000Y-404183002D02*
X373018000Y-403282998D01*
G75*
G02*
X373267998Y-403033000I249998J0D01*
G01*
X373793002Y-403033000D01*
G75*
G02*
X374043000Y-403282998I0J-249998D01*
G01*
X374043000Y-404183002D01*
G75*
G02*
X373793002Y-404433000I-249998J0D01*
G01*
X373267998Y-404433000D01*
G75*
G02*
X373018000Y-404183002I0J249998D01*
G01*
G37*
G36*
G01*
X371193000Y-404183002D02*
X371193000Y-403282998D01*
G75*
G02*
X371442998Y-403033000I249998J0D01*
G01*
X371968002Y-403033000D01*
G75*
G02*
X372218000Y-403282998I0J-249998D01*
G01*
X372218000Y-404183002D01*
G75*
G02*
X371968002Y-404433000I-249998J0D01*
G01*
X371442998Y-404433000D01*
G75*
G02*
X371193000Y-404183002I0J249998D01*
G01*
G37*
G36*
G01*
X402901998Y-415516000D02*
X403802002Y-415516000D01*
G75*
G02*
X404052000Y-415765998I0J-249998D01*
G01*
X404052000Y-416291002D01*
G75*
G02*
X403802002Y-416541000I-249998J0D01*
G01*
X402901998Y-416541000D01*
G75*
G02*
X402652000Y-416291002I0J249998D01*
G01*
X402652000Y-415765998D01*
G75*
G02*
X402901998Y-415516000I249998J0D01*
G01*
G37*
G36*
G01*
X402901998Y-417341000D02*
X403802002Y-417341000D01*
G75*
G02*
X404052000Y-417590998I0J-249998D01*
G01*
X404052000Y-418116002D01*
G75*
G02*
X403802002Y-418366000I-249998J0D01*
G01*
X402901998Y-418366000D01*
G75*
G02*
X402652000Y-418116002I0J249998D01*
G01*
X402652000Y-417590998D01*
G75*
G02*
X402901998Y-417341000I249998J0D01*
G01*
G37*
G36*
G01*
X381946998Y-396259000D02*
X382847002Y-396259000D01*
G75*
G02*
X383097000Y-396508998I0J-249998D01*
G01*
X383097000Y-397034002D01*
G75*
G02*
X382847002Y-397284000I-249998J0D01*
G01*
X381946998Y-397284000D01*
G75*
G02*
X381697000Y-397034002I0J249998D01*
G01*
X381697000Y-396508998D01*
G75*
G02*
X381946998Y-396259000I249998J0D01*
G01*
G37*
G36*
G01*
X381946998Y-394434000D02*
X382847002Y-394434000D01*
G75*
G02*
X383097000Y-394683998I0J-249998D01*
G01*
X383097000Y-395209002D01*
G75*
G02*
X382847002Y-395459000I-249998J0D01*
G01*
X381946998Y-395459000D01*
G75*
G02*
X381697000Y-395209002I0J249998D01*
G01*
X381697000Y-394683998D01*
G75*
G02*
X381946998Y-394434000I249998J0D01*
G01*
G37*
G36*
G01*
X350081002Y-375774000D02*
X349180998Y-375774000D01*
G75*
G02*
X348931000Y-375524002I0J249998D01*
G01*
X348931000Y-374998998D01*
G75*
G02*
X349180998Y-374749000I249998J0D01*
G01*
X350081002Y-374749000D01*
G75*
G02*
X350331000Y-374998998I0J-249998D01*
G01*
X350331000Y-375524002D01*
G75*
G02*
X350081002Y-375774000I-249998J0D01*
G01*
G37*
G36*
G01*
X350081002Y-377599000D02*
X349180998Y-377599000D01*
G75*
G02*
X348931000Y-377349002I0J249998D01*
G01*
X348931000Y-376823998D01*
G75*
G02*
X349180998Y-376574000I249998J0D01*
G01*
X350081002Y-376574000D01*
G75*
G02*
X350331000Y-376823998I0J-249998D01*
G01*
X350331000Y-377349002D01*
G75*
G02*
X350081002Y-377599000I-249998J0D01*
G01*
G37*
G36*
G01*
X381616000Y-407473998D02*
X381616000Y-408374002D01*
G75*
G02*
X381366002Y-408624000I-249998J0D01*
G01*
X380840998Y-408624000D01*
G75*
G02*
X380591000Y-408374002I0J249998D01*
G01*
X380591000Y-407473998D01*
G75*
G02*
X380840998Y-407224000I249998J0D01*
G01*
X381366002Y-407224000D01*
G75*
G02*
X381616000Y-407473998I0J-249998D01*
G01*
G37*
G36*
G01*
X383441000Y-407473998D02*
X383441000Y-408374002D01*
G75*
G02*
X383191002Y-408624000I-249998J0D01*
G01*
X382665998Y-408624000D01*
G75*
G02*
X382416000Y-408374002I0J249998D01*
G01*
X382416000Y-407473998D01*
G75*
G02*
X382665998Y-407224000I249998J0D01*
G01*
X383191002Y-407224000D01*
G75*
G02*
X383441000Y-407473998I0J-249998D01*
G01*
G37*
G36*
G01*
X382416000Y-406088002D02*
X382416000Y-405187998D01*
G75*
G02*
X382665998Y-404938000I249998J0D01*
G01*
X383191002Y-404938000D01*
G75*
G02*
X383441000Y-405187998I0J-249998D01*
G01*
X383441000Y-406088002D01*
G75*
G02*
X383191002Y-406338000I-249998J0D01*
G01*
X382665998Y-406338000D01*
G75*
G02*
X382416000Y-406088002I0J249998D01*
G01*
G37*
G36*
G01*
X380591000Y-406088002D02*
X380591000Y-405187998D01*
G75*
G02*
X380840998Y-404938000I249998J0D01*
G01*
X381366002Y-404938000D01*
G75*
G02*
X381616000Y-405187998I0J-249998D01*
G01*
X381616000Y-406088002D01*
G75*
G02*
X381366002Y-406338000I-249998J0D01*
G01*
X380840998Y-406338000D01*
G75*
G02*
X380591000Y-406088002I0J249998D01*
G01*
G37*
G36*
G01*
X341064002Y-375901000D02*
X340163998Y-375901000D01*
G75*
G02*
X339914000Y-375651002I0J249998D01*
G01*
X339914000Y-375125998D01*
G75*
G02*
X340163998Y-374876000I249998J0D01*
G01*
X341064002Y-374876000D01*
G75*
G02*
X341314000Y-375125998I0J-249998D01*
G01*
X341314000Y-375651002D01*
G75*
G02*
X341064002Y-375901000I-249998J0D01*
G01*
G37*
G36*
G01*
X341064002Y-377726000D02*
X340163998Y-377726000D01*
G75*
G02*
X339914000Y-377476002I0J249998D01*
G01*
X339914000Y-376950998D01*
G75*
G02*
X340163998Y-376701000I249998J0D01*
G01*
X341064002Y-376701000D01*
G75*
G02*
X341314000Y-376950998I0J-249998D01*
G01*
X341314000Y-377476002D01*
G75*
G02*
X341064002Y-377726000I-249998J0D01*
G01*
G37*
G36*
G01*
X346398002Y-381870000D02*
X345497998Y-381870000D01*
G75*
G02*
X345248000Y-381620002I0J249998D01*
G01*
X345248000Y-381094998D01*
G75*
G02*
X345497998Y-380845000I249998J0D01*
G01*
X346398002Y-380845000D01*
G75*
G02*
X346648000Y-381094998I0J-249998D01*
G01*
X346648000Y-381620002D01*
G75*
G02*
X346398002Y-381870000I-249998J0D01*
G01*
G37*
G36*
G01*
X346398002Y-383695000D02*
X345497998Y-383695000D01*
G75*
G02*
X345248000Y-383445002I0J249998D01*
G01*
X345248000Y-382919998D01*
G75*
G02*
X345497998Y-382670000I249998J0D01*
G01*
X346398002Y-382670000D01*
G75*
G02*
X346648000Y-382919998I0J-249998D01*
G01*
X346648000Y-383445002D01*
G75*
G02*
X346398002Y-383695000I-249998J0D01*
G01*
G37*
G36*
G01*
X344366002Y-381870000D02*
X343465998Y-381870000D01*
G75*
G02*
X343216000Y-381620002I0J249998D01*
G01*
X343216000Y-381094998D01*
G75*
G02*
X343465998Y-380845000I249998J0D01*
G01*
X344366002Y-380845000D01*
G75*
G02*
X344616000Y-381094998I0J-249998D01*
G01*
X344616000Y-381620002D01*
G75*
G02*
X344366002Y-381870000I-249998J0D01*
G01*
G37*
G36*
G01*
X344366002Y-383695000D02*
X343465998Y-383695000D01*
G75*
G02*
X343216000Y-383445002I0J249998D01*
G01*
X343216000Y-382919998D01*
G75*
G02*
X343465998Y-382670000I249998J0D01*
G01*
X344366002Y-382670000D01*
G75*
G02*
X344616000Y-382919998I0J-249998D01*
G01*
X344616000Y-383445002D01*
G75*
G02*
X344366002Y-383695000I-249998J0D01*
G01*
G37*
G36*
G01*
X360699000Y-382212002D02*
X360699000Y-381311998D01*
G75*
G02*
X360948998Y-381062000I249998J0D01*
G01*
X361474002Y-381062000D01*
G75*
G02*
X361724000Y-381311998I0J-249998D01*
G01*
X361724000Y-382212002D01*
G75*
G02*
X361474002Y-382462000I-249998J0D01*
G01*
X360948998Y-382462000D01*
G75*
G02*
X360699000Y-382212002I0J249998D01*
G01*
G37*
G36*
G01*
X358874000Y-382212002D02*
X358874000Y-381311998D01*
G75*
G02*
X359123998Y-381062000I249998J0D01*
G01*
X359649002Y-381062000D01*
G75*
G02*
X359899000Y-381311998I0J-249998D01*
G01*
X359899000Y-382212002D01*
G75*
G02*
X359649002Y-382462000I-249998J0D01*
G01*
X359123998Y-382462000D01*
G75*
G02*
X358874000Y-382212002I0J249998D01*
G01*
G37*
D25*
X447040000Y-403860000D03*
D26*
X450850000Y-406400000D03*
D25*
X453390000Y-401320000D03*
X447040000Y-384810000D03*
D26*
X450850000Y-387350000D03*
D25*
X453390000Y-382270000D03*
X427990000Y-403860000D03*
D26*
X431800000Y-406400000D03*
D25*
X434340000Y-401320000D03*
X427990000Y-384810000D03*
D26*
X431800000Y-387350000D03*
D25*
X434340000Y-382270000D03*
D27*
X350075000Y-414750000D03*
X350075000Y-412750000D03*
X348075000Y-414750000D03*
X348075000Y-412750000D03*
X346075000Y-414750000D03*
X346075000Y-412750000D03*
D28*
X409219000Y-410932000D03*
X390119000Y-410932000D03*
D29*
X406919000Y-413632000D03*
X406419000Y-413632000D03*
X405919000Y-413632000D03*
X405419000Y-413632000D03*
X404919000Y-413632000D03*
X404419000Y-413632000D03*
X403919000Y-413632000D03*
X403419000Y-413632000D03*
X402919000Y-413632000D03*
X402419000Y-413632000D03*
X401919000Y-413632000D03*
X401419000Y-413632000D03*
X400919000Y-413632000D03*
X400419000Y-413632000D03*
X399919000Y-413632000D03*
X399419000Y-413632000D03*
X398919000Y-413632000D03*
X398419000Y-413632000D03*
X397919000Y-413632000D03*
X397419000Y-413632000D03*
X396919000Y-413632000D03*
X396419000Y-413632000D03*
X395919000Y-413632000D03*
X395419000Y-413632000D03*
X394919000Y-413632000D03*
X394419000Y-413632000D03*
X393919000Y-413632000D03*
X393419000Y-413632000D03*
X392919000Y-413632000D03*
X392419000Y-413632000D03*
G36*
G01*
X354825000Y-377962000D02*
X354825000Y-379212000D01*
G75*
G02*
X354575000Y-379462000I-250000J0D01*
G01*
X353825000Y-379462000D01*
G75*
G02*
X353575000Y-379212000I0J250000D01*
G01*
X353575000Y-377962000D01*
G75*
G02*
X353825000Y-377712000I250000J0D01*
G01*
X354575000Y-377712000D01*
G75*
G02*
X354825000Y-377962000I0J-250000D01*
G01*
G37*
G36*
G01*
X357625000Y-377962000D02*
X357625000Y-379212000D01*
G75*
G02*
X357375000Y-379462000I-250000J0D01*
G01*
X356625000Y-379462000D01*
G75*
G02*
X356375000Y-379212000I0J250000D01*
G01*
X356375000Y-377962000D01*
G75*
G02*
X356625000Y-377712000I250000J0D01*
G01*
X357375000Y-377712000D01*
G75*
G02*
X357625000Y-377962000I0J-250000D01*
G01*
G37*
D30*
X450850000Y-411955837D03*
D31*
X453450000Y-411230837D03*
X448250000Y-411230837D03*
X448250000Y-412680837D03*
X453450000Y-412680837D03*
D30*
X431800000Y-411955837D03*
D31*
X434400000Y-411230837D03*
X429200000Y-411230837D03*
X429200000Y-412680837D03*
X434400000Y-412680837D03*
D32*
X459105000Y-404750000D03*
X459105000Y-408050000D03*
X459105000Y-385700000D03*
X459105000Y-389000000D03*
X440055000Y-404750000D03*
X440055000Y-408050000D03*
X440055000Y-389000000D03*
X440055000Y-385700000D03*
D30*
X450850000Y-392908000D03*
D31*
X453450000Y-392183000D03*
X448250000Y-392183000D03*
X448250000Y-393633000D03*
X453450000Y-393633000D03*
X434400000Y-393633000D03*
X429200000Y-393633000D03*
X429200000Y-392183000D03*
X434400000Y-392183000D03*
D30*
X431800000Y-392908000D03*
G36*
G01*
X398087000Y-399509000D02*
X398087000Y-398559000D01*
G75*
G02*
X398337000Y-398309000I250000J0D01*
G01*
X398837000Y-398309000D01*
G75*
G02*
X399087000Y-398559000I0J-250000D01*
G01*
X399087000Y-399509000D01*
G75*
G02*
X398837000Y-399759000I-250000J0D01*
G01*
X398337000Y-399759000D01*
G75*
G02*
X398087000Y-399509000I0J250000D01*
G01*
G37*
G36*
G01*
X396187000Y-399509000D02*
X396187000Y-398559000D01*
G75*
G02*
X396437000Y-398309000I250000J0D01*
G01*
X396937000Y-398309000D01*
G75*
G02*
X397187000Y-398559000I0J-250000D01*
G01*
X397187000Y-399509000D01*
G75*
G02*
X396937000Y-399759000I-250000J0D01*
G01*
X396437000Y-399759000D01*
G75*
G02*
X396187000Y-399509000I0J250000D01*
G01*
G37*
G36*
G01*
X401607000Y-376116000D02*
X402557000Y-376116000D01*
G75*
G02*
X402807000Y-376366000I0J-250000D01*
G01*
X402807000Y-376866000D01*
G75*
G02*
X402557000Y-377116000I-250000J0D01*
G01*
X401607000Y-377116000D01*
G75*
G02*
X401357000Y-376866000I0J250000D01*
G01*
X401357000Y-376366000D01*
G75*
G02*
X401607000Y-376116000I250000J0D01*
G01*
G37*
G36*
G01*
X401607000Y-374216000D02*
X402557000Y-374216000D01*
G75*
G02*
X402807000Y-374466000I0J-250000D01*
G01*
X402807000Y-374966000D01*
G75*
G02*
X402557000Y-375216000I-250000J0D01*
G01*
X401607000Y-375216000D01*
G75*
G02*
X401357000Y-374966000I0J250000D01*
G01*
X401357000Y-374466000D01*
G75*
G02*
X401607000Y-374216000I250000J0D01*
G01*
G37*
G36*
G01*
X413581000Y-381221000D02*
X413581000Y-380271000D01*
G75*
G02*
X413831000Y-380021000I250000J0D01*
G01*
X414331000Y-380021000D01*
G75*
G02*
X414581000Y-380271000I0J-250000D01*
G01*
X414581000Y-381221000D01*
G75*
G02*
X414331000Y-381471000I-250000J0D01*
G01*
X413831000Y-381471000D01*
G75*
G02*
X413581000Y-381221000I0J250000D01*
G01*
G37*
G36*
G01*
X411681000Y-381221000D02*
X411681000Y-380271000D01*
G75*
G02*
X411931000Y-380021000I250000J0D01*
G01*
X412431000Y-380021000D01*
G75*
G02*
X412681000Y-380271000I0J-250000D01*
G01*
X412681000Y-381221000D01*
G75*
G02*
X412431000Y-381471000I-250000J0D01*
G01*
X411931000Y-381471000D01*
G75*
G02*
X411681000Y-381221000I0J250000D01*
G01*
G37*
G36*
G01*
X413581000Y-383253000D02*
X413581000Y-382303000D01*
G75*
G02*
X413831000Y-382053000I250000J0D01*
G01*
X414331000Y-382053000D01*
G75*
G02*
X414581000Y-382303000I0J-250000D01*
G01*
X414581000Y-383253000D01*
G75*
G02*
X414331000Y-383503000I-250000J0D01*
G01*
X413831000Y-383503000D01*
G75*
G02*
X413581000Y-383253000I0J250000D01*
G01*
G37*
G36*
G01*
X411681000Y-383253000D02*
X411681000Y-382303000D01*
G75*
G02*
X411931000Y-382053000I250000J0D01*
G01*
X412431000Y-382053000D01*
G75*
G02*
X412681000Y-382303000I0J-250000D01*
G01*
X412681000Y-383253000D01*
G75*
G02*
X412431000Y-383503000I-250000J0D01*
G01*
X411931000Y-383503000D01*
G75*
G02*
X411681000Y-383253000I0J250000D01*
G01*
G37*
G36*
G01*
X400525000Y-375216000D02*
X399575000Y-375216000D01*
G75*
G02*
X399325000Y-374966000I0J250000D01*
G01*
X399325000Y-374466000D01*
G75*
G02*
X399575000Y-374216000I250000J0D01*
G01*
X400525000Y-374216000D01*
G75*
G02*
X400775000Y-374466000I0J-250000D01*
G01*
X400775000Y-374966000D01*
G75*
G02*
X400525000Y-375216000I-250000J0D01*
G01*
G37*
G36*
G01*
X400525000Y-377116000D02*
X399575000Y-377116000D01*
G75*
G02*
X399325000Y-376866000I0J250000D01*
G01*
X399325000Y-376366000D01*
G75*
G02*
X399575000Y-376116000I250000J0D01*
G01*
X400525000Y-376116000D01*
G75*
G02*
X400775000Y-376366000I0J-250000D01*
G01*
X400775000Y-376866000D01*
G75*
G02*
X400525000Y-377116000I-250000J0D01*
G01*
G37*
G36*
G01*
X406621000Y-375216000D02*
X405671000Y-375216000D01*
G75*
G02*
X405421000Y-374966000I0J250000D01*
G01*
X405421000Y-374466000D01*
G75*
G02*
X405671000Y-374216000I250000J0D01*
G01*
X406621000Y-374216000D01*
G75*
G02*
X406871000Y-374466000I0J-250000D01*
G01*
X406871000Y-374966000D01*
G75*
G02*
X406621000Y-375216000I-250000J0D01*
G01*
G37*
G36*
G01*
X406621000Y-377116000D02*
X405671000Y-377116000D01*
G75*
G02*
X405421000Y-376866000I0J250000D01*
G01*
X405421000Y-376366000D01*
G75*
G02*
X405671000Y-376116000I250000J0D01*
G01*
X406621000Y-376116000D01*
G75*
G02*
X406871000Y-376366000I0J-250000D01*
G01*
X406871000Y-376866000D01*
G75*
G02*
X406621000Y-377116000I-250000J0D01*
G01*
G37*
G36*
G01*
X404589000Y-375216000D02*
X403639000Y-375216000D01*
G75*
G02*
X403389000Y-374966000I0J250000D01*
G01*
X403389000Y-374466000D01*
G75*
G02*
X403639000Y-374216000I250000J0D01*
G01*
X404589000Y-374216000D01*
G75*
G02*
X404839000Y-374466000I0J-250000D01*
G01*
X404839000Y-374966000D01*
G75*
G02*
X404589000Y-375216000I-250000J0D01*
G01*
G37*
G36*
G01*
X404589000Y-377116000D02*
X403639000Y-377116000D01*
G75*
G02*
X403389000Y-376866000I0J250000D01*
G01*
X403389000Y-376366000D01*
G75*
G02*
X403639000Y-376116000I250000J0D01*
G01*
X404589000Y-376116000D01*
G75*
G02*
X404839000Y-376366000I0J-250000D01*
G01*
X404839000Y-376866000D01*
G75*
G02*
X404589000Y-377116000I-250000J0D01*
G01*
G37*
G36*
G01*
X384650000Y-410776000D02*
X383700000Y-410776000D01*
G75*
G02*
X383450000Y-410526000I0J250000D01*
G01*
X383450000Y-410026000D01*
G75*
G02*
X383700000Y-409776000I250000J0D01*
G01*
X384650000Y-409776000D01*
G75*
G02*
X384900000Y-410026000I0J-250000D01*
G01*
X384900000Y-410526000D01*
G75*
G02*
X384650000Y-410776000I-250000J0D01*
G01*
G37*
G36*
G01*
X384650000Y-412676000D02*
X383700000Y-412676000D01*
G75*
G02*
X383450000Y-412426000I0J250000D01*
G01*
X383450000Y-411926000D01*
G75*
G02*
X383700000Y-411676000I250000J0D01*
G01*
X384650000Y-411676000D01*
G75*
G02*
X384900000Y-411926000I0J-250000D01*
G01*
X384900000Y-412426000D01*
G75*
G02*
X384650000Y-412676000I-250000J0D01*
G01*
G37*
G36*
G01*
X370111000Y-411676000D02*
X371061000Y-411676000D01*
G75*
G02*
X371311000Y-411926000I0J-250000D01*
G01*
X371311000Y-412426000D01*
G75*
G02*
X371061000Y-412676000I-250000J0D01*
G01*
X370111000Y-412676000D01*
G75*
G02*
X369861000Y-412426000I0J250000D01*
G01*
X369861000Y-411926000D01*
G75*
G02*
X370111000Y-411676000I250000J0D01*
G01*
G37*
G36*
G01*
X370111000Y-409776000D02*
X371061000Y-409776000D01*
G75*
G02*
X371311000Y-410026000I0J-250000D01*
G01*
X371311000Y-410526000D01*
G75*
G02*
X371061000Y-410776000I-250000J0D01*
G01*
X370111000Y-410776000D01*
G75*
G02*
X369861000Y-410526000I0J250000D01*
G01*
X369861000Y-410026000D01*
G75*
G02*
X370111000Y-409776000I250000J0D01*
G01*
G37*
G36*
G01*
X409354000Y-391356000D02*
X410304000Y-391356000D01*
G75*
G02*
X410554000Y-391606000I0J-250000D01*
G01*
X410554000Y-392106000D01*
G75*
G02*
X410304000Y-392356000I-250000J0D01*
G01*
X409354000Y-392356000D01*
G75*
G02*
X409104000Y-392106000I0J250000D01*
G01*
X409104000Y-391606000D01*
G75*
G02*
X409354000Y-391356000I250000J0D01*
G01*
G37*
G36*
G01*
X409354000Y-389456000D02*
X410304000Y-389456000D01*
G75*
G02*
X410554000Y-389706000I0J-250000D01*
G01*
X410554000Y-390206000D01*
G75*
G02*
X410304000Y-390456000I-250000J0D01*
G01*
X409354000Y-390456000D01*
G75*
G02*
X409104000Y-390206000I0J250000D01*
G01*
X409104000Y-389706000D01*
G75*
G02*
X409354000Y-389456000I250000J0D01*
G01*
G37*
G36*
G01*
X407322000Y-391356000D02*
X408272000Y-391356000D01*
G75*
G02*
X408522000Y-391606000I0J-250000D01*
G01*
X408522000Y-392106000D01*
G75*
G02*
X408272000Y-392356000I-250000J0D01*
G01*
X407322000Y-392356000D01*
G75*
G02*
X407072000Y-392106000I0J250000D01*
G01*
X407072000Y-391606000D01*
G75*
G02*
X407322000Y-391356000I250000J0D01*
G01*
G37*
G36*
G01*
X407322000Y-389456000D02*
X408272000Y-389456000D01*
G75*
G02*
X408522000Y-389706000I0J-250000D01*
G01*
X408522000Y-390206000D01*
G75*
G02*
X408272000Y-390456000I-250000J0D01*
G01*
X407322000Y-390456000D01*
G75*
G02*
X407072000Y-390206000I0J250000D01*
G01*
X407072000Y-389706000D01*
G75*
G02*
X407322000Y-389456000I250000J0D01*
G01*
G37*
G36*
G01*
X408272000Y-405569000D02*
X407322000Y-405569000D01*
G75*
G02*
X407072000Y-405319000I0J250000D01*
G01*
X407072000Y-404819000D01*
G75*
G02*
X407322000Y-404569000I250000J0D01*
G01*
X408272000Y-404569000D01*
G75*
G02*
X408522000Y-404819000I0J-250000D01*
G01*
X408522000Y-405319000D01*
G75*
G02*
X408272000Y-405569000I-250000J0D01*
G01*
G37*
G36*
G01*
X408272000Y-407469000D02*
X407322000Y-407469000D01*
G75*
G02*
X407072000Y-407219000I0J250000D01*
G01*
X407072000Y-406719000D01*
G75*
G02*
X407322000Y-406469000I250000J0D01*
G01*
X408272000Y-406469000D01*
G75*
G02*
X408522000Y-406719000I0J-250000D01*
G01*
X408522000Y-407219000D01*
G75*
G02*
X408272000Y-407469000I-250000J0D01*
G01*
G37*
G36*
G01*
X410304000Y-405569000D02*
X409354000Y-405569000D01*
G75*
G02*
X409104000Y-405319000I0J250000D01*
G01*
X409104000Y-404819000D01*
G75*
G02*
X409354000Y-404569000I250000J0D01*
G01*
X410304000Y-404569000D01*
G75*
G02*
X410554000Y-404819000I0J-250000D01*
G01*
X410554000Y-405319000D01*
G75*
G02*
X410304000Y-405569000I-250000J0D01*
G01*
G37*
G36*
G01*
X410304000Y-407469000D02*
X409354000Y-407469000D01*
G75*
G02*
X409104000Y-407219000I0J250000D01*
G01*
X409104000Y-406719000D01*
G75*
G02*
X409354000Y-406469000I250000J0D01*
G01*
X410304000Y-406469000D01*
G75*
G02*
X410554000Y-406719000I0J-250000D01*
G01*
X410554000Y-407219000D01*
G75*
G02*
X410304000Y-407469000I-250000J0D01*
G01*
G37*
G36*
G01*
X397187000Y-396527000D02*
X397187000Y-397477000D01*
G75*
G02*
X396937000Y-397727000I-250000J0D01*
G01*
X396437000Y-397727000D01*
G75*
G02*
X396187000Y-397477000I0J250000D01*
G01*
X396187000Y-396527000D01*
G75*
G02*
X396437000Y-396277000I250000J0D01*
G01*
X396937000Y-396277000D01*
G75*
G02*
X397187000Y-396527000I0J-250000D01*
G01*
G37*
G36*
G01*
X399087000Y-396527000D02*
X399087000Y-397477000D01*
G75*
G02*
X398837000Y-397727000I-250000J0D01*
G01*
X398337000Y-397727000D01*
G75*
G02*
X398087000Y-397477000I0J250000D01*
G01*
X398087000Y-396527000D01*
G75*
G02*
X398337000Y-396277000I250000J0D01*
G01*
X398837000Y-396277000D01*
G75*
G02*
X399087000Y-396527000I0J-250000D01*
G01*
G37*
G36*
G01*
X365600000Y-379026000D02*
X364650000Y-379026000D01*
G75*
G02*
X364400000Y-378776000I0J250000D01*
G01*
X364400000Y-378276000D01*
G75*
G02*
X364650000Y-378026000I250000J0D01*
G01*
X365600000Y-378026000D01*
G75*
G02*
X365850000Y-378276000I0J-250000D01*
G01*
X365850000Y-378776000D01*
G75*
G02*
X365600000Y-379026000I-250000J0D01*
G01*
G37*
G36*
G01*
X365600000Y-380926000D02*
X364650000Y-380926000D01*
G75*
G02*
X364400000Y-380676000I0J250000D01*
G01*
X364400000Y-380176000D01*
G75*
G02*
X364650000Y-379926000I250000J0D01*
G01*
X365600000Y-379926000D01*
G75*
G02*
X365850000Y-380176000I0J-250000D01*
G01*
X365850000Y-380676000D01*
G75*
G02*
X365600000Y-380926000I-250000J0D01*
G01*
G37*
G36*
G01*
X412427000Y-397797000D02*
X412427000Y-398747000D01*
G75*
G02*
X412177000Y-398997000I-250000J0D01*
G01*
X411677000Y-398997000D01*
G75*
G02*
X411427000Y-398747000I0J250000D01*
G01*
X411427000Y-397797000D01*
G75*
G02*
X411677000Y-397547000I250000J0D01*
G01*
X412177000Y-397547000D01*
G75*
G02*
X412427000Y-397797000I0J-250000D01*
G01*
G37*
G36*
G01*
X414327000Y-397797000D02*
X414327000Y-398747000D01*
G75*
G02*
X414077000Y-398997000I-250000J0D01*
G01*
X413577000Y-398997000D01*
G75*
G02*
X413327000Y-398747000I0J250000D01*
G01*
X413327000Y-397797000D01*
G75*
G02*
X413577000Y-397547000I250000J0D01*
G01*
X414077000Y-397547000D01*
G75*
G02*
X414327000Y-397797000I0J-250000D01*
G01*
G37*
G36*
G01*
X412427000Y-395765000D02*
X412427000Y-396715000D01*
G75*
G02*
X412177000Y-396965000I-250000J0D01*
G01*
X411677000Y-396965000D01*
G75*
G02*
X411427000Y-396715000I0J250000D01*
G01*
X411427000Y-395765000D01*
G75*
G02*
X411677000Y-395515000I250000J0D01*
G01*
X412177000Y-395515000D01*
G75*
G02*
X412427000Y-395765000I0J-250000D01*
G01*
G37*
G36*
G01*
X414327000Y-395765000D02*
X414327000Y-396715000D01*
G75*
G02*
X414077000Y-396965000I-250000J0D01*
G01*
X413577000Y-396965000D01*
G75*
G02*
X413327000Y-396715000I0J250000D01*
G01*
X413327000Y-395765000D01*
G75*
G02*
X413577000Y-395515000I250000J0D01*
G01*
X414077000Y-395515000D01*
G75*
G02*
X414327000Y-395765000I0J-250000D01*
G01*
G37*
G36*
G01*
X374810000Y-379926000D02*
X375760000Y-379926000D01*
G75*
G02*
X376010000Y-380176000I0J-250000D01*
G01*
X376010000Y-380676000D01*
G75*
G02*
X375760000Y-380926000I-250000J0D01*
G01*
X374810000Y-380926000D01*
G75*
G02*
X374560000Y-380676000I0J250000D01*
G01*
X374560000Y-380176000D01*
G75*
G02*
X374810000Y-379926000I250000J0D01*
G01*
G37*
G36*
G01*
X374810000Y-378026000D02*
X375760000Y-378026000D01*
G75*
G02*
X376010000Y-378276000I0J-250000D01*
G01*
X376010000Y-378776000D01*
G75*
G02*
X375760000Y-379026000I-250000J0D01*
G01*
X374810000Y-379026000D01*
G75*
G02*
X374560000Y-378776000I0J250000D01*
G01*
X374560000Y-378276000D01*
G75*
G02*
X374810000Y-378026000I250000J0D01*
G01*
G37*
G36*
G01*
X398087000Y-403573000D02*
X398087000Y-402623000D01*
G75*
G02*
X398337000Y-402373000I250000J0D01*
G01*
X398837000Y-402373000D01*
G75*
G02*
X399087000Y-402623000I0J-250000D01*
G01*
X399087000Y-403573000D01*
G75*
G02*
X398837000Y-403823000I-250000J0D01*
G01*
X398337000Y-403823000D01*
G75*
G02*
X398087000Y-403573000I0J250000D01*
G01*
G37*
G36*
G01*
X396187000Y-403573000D02*
X396187000Y-402623000D01*
G75*
G02*
X396437000Y-402373000I250000J0D01*
G01*
X396937000Y-402373000D01*
G75*
G02*
X397187000Y-402623000I0J-250000D01*
G01*
X397187000Y-403573000D01*
G75*
G02*
X396937000Y-403823000I-250000J0D01*
G01*
X396437000Y-403823000D01*
G75*
G02*
X396187000Y-403573000I0J250000D01*
G01*
G37*
G36*
G01*
X398087000Y-401541000D02*
X398087000Y-400591000D01*
G75*
G02*
X398337000Y-400341000I250000J0D01*
G01*
X398837000Y-400341000D01*
G75*
G02*
X399087000Y-400591000I0J-250000D01*
G01*
X399087000Y-401541000D01*
G75*
G02*
X398837000Y-401791000I-250000J0D01*
G01*
X398337000Y-401791000D01*
G75*
G02*
X398087000Y-401541000I0J250000D01*
G01*
G37*
G36*
G01*
X396187000Y-401541000D02*
X396187000Y-400591000D01*
G75*
G02*
X396437000Y-400341000I250000J0D01*
G01*
X396937000Y-400341000D01*
G75*
G02*
X397187000Y-400591000I0J-250000D01*
G01*
X397187000Y-401541000D01*
G75*
G02*
X396937000Y-401791000I-250000J0D01*
G01*
X396437000Y-401791000D01*
G75*
G02*
X396187000Y-401541000I0J250000D01*
G01*
G37*
G36*
G01*
X409923000Y-418391000D02*
X408973000Y-418391000D01*
G75*
G02*
X408723000Y-418141000I0J250000D01*
G01*
X408723000Y-417641000D01*
G75*
G02*
X408973000Y-417391000I250000J0D01*
G01*
X409923000Y-417391000D01*
G75*
G02*
X410173000Y-417641000I0J-250000D01*
G01*
X410173000Y-418141000D01*
G75*
G02*
X409923000Y-418391000I-250000J0D01*
G01*
G37*
G36*
G01*
X409923000Y-416491000D02*
X408973000Y-416491000D01*
G75*
G02*
X408723000Y-416241000I0J250000D01*
G01*
X408723000Y-415741000D01*
G75*
G02*
X408973000Y-415491000I250000J0D01*
G01*
X409923000Y-415491000D01*
G75*
G02*
X410173000Y-415741000I0J-250000D01*
G01*
X410173000Y-416241000D01*
G75*
G02*
X409923000Y-416491000I-250000J0D01*
G01*
G37*
G36*
G01*
X380997000Y-401099000D02*
X380997000Y-402049000D01*
G75*
G02*
X380747000Y-402299000I-250000J0D01*
G01*
X380247000Y-402299000D01*
G75*
G02*
X379997000Y-402049000I0J250000D01*
G01*
X379997000Y-401099000D01*
G75*
G02*
X380247000Y-400849000I250000J0D01*
G01*
X380747000Y-400849000D01*
G75*
G02*
X380997000Y-401099000I0J-250000D01*
G01*
G37*
G36*
G01*
X382897000Y-401099000D02*
X382897000Y-402049000D01*
G75*
G02*
X382647000Y-402299000I-250000J0D01*
G01*
X382147000Y-402299000D01*
G75*
G02*
X381897000Y-402049000I0J250000D01*
G01*
X381897000Y-401099000D01*
G75*
G02*
X382147000Y-400849000I250000J0D01*
G01*
X382647000Y-400849000D01*
G75*
G02*
X382897000Y-401099000I0J-250000D01*
G01*
G37*
G36*
G01*
X363212000Y-403512000D02*
X363212000Y-404462000D01*
G75*
G02*
X362962000Y-404712000I-250000J0D01*
G01*
X362462000Y-404712000D01*
G75*
G02*
X362212000Y-404462000I0J250000D01*
G01*
X362212000Y-403512000D01*
G75*
G02*
X362462000Y-403262000I250000J0D01*
G01*
X362962000Y-403262000D01*
G75*
G02*
X363212000Y-403512000I0J-250000D01*
G01*
G37*
G36*
G01*
X365112000Y-403512000D02*
X365112000Y-404462000D01*
G75*
G02*
X364862000Y-404712000I-250000J0D01*
G01*
X364362000Y-404712000D01*
G75*
G02*
X364112000Y-404462000I0J250000D01*
G01*
X364112000Y-403512000D01*
G75*
G02*
X364362000Y-403262000I250000J0D01*
G01*
X364862000Y-403262000D01*
G75*
G02*
X365112000Y-403512000I0J-250000D01*
G01*
G37*
G36*
G01*
X360139000Y-385503000D02*
X359189000Y-385503000D01*
G75*
G02*
X358939000Y-385253000I0J250000D01*
G01*
X358939000Y-384753000D01*
G75*
G02*
X359189000Y-384503000I250000J0D01*
G01*
X360139000Y-384503000D01*
G75*
G02*
X360389000Y-384753000I0J-250000D01*
G01*
X360389000Y-385253000D01*
G75*
G02*
X360139000Y-385503000I-250000J0D01*
G01*
G37*
G36*
G01*
X360139000Y-387403000D02*
X359189000Y-387403000D01*
G75*
G02*
X358939000Y-387153000I0J250000D01*
G01*
X358939000Y-386653000D01*
G75*
G02*
X359189000Y-386403000I250000J0D01*
G01*
X360139000Y-386403000D01*
G75*
G02*
X360389000Y-386653000I0J-250000D01*
G01*
X360389000Y-387153000D01*
G75*
G02*
X360139000Y-387403000I-250000J0D01*
G01*
G37*
G36*
G01*
X360139000Y-399473000D02*
X359189000Y-399473000D01*
G75*
G02*
X358939000Y-399223000I0J250000D01*
G01*
X358939000Y-398723000D01*
G75*
G02*
X359189000Y-398473000I250000J0D01*
G01*
X360139000Y-398473000D01*
G75*
G02*
X360389000Y-398723000I0J-250000D01*
G01*
X360389000Y-399223000D01*
G75*
G02*
X360139000Y-399473000I-250000J0D01*
G01*
G37*
G36*
G01*
X360139000Y-401373000D02*
X359189000Y-401373000D01*
G75*
G02*
X358939000Y-401123000I0J250000D01*
G01*
X358939000Y-400623000D01*
G75*
G02*
X359189000Y-400373000I250000J0D01*
G01*
X360139000Y-400373000D01*
G75*
G02*
X360389000Y-400623000I0J-250000D01*
G01*
X360389000Y-401123000D01*
G75*
G02*
X360139000Y-401373000I-250000J0D01*
G01*
G37*
G36*
G01*
X407891000Y-416491000D02*
X406941000Y-416491000D01*
G75*
G02*
X406691000Y-416241000I0J250000D01*
G01*
X406691000Y-415741000D01*
G75*
G02*
X406941000Y-415491000I250000J0D01*
G01*
X407891000Y-415491000D01*
G75*
G02*
X408141000Y-415741000I0J-250000D01*
G01*
X408141000Y-416241000D01*
G75*
G02*
X407891000Y-416491000I-250000J0D01*
G01*
G37*
G36*
G01*
X407891000Y-418391000D02*
X406941000Y-418391000D01*
G75*
G02*
X406691000Y-418141000I0J250000D01*
G01*
X406691000Y-417641000D01*
G75*
G02*
X406941000Y-417391000I250000J0D01*
G01*
X407891000Y-417391000D01*
G75*
G02*
X408141000Y-417641000I0J-250000D01*
G01*
X408141000Y-418141000D01*
G75*
G02*
X407891000Y-418391000I-250000J0D01*
G01*
G37*
G36*
G01*
X405859000Y-416491000D02*
X404909000Y-416491000D01*
G75*
G02*
X404659000Y-416241000I0J250000D01*
G01*
X404659000Y-415741000D01*
G75*
G02*
X404909000Y-415491000I250000J0D01*
G01*
X405859000Y-415491000D01*
G75*
G02*
X406109000Y-415741000I0J-250000D01*
G01*
X406109000Y-416241000D01*
G75*
G02*
X405859000Y-416491000I-250000J0D01*
G01*
G37*
G36*
G01*
X405859000Y-418391000D02*
X404909000Y-418391000D01*
G75*
G02*
X404659000Y-418141000I0J250000D01*
G01*
X404659000Y-417641000D01*
G75*
G02*
X404909000Y-417391000I250000J0D01*
G01*
X405859000Y-417391000D01*
G75*
G02*
X406109000Y-417641000I0J-250000D01*
G01*
X406109000Y-418141000D01*
G75*
G02*
X405859000Y-418391000I-250000J0D01*
G01*
G37*
G36*
G01*
X358579000Y-393479000D02*
X358579000Y-394429000D01*
G75*
G02*
X358329000Y-394679000I-250000J0D01*
G01*
X357829000Y-394679000D01*
G75*
G02*
X357579000Y-394429000I0J250000D01*
G01*
X357579000Y-393479000D01*
G75*
G02*
X357829000Y-393229000I250000J0D01*
G01*
X358329000Y-393229000D01*
G75*
G02*
X358579000Y-393479000I0J-250000D01*
G01*
G37*
G36*
G01*
X360479000Y-393479000D02*
X360479000Y-394429000D01*
G75*
G02*
X360229000Y-394679000I-250000J0D01*
G01*
X359729000Y-394679000D01*
G75*
G02*
X359479000Y-394429000I0J250000D01*
G01*
X359479000Y-393479000D01*
G75*
G02*
X359729000Y-393229000I250000J0D01*
G01*
X360229000Y-393229000D01*
G75*
G02*
X360479000Y-393479000I0J-250000D01*
G01*
G37*
G36*
G01*
X396715000Y-416491000D02*
X395765000Y-416491000D01*
G75*
G02*
X395515000Y-416241000I0J250000D01*
G01*
X395515000Y-415741000D01*
G75*
G02*
X395765000Y-415491000I250000J0D01*
G01*
X396715000Y-415491000D01*
G75*
G02*
X396965000Y-415741000I0J-250000D01*
G01*
X396965000Y-416241000D01*
G75*
G02*
X396715000Y-416491000I-250000J0D01*
G01*
G37*
G36*
G01*
X396715000Y-418391000D02*
X395765000Y-418391000D01*
G75*
G02*
X395515000Y-418141000I0J250000D01*
G01*
X395515000Y-417641000D01*
G75*
G02*
X395765000Y-417391000I250000J0D01*
G01*
X396715000Y-417391000D01*
G75*
G02*
X396965000Y-417641000I0J-250000D01*
G01*
X396965000Y-418141000D01*
G75*
G02*
X396715000Y-418391000I-250000J0D01*
G01*
G37*
G36*
G01*
X398747000Y-416491000D02*
X397797000Y-416491000D01*
G75*
G02*
X397547000Y-416241000I0J250000D01*
G01*
X397547000Y-415741000D01*
G75*
G02*
X397797000Y-415491000I250000J0D01*
G01*
X398747000Y-415491000D01*
G75*
G02*
X398997000Y-415741000I0J-250000D01*
G01*
X398997000Y-416241000D01*
G75*
G02*
X398747000Y-416491000I-250000J0D01*
G01*
G37*
G36*
G01*
X398747000Y-418391000D02*
X397797000Y-418391000D01*
G75*
G02*
X397547000Y-418141000I0J250000D01*
G01*
X397547000Y-417641000D01*
G75*
G02*
X397797000Y-417391000I250000J0D01*
G01*
X398747000Y-417391000D01*
G75*
G02*
X398997000Y-417641000I0J-250000D01*
G01*
X398997000Y-418141000D01*
G75*
G02*
X398747000Y-418391000I-250000J0D01*
G01*
G37*
G36*
G01*
X392996000Y-415958000D02*
X392996000Y-416908000D01*
G75*
G02*
X392746000Y-417158000I-250000J0D01*
G01*
X392246000Y-417158000D01*
G75*
G02*
X391996000Y-416908000I0J250000D01*
G01*
X391996000Y-415958000D01*
G75*
G02*
X392246000Y-415708000I250000J0D01*
G01*
X392746000Y-415708000D01*
G75*
G02*
X392996000Y-415958000I0J-250000D01*
G01*
G37*
G36*
G01*
X394896000Y-415958000D02*
X394896000Y-416908000D01*
G75*
G02*
X394646000Y-417158000I-250000J0D01*
G01*
X394146000Y-417158000D01*
G75*
G02*
X393896000Y-416908000I0J250000D01*
G01*
X393896000Y-415958000D01*
G75*
G02*
X394146000Y-415708000I250000J0D01*
G01*
X394646000Y-415708000D01*
G75*
G02*
X394896000Y-415958000I0J-250000D01*
G01*
G37*
G36*
G01*
X389440000Y-415958000D02*
X389440000Y-416908000D01*
G75*
G02*
X389190000Y-417158000I-250000J0D01*
G01*
X388690000Y-417158000D01*
G75*
G02*
X388440000Y-416908000I0J250000D01*
G01*
X388440000Y-415958000D01*
G75*
G02*
X388690000Y-415708000I250000J0D01*
G01*
X389190000Y-415708000D01*
G75*
G02*
X389440000Y-415958000I0J-250000D01*
G01*
G37*
G36*
G01*
X391340000Y-415958000D02*
X391340000Y-416908000D01*
G75*
G02*
X391090000Y-417158000I-250000J0D01*
G01*
X390590000Y-417158000D01*
G75*
G02*
X390340000Y-416908000I0J250000D01*
G01*
X390340000Y-415958000D01*
G75*
G02*
X390590000Y-415708000I250000J0D01*
G01*
X391090000Y-415708000D01*
G75*
G02*
X391340000Y-415958000I0J-250000D01*
G01*
G37*
D16*
G36*
X399770732Y-413131000D02*
G01*
X399771000Y-413132000D01*
X399771000Y-414132000D01*
X399770000Y-414133732D01*
X399769000Y-414134000D01*
X399569000Y-414134000D01*
X399567268Y-414133000D01*
X399567000Y-414132000D01*
X399567000Y-413132000D01*
X399568000Y-413130268D01*
X399569000Y-413130000D01*
X399769000Y-413130000D01*
X399770732Y-413131000D01*
G37*
G36*
X400270732Y-413131000D02*
G01*
X400271000Y-413132000D01*
X400271000Y-414132000D01*
X400270000Y-414133732D01*
X400269000Y-414134000D01*
X400069000Y-414134000D01*
X400067268Y-414133000D01*
X400067000Y-414132000D01*
X400067000Y-413132000D01*
X400068000Y-413130268D01*
X400069000Y-413130000D01*
X400269000Y-413130000D01*
X400270732Y-413131000D01*
G37*
G36*
X400770732Y-413131000D02*
G01*
X400771000Y-413132000D01*
X400771000Y-414132000D01*
X400770000Y-414133732D01*
X400769000Y-414134000D01*
X400569000Y-414134000D01*
X400567268Y-414133000D01*
X400567000Y-414132000D01*
X400567000Y-413132000D01*
X400568000Y-413130268D01*
X400569000Y-413130000D01*
X400769000Y-413130000D01*
X400770732Y-413131000D01*
G37*
G36*
X401270732Y-413131000D02*
G01*
X401271000Y-413132000D01*
X401271000Y-414132000D01*
X401270000Y-414133732D01*
X401269000Y-414134000D01*
X401069000Y-414134000D01*
X401067268Y-414133000D01*
X401067000Y-414132000D01*
X401067000Y-413132000D01*
X401068000Y-413130268D01*
X401069000Y-413130000D01*
X401269000Y-413130000D01*
X401270732Y-413131000D01*
G37*
G36*
X401770732Y-413131000D02*
G01*
X401771000Y-413132000D01*
X401771000Y-414132000D01*
X401770000Y-414133732D01*
X401769000Y-414134000D01*
X401569000Y-414134000D01*
X401567268Y-414133000D01*
X401567000Y-414132000D01*
X401567000Y-413132000D01*
X401568000Y-413130268D01*
X401569000Y-413130000D01*
X401769000Y-413130000D01*
X401770732Y-413131000D01*
G37*
G36*
X402270732Y-413131000D02*
G01*
X402271000Y-413132000D01*
X402271000Y-414132000D01*
X402270000Y-414133732D01*
X402269000Y-414134000D01*
X402069000Y-414134000D01*
X402067268Y-414133000D01*
X402067000Y-414132000D01*
X402067000Y-413132000D01*
X402068000Y-413130268D01*
X402069000Y-413130000D01*
X402269000Y-413130000D01*
X402270732Y-413131000D01*
G37*
G36*
X402770732Y-413131000D02*
G01*
X402771000Y-413132000D01*
X402771000Y-414132000D01*
X402770000Y-414133732D01*
X402769000Y-414134000D01*
X402569000Y-414134000D01*
X402567268Y-414133000D01*
X402567000Y-414132000D01*
X402567000Y-413132000D01*
X402568000Y-413130268D01*
X402569000Y-413130000D01*
X402769000Y-413130000D01*
X402770732Y-413131000D01*
G37*
G36*
X403270732Y-413131000D02*
G01*
X403271000Y-413132000D01*
X403271000Y-414132000D01*
X403270000Y-414133732D01*
X403269000Y-414134000D01*
X403069000Y-414134000D01*
X403067268Y-414133000D01*
X403067000Y-414132000D01*
X403067000Y-413132000D01*
X403068000Y-413130268D01*
X403069000Y-413130000D01*
X403269000Y-413130000D01*
X403270732Y-413131000D01*
G37*
G36*
X403770732Y-413131000D02*
G01*
X403771000Y-413132000D01*
X403771000Y-414132000D01*
X403770000Y-414133732D01*
X403769000Y-414134000D01*
X403569000Y-414134000D01*
X403567268Y-414133000D01*
X403567000Y-414132000D01*
X403567000Y-413132000D01*
X403568000Y-413130268D01*
X403569000Y-413130000D01*
X403769000Y-413130000D01*
X403770732Y-413131000D01*
G37*
G36*
X404270732Y-413131000D02*
G01*
X404271000Y-413132000D01*
X404271000Y-414132000D01*
X404270000Y-414133732D01*
X404269000Y-414134000D01*
X404069000Y-414134000D01*
X404067268Y-414133000D01*
X404067000Y-414132000D01*
X404067000Y-413132000D01*
X404068000Y-413130268D01*
X404069000Y-413130000D01*
X404269000Y-413130000D01*
X404270732Y-413131000D01*
G37*
G36*
X404770732Y-413131000D02*
G01*
X404771000Y-413132000D01*
X404771000Y-414132000D01*
X404770000Y-414133732D01*
X404769000Y-414134000D01*
X404569000Y-414134000D01*
X404567268Y-414133000D01*
X404567000Y-414132000D01*
X404567000Y-413132000D01*
X404568000Y-413130268D01*
X404569000Y-413130000D01*
X404769000Y-413130000D01*
X404770732Y-413131000D01*
G37*
G36*
X405270732Y-413131000D02*
G01*
X405271000Y-413132000D01*
X405271000Y-414132000D01*
X405270000Y-414133732D01*
X405269000Y-414134000D01*
X405069000Y-414134000D01*
X405067268Y-414133000D01*
X405067000Y-414132000D01*
X405067000Y-413132000D01*
X405068000Y-413130268D01*
X405069000Y-413130000D01*
X405269000Y-413130000D01*
X405270732Y-413131000D01*
G37*
G36*
X405770732Y-413131000D02*
G01*
X405771000Y-413132000D01*
X405771000Y-414132000D01*
X405770000Y-414133732D01*
X405769000Y-414134000D01*
X405569000Y-414134000D01*
X405567268Y-414133000D01*
X405567000Y-414132000D01*
X405567000Y-413132000D01*
X405568000Y-413130268D01*
X405569000Y-413130000D01*
X405769000Y-413130000D01*
X405770732Y-413131000D01*
G37*
G36*
X406770732Y-413131000D02*
G01*
X406771000Y-413132000D01*
X406771000Y-414132000D01*
X406770000Y-414133732D01*
X406769000Y-414134000D01*
X406569000Y-414134000D01*
X406567268Y-414133000D01*
X406567000Y-414132000D01*
X406567000Y-413132000D01*
X406568000Y-413130268D01*
X406569000Y-413130000D01*
X406769000Y-413130000D01*
X406770732Y-413131000D01*
G37*
G36*
X406270732Y-413131000D02*
G01*
X406271000Y-413132000D01*
X406271000Y-414132000D01*
X406270000Y-414133732D01*
X406269000Y-414134000D01*
X406069000Y-414134000D01*
X406067268Y-414133000D01*
X406067000Y-414132000D01*
X406067000Y-413132000D01*
X406068000Y-413130268D01*
X406069000Y-413130000D01*
X406269000Y-413130000D01*
X406270732Y-413131000D01*
G37*
G36*
X399270732Y-413131000D02*
G01*
X399271000Y-413132000D01*
X399271000Y-414132000D01*
X399270000Y-414133732D01*
X399269000Y-414134000D01*
X399069000Y-414134000D01*
X399067268Y-414133000D01*
X399067000Y-414132000D01*
X399067000Y-413132000D01*
X399068000Y-413130268D01*
X399069000Y-413130000D01*
X399269000Y-413130000D01*
X399270732Y-413131000D01*
G37*
G36*
X393770732Y-413131000D02*
G01*
X393771000Y-413132000D01*
X393771000Y-414132000D01*
X393770000Y-414133732D01*
X393769000Y-414134000D01*
X393569000Y-414134000D01*
X393567268Y-414133000D01*
X393567000Y-414132000D01*
X393567000Y-413132000D01*
X393568000Y-413130268D01*
X393569000Y-413130000D01*
X393769000Y-413130000D01*
X393770732Y-413131000D01*
G37*
G36*
X398770732Y-413131000D02*
G01*
X398771000Y-413132000D01*
X398771000Y-414132000D01*
X398770000Y-414133732D01*
X398769000Y-414134000D01*
X398569000Y-414134000D01*
X398567268Y-414133000D01*
X398567000Y-414132000D01*
X398567000Y-413132000D01*
X398568000Y-413130268D01*
X398569000Y-413130000D01*
X398769000Y-413130000D01*
X398770732Y-413131000D01*
G37*
G36*
X398270732Y-413131000D02*
G01*
X398271000Y-413132000D01*
X398271000Y-414132000D01*
X398270000Y-414133732D01*
X398269000Y-414134000D01*
X398069000Y-414134000D01*
X398067268Y-414133000D01*
X398067000Y-414132000D01*
X398067000Y-413132000D01*
X398068000Y-413130268D01*
X398069000Y-413130000D01*
X398269000Y-413130000D01*
X398270732Y-413131000D01*
G37*
G36*
X397770732Y-413131000D02*
G01*
X397771000Y-413132000D01*
X397771000Y-414132000D01*
X397770000Y-414133732D01*
X397769000Y-414134000D01*
X397569000Y-414134000D01*
X397567268Y-414133000D01*
X397567000Y-414132000D01*
X397567000Y-413132000D01*
X397568000Y-413130268D01*
X397569000Y-413130000D01*
X397769000Y-413130000D01*
X397770732Y-413131000D01*
G37*
G36*
X397270732Y-413131000D02*
G01*
X397271000Y-413132000D01*
X397271000Y-414132000D01*
X397270000Y-414133732D01*
X397269000Y-414134000D01*
X397069000Y-414134000D01*
X397067268Y-414133000D01*
X397067000Y-414132000D01*
X397067000Y-413132000D01*
X397068000Y-413130268D01*
X397069000Y-413130000D01*
X397269000Y-413130000D01*
X397270732Y-413131000D01*
G37*
G36*
X396770732Y-413131000D02*
G01*
X396771000Y-413132000D01*
X396771000Y-414132000D01*
X396770000Y-414133732D01*
X396769000Y-414134000D01*
X396569000Y-414134000D01*
X396567268Y-414133000D01*
X396567000Y-414132000D01*
X396567000Y-413132000D01*
X396568000Y-413130268D01*
X396569000Y-413130000D01*
X396769000Y-413130000D01*
X396770732Y-413131000D01*
G37*
G36*
X395770732Y-413131000D02*
G01*
X395771000Y-413132000D01*
X395771000Y-414132000D01*
X395770000Y-414133732D01*
X395769000Y-414134000D01*
X395569000Y-414134000D01*
X395567268Y-414133000D01*
X395567000Y-414132000D01*
X395567000Y-413132000D01*
X395568000Y-413130268D01*
X395569000Y-413130000D01*
X395769000Y-413130000D01*
X395770732Y-413131000D01*
G37*
G36*
X396270732Y-413131000D02*
G01*
X396271000Y-413132000D01*
X396271000Y-414132000D01*
X396270000Y-414133732D01*
X396269000Y-414134000D01*
X396069000Y-414134000D01*
X396067268Y-414133000D01*
X396067000Y-414132000D01*
X396067000Y-413132000D01*
X396068000Y-413130268D01*
X396069000Y-413130000D01*
X396269000Y-413130000D01*
X396270732Y-413131000D01*
G37*
G36*
X392770732Y-413131000D02*
G01*
X392771000Y-413132000D01*
X392771000Y-414132000D01*
X392770000Y-414133732D01*
X392769000Y-414134000D01*
X392569000Y-414134000D01*
X392567268Y-414133000D01*
X392567000Y-414132000D01*
X392567000Y-413132000D01*
X392568000Y-413130268D01*
X392569000Y-413130000D01*
X392769000Y-413130000D01*
X392770732Y-413131000D01*
G37*
G36*
X393270732Y-413131000D02*
G01*
X393271000Y-413132000D01*
X393271000Y-414132000D01*
X393270000Y-414133732D01*
X393269000Y-414134000D01*
X393069000Y-414134000D01*
X393067268Y-414133000D01*
X393067000Y-414132000D01*
X393067000Y-413132000D01*
X393068000Y-413130268D01*
X393069000Y-413130000D01*
X393269000Y-413130000D01*
X393270732Y-413131000D01*
G37*
G36*
X394270732Y-413131000D02*
G01*
X394271000Y-413132000D01*
X394271000Y-414132000D01*
X394270000Y-414133732D01*
X394269000Y-414134000D01*
X394069000Y-414134000D01*
X394067268Y-414133000D01*
X394067000Y-414132000D01*
X394067000Y-413132000D01*
X394068000Y-413130268D01*
X394069000Y-413130000D01*
X394269000Y-413130000D01*
X394270732Y-413131000D01*
G37*
G36*
X394770732Y-413131000D02*
G01*
X394771000Y-413132000D01*
X394771000Y-414132000D01*
X394770000Y-414133732D01*
X394769000Y-414134000D01*
X394569000Y-414134000D01*
X394567268Y-414133000D01*
X394567000Y-414132000D01*
X394567000Y-413132000D01*
X394568000Y-413130268D01*
X394569000Y-413130000D01*
X394769000Y-413130000D01*
X394770732Y-413131000D01*
G37*
G36*
X395270732Y-413131000D02*
G01*
X395271000Y-413132000D01*
X395271000Y-414132000D01*
X395270000Y-414133732D01*
X395269000Y-414134000D01*
X395069000Y-414134000D01*
X395067268Y-414133000D01*
X395067000Y-414132000D01*
X395067000Y-413132000D01*
X395068000Y-413130268D01*
X395069000Y-413130000D01*
X395269000Y-413130000D01*
X395270732Y-413131000D01*
G37*
G36*
X379191732Y-407942000D02*
G01*
X379192000Y-407943000D01*
X379192000Y-408143000D01*
X379191000Y-408144732D01*
X379190000Y-408145000D01*
X378340000Y-408145000D01*
X378338268Y-408144000D01*
X378338000Y-408143000D01*
X378338000Y-407943000D01*
X378339000Y-407941268D01*
X378340000Y-407941000D01*
X379190000Y-407941000D01*
X379191732Y-407942000D01*
G37*
G36*
X376041732Y-407942000D02*
G01*
X376042000Y-407943000D01*
X376042000Y-408143000D01*
X376041000Y-408144732D01*
X376040000Y-408145000D01*
X375190000Y-408145000D01*
X375188268Y-408144000D01*
X375188000Y-408143000D01*
X375188000Y-407943000D01*
X375189000Y-407941268D01*
X375190000Y-407941000D01*
X376040000Y-407941000D01*
X376041732Y-407942000D01*
G37*
G36*
X376041732Y-407442000D02*
G01*
X376042000Y-407443000D01*
X376042000Y-407643000D01*
X376041000Y-407644732D01*
X376040000Y-407645000D01*
X375190000Y-407645000D01*
X375188268Y-407644000D01*
X375188000Y-407643000D01*
X375188000Y-407443000D01*
X375189000Y-407441268D01*
X375190000Y-407441000D01*
X376040000Y-407441000D01*
X376041732Y-407442000D01*
G37*
G36*
X379191732Y-407442000D02*
G01*
X379192000Y-407443000D01*
X379192000Y-407643000D01*
X379191000Y-407644732D01*
X379190000Y-407645000D01*
X378340000Y-407645000D01*
X378338268Y-407644000D01*
X378338000Y-407643000D01*
X378338000Y-407443000D01*
X378339000Y-407441268D01*
X378340000Y-407441000D01*
X379190000Y-407441000D01*
X379191732Y-407442000D01*
G37*
G36*
X379191732Y-406942000D02*
G01*
X379192000Y-406943000D01*
X379192000Y-407143000D01*
X379191000Y-407144732D01*
X379190000Y-407145000D01*
X378340000Y-407145000D01*
X378338268Y-407144000D01*
X378338000Y-407143000D01*
X378338000Y-406943000D01*
X378339000Y-406941268D01*
X378340000Y-406941000D01*
X379190000Y-406941000D01*
X379191732Y-406942000D01*
G37*
G36*
X376041732Y-406942000D02*
G01*
X376042000Y-406943000D01*
X376042000Y-407143000D01*
X376041000Y-407144732D01*
X376040000Y-407145000D01*
X375190000Y-407145000D01*
X375188268Y-407144000D01*
X375188000Y-407143000D01*
X375188000Y-406943000D01*
X375189000Y-406941268D01*
X375190000Y-406941000D01*
X376040000Y-406941000D01*
X376041732Y-406942000D01*
G37*
G36*
X404612732Y-402406500D02*
G01*
X404613000Y-402407500D01*
X404613000Y-403882500D01*
X404612000Y-403884232D01*
X404611000Y-403884500D01*
X404411000Y-403884500D01*
X404409268Y-403883500D01*
X404409000Y-403882500D01*
X404409000Y-402407500D01*
X404410000Y-402405768D01*
X404411000Y-402405500D01*
X404611000Y-402405500D01*
X404612732Y-402406500D01*
G37*
G36*
X408112732Y-402406500D02*
G01*
X408113000Y-402407500D01*
X408113000Y-403882500D01*
X408112000Y-403884232D01*
X408111000Y-403884500D01*
X407911000Y-403884500D01*
X407909268Y-403883500D01*
X407909000Y-403882500D01*
X407909000Y-402407500D01*
X407910000Y-402405768D01*
X407911000Y-402405500D01*
X408111000Y-402405500D01*
X408112732Y-402406500D01*
G37*
G36*
X407112732Y-402406500D02*
G01*
X407113000Y-402407500D01*
X407113000Y-403882500D01*
X407112000Y-403884232D01*
X407111000Y-403884500D01*
X406911000Y-403884500D01*
X406909268Y-403883500D01*
X406909000Y-403882500D01*
X406909000Y-402407500D01*
X406910000Y-402405768D01*
X406911000Y-402405500D01*
X407111000Y-402405500D01*
X407112732Y-402406500D01*
G37*
G36*
X406612732Y-402406500D02*
G01*
X406613000Y-402407500D01*
X406613000Y-403882500D01*
X406612000Y-403884232D01*
X406611000Y-403884500D01*
X406411000Y-403884500D01*
X406409268Y-403883500D01*
X406409000Y-403882500D01*
X406409000Y-402407500D01*
X406410000Y-402405768D01*
X406411000Y-402405500D01*
X406611000Y-402405500D01*
X406612732Y-402406500D01*
G37*
G36*
X406112732Y-402406500D02*
G01*
X406113000Y-402407500D01*
X406113000Y-403882500D01*
X406112000Y-403884232D01*
X406111000Y-403884500D01*
X405911000Y-403884500D01*
X405909268Y-403883500D01*
X405909000Y-403882500D01*
X405909000Y-402407500D01*
X405910000Y-402405768D01*
X405911000Y-402405500D01*
X406111000Y-402405500D01*
X406112732Y-402406500D01*
G37*
G36*
X405612732Y-402406500D02*
G01*
X405613000Y-402407500D01*
X405613000Y-403882500D01*
X405612000Y-403884232D01*
X405611000Y-403884500D01*
X405411000Y-403884500D01*
X405409268Y-403883500D01*
X405409000Y-403882500D01*
X405409000Y-402407500D01*
X405410000Y-402405768D01*
X405411000Y-402405500D01*
X405611000Y-402405500D01*
X405612732Y-402406500D01*
G37*
G36*
X405112732Y-402406500D02*
G01*
X405113000Y-402407500D01*
X405113000Y-403882500D01*
X405112000Y-403884232D01*
X405111000Y-403884500D01*
X404911000Y-403884500D01*
X404909268Y-403883500D01*
X404909000Y-403882500D01*
X404909000Y-402407500D01*
X404910000Y-402405768D01*
X404911000Y-402405500D01*
X405111000Y-402405500D01*
X405112732Y-402406500D01*
G37*
G36*
X404112732Y-402406500D02*
G01*
X404113000Y-402407500D01*
X404113000Y-403882500D01*
X404112000Y-403884232D01*
X404111000Y-403884500D01*
X403911000Y-403884500D01*
X403909268Y-403883500D01*
X403909000Y-403882500D01*
X403909000Y-402407500D01*
X403910000Y-402405768D01*
X403911000Y-402405500D01*
X404111000Y-402405500D01*
X404112732Y-402406500D01*
G37*
G36*
X403612732Y-402406500D02*
G01*
X403613000Y-402407500D01*
X403613000Y-403882500D01*
X403612000Y-403884232D01*
X403611000Y-403884500D01*
X403411000Y-403884500D01*
X403409268Y-403883500D01*
X403409000Y-403882500D01*
X403409000Y-402407500D01*
X403410000Y-402405768D01*
X403411000Y-402405500D01*
X403611000Y-402405500D01*
X403612732Y-402406500D01*
G37*
G36*
X407612732Y-402406500D02*
G01*
X407613000Y-402407500D01*
X407613000Y-403882500D01*
X407612000Y-403884232D01*
X407611000Y-403884500D01*
X407411000Y-403884500D01*
X407409268Y-403883500D01*
X407409000Y-403882500D01*
X407409000Y-402407500D01*
X407410000Y-402405768D01*
X407411000Y-402405500D01*
X407611000Y-402405500D01*
X407612732Y-402406500D01*
G37*
G36*
X403112732Y-402406500D02*
G01*
X403113000Y-402407500D01*
X403113000Y-403882500D01*
X403112000Y-403884232D01*
X403111000Y-403884500D01*
X402911000Y-403884500D01*
X402909268Y-403883500D01*
X402909000Y-403882500D01*
X402909000Y-402407500D01*
X402910000Y-402405768D01*
X402911000Y-402405500D01*
X403111000Y-402405500D01*
X403112732Y-402406500D01*
G37*
G36*
X402012232Y-401306000D02*
G01*
X402012500Y-401307000D01*
X402012500Y-401507000D01*
X402011500Y-401508732D01*
X402010500Y-401509000D01*
X400535500Y-401509000D01*
X400533768Y-401508000D01*
X400533500Y-401507000D01*
X400533500Y-401307000D01*
X400534500Y-401305268D01*
X400535500Y-401305000D01*
X402010500Y-401305000D01*
X402012232Y-401306000D01*
G37*
G36*
X410488232Y-401306000D02*
G01*
X410488500Y-401307000D01*
X410488500Y-401507000D01*
X410487500Y-401508732D01*
X410486500Y-401509000D01*
X409011500Y-401509000D01*
X409009768Y-401508000D01*
X409009500Y-401507000D01*
X409009500Y-401307000D01*
X409010500Y-401305268D01*
X409011500Y-401305000D01*
X410486500Y-401305000D01*
X410488232Y-401306000D01*
G37*
G36*
X367582982Y-399905750D02*
G01*
X367583250Y-399906750D01*
X367583250Y-401381750D01*
X367582250Y-401383482D01*
X367581250Y-401383750D01*
X367381250Y-401383750D01*
X367379518Y-401382750D01*
X367379250Y-401381750D01*
X367379250Y-399906750D01*
X367380250Y-399905018D01*
X367381250Y-399904750D01*
X367581250Y-399904750D01*
X367582982Y-399905750D01*
G37*
G36*
X368382982Y-399905750D02*
G01*
X368383250Y-399906750D01*
X368383250Y-401381750D01*
X368382250Y-401383482D01*
X368381250Y-401383750D01*
X368181250Y-401383750D01*
X368179518Y-401382750D01*
X368179250Y-401381750D01*
X368179250Y-399906750D01*
X368180250Y-399905018D01*
X368181250Y-399904750D01*
X368381250Y-399904750D01*
X368382982Y-399905750D01*
G37*
G36*
X369182982Y-399905750D02*
G01*
X369183250Y-399906750D01*
X369183250Y-401381750D01*
X369182250Y-401383482D01*
X369181250Y-401383750D01*
X368981250Y-401383750D01*
X368979518Y-401382750D01*
X368979250Y-401381750D01*
X368979250Y-399906750D01*
X368980250Y-399905018D01*
X368981250Y-399904750D01*
X369181250Y-399904750D01*
X369182982Y-399905750D01*
G37*
G36*
X369982982Y-399905750D02*
G01*
X369983250Y-399906750D01*
X369983250Y-401381750D01*
X369982250Y-401383482D01*
X369981250Y-401383750D01*
X369781250Y-401383750D01*
X369779518Y-401382750D01*
X369779250Y-401381750D01*
X369779250Y-399906750D01*
X369780250Y-399905018D01*
X369781250Y-399904750D01*
X369981250Y-399904750D01*
X369982982Y-399905750D01*
G37*
G36*
X370782982Y-399905750D02*
G01*
X370783250Y-399906750D01*
X370783250Y-401381750D01*
X370782250Y-401383482D01*
X370781250Y-401383750D01*
X370581250Y-401383750D01*
X370579518Y-401382750D01*
X370579250Y-401381750D01*
X370579250Y-399906750D01*
X370580250Y-399905018D01*
X370581250Y-399904750D01*
X370781250Y-399904750D01*
X370782982Y-399905750D01*
G37*
G36*
X371582982Y-399905750D02*
G01*
X371583250Y-399906750D01*
X371583250Y-401381750D01*
X371582250Y-401383482D01*
X371581250Y-401383750D01*
X371381250Y-401383750D01*
X371379518Y-401382750D01*
X371379250Y-401381750D01*
X371379250Y-399906750D01*
X371380250Y-399905018D01*
X371381250Y-399904750D01*
X371581250Y-399904750D01*
X371582982Y-399905750D01*
G37*
G36*
X373182982Y-399905750D02*
G01*
X373183250Y-399906750D01*
X373183250Y-401381750D01*
X373182250Y-401383482D01*
X373181250Y-401383750D01*
X372981250Y-401383750D01*
X372979518Y-401382750D01*
X372979250Y-401381750D01*
X372979250Y-399906750D01*
X372980250Y-399905018D01*
X372981250Y-399904750D01*
X373181250Y-399904750D01*
X373182982Y-399905750D01*
G37*
G36*
X366782982Y-399905750D02*
G01*
X366783250Y-399906750D01*
X366783250Y-401381750D01*
X366782250Y-401383482D01*
X366781250Y-401383750D01*
X366581250Y-401383750D01*
X366579518Y-401382750D01*
X366579250Y-401381750D01*
X366579250Y-399906750D01*
X366580250Y-399905018D01*
X366581250Y-399904750D01*
X366781250Y-399904750D01*
X366782982Y-399905750D01*
G37*
G36*
X365982982Y-399905750D02*
G01*
X365983250Y-399906750D01*
X365983250Y-401381750D01*
X365982250Y-401383482D01*
X365981250Y-401383750D01*
X365781250Y-401383750D01*
X365779518Y-401382750D01*
X365779250Y-401381750D01*
X365779250Y-399906750D01*
X365780250Y-399905018D01*
X365781250Y-399904750D01*
X365981250Y-399904750D01*
X365982982Y-399905750D01*
G37*
G36*
X376382982Y-399905750D02*
G01*
X376383250Y-399906750D01*
X376383250Y-401381750D01*
X376382250Y-401383482D01*
X376381250Y-401383750D01*
X376181250Y-401383750D01*
X376179518Y-401382750D01*
X376179250Y-401381750D01*
X376179250Y-399906750D01*
X376180250Y-399905018D01*
X376181250Y-399904750D01*
X376381250Y-399904750D01*
X376382982Y-399905750D01*
G37*
G36*
X375582982Y-399905750D02*
G01*
X375583250Y-399906750D01*
X375583250Y-401381750D01*
X375582250Y-401383482D01*
X375581250Y-401383750D01*
X375381250Y-401383750D01*
X375379518Y-401382750D01*
X375379250Y-401381750D01*
X375379250Y-399906750D01*
X375380250Y-399905018D01*
X375381250Y-399904750D01*
X375581250Y-399904750D01*
X375582982Y-399905750D01*
G37*
G36*
X374782982Y-399905750D02*
G01*
X374783250Y-399906750D01*
X374783250Y-401381750D01*
X374782250Y-401383482D01*
X374781250Y-401383750D01*
X374581250Y-401383750D01*
X374579518Y-401382750D01*
X374579250Y-401381750D01*
X374579250Y-399906750D01*
X374580250Y-399905018D01*
X374581250Y-399904750D01*
X374781250Y-399904750D01*
X374782982Y-399905750D01*
G37*
G36*
X372382982Y-399905750D02*
G01*
X372383250Y-399906750D01*
X372383250Y-401381750D01*
X372382250Y-401383482D01*
X372381250Y-401383750D01*
X372181250Y-401383750D01*
X372179518Y-401382750D01*
X372179250Y-401381750D01*
X372179250Y-399906750D01*
X372180250Y-399905018D01*
X372181250Y-399904750D01*
X372381250Y-399904750D01*
X372382982Y-399905750D01*
G37*
G36*
X373982982Y-399905750D02*
G01*
X373983250Y-399906750D01*
X373983250Y-401381750D01*
X373982250Y-401383482D01*
X373981250Y-401383750D01*
X373781250Y-401383750D01*
X373779518Y-401382750D01*
X373779250Y-401381750D01*
X373779250Y-399906750D01*
X373780250Y-399905018D01*
X373781250Y-399904750D01*
X373981250Y-399904750D01*
X373982982Y-399905750D01*
G37*
G36*
X365182982Y-399905750D02*
G01*
X365183250Y-399906750D01*
X365183250Y-401381750D01*
X365182250Y-401383482D01*
X365181250Y-401383750D01*
X364981250Y-401383750D01*
X364979518Y-401382750D01*
X364979250Y-401381750D01*
X364979250Y-399906750D01*
X364980250Y-399905018D01*
X364981250Y-399904750D01*
X365181250Y-399904750D01*
X365182982Y-399905750D01*
G37*
G36*
X402012232Y-400806000D02*
G01*
X402012500Y-400807000D01*
X402012500Y-401007000D01*
X402011500Y-401008732D01*
X402010500Y-401009000D01*
X400535500Y-401009000D01*
X400533768Y-401008000D01*
X400533500Y-401007000D01*
X400533500Y-400807000D01*
X400534500Y-400805268D01*
X400535500Y-400805000D01*
X402010500Y-400805000D01*
X402012232Y-400806000D01*
G37*
G36*
X410488232Y-400806000D02*
G01*
X410488500Y-400807000D01*
X410488500Y-401007000D01*
X410487500Y-401008732D01*
X410486500Y-401009000D01*
X409011500Y-401009000D01*
X409009768Y-401008000D01*
X409009500Y-401007000D01*
X409009500Y-400807000D01*
X409010500Y-400805268D01*
X409011500Y-400805000D01*
X410486500Y-400805000D01*
X410488232Y-400806000D01*
G37*
G36*
X410488232Y-400306000D02*
G01*
X410488500Y-400307000D01*
X410488500Y-400507000D01*
X410487500Y-400508732D01*
X410486500Y-400509000D01*
X409011500Y-400509000D01*
X409009768Y-400508000D01*
X409009500Y-400507000D01*
X409009500Y-400307000D01*
X409010500Y-400305268D01*
X409011500Y-400305000D01*
X410486500Y-400305000D01*
X410488232Y-400306000D01*
G37*
G36*
X402012232Y-400306000D02*
G01*
X402012500Y-400307000D01*
X402012500Y-400507000D01*
X402011500Y-400508732D01*
X402010500Y-400509000D01*
X400535500Y-400509000D01*
X400533768Y-400508000D01*
X400533500Y-400507000D01*
X400533500Y-400307000D01*
X400534500Y-400305268D01*
X400535500Y-400305000D01*
X402010500Y-400305000D01*
X402012232Y-400306000D01*
G37*
G36*
X410488232Y-399806000D02*
G01*
X410488500Y-399807000D01*
X410488500Y-400007000D01*
X410487500Y-400008732D01*
X410486500Y-400009000D01*
X409011500Y-400009000D01*
X409009768Y-400008000D01*
X409009500Y-400007000D01*
X409009500Y-399807000D01*
X409010500Y-399805268D01*
X409011500Y-399805000D01*
X410486500Y-399805000D01*
X410488232Y-399806000D01*
G37*
G36*
X402012232Y-399806000D02*
G01*
X402012500Y-399807000D01*
X402012500Y-400007000D01*
X402011500Y-400008732D01*
X402010500Y-400009000D01*
X400535500Y-400009000D01*
X400533768Y-400008000D01*
X400533500Y-400007000D01*
X400533500Y-399807000D01*
X400534500Y-399805268D01*
X400535500Y-399805000D01*
X402010500Y-399805000D01*
X402012232Y-399806000D01*
G37*
G36*
X410488232Y-399306000D02*
G01*
X410488500Y-399307000D01*
X410488500Y-399507000D01*
X410487500Y-399508732D01*
X410486500Y-399509000D01*
X409011500Y-399509000D01*
X409009768Y-399508000D01*
X409009500Y-399507000D01*
X409009500Y-399307000D01*
X409010500Y-399305268D01*
X409011500Y-399305000D01*
X410486500Y-399305000D01*
X410488232Y-399306000D01*
G37*
G36*
X402012232Y-399306000D02*
G01*
X402012500Y-399307000D01*
X402012500Y-399507000D01*
X402011500Y-399508732D01*
X402010500Y-399509000D01*
X400535500Y-399509000D01*
X400533768Y-399508000D01*
X400533500Y-399507000D01*
X400533500Y-399307000D01*
X400534500Y-399305268D01*
X400535500Y-399305000D01*
X402010500Y-399305000D01*
X402012232Y-399306000D01*
G37*
G36*
X402012232Y-398806000D02*
G01*
X402012500Y-398807000D01*
X402012500Y-399007000D01*
X402011500Y-399008732D01*
X402010500Y-399009000D01*
X400535500Y-399009000D01*
X400533768Y-399008000D01*
X400533500Y-399007000D01*
X400533500Y-398807000D01*
X400534500Y-398805268D01*
X400535500Y-398805000D01*
X402010500Y-398805000D01*
X402012232Y-398806000D01*
G37*
G36*
X410488232Y-398806000D02*
G01*
X410488500Y-398807000D01*
X410488500Y-399007000D01*
X410487500Y-399008732D01*
X410486500Y-399009000D01*
X409011500Y-399009000D01*
X409009768Y-399008000D01*
X409009500Y-399007000D01*
X409009500Y-398807000D01*
X409010500Y-398805268D01*
X409011500Y-398805000D01*
X410486500Y-398805000D01*
X410488232Y-398806000D01*
G37*
G36*
X363682482Y-398405250D02*
G01*
X363682750Y-398406250D01*
X363682750Y-398606250D01*
X363681750Y-398607982D01*
X363680750Y-398608250D01*
X362205750Y-398608250D01*
X362204018Y-398607250D01*
X362203750Y-398606250D01*
X362203750Y-398406250D01*
X362204750Y-398404518D01*
X362205750Y-398404250D01*
X363680750Y-398404250D01*
X363682482Y-398405250D01*
G37*
G36*
X379158482Y-398405250D02*
G01*
X379158750Y-398406250D01*
X379158750Y-398606250D01*
X379157750Y-398607982D01*
X379156750Y-398608250D01*
X377681750Y-398608250D01*
X377680018Y-398607250D01*
X377679750Y-398606250D01*
X377679750Y-398406250D01*
X377680750Y-398404518D01*
X377681750Y-398404250D01*
X379156750Y-398404250D01*
X379158482Y-398405250D01*
G37*
G36*
X402012232Y-398306000D02*
G01*
X402012500Y-398307000D01*
X402012500Y-398507000D01*
X402011500Y-398508732D01*
X402010500Y-398509000D01*
X400535500Y-398509000D01*
X400533768Y-398508000D01*
X400533500Y-398507000D01*
X400533500Y-398307000D01*
X400534500Y-398305268D01*
X400535500Y-398305000D01*
X402010500Y-398305000D01*
X402012232Y-398306000D01*
G37*
G36*
X410488232Y-398306000D02*
G01*
X410488500Y-398307000D01*
X410488500Y-398507000D01*
X410487500Y-398508732D01*
X410486500Y-398509000D01*
X409011500Y-398509000D01*
X409009768Y-398508000D01*
X409009500Y-398507000D01*
X409009500Y-398307000D01*
X409010500Y-398305268D01*
X409011500Y-398305000D01*
X410486500Y-398305000D01*
X410488232Y-398306000D01*
G37*
G36*
X410488232Y-397806000D02*
G01*
X410488500Y-397807000D01*
X410488500Y-398007000D01*
X410487500Y-398008732D01*
X410486500Y-398009000D01*
X409011500Y-398009000D01*
X409009768Y-398008000D01*
X409009500Y-398007000D01*
X409009500Y-397807000D01*
X409010500Y-397805268D01*
X409011500Y-397805000D01*
X410486500Y-397805000D01*
X410488232Y-397806000D01*
G37*
G36*
X402012232Y-397806000D02*
G01*
X402012500Y-397807000D01*
X402012500Y-398007000D01*
X402011500Y-398008732D01*
X402010500Y-398009000D01*
X400535500Y-398009000D01*
X400533768Y-398008000D01*
X400533500Y-398007000D01*
X400533500Y-397807000D01*
X400534500Y-397805268D01*
X400535500Y-397805000D01*
X402010500Y-397805000D01*
X402012232Y-397806000D01*
G37*
G36*
X379158482Y-397605250D02*
G01*
X379158750Y-397606250D01*
X379158750Y-397806250D01*
X379157750Y-397807982D01*
X379156750Y-397808250D01*
X377681750Y-397808250D01*
X377680018Y-397807250D01*
X377679750Y-397806250D01*
X377679750Y-397606250D01*
X377680750Y-397604518D01*
X377681750Y-397604250D01*
X379156750Y-397604250D01*
X379158482Y-397605250D01*
G37*
G36*
X363682482Y-397605250D02*
G01*
X363682750Y-397606250D01*
X363682750Y-397806250D01*
X363681750Y-397807982D01*
X363680750Y-397808250D01*
X362205750Y-397808250D01*
X362204018Y-397807250D01*
X362203750Y-397806250D01*
X362203750Y-397606250D01*
X362204750Y-397604518D01*
X362205750Y-397604250D01*
X363680750Y-397604250D01*
X363682482Y-397605250D01*
G37*
G36*
X402012232Y-397306000D02*
G01*
X402012500Y-397307000D01*
X402012500Y-397507000D01*
X402011500Y-397508732D01*
X402010500Y-397509000D01*
X400535500Y-397509000D01*
X400533768Y-397508000D01*
X400533500Y-397507000D01*
X400533500Y-397307000D01*
X400534500Y-397305268D01*
X400535500Y-397305000D01*
X402010500Y-397305000D01*
X402012232Y-397306000D01*
G37*
G36*
X410488232Y-397306000D02*
G01*
X410488500Y-397307000D01*
X410488500Y-397507000D01*
X410487500Y-397508732D01*
X410486500Y-397509000D01*
X409011500Y-397509000D01*
X409009768Y-397508000D01*
X409009500Y-397507000D01*
X409009500Y-397307000D01*
X409010500Y-397305268D01*
X409011500Y-397305000D01*
X410486500Y-397305000D01*
X410488232Y-397306000D01*
G37*
G36*
X410488232Y-396806000D02*
G01*
X410488500Y-396807000D01*
X410488500Y-397007000D01*
X410487500Y-397008732D01*
X410486500Y-397009000D01*
X409011500Y-397009000D01*
X409009768Y-397008000D01*
X409009500Y-397007000D01*
X409009500Y-396807000D01*
X409010500Y-396805268D01*
X409011500Y-396805000D01*
X410486500Y-396805000D01*
X410488232Y-396806000D01*
G37*
G36*
X402012232Y-396806000D02*
G01*
X402012500Y-396807000D01*
X402012500Y-397007000D01*
X402011500Y-397008732D01*
X402010500Y-397009000D01*
X400535500Y-397009000D01*
X400533768Y-397008000D01*
X400533500Y-397007000D01*
X400533500Y-396807000D01*
X400534500Y-396805268D01*
X400535500Y-396805000D01*
X402010500Y-396805000D01*
X402012232Y-396806000D01*
G37*
G36*
X363682482Y-396805250D02*
G01*
X363682750Y-396806250D01*
X363682750Y-397006250D01*
X363681750Y-397007982D01*
X363680750Y-397008250D01*
X362205750Y-397008250D01*
X362204018Y-397007250D01*
X362203750Y-397006250D01*
X362203750Y-396806250D01*
X362204750Y-396804518D01*
X362205750Y-396804250D01*
X363680750Y-396804250D01*
X363682482Y-396805250D01*
G37*
G36*
X379158482Y-396805250D02*
G01*
X379158750Y-396806250D01*
X379158750Y-397006250D01*
X379157750Y-397007982D01*
X379156750Y-397008250D01*
X377681750Y-397008250D01*
X377680018Y-397007250D01*
X377679750Y-397006250D01*
X377679750Y-396806250D01*
X377680750Y-396804518D01*
X377681750Y-396804250D01*
X379156750Y-396804250D01*
X379158482Y-396805250D01*
G37*
G36*
X410488232Y-396306000D02*
G01*
X410488500Y-396307000D01*
X410488500Y-396507000D01*
X410487500Y-396508732D01*
X410486500Y-396509000D01*
X409011500Y-396509000D01*
X409009768Y-396508000D01*
X409009500Y-396507000D01*
X409009500Y-396307000D01*
X409010500Y-396305268D01*
X409011500Y-396305000D01*
X410486500Y-396305000D01*
X410488232Y-396306000D01*
G37*
G36*
X402012232Y-396306000D02*
G01*
X402012500Y-396307000D01*
X402012500Y-396507000D01*
X402011500Y-396508732D01*
X402010500Y-396509000D01*
X400535500Y-396509000D01*
X400533768Y-396508000D01*
X400533500Y-396507000D01*
X400533500Y-396307000D01*
X400534500Y-396305268D01*
X400535500Y-396305000D01*
X402010500Y-396305000D01*
X402012232Y-396306000D01*
G37*
G36*
X379158482Y-396005250D02*
G01*
X379158750Y-396006250D01*
X379158750Y-396206250D01*
X379157750Y-396207982D01*
X379156750Y-396208250D01*
X377681750Y-396208250D01*
X377680018Y-396207250D01*
X377679750Y-396206250D01*
X377679750Y-396006250D01*
X377680750Y-396004518D01*
X377681750Y-396004250D01*
X379156750Y-396004250D01*
X379158482Y-396005250D01*
G37*
G36*
X363682482Y-396005250D02*
G01*
X363682750Y-396006250D01*
X363682750Y-396206250D01*
X363681750Y-396207982D01*
X363680750Y-396208250D01*
X362205750Y-396208250D01*
X362204018Y-396207250D01*
X362203750Y-396206250D01*
X362203750Y-396006250D01*
X362204750Y-396004518D01*
X362205750Y-396004250D01*
X363680750Y-396004250D01*
X363682482Y-396005250D01*
G37*
G36*
X406612732Y-393930500D02*
G01*
X406613000Y-393931500D01*
X406613000Y-395406500D01*
X406612000Y-395408232D01*
X406611000Y-395408500D01*
X406411000Y-395408500D01*
X406409268Y-395407500D01*
X406409000Y-395406500D01*
X406409000Y-393931500D01*
X406410000Y-393929768D01*
X406411000Y-393929500D01*
X406611000Y-393929500D01*
X406612732Y-393930500D01*
G37*
G36*
X405112732Y-393930500D02*
G01*
X405113000Y-393931500D01*
X405113000Y-395406500D01*
X405112000Y-395408232D01*
X405111000Y-395408500D01*
X404911000Y-395408500D01*
X404909268Y-395407500D01*
X404909000Y-395406500D01*
X404909000Y-393931500D01*
X404910000Y-393929768D01*
X404911000Y-393929500D01*
X405111000Y-393929500D01*
X405112732Y-393930500D01*
G37*
G36*
X403612732Y-393930500D02*
G01*
X403613000Y-393931500D01*
X403613000Y-395406500D01*
X403612000Y-395408232D01*
X403611000Y-395408500D01*
X403411000Y-395408500D01*
X403409268Y-395407500D01*
X403409000Y-395406500D01*
X403409000Y-393931500D01*
X403410000Y-393929768D01*
X403411000Y-393929500D01*
X403611000Y-393929500D01*
X403612732Y-393930500D01*
G37*
G36*
X407112732Y-393930500D02*
G01*
X407113000Y-393931500D01*
X407113000Y-395406500D01*
X407112000Y-395408232D01*
X407111000Y-395408500D01*
X406911000Y-395408500D01*
X406909268Y-395407500D01*
X406909000Y-395406500D01*
X406909000Y-393931500D01*
X406910000Y-393929768D01*
X406911000Y-393929500D01*
X407111000Y-393929500D01*
X407112732Y-393930500D01*
G37*
G36*
X407612732Y-393930500D02*
G01*
X407613000Y-393931500D01*
X407613000Y-395406500D01*
X407612000Y-395408232D01*
X407611000Y-395408500D01*
X407411000Y-395408500D01*
X407409268Y-395407500D01*
X407409000Y-395406500D01*
X407409000Y-393931500D01*
X407410000Y-393929768D01*
X407411000Y-393929500D01*
X407611000Y-393929500D01*
X407612732Y-393930500D01*
G37*
G36*
X404112732Y-393930500D02*
G01*
X404113000Y-393931500D01*
X404113000Y-395406500D01*
X404112000Y-395408232D01*
X404111000Y-395408500D01*
X403911000Y-395408500D01*
X403909268Y-395407500D01*
X403909000Y-395406500D01*
X403909000Y-393931500D01*
X403910000Y-393929768D01*
X403911000Y-393929500D01*
X404111000Y-393929500D01*
X404112732Y-393930500D01*
G37*
G36*
X403112732Y-393930500D02*
G01*
X403113000Y-393931500D01*
X403113000Y-395406500D01*
X403112000Y-395408232D01*
X403111000Y-395408500D01*
X402911000Y-395408500D01*
X402909268Y-395407500D01*
X402909000Y-395406500D01*
X402909000Y-393931500D01*
X402910000Y-393929768D01*
X402911000Y-393929500D01*
X403111000Y-393929500D01*
X403112732Y-393930500D01*
G37*
G36*
X404612732Y-393930500D02*
G01*
X404613000Y-393931500D01*
X404613000Y-395406500D01*
X404612000Y-395408232D01*
X404611000Y-395408500D01*
X404411000Y-395408500D01*
X404409268Y-395407500D01*
X404409000Y-395406500D01*
X404409000Y-393931500D01*
X404410000Y-393929768D01*
X404411000Y-393929500D01*
X404611000Y-393929500D01*
X404612732Y-393930500D01*
G37*
G36*
X408112732Y-393930500D02*
G01*
X408113000Y-393931500D01*
X408113000Y-395406500D01*
X408112000Y-395408232D01*
X408111000Y-395408500D01*
X407911000Y-395408500D01*
X407909268Y-395407500D01*
X407909000Y-395406500D01*
X407909000Y-393931500D01*
X407910000Y-393929768D01*
X407911000Y-393929500D01*
X408111000Y-393929500D01*
X408112732Y-393930500D01*
G37*
G36*
X405612732Y-393930500D02*
G01*
X405613000Y-393931500D01*
X405613000Y-395406500D01*
X405612000Y-395408232D01*
X405611000Y-395408500D01*
X405411000Y-395408500D01*
X405409268Y-395407500D01*
X405409000Y-395406500D01*
X405409000Y-393931500D01*
X405410000Y-393929768D01*
X405411000Y-393929500D01*
X405611000Y-393929500D01*
X405612732Y-393930500D01*
G37*
G36*
X406112732Y-393930500D02*
G01*
X406113000Y-393931500D01*
X406113000Y-395406500D01*
X406112000Y-395408232D01*
X406111000Y-395408500D01*
X405911000Y-395408500D01*
X405909268Y-395407500D01*
X405909000Y-395406500D01*
X405909000Y-393931500D01*
X405910000Y-393929768D01*
X405911000Y-393929500D01*
X406111000Y-393929500D01*
X406112732Y-393930500D01*
G37*
G36*
X379158482Y-395205250D02*
G01*
X379158750Y-395206250D01*
X379158750Y-395406250D01*
X379157750Y-395407982D01*
X379156750Y-395408250D01*
X377681750Y-395408250D01*
X377680018Y-395407250D01*
X377679750Y-395406250D01*
X377679750Y-395206250D01*
X377680750Y-395204518D01*
X377681750Y-395204250D01*
X379156750Y-395204250D01*
X379158482Y-395205250D01*
G37*
G36*
X363682482Y-395205250D02*
G01*
X363682750Y-395206250D01*
X363682750Y-395406250D01*
X363681750Y-395407982D01*
X363680750Y-395408250D01*
X362205750Y-395408250D01*
X362204018Y-395407250D01*
X362203750Y-395406250D01*
X362203750Y-395206250D01*
X362204750Y-395204518D01*
X362205750Y-395204250D01*
X363680750Y-395204250D01*
X363682482Y-395205250D01*
G37*
G36*
X379158482Y-394405250D02*
G01*
X379158750Y-394406250D01*
X379158750Y-394606250D01*
X379157750Y-394607982D01*
X379156750Y-394608250D01*
X377681750Y-394608250D01*
X377680018Y-394607250D01*
X377679750Y-394606250D01*
X377679750Y-394406250D01*
X377680750Y-394404518D01*
X377681750Y-394404250D01*
X379156750Y-394404250D01*
X379158482Y-394405250D01*
G37*
G36*
X363682482Y-394405250D02*
G01*
X363682750Y-394406250D01*
X363682750Y-394606250D01*
X363681750Y-394607982D01*
X363680750Y-394608250D01*
X362205750Y-394608250D01*
X362204018Y-394607250D01*
X362203750Y-394606250D01*
X362203750Y-394406250D01*
X362204750Y-394404518D01*
X362205750Y-394404250D01*
X363680750Y-394404250D01*
X363682482Y-394405250D01*
G37*
G36*
X363682482Y-393605250D02*
G01*
X363682750Y-393606250D01*
X363682750Y-393806250D01*
X363681750Y-393807982D01*
X363680750Y-393808250D01*
X362205750Y-393808250D01*
X362204018Y-393807250D01*
X362203750Y-393806250D01*
X362203750Y-393606250D01*
X362204750Y-393604518D01*
X362205750Y-393604250D01*
X363680750Y-393604250D01*
X363682482Y-393605250D01*
G37*
G36*
X379158482Y-393605250D02*
G01*
X379158750Y-393606250D01*
X379158750Y-393806250D01*
X379157750Y-393807982D01*
X379156750Y-393808250D01*
X377681750Y-393808250D01*
X377680018Y-393807250D01*
X377679750Y-393806250D01*
X377679750Y-393606250D01*
X377680750Y-393604518D01*
X377681750Y-393604250D01*
X379156750Y-393604250D01*
X379158482Y-393605250D01*
G37*
G36*
X379158482Y-392805250D02*
G01*
X379158750Y-392806250D01*
X379158750Y-393006250D01*
X379157750Y-393007982D01*
X379156750Y-393008250D01*
X377681750Y-393008250D01*
X377680018Y-393007250D01*
X377679750Y-393006250D01*
X377679750Y-392806250D01*
X377680750Y-392804518D01*
X377681750Y-392804250D01*
X379156750Y-392804250D01*
X379158482Y-392805250D01*
G37*
G36*
X363682482Y-392805250D02*
G01*
X363682750Y-392806250D01*
X363682750Y-393006250D01*
X363681750Y-393007982D01*
X363680750Y-393008250D01*
X362205750Y-393008250D01*
X362204018Y-393007250D01*
X362203750Y-393006250D01*
X362203750Y-392806250D01*
X362204750Y-392804518D01*
X362205750Y-392804250D01*
X363680750Y-392804250D01*
X363682482Y-392805250D01*
G37*
G36*
X363682482Y-392005250D02*
G01*
X363682750Y-392006250D01*
X363682750Y-392206250D01*
X363681750Y-392207982D01*
X363680750Y-392208250D01*
X362205750Y-392208250D01*
X362204018Y-392207250D01*
X362203750Y-392206250D01*
X362203750Y-392006250D01*
X362204750Y-392004518D01*
X362205750Y-392004250D01*
X363680750Y-392004250D01*
X363682482Y-392005250D01*
G37*
G36*
X379158482Y-392005250D02*
G01*
X379158750Y-392006250D01*
X379158750Y-392206250D01*
X379157750Y-392207982D01*
X379156750Y-392208250D01*
X377681750Y-392208250D01*
X377680018Y-392207250D01*
X377679750Y-392206250D01*
X377679750Y-392006250D01*
X377680750Y-392004518D01*
X377681750Y-392004250D01*
X379156750Y-392004250D01*
X379158482Y-392005250D01*
G37*
G36*
X363682482Y-391205250D02*
G01*
X363682750Y-391206250D01*
X363682750Y-391406250D01*
X363681750Y-391407982D01*
X363680750Y-391408250D01*
X362205750Y-391408250D01*
X362204018Y-391407250D01*
X362203750Y-391406250D01*
X362203750Y-391206250D01*
X362204750Y-391204518D01*
X362205750Y-391204250D01*
X363680750Y-391204250D01*
X363682482Y-391205250D01*
G37*
G36*
X379158482Y-391205250D02*
G01*
X379158750Y-391206250D01*
X379158750Y-391406250D01*
X379157750Y-391407982D01*
X379156750Y-391408250D01*
X377681750Y-391408250D01*
X377680018Y-391407250D01*
X377679750Y-391406250D01*
X377679750Y-391206250D01*
X377680750Y-391204518D01*
X377681750Y-391204250D01*
X379156750Y-391204250D01*
X379158482Y-391205250D01*
G37*
G36*
X363682482Y-390405250D02*
G01*
X363682750Y-390406250D01*
X363682750Y-390606250D01*
X363681750Y-390607982D01*
X363680750Y-390608250D01*
X362205750Y-390608250D01*
X362204018Y-390607250D01*
X362203750Y-390606250D01*
X362203750Y-390406250D01*
X362204750Y-390404518D01*
X362205750Y-390404250D01*
X363680750Y-390404250D01*
X363682482Y-390405250D01*
G37*
G36*
X379158482Y-390405250D02*
G01*
X379158750Y-390406250D01*
X379158750Y-390606250D01*
X379157750Y-390607982D01*
X379156750Y-390608250D01*
X377681750Y-390608250D01*
X377680018Y-390607250D01*
X377679750Y-390606250D01*
X377679750Y-390406250D01*
X377680750Y-390404518D01*
X377681750Y-390404250D01*
X379156750Y-390404250D01*
X379158482Y-390405250D01*
G37*
G36*
X379158482Y-389605250D02*
G01*
X379158750Y-389606250D01*
X379158750Y-389806250D01*
X379157750Y-389807982D01*
X379156750Y-389808250D01*
X377681750Y-389808250D01*
X377680018Y-389807250D01*
X377679750Y-389806250D01*
X377679750Y-389606250D01*
X377680750Y-389604518D01*
X377681750Y-389604250D01*
X379156750Y-389604250D01*
X379158482Y-389605250D01*
G37*
G36*
X363682482Y-389605250D02*
G01*
X363682750Y-389606250D01*
X363682750Y-389806250D01*
X363681750Y-389807982D01*
X363680750Y-389808250D01*
X362205750Y-389808250D01*
X362204018Y-389807250D01*
X362203750Y-389806250D01*
X362203750Y-389606250D01*
X362204750Y-389604518D01*
X362205750Y-389604250D01*
X363680750Y-389604250D01*
X363682482Y-389605250D01*
G37*
G36*
X379158482Y-388805250D02*
G01*
X379158750Y-388806250D01*
X379158750Y-389006250D01*
X379157750Y-389007982D01*
X379156750Y-389008250D01*
X377681750Y-389008250D01*
X377680018Y-389007250D01*
X377679750Y-389006250D01*
X377679750Y-388806250D01*
X377680750Y-388804518D01*
X377681750Y-388804250D01*
X379156750Y-388804250D01*
X379158482Y-388805250D01*
G37*
G36*
X363682482Y-388805250D02*
G01*
X363682750Y-388806250D01*
X363682750Y-389006250D01*
X363681750Y-389007982D01*
X363680750Y-389008250D01*
X362205750Y-389008250D01*
X362204018Y-389007250D01*
X362203750Y-389006250D01*
X362203750Y-388806250D01*
X362204750Y-388804518D01*
X362205750Y-388804250D01*
X363680750Y-388804250D01*
X363682482Y-388805250D01*
G37*
G36*
X403612732Y-387039500D02*
G01*
X403613000Y-387040500D01*
X403613000Y-388515500D01*
X403612000Y-388517232D01*
X403611000Y-388517500D01*
X403411000Y-388517500D01*
X403409268Y-388516500D01*
X403409000Y-388515500D01*
X403409000Y-387040500D01*
X403410000Y-387038768D01*
X403411000Y-387038500D01*
X403611000Y-387038500D01*
X403612732Y-387039500D01*
G37*
G36*
X403112732Y-387039500D02*
G01*
X403113000Y-387040500D01*
X403113000Y-388515500D01*
X403112000Y-388517232D01*
X403111000Y-388517500D01*
X402911000Y-388517500D01*
X402909268Y-388516500D01*
X402909000Y-388515500D01*
X402909000Y-387040500D01*
X402910000Y-387038768D01*
X402911000Y-387038500D01*
X403111000Y-387038500D01*
X403112732Y-387039500D01*
G37*
G36*
X407612732Y-387039500D02*
G01*
X407613000Y-387040500D01*
X407613000Y-388515500D01*
X407612000Y-388517232D01*
X407611000Y-388517500D01*
X407411000Y-388517500D01*
X407409268Y-388516500D01*
X407409000Y-388515500D01*
X407409000Y-387040500D01*
X407410000Y-387038768D01*
X407411000Y-387038500D01*
X407611000Y-387038500D01*
X407612732Y-387039500D01*
G37*
G36*
X407112732Y-387039500D02*
G01*
X407113000Y-387040500D01*
X407113000Y-388515500D01*
X407112000Y-388517232D01*
X407111000Y-388517500D01*
X406911000Y-388517500D01*
X406909268Y-388516500D01*
X406909000Y-388515500D01*
X406909000Y-387040500D01*
X406910000Y-387038768D01*
X406911000Y-387038500D01*
X407111000Y-387038500D01*
X407112732Y-387039500D01*
G37*
G36*
X406612732Y-387039500D02*
G01*
X406613000Y-387040500D01*
X406613000Y-388515500D01*
X406612000Y-388517232D01*
X406611000Y-388517500D01*
X406411000Y-388517500D01*
X406409268Y-388516500D01*
X406409000Y-388515500D01*
X406409000Y-387040500D01*
X406410000Y-387038768D01*
X406411000Y-387038500D01*
X406611000Y-387038500D01*
X406612732Y-387039500D01*
G37*
G36*
X405612732Y-387039500D02*
G01*
X405613000Y-387040500D01*
X405613000Y-388515500D01*
X405612000Y-388517232D01*
X405611000Y-388517500D01*
X405411000Y-388517500D01*
X405409268Y-388516500D01*
X405409000Y-388515500D01*
X405409000Y-387040500D01*
X405410000Y-387038768D01*
X405411000Y-387038500D01*
X405611000Y-387038500D01*
X405612732Y-387039500D01*
G37*
G36*
X404112732Y-387039500D02*
G01*
X404113000Y-387040500D01*
X404113000Y-388515500D01*
X404112000Y-388517232D01*
X404111000Y-388517500D01*
X403911000Y-388517500D01*
X403909268Y-388516500D01*
X403909000Y-388515500D01*
X403909000Y-387040500D01*
X403910000Y-387038768D01*
X403911000Y-387038500D01*
X404111000Y-387038500D01*
X404112732Y-387039500D01*
G37*
G36*
X404612732Y-387039500D02*
G01*
X404613000Y-387040500D01*
X404613000Y-388515500D01*
X404612000Y-388517232D01*
X404611000Y-388517500D01*
X404411000Y-388517500D01*
X404409268Y-388516500D01*
X404409000Y-388515500D01*
X404409000Y-387040500D01*
X404410000Y-387038768D01*
X404411000Y-387038500D01*
X404611000Y-387038500D01*
X404612732Y-387039500D01*
G37*
G36*
X405112732Y-387039500D02*
G01*
X405113000Y-387040500D01*
X405113000Y-388515500D01*
X405112000Y-388517232D01*
X405111000Y-388517500D01*
X404911000Y-388517500D01*
X404909268Y-388516500D01*
X404909000Y-388515500D01*
X404909000Y-387040500D01*
X404910000Y-387038768D01*
X404911000Y-387038500D01*
X405111000Y-387038500D01*
X405112732Y-387039500D01*
G37*
G36*
X408112732Y-387039500D02*
G01*
X408113000Y-387040500D01*
X408113000Y-388515500D01*
X408112000Y-388517232D01*
X408111000Y-388517500D01*
X407911000Y-388517500D01*
X407909268Y-388516500D01*
X407909000Y-388515500D01*
X407909000Y-387040500D01*
X407910000Y-387038768D01*
X407911000Y-387038500D01*
X408111000Y-387038500D01*
X408112732Y-387039500D01*
G37*
G36*
X406112732Y-387039500D02*
G01*
X406113000Y-387040500D01*
X406113000Y-388515500D01*
X406112000Y-388517232D01*
X406111000Y-388517500D01*
X405911000Y-388517500D01*
X405909268Y-388516500D01*
X405909000Y-388515500D01*
X405909000Y-387040500D01*
X405910000Y-387038768D01*
X405911000Y-387038500D01*
X406111000Y-387038500D01*
X406112732Y-387039500D01*
G37*
G36*
X379158482Y-388005250D02*
G01*
X379158750Y-388006250D01*
X379158750Y-388206250D01*
X379157750Y-388207982D01*
X379156750Y-388208250D01*
X377681750Y-388208250D01*
X377680018Y-388207250D01*
X377679750Y-388206250D01*
X377679750Y-388006250D01*
X377680750Y-388004518D01*
X377681750Y-388004250D01*
X379156750Y-388004250D01*
X379158482Y-388005250D01*
G37*
G36*
X363682482Y-388005250D02*
G01*
X363682750Y-388006250D01*
X363682750Y-388206250D01*
X363681750Y-388207982D01*
X363680750Y-388208250D01*
X362205750Y-388208250D01*
X362204018Y-388207250D01*
X362203750Y-388206250D01*
X362203750Y-388006250D01*
X362204750Y-388004518D01*
X362205750Y-388004250D01*
X363680750Y-388004250D01*
X363682482Y-388005250D01*
G37*
G36*
X363682482Y-387205250D02*
G01*
X363682750Y-387206250D01*
X363682750Y-387406250D01*
X363681750Y-387407982D01*
X363680750Y-387408250D01*
X362205750Y-387408250D01*
X362204018Y-387407250D01*
X362203750Y-387406250D01*
X362203750Y-387206250D01*
X362204750Y-387204518D01*
X362205750Y-387204250D01*
X363680750Y-387204250D01*
X363682482Y-387205250D01*
G37*
G36*
X379158482Y-387205250D02*
G01*
X379158750Y-387206250D01*
X379158750Y-387406250D01*
X379157750Y-387407982D01*
X379156750Y-387408250D01*
X377681750Y-387408250D01*
X377680018Y-387407250D01*
X377679750Y-387406250D01*
X377679750Y-387206250D01*
X377680750Y-387204518D01*
X377681750Y-387204250D01*
X379156750Y-387204250D01*
X379158482Y-387205250D01*
G37*
G36*
X410488232Y-385939000D02*
G01*
X410488500Y-385940000D01*
X410488500Y-386140000D01*
X410487500Y-386141732D01*
X410486500Y-386142000D01*
X409011500Y-386142000D01*
X409009768Y-386141000D01*
X409009500Y-386140000D01*
X409009500Y-385940000D01*
X409010500Y-385938268D01*
X409011500Y-385938000D01*
X410486500Y-385938000D01*
X410488232Y-385939000D01*
G37*
G36*
X402012232Y-385939000D02*
G01*
X402012500Y-385940000D01*
X402012500Y-386140000D01*
X402011500Y-386141732D01*
X402010500Y-386142000D01*
X400535500Y-386142000D01*
X400533768Y-386141000D01*
X400533500Y-386140000D01*
X400533500Y-385940000D01*
X400534500Y-385938268D01*
X400535500Y-385938000D01*
X402010500Y-385938000D01*
X402012232Y-385939000D01*
G37*
G36*
X365182982Y-384429750D02*
G01*
X365183250Y-384430750D01*
X365183250Y-385905750D01*
X365182250Y-385907482D01*
X365181250Y-385907750D01*
X364981250Y-385907750D01*
X364979518Y-385906750D01*
X364979250Y-385905750D01*
X364979250Y-384430750D01*
X364980250Y-384429018D01*
X364981250Y-384428750D01*
X365181250Y-384428750D01*
X365182982Y-384429750D01*
G37*
G36*
X369182982Y-384429750D02*
G01*
X369183250Y-384430750D01*
X369183250Y-385905750D01*
X369182250Y-385907482D01*
X369181250Y-385907750D01*
X368981250Y-385907750D01*
X368979518Y-385906750D01*
X368979250Y-385905750D01*
X368979250Y-384430750D01*
X368980250Y-384429018D01*
X368981250Y-384428750D01*
X369181250Y-384428750D01*
X369182982Y-384429750D01*
G37*
G36*
X376382982Y-384429750D02*
G01*
X376383250Y-384430750D01*
X376383250Y-385905750D01*
X376382250Y-385907482D01*
X376381250Y-385907750D01*
X376181250Y-385907750D01*
X376179518Y-385906750D01*
X376179250Y-385905750D01*
X376179250Y-384430750D01*
X376180250Y-384429018D01*
X376181250Y-384428750D01*
X376381250Y-384428750D01*
X376382982Y-384429750D01*
G37*
G36*
X367582982Y-384429750D02*
G01*
X367583250Y-384430750D01*
X367583250Y-385905750D01*
X367582250Y-385907482D01*
X367581250Y-385907750D01*
X367381250Y-385907750D01*
X367379518Y-385906750D01*
X367379250Y-385905750D01*
X367379250Y-384430750D01*
X367380250Y-384429018D01*
X367381250Y-384428750D01*
X367581250Y-384428750D01*
X367582982Y-384429750D01*
G37*
G36*
X366782982Y-384429750D02*
G01*
X366783250Y-384430750D01*
X366783250Y-385905750D01*
X366782250Y-385907482D01*
X366781250Y-385907750D01*
X366581250Y-385907750D01*
X366579518Y-385906750D01*
X366579250Y-385905750D01*
X366579250Y-384430750D01*
X366580250Y-384429018D01*
X366581250Y-384428750D01*
X366781250Y-384428750D01*
X366782982Y-384429750D01*
G37*
G36*
X365982982Y-384429750D02*
G01*
X365983250Y-384430750D01*
X365983250Y-385905750D01*
X365982250Y-385907482D01*
X365981250Y-385907750D01*
X365781250Y-385907750D01*
X365779518Y-385906750D01*
X365779250Y-385905750D01*
X365779250Y-384430750D01*
X365780250Y-384429018D01*
X365781250Y-384428750D01*
X365981250Y-384428750D01*
X365982982Y-384429750D01*
G37*
G36*
X368382982Y-384429750D02*
G01*
X368383250Y-384430750D01*
X368383250Y-385905750D01*
X368382250Y-385907482D01*
X368381250Y-385907750D01*
X368181250Y-385907750D01*
X368179518Y-385906750D01*
X368179250Y-385905750D01*
X368179250Y-384430750D01*
X368180250Y-384429018D01*
X368181250Y-384428750D01*
X368381250Y-384428750D01*
X368382982Y-384429750D01*
G37*
G36*
X374782982Y-384429750D02*
G01*
X374783250Y-384430750D01*
X374783250Y-385905750D01*
X374782250Y-385907482D01*
X374781250Y-385907750D01*
X374581250Y-385907750D01*
X374579518Y-385906750D01*
X374579250Y-385905750D01*
X374579250Y-384430750D01*
X374580250Y-384429018D01*
X374581250Y-384428750D01*
X374781250Y-384428750D01*
X374782982Y-384429750D01*
G37*
G36*
X375582982Y-384429750D02*
G01*
X375583250Y-384430750D01*
X375583250Y-385905750D01*
X375582250Y-385907482D01*
X375581250Y-385907750D01*
X375381250Y-385907750D01*
X375379518Y-385906750D01*
X375379250Y-385905750D01*
X375379250Y-384430750D01*
X375380250Y-384429018D01*
X375381250Y-384428750D01*
X375581250Y-384428750D01*
X375582982Y-384429750D01*
G37*
G36*
X369982982Y-384429750D02*
G01*
X369983250Y-384430750D01*
X369983250Y-385905750D01*
X369982250Y-385907482D01*
X369981250Y-385907750D01*
X369781250Y-385907750D01*
X369779518Y-385906750D01*
X369779250Y-385905750D01*
X369779250Y-384430750D01*
X369780250Y-384429018D01*
X369781250Y-384428750D01*
X369981250Y-384428750D01*
X369982982Y-384429750D01*
G37*
G36*
X370782982Y-384429750D02*
G01*
X370783250Y-384430750D01*
X370783250Y-385905750D01*
X370782250Y-385907482D01*
X370781250Y-385907750D01*
X370581250Y-385907750D01*
X370579518Y-385906750D01*
X370579250Y-385905750D01*
X370579250Y-384430750D01*
X370580250Y-384429018D01*
X370581250Y-384428750D01*
X370781250Y-384428750D01*
X370782982Y-384429750D01*
G37*
G36*
X371582982Y-384429750D02*
G01*
X371583250Y-384430750D01*
X371583250Y-385905750D01*
X371582250Y-385907482D01*
X371581250Y-385907750D01*
X371381250Y-385907750D01*
X371379518Y-385906750D01*
X371379250Y-385905750D01*
X371379250Y-384430750D01*
X371380250Y-384429018D01*
X371381250Y-384428750D01*
X371581250Y-384428750D01*
X371582982Y-384429750D01*
G37*
G36*
X373182982Y-384429750D02*
G01*
X373183250Y-384430750D01*
X373183250Y-385905750D01*
X373182250Y-385907482D01*
X373181250Y-385907750D01*
X372981250Y-385907750D01*
X372979518Y-385906750D01*
X372979250Y-385905750D01*
X372979250Y-384430750D01*
X372980250Y-384429018D01*
X372981250Y-384428750D01*
X373181250Y-384428750D01*
X373182982Y-384429750D01*
G37*
G36*
X373982982Y-384429750D02*
G01*
X373983250Y-384430750D01*
X373983250Y-385905750D01*
X373982250Y-385907482D01*
X373981250Y-385907750D01*
X373781250Y-385907750D01*
X373779518Y-385906750D01*
X373779250Y-385905750D01*
X373779250Y-384430750D01*
X373780250Y-384429018D01*
X373781250Y-384428750D01*
X373981250Y-384428750D01*
X373982982Y-384429750D01*
G37*
G36*
X372382982Y-384429750D02*
G01*
X372383250Y-384430750D01*
X372383250Y-385905750D01*
X372382250Y-385907482D01*
X372381250Y-385907750D01*
X372181250Y-385907750D01*
X372179518Y-385906750D01*
X372179250Y-385905750D01*
X372179250Y-384430750D01*
X372180250Y-384429018D01*
X372181250Y-384428750D01*
X372381250Y-384428750D01*
X372382982Y-384429750D01*
G37*
G36*
X402012232Y-385439000D02*
G01*
X402012500Y-385440000D01*
X402012500Y-385640000D01*
X402011500Y-385641732D01*
X402010500Y-385642000D01*
X400535500Y-385642000D01*
X400533768Y-385641000D01*
X400533500Y-385640000D01*
X400533500Y-385440000D01*
X400534500Y-385438268D01*
X400535500Y-385438000D01*
X402010500Y-385438000D01*
X402012232Y-385439000D01*
G37*
G36*
X410488232Y-385439000D02*
G01*
X410488500Y-385440000D01*
X410488500Y-385640000D01*
X410487500Y-385641732D01*
X410486500Y-385642000D01*
X409011500Y-385642000D01*
X409009768Y-385641000D01*
X409009500Y-385640000D01*
X409009500Y-385440000D01*
X409010500Y-385438268D01*
X409011500Y-385438000D01*
X410486500Y-385438000D01*
X410488232Y-385439000D01*
G37*
G36*
X402012232Y-384939000D02*
G01*
X402012500Y-384940000D01*
X402012500Y-385140000D01*
X402011500Y-385141732D01*
X402010500Y-385142000D01*
X400535500Y-385142000D01*
X400533768Y-385141000D01*
X400533500Y-385140000D01*
X400533500Y-384940000D01*
X400534500Y-384938268D01*
X400535500Y-384938000D01*
X402010500Y-384938000D01*
X402012232Y-384939000D01*
G37*
G36*
X410488232Y-384939000D02*
G01*
X410488500Y-384940000D01*
X410488500Y-385140000D01*
X410487500Y-385141732D01*
X410486500Y-385142000D01*
X409011500Y-385142000D01*
X409009768Y-385141000D01*
X409009500Y-385140000D01*
X409009500Y-384940000D01*
X409010500Y-384938268D01*
X409011500Y-384938000D01*
X410486500Y-384938000D01*
X410488232Y-384939000D01*
G37*
G36*
X410488232Y-384439000D02*
G01*
X410488500Y-384440000D01*
X410488500Y-384640000D01*
X410487500Y-384641732D01*
X410486500Y-384642000D01*
X409011500Y-384642000D01*
X409009768Y-384641000D01*
X409009500Y-384640000D01*
X409009500Y-384440000D01*
X409010500Y-384438268D01*
X409011500Y-384438000D01*
X410486500Y-384438000D01*
X410488232Y-384439000D01*
G37*
G36*
X402012232Y-384439000D02*
G01*
X402012500Y-384440000D01*
X402012500Y-384640000D01*
X402011500Y-384641732D01*
X402010500Y-384642000D01*
X400535500Y-384642000D01*
X400533768Y-384641000D01*
X400533500Y-384640000D01*
X400533500Y-384440000D01*
X400534500Y-384438268D01*
X400535500Y-384438000D01*
X402010500Y-384438000D01*
X402012232Y-384439000D01*
G37*
G36*
X402012232Y-383939000D02*
G01*
X402012500Y-383940000D01*
X402012500Y-384140000D01*
X402011500Y-384141732D01*
X402010500Y-384142000D01*
X400535500Y-384142000D01*
X400533768Y-384141000D01*
X400533500Y-384140000D01*
X400533500Y-383940000D01*
X400534500Y-383938268D01*
X400535500Y-383938000D01*
X402010500Y-383938000D01*
X402012232Y-383939000D01*
G37*
G36*
X410488232Y-383939000D02*
G01*
X410488500Y-383940000D01*
X410488500Y-384140000D01*
X410487500Y-384141732D01*
X410486500Y-384142000D01*
X409011500Y-384142000D01*
X409009768Y-384141000D01*
X409009500Y-384140000D01*
X409009500Y-383940000D01*
X409010500Y-383938268D01*
X409011500Y-383938000D01*
X410486500Y-383938000D01*
X410488232Y-383939000D01*
G37*
G36*
X410488232Y-383439000D02*
G01*
X410488500Y-383440000D01*
X410488500Y-383640000D01*
X410487500Y-383641732D01*
X410486500Y-383642000D01*
X409011500Y-383642000D01*
X409009768Y-383641000D01*
X409009500Y-383640000D01*
X409009500Y-383440000D01*
X409010500Y-383438268D01*
X409011500Y-383438000D01*
X410486500Y-383438000D01*
X410488232Y-383439000D01*
G37*
G36*
X402012232Y-383439000D02*
G01*
X402012500Y-383440000D01*
X402012500Y-383640000D01*
X402011500Y-383641732D01*
X402010500Y-383642000D01*
X400535500Y-383642000D01*
X400533768Y-383641000D01*
X400533500Y-383640000D01*
X400533500Y-383440000D01*
X400534500Y-383438268D01*
X400535500Y-383438000D01*
X402010500Y-383438000D01*
X402012232Y-383439000D01*
G37*
G36*
X402012232Y-382939000D02*
G01*
X402012500Y-382940000D01*
X402012500Y-383140000D01*
X402011500Y-383141732D01*
X402010500Y-383142000D01*
X400535500Y-383142000D01*
X400533768Y-383141000D01*
X400533500Y-383140000D01*
X400533500Y-382940000D01*
X400534500Y-382938268D01*
X400535500Y-382938000D01*
X402010500Y-382938000D01*
X402012232Y-382939000D01*
G37*
G36*
X410488232Y-382939000D02*
G01*
X410488500Y-382940000D01*
X410488500Y-383140000D01*
X410487500Y-383141732D01*
X410486500Y-383142000D01*
X409011500Y-383142000D01*
X409009768Y-383141000D01*
X409009500Y-383140000D01*
X409009500Y-382940000D01*
X409010500Y-382938268D01*
X409011500Y-382938000D01*
X410486500Y-382938000D01*
X410488232Y-382939000D01*
G37*
G36*
X402012232Y-382439000D02*
G01*
X402012500Y-382440000D01*
X402012500Y-382640000D01*
X402011500Y-382641732D01*
X402010500Y-382642000D01*
X400535500Y-382642000D01*
X400533768Y-382641000D01*
X400533500Y-382640000D01*
X400533500Y-382440000D01*
X400534500Y-382438268D01*
X400535500Y-382438000D01*
X402010500Y-382438000D01*
X402012232Y-382439000D01*
G37*
G36*
X410488232Y-382439000D02*
G01*
X410488500Y-382440000D01*
X410488500Y-382640000D01*
X410487500Y-382641732D01*
X410486500Y-382642000D01*
X409011500Y-382642000D01*
X409009768Y-382641000D01*
X409009500Y-382640000D01*
X409009500Y-382440000D01*
X409010500Y-382438268D01*
X409011500Y-382438000D01*
X410486500Y-382438000D01*
X410488232Y-382439000D01*
G37*
G36*
X410488232Y-381939000D02*
G01*
X410488500Y-381940000D01*
X410488500Y-382140000D01*
X410487500Y-382141732D01*
X410486500Y-382142000D01*
X409011500Y-382142000D01*
X409009768Y-382141000D01*
X409009500Y-382140000D01*
X409009500Y-381940000D01*
X409010500Y-381938268D01*
X409011500Y-381938000D01*
X410486500Y-381938000D01*
X410488232Y-381939000D01*
G37*
G36*
X402012232Y-381939000D02*
G01*
X402012500Y-381940000D01*
X402012500Y-382140000D01*
X402011500Y-382141732D01*
X402010500Y-382142000D01*
X400535500Y-382142000D01*
X400533768Y-382141000D01*
X400533500Y-382140000D01*
X400533500Y-381940000D01*
X400534500Y-381938268D01*
X400535500Y-381938000D01*
X402010500Y-381938000D01*
X402012232Y-381939000D01*
G37*
G36*
X410488232Y-381439000D02*
G01*
X410488500Y-381440000D01*
X410488500Y-381640000D01*
X410487500Y-381641732D01*
X410486500Y-381642000D01*
X409011500Y-381642000D01*
X409009768Y-381641000D01*
X409009500Y-381640000D01*
X409009500Y-381440000D01*
X409010500Y-381438268D01*
X409011500Y-381438000D01*
X410486500Y-381438000D01*
X410488232Y-381439000D01*
G37*
G36*
X402012232Y-381439000D02*
G01*
X402012500Y-381440000D01*
X402012500Y-381640000D01*
X402011500Y-381641732D01*
X402010500Y-381642000D01*
X400535500Y-381642000D01*
X400533768Y-381641000D01*
X400533500Y-381640000D01*
X400533500Y-381440000D01*
X400534500Y-381438268D01*
X400535500Y-381438000D01*
X402010500Y-381438000D01*
X402012232Y-381439000D01*
G37*
G36*
X410488232Y-380939000D02*
G01*
X410488500Y-380940000D01*
X410488500Y-381140000D01*
X410487500Y-381141732D01*
X410486500Y-381142000D01*
X409011500Y-381142000D01*
X409009768Y-381141000D01*
X409009500Y-381140000D01*
X409009500Y-380940000D01*
X409010500Y-380938268D01*
X409011500Y-380938000D01*
X410486500Y-380938000D01*
X410488232Y-380939000D01*
G37*
G36*
X402012232Y-380939000D02*
G01*
X402012500Y-380940000D01*
X402012500Y-381140000D01*
X402011500Y-381141732D01*
X402010500Y-381142000D01*
X400535500Y-381142000D01*
X400533768Y-381141000D01*
X400533500Y-381140000D01*
X400533500Y-380940000D01*
X400534500Y-380938268D01*
X400535500Y-380938000D01*
X402010500Y-380938000D01*
X402012232Y-380939000D01*
G37*
G36*
X407612732Y-378563500D02*
G01*
X407613000Y-378564500D01*
X407613000Y-380039500D01*
X407612000Y-380041232D01*
X407611000Y-380041500D01*
X407411000Y-380041500D01*
X407409268Y-380040500D01*
X407409000Y-380039500D01*
X407409000Y-378564500D01*
X407410000Y-378562768D01*
X407411000Y-378562500D01*
X407611000Y-378562500D01*
X407612732Y-378563500D01*
G37*
G36*
X408112732Y-378563500D02*
G01*
X408113000Y-378564500D01*
X408113000Y-380039500D01*
X408112000Y-380041232D01*
X408111000Y-380041500D01*
X407911000Y-380041500D01*
X407909268Y-380040500D01*
X407909000Y-380039500D01*
X407909000Y-378564500D01*
X407910000Y-378562768D01*
X407911000Y-378562500D01*
X408111000Y-378562500D01*
X408112732Y-378563500D01*
G37*
G36*
X404112732Y-378563500D02*
G01*
X404113000Y-378564500D01*
X404113000Y-380039500D01*
X404112000Y-380041232D01*
X404111000Y-380041500D01*
X403911000Y-380041500D01*
X403909268Y-380040500D01*
X403909000Y-380039500D01*
X403909000Y-378564500D01*
X403910000Y-378562768D01*
X403911000Y-378562500D01*
X404111000Y-378562500D01*
X404112732Y-378563500D01*
G37*
G36*
X403612732Y-378563500D02*
G01*
X403613000Y-378564500D01*
X403613000Y-380039500D01*
X403612000Y-380041232D01*
X403611000Y-380041500D01*
X403411000Y-380041500D01*
X403409268Y-380040500D01*
X403409000Y-380039500D01*
X403409000Y-378564500D01*
X403410000Y-378562768D01*
X403411000Y-378562500D01*
X403611000Y-378562500D01*
X403612732Y-378563500D01*
G37*
G36*
X403112732Y-378563500D02*
G01*
X403113000Y-378564500D01*
X403113000Y-380039500D01*
X403112000Y-380041232D01*
X403111000Y-380041500D01*
X402911000Y-380041500D01*
X402909268Y-380040500D01*
X402909000Y-380039500D01*
X402909000Y-378564500D01*
X402910000Y-378562768D01*
X402911000Y-378562500D01*
X403111000Y-378562500D01*
X403112732Y-378563500D01*
G37*
G36*
X405112732Y-378563500D02*
G01*
X405113000Y-378564500D01*
X405113000Y-380039500D01*
X405112000Y-380041232D01*
X405111000Y-380041500D01*
X404911000Y-380041500D01*
X404909268Y-380040500D01*
X404909000Y-380039500D01*
X404909000Y-378564500D01*
X404910000Y-378562768D01*
X404911000Y-378562500D01*
X405111000Y-378562500D01*
X405112732Y-378563500D01*
G37*
G36*
X406612732Y-378563500D02*
G01*
X406613000Y-378564500D01*
X406613000Y-380039500D01*
X406612000Y-380041232D01*
X406611000Y-380041500D01*
X406411000Y-380041500D01*
X406409268Y-380040500D01*
X406409000Y-380039500D01*
X406409000Y-378564500D01*
X406410000Y-378562768D01*
X406411000Y-378562500D01*
X406611000Y-378562500D01*
X406612732Y-378563500D01*
G37*
G36*
X407112732Y-378563500D02*
G01*
X407113000Y-378564500D01*
X407113000Y-380039500D01*
X407112000Y-380041232D01*
X407111000Y-380041500D01*
X406911000Y-380041500D01*
X406909268Y-380040500D01*
X406909000Y-380039500D01*
X406909000Y-378564500D01*
X406910000Y-378562768D01*
X406911000Y-378562500D01*
X407111000Y-378562500D01*
X407112732Y-378563500D01*
G37*
G36*
X405612732Y-378563500D02*
G01*
X405613000Y-378564500D01*
X405613000Y-380039500D01*
X405612000Y-380041232D01*
X405611000Y-380041500D01*
X405411000Y-380041500D01*
X405409268Y-380040500D01*
X405409000Y-380039500D01*
X405409000Y-378564500D01*
X405410000Y-378562768D01*
X405411000Y-378562500D01*
X405611000Y-378562500D01*
X405612732Y-378563500D01*
G37*
G36*
X406112732Y-378563500D02*
G01*
X406113000Y-378564500D01*
X406113000Y-380039500D01*
X406112000Y-380041232D01*
X406111000Y-380041500D01*
X405911000Y-380041500D01*
X405909268Y-380040500D01*
X405909000Y-380039500D01*
X405909000Y-378564500D01*
X405910000Y-378562768D01*
X405911000Y-378562500D01*
X406111000Y-378562500D01*
X406112732Y-378563500D01*
G37*
G36*
X404612732Y-378563500D02*
G01*
X404613000Y-378564500D01*
X404613000Y-380039500D01*
X404612000Y-380041232D01*
X404611000Y-380041500D01*
X404411000Y-380041500D01*
X404409268Y-380040500D01*
X404409000Y-380039500D01*
X404409000Y-378564500D01*
X404410000Y-378562768D01*
X404411000Y-378562500D01*
X404611000Y-378562500D01*
X404612732Y-378563500D01*
G37*
G36*
X345160732Y-371713000D02*
G01*
X345161000Y-371714000D01*
X345161000Y-373164000D01*
X345160000Y-373165732D01*
X345159000Y-373166000D01*
X344959000Y-373166000D01*
X344957268Y-373165000D01*
X344957000Y-373164000D01*
X344957000Y-371714000D01*
X344958000Y-371712268D01*
X344959000Y-371712000D01*
X345159000Y-371712000D01*
X345160732Y-371713000D01*
G37*
G36*
X344660732Y-371713000D02*
G01*
X344661000Y-371714000D01*
X344661000Y-373164000D01*
X344660000Y-373165732D01*
X344659000Y-373166000D01*
X344459000Y-373166000D01*
X344457268Y-373165000D01*
X344457000Y-373164000D01*
X344457000Y-371714000D01*
X344458000Y-371712268D01*
X344459000Y-371712000D01*
X344659000Y-371712000D01*
X344660732Y-371713000D01*
G37*
G36*
X343660732Y-371713000D02*
G01*
X343661000Y-371714000D01*
X343661000Y-373164000D01*
X343660000Y-373165732D01*
X343659000Y-373166000D01*
X343459000Y-373166000D01*
X343457268Y-373165000D01*
X343457000Y-373164000D01*
X343457000Y-371714000D01*
X343458000Y-371712268D01*
X343459000Y-371712000D01*
X343659000Y-371712000D01*
X343660732Y-371713000D01*
G37*
G36*
X344160732Y-371713000D02*
G01*
X344161000Y-371714000D01*
X344161000Y-373164000D01*
X344160000Y-373165732D01*
X344159000Y-373166000D01*
X343959000Y-373166000D01*
X343957268Y-373165000D01*
X343957000Y-373164000D01*
X343957000Y-371714000D01*
X343958000Y-371712268D01*
X343959000Y-371712000D01*
X344159000Y-371712000D01*
X344160732Y-371713000D01*
G37*
G36*
X347985732Y-371713000D02*
G01*
X347986000Y-371714000D01*
X347986000Y-373164000D01*
X347985000Y-373165732D01*
X347984000Y-373166000D01*
X347809000Y-373166000D01*
X347807268Y-373165000D01*
X347807000Y-373164000D01*
X347807000Y-371714000D01*
X347808000Y-371712268D01*
X347809000Y-371712000D01*
X347984000Y-371712000D01*
X347985732Y-371713000D01*
G37*
G36*
X345660732Y-371713000D02*
G01*
X345661000Y-371714000D01*
X345661000Y-373164000D01*
X345660000Y-373165732D01*
X345659000Y-373166000D01*
X345459000Y-373166000D01*
X345457268Y-373165000D01*
X345457000Y-373164000D01*
X345457000Y-371714000D01*
X345458000Y-371712268D01*
X345459000Y-371712000D01*
X345659000Y-371712000D01*
X345660732Y-371713000D01*
G37*
G36*
X346160732Y-371713000D02*
G01*
X346161000Y-371714000D01*
X346161000Y-373164000D01*
X346160000Y-373165732D01*
X346159000Y-373166000D01*
X345959000Y-373166000D01*
X345957268Y-373165000D01*
X345957000Y-373164000D01*
X345957000Y-371714000D01*
X345958000Y-371712268D01*
X345959000Y-371712000D01*
X346159000Y-371712000D01*
X346160732Y-371713000D01*
G37*
G36*
X346660732Y-371713000D02*
G01*
X346661000Y-371714000D01*
X346661000Y-373164000D01*
X346660000Y-373165732D01*
X346659000Y-373166000D01*
X346459000Y-373166000D01*
X346457268Y-373165000D01*
X346457000Y-373164000D01*
X346457000Y-371714000D01*
X346458000Y-371712268D01*
X346459000Y-371712000D01*
X346659000Y-371712000D01*
X346660732Y-371713000D01*
G37*
G36*
X342310732Y-371713000D02*
G01*
X342311000Y-371714000D01*
X342311000Y-373164000D01*
X342310000Y-373165732D01*
X342309000Y-373166000D01*
X342134000Y-373166000D01*
X342132268Y-373165000D01*
X342132000Y-373164000D01*
X342132000Y-371714000D01*
X342133000Y-371712268D01*
X342134000Y-371712000D01*
X342309000Y-371712000D01*
X342310732Y-371713000D01*
G37*
M02*
