G04 #@! TF.GenerationSoftware,KiCad,Pcbnew,(5.1.10)-1*
G04 #@! TF.CreationDate,2021-07-21T20:55:27-04:00*
G04 #@! TF.ProjectId,ProtoTooManyKeys,50726f74-6f54-46f6-9f4d-616e794b6579,1.5*
G04 #@! TF.SameCoordinates,Original*
G04 #@! TF.FileFunction,Paste,Bot*
G04 #@! TF.FilePolarity,Positive*
%FSLAX46Y46*%
G04 Gerber Fmt 4.6, Leading zero omitted, Abs format (unit mm)*
G04 Created by KiCad (PCBNEW (5.1.10)-1) date 2021-07-21 20:55:27*
%MOMM*%
%LPD*%
G01*
G04 APERTURE LIST*
%ADD10R,0.850000X0.300000*%
%ADD11R,0.600000X1.475000*%
%ADD12R,1.475000X0.600000*%
%ADD13R,2.000000X2.000000*%
%ADD14R,0.300000X1.475000*%
%ADD15R,1.475000X0.300000*%
%ADD16C,0.100000*%
%ADD17R,0.600000X1.450000*%
%ADD18R,0.300000X1.450000*%
%ADD19R,2.000000X1.500000*%
%ADD20R,2.000000X3.800000*%
%ADD21R,0.700000X1.000000*%
%ADD22R,0.700000X0.600000*%
%ADD23R,1.800000X1.100000*%
%ADD24R,2.000000X1.300000*%
%ADD25R,0.300000X1.000000*%
%ADD26R,1.400000X0.800000*%
%ADD27R,1.200000X0.900000*%
G04 APERTURE END LIST*
G36*
G01*
X375597000Y-403258000D02*
X375597000Y-404208000D01*
G75*
G02*
X375347000Y-404458000I-250000J0D01*
G01*
X374847000Y-404458000D01*
G75*
G02*
X374597000Y-404208000I0J250000D01*
G01*
X374597000Y-403258000D01*
G75*
G02*
X374847000Y-403008000I250000J0D01*
G01*
X375347000Y-403008000D01*
G75*
G02*
X375597000Y-403258000I0J-250000D01*
G01*
G37*
G36*
G01*
X377497000Y-403258000D02*
X377497000Y-404208000D01*
G75*
G02*
X377247000Y-404458000I-250000J0D01*
G01*
X376747000Y-404458000D01*
G75*
G02*
X376497000Y-404208000I0J250000D01*
G01*
X376497000Y-403258000D01*
G75*
G02*
X376747000Y-403008000I250000J0D01*
G01*
X377247000Y-403008000D01*
G75*
G02*
X377497000Y-403258000I0J-250000D01*
G01*
G37*
D10*
X375615000Y-406793000D03*
X375615000Y-407293000D03*
X375615000Y-407793000D03*
X375615000Y-408293000D03*
X378765000Y-408293000D03*
X378765000Y-407793000D03*
X378765000Y-407293000D03*
X378765000Y-406793000D03*
D11*
X364681250Y-400644250D03*
X365481250Y-400644250D03*
X366281250Y-400644250D03*
X367081250Y-400644250D03*
X367881250Y-400644250D03*
X368681250Y-400644250D03*
X369481250Y-400644250D03*
X370281250Y-400644250D03*
X371081250Y-400644250D03*
X371881250Y-400644250D03*
X372681250Y-400644250D03*
X373481250Y-400644250D03*
X374281250Y-400644250D03*
X375081250Y-400644250D03*
X375881250Y-400644250D03*
X376681250Y-400644250D03*
D12*
X378419250Y-398906250D03*
X378419250Y-398106250D03*
X378419250Y-397306250D03*
X378419250Y-396506250D03*
X378419250Y-395706250D03*
X378419250Y-394906250D03*
X378419250Y-394106250D03*
X378419250Y-393306250D03*
X378419250Y-392506250D03*
X378419250Y-391706250D03*
X378419250Y-390906250D03*
X378419250Y-390106250D03*
X378419250Y-389306250D03*
X378419250Y-388506250D03*
X378419250Y-387706250D03*
X378419250Y-386906250D03*
D11*
X376681250Y-385168250D03*
X375881250Y-385168250D03*
X375081250Y-385168250D03*
X374281250Y-385168250D03*
X373481250Y-385168250D03*
X372681250Y-385168250D03*
X371881250Y-385168250D03*
X371081250Y-385168250D03*
X370281250Y-385168250D03*
X369481250Y-385168250D03*
X368681250Y-385168250D03*
X367881250Y-385168250D03*
X367081250Y-385168250D03*
X366281250Y-385168250D03*
X365481250Y-385168250D03*
X364681250Y-385168250D03*
D12*
X362943250Y-386906250D03*
X362943250Y-387706250D03*
X362943250Y-388506250D03*
X362943250Y-389306250D03*
X362943250Y-390106250D03*
X362943250Y-390906250D03*
X362943250Y-391706250D03*
X362943250Y-392506250D03*
X362943250Y-393306250D03*
X362943250Y-394106250D03*
X362943250Y-394906250D03*
X362943250Y-395706250D03*
X362943250Y-396506250D03*
X362943250Y-397306250D03*
X362943250Y-398106250D03*
X362943250Y-398906250D03*
D13*
X405511000Y-398907000D03*
D14*
X402761000Y-403145000D03*
X403261000Y-403145000D03*
X403761000Y-403145000D03*
X404261000Y-403145000D03*
X404761000Y-403145000D03*
X405261000Y-403145000D03*
X405761000Y-403145000D03*
X406261000Y-403145000D03*
X406761000Y-403145000D03*
X407261000Y-403145000D03*
X407761000Y-403145000D03*
X408261000Y-403145000D03*
D15*
X409749000Y-401657000D03*
X409749000Y-401157000D03*
X409749000Y-400657000D03*
X409749000Y-400157000D03*
X409749000Y-399657000D03*
X409749000Y-399157000D03*
X409749000Y-398657000D03*
X409749000Y-398157000D03*
X409749000Y-397657000D03*
X409749000Y-397157000D03*
X409749000Y-396657000D03*
X409749000Y-396157000D03*
D14*
X408261000Y-394669000D03*
X407761000Y-394669000D03*
X407261000Y-394669000D03*
X406761000Y-394669000D03*
X406261000Y-394669000D03*
X405761000Y-394669000D03*
X405261000Y-394669000D03*
X404761000Y-394669000D03*
X404261000Y-394669000D03*
X403761000Y-394669000D03*
X403261000Y-394669000D03*
X402761000Y-394669000D03*
D15*
X401273000Y-396157000D03*
X401273000Y-396657000D03*
X401273000Y-397157000D03*
X401273000Y-397657000D03*
X401273000Y-398157000D03*
X401273000Y-398657000D03*
X401273000Y-399157000D03*
X401273000Y-399657000D03*
X401273000Y-400157000D03*
X401273000Y-400657000D03*
X401273000Y-401157000D03*
X401273000Y-401657000D03*
D13*
X405511000Y-383540000D03*
D14*
X402761000Y-387778000D03*
X403261000Y-387778000D03*
X403761000Y-387778000D03*
X404261000Y-387778000D03*
X404761000Y-387778000D03*
X405261000Y-387778000D03*
X405761000Y-387778000D03*
X406261000Y-387778000D03*
X406761000Y-387778000D03*
X407261000Y-387778000D03*
X407761000Y-387778000D03*
X408261000Y-387778000D03*
D15*
X409749000Y-386290000D03*
X409749000Y-385790000D03*
X409749000Y-385290000D03*
X409749000Y-384790000D03*
X409749000Y-384290000D03*
X409749000Y-383790000D03*
X409749000Y-383290000D03*
X409749000Y-382790000D03*
X409749000Y-382290000D03*
X409749000Y-381790000D03*
X409749000Y-381290000D03*
X409749000Y-380790000D03*
D14*
X408261000Y-379302000D03*
X407761000Y-379302000D03*
X407261000Y-379302000D03*
X406761000Y-379302000D03*
X406261000Y-379302000D03*
X405761000Y-379302000D03*
X405261000Y-379302000D03*
X404761000Y-379302000D03*
X404261000Y-379302000D03*
X403761000Y-379302000D03*
X403261000Y-379302000D03*
X402761000Y-379302000D03*
D15*
X401273000Y-380790000D03*
X401273000Y-381290000D03*
X401273000Y-381790000D03*
X401273000Y-382290000D03*
X401273000Y-382790000D03*
X401273000Y-383290000D03*
X401273000Y-383790000D03*
X401273000Y-384290000D03*
X401273000Y-384790000D03*
X401273000Y-385290000D03*
X401273000Y-385790000D03*
X401273000Y-386290000D03*
D16*
G36*
X372630097Y-379723488D02*
G01*
X371781569Y-380572016D01*
X370791619Y-379582066D01*
X371640147Y-378733538D01*
X372630097Y-379723488D01*
G37*
G36*
X371074462Y-378167853D02*
G01*
X370225934Y-379016381D01*
X369235984Y-378026431D01*
X370084512Y-377177903D01*
X371074462Y-378167853D01*
G37*
G36*
X369872381Y-379369934D02*
G01*
X369023853Y-380218462D01*
X368033903Y-379228512D01*
X368882431Y-378379984D01*
X369872381Y-379369934D01*
G37*
G36*
X371428016Y-380925569D02*
G01*
X370579488Y-381774097D01*
X369589538Y-380784147D01*
X370438066Y-379935619D01*
X371428016Y-380925569D01*
G37*
D17*
X348284000Y-372439000D03*
X341834000Y-372439000D03*
X347509000Y-372439000D03*
X342609000Y-372439000D03*
D18*
X343309000Y-372439000D03*
X346809000Y-372439000D03*
X343809000Y-372439000D03*
X346309000Y-372439000D03*
X344309000Y-372439000D03*
X345809000Y-372439000D03*
X345309000Y-372439000D03*
X344809000Y-372439000D03*
D19*
X374167000Y-415431000D03*
X374167000Y-410831000D03*
X374167000Y-413131000D03*
D20*
X380467000Y-413131000D03*
D21*
X345932000Y-377710000D03*
D22*
X343932000Y-377510000D03*
X345932000Y-379410000D03*
X343932000Y-379410000D03*
D23*
X350445000Y-408250000D03*
X344245000Y-404550000D03*
X350445000Y-404550000D03*
X344245000Y-408250000D03*
G36*
G01*
X413531000Y-386149002D02*
X413531000Y-385248998D01*
G75*
G02*
X413780998Y-384999000I249998J0D01*
G01*
X414306002Y-384999000D01*
G75*
G02*
X414556000Y-385248998I0J-249998D01*
G01*
X414556000Y-386149002D01*
G75*
G02*
X414306002Y-386399000I-249998J0D01*
G01*
X413780998Y-386399000D01*
G75*
G02*
X413531000Y-386149002I0J249998D01*
G01*
G37*
G36*
G01*
X411706000Y-386149002D02*
X411706000Y-385248998D01*
G75*
G02*
X411955998Y-384999000I249998J0D01*
G01*
X412481002Y-384999000D01*
G75*
G02*
X412731000Y-385248998I0J-249998D01*
G01*
X412731000Y-386149002D01*
G75*
G02*
X412481002Y-386399000I-249998J0D01*
G01*
X411955998Y-386399000D01*
G75*
G02*
X411706000Y-386149002I0J249998D01*
G01*
G37*
G36*
G01*
X401250998Y-391306000D02*
X402151002Y-391306000D01*
G75*
G02*
X402401000Y-391555998I0J-249998D01*
G01*
X402401000Y-392081002D01*
G75*
G02*
X402151002Y-392331000I-249998J0D01*
G01*
X401250998Y-392331000D01*
G75*
G02*
X401001000Y-392081002I0J249998D01*
G01*
X401001000Y-391555998D01*
G75*
G02*
X401250998Y-391306000I249998J0D01*
G01*
G37*
G36*
G01*
X401250998Y-389481000D02*
X402151002Y-389481000D01*
G75*
G02*
X402401000Y-389730998I0J-249998D01*
G01*
X402401000Y-390256002D01*
G75*
G02*
X402151002Y-390506000I-249998J0D01*
G01*
X401250998Y-390506000D01*
G75*
G02*
X401001000Y-390256002I0J249998D01*
G01*
X401001000Y-389730998D01*
G75*
G02*
X401250998Y-389481000I249998J0D01*
G01*
G37*
G36*
G01*
X403282998Y-391306000D02*
X404183002Y-391306000D01*
G75*
G02*
X404433000Y-391555998I0J-249998D01*
G01*
X404433000Y-392081002D01*
G75*
G02*
X404183002Y-392331000I-249998J0D01*
G01*
X403282998Y-392331000D01*
G75*
G02*
X403033000Y-392081002I0J249998D01*
G01*
X403033000Y-391555998D01*
G75*
G02*
X403282998Y-391306000I249998J0D01*
G01*
G37*
G36*
G01*
X403282998Y-389481000D02*
X404183002Y-389481000D01*
G75*
G02*
X404433000Y-389730998I0J-249998D01*
G01*
X404433000Y-390256002D01*
G75*
G02*
X404183002Y-390506000I-249998J0D01*
G01*
X403282998Y-390506000D01*
G75*
G02*
X403033000Y-390256002I0J249998D01*
G01*
X403033000Y-389730998D01*
G75*
G02*
X403282998Y-389481000I249998J0D01*
G01*
G37*
G36*
G01*
X413277000Y-401643002D02*
X413277000Y-400742998D01*
G75*
G02*
X413526998Y-400493000I249998J0D01*
G01*
X414052002Y-400493000D01*
G75*
G02*
X414302000Y-400742998I0J-249998D01*
G01*
X414302000Y-401643002D01*
G75*
G02*
X414052002Y-401893000I-249998J0D01*
G01*
X413526998Y-401893000D01*
G75*
G02*
X413277000Y-401643002I0J249998D01*
G01*
G37*
G36*
G01*
X411452000Y-401643002D02*
X411452000Y-400742998D01*
G75*
G02*
X411701998Y-400493000I249998J0D01*
G01*
X412227002Y-400493000D01*
G75*
G02*
X412477000Y-400742998I0J-249998D01*
G01*
X412477000Y-401643002D01*
G75*
G02*
X412227002Y-401893000I-249998J0D01*
G01*
X411701998Y-401893000D01*
G75*
G02*
X411452000Y-401643002I0J249998D01*
G01*
G37*
G36*
G01*
X401250998Y-406419000D02*
X402151002Y-406419000D01*
G75*
G02*
X402401000Y-406668998I0J-249998D01*
G01*
X402401000Y-407194002D01*
G75*
G02*
X402151002Y-407444000I-249998J0D01*
G01*
X401250998Y-407444000D01*
G75*
G02*
X401001000Y-407194002I0J249998D01*
G01*
X401001000Y-406668998D01*
G75*
G02*
X401250998Y-406419000I249998J0D01*
G01*
G37*
G36*
G01*
X401250998Y-404594000D02*
X402151002Y-404594000D01*
G75*
G02*
X402401000Y-404843998I0J-249998D01*
G01*
X402401000Y-405369002D01*
G75*
G02*
X402151002Y-405619000I-249998J0D01*
G01*
X401250998Y-405619000D01*
G75*
G02*
X401001000Y-405369002I0J249998D01*
G01*
X401001000Y-404843998D01*
G75*
G02*
X401250998Y-404594000I249998J0D01*
G01*
G37*
G36*
G01*
X403282998Y-406419000D02*
X404183002Y-406419000D01*
G75*
G02*
X404433000Y-406668998I0J-249998D01*
G01*
X404433000Y-407194002D01*
G75*
G02*
X404183002Y-407444000I-249998J0D01*
G01*
X403282998Y-407444000D01*
G75*
G02*
X403033000Y-407194002I0J249998D01*
G01*
X403033000Y-406668998D01*
G75*
G02*
X403282998Y-406419000I249998J0D01*
G01*
G37*
G36*
G01*
X403282998Y-404594000D02*
X404183002Y-404594000D01*
G75*
G02*
X404433000Y-404843998I0J-249998D01*
G01*
X404433000Y-405369002D01*
G75*
G02*
X404183002Y-405619000I-249998J0D01*
G01*
X403282998Y-405619000D01*
G75*
G02*
X403033000Y-405369002I0J249998D01*
G01*
X403033000Y-404843998D01*
G75*
G02*
X403282998Y-404594000I249998J0D01*
G01*
G37*
G36*
G01*
X373018000Y-408628002D02*
X373018000Y-407727998D01*
G75*
G02*
X373267998Y-407478000I249998J0D01*
G01*
X373793002Y-407478000D01*
G75*
G02*
X374043000Y-407727998I0J-249998D01*
G01*
X374043000Y-408628002D01*
G75*
G02*
X373793002Y-408878000I-249998J0D01*
G01*
X373267998Y-408878000D01*
G75*
G02*
X373018000Y-408628002I0J249998D01*
G01*
G37*
G36*
G01*
X371193000Y-408628002D02*
X371193000Y-407727998D01*
G75*
G02*
X371442998Y-407478000I249998J0D01*
G01*
X371968002Y-407478000D01*
G75*
G02*
X372218000Y-407727998I0J-249998D01*
G01*
X372218000Y-408628002D01*
G75*
G02*
X371968002Y-408878000I-249998J0D01*
G01*
X371442998Y-408878000D01*
G75*
G02*
X371193000Y-408628002I0J249998D01*
G01*
G37*
G36*
G01*
X373018000Y-406215002D02*
X373018000Y-405314998D01*
G75*
G02*
X373267998Y-405065000I249998J0D01*
G01*
X373793002Y-405065000D01*
G75*
G02*
X374043000Y-405314998I0J-249998D01*
G01*
X374043000Y-406215002D01*
G75*
G02*
X373793002Y-406465000I-249998J0D01*
G01*
X373267998Y-406465000D01*
G75*
G02*
X373018000Y-406215002I0J249998D01*
G01*
G37*
G36*
G01*
X371193000Y-406215002D02*
X371193000Y-405314998D01*
G75*
G02*
X371442998Y-405065000I249998J0D01*
G01*
X371968002Y-405065000D01*
G75*
G02*
X372218000Y-405314998I0J-249998D01*
G01*
X372218000Y-406215002D01*
G75*
G02*
X371968002Y-406465000I-249998J0D01*
G01*
X371442998Y-406465000D01*
G75*
G02*
X371193000Y-406215002I0J249998D01*
G01*
G37*
G36*
G01*
X373018000Y-404183002D02*
X373018000Y-403282998D01*
G75*
G02*
X373267998Y-403033000I249998J0D01*
G01*
X373793002Y-403033000D01*
G75*
G02*
X374043000Y-403282998I0J-249998D01*
G01*
X374043000Y-404183002D01*
G75*
G02*
X373793002Y-404433000I-249998J0D01*
G01*
X373267998Y-404433000D01*
G75*
G02*
X373018000Y-404183002I0J249998D01*
G01*
G37*
G36*
G01*
X371193000Y-404183002D02*
X371193000Y-403282998D01*
G75*
G02*
X371442998Y-403033000I249998J0D01*
G01*
X371968002Y-403033000D01*
G75*
G02*
X372218000Y-403282998I0J-249998D01*
G01*
X372218000Y-404183002D01*
G75*
G02*
X371968002Y-404433000I-249998J0D01*
G01*
X371442998Y-404433000D01*
G75*
G02*
X371193000Y-404183002I0J249998D01*
G01*
G37*
G36*
G01*
X402901998Y-415516000D02*
X403802002Y-415516000D01*
G75*
G02*
X404052000Y-415765998I0J-249998D01*
G01*
X404052000Y-416291002D01*
G75*
G02*
X403802002Y-416541000I-249998J0D01*
G01*
X402901998Y-416541000D01*
G75*
G02*
X402652000Y-416291002I0J249998D01*
G01*
X402652000Y-415765998D01*
G75*
G02*
X402901998Y-415516000I249998J0D01*
G01*
G37*
G36*
G01*
X402901998Y-417341000D02*
X403802002Y-417341000D01*
G75*
G02*
X404052000Y-417590998I0J-249998D01*
G01*
X404052000Y-418116002D01*
G75*
G02*
X403802002Y-418366000I-249998J0D01*
G01*
X402901998Y-418366000D01*
G75*
G02*
X402652000Y-418116002I0J249998D01*
G01*
X402652000Y-417590998D01*
G75*
G02*
X402901998Y-417341000I249998J0D01*
G01*
G37*
G36*
G01*
X381946998Y-396259000D02*
X382847002Y-396259000D01*
G75*
G02*
X383097000Y-396508998I0J-249998D01*
G01*
X383097000Y-397034002D01*
G75*
G02*
X382847002Y-397284000I-249998J0D01*
G01*
X381946998Y-397284000D01*
G75*
G02*
X381697000Y-397034002I0J249998D01*
G01*
X381697000Y-396508998D01*
G75*
G02*
X381946998Y-396259000I249998J0D01*
G01*
G37*
G36*
G01*
X381946998Y-394434000D02*
X382847002Y-394434000D01*
G75*
G02*
X383097000Y-394683998I0J-249998D01*
G01*
X383097000Y-395209002D01*
G75*
G02*
X382847002Y-395459000I-249998J0D01*
G01*
X381946998Y-395459000D01*
G75*
G02*
X381697000Y-395209002I0J249998D01*
G01*
X381697000Y-394683998D01*
G75*
G02*
X381946998Y-394434000I249998J0D01*
G01*
G37*
G36*
G01*
X350081002Y-375774000D02*
X349180998Y-375774000D01*
G75*
G02*
X348931000Y-375524002I0J249998D01*
G01*
X348931000Y-374998998D01*
G75*
G02*
X349180998Y-374749000I249998J0D01*
G01*
X350081002Y-374749000D01*
G75*
G02*
X350331000Y-374998998I0J-249998D01*
G01*
X350331000Y-375524002D01*
G75*
G02*
X350081002Y-375774000I-249998J0D01*
G01*
G37*
G36*
G01*
X350081002Y-377599000D02*
X349180998Y-377599000D01*
G75*
G02*
X348931000Y-377349002I0J249998D01*
G01*
X348931000Y-376823998D01*
G75*
G02*
X349180998Y-376574000I249998J0D01*
G01*
X350081002Y-376574000D01*
G75*
G02*
X350331000Y-376823998I0J-249998D01*
G01*
X350331000Y-377349002D01*
G75*
G02*
X350081002Y-377599000I-249998J0D01*
G01*
G37*
G36*
G01*
X381616000Y-407473998D02*
X381616000Y-408374002D01*
G75*
G02*
X381366002Y-408624000I-249998J0D01*
G01*
X380840998Y-408624000D01*
G75*
G02*
X380591000Y-408374002I0J249998D01*
G01*
X380591000Y-407473998D01*
G75*
G02*
X380840998Y-407224000I249998J0D01*
G01*
X381366002Y-407224000D01*
G75*
G02*
X381616000Y-407473998I0J-249998D01*
G01*
G37*
G36*
G01*
X383441000Y-407473998D02*
X383441000Y-408374002D01*
G75*
G02*
X383191002Y-408624000I-249998J0D01*
G01*
X382665998Y-408624000D01*
G75*
G02*
X382416000Y-408374002I0J249998D01*
G01*
X382416000Y-407473998D01*
G75*
G02*
X382665998Y-407224000I249998J0D01*
G01*
X383191002Y-407224000D01*
G75*
G02*
X383441000Y-407473998I0J-249998D01*
G01*
G37*
G36*
G01*
X382416000Y-406088002D02*
X382416000Y-405187998D01*
G75*
G02*
X382665998Y-404938000I249998J0D01*
G01*
X383191002Y-404938000D01*
G75*
G02*
X383441000Y-405187998I0J-249998D01*
G01*
X383441000Y-406088002D01*
G75*
G02*
X383191002Y-406338000I-249998J0D01*
G01*
X382665998Y-406338000D01*
G75*
G02*
X382416000Y-406088002I0J249998D01*
G01*
G37*
G36*
G01*
X380591000Y-406088002D02*
X380591000Y-405187998D01*
G75*
G02*
X380840998Y-404938000I249998J0D01*
G01*
X381366002Y-404938000D01*
G75*
G02*
X381616000Y-405187998I0J-249998D01*
G01*
X381616000Y-406088002D01*
G75*
G02*
X381366002Y-406338000I-249998J0D01*
G01*
X380840998Y-406338000D01*
G75*
G02*
X380591000Y-406088002I0J249998D01*
G01*
G37*
G36*
G01*
X341064002Y-375901000D02*
X340163998Y-375901000D01*
G75*
G02*
X339914000Y-375651002I0J249998D01*
G01*
X339914000Y-375125998D01*
G75*
G02*
X340163998Y-374876000I249998J0D01*
G01*
X341064002Y-374876000D01*
G75*
G02*
X341314000Y-375125998I0J-249998D01*
G01*
X341314000Y-375651002D01*
G75*
G02*
X341064002Y-375901000I-249998J0D01*
G01*
G37*
G36*
G01*
X341064002Y-377726000D02*
X340163998Y-377726000D01*
G75*
G02*
X339914000Y-377476002I0J249998D01*
G01*
X339914000Y-376950998D01*
G75*
G02*
X340163998Y-376701000I249998J0D01*
G01*
X341064002Y-376701000D01*
G75*
G02*
X341314000Y-376950998I0J-249998D01*
G01*
X341314000Y-377476002D01*
G75*
G02*
X341064002Y-377726000I-249998J0D01*
G01*
G37*
G36*
G01*
X346398002Y-381870000D02*
X345497998Y-381870000D01*
G75*
G02*
X345248000Y-381620002I0J249998D01*
G01*
X345248000Y-381094998D01*
G75*
G02*
X345497998Y-380845000I249998J0D01*
G01*
X346398002Y-380845000D01*
G75*
G02*
X346648000Y-381094998I0J-249998D01*
G01*
X346648000Y-381620002D01*
G75*
G02*
X346398002Y-381870000I-249998J0D01*
G01*
G37*
G36*
G01*
X346398002Y-383695000D02*
X345497998Y-383695000D01*
G75*
G02*
X345248000Y-383445002I0J249998D01*
G01*
X345248000Y-382919998D01*
G75*
G02*
X345497998Y-382670000I249998J0D01*
G01*
X346398002Y-382670000D01*
G75*
G02*
X346648000Y-382919998I0J-249998D01*
G01*
X346648000Y-383445002D01*
G75*
G02*
X346398002Y-383695000I-249998J0D01*
G01*
G37*
G36*
G01*
X344366002Y-381870000D02*
X343465998Y-381870000D01*
G75*
G02*
X343216000Y-381620002I0J249998D01*
G01*
X343216000Y-381094998D01*
G75*
G02*
X343465998Y-380845000I249998J0D01*
G01*
X344366002Y-380845000D01*
G75*
G02*
X344616000Y-381094998I0J-249998D01*
G01*
X344616000Y-381620002D01*
G75*
G02*
X344366002Y-381870000I-249998J0D01*
G01*
G37*
G36*
G01*
X344366002Y-383695000D02*
X343465998Y-383695000D01*
G75*
G02*
X343216000Y-383445002I0J249998D01*
G01*
X343216000Y-382919998D01*
G75*
G02*
X343465998Y-382670000I249998J0D01*
G01*
X344366002Y-382670000D01*
G75*
G02*
X344616000Y-382919998I0J-249998D01*
G01*
X344616000Y-383445002D01*
G75*
G02*
X344366002Y-383695000I-249998J0D01*
G01*
G37*
G36*
G01*
X360699000Y-382212002D02*
X360699000Y-381311998D01*
G75*
G02*
X360948998Y-381062000I249998J0D01*
G01*
X361474002Y-381062000D01*
G75*
G02*
X361724000Y-381311998I0J-249998D01*
G01*
X361724000Y-382212002D01*
G75*
G02*
X361474002Y-382462000I-249998J0D01*
G01*
X360948998Y-382462000D01*
G75*
G02*
X360699000Y-382212002I0J249998D01*
G01*
G37*
G36*
G01*
X358874000Y-382212002D02*
X358874000Y-381311998D01*
G75*
G02*
X359123998Y-381062000I249998J0D01*
G01*
X359649002Y-381062000D01*
G75*
G02*
X359899000Y-381311998I0J-249998D01*
G01*
X359899000Y-382212002D01*
G75*
G02*
X359649002Y-382462000I-249998J0D01*
G01*
X359123998Y-382462000D01*
G75*
G02*
X358874000Y-382212002I0J249998D01*
G01*
G37*
D24*
X409219000Y-410932000D03*
X390119000Y-410932000D03*
D25*
X406919000Y-413632000D03*
X406419000Y-413632000D03*
X405919000Y-413632000D03*
X405419000Y-413632000D03*
X404919000Y-413632000D03*
X404419000Y-413632000D03*
X403919000Y-413632000D03*
X403419000Y-413632000D03*
X402919000Y-413632000D03*
X402419000Y-413632000D03*
X401919000Y-413632000D03*
X401419000Y-413632000D03*
X400919000Y-413632000D03*
X400419000Y-413632000D03*
X399919000Y-413632000D03*
X399419000Y-413632000D03*
X398919000Y-413632000D03*
X398419000Y-413632000D03*
X397919000Y-413632000D03*
X397419000Y-413632000D03*
X396919000Y-413632000D03*
X396419000Y-413632000D03*
X395919000Y-413632000D03*
X395419000Y-413632000D03*
X394919000Y-413632000D03*
X394419000Y-413632000D03*
X393919000Y-413632000D03*
X393419000Y-413632000D03*
X392919000Y-413632000D03*
X392419000Y-413632000D03*
G36*
G01*
X354825000Y-377962000D02*
X354825000Y-379212000D01*
G75*
G02*
X354575000Y-379462000I-250000J0D01*
G01*
X353825000Y-379462000D01*
G75*
G02*
X353575000Y-379212000I0J250000D01*
G01*
X353575000Y-377962000D01*
G75*
G02*
X353825000Y-377712000I250000J0D01*
G01*
X354575000Y-377712000D01*
G75*
G02*
X354825000Y-377962000I0J-250000D01*
G01*
G37*
G36*
G01*
X357625000Y-377962000D02*
X357625000Y-379212000D01*
G75*
G02*
X357375000Y-379462000I-250000J0D01*
G01*
X356625000Y-379462000D01*
G75*
G02*
X356375000Y-379212000I0J250000D01*
G01*
X356375000Y-377962000D01*
G75*
G02*
X356625000Y-377712000I250000J0D01*
G01*
X357375000Y-377712000D01*
G75*
G02*
X357625000Y-377962000I0J-250000D01*
G01*
G37*
D26*
X453450000Y-411230837D03*
X448250000Y-411230837D03*
X448250000Y-412680837D03*
X453450000Y-412680837D03*
X434400000Y-411230837D03*
X429200000Y-411230837D03*
X429200000Y-412680837D03*
X434400000Y-412680837D03*
D27*
X459105000Y-404750000D03*
X459105000Y-408050000D03*
X459105000Y-385700000D03*
X459105000Y-389000000D03*
X440055000Y-404750000D03*
X440055000Y-408050000D03*
X440055000Y-389000000D03*
X440055000Y-385700000D03*
D26*
X453450000Y-392183000D03*
X448250000Y-392183000D03*
X448250000Y-393633000D03*
X453450000Y-393633000D03*
X434400000Y-393633000D03*
X429200000Y-393633000D03*
X429200000Y-392183000D03*
X434400000Y-392183000D03*
G36*
G01*
X398087000Y-399509000D02*
X398087000Y-398559000D01*
G75*
G02*
X398337000Y-398309000I250000J0D01*
G01*
X398837000Y-398309000D01*
G75*
G02*
X399087000Y-398559000I0J-250000D01*
G01*
X399087000Y-399509000D01*
G75*
G02*
X398837000Y-399759000I-250000J0D01*
G01*
X398337000Y-399759000D01*
G75*
G02*
X398087000Y-399509000I0J250000D01*
G01*
G37*
G36*
G01*
X396187000Y-399509000D02*
X396187000Y-398559000D01*
G75*
G02*
X396437000Y-398309000I250000J0D01*
G01*
X396937000Y-398309000D01*
G75*
G02*
X397187000Y-398559000I0J-250000D01*
G01*
X397187000Y-399509000D01*
G75*
G02*
X396937000Y-399759000I-250000J0D01*
G01*
X396437000Y-399759000D01*
G75*
G02*
X396187000Y-399509000I0J250000D01*
G01*
G37*
G36*
G01*
X401607000Y-376116000D02*
X402557000Y-376116000D01*
G75*
G02*
X402807000Y-376366000I0J-250000D01*
G01*
X402807000Y-376866000D01*
G75*
G02*
X402557000Y-377116000I-250000J0D01*
G01*
X401607000Y-377116000D01*
G75*
G02*
X401357000Y-376866000I0J250000D01*
G01*
X401357000Y-376366000D01*
G75*
G02*
X401607000Y-376116000I250000J0D01*
G01*
G37*
G36*
G01*
X401607000Y-374216000D02*
X402557000Y-374216000D01*
G75*
G02*
X402807000Y-374466000I0J-250000D01*
G01*
X402807000Y-374966000D01*
G75*
G02*
X402557000Y-375216000I-250000J0D01*
G01*
X401607000Y-375216000D01*
G75*
G02*
X401357000Y-374966000I0J250000D01*
G01*
X401357000Y-374466000D01*
G75*
G02*
X401607000Y-374216000I250000J0D01*
G01*
G37*
G36*
G01*
X413581000Y-381221000D02*
X413581000Y-380271000D01*
G75*
G02*
X413831000Y-380021000I250000J0D01*
G01*
X414331000Y-380021000D01*
G75*
G02*
X414581000Y-380271000I0J-250000D01*
G01*
X414581000Y-381221000D01*
G75*
G02*
X414331000Y-381471000I-250000J0D01*
G01*
X413831000Y-381471000D01*
G75*
G02*
X413581000Y-381221000I0J250000D01*
G01*
G37*
G36*
G01*
X411681000Y-381221000D02*
X411681000Y-380271000D01*
G75*
G02*
X411931000Y-380021000I250000J0D01*
G01*
X412431000Y-380021000D01*
G75*
G02*
X412681000Y-380271000I0J-250000D01*
G01*
X412681000Y-381221000D01*
G75*
G02*
X412431000Y-381471000I-250000J0D01*
G01*
X411931000Y-381471000D01*
G75*
G02*
X411681000Y-381221000I0J250000D01*
G01*
G37*
G36*
G01*
X413581000Y-383253000D02*
X413581000Y-382303000D01*
G75*
G02*
X413831000Y-382053000I250000J0D01*
G01*
X414331000Y-382053000D01*
G75*
G02*
X414581000Y-382303000I0J-250000D01*
G01*
X414581000Y-383253000D01*
G75*
G02*
X414331000Y-383503000I-250000J0D01*
G01*
X413831000Y-383503000D01*
G75*
G02*
X413581000Y-383253000I0J250000D01*
G01*
G37*
G36*
G01*
X411681000Y-383253000D02*
X411681000Y-382303000D01*
G75*
G02*
X411931000Y-382053000I250000J0D01*
G01*
X412431000Y-382053000D01*
G75*
G02*
X412681000Y-382303000I0J-250000D01*
G01*
X412681000Y-383253000D01*
G75*
G02*
X412431000Y-383503000I-250000J0D01*
G01*
X411931000Y-383503000D01*
G75*
G02*
X411681000Y-383253000I0J250000D01*
G01*
G37*
G36*
G01*
X400525000Y-375216000D02*
X399575000Y-375216000D01*
G75*
G02*
X399325000Y-374966000I0J250000D01*
G01*
X399325000Y-374466000D01*
G75*
G02*
X399575000Y-374216000I250000J0D01*
G01*
X400525000Y-374216000D01*
G75*
G02*
X400775000Y-374466000I0J-250000D01*
G01*
X400775000Y-374966000D01*
G75*
G02*
X400525000Y-375216000I-250000J0D01*
G01*
G37*
G36*
G01*
X400525000Y-377116000D02*
X399575000Y-377116000D01*
G75*
G02*
X399325000Y-376866000I0J250000D01*
G01*
X399325000Y-376366000D01*
G75*
G02*
X399575000Y-376116000I250000J0D01*
G01*
X400525000Y-376116000D01*
G75*
G02*
X400775000Y-376366000I0J-250000D01*
G01*
X400775000Y-376866000D01*
G75*
G02*
X400525000Y-377116000I-250000J0D01*
G01*
G37*
G36*
G01*
X406621000Y-375216000D02*
X405671000Y-375216000D01*
G75*
G02*
X405421000Y-374966000I0J250000D01*
G01*
X405421000Y-374466000D01*
G75*
G02*
X405671000Y-374216000I250000J0D01*
G01*
X406621000Y-374216000D01*
G75*
G02*
X406871000Y-374466000I0J-250000D01*
G01*
X406871000Y-374966000D01*
G75*
G02*
X406621000Y-375216000I-250000J0D01*
G01*
G37*
G36*
G01*
X406621000Y-377116000D02*
X405671000Y-377116000D01*
G75*
G02*
X405421000Y-376866000I0J250000D01*
G01*
X405421000Y-376366000D01*
G75*
G02*
X405671000Y-376116000I250000J0D01*
G01*
X406621000Y-376116000D01*
G75*
G02*
X406871000Y-376366000I0J-250000D01*
G01*
X406871000Y-376866000D01*
G75*
G02*
X406621000Y-377116000I-250000J0D01*
G01*
G37*
G36*
G01*
X404589000Y-375216000D02*
X403639000Y-375216000D01*
G75*
G02*
X403389000Y-374966000I0J250000D01*
G01*
X403389000Y-374466000D01*
G75*
G02*
X403639000Y-374216000I250000J0D01*
G01*
X404589000Y-374216000D01*
G75*
G02*
X404839000Y-374466000I0J-250000D01*
G01*
X404839000Y-374966000D01*
G75*
G02*
X404589000Y-375216000I-250000J0D01*
G01*
G37*
G36*
G01*
X404589000Y-377116000D02*
X403639000Y-377116000D01*
G75*
G02*
X403389000Y-376866000I0J250000D01*
G01*
X403389000Y-376366000D01*
G75*
G02*
X403639000Y-376116000I250000J0D01*
G01*
X404589000Y-376116000D01*
G75*
G02*
X404839000Y-376366000I0J-250000D01*
G01*
X404839000Y-376866000D01*
G75*
G02*
X404589000Y-377116000I-250000J0D01*
G01*
G37*
G36*
G01*
X384650000Y-410776000D02*
X383700000Y-410776000D01*
G75*
G02*
X383450000Y-410526000I0J250000D01*
G01*
X383450000Y-410026000D01*
G75*
G02*
X383700000Y-409776000I250000J0D01*
G01*
X384650000Y-409776000D01*
G75*
G02*
X384900000Y-410026000I0J-250000D01*
G01*
X384900000Y-410526000D01*
G75*
G02*
X384650000Y-410776000I-250000J0D01*
G01*
G37*
G36*
G01*
X384650000Y-412676000D02*
X383700000Y-412676000D01*
G75*
G02*
X383450000Y-412426000I0J250000D01*
G01*
X383450000Y-411926000D01*
G75*
G02*
X383700000Y-411676000I250000J0D01*
G01*
X384650000Y-411676000D01*
G75*
G02*
X384900000Y-411926000I0J-250000D01*
G01*
X384900000Y-412426000D01*
G75*
G02*
X384650000Y-412676000I-250000J0D01*
G01*
G37*
G36*
G01*
X370111000Y-411676000D02*
X371061000Y-411676000D01*
G75*
G02*
X371311000Y-411926000I0J-250000D01*
G01*
X371311000Y-412426000D01*
G75*
G02*
X371061000Y-412676000I-250000J0D01*
G01*
X370111000Y-412676000D01*
G75*
G02*
X369861000Y-412426000I0J250000D01*
G01*
X369861000Y-411926000D01*
G75*
G02*
X370111000Y-411676000I250000J0D01*
G01*
G37*
G36*
G01*
X370111000Y-409776000D02*
X371061000Y-409776000D01*
G75*
G02*
X371311000Y-410026000I0J-250000D01*
G01*
X371311000Y-410526000D01*
G75*
G02*
X371061000Y-410776000I-250000J0D01*
G01*
X370111000Y-410776000D01*
G75*
G02*
X369861000Y-410526000I0J250000D01*
G01*
X369861000Y-410026000D01*
G75*
G02*
X370111000Y-409776000I250000J0D01*
G01*
G37*
G36*
G01*
X409354000Y-391356000D02*
X410304000Y-391356000D01*
G75*
G02*
X410554000Y-391606000I0J-250000D01*
G01*
X410554000Y-392106000D01*
G75*
G02*
X410304000Y-392356000I-250000J0D01*
G01*
X409354000Y-392356000D01*
G75*
G02*
X409104000Y-392106000I0J250000D01*
G01*
X409104000Y-391606000D01*
G75*
G02*
X409354000Y-391356000I250000J0D01*
G01*
G37*
G36*
G01*
X409354000Y-389456000D02*
X410304000Y-389456000D01*
G75*
G02*
X410554000Y-389706000I0J-250000D01*
G01*
X410554000Y-390206000D01*
G75*
G02*
X410304000Y-390456000I-250000J0D01*
G01*
X409354000Y-390456000D01*
G75*
G02*
X409104000Y-390206000I0J250000D01*
G01*
X409104000Y-389706000D01*
G75*
G02*
X409354000Y-389456000I250000J0D01*
G01*
G37*
G36*
G01*
X407322000Y-391356000D02*
X408272000Y-391356000D01*
G75*
G02*
X408522000Y-391606000I0J-250000D01*
G01*
X408522000Y-392106000D01*
G75*
G02*
X408272000Y-392356000I-250000J0D01*
G01*
X407322000Y-392356000D01*
G75*
G02*
X407072000Y-392106000I0J250000D01*
G01*
X407072000Y-391606000D01*
G75*
G02*
X407322000Y-391356000I250000J0D01*
G01*
G37*
G36*
G01*
X407322000Y-389456000D02*
X408272000Y-389456000D01*
G75*
G02*
X408522000Y-389706000I0J-250000D01*
G01*
X408522000Y-390206000D01*
G75*
G02*
X408272000Y-390456000I-250000J0D01*
G01*
X407322000Y-390456000D01*
G75*
G02*
X407072000Y-390206000I0J250000D01*
G01*
X407072000Y-389706000D01*
G75*
G02*
X407322000Y-389456000I250000J0D01*
G01*
G37*
G36*
G01*
X408272000Y-405569000D02*
X407322000Y-405569000D01*
G75*
G02*
X407072000Y-405319000I0J250000D01*
G01*
X407072000Y-404819000D01*
G75*
G02*
X407322000Y-404569000I250000J0D01*
G01*
X408272000Y-404569000D01*
G75*
G02*
X408522000Y-404819000I0J-250000D01*
G01*
X408522000Y-405319000D01*
G75*
G02*
X408272000Y-405569000I-250000J0D01*
G01*
G37*
G36*
G01*
X408272000Y-407469000D02*
X407322000Y-407469000D01*
G75*
G02*
X407072000Y-407219000I0J250000D01*
G01*
X407072000Y-406719000D01*
G75*
G02*
X407322000Y-406469000I250000J0D01*
G01*
X408272000Y-406469000D01*
G75*
G02*
X408522000Y-406719000I0J-250000D01*
G01*
X408522000Y-407219000D01*
G75*
G02*
X408272000Y-407469000I-250000J0D01*
G01*
G37*
G36*
G01*
X410304000Y-405569000D02*
X409354000Y-405569000D01*
G75*
G02*
X409104000Y-405319000I0J250000D01*
G01*
X409104000Y-404819000D01*
G75*
G02*
X409354000Y-404569000I250000J0D01*
G01*
X410304000Y-404569000D01*
G75*
G02*
X410554000Y-404819000I0J-250000D01*
G01*
X410554000Y-405319000D01*
G75*
G02*
X410304000Y-405569000I-250000J0D01*
G01*
G37*
G36*
G01*
X410304000Y-407469000D02*
X409354000Y-407469000D01*
G75*
G02*
X409104000Y-407219000I0J250000D01*
G01*
X409104000Y-406719000D01*
G75*
G02*
X409354000Y-406469000I250000J0D01*
G01*
X410304000Y-406469000D01*
G75*
G02*
X410554000Y-406719000I0J-250000D01*
G01*
X410554000Y-407219000D01*
G75*
G02*
X410304000Y-407469000I-250000J0D01*
G01*
G37*
G36*
G01*
X397187000Y-396527000D02*
X397187000Y-397477000D01*
G75*
G02*
X396937000Y-397727000I-250000J0D01*
G01*
X396437000Y-397727000D01*
G75*
G02*
X396187000Y-397477000I0J250000D01*
G01*
X396187000Y-396527000D01*
G75*
G02*
X396437000Y-396277000I250000J0D01*
G01*
X396937000Y-396277000D01*
G75*
G02*
X397187000Y-396527000I0J-250000D01*
G01*
G37*
G36*
G01*
X399087000Y-396527000D02*
X399087000Y-397477000D01*
G75*
G02*
X398837000Y-397727000I-250000J0D01*
G01*
X398337000Y-397727000D01*
G75*
G02*
X398087000Y-397477000I0J250000D01*
G01*
X398087000Y-396527000D01*
G75*
G02*
X398337000Y-396277000I250000J0D01*
G01*
X398837000Y-396277000D01*
G75*
G02*
X399087000Y-396527000I0J-250000D01*
G01*
G37*
G36*
G01*
X365600000Y-379026000D02*
X364650000Y-379026000D01*
G75*
G02*
X364400000Y-378776000I0J250000D01*
G01*
X364400000Y-378276000D01*
G75*
G02*
X364650000Y-378026000I250000J0D01*
G01*
X365600000Y-378026000D01*
G75*
G02*
X365850000Y-378276000I0J-250000D01*
G01*
X365850000Y-378776000D01*
G75*
G02*
X365600000Y-379026000I-250000J0D01*
G01*
G37*
G36*
G01*
X365600000Y-380926000D02*
X364650000Y-380926000D01*
G75*
G02*
X364400000Y-380676000I0J250000D01*
G01*
X364400000Y-380176000D01*
G75*
G02*
X364650000Y-379926000I250000J0D01*
G01*
X365600000Y-379926000D01*
G75*
G02*
X365850000Y-380176000I0J-250000D01*
G01*
X365850000Y-380676000D01*
G75*
G02*
X365600000Y-380926000I-250000J0D01*
G01*
G37*
G36*
G01*
X412427000Y-397797000D02*
X412427000Y-398747000D01*
G75*
G02*
X412177000Y-398997000I-250000J0D01*
G01*
X411677000Y-398997000D01*
G75*
G02*
X411427000Y-398747000I0J250000D01*
G01*
X411427000Y-397797000D01*
G75*
G02*
X411677000Y-397547000I250000J0D01*
G01*
X412177000Y-397547000D01*
G75*
G02*
X412427000Y-397797000I0J-250000D01*
G01*
G37*
G36*
G01*
X414327000Y-397797000D02*
X414327000Y-398747000D01*
G75*
G02*
X414077000Y-398997000I-250000J0D01*
G01*
X413577000Y-398997000D01*
G75*
G02*
X413327000Y-398747000I0J250000D01*
G01*
X413327000Y-397797000D01*
G75*
G02*
X413577000Y-397547000I250000J0D01*
G01*
X414077000Y-397547000D01*
G75*
G02*
X414327000Y-397797000I0J-250000D01*
G01*
G37*
G36*
G01*
X412427000Y-395765000D02*
X412427000Y-396715000D01*
G75*
G02*
X412177000Y-396965000I-250000J0D01*
G01*
X411677000Y-396965000D01*
G75*
G02*
X411427000Y-396715000I0J250000D01*
G01*
X411427000Y-395765000D01*
G75*
G02*
X411677000Y-395515000I250000J0D01*
G01*
X412177000Y-395515000D01*
G75*
G02*
X412427000Y-395765000I0J-250000D01*
G01*
G37*
G36*
G01*
X414327000Y-395765000D02*
X414327000Y-396715000D01*
G75*
G02*
X414077000Y-396965000I-250000J0D01*
G01*
X413577000Y-396965000D01*
G75*
G02*
X413327000Y-396715000I0J250000D01*
G01*
X413327000Y-395765000D01*
G75*
G02*
X413577000Y-395515000I250000J0D01*
G01*
X414077000Y-395515000D01*
G75*
G02*
X414327000Y-395765000I0J-250000D01*
G01*
G37*
G36*
G01*
X374810000Y-379926000D02*
X375760000Y-379926000D01*
G75*
G02*
X376010000Y-380176000I0J-250000D01*
G01*
X376010000Y-380676000D01*
G75*
G02*
X375760000Y-380926000I-250000J0D01*
G01*
X374810000Y-380926000D01*
G75*
G02*
X374560000Y-380676000I0J250000D01*
G01*
X374560000Y-380176000D01*
G75*
G02*
X374810000Y-379926000I250000J0D01*
G01*
G37*
G36*
G01*
X374810000Y-378026000D02*
X375760000Y-378026000D01*
G75*
G02*
X376010000Y-378276000I0J-250000D01*
G01*
X376010000Y-378776000D01*
G75*
G02*
X375760000Y-379026000I-250000J0D01*
G01*
X374810000Y-379026000D01*
G75*
G02*
X374560000Y-378776000I0J250000D01*
G01*
X374560000Y-378276000D01*
G75*
G02*
X374810000Y-378026000I250000J0D01*
G01*
G37*
G36*
G01*
X398087000Y-403573000D02*
X398087000Y-402623000D01*
G75*
G02*
X398337000Y-402373000I250000J0D01*
G01*
X398837000Y-402373000D01*
G75*
G02*
X399087000Y-402623000I0J-250000D01*
G01*
X399087000Y-403573000D01*
G75*
G02*
X398837000Y-403823000I-250000J0D01*
G01*
X398337000Y-403823000D01*
G75*
G02*
X398087000Y-403573000I0J250000D01*
G01*
G37*
G36*
G01*
X396187000Y-403573000D02*
X396187000Y-402623000D01*
G75*
G02*
X396437000Y-402373000I250000J0D01*
G01*
X396937000Y-402373000D01*
G75*
G02*
X397187000Y-402623000I0J-250000D01*
G01*
X397187000Y-403573000D01*
G75*
G02*
X396937000Y-403823000I-250000J0D01*
G01*
X396437000Y-403823000D01*
G75*
G02*
X396187000Y-403573000I0J250000D01*
G01*
G37*
G36*
G01*
X398087000Y-401541000D02*
X398087000Y-400591000D01*
G75*
G02*
X398337000Y-400341000I250000J0D01*
G01*
X398837000Y-400341000D01*
G75*
G02*
X399087000Y-400591000I0J-250000D01*
G01*
X399087000Y-401541000D01*
G75*
G02*
X398837000Y-401791000I-250000J0D01*
G01*
X398337000Y-401791000D01*
G75*
G02*
X398087000Y-401541000I0J250000D01*
G01*
G37*
G36*
G01*
X396187000Y-401541000D02*
X396187000Y-400591000D01*
G75*
G02*
X396437000Y-400341000I250000J0D01*
G01*
X396937000Y-400341000D01*
G75*
G02*
X397187000Y-400591000I0J-250000D01*
G01*
X397187000Y-401541000D01*
G75*
G02*
X396937000Y-401791000I-250000J0D01*
G01*
X396437000Y-401791000D01*
G75*
G02*
X396187000Y-401541000I0J250000D01*
G01*
G37*
G36*
G01*
X409923000Y-418391000D02*
X408973000Y-418391000D01*
G75*
G02*
X408723000Y-418141000I0J250000D01*
G01*
X408723000Y-417641000D01*
G75*
G02*
X408973000Y-417391000I250000J0D01*
G01*
X409923000Y-417391000D01*
G75*
G02*
X410173000Y-417641000I0J-250000D01*
G01*
X410173000Y-418141000D01*
G75*
G02*
X409923000Y-418391000I-250000J0D01*
G01*
G37*
G36*
G01*
X409923000Y-416491000D02*
X408973000Y-416491000D01*
G75*
G02*
X408723000Y-416241000I0J250000D01*
G01*
X408723000Y-415741000D01*
G75*
G02*
X408973000Y-415491000I250000J0D01*
G01*
X409923000Y-415491000D01*
G75*
G02*
X410173000Y-415741000I0J-250000D01*
G01*
X410173000Y-416241000D01*
G75*
G02*
X409923000Y-416491000I-250000J0D01*
G01*
G37*
G36*
G01*
X380997000Y-401099000D02*
X380997000Y-402049000D01*
G75*
G02*
X380747000Y-402299000I-250000J0D01*
G01*
X380247000Y-402299000D01*
G75*
G02*
X379997000Y-402049000I0J250000D01*
G01*
X379997000Y-401099000D01*
G75*
G02*
X380247000Y-400849000I250000J0D01*
G01*
X380747000Y-400849000D01*
G75*
G02*
X380997000Y-401099000I0J-250000D01*
G01*
G37*
G36*
G01*
X382897000Y-401099000D02*
X382897000Y-402049000D01*
G75*
G02*
X382647000Y-402299000I-250000J0D01*
G01*
X382147000Y-402299000D01*
G75*
G02*
X381897000Y-402049000I0J250000D01*
G01*
X381897000Y-401099000D01*
G75*
G02*
X382147000Y-400849000I250000J0D01*
G01*
X382647000Y-400849000D01*
G75*
G02*
X382897000Y-401099000I0J-250000D01*
G01*
G37*
G36*
G01*
X363212000Y-403512000D02*
X363212000Y-404462000D01*
G75*
G02*
X362962000Y-404712000I-250000J0D01*
G01*
X362462000Y-404712000D01*
G75*
G02*
X362212000Y-404462000I0J250000D01*
G01*
X362212000Y-403512000D01*
G75*
G02*
X362462000Y-403262000I250000J0D01*
G01*
X362962000Y-403262000D01*
G75*
G02*
X363212000Y-403512000I0J-250000D01*
G01*
G37*
G36*
G01*
X365112000Y-403512000D02*
X365112000Y-404462000D01*
G75*
G02*
X364862000Y-404712000I-250000J0D01*
G01*
X364362000Y-404712000D01*
G75*
G02*
X364112000Y-404462000I0J250000D01*
G01*
X364112000Y-403512000D01*
G75*
G02*
X364362000Y-403262000I250000J0D01*
G01*
X364862000Y-403262000D01*
G75*
G02*
X365112000Y-403512000I0J-250000D01*
G01*
G37*
G36*
G01*
X360139000Y-385503000D02*
X359189000Y-385503000D01*
G75*
G02*
X358939000Y-385253000I0J250000D01*
G01*
X358939000Y-384753000D01*
G75*
G02*
X359189000Y-384503000I250000J0D01*
G01*
X360139000Y-384503000D01*
G75*
G02*
X360389000Y-384753000I0J-250000D01*
G01*
X360389000Y-385253000D01*
G75*
G02*
X360139000Y-385503000I-250000J0D01*
G01*
G37*
G36*
G01*
X360139000Y-387403000D02*
X359189000Y-387403000D01*
G75*
G02*
X358939000Y-387153000I0J250000D01*
G01*
X358939000Y-386653000D01*
G75*
G02*
X359189000Y-386403000I250000J0D01*
G01*
X360139000Y-386403000D01*
G75*
G02*
X360389000Y-386653000I0J-250000D01*
G01*
X360389000Y-387153000D01*
G75*
G02*
X360139000Y-387403000I-250000J0D01*
G01*
G37*
G36*
G01*
X360139000Y-399473000D02*
X359189000Y-399473000D01*
G75*
G02*
X358939000Y-399223000I0J250000D01*
G01*
X358939000Y-398723000D01*
G75*
G02*
X359189000Y-398473000I250000J0D01*
G01*
X360139000Y-398473000D01*
G75*
G02*
X360389000Y-398723000I0J-250000D01*
G01*
X360389000Y-399223000D01*
G75*
G02*
X360139000Y-399473000I-250000J0D01*
G01*
G37*
G36*
G01*
X360139000Y-401373000D02*
X359189000Y-401373000D01*
G75*
G02*
X358939000Y-401123000I0J250000D01*
G01*
X358939000Y-400623000D01*
G75*
G02*
X359189000Y-400373000I250000J0D01*
G01*
X360139000Y-400373000D01*
G75*
G02*
X360389000Y-400623000I0J-250000D01*
G01*
X360389000Y-401123000D01*
G75*
G02*
X360139000Y-401373000I-250000J0D01*
G01*
G37*
G36*
G01*
X407891000Y-416491000D02*
X406941000Y-416491000D01*
G75*
G02*
X406691000Y-416241000I0J250000D01*
G01*
X406691000Y-415741000D01*
G75*
G02*
X406941000Y-415491000I250000J0D01*
G01*
X407891000Y-415491000D01*
G75*
G02*
X408141000Y-415741000I0J-250000D01*
G01*
X408141000Y-416241000D01*
G75*
G02*
X407891000Y-416491000I-250000J0D01*
G01*
G37*
G36*
G01*
X407891000Y-418391000D02*
X406941000Y-418391000D01*
G75*
G02*
X406691000Y-418141000I0J250000D01*
G01*
X406691000Y-417641000D01*
G75*
G02*
X406941000Y-417391000I250000J0D01*
G01*
X407891000Y-417391000D01*
G75*
G02*
X408141000Y-417641000I0J-250000D01*
G01*
X408141000Y-418141000D01*
G75*
G02*
X407891000Y-418391000I-250000J0D01*
G01*
G37*
G36*
G01*
X405859000Y-416491000D02*
X404909000Y-416491000D01*
G75*
G02*
X404659000Y-416241000I0J250000D01*
G01*
X404659000Y-415741000D01*
G75*
G02*
X404909000Y-415491000I250000J0D01*
G01*
X405859000Y-415491000D01*
G75*
G02*
X406109000Y-415741000I0J-250000D01*
G01*
X406109000Y-416241000D01*
G75*
G02*
X405859000Y-416491000I-250000J0D01*
G01*
G37*
G36*
G01*
X405859000Y-418391000D02*
X404909000Y-418391000D01*
G75*
G02*
X404659000Y-418141000I0J250000D01*
G01*
X404659000Y-417641000D01*
G75*
G02*
X404909000Y-417391000I250000J0D01*
G01*
X405859000Y-417391000D01*
G75*
G02*
X406109000Y-417641000I0J-250000D01*
G01*
X406109000Y-418141000D01*
G75*
G02*
X405859000Y-418391000I-250000J0D01*
G01*
G37*
G36*
G01*
X358579000Y-393479000D02*
X358579000Y-394429000D01*
G75*
G02*
X358329000Y-394679000I-250000J0D01*
G01*
X357829000Y-394679000D01*
G75*
G02*
X357579000Y-394429000I0J250000D01*
G01*
X357579000Y-393479000D01*
G75*
G02*
X357829000Y-393229000I250000J0D01*
G01*
X358329000Y-393229000D01*
G75*
G02*
X358579000Y-393479000I0J-250000D01*
G01*
G37*
G36*
G01*
X360479000Y-393479000D02*
X360479000Y-394429000D01*
G75*
G02*
X360229000Y-394679000I-250000J0D01*
G01*
X359729000Y-394679000D01*
G75*
G02*
X359479000Y-394429000I0J250000D01*
G01*
X359479000Y-393479000D01*
G75*
G02*
X359729000Y-393229000I250000J0D01*
G01*
X360229000Y-393229000D01*
G75*
G02*
X360479000Y-393479000I0J-250000D01*
G01*
G37*
G36*
G01*
X396715000Y-416491000D02*
X395765000Y-416491000D01*
G75*
G02*
X395515000Y-416241000I0J250000D01*
G01*
X395515000Y-415741000D01*
G75*
G02*
X395765000Y-415491000I250000J0D01*
G01*
X396715000Y-415491000D01*
G75*
G02*
X396965000Y-415741000I0J-250000D01*
G01*
X396965000Y-416241000D01*
G75*
G02*
X396715000Y-416491000I-250000J0D01*
G01*
G37*
G36*
G01*
X396715000Y-418391000D02*
X395765000Y-418391000D01*
G75*
G02*
X395515000Y-418141000I0J250000D01*
G01*
X395515000Y-417641000D01*
G75*
G02*
X395765000Y-417391000I250000J0D01*
G01*
X396715000Y-417391000D01*
G75*
G02*
X396965000Y-417641000I0J-250000D01*
G01*
X396965000Y-418141000D01*
G75*
G02*
X396715000Y-418391000I-250000J0D01*
G01*
G37*
G36*
G01*
X398747000Y-416491000D02*
X397797000Y-416491000D01*
G75*
G02*
X397547000Y-416241000I0J250000D01*
G01*
X397547000Y-415741000D01*
G75*
G02*
X397797000Y-415491000I250000J0D01*
G01*
X398747000Y-415491000D01*
G75*
G02*
X398997000Y-415741000I0J-250000D01*
G01*
X398997000Y-416241000D01*
G75*
G02*
X398747000Y-416491000I-250000J0D01*
G01*
G37*
G36*
G01*
X398747000Y-418391000D02*
X397797000Y-418391000D01*
G75*
G02*
X397547000Y-418141000I0J250000D01*
G01*
X397547000Y-417641000D01*
G75*
G02*
X397797000Y-417391000I250000J0D01*
G01*
X398747000Y-417391000D01*
G75*
G02*
X398997000Y-417641000I0J-250000D01*
G01*
X398997000Y-418141000D01*
G75*
G02*
X398747000Y-418391000I-250000J0D01*
G01*
G37*
G36*
G01*
X392996000Y-415958000D02*
X392996000Y-416908000D01*
G75*
G02*
X392746000Y-417158000I-250000J0D01*
G01*
X392246000Y-417158000D01*
G75*
G02*
X391996000Y-416908000I0J250000D01*
G01*
X391996000Y-415958000D01*
G75*
G02*
X392246000Y-415708000I250000J0D01*
G01*
X392746000Y-415708000D01*
G75*
G02*
X392996000Y-415958000I0J-250000D01*
G01*
G37*
G36*
G01*
X394896000Y-415958000D02*
X394896000Y-416908000D01*
G75*
G02*
X394646000Y-417158000I-250000J0D01*
G01*
X394146000Y-417158000D01*
G75*
G02*
X393896000Y-416908000I0J250000D01*
G01*
X393896000Y-415958000D01*
G75*
G02*
X394146000Y-415708000I250000J0D01*
G01*
X394646000Y-415708000D01*
G75*
G02*
X394896000Y-415958000I0J-250000D01*
G01*
G37*
G36*
G01*
X389440000Y-415958000D02*
X389440000Y-416908000D01*
G75*
G02*
X389190000Y-417158000I-250000J0D01*
G01*
X388690000Y-417158000D01*
G75*
G02*
X388440000Y-416908000I0J250000D01*
G01*
X388440000Y-415958000D01*
G75*
G02*
X388690000Y-415708000I250000J0D01*
G01*
X389190000Y-415708000D01*
G75*
G02*
X389440000Y-415958000I0J-250000D01*
G01*
G37*
G36*
G01*
X391340000Y-415958000D02*
X391340000Y-416908000D01*
G75*
G02*
X391090000Y-417158000I-250000J0D01*
G01*
X390590000Y-417158000D01*
G75*
G02*
X390340000Y-416908000I0J250000D01*
G01*
X390340000Y-415958000D01*
G75*
G02*
X390590000Y-415708000I250000J0D01*
G01*
X391090000Y-415708000D01*
G75*
G02*
X391340000Y-415958000I0J-250000D01*
G01*
G37*
M02*
