G04 #@! TF.GenerationSoftware,KiCad,Pcbnew,(5.1.10)-1*
G04 #@! TF.CreationDate,2021-07-23T06:30:34-04:00*
G04 #@! TF.ProjectId,ProtoTooManyKeys,50726f74-6f54-46f6-9f4d-616e794b6579,1.5*
G04 #@! TF.SameCoordinates,Original*
G04 #@! TF.FileFunction,Legend,Bot*
G04 #@! TF.FilePolarity,Positive*
%FSLAX46Y46*%
G04 Gerber Fmt 4.6, Leading zero omitted, Abs format (unit mm)*
G04 Created by KiCad (PCBNEW (5.1.10)-1) date 2021-07-23 06:30:34*
%MOMM*%
%LPD*%
G01*
G04 APERTURE LIST*
%ADD10C,0.120000*%
%ADD11C,0.200000*%
%ADD12C,0.400000*%
%ADD13C,0.250000*%
%ADD14C,0.150000*%
%ADD15C,0.100000*%
%ADD16C,0.254000*%
G04 APERTURE END LIST*
D10*
X376308252Y-402998000D02*
X375785748Y-402998000D01*
X376308252Y-404468000D02*
X375785748Y-404468000D01*
D11*
X377990000Y-406543000D02*
X376390000Y-406543000D01*
X376390000Y-406543000D02*
X376390000Y-408543000D01*
X376390000Y-408543000D02*
X377990000Y-408543000D01*
X377990000Y-408543000D02*
X377990000Y-406543000D01*
X379190000Y-406293000D02*
X378340000Y-406293000D01*
X364031250Y-399556250D02*
X377331250Y-399556250D01*
X377331250Y-399556250D02*
X377331250Y-386256250D01*
X377331250Y-386256250D02*
X364031250Y-386256250D01*
X364031250Y-386256250D02*
X364031250Y-399556250D01*
D12*
X362806250Y-400106250D02*
G75*
G03*
X362806250Y-400106250I-200000J0D01*
G01*
D13*
X400911000Y-402407000D02*
G75*
G03*
X400911000Y-402407000I-125000J0D01*
G01*
X400911000Y-387040000D02*
G75*
G03*
X400911000Y-387040000I-125000J0D01*
G01*
D10*
X370579487Y-382056940D02*
X367751060Y-379228513D01*
X372912940Y-379723487D02*
X370579487Y-382056940D01*
X373217000Y-416541000D02*
X379227000Y-416541000D01*
X375467000Y-409721000D02*
X379227000Y-409721000D01*
X379227000Y-416541000D02*
X379227000Y-415281000D01*
X379227000Y-409721000D02*
X379227000Y-410981000D01*
D14*
X344282000Y-377010000D02*
X344282000Y-379910000D01*
X344282000Y-377010000D02*
X345582000Y-377010000D01*
X345582000Y-377010000D02*
X345582000Y-379910000D01*
X345582000Y-379910000D02*
X344282000Y-379910000D01*
X349945000Y-403800000D02*
X344745000Y-403800000D01*
X344745000Y-403800000D02*
X344745000Y-409000000D01*
X344745000Y-409000000D02*
X349945000Y-409000000D01*
X349945000Y-409000000D02*
X349945000Y-403800000D01*
X348345000Y-406400000D02*
G75*
G03*
X348345000Y-406400000I-1000000J0D01*
G01*
D10*
X412903936Y-384964000D02*
X413358064Y-384964000D01*
X412903936Y-386434000D02*
X413358064Y-386434000D01*
X402436000Y-390678936D02*
X402436000Y-391133064D01*
X400966000Y-390678936D02*
X400966000Y-391133064D01*
X404468000Y-390678936D02*
X404468000Y-391133064D01*
X402998000Y-390678936D02*
X402998000Y-391133064D01*
X412649936Y-400458000D02*
X413104064Y-400458000D01*
X412649936Y-401928000D02*
X413104064Y-401928000D01*
X402436000Y-405791936D02*
X402436000Y-406246064D01*
X400966000Y-405791936D02*
X400966000Y-406246064D01*
X404468000Y-405791936D02*
X404468000Y-406246064D01*
X402998000Y-405791936D02*
X402998000Y-406246064D01*
X372390936Y-407443000D02*
X372845064Y-407443000D01*
X372390936Y-408913000D02*
X372845064Y-408913000D01*
X372390936Y-405030000D02*
X372845064Y-405030000D01*
X372390936Y-406500000D02*
X372845064Y-406500000D01*
X372390936Y-402998000D02*
X372845064Y-402998000D01*
X372390936Y-404468000D02*
X372845064Y-404468000D01*
X402617000Y-416713936D02*
X402617000Y-417168064D01*
X404087000Y-416713936D02*
X404087000Y-417168064D01*
X383132000Y-395631936D02*
X383132000Y-396086064D01*
X381662000Y-395631936D02*
X381662000Y-396086064D01*
X348896000Y-376401064D02*
X348896000Y-375946936D01*
X350366000Y-376401064D02*
X350366000Y-375946936D01*
X382243064Y-408659000D02*
X381788936Y-408659000D01*
X382243064Y-407189000D02*
X381788936Y-407189000D01*
X381788936Y-404903000D02*
X382243064Y-404903000D01*
X381788936Y-406373000D02*
X382243064Y-406373000D01*
X339879000Y-376528064D02*
X339879000Y-376073936D01*
X341349000Y-376528064D02*
X341349000Y-376073936D01*
X345213000Y-382497064D02*
X345213000Y-382042936D01*
X346683000Y-382497064D02*
X346683000Y-382042936D01*
X343181000Y-382497064D02*
X343181000Y-382042936D01*
X344651000Y-382497064D02*
X344651000Y-382042936D01*
X360071936Y-381027000D02*
X360526064Y-381027000D01*
X360071936Y-382497000D02*
X360526064Y-382497000D01*
D15*
X344125000Y-411250000D02*
X344125000Y-416250000D01*
X352025000Y-411250000D02*
X344125000Y-411250000D01*
X352025000Y-416250000D02*
X352025000Y-411250000D01*
X344125000Y-416250000D02*
X352025000Y-416250000D01*
X409219000Y-413132000D02*
X409219000Y-412132000D01*
X407669000Y-413132000D02*
X409219000Y-413132000D01*
X409219000Y-409082000D02*
X409219000Y-409632000D01*
X390119000Y-409082000D02*
X409219000Y-409082000D01*
X390119000Y-409132000D02*
X390119000Y-409082000D01*
X390119000Y-409632000D02*
X390119000Y-409132000D01*
X390119000Y-413132000D02*
X390119000Y-412132000D01*
X390169000Y-413132000D02*
X390119000Y-413132000D01*
X391669000Y-413132000D02*
X390169000Y-413132000D01*
D10*
X356202064Y-379497000D02*
X354997936Y-379497000D01*
X356202064Y-377677000D02*
X354997936Y-377677000D01*
D15*
X449750000Y-413355837D02*
X449250000Y-413355837D01*
X449250000Y-413355837D02*
X449250000Y-412680837D01*
X449250000Y-411230837D02*
X449250000Y-410555837D01*
X449250000Y-410555837D02*
X449750000Y-410555837D01*
X451950000Y-410555837D02*
X452450000Y-410555837D01*
X452450000Y-410555837D02*
X452450000Y-411230837D01*
X451950000Y-413355837D02*
X452450000Y-413355837D01*
X452450000Y-413355837D02*
X452450000Y-412680837D01*
D11*
X454540000Y-412735837D02*
G75*
G02*
X454540000Y-412535837I0J100000D01*
G01*
X454540000Y-412535837D02*
G75*
G02*
X454540000Y-412735837I0J-100000D01*
G01*
D15*
X430700000Y-413355837D02*
X430200000Y-413355837D01*
X430200000Y-413355837D02*
X430200000Y-412680837D01*
X430200000Y-411230837D02*
X430200000Y-410555837D01*
X430200000Y-410555837D02*
X430700000Y-410555837D01*
X432900000Y-410555837D02*
X433400000Y-410555837D01*
X433400000Y-410555837D02*
X433400000Y-411230837D01*
X432900000Y-413355837D02*
X433400000Y-413355837D01*
X433400000Y-413355837D02*
X433400000Y-412680837D01*
D11*
X435490000Y-412735837D02*
G75*
G02*
X435490000Y-412535837I0J100000D01*
G01*
X435490000Y-412535837D02*
G75*
G02*
X435490000Y-412735837I0J-100000D01*
G01*
D10*
X460105000Y-408650000D02*
X460105000Y-404750000D01*
X458105000Y-408650000D02*
X458105000Y-404750000D01*
X460105000Y-408650000D02*
X458105000Y-408650000D01*
X460105000Y-389600000D02*
X460105000Y-385700000D01*
X458105000Y-389600000D02*
X458105000Y-385700000D01*
X460105000Y-389600000D02*
X458105000Y-389600000D01*
X441055000Y-408650000D02*
X441055000Y-404750000D01*
X439055000Y-408650000D02*
X439055000Y-404750000D01*
X441055000Y-408650000D02*
X439055000Y-408650000D01*
X441055000Y-389600000D02*
X439055000Y-389600000D01*
X439055000Y-389600000D02*
X439055000Y-385700000D01*
X441055000Y-389600000D02*
X441055000Y-385700000D01*
D15*
X449750000Y-394308000D02*
X449250000Y-394308000D01*
X449250000Y-394308000D02*
X449250000Y-393633000D01*
X449250000Y-392183000D02*
X449250000Y-391508000D01*
X449250000Y-391508000D02*
X449750000Y-391508000D01*
X451950000Y-391508000D02*
X452450000Y-391508000D01*
X452450000Y-391508000D02*
X452450000Y-392183000D01*
X451950000Y-394308000D02*
X452450000Y-394308000D01*
X452450000Y-394308000D02*
X452450000Y-393633000D01*
D11*
X454540000Y-393688000D02*
G75*
G02*
X454540000Y-393488000I0J100000D01*
G01*
X454540000Y-393488000D02*
G75*
G02*
X454540000Y-393688000I0J-100000D01*
G01*
D15*
X433400000Y-394308000D02*
X433400000Y-393633000D01*
X432900000Y-394308000D02*
X433400000Y-394308000D01*
X433400000Y-391508000D02*
X433400000Y-392183000D01*
X432900000Y-391508000D02*
X433400000Y-391508000D01*
X430200000Y-391508000D02*
X430700000Y-391508000D01*
X430200000Y-392183000D02*
X430200000Y-391508000D01*
X430200000Y-394308000D02*
X430200000Y-393633000D01*
X430700000Y-394308000D02*
X430200000Y-394308000D01*
D11*
X435490000Y-393488000D02*
G75*
G02*
X435490000Y-393688000I0J-100000D01*
G01*
X435490000Y-393688000D02*
G75*
G02*
X435490000Y-393488000I0J100000D01*
G01*
D10*
X397375748Y-398299000D02*
X397898252Y-398299000D01*
X397375748Y-399769000D02*
X397898252Y-399769000D01*
X402817000Y-375404748D02*
X402817000Y-375927252D01*
X401347000Y-375404748D02*
X401347000Y-375927252D01*
X412869748Y-380011000D02*
X413392252Y-380011000D01*
X412869748Y-381481000D02*
X413392252Y-381481000D01*
X412869748Y-382043000D02*
X413392252Y-382043000D01*
X412869748Y-383513000D02*
X413392252Y-383513000D01*
X399315000Y-375927252D02*
X399315000Y-375404748D01*
X400785000Y-375927252D02*
X400785000Y-375404748D01*
X405411000Y-375927252D02*
X405411000Y-375404748D01*
X406881000Y-375927252D02*
X406881000Y-375404748D01*
X403379000Y-375927252D02*
X403379000Y-375404748D01*
X404849000Y-375927252D02*
X404849000Y-375404748D01*
X383440000Y-411487252D02*
X383440000Y-410964748D01*
X384910000Y-411487252D02*
X384910000Y-410964748D01*
X371321000Y-410964748D02*
X371321000Y-411487252D01*
X369851000Y-410964748D02*
X369851000Y-411487252D01*
X410564000Y-390644748D02*
X410564000Y-391167252D01*
X409094000Y-390644748D02*
X409094000Y-391167252D01*
X408532000Y-390644748D02*
X408532000Y-391167252D01*
X407062000Y-390644748D02*
X407062000Y-391167252D01*
X407062000Y-406280252D02*
X407062000Y-405757748D01*
X408532000Y-406280252D02*
X408532000Y-405757748D01*
X409094000Y-406280252D02*
X409094000Y-405757748D01*
X410564000Y-406280252D02*
X410564000Y-405757748D01*
X397898252Y-397737000D02*
X397375748Y-397737000D01*
X397898252Y-396267000D02*
X397375748Y-396267000D01*
X364390000Y-379737252D02*
X364390000Y-379214748D01*
X365860000Y-379737252D02*
X365860000Y-379214748D01*
X413138252Y-399007000D02*
X412615748Y-399007000D01*
X413138252Y-397537000D02*
X412615748Y-397537000D01*
X413138252Y-396975000D02*
X412615748Y-396975000D01*
X413138252Y-395505000D02*
X412615748Y-395505000D01*
X376020000Y-379214748D02*
X376020000Y-379737252D01*
X374550000Y-379214748D02*
X374550000Y-379737252D01*
X397375748Y-402363000D02*
X397898252Y-402363000D01*
X397375748Y-403833000D02*
X397898252Y-403833000D01*
X397375748Y-400331000D02*
X397898252Y-400331000D01*
X397375748Y-401801000D02*
X397898252Y-401801000D01*
X410183000Y-417202252D02*
X410183000Y-416679748D01*
X408713000Y-417202252D02*
X408713000Y-416679748D01*
X381708252Y-402309000D02*
X381185748Y-402309000D01*
X381708252Y-400839000D02*
X381185748Y-400839000D01*
X363923252Y-404722000D02*
X363400748Y-404722000D01*
X363923252Y-403252000D02*
X363400748Y-403252000D01*
X358929000Y-386214252D02*
X358929000Y-385691748D01*
X360399000Y-386214252D02*
X360399000Y-385691748D01*
X358929000Y-400184252D02*
X358929000Y-399661748D01*
X360399000Y-400184252D02*
X360399000Y-399661748D01*
X406681000Y-417202252D02*
X406681000Y-416679748D01*
X408151000Y-417202252D02*
X408151000Y-416679748D01*
X404649000Y-417202252D02*
X404649000Y-416679748D01*
X406119000Y-417202252D02*
X406119000Y-416679748D01*
X359290252Y-394689000D02*
X358767748Y-394689000D01*
X359290252Y-393219000D02*
X358767748Y-393219000D01*
X395505000Y-417202252D02*
X395505000Y-416679748D01*
X396975000Y-417202252D02*
X396975000Y-416679748D01*
X397537000Y-417202252D02*
X397537000Y-416679748D01*
X399007000Y-417202252D02*
X399007000Y-416679748D01*
X393707252Y-417168000D02*
X393184748Y-417168000D01*
X393707252Y-415698000D02*
X393184748Y-415698000D01*
X390151252Y-417168000D02*
X389628748Y-417168000D01*
X390151252Y-415698000D02*
X389628748Y-415698000D01*
D14*
X376689857Y-402410142D02*
X376737476Y-402457761D01*
X376880333Y-402505380D01*
X376975571Y-402505380D01*
X377118428Y-402457761D01*
X377213666Y-402362523D01*
X377261285Y-402267285D01*
X377308904Y-402076809D01*
X377308904Y-401933952D01*
X377261285Y-401743476D01*
X377213666Y-401648238D01*
X377118428Y-401553000D01*
X376975571Y-401505380D01*
X376880333Y-401505380D01*
X376737476Y-401553000D01*
X376689857Y-401600619D01*
X376356523Y-401505380D02*
X375737476Y-401505380D01*
X376070809Y-401886333D01*
X375927952Y-401886333D01*
X375832714Y-401933952D01*
X375785095Y-401981571D01*
X375737476Y-402076809D01*
X375737476Y-402314904D01*
X375785095Y-402410142D01*
X375832714Y-402457761D01*
X375927952Y-402505380D01*
X376213666Y-402505380D01*
X376308904Y-402457761D01*
X376356523Y-402410142D01*
X375404142Y-401505380D02*
X374785095Y-401505380D01*
X375118428Y-401886333D01*
X374975571Y-401886333D01*
X374880333Y-401933952D01*
X374832714Y-401981571D01*
X374785095Y-402076809D01*
X374785095Y-402314904D01*
X374832714Y-402410142D01*
X374880333Y-402457761D01*
X374975571Y-402505380D01*
X375261285Y-402505380D01*
X375356523Y-402457761D01*
X375404142Y-402410142D01*
D16*
X378157619Y-406847523D02*
X378157619Y-407875619D01*
X378097142Y-407996571D01*
X378036666Y-408057047D01*
X377915714Y-408117523D01*
X377673809Y-408117523D01*
X377552857Y-408057047D01*
X377492380Y-407996571D01*
X377431904Y-407875619D01*
X377431904Y-406847523D01*
X376948095Y-406847523D02*
X376161904Y-406847523D01*
X376585238Y-407331333D01*
X376403809Y-407331333D01*
X376282857Y-407391809D01*
X376222380Y-407452285D01*
X376161904Y-407573238D01*
X376161904Y-407875619D01*
X376222380Y-407996571D01*
X376282857Y-408057047D01*
X376403809Y-408117523D01*
X376766666Y-408117523D01*
X376887619Y-408057047D01*
X376948095Y-407996571D01*
X371648869Y-392210773D02*
X371648869Y-393238869D01*
X371588392Y-393359821D01*
X371527916Y-393420297D01*
X371406964Y-393480773D01*
X371165059Y-393480773D01*
X371044107Y-393420297D01*
X370983630Y-393359821D01*
X370923154Y-393238869D01*
X370923154Y-392210773D01*
X370378869Y-392331726D02*
X370318392Y-392271250D01*
X370197440Y-392210773D01*
X369895059Y-392210773D01*
X369774107Y-392271250D01*
X369713630Y-392331726D01*
X369653154Y-392452678D01*
X369653154Y-392573630D01*
X369713630Y-392755059D01*
X370439345Y-393480773D01*
X369653154Y-393480773D01*
X409804809Y-399421047D02*
X409623380Y-399481523D01*
X409321000Y-399481523D01*
X409200047Y-399421047D01*
X409139571Y-399360571D01*
X409079095Y-399239619D01*
X409079095Y-399118666D01*
X409139571Y-398997714D01*
X409200047Y-398937238D01*
X409321000Y-398876761D01*
X409562904Y-398816285D01*
X409683857Y-398755809D01*
X409744333Y-398695333D01*
X409804809Y-398574380D01*
X409804809Y-398453428D01*
X409744333Y-398332476D01*
X409683857Y-398272000D01*
X409562904Y-398211523D01*
X409260523Y-398211523D01*
X409079095Y-398272000D01*
X407930047Y-399481523D02*
X408534809Y-399481523D01*
X408534809Y-398211523D01*
X407567190Y-399118666D02*
X406962428Y-399118666D01*
X407688142Y-399481523D02*
X407264809Y-398211523D01*
X406841476Y-399481523D01*
X406599571Y-398211523D02*
X406176238Y-399481523D01*
X405752904Y-398211523D01*
X405329571Y-398816285D02*
X404906238Y-398816285D01*
X404724809Y-399481523D02*
X405329571Y-399481523D01*
X405329571Y-398211523D01*
X404724809Y-398211523D01*
X404482904Y-399602476D02*
X403515285Y-399602476D01*
X403212904Y-398211523D02*
X403212904Y-399239619D01*
X403152428Y-399360571D01*
X403091952Y-399421047D01*
X402971000Y-399481523D01*
X402729095Y-399481523D01*
X402608142Y-399421047D01*
X402547666Y-399360571D01*
X402487190Y-399239619D01*
X402487190Y-398211523D01*
X401217190Y-399481523D02*
X401942904Y-399481523D01*
X401580047Y-399481523D02*
X401580047Y-398211523D01*
X401701000Y-398392952D01*
X401821952Y-398513904D01*
X401942904Y-398574380D01*
X410530523Y-384114523D02*
X410530523Y-382844523D01*
X410107190Y-383751666D01*
X409683857Y-382844523D01*
X409683857Y-384114523D01*
X409139571Y-383751666D02*
X408534809Y-383751666D01*
X409260523Y-384114523D02*
X408837190Y-382844523D01*
X408413857Y-384114523D01*
X408051000Y-384054047D02*
X407869571Y-384114523D01*
X407567190Y-384114523D01*
X407446238Y-384054047D01*
X407385761Y-383993571D01*
X407325285Y-383872619D01*
X407325285Y-383751666D01*
X407385761Y-383630714D01*
X407446238Y-383570238D01*
X407567190Y-383509761D01*
X407809095Y-383449285D01*
X407930047Y-383388809D01*
X407990523Y-383328333D01*
X408051000Y-383207380D01*
X408051000Y-383086428D01*
X407990523Y-382965476D01*
X407930047Y-382905000D01*
X407809095Y-382844523D01*
X407506714Y-382844523D01*
X407325285Y-382905000D01*
X406962428Y-382844523D02*
X406236714Y-382844523D01*
X406599571Y-384114523D02*
X406599571Y-382844523D01*
X405813380Y-383449285D02*
X405390047Y-383449285D01*
X405208619Y-384114523D02*
X405813380Y-384114523D01*
X405813380Y-382844523D01*
X405208619Y-382844523D01*
X403938619Y-384114523D02*
X404361952Y-383509761D01*
X404664333Y-384114523D02*
X404664333Y-382844523D01*
X404180523Y-382844523D01*
X404059571Y-382905000D01*
X403999095Y-382965476D01*
X403938619Y-383086428D01*
X403938619Y-383267857D01*
X403999095Y-383388809D01*
X404059571Y-383449285D01*
X404180523Y-383509761D01*
X404664333Y-383509761D01*
X403696714Y-384235476D02*
X402729095Y-384235476D01*
X402426714Y-382844523D02*
X402426714Y-383872619D01*
X402366238Y-383993571D01*
X402305761Y-384054047D01*
X402184809Y-384114523D01*
X401942904Y-384114523D01*
X401821952Y-384054047D01*
X401761476Y-383993571D01*
X401701000Y-383872619D01*
X401701000Y-382844523D01*
X400431000Y-384114523D02*
X401156714Y-384114523D01*
X400793857Y-384114523D02*
X400793857Y-382844523D01*
X400914809Y-383025952D01*
X401035761Y-383146904D01*
X401156714Y-383207380D01*
D14*
X372417965Y-378063469D02*
X372081247Y-378400187D01*
X373024056Y-377928782D02*
X372417965Y-378063469D01*
X372552652Y-377457378D01*
X371239454Y-377558393D02*
X371643515Y-377962454D01*
X371441484Y-377760423D02*
X372148591Y-377053317D01*
X372114919Y-377221675D01*
X372114919Y-377356362D01*
X372148591Y-377457378D01*
X346797095Y-373446380D02*
X346797095Y-374255904D01*
X346749476Y-374351142D01*
X346701857Y-374398761D01*
X346606619Y-374446380D01*
X346416142Y-374446380D01*
X346320904Y-374398761D01*
X346273285Y-374351142D01*
X346225666Y-374255904D01*
X346225666Y-373446380D01*
X345797095Y-374398761D02*
X345654238Y-374446380D01*
X345416142Y-374446380D01*
X345320904Y-374398761D01*
X345273285Y-374351142D01*
X345225666Y-374255904D01*
X345225666Y-374160666D01*
X345273285Y-374065428D01*
X345320904Y-374017809D01*
X345416142Y-373970190D01*
X345606619Y-373922571D01*
X345701857Y-373874952D01*
X345749476Y-373827333D01*
X345797095Y-373732095D01*
X345797095Y-373636857D01*
X345749476Y-373541619D01*
X345701857Y-373494000D01*
X345606619Y-373446380D01*
X345368523Y-373446380D01*
X345225666Y-373494000D01*
X344463761Y-373922571D02*
X344320904Y-373970190D01*
X344273285Y-374017809D01*
X344225666Y-374113047D01*
X344225666Y-374255904D01*
X344273285Y-374351142D01*
X344320904Y-374398761D01*
X344416142Y-374446380D01*
X344797095Y-374446380D01*
X344797095Y-373446380D01*
X344463761Y-373446380D01*
X344368523Y-373494000D01*
X344320904Y-373541619D01*
X344273285Y-373636857D01*
X344273285Y-373732095D01*
X344320904Y-373827333D01*
X344368523Y-373874952D01*
X344463761Y-373922571D01*
X344797095Y-373922571D01*
X343273285Y-374446380D02*
X343844714Y-374446380D01*
X343559000Y-374446380D02*
X343559000Y-373446380D01*
X343654238Y-373589238D01*
X343749476Y-373684476D01*
X343844714Y-373732095D01*
X378078904Y-417083380D02*
X378078904Y-417892904D01*
X378031285Y-417988142D01*
X377983666Y-418035761D01*
X377888428Y-418083380D01*
X377697952Y-418083380D01*
X377602714Y-418035761D01*
X377555095Y-417988142D01*
X377507476Y-417892904D01*
X377507476Y-417083380D01*
X376602714Y-417416714D02*
X376602714Y-418083380D01*
X376840809Y-417035761D02*
X377078904Y-417750047D01*
X376459857Y-417750047D01*
X346834380Y-377698095D02*
X347643904Y-377698095D01*
X347739142Y-377745714D01*
X347786761Y-377793333D01*
X347834380Y-377888571D01*
X347834380Y-378079047D01*
X347786761Y-378174285D01*
X347739142Y-378221904D01*
X347643904Y-378269523D01*
X346834380Y-378269523D01*
X347834380Y-379269523D02*
X347834380Y-378698095D01*
X347834380Y-378983809D02*
X346834380Y-378983809D01*
X346977238Y-378888571D01*
X347072476Y-378793333D01*
X347120095Y-378698095D01*
X348678333Y-410868761D02*
X348535476Y-410916380D01*
X348297380Y-410916380D01*
X348202142Y-410868761D01*
X348154523Y-410821142D01*
X348106904Y-410725904D01*
X348106904Y-410630666D01*
X348154523Y-410535428D01*
X348202142Y-410487809D01*
X348297380Y-410440190D01*
X348487857Y-410392571D01*
X348583095Y-410344952D01*
X348630714Y-410297333D01*
X348678333Y-410202095D01*
X348678333Y-410106857D01*
X348630714Y-410011619D01*
X348583095Y-409964000D01*
X348487857Y-409916380D01*
X348249761Y-409916380D01*
X348106904Y-409964000D01*
X347773571Y-409916380D02*
X347535476Y-410916380D01*
X347345000Y-410202095D01*
X347154523Y-410916380D01*
X346916428Y-409916380D01*
X346011666Y-410916380D02*
X346583095Y-410916380D01*
X346297380Y-410916380D02*
X346297380Y-409916380D01*
X346392619Y-410059238D01*
X346487857Y-410154476D01*
X346583095Y-410202095D01*
X413773857Y-387801380D02*
X414107190Y-387325190D01*
X414345285Y-387801380D02*
X414345285Y-386801380D01*
X413964333Y-386801380D01*
X413869095Y-386849000D01*
X413821476Y-386896619D01*
X413773857Y-386991857D01*
X413773857Y-387134714D01*
X413821476Y-387229952D01*
X413869095Y-387277571D01*
X413964333Y-387325190D01*
X414345285Y-387325190D01*
X412821476Y-387801380D02*
X413392904Y-387801380D01*
X413107190Y-387801380D02*
X413107190Y-386801380D01*
X413202428Y-386944238D01*
X413297666Y-387039476D01*
X413392904Y-387087095D01*
X412250047Y-387229952D02*
X412345285Y-387182333D01*
X412392904Y-387134714D01*
X412440523Y-387039476D01*
X412440523Y-386991857D01*
X412392904Y-386896619D01*
X412345285Y-386849000D01*
X412250047Y-386801380D01*
X412059571Y-386801380D01*
X411964333Y-386849000D01*
X411916714Y-386896619D01*
X411869095Y-386991857D01*
X411869095Y-387039476D01*
X411916714Y-387134714D01*
X411964333Y-387182333D01*
X412059571Y-387229952D01*
X412250047Y-387229952D01*
X412345285Y-387277571D01*
X412392904Y-387325190D01*
X412440523Y-387420428D01*
X412440523Y-387610904D01*
X412392904Y-387706142D01*
X412345285Y-387753761D01*
X412250047Y-387801380D01*
X412059571Y-387801380D01*
X411964333Y-387753761D01*
X411916714Y-387706142D01*
X411869095Y-387610904D01*
X411869095Y-387420428D01*
X411916714Y-387325190D01*
X411964333Y-387277571D01*
X412059571Y-387229952D01*
X400503380Y-390263142D02*
X400027190Y-389929809D01*
X400503380Y-389691714D02*
X399503380Y-389691714D01*
X399503380Y-390072666D01*
X399551000Y-390167904D01*
X399598619Y-390215523D01*
X399693857Y-390263142D01*
X399836714Y-390263142D01*
X399931952Y-390215523D01*
X399979571Y-390167904D01*
X400027190Y-390072666D01*
X400027190Y-389691714D01*
X400503380Y-391215523D02*
X400503380Y-390644095D01*
X400503380Y-390929809D02*
X399503380Y-390929809D01*
X399646238Y-390834571D01*
X399741476Y-390739333D01*
X399789095Y-390644095D01*
X399503380Y-391548857D02*
X399503380Y-392215523D01*
X400503380Y-391786952D01*
X402535380Y-390263142D02*
X402059190Y-389929809D01*
X402535380Y-389691714D02*
X401535380Y-389691714D01*
X401535380Y-390072666D01*
X401583000Y-390167904D01*
X401630619Y-390215523D01*
X401725857Y-390263142D01*
X401868714Y-390263142D01*
X401963952Y-390215523D01*
X402011571Y-390167904D01*
X402059190Y-390072666D01*
X402059190Y-389691714D01*
X402535380Y-391215523D02*
X402535380Y-390644095D01*
X402535380Y-390929809D02*
X401535380Y-390929809D01*
X401678238Y-390834571D01*
X401773476Y-390739333D01*
X401821095Y-390644095D01*
X401535380Y-392072666D02*
X401535380Y-391882190D01*
X401583000Y-391786952D01*
X401630619Y-391739333D01*
X401773476Y-391644095D01*
X401963952Y-391596476D01*
X402344904Y-391596476D01*
X402440142Y-391644095D01*
X402487761Y-391691714D01*
X402535380Y-391786952D01*
X402535380Y-391977428D01*
X402487761Y-392072666D01*
X402440142Y-392120285D01*
X402344904Y-392167904D01*
X402106809Y-392167904D01*
X402011571Y-392120285D01*
X401963952Y-392072666D01*
X401916333Y-391977428D01*
X401916333Y-391786952D01*
X401963952Y-391691714D01*
X402011571Y-391644095D01*
X402106809Y-391596476D01*
X413519857Y-403295380D02*
X413853190Y-402819190D01*
X414091285Y-403295380D02*
X414091285Y-402295380D01*
X413710333Y-402295380D01*
X413615095Y-402343000D01*
X413567476Y-402390619D01*
X413519857Y-402485857D01*
X413519857Y-402628714D01*
X413567476Y-402723952D01*
X413615095Y-402771571D01*
X413710333Y-402819190D01*
X414091285Y-402819190D01*
X412567476Y-403295380D02*
X413138904Y-403295380D01*
X412853190Y-403295380D02*
X412853190Y-402295380D01*
X412948428Y-402438238D01*
X413043666Y-402533476D01*
X413138904Y-402581095D01*
X411662714Y-402295380D02*
X412138904Y-402295380D01*
X412186523Y-402771571D01*
X412138904Y-402723952D01*
X412043666Y-402676333D01*
X411805571Y-402676333D01*
X411710333Y-402723952D01*
X411662714Y-402771571D01*
X411615095Y-402866809D01*
X411615095Y-403104904D01*
X411662714Y-403200142D01*
X411710333Y-403247761D01*
X411805571Y-403295380D01*
X412043666Y-403295380D01*
X412138904Y-403247761D01*
X412186523Y-403200142D01*
X400503380Y-405376142D02*
X400027190Y-405042809D01*
X400503380Y-404804714D02*
X399503380Y-404804714D01*
X399503380Y-405185666D01*
X399551000Y-405280904D01*
X399598619Y-405328523D01*
X399693857Y-405376142D01*
X399836714Y-405376142D01*
X399931952Y-405328523D01*
X399979571Y-405280904D01*
X400027190Y-405185666D01*
X400027190Y-404804714D01*
X400503380Y-406328523D02*
X400503380Y-405757095D01*
X400503380Y-406042809D02*
X399503380Y-406042809D01*
X399646238Y-405947571D01*
X399741476Y-405852333D01*
X399789095Y-405757095D01*
X399836714Y-407185666D02*
X400503380Y-407185666D01*
X399455761Y-406947571D02*
X400170047Y-406709476D01*
X400170047Y-407328523D01*
X402535380Y-405376142D02*
X402059190Y-405042809D01*
X402535380Y-404804714D02*
X401535380Y-404804714D01*
X401535380Y-405185666D01*
X401583000Y-405280904D01*
X401630619Y-405328523D01*
X401725857Y-405376142D01*
X401868714Y-405376142D01*
X401963952Y-405328523D01*
X402011571Y-405280904D01*
X402059190Y-405185666D01*
X402059190Y-404804714D01*
X402535380Y-406328523D02*
X402535380Y-405757095D01*
X402535380Y-406042809D02*
X401535380Y-406042809D01*
X401678238Y-405947571D01*
X401773476Y-405852333D01*
X401821095Y-405757095D01*
X401535380Y-406661857D02*
X401535380Y-407280904D01*
X401916333Y-406947571D01*
X401916333Y-407090428D01*
X401963952Y-407185666D01*
X402011571Y-407233285D01*
X402106809Y-407280904D01*
X402344904Y-407280904D01*
X402440142Y-407233285D01*
X402487761Y-407185666D01*
X402535380Y-407090428D01*
X402535380Y-406804714D01*
X402487761Y-406709476D01*
X402440142Y-406661857D01*
X373260857Y-410280380D02*
X373594190Y-409804190D01*
X373832285Y-410280380D02*
X373832285Y-409280380D01*
X373451333Y-409280380D01*
X373356095Y-409328000D01*
X373308476Y-409375619D01*
X373260857Y-409470857D01*
X373260857Y-409613714D01*
X373308476Y-409708952D01*
X373356095Y-409756571D01*
X373451333Y-409804190D01*
X373832285Y-409804190D01*
X372308476Y-410280380D02*
X372879904Y-410280380D01*
X372594190Y-410280380D02*
X372594190Y-409280380D01*
X372689428Y-409423238D01*
X372784666Y-409518476D01*
X372879904Y-409566095D01*
X371927523Y-409375619D02*
X371879904Y-409328000D01*
X371784666Y-409280380D01*
X371546571Y-409280380D01*
X371451333Y-409328000D01*
X371403714Y-409375619D01*
X371356095Y-409470857D01*
X371356095Y-409566095D01*
X371403714Y-409708952D01*
X371975142Y-410280380D01*
X371356095Y-410280380D01*
X373260857Y-407867380D02*
X373594190Y-407391190D01*
X373832285Y-407867380D02*
X373832285Y-406867380D01*
X373451333Y-406867380D01*
X373356095Y-406915000D01*
X373308476Y-406962619D01*
X373260857Y-407057857D01*
X373260857Y-407200714D01*
X373308476Y-407295952D01*
X373356095Y-407343571D01*
X373451333Y-407391190D01*
X373832285Y-407391190D01*
X372308476Y-407867380D02*
X372879904Y-407867380D01*
X372594190Y-407867380D02*
X372594190Y-406867380D01*
X372689428Y-407010238D01*
X372784666Y-407105476D01*
X372879904Y-407153095D01*
X371356095Y-407867380D02*
X371927523Y-407867380D01*
X371641809Y-407867380D02*
X371641809Y-406867380D01*
X371737047Y-407010238D01*
X371832285Y-407105476D01*
X371927523Y-407153095D01*
X373260857Y-405835380D02*
X373594190Y-405359190D01*
X373832285Y-405835380D02*
X373832285Y-404835380D01*
X373451333Y-404835380D01*
X373356095Y-404883000D01*
X373308476Y-404930619D01*
X373260857Y-405025857D01*
X373260857Y-405168714D01*
X373308476Y-405263952D01*
X373356095Y-405311571D01*
X373451333Y-405359190D01*
X373832285Y-405359190D01*
X372308476Y-405835380D02*
X372879904Y-405835380D01*
X372594190Y-405835380D02*
X372594190Y-404835380D01*
X372689428Y-404978238D01*
X372784666Y-405073476D01*
X372879904Y-405121095D01*
X371689428Y-404835380D02*
X371594190Y-404835380D01*
X371498952Y-404883000D01*
X371451333Y-404930619D01*
X371403714Y-405025857D01*
X371356095Y-405216333D01*
X371356095Y-405454428D01*
X371403714Y-405644904D01*
X371451333Y-405740142D01*
X371498952Y-405787761D01*
X371594190Y-405835380D01*
X371689428Y-405835380D01*
X371784666Y-405787761D01*
X371832285Y-405740142D01*
X371879904Y-405644904D01*
X371927523Y-405454428D01*
X371927523Y-405216333D01*
X371879904Y-405025857D01*
X371832285Y-404930619D01*
X371784666Y-404883000D01*
X371689428Y-404835380D01*
X402154380Y-416774333D02*
X401678190Y-416441000D01*
X402154380Y-416202904D02*
X401154380Y-416202904D01*
X401154380Y-416583857D01*
X401202000Y-416679095D01*
X401249619Y-416726714D01*
X401344857Y-416774333D01*
X401487714Y-416774333D01*
X401582952Y-416726714D01*
X401630571Y-416679095D01*
X401678190Y-416583857D01*
X401678190Y-416202904D01*
X402154380Y-417250523D02*
X402154380Y-417441000D01*
X402106761Y-417536238D01*
X402059142Y-417583857D01*
X401916285Y-417679095D01*
X401725809Y-417726714D01*
X401344857Y-417726714D01*
X401249619Y-417679095D01*
X401202000Y-417631476D01*
X401154380Y-417536238D01*
X401154380Y-417345761D01*
X401202000Y-417250523D01*
X401249619Y-417202904D01*
X401344857Y-417155285D01*
X401582952Y-417155285D01*
X401678190Y-417202904D01*
X401725809Y-417250523D01*
X401773428Y-417345761D01*
X401773428Y-417536238D01*
X401725809Y-417631476D01*
X401678190Y-417679095D01*
X401582952Y-417726714D01*
X381199380Y-395692333D02*
X380723190Y-395359000D01*
X381199380Y-395120904D02*
X380199380Y-395120904D01*
X380199380Y-395501857D01*
X380247000Y-395597095D01*
X380294619Y-395644714D01*
X380389857Y-395692333D01*
X380532714Y-395692333D01*
X380627952Y-395644714D01*
X380675571Y-395597095D01*
X380723190Y-395501857D01*
X380723190Y-395120904D01*
X380627952Y-396263761D02*
X380580333Y-396168523D01*
X380532714Y-396120904D01*
X380437476Y-396073285D01*
X380389857Y-396073285D01*
X380294619Y-396120904D01*
X380247000Y-396168523D01*
X380199380Y-396263761D01*
X380199380Y-396454238D01*
X380247000Y-396549476D01*
X380294619Y-396597095D01*
X380389857Y-396644714D01*
X380437476Y-396644714D01*
X380532714Y-396597095D01*
X380580333Y-396549476D01*
X380627952Y-396454238D01*
X380627952Y-396263761D01*
X380675571Y-396168523D01*
X380723190Y-396120904D01*
X380818428Y-396073285D01*
X381008904Y-396073285D01*
X381104142Y-396120904D01*
X381151761Y-396168523D01*
X381199380Y-396263761D01*
X381199380Y-396454238D01*
X381151761Y-396549476D01*
X381104142Y-396597095D01*
X381008904Y-396644714D01*
X380818428Y-396644714D01*
X380723190Y-396597095D01*
X380675571Y-396549476D01*
X380627952Y-396454238D01*
X351733380Y-376007333D02*
X351257190Y-375674000D01*
X351733380Y-375435904D02*
X350733380Y-375435904D01*
X350733380Y-375816857D01*
X350781000Y-375912095D01*
X350828619Y-375959714D01*
X350923857Y-376007333D01*
X351066714Y-376007333D01*
X351161952Y-375959714D01*
X351209571Y-375912095D01*
X351257190Y-375816857D01*
X351257190Y-375435904D01*
X350733380Y-376340666D02*
X350733380Y-377007333D01*
X351733380Y-376578761D01*
X382182666Y-406726380D02*
X382516000Y-406250190D01*
X382754095Y-406726380D02*
X382754095Y-405726380D01*
X382373142Y-405726380D01*
X382277904Y-405774000D01*
X382230285Y-405821619D01*
X382182666Y-405916857D01*
X382182666Y-406059714D01*
X382230285Y-406154952D01*
X382277904Y-406202571D01*
X382373142Y-406250190D01*
X382754095Y-406250190D01*
X381325523Y-405726380D02*
X381516000Y-405726380D01*
X381611238Y-405774000D01*
X381658857Y-405821619D01*
X381754095Y-405964476D01*
X381801714Y-406154952D01*
X381801714Y-406535904D01*
X381754095Y-406631142D01*
X381706476Y-406678761D01*
X381611238Y-406726380D01*
X381420761Y-406726380D01*
X381325523Y-406678761D01*
X381277904Y-406631142D01*
X381230285Y-406535904D01*
X381230285Y-406297809D01*
X381277904Y-406202571D01*
X381325523Y-406154952D01*
X381420761Y-406107333D01*
X381611238Y-406107333D01*
X381706476Y-406154952D01*
X381754095Y-406202571D01*
X381801714Y-406297809D01*
X382182666Y-407740380D02*
X382516000Y-407264190D01*
X382754095Y-407740380D02*
X382754095Y-406740380D01*
X382373142Y-406740380D01*
X382277904Y-406788000D01*
X382230285Y-406835619D01*
X382182666Y-406930857D01*
X382182666Y-407073714D01*
X382230285Y-407168952D01*
X382277904Y-407216571D01*
X382373142Y-407264190D01*
X382754095Y-407264190D01*
X381277904Y-406740380D02*
X381754095Y-406740380D01*
X381801714Y-407216571D01*
X381754095Y-407168952D01*
X381658857Y-407121333D01*
X381420761Y-407121333D01*
X381325523Y-407168952D01*
X381277904Y-407216571D01*
X381230285Y-407311809D01*
X381230285Y-407549904D01*
X381277904Y-407645142D01*
X381325523Y-407692761D01*
X381420761Y-407740380D01*
X381658857Y-407740380D01*
X381754095Y-407692761D01*
X381801714Y-407645142D01*
X342716380Y-376134333D02*
X342240190Y-375801000D01*
X342716380Y-375562904D02*
X341716380Y-375562904D01*
X341716380Y-375943857D01*
X341764000Y-376039095D01*
X341811619Y-376086714D01*
X341906857Y-376134333D01*
X342049714Y-376134333D01*
X342144952Y-376086714D01*
X342192571Y-376039095D01*
X342240190Y-375943857D01*
X342240190Y-375562904D01*
X342049714Y-376991476D02*
X342716380Y-376991476D01*
X341668761Y-376753380D02*
X342383047Y-376515285D01*
X342383047Y-377134333D01*
X348050380Y-382103333D02*
X347574190Y-381770000D01*
X348050380Y-381531904D02*
X347050380Y-381531904D01*
X347050380Y-381912857D01*
X347098000Y-382008095D01*
X347145619Y-382055714D01*
X347240857Y-382103333D01*
X347383714Y-382103333D01*
X347478952Y-382055714D01*
X347526571Y-382008095D01*
X347574190Y-381912857D01*
X347574190Y-381531904D01*
X347050380Y-382436666D02*
X347050380Y-383055714D01*
X347431333Y-382722380D01*
X347431333Y-382865238D01*
X347478952Y-382960476D01*
X347526571Y-383008095D01*
X347621809Y-383055714D01*
X347859904Y-383055714D01*
X347955142Y-383008095D01*
X348002761Y-382960476D01*
X348050380Y-382865238D01*
X348050380Y-382579523D01*
X348002761Y-382484285D01*
X347955142Y-382436666D01*
X346018380Y-382103333D02*
X345542190Y-381770000D01*
X346018380Y-381531904D02*
X345018380Y-381531904D01*
X345018380Y-381912857D01*
X345066000Y-382008095D01*
X345113619Y-382055714D01*
X345208857Y-382103333D01*
X345351714Y-382103333D01*
X345446952Y-382055714D01*
X345494571Y-382008095D01*
X345542190Y-381912857D01*
X345542190Y-381531904D01*
X345113619Y-382484285D02*
X345066000Y-382531904D01*
X345018380Y-382627142D01*
X345018380Y-382865238D01*
X345066000Y-382960476D01*
X345113619Y-383008095D01*
X345208857Y-383055714D01*
X345304095Y-383055714D01*
X345446952Y-383008095D01*
X346018380Y-382436666D01*
X346018380Y-383055714D01*
X360465666Y-383864380D02*
X360799000Y-383388190D01*
X361037095Y-383864380D02*
X361037095Y-382864380D01*
X360656142Y-382864380D01*
X360560904Y-382912000D01*
X360513285Y-382959619D01*
X360465666Y-383054857D01*
X360465666Y-383197714D01*
X360513285Y-383292952D01*
X360560904Y-383340571D01*
X360656142Y-383388190D01*
X361037095Y-383388190D01*
X359513285Y-383864380D02*
X360084714Y-383864380D01*
X359799000Y-383864380D02*
X359799000Y-382864380D01*
X359894238Y-383007238D01*
X359989476Y-383102476D01*
X360084714Y-383150095D01*
D16*
X348498333Y-413054523D02*
X348498333Y-413961666D01*
X348558809Y-414143095D01*
X348679761Y-414264047D01*
X348861190Y-414324523D01*
X348982142Y-414324523D01*
X347954047Y-413175476D02*
X347893571Y-413115000D01*
X347772619Y-413054523D01*
X347470238Y-413054523D01*
X347349285Y-413115000D01*
X347288809Y-413175476D01*
X347228333Y-413296428D01*
X347228333Y-413417380D01*
X347288809Y-413598809D01*
X348014523Y-414324523D01*
X347228333Y-414324523D01*
X400092333Y-410911523D02*
X400092333Y-411818666D01*
X400152809Y-412000095D01*
X400273761Y-412121047D01*
X400455190Y-412181523D01*
X400576142Y-412181523D01*
X398822333Y-412181523D02*
X399548047Y-412181523D01*
X399185190Y-412181523D02*
X399185190Y-410911523D01*
X399306142Y-411092952D01*
X399427095Y-411213904D01*
X399548047Y-411274380D01*
D14*
X355933333Y-376695571D02*
X356266666Y-376695571D01*
X356266666Y-377219380D02*
X356266666Y-376219380D01*
X355790476Y-376219380D01*
X354885714Y-377219380D02*
X355457142Y-377219380D01*
X355171428Y-377219380D02*
X355171428Y-376219380D01*
X355266666Y-376362238D01*
X355361904Y-376457476D01*
X355457142Y-376505095D01*
D16*
X451787380Y-416340360D02*
X451787380Y-415070360D01*
X451485000Y-415070360D01*
X451303571Y-415130837D01*
X451182619Y-415251789D01*
X451122142Y-415372741D01*
X451061666Y-415614646D01*
X451061666Y-415796075D01*
X451122142Y-416037979D01*
X451182619Y-416158932D01*
X451303571Y-416279884D01*
X451485000Y-416340360D01*
X451787380Y-416340360D01*
X450335952Y-415614646D02*
X450456904Y-415554170D01*
X450517380Y-415493694D01*
X450577857Y-415372741D01*
X450577857Y-415312265D01*
X450517380Y-415191313D01*
X450456904Y-415130837D01*
X450335952Y-415070360D01*
X450094047Y-415070360D01*
X449973095Y-415130837D01*
X449912619Y-415191313D01*
X449852142Y-415312265D01*
X449852142Y-415372741D01*
X449912619Y-415493694D01*
X449973095Y-415554170D01*
X450094047Y-415614646D01*
X450335952Y-415614646D01*
X450456904Y-415675122D01*
X450517380Y-415735598D01*
X450577857Y-415856551D01*
X450577857Y-416098456D01*
X450517380Y-416219408D01*
X450456904Y-416279884D01*
X450335952Y-416340360D01*
X450094047Y-416340360D01*
X449973095Y-416279884D01*
X449912619Y-416219408D01*
X449852142Y-416098456D01*
X449852142Y-415856551D01*
X449912619Y-415735598D01*
X449973095Y-415675122D01*
X450094047Y-415614646D01*
X432737380Y-416340360D02*
X432737380Y-415070360D01*
X432435000Y-415070360D01*
X432253571Y-415130837D01*
X432132619Y-415251789D01*
X432072142Y-415372741D01*
X432011666Y-415614646D01*
X432011666Y-415796075D01*
X432072142Y-416037979D01*
X432132619Y-416158932D01*
X432253571Y-416279884D01*
X432435000Y-416340360D01*
X432737380Y-416340360D01*
X431588333Y-415070360D02*
X430741666Y-415070360D01*
X431285952Y-416340360D01*
D14*
X461557380Y-405661904D02*
X460557380Y-405661904D01*
X460557380Y-405900000D01*
X460605000Y-406042857D01*
X460700238Y-406138095D01*
X460795476Y-406185714D01*
X460985952Y-406233333D01*
X461128809Y-406233333D01*
X461319285Y-406185714D01*
X461414523Y-406138095D01*
X461509761Y-406042857D01*
X461557380Y-405900000D01*
X461557380Y-405661904D01*
X460557380Y-407090476D02*
X460557380Y-406900000D01*
X460605000Y-406804761D01*
X460652619Y-406757142D01*
X460795476Y-406661904D01*
X460985952Y-406614285D01*
X461366904Y-406614285D01*
X461462142Y-406661904D01*
X461509761Y-406709523D01*
X461557380Y-406804761D01*
X461557380Y-406995238D01*
X461509761Y-407090476D01*
X461462142Y-407138095D01*
X461366904Y-407185714D01*
X461128809Y-407185714D01*
X461033571Y-407138095D01*
X460985952Y-407090476D01*
X460938333Y-406995238D01*
X460938333Y-406804761D01*
X460985952Y-406709523D01*
X461033571Y-406661904D01*
X461128809Y-406614285D01*
X461557380Y-386611904D02*
X460557380Y-386611904D01*
X460557380Y-386850000D01*
X460605000Y-386992857D01*
X460700238Y-387088095D01*
X460795476Y-387135714D01*
X460985952Y-387183333D01*
X461128809Y-387183333D01*
X461319285Y-387135714D01*
X461414523Y-387088095D01*
X461509761Y-386992857D01*
X461557380Y-386850000D01*
X461557380Y-386611904D01*
X460557380Y-388088095D02*
X460557380Y-387611904D01*
X461033571Y-387564285D01*
X460985952Y-387611904D01*
X460938333Y-387707142D01*
X460938333Y-387945238D01*
X460985952Y-388040476D01*
X461033571Y-388088095D01*
X461128809Y-388135714D01*
X461366904Y-388135714D01*
X461462142Y-388088095D01*
X461509761Y-388040476D01*
X461557380Y-387945238D01*
X461557380Y-387707142D01*
X461509761Y-387611904D01*
X461462142Y-387564285D01*
X442507380Y-405661904D02*
X441507380Y-405661904D01*
X441507380Y-405900000D01*
X441555000Y-406042857D01*
X441650238Y-406138095D01*
X441745476Y-406185714D01*
X441935952Y-406233333D01*
X442078809Y-406233333D01*
X442269285Y-406185714D01*
X442364523Y-406138095D01*
X442459761Y-406042857D01*
X442507380Y-405900000D01*
X442507380Y-405661904D01*
X441840714Y-407090476D02*
X442507380Y-407090476D01*
X441459761Y-406852380D02*
X442174047Y-406614285D01*
X442174047Y-407233333D01*
X442507380Y-386611904D02*
X441507380Y-386611904D01*
X441507380Y-386850000D01*
X441555000Y-386992857D01*
X441650238Y-387088095D01*
X441745476Y-387135714D01*
X441935952Y-387183333D01*
X442078809Y-387183333D01*
X442269285Y-387135714D01*
X442364523Y-387088095D01*
X442459761Y-386992857D01*
X442507380Y-386850000D01*
X442507380Y-386611904D01*
X441507380Y-387516666D02*
X441507380Y-388135714D01*
X441888333Y-387802380D01*
X441888333Y-387945238D01*
X441935952Y-388040476D01*
X441983571Y-388088095D01*
X442078809Y-388135714D01*
X442316904Y-388135714D01*
X442412142Y-388088095D01*
X442459761Y-388040476D01*
X442507380Y-387945238D01*
X442507380Y-387659523D01*
X442459761Y-387564285D01*
X442412142Y-387516666D01*
D16*
X451787380Y-397292523D02*
X451787380Y-396022523D01*
X451485000Y-396022523D01*
X451303571Y-396083000D01*
X451182619Y-396203952D01*
X451122142Y-396324904D01*
X451061666Y-396566809D01*
X451061666Y-396748238D01*
X451122142Y-396990142D01*
X451182619Y-397111095D01*
X451303571Y-397232047D01*
X451485000Y-397292523D01*
X451787380Y-397292523D01*
X450577857Y-396143476D02*
X450517380Y-396083000D01*
X450396428Y-396022523D01*
X450094047Y-396022523D01*
X449973095Y-396083000D01*
X449912619Y-396143476D01*
X449852142Y-396264428D01*
X449852142Y-396385380D01*
X449912619Y-396566809D01*
X450638333Y-397292523D01*
X449852142Y-397292523D01*
X432737380Y-397292523D02*
X432737380Y-396022523D01*
X432435000Y-396022523D01*
X432253571Y-396083000D01*
X432132619Y-396203952D01*
X432072142Y-396324904D01*
X432011666Y-396566809D01*
X432011666Y-396748238D01*
X432072142Y-396990142D01*
X432132619Y-397111095D01*
X432253571Y-397232047D01*
X432435000Y-397292523D01*
X432737380Y-397292523D01*
X430802142Y-397292523D02*
X431527857Y-397292523D01*
X431165000Y-397292523D02*
X431165000Y-396022523D01*
X431285952Y-396203952D01*
X431406904Y-396324904D01*
X431527857Y-396385380D01*
D14*
X398279857Y-401071142D02*
X398327476Y-401118761D01*
X398470333Y-401166380D01*
X398565571Y-401166380D01*
X398708428Y-401118761D01*
X398803666Y-401023523D01*
X398851285Y-400928285D01*
X398898904Y-400737809D01*
X398898904Y-400594952D01*
X398851285Y-400404476D01*
X398803666Y-400309238D01*
X398708428Y-400214000D01*
X398565571Y-400166380D01*
X398470333Y-400166380D01*
X398327476Y-400214000D01*
X398279857Y-400261619D01*
X397946523Y-400166380D02*
X397327476Y-400166380D01*
X397660809Y-400547333D01*
X397517952Y-400547333D01*
X397422714Y-400594952D01*
X397375095Y-400642571D01*
X397327476Y-400737809D01*
X397327476Y-400975904D01*
X397375095Y-401071142D01*
X397422714Y-401118761D01*
X397517952Y-401166380D01*
X397803666Y-401166380D01*
X397898904Y-401118761D01*
X397946523Y-401071142D01*
X396946523Y-400261619D02*
X396898904Y-400214000D01*
X396803666Y-400166380D01*
X396565571Y-400166380D01*
X396470333Y-400214000D01*
X396422714Y-400261619D01*
X396375095Y-400356857D01*
X396375095Y-400452095D01*
X396422714Y-400594952D01*
X396994142Y-401166380D01*
X396375095Y-401166380D01*
X400759142Y-375023142D02*
X400806761Y-374975523D01*
X400854380Y-374832666D01*
X400854380Y-374737428D01*
X400806761Y-374594571D01*
X400711523Y-374499333D01*
X400616285Y-374451714D01*
X400425809Y-374404095D01*
X400282952Y-374404095D01*
X400092476Y-374451714D01*
X399997238Y-374499333D01*
X399902000Y-374594571D01*
X399854380Y-374737428D01*
X399854380Y-374832666D01*
X399902000Y-374975523D01*
X399949619Y-375023142D01*
X399854380Y-375356476D02*
X399854380Y-375975523D01*
X400235333Y-375642190D01*
X400235333Y-375785047D01*
X400282952Y-375880285D01*
X400330571Y-375927904D01*
X400425809Y-375975523D01*
X400663904Y-375975523D01*
X400759142Y-375927904D01*
X400806761Y-375880285D01*
X400854380Y-375785047D01*
X400854380Y-375499333D01*
X400806761Y-375404095D01*
X400759142Y-375356476D01*
X400854380Y-376927904D02*
X400854380Y-376356476D01*
X400854380Y-376642190D02*
X399854380Y-376642190D01*
X399997238Y-376546952D01*
X400092476Y-376451714D01*
X400140095Y-376356476D01*
X413773857Y-382783142D02*
X413821476Y-382830761D01*
X413964333Y-382878380D01*
X414059571Y-382878380D01*
X414202428Y-382830761D01*
X414297666Y-382735523D01*
X414345285Y-382640285D01*
X414392904Y-382449809D01*
X414392904Y-382306952D01*
X414345285Y-382116476D01*
X414297666Y-382021238D01*
X414202428Y-381926000D01*
X414059571Y-381878380D01*
X413964333Y-381878380D01*
X413821476Y-381926000D01*
X413773857Y-381973619D01*
X413440523Y-381878380D02*
X412821476Y-381878380D01*
X413154809Y-382259333D01*
X413011952Y-382259333D01*
X412916714Y-382306952D01*
X412869095Y-382354571D01*
X412821476Y-382449809D01*
X412821476Y-382687904D01*
X412869095Y-382783142D01*
X412916714Y-382830761D01*
X413011952Y-382878380D01*
X413297666Y-382878380D01*
X413392904Y-382830761D01*
X413440523Y-382783142D01*
X412202428Y-381878380D02*
X412107190Y-381878380D01*
X412011952Y-381926000D01*
X411964333Y-381973619D01*
X411916714Y-382068857D01*
X411869095Y-382259333D01*
X411869095Y-382497428D01*
X411916714Y-382687904D01*
X411964333Y-382783142D01*
X412011952Y-382830761D01*
X412107190Y-382878380D01*
X412202428Y-382878380D01*
X412297666Y-382830761D01*
X412345285Y-382783142D01*
X412392904Y-382687904D01*
X412440523Y-382497428D01*
X412440523Y-382259333D01*
X412392904Y-382068857D01*
X412345285Y-381973619D01*
X412297666Y-381926000D01*
X412202428Y-381878380D01*
X413773857Y-384815142D02*
X413821476Y-384862761D01*
X413964333Y-384910380D01*
X414059571Y-384910380D01*
X414202428Y-384862761D01*
X414297666Y-384767523D01*
X414345285Y-384672285D01*
X414392904Y-384481809D01*
X414392904Y-384338952D01*
X414345285Y-384148476D01*
X414297666Y-384053238D01*
X414202428Y-383958000D01*
X414059571Y-383910380D01*
X413964333Y-383910380D01*
X413821476Y-383958000D01*
X413773857Y-384005619D01*
X413392904Y-384005619D02*
X413345285Y-383958000D01*
X413250047Y-383910380D01*
X413011952Y-383910380D01*
X412916714Y-383958000D01*
X412869095Y-384005619D01*
X412821476Y-384100857D01*
X412821476Y-384196095D01*
X412869095Y-384338952D01*
X413440523Y-384910380D01*
X412821476Y-384910380D01*
X412345285Y-384910380D02*
X412154809Y-384910380D01*
X412059571Y-384862761D01*
X412011952Y-384815142D01*
X411916714Y-384672285D01*
X411869095Y-384481809D01*
X411869095Y-384100857D01*
X411916714Y-384005619D01*
X411964333Y-383958000D01*
X412059571Y-383910380D01*
X412250047Y-383910380D01*
X412345285Y-383958000D01*
X412392904Y-384005619D01*
X412440523Y-384100857D01*
X412440523Y-384338952D01*
X412392904Y-384434190D01*
X412345285Y-384481809D01*
X412250047Y-384529428D01*
X412059571Y-384529428D01*
X411964333Y-384481809D01*
X411916714Y-384434190D01*
X411869095Y-384338952D01*
X402087142Y-375023142D02*
X402134761Y-374975523D01*
X402182380Y-374832666D01*
X402182380Y-374737428D01*
X402134761Y-374594571D01*
X402039523Y-374499333D01*
X401944285Y-374451714D01*
X401753809Y-374404095D01*
X401610952Y-374404095D01*
X401420476Y-374451714D01*
X401325238Y-374499333D01*
X401230000Y-374594571D01*
X401182380Y-374737428D01*
X401182380Y-374832666D01*
X401230000Y-374975523D01*
X401277619Y-375023142D01*
X401277619Y-375404095D02*
X401230000Y-375451714D01*
X401182380Y-375546952D01*
X401182380Y-375785047D01*
X401230000Y-375880285D01*
X401277619Y-375927904D01*
X401372857Y-375975523D01*
X401468095Y-375975523D01*
X401610952Y-375927904D01*
X402182380Y-375356476D01*
X402182380Y-375975523D01*
X401610952Y-376546952D02*
X401563333Y-376451714D01*
X401515714Y-376404095D01*
X401420476Y-376356476D01*
X401372857Y-376356476D01*
X401277619Y-376404095D01*
X401230000Y-376451714D01*
X401182380Y-376546952D01*
X401182380Y-376737428D01*
X401230000Y-376832666D01*
X401277619Y-376880285D01*
X401372857Y-376927904D01*
X401420476Y-376927904D01*
X401515714Y-376880285D01*
X401563333Y-376832666D01*
X401610952Y-376737428D01*
X401610952Y-376546952D01*
X401658571Y-376451714D01*
X401706190Y-376404095D01*
X401801428Y-376356476D01*
X401991904Y-376356476D01*
X402087142Y-376404095D01*
X402134761Y-376451714D01*
X402182380Y-376546952D01*
X402182380Y-376737428D01*
X402134761Y-376832666D01*
X402087142Y-376880285D01*
X401991904Y-376927904D01*
X401801428Y-376927904D01*
X401706190Y-376880285D01*
X401658571Y-376832666D01*
X401610952Y-376737428D01*
X408183142Y-375023142D02*
X408230761Y-374975523D01*
X408278380Y-374832666D01*
X408278380Y-374737428D01*
X408230761Y-374594571D01*
X408135523Y-374499333D01*
X408040285Y-374451714D01*
X407849809Y-374404095D01*
X407706952Y-374404095D01*
X407516476Y-374451714D01*
X407421238Y-374499333D01*
X407326000Y-374594571D01*
X407278380Y-374737428D01*
X407278380Y-374832666D01*
X407326000Y-374975523D01*
X407373619Y-375023142D01*
X407373619Y-375404095D02*
X407326000Y-375451714D01*
X407278380Y-375546952D01*
X407278380Y-375785047D01*
X407326000Y-375880285D01*
X407373619Y-375927904D01*
X407468857Y-375975523D01*
X407564095Y-375975523D01*
X407706952Y-375927904D01*
X408278380Y-375356476D01*
X408278380Y-375975523D01*
X407278380Y-376308857D02*
X407278380Y-376975523D01*
X408278380Y-376546952D01*
X406151142Y-375023142D02*
X406198761Y-374975523D01*
X406246380Y-374832666D01*
X406246380Y-374737428D01*
X406198761Y-374594571D01*
X406103523Y-374499333D01*
X406008285Y-374451714D01*
X405817809Y-374404095D01*
X405674952Y-374404095D01*
X405484476Y-374451714D01*
X405389238Y-374499333D01*
X405294000Y-374594571D01*
X405246380Y-374737428D01*
X405246380Y-374832666D01*
X405294000Y-374975523D01*
X405341619Y-375023142D01*
X405341619Y-375404095D02*
X405294000Y-375451714D01*
X405246380Y-375546952D01*
X405246380Y-375785047D01*
X405294000Y-375880285D01*
X405341619Y-375927904D01*
X405436857Y-375975523D01*
X405532095Y-375975523D01*
X405674952Y-375927904D01*
X406246380Y-375356476D01*
X406246380Y-375975523D01*
X405246380Y-376832666D02*
X405246380Y-376642190D01*
X405294000Y-376546952D01*
X405341619Y-376499333D01*
X405484476Y-376404095D01*
X405674952Y-376356476D01*
X406055904Y-376356476D01*
X406151142Y-376404095D01*
X406198761Y-376451714D01*
X406246380Y-376546952D01*
X406246380Y-376737428D01*
X406198761Y-376832666D01*
X406151142Y-376880285D01*
X406055904Y-376927904D01*
X405817809Y-376927904D01*
X405722571Y-376880285D01*
X405674952Y-376832666D01*
X405627333Y-376737428D01*
X405627333Y-376546952D01*
X405674952Y-376451714D01*
X405722571Y-376404095D01*
X405817809Y-376356476D01*
X386212142Y-410583142D02*
X386259761Y-410535523D01*
X386307380Y-410392666D01*
X386307380Y-410297428D01*
X386259761Y-410154571D01*
X386164523Y-410059333D01*
X386069285Y-410011714D01*
X385878809Y-409964095D01*
X385735952Y-409964095D01*
X385545476Y-410011714D01*
X385450238Y-410059333D01*
X385355000Y-410154571D01*
X385307380Y-410297428D01*
X385307380Y-410392666D01*
X385355000Y-410535523D01*
X385402619Y-410583142D01*
X385402619Y-410964095D02*
X385355000Y-411011714D01*
X385307380Y-411106952D01*
X385307380Y-411345047D01*
X385355000Y-411440285D01*
X385402619Y-411487904D01*
X385497857Y-411535523D01*
X385593095Y-411535523D01*
X385735952Y-411487904D01*
X386307380Y-410916476D01*
X386307380Y-411535523D01*
X385307380Y-412440285D02*
X385307380Y-411964095D01*
X385783571Y-411916476D01*
X385735952Y-411964095D01*
X385688333Y-412059333D01*
X385688333Y-412297428D01*
X385735952Y-412392666D01*
X385783571Y-412440285D01*
X385878809Y-412487904D01*
X386116904Y-412487904D01*
X386212142Y-412440285D01*
X386259761Y-412392666D01*
X386307380Y-412297428D01*
X386307380Y-412059333D01*
X386259761Y-411964095D01*
X386212142Y-411916476D01*
X369263142Y-410583142D02*
X369310761Y-410535523D01*
X369358380Y-410392666D01*
X369358380Y-410297428D01*
X369310761Y-410154571D01*
X369215523Y-410059333D01*
X369120285Y-410011714D01*
X368929809Y-409964095D01*
X368786952Y-409964095D01*
X368596476Y-410011714D01*
X368501238Y-410059333D01*
X368406000Y-410154571D01*
X368358380Y-410297428D01*
X368358380Y-410392666D01*
X368406000Y-410535523D01*
X368453619Y-410583142D01*
X368453619Y-410964095D02*
X368406000Y-411011714D01*
X368358380Y-411106952D01*
X368358380Y-411345047D01*
X368406000Y-411440285D01*
X368453619Y-411487904D01*
X368548857Y-411535523D01*
X368644095Y-411535523D01*
X368786952Y-411487904D01*
X369358380Y-410916476D01*
X369358380Y-411535523D01*
X368691714Y-412392666D02*
X369358380Y-412392666D01*
X368310761Y-412154571D02*
X369025047Y-411916476D01*
X369025047Y-412535523D01*
X408506142Y-390263142D02*
X408553761Y-390215523D01*
X408601380Y-390072666D01*
X408601380Y-389977428D01*
X408553761Y-389834571D01*
X408458523Y-389739333D01*
X408363285Y-389691714D01*
X408172809Y-389644095D01*
X408029952Y-389644095D01*
X407839476Y-389691714D01*
X407744238Y-389739333D01*
X407649000Y-389834571D01*
X407601380Y-389977428D01*
X407601380Y-390072666D01*
X407649000Y-390215523D01*
X407696619Y-390263142D01*
X407696619Y-390644095D02*
X407649000Y-390691714D01*
X407601380Y-390786952D01*
X407601380Y-391025047D01*
X407649000Y-391120285D01*
X407696619Y-391167904D01*
X407791857Y-391215523D01*
X407887095Y-391215523D01*
X408029952Y-391167904D01*
X408601380Y-390596476D01*
X408601380Y-391215523D01*
X407601380Y-391548857D02*
X407601380Y-392167904D01*
X407982333Y-391834571D01*
X407982333Y-391977428D01*
X408029952Y-392072666D01*
X408077571Y-392120285D01*
X408172809Y-392167904D01*
X408410904Y-392167904D01*
X408506142Y-392120285D01*
X408553761Y-392072666D01*
X408601380Y-391977428D01*
X408601380Y-391691714D01*
X408553761Y-391596476D01*
X408506142Y-391548857D01*
X406474142Y-390263142D02*
X406521761Y-390215523D01*
X406569380Y-390072666D01*
X406569380Y-389977428D01*
X406521761Y-389834571D01*
X406426523Y-389739333D01*
X406331285Y-389691714D01*
X406140809Y-389644095D01*
X405997952Y-389644095D01*
X405807476Y-389691714D01*
X405712238Y-389739333D01*
X405617000Y-389834571D01*
X405569380Y-389977428D01*
X405569380Y-390072666D01*
X405617000Y-390215523D01*
X405664619Y-390263142D01*
X405664619Y-390644095D02*
X405617000Y-390691714D01*
X405569380Y-390786952D01*
X405569380Y-391025047D01*
X405617000Y-391120285D01*
X405664619Y-391167904D01*
X405759857Y-391215523D01*
X405855095Y-391215523D01*
X405997952Y-391167904D01*
X406569380Y-390596476D01*
X406569380Y-391215523D01*
X405664619Y-391596476D02*
X405617000Y-391644095D01*
X405569380Y-391739333D01*
X405569380Y-391977428D01*
X405617000Y-392072666D01*
X405664619Y-392120285D01*
X405759857Y-392167904D01*
X405855095Y-392167904D01*
X405997952Y-392120285D01*
X406569380Y-391548857D01*
X406569380Y-392167904D01*
X409834142Y-405376142D02*
X409881761Y-405328523D01*
X409929380Y-405185666D01*
X409929380Y-405090428D01*
X409881761Y-404947571D01*
X409786523Y-404852333D01*
X409691285Y-404804714D01*
X409500809Y-404757095D01*
X409357952Y-404757095D01*
X409167476Y-404804714D01*
X409072238Y-404852333D01*
X408977000Y-404947571D01*
X408929380Y-405090428D01*
X408929380Y-405185666D01*
X408977000Y-405328523D01*
X409024619Y-405376142D01*
X409024619Y-405757095D02*
X408977000Y-405804714D01*
X408929380Y-405899952D01*
X408929380Y-406138047D01*
X408977000Y-406233285D01*
X409024619Y-406280904D01*
X409119857Y-406328523D01*
X409215095Y-406328523D01*
X409357952Y-406280904D01*
X409929380Y-405709476D01*
X409929380Y-406328523D01*
X409929380Y-407280904D02*
X409929380Y-406709476D01*
X409929380Y-406995190D02*
X408929380Y-406995190D01*
X409072238Y-406899952D01*
X409167476Y-406804714D01*
X409215095Y-406709476D01*
X411866142Y-405376142D02*
X411913761Y-405328523D01*
X411961380Y-405185666D01*
X411961380Y-405090428D01*
X411913761Y-404947571D01*
X411818523Y-404852333D01*
X411723285Y-404804714D01*
X411532809Y-404757095D01*
X411389952Y-404757095D01*
X411199476Y-404804714D01*
X411104238Y-404852333D01*
X411009000Y-404947571D01*
X410961380Y-405090428D01*
X410961380Y-405185666D01*
X411009000Y-405328523D01*
X411056619Y-405376142D01*
X411056619Y-405757095D02*
X411009000Y-405804714D01*
X410961380Y-405899952D01*
X410961380Y-406138047D01*
X411009000Y-406233285D01*
X411056619Y-406280904D01*
X411151857Y-406328523D01*
X411247095Y-406328523D01*
X411389952Y-406280904D01*
X411961380Y-405709476D01*
X411961380Y-406328523D01*
X410961380Y-406947571D02*
X410961380Y-407042809D01*
X411009000Y-407138047D01*
X411056619Y-407185666D01*
X411151857Y-407233285D01*
X411342333Y-407280904D01*
X411580428Y-407280904D01*
X411770904Y-407233285D01*
X411866142Y-407185666D01*
X411913761Y-407138047D01*
X411961380Y-407042809D01*
X411961380Y-406947571D01*
X411913761Y-406852333D01*
X411866142Y-406804714D01*
X411770904Y-406757095D01*
X411580428Y-406709476D01*
X411342333Y-406709476D01*
X411151857Y-406757095D01*
X411056619Y-406804714D01*
X411009000Y-406852333D01*
X410961380Y-406947571D01*
X398279857Y-395679142D02*
X398327476Y-395726761D01*
X398470333Y-395774380D01*
X398565571Y-395774380D01*
X398708428Y-395726761D01*
X398803666Y-395631523D01*
X398851285Y-395536285D01*
X398898904Y-395345809D01*
X398898904Y-395202952D01*
X398851285Y-395012476D01*
X398803666Y-394917238D01*
X398708428Y-394822000D01*
X398565571Y-394774380D01*
X398470333Y-394774380D01*
X398327476Y-394822000D01*
X398279857Y-394869619D01*
X397327476Y-395774380D02*
X397898904Y-395774380D01*
X397613190Y-395774380D02*
X397613190Y-394774380D01*
X397708428Y-394917238D01*
X397803666Y-395012476D01*
X397898904Y-395060095D01*
X396851285Y-395774380D02*
X396660809Y-395774380D01*
X396565571Y-395726761D01*
X396517952Y-395679142D01*
X396422714Y-395536285D01*
X396375095Y-395345809D01*
X396375095Y-394964857D01*
X396422714Y-394869619D01*
X396470333Y-394822000D01*
X396565571Y-394774380D01*
X396756047Y-394774380D01*
X396851285Y-394822000D01*
X396898904Y-394869619D01*
X396946523Y-394964857D01*
X396946523Y-395202952D01*
X396898904Y-395298190D01*
X396851285Y-395345809D01*
X396756047Y-395393428D01*
X396565571Y-395393428D01*
X396470333Y-395345809D01*
X396422714Y-395298190D01*
X396375095Y-395202952D01*
X367162142Y-378833142D02*
X367209761Y-378785523D01*
X367257380Y-378642666D01*
X367257380Y-378547428D01*
X367209761Y-378404571D01*
X367114523Y-378309333D01*
X367019285Y-378261714D01*
X366828809Y-378214095D01*
X366685952Y-378214095D01*
X366495476Y-378261714D01*
X366400238Y-378309333D01*
X366305000Y-378404571D01*
X366257380Y-378547428D01*
X366257380Y-378642666D01*
X366305000Y-378785523D01*
X366352619Y-378833142D01*
X367257380Y-379785523D02*
X367257380Y-379214095D01*
X367257380Y-379499809D02*
X366257380Y-379499809D01*
X366400238Y-379404571D01*
X366495476Y-379309333D01*
X366543095Y-379214095D01*
X366685952Y-380356952D02*
X366638333Y-380261714D01*
X366590714Y-380214095D01*
X366495476Y-380166476D01*
X366447857Y-380166476D01*
X366352619Y-380214095D01*
X366305000Y-380261714D01*
X366257380Y-380356952D01*
X366257380Y-380547428D01*
X366305000Y-380642666D01*
X366352619Y-380690285D01*
X366447857Y-380737904D01*
X366495476Y-380737904D01*
X366590714Y-380690285D01*
X366638333Y-380642666D01*
X366685952Y-380547428D01*
X366685952Y-380356952D01*
X366733571Y-380261714D01*
X366781190Y-380214095D01*
X366876428Y-380166476D01*
X367066904Y-380166476D01*
X367162142Y-380214095D01*
X367209761Y-380261714D01*
X367257380Y-380356952D01*
X367257380Y-380547428D01*
X367209761Y-380642666D01*
X367162142Y-380690285D01*
X367066904Y-380737904D01*
X366876428Y-380737904D01*
X366781190Y-380690285D01*
X366733571Y-380642666D01*
X366685952Y-380547428D01*
X413519857Y-396949142D02*
X413567476Y-396996761D01*
X413710333Y-397044380D01*
X413805571Y-397044380D01*
X413948428Y-396996761D01*
X414043666Y-396901523D01*
X414091285Y-396806285D01*
X414138904Y-396615809D01*
X414138904Y-396472952D01*
X414091285Y-396282476D01*
X414043666Y-396187238D01*
X413948428Y-396092000D01*
X413805571Y-396044380D01*
X413710333Y-396044380D01*
X413567476Y-396092000D01*
X413519857Y-396139619D01*
X412567476Y-397044380D02*
X413138904Y-397044380D01*
X412853190Y-397044380D02*
X412853190Y-396044380D01*
X412948428Y-396187238D01*
X413043666Y-396282476D01*
X413138904Y-396330095D01*
X412234142Y-396044380D02*
X411567476Y-396044380D01*
X411996047Y-397044380D01*
X413519857Y-394917142D02*
X413567476Y-394964761D01*
X413710333Y-395012380D01*
X413805571Y-395012380D01*
X413948428Y-394964761D01*
X414043666Y-394869523D01*
X414091285Y-394774285D01*
X414138904Y-394583809D01*
X414138904Y-394440952D01*
X414091285Y-394250476D01*
X414043666Y-394155238D01*
X413948428Y-394060000D01*
X413805571Y-394012380D01*
X413710333Y-394012380D01*
X413567476Y-394060000D01*
X413519857Y-394107619D01*
X412567476Y-395012380D02*
X413138904Y-395012380D01*
X412853190Y-395012380D02*
X412853190Y-394012380D01*
X412948428Y-394155238D01*
X413043666Y-394250476D01*
X413138904Y-394298095D01*
X411710333Y-394012380D02*
X411900809Y-394012380D01*
X411996047Y-394060000D01*
X412043666Y-394107619D01*
X412138904Y-394250476D01*
X412186523Y-394440952D01*
X412186523Y-394821904D01*
X412138904Y-394917142D01*
X412091285Y-394964761D01*
X411996047Y-395012380D01*
X411805571Y-395012380D01*
X411710333Y-394964761D01*
X411662714Y-394917142D01*
X411615095Y-394821904D01*
X411615095Y-394583809D01*
X411662714Y-394488571D01*
X411710333Y-394440952D01*
X411805571Y-394393333D01*
X411996047Y-394393333D01*
X412091285Y-394440952D01*
X412138904Y-394488571D01*
X412186523Y-394583809D01*
X373962142Y-378833142D02*
X374009761Y-378785523D01*
X374057380Y-378642666D01*
X374057380Y-378547428D01*
X374009761Y-378404571D01*
X373914523Y-378309333D01*
X373819285Y-378261714D01*
X373628809Y-378214095D01*
X373485952Y-378214095D01*
X373295476Y-378261714D01*
X373200238Y-378309333D01*
X373105000Y-378404571D01*
X373057380Y-378547428D01*
X373057380Y-378642666D01*
X373105000Y-378785523D01*
X373152619Y-378833142D01*
X374057380Y-379785523D02*
X374057380Y-379214095D01*
X374057380Y-379499809D02*
X373057380Y-379499809D01*
X373200238Y-379404571D01*
X373295476Y-379309333D01*
X373343095Y-379214095D01*
X373057380Y-380690285D02*
X373057380Y-380214095D01*
X373533571Y-380166476D01*
X373485952Y-380214095D01*
X373438333Y-380309333D01*
X373438333Y-380547428D01*
X373485952Y-380642666D01*
X373533571Y-380690285D01*
X373628809Y-380737904D01*
X373866904Y-380737904D01*
X373962142Y-380690285D01*
X374009761Y-380642666D01*
X374057380Y-380547428D01*
X374057380Y-380309333D01*
X374009761Y-380214095D01*
X373962142Y-380166476D01*
X398279857Y-405135142D02*
X398327476Y-405182761D01*
X398470333Y-405230380D01*
X398565571Y-405230380D01*
X398708428Y-405182761D01*
X398803666Y-405087523D01*
X398851285Y-404992285D01*
X398898904Y-404801809D01*
X398898904Y-404658952D01*
X398851285Y-404468476D01*
X398803666Y-404373238D01*
X398708428Y-404278000D01*
X398565571Y-404230380D01*
X398470333Y-404230380D01*
X398327476Y-404278000D01*
X398279857Y-404325619D01*
X397327476Y-405230380D02*
X397898904Y-405230380D01*
X397613190Y-405230380D02*
X397613190Y-404230380D01*
X397708428Y-404373238D01*
X397803666Y-404468476D01*
X397898904Y-404516095D01*
X396470333Y-404563714D02*
X396470333Y-405230380D01*
X396708428Y-404182761D02*
X396946523Y-404897047D01*
X396327476Y-404897047D01*
X398279857Y-403103142D02*
X398327476Y-403150761D01*
X398470333Y-403198380D01*
X398565571Y-403198380D01*
X398708428Y-403150761D01*
X398803666Y-403055523D01*
X398851285Y-402960285D01*
X398898904Y-402769809D01*
X398898904Y-402626952D01*
X398851285Y-402436476D01*
X398803666Y-402341238D01*
X398708428Y-402246000D01*
X398565571Y-402198380D01*
X398470333Y-402198380D01*
X398327476Y-402246000D01*
X398279857Y-402293619D01*
X397327476Y-403198380D02*
X397898904Y-403198380D01*
X397613190Y-403198380D02*
X397613190Y-402198380D01*
X397708428Y-402341238D01*
X397803666Y-402436476D01*
X397898904Y-402484095D01*
X396994142Y-402198380D02*
X396375095Y-402198380D01*
X396708428Y-402579333D01*
X396565571Y-402579333D01*
X396470333Y-402626952D01*
X396422714Y-402674571D01*
X396375095Y-402769809D01*
X396375095Y-403007904D01*
X396422714Y-403103142D01*
X396470333Y-403150761D01*
X396565571Y-403198380D01*
X396851285Y-403198380D01*
X396946523Y-403150761D01*
X396994142Y-403103142D01*
X411485142Y-416298142D02*
X411532761Y-416250523D01*
X411580380Y-416107666D01*
X411580380Y-416012428D01*
X411532761Y-415869571D01*
X411437523Y-415774333D01*
X411342285Y-415726714D01*
X411151809Y-415679095D01*
X411008952Y-415679095D01*
X410818476Y-415726714D01*
X410723238Y-415774333D01*
X410628000Y-415869571D01*
X410580380Y-416012428D01*
X410580380Y-416107666D01*
X410628000Y-416250523D01*
X410675619Y-416298142D01*
X411580380Y-417250523D02*
X411580380Y-416679095D01*
X411580380Y-416964809D02*
X410580380Y-416964809D01*
X410723238Y-416869571D01*
X410818476Y-416774333D01*
X410866095Y-416679095D01*
X410675619Y-417631476D02*
X410628000Y-417679095D01*
X410580380Y-417774333D01*
X410580380Y-418012428D01*
X410628000Y-418107666D01*
X410675619Y-418155285D01*
X410770857Y-418202904D01*
X410866095Y-418202904D01*
X411008952Y-418155285D01*
X411580380Y-417583857D01*
X411580380Y-418202904D01*
X382089857Y-400251142D02*
X382137476Y-400298761D01*
X382280333Y-400346380D01*
X382375571Y-400346380D01*
X382518428Y-400298761D01*
X382613666Y-400203523D01*
X382661285Y-400108285D01*
X382708904Y-399917809D01*
X382708904Y-399774952D01*
X382661285Y-399584476D01*
X382613666Y-399489238D01*
X382518428Y-399394000D01*
X382375571Y-399346380D01*
X382280333Y-399346380D01*
X382137476Y-399394000D01*
X382089857Y-399441619D01*
X381137476Y-400346380D02*
X381708904Y-400346380D01*
X381423190Y-400346380D02*
X381423190Y-399346380D01*
X381518428Y-399489238D01*
X381613666Y-399584476D01*
X381708904Y-399632095D01*
X380185095Y-400346380D02*
X380756523Y-400346380D01*
X380470809Y-400346380D02*
X380470809Y-399346380D01*
X380566047Y-399489238D01*
X380661285Y-399584476D01*
X380756523Y-399632095D01*
X364304857Y-402664142D02*
X364352476Y-402711761D01*
X364495333Y-402759380D01*
X364590571Y-402759380D01*
X364733428Y-402711761D01*
X364828666Y-402616523D01*
X364876285Y-402521285D01*
X364923904Y-402330809D01*
X364923904Y-402187952D01*
X364876285Y-401997476D01*
X364828666Y-401902238D01*
X364733428Y-401807000D01*
X364590571Y-401759380D01*
X364495333Y-401759380D01*
X364352476Y-401807000D01*
X364304857Y-401854619D01*
X363352476Y-402759380D02*
X363923904Y-402759380D01*
X363638190Y-402759380D02*
X363638190Y-401759380D01*
X363733428Y-401902238D01*
X363828666Y-401997476D01*
X363923904Y-402045095D01*
X362733428Y-401759380D02*
X362638190Y-401759380D01*
X362542952Y-401807000D01*
X362495333Y-401854619D01*
X362447714Y-401949857D01*
X362400095Y-402140333D01*
X362400095Y-402378428D01*
X362447714Y-402568904D01*
X362495333Y-402664142D01*
X362542952Y-402711761D01*
X362638190Y-402759380D01*
X362733428Y-402759380D01*
X362828666Y-402711761D01*
X362876285Y-402664142D01*
X362923904Y-402568904D01*
X362971523Y-402378428D01*
X362971523Y-402140333D01*
X362923904Y-401949857D01*
X362876285Y-401854619D01*
X362828666Y-401807000D01*
X362733428Y-401759380D01*
X361701142Y-385786333D02*
X361748761Y-385738714D01*
X361796380Y-385595857D01*
X361796380Y-385500619D01*
X361748761Y-385357761D01*
X361653523Y-385262523D01*
X361558285Y-385214904D01*
X361367809Y-385167285D01*
X361224952Y-385167285D01*
X361034476Y-385214904D01*
X360939238Y-385262523D01*
X360844000Y-385357761D01*
X360796380Y-385500619D01*
X360796380Y-385595857D01*
X360844000Y-385738714D01*
X360891619Y-385786333D01*
X361796380Y-386262523D02*
X361796380Y-386453000D01*
X361748761Y-386548238D01*
X361701142Y-386595857D01*
X361558285Y-386691095D01*
X361367809Y-386738714D01*
X360986857Y-386738714D01*
X360891619Y-386691095D01*
X360844000Y-386643476D01*
X360796380Y-386548238D01*
X360796380Y-386357761D01*
X360844000Y-386262523D01*
X360891619Y-386214904D01*
X360986857Y-386167285D01*
X361224952Y-386167285D01*
X361320190Y-386214904D01*
X361367809Y-386262523D01*
X361415428Y-386357761D01*
X361415428Y-386548238D01*
X361367809Y-386643476D01*
X361320190Y-386691095D01*
X361224952Y-386738714D01*
X361701142Y-399756333D02*
X361748761Y-399708714D01*
X361796380Y-399565857D01*
X361796380Y-399470619D01*
X361748761Y-399327761D01*
X361653523Y-399232523D01*
X361558285Y-399184904D01*
X361367809Y-399137285D01*
X361224952Y-399137285D01*
X361034476Y-399184904D01*
X360939238Y-399232523D01*
X360844000Y-399327761D01*
X360796380Y-399470619D01*
X360796380Y-399565857D01*
X360844000Y-399708714D01*
X360891619Y-399756333D01*
X361224952Y-400327761D02*
X361177333Y-400232523D01*
X361129714Y-400184904D01*
X361034476Y-400137285D01*
X360986857Y-400137285D01*
X360891619Y-400184904D01*
X360844000Y-400232523D01*
X360796380Y-400327761D01*
X360796380Y-400518238D01*
X360844000Y-400613476D01*
X360891619Y-400661095D01*
X360986857Y-400708714D01*
X361034476Y-400708714D01*
X361129714Y-400661095D01*
X361177333Y-400613476D01*
X361224952Y-400518238D01*
X361224952Y-400327761D01*
X361272571Y-400232523D01*
X361320190Y-400184904D01*
X361415428Y-400137285D01*
X361605904Y-400137285D01*
X361701142Y-400184904D01*
X361748761Y-400232523D01*
X361796380Y-400327761D01*
X361796380Y-400518238D01*
X361748761Y-400613476D01*
X361701142Y-400661095D01*
X361605904Y-400708714D01*
X361415428Y-400708714D01*
X361320190Y-400661095D01*
X361272571Y-400613476D01*
X361224952Y-400518238D01*
X409453142Y-416774333D02*
X409500761Y-416726714D01*
X409548380Y-416583857D01*
X409548380Y-416488619D01*
X409500761Y-416345761D01*
X409405523Y-416250523D01*
X409310285Y-416202904D01*
X409119809Y-416155285D01*
X408976952Y-416155285D01*
X408786476Y-416202904D01*
X408691238Y-416250523D01*
X408596000Y-416345761D01*
X408548380Y-416488619D01*
X408548380Y-416583857D01*
X408596000Y-416726714D01*
X408643619Y-416774333D01*
X408548380Y-417107666D02*
X408548380Y-417774333D01*
X409548380Y-417345761D01*
X407421142Y-416774333D02*
X407468761Y-416726714D01*
X407516380Y-416583857D01*
X407516380Y-416488619D01*
X407468761Y-416345761D01*
X407373523Y-416250523D01*
X407278285Y-416202904D01*
X407087809Y-416155285D01*
X406944952Y-416155285D01*
X406754476Y-416202904D01*
X406659238Y-416250523D01*
X406564000Y-416345761D01*
X406516380Y-416488619D01*
X406516380Y-416583857D01*
X406564000Y-416726714D01*
X406611619Y-416774333D01*
X406516380Y-417631476D02*
X406516380Y-417441000D01*
X406564000Y-417345761D01*
X406611619Y-417298142D01*
X406754476Y-417202904D01*
X406944952Y-417155285D01*
X407325904Y-417155285D01*
X407421142Y-417202904D01*
X407468761Y-417250523D01*
X407516380Y-417345761D01*
X407516380Y-417536238D01*
X407468761Y-417631476D01*
X407421142Y-417679095D01*
X407325904Y-417726714D01*
X407087809Y-417726714D01*
X406992571Y-417679095D01*
X406944952Y-417631476D01*
X406897333Y-417536238D01*
X406897333Y-417345761D01*
X406944952Y-417250523D01*
X406992571Y-417202904D01*
X407087809Y-417155285D01*
X359195666Y-392631142D02*
X359243285Y-392678761D01*
X359386142Y-392726380D01*
X359481380Y-392726380D01*
X359624238Y-392678761D01*
X359719476Y-392583523D01*
X359767095Y-392488285D01*
X359814714Y-392297809D01*
X359814714Y-392154952D01*
X359767095Y-391964476D01*
X359719476Y-391869238D01*
X359624238Y-391774000D01*
X359481380Y-391726380D01*
X359386142Y-391726380D01*
X359243285Y-391774000D01*
X359195666Y-391821619D01*
X358290904Y-391726380D02*
X358767095Y-391726380D01*
X358814714Y-392202571D01*
X358767095Y-392154952D01*
X358671857Y-392107333D01*
X358433761Y-392107333D01*
X358338523Y-392154952D01*
X358290904Y-392202571D01*
X358243285Y-392297809D01*
X358243285Y-392535904D01*
X358290904Y-392631142D01*
X358338523Y-392678761D01*
X358433761Y-392726380D01*
X358671857Y-392726380D01*
X358767095Y-392678761D01*
X358814714Y-392631142D01*
X398277142Y-416774333D02*
X398324761Y-416726714D01*
X398372380Y-416583857D01*
X398372380Y-416488619D01*
X398324761Y-416345761D01*
X398229523Y-416250523D01*
X398134285Y-416202904D01*
X397943809Y-416155285D01*
X397800952Y-416155285D01*
X397610476Y-416202904D01*
X397515238Y-416250523D01*
X397420000Y-416345761D01*
X397372380Y-416488619D01*
X397372380Y-416583857D01*
X397420000Y-416726714D01*
X397467619Y-416774333D01*
X397705714Y-417631476D02*
X398372380Y-417631476D01*
X397324761Y-417393380D02*
X398039047Y-417155285D01*
X398039047Y-417774333D01*
X400309142Y-416774333D02*
X400356761Y-416726714D01*
X400404380Y-416583857D01*
X400404380Y-416488619D01*
X400356761Y-416345761D01*
X400261523Y-416250523D01*
X400166285Y-416202904D01*
X399975809Y-416155285D01*
X399832952Y-416155285D01*
X399642476Y-416202904D01*
X399547238Y-416250523D01*
X399452000Y-416345761D01*
X399404380Y-416488619D01*
X399404380Y-416583857D01*
X399452000Y-416726714D01*
X399499619Y-416774333D01*
X399404380Y-417107666D02*
X399404380Y-417726714D01*
X399785333Y-417393380D01*
X399785333Y-417536238D01*
X399832952Y-417631476D01*
X399880571Y-417679095D01*
X399975809Y-417726714D01*
X400213904Y-417726714D01*
X400309142Y-417679095D01*
X400356761Y-417631476D01*
X400404380Y-417536238D01*
X400404380Y-417250523D01*
X400356761Y-417155285D01*
X400309142Y-417107666D01*
X393612666Y-415110142D02*
X393660285Y-415157761D01*
X393803142Y-415205380D01*
X393898380Y-415205380D01*
X394041238Y-415157761D01*
X394136476Y-415062523D01*
X394184095Y-414967285D01*
X394231714Y-414776809D01*
X394231714Y-414633952D01*
X394184095Y-414443476D01*
X394136476Y-414348238D01*
X394041238Y-414253000D01*
X393898380Y-414205380D01*
X393803142Y-414205380D01*
X393660285Y-414253000D01*
X393612666Y-414300619D01*
X393231714Y-414300619D02*
X393184095Y-414253000D01*
X393088857Y-414205380D01*
X392850761Y-414205380D01*
X392755523Y-414253000D01*
X392707904Y-414300619D01*
X392660285Y-414395857D01*
X392660285Y-414491095D01*
X392707904Y-414633952D01*
X393279333Y-415205380D01*
X392660285Y-415205380D01*
X390056666Y-415110142D02*
X390104285Y-415157761D01*
X390247142Y-415205380D01*
X390342380Y-415205380D01*
X390485238Y-415157761D01*
X390580476Y-415062523D01*
X390628095Y-414967285D01*
X390675714Y-414776809D01*
X390675714Y-414633952D01*
X390628095Y-414443476D01*
X390580476Y-414348238D01*
X390485238Y-414253000D01*
X390342380Y-414205380D01*
X390247142Y-414205380D01*
X390104285Y-414253000D01*
X390056666Y-414300619D01*
X389104285Y-415205380D02*
X389675714Y-415205380D01*
X389390000Y-415205380D02*
X389390000Y-414205380D01*
X389485238Y-414348238D01*
X389580476Y-414443476D01*
X389675714Y-414491095D01*
M02*
