M48
INCH,TZ
T1C0.0157
T2C0.0236
T3C0.0315
T4C0.0579
%
G90
G05
T1
X134900Y-147100
X134900Y-148600
X136850Y-147105
X136900Y-149050
X137950Y-158750
X141450Y-161500
X141800Y-149550
X142411Y-153250
X143500Y-153650
X143500Y-163900
X143786Y-153978
X143786Y-161786
X144200Y-158450
X144200Y-159350
X146250Y-151050
X146350Y-152400
X146550Y-161300
X147100Y-156500
X147500Y-159850
X148450Y-159750
X149700Y-161014
X149850Y-144450
X149850Y-152300
X150128Y-152578
X150178Y-144736
X150433Y-152827
X150495Y-145000
X150708Y-153110
X150720Y-145350
X151050Y-145750
X151050Y-153850
X151336Y-146250
X151350Y-157300
X151622Y-154750
X151627Y-146516
X151800Y-160238
X151800Y-162235
X151800Y-163900
X151800Y-164472
X151836Y-151300
X151938Y-146757
X152100Y-162808
X152100Y-164759
X152194Y-162235
X152200Y-160150
X153250Y-162900
X154250Y-157400
X155700Y-163300
X156900Y-162000
X157050Y-163250
X157250Y-159600
X157344Y-151701
X157350Y-152100
X157358Y-157764
X157400Y-158200
X157403Y-157373
X157500Y-161700
X157550Y-162286
X157650Y-163700
X158000Y-161014
X158000Y-161586
X158850Y-146900
X158850Y-148750
X158850Y-150250
X159400Y-145922
X159405Y-148797
X159453Y-160525
X159500Y-153300
X159500Y-153948
X159500Y-154650
X159746Y-153607
X159800Y-160200
X160100Y-152150
X160100Y-159800
X166728Y-164472
X167664Y-154400
X167664Y-155700
X168250Y-155700
X168550Y-145000
X169001Y-155549
X169850Y-163636
X172026Y-146852
X172050Y-161900
X172050Y-162500
X172249Y-154350
X172428Y-146805
X172428Y-154950
X172714Y-146512
X173000Y-146209
X175750Y-155528
X175750Y-156400
X176000Y-145350
X176065Y-162982
X176150Y-163922
X176400Y-155500
X176400Y-156100
X176450Y-163064
X176450Y-163636
X178500Y-161450
X178550Y-153950
X179714Y-145922
X180000Y-145550
X181400Y-145250
X181464Y-153150
X181750Y-144950
X181750Y-160650
T3
X136250Y-162500
X136250Y-163287
X137037Y-162500
X137037Y-163287
X137825Y-162500
X137825Y-163287
T4
X168500Y-151500
X168500Y-159000
X171000Y-150500
X171000Y-158000
X176000Y-151500
X176000Y-159000
X178500Y-150500
X178500Y-158000
T2
G00X134149Y-144506
M15
G01X134149Y-144742
M16
G05
G00X134149Y-146053
M15
G01X134149Y-146486
M16
G05
G00X137551Y-144506
M15
G01X137551Y-144742
M16
G05
G00X137551Y-146053
M15
G01X137551Y-146486
M16
G05
T0
M30
