G04 #@! TF.GenerationSoftware,KiCad,Pcbnew,(5.1.9)-1*
G04 #@! TF.CreationDate,2021-02-01T17:40:24-05:00*
G04 #@! TF.ProjectId,TooManyKeys,546f6f4d-616e-4794-9b65-79732e6b6963,rev?*
G04 #@! TF.SameCoordinates,Original*
G04 #@! TF.FileFunction,Soldermask,Bot*
G04 #@! TF.FilePolarity,Negative*
%FSLAX46Y46*%
G04 Gerber Fmt 4.6, Leading zero omitted, Abs format (unit mm)*
G04 Created by KiCad (PCBNEW (5.1.9)-1) date 2021-02-01 17:40:24*
%MOMM*%
%LPD*%
G01*
G04 APERTURE LIST*
%ADD10C,2.250000*%
%ADD11C,3.987800*%
%ADD12C,3.048000*%
%ADD13C,0.100000*%
%ADD14C,4.500000*%
%ADD15R,1.400000X0.800000*%
%ADD16R,0.800000X1.400000*%
%ADD17R,2.400000X2.400000*%
%ADD18R,0.300000X1.200000*%
%ADD19C,1.300000*%
%ADD20R,1.800000X1.100000*%
%ADD21R,0.600000X1.450000*%
%ADD22R,0.300000X1.450000*%
%ADD23C,0.650000*%
%ADD24R,2.000000X1.500000*%
%ADD25R,2.000000X3.800000*%
%ADD26R,0.850000X0.300000*%
%ADD27R,1.475000X0.600000*%
%ADD28R,0.600000X1.475000*%
%ADD29R,0.700000X1.000000*%
%ADD30R,0.700000X0.600000*%
%ADD31R,1.200000X0.900000*%
%ADD32R,0.900000X1.200000*%
G04 APERTURE END LIST*
D10*
G04 #@! TO.C,MX_ENT1*
X433546000Y-334645000D03*
D11*
X431006000Y-339725000D03*
D10*
X427196000Y-337185000D03*
D12*
X419099750Y-332740000D03*
X442912250Y-332740000D03*
D11*
X419099750Y-347980000D03*
X442912250Y-347980000D03*
G04 #@! TD*
D10*
G04 #@! TO.C,MX_F10*
X400987260Y-275269960D03*
D11*
X404797260Y-277809960D03*
D10*
X407337260Y-272729960D03*
G04 #@! TD*
D13*
G04 #@! TO.C,MASTER_U1*
G36*
X328676000Y-261510214D02*
G01*
X327261786Y-260096000D01*
X328676000Y-258681786D01*
X330090214Y-260096000D01*
X328676000Y-261510214D01*
G37*
G36*
X330143600Y-265664819D02*
G01*
X329100618Y-264621837D01*
X329312750Y-264409705D01*
X330355732Y-265452687D01*
X330143600Y-265664819D01*
G37*
G36*
X330497153Y-265311266D02*
G01*
X329454171Y-264268284D01*
X329666303Y-264056152D01*
X330709285Y-265099134D01*
X330497153Y-265311266D01*
G37*
G36*
X330850707Y-264957712D02*
G01*
X329807725Y-263914730D01*
X330019857Y-263702598D01*
X331062839Y-264745580D01*
X330850707Y-264957712D01*
G37*
G36*
X331204260Y-264604159D02*
G01*
X330161278Y-263561177D01*
X330373410Y-263349045D01*
X331416392Y-264392027D01*
X331204260Y-264604159D01*
G37*
G36*
X331557813Y-264250606D02*
G01*
X330514831Y-263207624D01*
X330726963Y-262995492D01*
X331769945Y-264038474D01*
X331557813Y-264250606D01*
G37*
G36*
X331911367Y-263897052D02*
G01*
X330868385Y-262854070D01*
X331080517Y-262641938D01*
X332123499Y-263684920D01*
X331911367Y-263897052D01*
G37*
G36*
X332264920Y-263543499D02*
G01*
X331221938Y-262500517D01*
X331434070Y-262288385D01*
X332477052Y-263331367D01*
X332264920Y-263543499D01*
G37*
G36*
X332618474Y-263189945D02*
G01*
X331575492Y-262146963D01*
X331787624Y-261934831D01*
X332830606Y-262977813D01*
X332618474Y-263189945D01*
G37*
G36*
X332972027Y-262836392D02*
G01*
X331929045Y-261793410D01*
X332141177Y-261581278D01*
X333184159Y-262624260D01*
X332972027Y-262836392D01*
G37*
G36*
X333325580Y-262482839D02*
G01*
X332282598Y-261439857D01*
X332494730Y-261227725D01*
X333537712Y-262270707D01*
X333325580Y-262482839D01*
G37*
G36*
X333679134Y-262129285D02*
G01*
X332636152Y-261086303D01*
X332848284Y-260874171D01*
X333891266Y-261917153D01*
X333679134Y-262129285D01*
G37*
G36*
X334032687Y-261775732D02*
G01*
X332989705Y-260732750D01*
X333201837Y-260520618D01*
X334244819Y-261563600D01*
X334032687Y-261775732D01*
G37*
G36*
X332989705Y-259459250D02*
G01*
X334032687Y-258416268D01*
X334244819Y-258628400D01*
X333201837Y-259671382D01*
X332989705Y-259459250D01*
G37*
G36*
X332636152Y-259105697D02*
G01*
X333679134Y-258062715D01*
X333891266Y-258274847D01*
X332848284Y-259317829D01*
X332636152Y-259105697D01*
G37*
G36*
X332282598Y-258752143D02*
G01*
X333325580Y-257709161D01*
X333537712Y-257921293D01*
X332494730Y-258964275D01*
X332282598Y-258752143D01*
G37*
G36*
X331929045Y-258398590D02*
G01*
X332972027Y-257355608D01*
X333184159Y-257567740D01*
X332141177Y-258610722D01*
X331929045Y-258398590D01*
G37*
G36*
X331575492Y-258045037D02*
G01*
X332618474Y-257002055D01*
X332830606Y-257214187D01*
X331787624Y-258257169D01*
X331575492Y-258045037D01*
G37*
G36*
X331221938Y-257691483D02*
G01*
X332264920Y-256648501D01*
X332477052Y-256860633D01*
X331434070Y-257903615D01*
X331221938Y-257691483D01*
G37*
G36*
X330868385Y-257337930D02*
G01*
X331911367Y-256294948D01*
X332123499Y-256507080D01*
X331080517Y-257550062D01*
X330868385Y-257337930D01*
G37*
G36*
X330514831Y-256984376D02*
G01*
X331557813Y-255941394D01*
X331769945Y-256153526D01*
X330726963Y-257196508D01*
X330514831Y-256984376D01*
G37*
G36*
X330161278Y-256630823D02*
G01*
X331204260Y-255587841D01*
X331416392Y-255799973D01*
X330373410Y-256842955D01*
X330161278Y-256630823D01*
G37*
G36*
X329807725Y-256277270D02*
G01*
X330850707Y-255234288D01*
X331062839Y-255446420D01*
X330019857Y-256489402D01*
X329807725Y-256277270D01*
G37*
G36*
X329454171Y-255923716D02*
G01*
X330497153Y-254880734D01*
X330709285Y-255092866D01*
X329666303Y-256135848D01*
X329454171Y-255923716D01*
G37*
G36*
X329100618Y-255570163D02*
G01*
X330143600Y-254527181D01*
X330355732Y-254739313D01*
X329312750Y-255782295D01*
X329100618Y-255570163D01*
G37*
G36*
X328039250Y-255782295D02*
G01*
X326996268Y-254739313D01*
X327208400Y-254527181D01*
X328251382Y-255570163D01*
X328039250Y-255782295D01*
G37*
G36*
X327685697Y-256135848D02*
G01*
X326642715Y-255092866D01*
X326854847Y-254880734D01*
X327897829Y-255923716D01*
X327685697Y-256135848D01*
G37*
G36*
X327332143Y-256489402D02*
G01*
X326289161Y-255446420D01*
X326501293Y-255234288D01*
X327544275Y-256277270D01*
X327332143Y-256489402D01*
G37*
G36*
X326978590Y-256842955D02*
G01*
X325935608Y-255799973D01*
X326147740Y-255587841D01*
X327190722Y-256630823D01*
X326978590Y-256842955D01*
G37*
G36*
X326625037Y-257196508D02*
G01*
X325582055Y-256153526D01*
X325794187Y-255941394D01*
X326837169Y-256984376D01*
X326625037Y-257196508D01*
G37*
G36*
X326271483Y-257550062D02*
G01*
X325228501Y-256507080D01*
X325440633Y-256294948D01*
X326483615Y-257337930D01*
X326271483Y-257550062D01*
G37*
G36*
X325917930Y-257903615D02*
G01*
X324874948Y-256860633D01*
X325087080Y-256648501D01*
X326130062Y-257691483D01*
X325917930Y-257903615D01*
G37*
G36*
X325564376Y-258257169D02*
G01*
X324521394Y-257214187D01*
X324733526Y-257002055D01*
X325776508Y-258045037D01*
X325564376Y-258257169D01*
G37*
G36*
X325210823Y-258610722D02*
G01*
X324167841Y-257567740D01*
X324379973Y-257355608D01*
X325422955Y-258398590D01*
X325210823Y-258610722D01*
G37*
G36*
X324857270Y-258964275D02*
G01*
X323814288Y-257921293D01*
X324026420Y-257709161D01*
X325069402Y-258752143D01*
X324857270Y-258964275D01*
G37*
G36*
X324503716Y-259317829D02*
G01*
X323460734Y-258274847D01*
X323672866Y-258062715D01*
X324715848Y-259105697D01*
X324503716Y-259317829D01*
G37*
G36*
X324150163Y-259671382D02*
G01*
X323107181Y-258628400D01*
X323319313Y-258416268D01*
X324362295Y-259459250D01*
X324150163Y-259671382D01*
G37*
G36*
X323107181Y-261563600D02*
G01*
X324150163Y-260520618D01*
X324362295Y-260732750D01*
X323319313Y-261775732D01*
X323107181Y-261563600D01*
G37*
G36*
X323460734Y-261917153D02*
G01*
X324503716Y-260874171D01*
X324715848Y-261086303D01*
X323672866Y-262129285D01*
X323460734Y-261917153D01*
G37*
G36*
X323814288Y-262270707D02*
G01*
X324857270Y-261227725D01*
X325069402Y-261439857D01*
X324026420Y-262482839D01*
X323814288Y-262270707D01*
G37*
G36*
X324167841Y-262624260D02*
G01*
X325210823Y-261581278D01*
X325422955Y-261793410D01*
X324379973Y-262836392D01*
X324167841Y-262624260D01*
G37*
G36*
X324521394Y-262977813D02*
G01*
X325564376Y-261934831D01*
X325776508Y-262146963D01*
X324733526Y-263189945D01*
X324521394Y-262977813D01*
G37*
G36*
X324874948Y-263331367D02*
G01*
X325917930Y-262288385D01*
X326130062Y-262500517D01*
X325087080Y-263543499D01*
X324874948Y-263331367D01*
G37*
G36*
X325228501Y-263684920D02*
G01*
X326271483Y-262641938D01*
X326483615Y-262854070D01*
X325440633Y-263897052D01*
X325228501Y-263684920D01*
G37*
G36*
X325582055Y-264038474D02*
G01*
X326625037Y-262995492D01*
X326837169Y-263207624D01*
X325794187Y-264250606D01*
X325582055Y-264038474D01*
G37*
G36*
X325935608Y-264392027D02*
G01*
X326978590Y-263349045D01*
X327190722Y-263561177D01*
X326147740Y-264604159D01*
X325935608Y-264392027D01*
G37*
G36*
X326289161Y-264745580D02*
G01*
X327332143Y-263702598D01*
X327544275Y-263914730D01*
X326501293Y-264957712D01*
X326289161Y-264745580D01*
G37*
G36*
X326642715Y-265099134D02*
G01*
X327685697Y-264056152D01*
X327897829Y-264268284D01*
X326854847Y-265311266D01*
X326642715Y-265099134D01*
G37*
G36*
X326996268Y-265452687D02*
G01*
X328039250Y-264409705D01*
X328251382Y-264621837D01*
X327208400Y-265664819D01*
X326996268Y-265452687D01*
G37*
G04 #@! TD*
D10*
G04 #@! TO.C,MX_9*
X350202000Y-296545000D03*
D11*
X347662000Y-301625000D03*
D10*
X343852000Y-299085000D03*
G04 #@! TD*
G04 #@! TO.C,MX_F12*
X445452000Y-272732000D03*
D11*
X442912000Y-277812000D03*
D10*
X439102000Y-275272000D03*
G04 #@! TD*
G04 #@! TO.C,MX_5*
X274002000Y-296545000D03*
D11*
X271462000Y-301625000D03*
D10*
X267652000Y-299085000D03*
G04 #@! TD*
D14*
G04 #@! TO.C,LED72*
X342900000Y-345281000D03*
D15*
X345500000Y-344556000D03*
X340300000Y-344556000D03*
X340300000Y-346006000D03*
X345500000Y-346006000D03*
G04 #@! TD*
D10*
G04 #@! TO.C,MX_GRV1*
X178752000Y-296545000D03*
D11*
X176212000Y-301625000D03*
D10*
X172402000Y-299085000D03*
G04 #@! TD*
G04 #@! TO.C,MX_PREV1*
X254952000Y-253682000D03*
D11*
X252412000Y-258762000D03*
D10*
X248602000Y-256222000D03*
G04 #@! TD*
G04 #@! TO.C,MX_PLAY1*
X216852000Y-253682000D03*
D11*
X214312000Y-258762000D03*
D10*
X210502000Y-256222000D03*
G04 #@! TD*
G04 #@! TO.C,MX_NEXT1*
X274002000Y-253682000D03*
D11*
X271462000Y-258762000D03*
D10*
X267652000Y-256222000D03*
G04 #@! TD*
D13*
G04 #@! TO.C,SLAVE_U1*
G36*
X415942214Y-259842000D02*
G01*
X414528000Y-261256214D01*
X413113786Y-259842000D01*
X414528000Y-258427786D01*
X415942214Y-259842000D01*
G37*
G36*
X420096819Y-258374400D02*
G01*
X419053837Y-259417382D01*
X418841705Y-259205250D01*
X419884687Y-258162268D01*
X420096819Y-258374400D01*
G37*
G36*
X419743266Y-258020847D02*
G01*
X418700284Y-259063829D01*
X418488152Y-258851697D01*
X419531134Y-257808715D01*
X419743266Y-258020847D01*
G37*
G36*
X419389712Y-257667293D02*
G01*
X418346730Y-258710275D01*
X418134598Y-258498143D01*
X419177580Y-257455161D01*
X419389712Y-257667293D01*
G37*
G36*
X419036159Y-257313740D02*
G01*
X417993177Y-258356722D01*
X417781045Y-258144590D01*
X418824027Y-257101608D01*
X419036159Y-257313740D01*
G37*
G36*
X418682606Y-256960187D02*
G01*
X417639624Y-258003169D01*
X417427492Y-257791037D01*
X418470474Y-256748055D01*
X418682606Y-256960187D01*
G37*
G36*
X418329052Y-256606633D02*
G01*
X417286070Y-257649615D01*
X417073938Y-257437483D01*
X418116920Y-256394501D01*
X418329052Y-256606633D01*
G37*
G36*
X417975499Y-256253080D02*
G01*
X416932517Y-257296062D01*
X416720385Y-257083930D01*
X417763367Y-256040948D01*
X417975499Y-256253080D01*
G37*
G36*
X417621945Y-255899526D02*
G01*
X416578963Y-256942508D01*
X416366831Y-256730376D01*
X417409813Y-255687394D01*
X417621945Y-255899526D01*
G37*
G36*
X417268392Y-255545973D02*
G01*
X416225410Y-256588955D01*
X416013278Y-256376823D01*
X417056260Y-255333841D01*
X417268392Y-255545973D01*
G37*
G36*
X416914839Y-255192420D02*
G01*
X415871857Y-256235402D01*
X415659725Y-256023270D01*
X416702707Y-254980288D01*
X416914839Y-255192420D01*
G37*
G36*
X416561285Y-254838866D02*
G01*
X415518303Y-255881848D01*
X415306171Y-255669716D01*
X416349153Y-254626734D01*
X416561285Y-254838866D01*
G37*
G36*
X416207732Y-254485313D02*
G01*
X415164750Y-255528295D01*
X414952618Y-255316163D01*
X415995600Y-254273181D01*
X416207732Y-254485313D01*
G37*
G36*
X413891250Y-255528295D02*
G01*
X412848268Y-254485313D01*
X413060400Y-254273181D01*
X414103382Y-255316163D01*
X413891250Y-255528295D01*
G37*
G36*
X413537697Y-255881848D02*
G01*
X412494715Y-254838866D01*
X412706847Y-254626734D01*
X413749829Y-255669716D01*
X413537697Y-255881848D01*
G37*
G36*
X413184143Y-256235402D02*
G01*
X412141161Y-255192420D01*
X412353293Y-254980288D01*
X413396275Y-256023270D01*
X413184143Y-256235402D01*
G37*
G36*
X412830590Y-256588955D02*
G01*
X411787608Y-255545973D01*
X411999740Y-255333841D01*
X413042722Y-256376823D01*
X412830590Y-256588955D01*
G37*
G36*
X412477037Y-256942508D02*
G01*
X411434055Y-255899526D01*
X411646187Y-255687394D01*
X412689169Y-256730376D01*
X412477037Y-256942508D01*
G37*
G36*
X412123483Y-257296062D02*
G01*
X411080501Y-256253080D01*
X411292633Y-256040948D01*
X412335615Y-257083930D01*
X412123483Y-257296062D01*
G37*
G36*
X411769930Y-257649615D02*
G01*
X410726948Y-256606633D01*
X410939080Y-256394501D01*
X411982062Y-257437483D01*
X411769930Y-257649615D01*
G37*
G36*
X411416376Y-258003169D02*
G01*
X410373394Y-256960187D01*
X410585526Y-256748055D01*
X411628508Y-257791037D01*
X411416376Y-258003169D01*
G37*
G36*
X411062823Y-258356722D02*
G01*
X410019841Y-257313740D01*
X410231973Y-257101608D01*
X411274955Y-258144590D01*
X411062823Y-258356722D01*
G37*
G36*
X410709270Y-258710275D02*
G01*
X409666288Y-257667293D01*
X409878420Y-257455161D01*
X410921402Y-258498143D01*
X410709270Y-258710275D01*
G37*
G36*
X410355716Y-259063829D02*
G01*
X409312734Y-258020847D01*
X409524866Y-257808715D01*
X410567848Y-258851697D01*
X410355716Y-259063829D01*
G37*
G36*
X410002163Y-259417382D02*
G01*
X408959181Y-258374400D01*
X409171313Y-258162268D01*
X410214295Y-259205250D01*
X410002163Y-259417382D01*
G37*
G36*
X410214295Y-260478750D02*
G01*
X409171313Y-261521732D01*
X408959181Y-261309600D01*
X410002163Y-260266618D01*
X410214295Y-260478750D01*
G37*
G36*
X410567848Y-260832303D02*
G01*
X409524866Y-261875285D01*
X409312734Y-261663153D01*
X410355716Y-260620171D01*
X410567848Y-260832303D01*
G37*
G36*
X410921402Y-261185857D02*
G01*
X409878420Y-262228839D01*
X409666288Y-262016707D01*
X410709270Y-260973725D01*
X410921402Y-261185857D01*
G37*
G36*
X411274955Y-261539410D02*
G01*
X410231973Y-262582392D01*
X410019841Y-262370260D01*
X411062823Y-261327278D01*
X411274955Y-261539410D01*
G37*
G36*
X411628508Y-261892963D02*
G01*
X410585526Y-262935945D01*
X410373394Y-262723813D01*
X411416376Y-261680831D01*
X411628508Y-261892963D01*
G37*
G36*
X411982062Y-262246517D02*
G01*
X410939080Y-263289499D01*
X410726948Y-263077367D01*
X411769930Y-262034385D01*
X411982062Y-262246517D01*
G37*
G36*
X412335615Y-262600070D02*
G01*
X411292633Y-263643052D01*
X411080501Y-263430920D01*
X412123483Y-262387938D01*
X412335615Y-262600070D01*
G37*
G36*
X412689169Y-262953624D02*
G01*
X411646187Y-263996606D01*
X411434055Y-263784474D01*
X412477037Y-262741492D01*
X412689169Y-262953624D01*
G37*
G36*
X413042722Y-263307177D02*
G01*
X411999740Y-264350159D01*
X411787608Y-264138027D01*
X412830590Y-263095045D01*
X413042722Y-263307177D01*
G37*
G36*
X413396275Y-263660730D02*
G01*
X412353293Y-264703712D01*
X412141161Y-264491580D01*
X413184143Y-263448598D01*
X413396275Y-263660730D01*
G37*
G36*
X413749829Y-264014284D02*
G01*
X412706847Y-265057266D01*
X412494715Y-264845134D01*
X413537697Y-263802152D01*
X413749829Y-264014284D01*
G37*
G36*
X414103382Y-264367837D02*
G01*
X413060400Y-265410819D01*
X412848268Y-265198687D01*
X413891250Y-264155705D01*
X414103382Y-264367837D01*
G37*
G36*
X415995600Y-265410819D02*
G01*
X414952618Y-264367837D01*
X415164750Y-264155705D01*
X416207732Y-265198687D01*
X415995600Y-265410819D01*
G37*
G36*
X416349153Y-265057266D02*
G01*
X415306171Y-264014284D01*
X415518303Y-263802152D01*
X416561285Y-264845134D01*
X416349153Y-265057266D01*
G37*
G36*
X416702707Y-264703712D02*
G01*
X415659725Y-263660730D01*
X415871857Y-263448598D01*
X416914839Y-264491580D01*
X416702707Y-264703712D01*
G37*
G36*
X417056260Y-264350159D02*
G01*
X416013278Y-263307177D01*
X416225410Y-263095045D01*
X417268392Y-264138027D01*
X417056260Y-264350159D01*
G37*
G36*
X417409813Y-263996606D02*
G01*
X416366831Y-262953624D01*
X416578963Y-262741492D01*
X417621945Y-263784474D01*
X417409813Y-263996606D01*
G37*
G36*
X417763367Y-263643052D02*
G01*
X416720385Y-262600070D01*
X416932517Y-262387938D01*
X417975499Y-263430920D01*
X417763367Y-263643052D01*
G37*
G36*
X418116920Y-263289499D02*
G01*
X417073938Y-262246517D01*
X417286070Y-262034385D01*
X418329052Y-263077367D01*
X418116920Y-263289499D01*
G37*
G36*
X418470474Y-262935945D02*
G01*
X417427492Y-261892963D01*
X417639624Y-261680831D01*
X418682606Y-262723813D01*
X418470474Y-262935945D01*
G37*
G36*
X418824027Y-262582392D02*
G01*
X417781045Y-261539410D01*
X417993177Y-261327278D01*
X419036159Y-262370260D01*
X418824027Y-262582392D01*
G37*
G36*
X419177580Y-262228839D02*
G01*
X418134598Y-261185857D01*
X418346730Y-260973725D01*
X419389712Y-262016707D01*
X419177580Y-262228839D01*
G37*
G36*
X419531134Y-261875285D02*
G01*
X418488152Y-260832303D01*
X418700284Y-260620171D01*
X419743266Y-261663153D01*
X419531134Y-261875285D01*
G37*
G36*
X419884687Y-261521732D02*
G01*
X418841705Y-260478750D01*
X419053837Y-260266618D01*
X420096819Y-261309600D01*
X419884687Y-261521732D01*
G37*
G04 #@! TD*
D10*
G04 #@! TO.C,MX_F11*
X426402000Y-272732000D03*
D11*
X423862000Y-277812000D03*
D10*
X420052000Y-275272000D03*
G04 #@! TD*
G04 #@! TO.C,MX_F6*
X321628000Y-272732000D03*
D11*
X319088000Y-277812000D03*
D10*
X315278000Y-275272000D03*
G04 #@! TD*
G04 #@! TO.C,MX_MUTE1*
X469265000Y-253682000D03*
D11*
X466725000Y-258762000D03*
D10*
X462915000Y-256222000D03*
G04 #@! TD*
G04 #@! TO.C,MX_F2*
X235902000Y-272732000D03*
D11*
X233362000Y-277812000D03*
D10*
X229552000Y-275272000D03*
G04 #@! TD*
D14*
G04 #@! TO.C,LED111*
X585724000Y-307181000D03*
D15*
X588324000Y-306456000D03*
X583124000Y-306456000D03*
X583124000Y-307906000D03*
X588324000Y-307906000D03*
G04 #@! TD*
D14*
G04 #@! TO.C,LED110*
X580167000Y-330327000D03*
D16*
X580892000Y-332927000D03*
X580892000Y-327727000D03*
X579442000Y-327727000D03*
X579442000Y-332927000D03*
G04 #@! TD*
D14*
G04 #@! TO.C,LED109*
X580167000Y-368554000D03*
D16*
X580892000Y-371154000D03*
X580892000Y-365954000D03*
X579442000Y-365954000D03*
X579442000Y-371154000D03*
G04 #@! TD*
D14*
G04 #@! TO.C,LED108*
X566738000Y-383381000D03*
D15*
X569338000Y-382656000D03*
X564138000Y-382656000D03*
X564138000Y-384106000D03*
X569338000Y-384106000D03*
G04 #@! TD*
D14*
G04 #@! TO.C,LED107*
X538162000Y-383381000D03*
D15*
X540762000Y-382656000D03*
X535562000Y-382656000D03*
X535562000Y-384106000D03*
X540762000Y-384106000D03*
G04 #@! TD*
D14*
G04 #@! TO.C,LED106*
X504825000Y-383381000D03*
D15*
X507425000Y-382656000D03*
X502225000Y-382656000D03*
X502225000Y-384106000D03*
X507425000Y-384106000D03*
G04 #@! TD*
D14*
G04 #@! TO.C,LED105*
X485775000Y-383381000D03*
D15*
X488375000Y-382656000D03*
X483175000Y-382656000D03*
X483175000Y-384106000D03*
X488375000Y-384106000D03*
G04 #@! TD*
D14*
G04 #@! TO.C,LED104*
X466725000Y-383381000D03*
D15*
X469325000Y-382656000D03*
X464125000Y-382656000D03*
X464125000Y-384106000D03*
X469325000Y-384106000D03*
G04 #@! TD*
D14*
G04 #@! TO.C,LED103*
X440531000Y-383381000D03*
D15*
X443131000Y-382656000D03*
X437931000Y-382656000D03*
X437931000Y-384106000D03*
X443131000Y-384106000D03*
G04 #@! TD*
D14*
G04 #@! TO.C,LED102*
X416719000Y-383381000D03*
D15*
X419319000Y-382656000D03*
X414119000Y-382656000D03*
X414119000Y-384106000D03*
X419319000Y-384106000D03*
G04 #@! TD*
D14*
G04 #@! TO.C,LED101*
X392906000Y-383381000D03*
D15*
X395506000Y-382656000D03*
X390306000Y-382656000D03*
X390306000Y-384106000D03*
X395506000Y-384106000D03*
G04 #@! TD*
D14*
G04 #@! TO.C,LED100*
X369094000Y-383381000D03*
D15*
X371694000Y-382656000D03*
X366494000Y-382656000D03*
X366494000Y-384106000D03*
X371694000Y-384106000D03*
G04 #@! TD*
D14*
G04 #@! TO.C,LED99*
X297656000Y-383381000D03*
D15*
X300256000Y-382656000D03*
X295056000Y-382656000D03*
X295056000Y-384106000D03*
X300256000Y-384106000D03*
G04 #@! TD*
D14*
G04 #@! TO.C,LED98*
X226219000Y-383381000D03*
D15*
X228819000Y-382656000D03*
X223619000Y-382656000D03*
X223619000Y-384106000D03*
X228819000Y-384106000D03*
G04 #@! TD*
D14*
G04 #@! TO.C,LED97*
X202406000Y-383381000D03*
D15*
X205006000Y-382656000D03*
X199806000Y-382656000D03*
X199806000Y-384106000D03*
X205006000Y-384106000D03*
G04 #@! TD*
D14*
G04 #@! TO.C,LED96*
X178594000Y-383381000D03*
D15*
X181194000Y-382656000D03*
X175994000Y-382656000D03*
X175994000Y-384106000D03*
X181194000Y-384106000D03*
G04 #@! TD*
D14*
G04 #@! TO.C,LED95*
X566738000Y-364331000D03*
D15*
X569338000Y-363606000D03*
X564138000Y-363606000D03*
X564138000Y-365056000D03*
X569338000Y-365056000D03*
G04 #@! TD*
D14*
G04 #@! TO.C,LED94*
X547688000Y-364331000D03*
D15*
X550288000Y-363606000D03*
X545088000Y-363606000D03*
X545088000Y-365056000D03*
X550288000Y-365056000D03*
G04 #@! TD*
D14*
G04 #@! TO.C,LED93*
X528638000Y-364331000D03*
D15*
X531238000Y-363606000D03*
X526038000Y-363606000D03*
X526038000Y-365056000D03*
X531238000Y-365056000D03*
G04 #@! TD*
D14*
G04 #@! TO.C,LED92*
X485775000Y-364331000D03*
D15*
X488375000Y-363606000D03*
X483175000Y-363606000D03*
X483175000Y-365056000D03*
X488375000Y-365056000D03*
G04 #@! TD*
D14*
G04 #@! TO.C,LED91*
X426244000Y-364331000D03*
D15*
X428844000Y-363606000D03*
X423644000Y-363606000D03*
X423644000Y-365056000D03*
X428844000Y-365056000D03*
G04 #@! TD*
D14*
G04 #@! TO.C,LED90*
X390525000Y-364331000D03*
D15*
X393125000Y-363606000D03*
X387925000Y-363606000D03*
X387925000Y-365056000D03*
X393125000Y-365056000D03*
G04 #@! TD*
D14*
G04 #@! TO.C,LED89*
X371475000Y-364331000D03*
D15*
X374075000Y-363606000D03*
X368875000Y-363606000D03*
X368875000Y-365056000D03*
X374075000Y-365056000D03*
G04 #@! TD*
D14*
G04 #@! TO.C,LED88*
X352425000Y-364331000D03*
D15*
X355025000Y-363606000D03*
X349825000Y-363606000D03*
X349825000Y-365056000D03*
X355025000Y-365056000D03*
G04 #@! TD*
D14*
G04 #@! TO.C,LED87*
X333375000Y-364331000D03*
D15*
X335975000Y-363606000D03*
X330775000Y-363606000D03*
X330775000Y-365056000D03*
X335975000Y-365056000D03*
G04 #@! TD*
D14*
G04 #@! TO.C,LED86*
X314325000Y-364331000D03*
D15*
X316925000Y-363606000D03*
X311725000Y-363606000D03*
X311725000Y-365056000D03*
X316925000Y-365056000D03*
G04 #@! TD*
D14*
G04 #@! TO.C,LED85*
X295275000Y-364331000D03*
D15*
X297875000Y-363606000D03*
X292675000Y-363606000D03*
X292675000Y-365056000D03*
X297875000Y-365056000D03*
G04 #@! TD*
D14*
G04 #@! TO.C,LED84*
X276225000Y-364331000D03*
D15*
X278825000Y-363606000D03*
X273625000Y-363606000D03*
X273625000Y-365056000D03*
X278825000Y-365056000D03*
G04 #@! TD*
D14*
G04 #@! TO.C,LED83*
X257175000Y-364331000D03*
D15*
X259775000Y-363606000D03*
X254575000Y-363606000D03*
X254575000Y-365056000D03*
X259775000Y-365056000D03*
G04 #@! TD*
D14*
G04 #@! TO.C,LED82*
X238125000Y-364331000D03*
D15*
X240725000Y-363606000D03*
X235525000Y-363606000D03*
X235525000Y-365056000D03*
X240725000Y-365056000D03*
G04 #@! TD*
D14*
G04 #@! TO.C,LED81*
X219075000Y-364331000D03*
D15*
X221675000Y-363606000D03*
X216475000Y-363606000D03*
X216475000Y-365056000D03*
X221675000Y-365056000D03*
G04 #@! TD*
D14*
G04 #@! TO.C,LED80*
X188119000Y-364331000D03*
D15*
X190719000Y-363606000D03*
X185519000Y-363606000D03*
X185519000Y-365056000D03*
X190719000Y-365056000D03*
G04 #@! TD*
D14*
G04 #@! TO.C,LED79*
X566738000Y-345281000D03*
D15*
X569338000Y-344556000D03*
X564138000Y-344556000D03*
X564138000Y-346006000D03*
X569338000Y-346006000D03*
G04 #@! TD*
D14*
G04 #@! TO.C,LED78*
X547688000Y-345281000D03*
D15*
X550288000Y-344556000D03*
X545088000Y-344556000D03*
X545088000Y-346006000D03*
X550288000Y-346006000D03*
G04 #@! TD*
D14*
G04 #@! TO.C,LED77*
X528638000Y-345281000D03*
D15*
X531238000Y-344556000D03*
X526038000Y-344556000D03*
X526038000Y-346006000D03*
X531238000Y-346006000D03*
G04 #@! TD*
D14*
G04 #@! TO.C,LED76*
X431006000Y-345281000D03*
D15*
X433606000Y-344556000D03*
X428406000Y-344556000D03*
X428406000Y-346006000D03*
X433606000Y-346006000D03*
G04 #@! TD*
D14*
G04 #@! TO.C,LED75*
X400050000Y-345281000D03*
D15*
X402650000Y-344556000D03*
X397450000Y-344556000D03*
X397450000Y-346006000D03*
X402650000Y-346006000D03*
G04 #@! TD*
D14*
G04 #@! TO.C,LED74*
X381000000Y-345281000D03*
D15*
X383600000Y-344556000D03*
X378400000Y-344556000D03*
X378400000Y-346006000D03*
X383600000Y-346006000D03*
G04 #@! TD*
D14*
G04 #@! TO.C,LED73*
X361950000Y-345281000D03*
D15*
X364550000Y-344556000D03*
X359350000Y-344556000D03*
X359350000Y-346006000D03*
X364550000Y-346006000D03*
G04 #@! TD*
D14*
G04 #@! TO.C,LED71*
X323850000Y-345281000D03*
D15*
X326450000Y-344556000D03*
X321250000Y-344556000D03*
X321250000Y-346006000D03*
X326450000Y-346006000D03*
G04 #@! TD*
D14*
G04 #@! TO.C,LED70*
X304800000Y-345281000D03*
D15*
X307400000Y-344556000D03*
X302200000Y-344556000D03*
X302200000Y-346006000D03*
X307400000Y-346006000D03*
G04 #@! TD*
D14*
G04 #@! TO.C,LED69*
X285750000Y-345281000D03*
D15*
X288350000Y-344556000D03*
X283150000Y-344556000D03*
X283150000Y-346006000D03*
X288350000Y-346006000D03*
G04 #@! TD*
D14*
G04 #@! TO.C,LED68*
X266700000Y-345281000D03*
D15*
X269300000Y-344556000D03*
X264100000Y-344556000D03*
X264100000Y-346006000D03*
X269300000Y-346006000D03*
G04 #@! TD*
D14*
G04 #@! TO.C,LED67*
X247650000Y-345281000D03*
D15*
X250250000Y-344556000D03*
X245050000Y-344556000D03*
X245050000Y-346006000D03*
X250250000Y-346006000D03*
G04 #@! TD*
D14*
G04 #@! TO.C,LED66*
X228600000Y-345281000D03*
D15*
X231200000Y-344556000D03*
X226000000Y-344556000D03*
X226000000Y-346006000D03*
X231200000Y-346006000D03*
G04 #@! TD*
D14*
G04 #@! TO.C,LED65*
X209550000Y-345281000D03*
D15*
X212150000Y-344556000D03*
X206950000Y-344556000D03*
X206950000Y-346006000D03*
X212150000Y-346006000D03*
G04 #@! TD*
D14*
G04 #@! TO.C,LED64*
X183356000Y-345281000D03*
D15*
X185956000Y-344556000D03*
X180756000Y-344556000D03*
X180756000Y-346006000D03*
X185956000Y-346006000D03*
G04 #@! TD*
D14*
G04 #@! TO.C,LED63*
X485775000Y-326231000D03*
D15*
X488375000Y-325506000D03*
X483175000Y-325506000D03*
X483175000Y-326956000D03*
X488375000Y-326956000D03*
G04 #@! TD*
D14*
G04 #@! TO.C,LED62*
X466725000Y-326231000D03*
D15*
X469325000Y-325506000D03*
X464125000Y-325506000D03*
X464125000Y-326956000D03*
X469325000Y-326956000D03*
G04 #@! TD*
D14*
G04 #@! TO.C,LED61*
X438150000Y-326231000D03*
D15*
X440750000Y-325506000D03*
X435550000Y-325506000D03*
X435550000Y-326956000D03*
X440750000Y-326956000D03*
G04 #@! TD*
D14*
G04 #@! TO.C,LED60*
X414338000Y-326230000D03*
D15*
X416938000Y-325505000D03*
X411738000Y-325505000D03*
X411738000Y-326955000D03*
X416938000Y-326955000D03*
G04 #@! TD*
D14*
G04 #@! TO.C,LED59*
X395288000Y-326231000D03*
D15*
X397888000Y-325506000D03*
X392688000Y-325506000D03*
X392688000Y-326956000D03*
X397888000Y-326956000D03*
G04 #@! TD*
D14*
G04 #@! TO.C,LED58*
X376238000Y-326231000D03*
D15*
X378838000Y-325506000D03*
X373638000Y-325506000D03*
X373638000Y-326956000D03*
X378838000Y-326956000D03*
G04 #@! TD*
D14*
G04 #@! TO.C,LED57*
X357188000Y-326231000D03*
D15*
X359788000Y-325506000D03*
X354588000Y-325506000D03*
X354588000Y-326956000D03*
X359788000Y-326956000D03*
G04 #@! TD*
D14*
G04 #@! TO.C,LED56*
X338138000Y-326231000D03*
D15*
X340738000Y-325506000D03*
X335538000Y-325506000D03*
X335538000Y-326956000D03*
X340738000Y-326956000D03*
G04 #@! TD*
D14*
G04 #@! TO.C,LED55*
X319088000Y-326231000D03*
D15*
X321688000Y-325506000D03*
X316488000Y-325506000D03*
X316488000Y-326956000D03*
X321688000Y-326956000D03*
G04 #@! TD*
D14*
G04 #@! TO.C,LED54*
X300038000Y-326231000D03*
D15*
X302638000Y-325506000D03*
X297438000Y-325506000D03*
X297438000Y-326956000D03*
X302638000Y-326956000D03*
G04 #@! TD*
D14*
G04 #@! TO.C,LED53*
X280988000Y-326231000D03*
D15*
X283588000Y-325506000D03*
X278388000Y-325506000D03*
X278388000Y-326956000D03*
X283588000Y-326956000D03*
G04 #@! TD*
D14*
G04 #@! TO.C,LED52*
X261938000Y-326231000D03*
D15*
X264538000Y-325506000D03*
X259338000Y-325506000D03*
X259338000Y-326956000D03*
X264538000Y-326956000D03*
G04 #@! TD*
D14*
G04 #@! TO.C,LED51*
X242888000Y-326231000D03*
D15*
X245488000Y-325506000D03*
X240288000Y-325506000D03*
X240288000Y-326956000D03*
X245488000Y-326956000D03*
G04 #@! TD*
D14*
G04 #@! TO.C,LED50*
X223838000Y-326231000D03*
D15*
X226438000Y-325506000D03*
X221238000Y-325506000D03*
X221238000Y-326956000D03*
X226438000Y-326956000D03*
G04 #@! TD*
D14*
G04 #@! TO.C,LED49*
X204788000Y-326231000D03*
D15*
X207388000Y-325506000D03*
X202188000Y-325506000D03*
X202188000Y-326956000D03*
X207388000Y-326956000D03*
G04 #@! TD*
D14*
G04 #@! TO.C,LED48*
X180975000Y-326231000D03*
D15*
X183575000Y-325506000D03*
X178375000Y-325506000D03*
X178375000Y-326956000D03*
X183575000Y-326956000D03*
G04 #@! TD*
D14*
G04 #@! TO.C,LED47*
X504825000Y-326231000D03*
D15*
X507425000Y-325506000D03*
X502225000Y-325506000D03*
X502225000Y-326956000D03*
X507425000Y-326956000D03*
G04 #@! TD*
D14*
G04 #@! TO.C,LED46*
X528574000Y-326231000D03*
D15*
X531174000Y-325506000D03*
X525974000Y-325506000D03*
X525974000Y-326956000D03*
X531174000Y-326956000D03*
G04 #@! TD*
D14*
G04 #@! TO.C,LED45*
X547688000Y-326231000D03*
D15*
X550288000Y-325506000D03*
X545088000Y-325506000D03*
X545088000Y-326956000D03*
X550288000Y-326956000D03*
G04 #@! TD*
D14*
G04 #@! TO.C,LED44*
X566738000Y-326231000D03*
D15*
X569338000Y-325506000D03*
X564138000Y-325506000D03*
X564138000Y-326956000D03*
X569338000Y-326956000D03*
G04 #@! TD*
D14*
G04 #@! TO.C,LED43*
X566674000Y-307181000D03*
D15*
X569274000Y-306456000D03*
X564074000Y-306456000D03*
X564074000Y-307906000D03*
X569274000Y-307906000D03*
G04 #@! TD*
D14*
G04 #@! TO.C,LED42*
X547624000Y-307181000D03*
D15*
X550224000Y-306456000D03*
X545024000Y-306456000D03*
X545024000Y-307906000D03*
X550224000Y-307906000D03*
G04 #@! TD*
D14*
G04 #@! TO.C,LED41*
X528574000Y-307181000D03*
D15*
X531174000Y-306456000D03*
X525974000Y-306456000D03*
X525974000Y-307906000D03*
X531174000Y-307906000D03*
G04 #@! TD*
D14*
G04 #@! TO.C,LED40*
X504825000Y-307181000D03*
D15*
X507425000Y-306456000D03*
X502225000Y-306456000D03*
X502225000Y-307906000D03*
X507425000Y-307906000D03*
G04 #@! TD*
D14*
G04 #@! TO.C,LED39*
X485775000Y-307181000D03*
D15*
X488375000Y-306456000D03*
X483175000Y-306456000D03*
X483175000Y-307906000D03*
X488375000Y-307906000D03*
G04 #@! TD*
D14*
G04 #@! TO.C,LED38*
X466725000Y-307181000D03*
D15*
X469325000Y-306456000D03*
X464125000Y-306456000D03*
X464125000Y-307906000D03*
X469325000Y-307906000D03*
G04 #@! TD*
D14*
G04 #@! TO.C,LED37*
X433388000Y-307181000D03*
D15*
X435988000Y-306456000D03*
X430788000Y-306456000D03*
X430788000Y-307906000D03*
X435988000Y-307906000D03*
G04 #@! TD*
D14*
G04 #@! TO.C,LED36*
X404812000Y-307181000D03*
D15*
X407412000Y-306456000D03*
X402212000Y-306456000D03*
X402212000Y-307906000D03*
X407412000Y-307906000D03*
G04 #@! TD*
D14*
G04 #@! TO.C,LED35*
X385762000Y-307181000D03*
D15*
X388362000Y-306456000D03*
X383162000Y-306456000D03*
X383162000Y-307906000D03*
X388362000Y-307906000D03*
G04 #@! TD*
D14*
G04 #@! TO.C,LED34*
X366712000Y-307181000D03*
D15*
X369312000Y-306456000D03*
X364112000Y-306456000D03*
X364112000Y-307906000D03*
X369312000Y-307906000D03*
G04 #@! TD*
D14*
G04 #@! TO.C,LED33*
X347662000Y-307181000D03*
D15*
X350262000Y-306456000D03*
X345062000Y-306456000D03*
X345062000Y-307906000D03*
X350262000Y-307906000D03*
G04 #@! TD*
D14*
G04 #@! TO.C,LED32*
X328612000Y-307181000D03*
D15*
X331212000Y-306456000D03*
X326012000Y-306456000D03*
X326012000Y-307906000D03*
X331212000Y-307906000D03*
G04 #@! TD*
D14*
G04 #@! TO.C,LED31*
X309562000Y-307181000D03*
D15*
X312162000Y-306456000D03*
X306962000Y-306456000D03*
X306962000Y-307906000D03*
X312162000Y-307906000D03*
G04 #@! TD*
D14*
G04 #@! TO.C,LED30*
X290512000Y-307181000D03*
D15*
X293112000Y-306456000D03*
X287912000Y-306456000D03*
X287912000Y-307906000D03*
X293112000Y-307906000D03*
G04 #@! TD*
D14*
G04 #@! TO.C,LED29*
X271462000Y-307181000D03*
D15*
X274062000Y-306456000D03*
X268862000Y-306456000D03*
X268862000Y-307906000D03*
X274062000Y-307906000D03*
G04 #@! TD*
D14*
G04 #@! TO.C,LED28*
X252412000Y-307181000D03*
D15*
X255012000Y-306456000D03*
X249812000Y-306456000D03*
X249812000Y-307906000D03*
X255012000Y-307906000D03*
G04 #@! TD*
D14*
G04 #@! TO.C,LED27*
X233362000Y-307181000D03*
D15*
X235962000Y-306456000D03*
X230762000Y-306456000D03*
X230762000Y-307906000D03*
X235962000Y-307906000D03*
G04 #@! TD*
D14*
G04 #@! TO.C,LED26*
X214312000Y-307181000D03*
D15*
X216912000Y-306456000D03*
X211712000Y-306456000D03*
X211712000Y-307906000D03*
X216912000Y-307906000D03*
G04 #@! TD*
D14*
G04 #@! TO.C,LED25*
X195262000Y-307181000D03*
D15*
X197862000Y-306456000D03*
X192662000Y-306456000D03*
X192662000Y-307906000D03*
X197862000Y-307906000D03*
G04 #@! TD*
D14*
G04 #@! TO.C,LED24*
X176212000Y-307181000D03*
D15*
X178812000Y-306456000D03*
X173612000Y-306456000D03*
X173612000Y-307906000D03*
X178812000Y-307906000D03*
G04 #@! TD*
D14*
G04 #@! TO.C,LED23*
X504825000Y-283210000D03*
D15*
X507425000Y-282485000D03*
X502225000Y-282485000D03*
X502225000Y-283935000D03*
X507425000Y-283935000D03*
G04 #@! TD*
D14*
G04 #@! TO.C,LED22*
X485775000Y-283210000D03*
D15*
X488375000Y-282485000D03*
X483175000Y-282485000D03*
X483175000Y-283935000D03*
X488375000Y-283935000D03*
G04 #@! TD*
D14*
G04 #@! TO.C,LED21*
X466598000Y-283210000D03*
D15*
X469198000Y-282485000D03*
X463998000Y-282485000D03*
X463998000Y-283935000D03*
X469198000Y-283935000D03*
G04 #@! TD*
D14*
G04 #@! TO.C,LED20*
X442912000Y-283369000D03*
D15*
X445512000Y-282644000D03*
X440312000Y-282644000D03*
X440312000Y-284094000D03*
X445512000Y-284094000D03*
G04 #@! TD*
D14*
G04 #@! TO.C,LED19*
X423862000Y-283369000D03*
D15*
X426462000Y-282644000D03*
X421262000Y-282644000D03*
X421262000Y-284094000D03*
X426462000Y-284094000D03*
G04 #@! TD*
D14*
G04 #@! TO.C,LED18*
X404812000Y-283369000D03*
D15*
X407412000Y-282644000D03*
X402212000Y-282644000D03*
X402212000Y-284094000D03*
X407412000Y-284094000D03*
G04 #@! TD*
D14*
G04 #@! TO.C,LED17*
X385762000Y-283369000D03*
D15*
X388362000Y-282644000D03*
X383162000Y-282644000D03*
X383162000Y-284094000D03*
X388362000Y-284094000D03*
G04 #@! TD*
D14*
G04 #@! TO.C,LED16*
X357188000Y-283369000D03*
D15*
X359788000Y-282644000D03*
X354588000Y-282644000D03*
X354588000Y-284094000D03*
X359788000Y-284094000D03*
G04 #@! TD*
D14*
G04 #@! TO.C,LED15*
X338138000Y-283369000D03*
D15*
X340738000Y-282644000D03*
X335538000Y-282644000D03*
X335538000Y-284094000D03*
X340738000Y-284094000D03*
G04 #@! TD*
D14*
G04 #@! TO.C,LED14*
X319088000Y-283374000D03*
D15*
X321688000Y-282649000D03*
X316488000Y-282649000D03*
X316488000Y-284099000D03*
X321688000Y-284099000D03*
G04 #@! TD*
D14*
G04 #@! TO.C,LED13*
X300038000Y-283369000D03*
D15*
X302638000Y-282644000D03*
X297438000Y-282644000D03*
X297438000Y-284094000D03*
X302638000Y-284094000D03*
G04 #@! TD*
D14*
G04 #@! TO.C,LED12*
X271462000Y-283369000D03*
D15*
X274062000Y-282644000D03*
X268862000Y-282644000D03*
X268862000Y-284094000D03*
X274062000Y-284094000D03*
G04 #@! TD*
D14*
G04 #@! TO.C,LED11*
X252412000Y-283369000D03*
D15*
X255012000Y-282644000D03*
X249812000Y-282644000D03*
X249812000Y-284094000D03*
X255012000Y-284094000D03*
G04 #@! TD*
D14*
G04 #@! TO.C,LED10*
X233362000Y-283369000D03*
D15*
X235962000Y-282644000D03*
X230762000Y-282644000D03*
X230762000Y-284094000D03*
X235962000Y-284094000D03*
G04 #@! TD*
D14*
G04 #@! TO.C,LED9*
X214312000Y-283369000D03*
D15*
X216912000Y-282644000D03*
X211712000Y-282644000D03*
X211712000Y-284094000D03*
X216912000Y-284094000D03*
G04 #@! TD*
D14*
G04 #@! TO.C,LED8*
X176212000Y-283369000D03*
D15*
X178812000Y-282644000D03*
X173612000Y-282644000D03*
X173612000Y-284094000D03*
X178812000Y-284094000D03*
G04 #@! TD*
D14*
G04 #@! TO.C,LED7*
X504825000Y-264319000D03*
D15*
X507425000Y-263594000D03*
X502225000Y-263594000D03*
X502225000Y-265044000D03*
X507425000Y-265044000D03*
G04 #@! TD*
D14*
G04 #@! TO.C,LED6*
X485775000Y-264287000D03*
D15*
X488375000Y-263562000D03*
X483175000Y-263562000D03*
X483175000Y-265012000D03*
X488375000Y-265012000D03*
G04 #@! TD*
D14*
G04 #@! TO.C,LED5*
X466725000Y-264319000D03*
D15*
X469325000Y-263594000D03*
X464125000Y-263594000D03*
X464125000Y-265044000D03*
X469325000Y-265044000D03*
G04 #@! TD*
D14*
G04 #@! TO.C,LED4*
X271462000Y-264319000D03*
D15*
X274062000Y-263594000D03*
X268862000Y-263594000D03*
X268862000Y-265044000D03*
X274062000Y-265044000D03*
G04 #@! TD*
D14*
G04 #@! TO.C,LED3*
X252412000Y-264319000D03*
D15*
X255012000Y-263594000D03*
X249812000Y-263594000D03*
X249812000Y-265044000D03*
X255012000Y-265044000D03*
G04 #@! TD*
D14*
G04 #@! TO.C,LED2*
X233362000Y-264319000D03*
D15*
X235962000Y-263594000D03*
X230762000Y-263594000D03*
X230762000Y-265044000D03*
X235962000Y-265044000D03*
G04 #@! TD*
D14*
G04 #@! TO.C,LED1*
X214312000Y-264319000D03*
D15*
X216912000Y-263594000D03*
X211712000Y-263594000D03*
X211712000Y-265044000D03*
X216912000Y-265044000D03*
G04 #@! TD*
D10*
G04 #@! TO.C,MX_N1*
X316865000Y-353695000D03*
D11*
X314325000Y-358775000D03*
D10*
X310515000Y-356235000D03*
G04 #@! TD*
G04 #@! TO.C,MX_PGDN1*
X507365000Y-315595000D03*
D11*
X504825000Y-320675000D03*
D10*
X501015000Y-318135000D03*
G04 #@! TD*
G04 #@! TO.C,C11*
G36*
G01*
X533433000Y-258646000D02*
X534383000Y-258646000D01*
G75*
G02*
X534633000Y-258896000I0J-250000D01*
G01*
X534633000Y-259396000D01*
G75*
G02*
X534383000Y-259646000I-250000J0D01*
G01*
X533433000Y-259646000D01*
G75*
G02*
X533183000Y-259396000I0J250000D01*
G01*
X533183000Y-258896000D01*
G75*
G02*
X533433000Y-258646000I250000J0D01*
G01*
G37*
G36*
G01*
X533433000Y-260546000D02*
X534383000Y-260546000D01*
G75*
G02*
X534633000Y-260796000I0J-250000D01*
G01*
X534633000Y-261296000D01*
G75*
G02*
X534383000Y-261546000I-250000J0D01*
G01*
X533433000Y-261546000D01*
G75*
G02*
X533183000Y-261296000I0J250000D01*
G01*
X533183000Y-260796000D01*
G75*
G02*
X533433000Y-260546000I250000J0D01*
G01*
G37*
G04 #@! TD*
G04 #@! TO.C,C9*
G36*
G01*
X549074000Y-266225000D02*
X549074000Y-267175000D01*
G75*
G02*
X548824000Y-267425000I-250000J0D01*
G01*
X548324000Y-267425000D01*
G75*
G02*
X548074000Y-267175000I0J250000D01*
G01*
X548074000Y-266225000D01*
G75*
G02*
X548324000Y-265975000I250000J0D01*
G01*
X548824000Y-265975000D01*
G75*
G02*
X549074000Y-266225000I0J-250000D01*
G01*
G37*
G36*
G01*
X547174000Y-266225000D02*
X547174000Y-267175000D01*
G75*
G02*
X546924000Y-267425000I-250000J0D01*
G01*
X546424000Y-267425000D01*
G75*
G02*
X546174000Y-267175000I0J250000D01*
G01*
X546174000Y-266225000D01*
G75*
G02*
X546424000Y-265975000I250000J0D01*
G01*
X546924000Y-265975000D01*
G75*
G02*
X547174000Y-266225000I0J-250000D01*
G01*
G37*
G04 #@! TD*
G04 #@! TO.C,MX_TAB1*
X183515000Y-315595000D03*
D11*
X180975000Y-320675000D03*
D10*
X177165000Y-318135000D03*
G04 #@! TD*
G04 #@! TO.C,MX_BSLS1*
X440690000Y-315595000D03*
D11*
X438150000Y-320675000D03*
D10*
X434340000Y-318135000D03*
G04 #@! TD*
G04 #@! TO.C,MX_RSFT1*
X428784000Y-353695000D03*
D11*
X426244000Y-358775000D03*
D10*
X422434000Y-356235000D03*
D12*
X414337750Y-351790000D03*
X438150250Y-351790000D03*
D11*
X414337750Y-367030000D03*
X438150250Y-367030000D03*
G04 #@! TD*
D10*
G04 #@! TO.C,MX_CAPS1*
X185896000Y-334645000D03*
D11*
X183356000Y-339725000D03*
D10*
X179546000Y-337185000D03*
G04 #@! TD*
G04 #@! TO.C,MX_LSFT1*
X190659000Y-353695000D03*
D11*
X188119000Y-358775000D03*
D10*
X184309000Y-356235000D03*
D12*
X176212750Y-351790000D03*
X200025250Y-351790000D03*
D11*
X176212750Y-367030000D03*
X200025250Y-367030000D03*
G04 #@! TD*
D10*
G04 #@! TO.C,MX_SPC1*
X300196000Y-372745000D03*
D11*
X297656000Y-377825000D03*
D10*
X293846000Y-375285000D03*
D12*
X247656100Y-370840000D03*
X347655900Y-370840000D03*
D11*
X247656100Y-386080000D03*
X347655900Y-386080000D03*
G04 #@! TD*
D10*
G04 #@! TO.C,MX_P+1*
X590867500Y-332740000D03*
D11*
X585787500Y-330200000D03*
D10*
X588327500Y-326390000D03*
D12*
X592772500Y-318293750D03*
X592772500Y-342106250D03*
D11*
X577532500Y-318293750D03*
X577532500Y-342106250D03*
G04 #@! TD*
D10*
G04 #@! TO.C,MX_PENT1*
X590867500Y-370840000D03*
D11*
X585787500Y-368300000D03*
D10*
X588327500Y-364490000D03*
D12*
X592772500Y-356393750D03*
X592772500Y-380206250D03*
D11*
X577532500Y-356393750D03*
X577532500Y-380206250D03*
G04 #@! TD*
D10*
G04 #@! TO.C,MX_P0*
X540702000Y-372745000D03*
D11*
X538162000Y-377825000D03*
D10*
X534352000Y-375285000D03*
D12*
X526255750Y-370840000D03*
X550068250Y-370840000D03*
D11*
X526255750Y-386080000D03*
X550068250Y-386080000D03*
G04 #@! TD*
D10*
G04 #@! TO.C,MX_BSPC1*
X435928000Y-296545000D03*
D11*
X433388000Y-301625000D03*
D10*
X429578000Y-299085000D03*
D12*
X421481750Y-294640000D03*
X445294250Y-294640000D03*
D11*
X421481750Y-309880000D03*
X445294250Y-309880000D03*
G04 #@! TD*
D10*
G04 #@! TO.C,MX_RCTL1*
X443071000Y-372745000D03*
D11*
X440531000Y-377825000D03*
D10*
X436721000Y-375285000D03*
G04 #@! TD*
G04 #@! TO.C,MX_RGUI1*
X395446000Y-372745000D03*
D11*
X392906000Y-377825000D03*
D10*
X389096000Y-375285000D03*
G04 #@! TD*
G04 #@! TO.C,MX_RALT1*
X371634000Y-372745000D03*
D11*
X369094000Y-377825000D03*
D10*
X365284000Y-375285000D03*
G04 #@! TD*
G04 #@! TO.C,MX_MENU1*
X419259000Y-372745000D03*
D11*
X416719000Y-377825000D03*
D10*
X412909000Y-375285000D03*
G04 #@! TD*
G04 #@! TO.C,MX_LGUI1*
X204946000Y-372745000D03*
D11*
X202406000Y-377825000D03*
D10*
X198596000Y-375285000D03*
G04 #@! TD*
G04 #@! TO.C,MX_LCTL1*
X181134000Y-372745000D03*
D11*
X178594000Y-377825000D03*
D10*
X174784000Y-375285000D03*
G04 #@! TD*
G04 #@! TO.C,MX_LALT1*
X228759000Y-372745000D03*
D11*
X226219000Y-377825000D03*
D10*
X222409000Y-375285000D03*
G04 #@! TD*
G04 #@! TO.C,MX_RGHT1*
X507365000Y-372745000D03*
D11*
X504825000Y-377825000D03*
D10*
X501015000Y-375285000D03*
G04 #@! TD*
G04 #@! TO.C,MX_Z1*
X221615000Y-353695000D03*
D11*
X219075000Y-358775000D03*
D10*
X215265000Y-356235000D03*
G04 #@! TD*
G04 #@! TO.C,MX_Y1*
X302578000Y-315595000D03*
D11*
X300038000Y-320675000D03*
D10*
X296228000Y-318135000D03*
G04 #@! TD*
G04 #@! TO.C,MX_X1*
X240665000Y-353695000D03*
D11*
X238125000Y-358775000D03*
D10*
X234315000Y-356235000D03*
G04 #@! TD*
G04 #@! TO.C,MX_W1*
X226378000Y-315595000D03*
D11*
X223838000Y-320675000D03*
D10*
X220028000Y-318135000D03*
G04 #@! TD*
G04 #@! TO.C,MX_VOLD1*
X488315000Y-253682000D03*
D11*
X485775000Y-258762000D03*
D10*
X481965000Y-256222000D03*
G04 #@! TD*
G04 #@! TO.C,MX_VOLU1*
X507365000Y-253682000D03*
D11*
X504825000Y-258762000D03*
D10*
X501015000Y-256222000D03*
G04 #@! TD*
G04 #@! TO.C,MX_V1*
X278765000Y-353695000D03*
D11*
X276225000Y-358775000D03*
D10*
X272415000Y-356235000D03*
G04 #@! TD*
G04 #@! TO.C,MX_UP1*
X488315000Y-353695000D03*
D11*
X485775000Y-358775000D03*
D10*
X481965000Y-356235000D03*
G04 #@! TD*
G04 #@! TO.C,MX_U1*
X321628000Y-315595000D03*
D11*
X319088000Y-320675000D03*
D10*
X315278000Y-318135000D03*
G04 #@! TD*
G04 #@! TO.C,MX_T1*
X283528000Y-315595000D03*
D11*
X280988000Y-320675000D03*
D10*
X277178000Y-318135000D03*
G04 #@! TD*
G04 #@! TO.C,MX_STOP1*
X235902000Y-253682000D03*
D11*
X233362000Y-258762000D03*
D10*
X229552000Y-256222000D03*
G04 #@! TD*
G04 #@! TO.C,MX_SLSH1*
X393065000Y-353695000D03*
D11*
X390525000Y-358775000D03*
D10*
X386715000Y-356235000D03*
G04 #@! TD*
G04 #@! TO.C,MX_SLCK1*
X488315000Y-272732000D03*
D11*
X485775000Y-277812000D03*
D10*
X481965000Y-275272000D03*
G04 #@! TD*
G04 #@! TO.C,MX_SCLN1*
X383540000Y-334645000D03*
D11*
X381000000Y-339725000D03*
D10*
X377190000Y-337185000D03*
G04 #@! TD*
G04 #@! TO.C,MX_S1*
X231140000Y-334645000D03*
D11*
X228600000Y-339725000D03*
D10*
X224790000Y-337185000D03*
G04 #@! TD*
G04 #@! TO.C,MX_RBRC1*
X416878000Y-315595000D03*
D11*
X414338000Y-320675000D03*
D10*
X410528000Y-318135000D03*
G04 #@! TD*
G04 #@! TO.C,MX_R1*
X264478000Y-315595000D03*
D11*
X261938000Y-320675000D03*
D10*
X258128000Y-318135000D03*
G04 #@! TD*
G04 #@! TO.C,MX_QUOT1*
X402590000Y-334645000D03*
D11*
X400050000Y-339725000D03*
D10*
X396240000Y-337185000D03*
G04 #@! TD*
G04 #@! TO.C,MX_Q1*
X207328000Y-315595000D03*
D11*
X204788000Y-320675000D03*
D10*
X200978000Y-318135000D03*
G04 #@! TD*
G04 #@! TO.C,MX_PSCR1*
X469265000Y-272732000D03*
D11*
X466725000Y-277812000D03*
D10*
X462915000Y-275272000D03*
G04 #@! TD*
G04 #@! TO.C,MX_PGUP1*
X507365000Y-296545000D03*
D11*
X504825000Y-301625000D03*
D10*
X501015000Y-299085000D03*
G04 #@! TD*
G04 #@! TO.C,MX_PDOT1*
X569278000Y-372745000D03*
D11*
X566738000Y-377825000D03*
D10*
X562928000Y-375285000D03*
G04 #@! TD*
G04 #@! TO.C,MX_PAUSE1*
X507365000Y-272732000D03*
D11*
X504825000Y-277812000D03*
D10*
X501015000Y-275272000D03*
G04 #@! TD*
G04 #@! TO.C,MX_P/1*
X550228000Y-296545000D03*
D11*
X547688000Y-301625000D03*
D10*
X543878000Y-299085000D03*
G04 #@! TD*
G04 #@! TO.C,MX_P-1*
X588328000Y-296545000D03*
D11*
X585788000Y-301625000D03*
D10*
X581978000Y-299085000D03*
G04 #@! TD*
G04 #@! TO.C,MX_P\u002A1*
X569278000Y-296545000D03*
D11*
X566738000Y-301625000D03*
D10*
X562928000Y-299085000D03*
G04 #@! TD*
G04 #@! TO.C,MX_P10*
X378778000Y-315595000D03*
D11*
X376238000Y-320675000D03*
D10*
X372428000Y-318135000D03*
G04 #@! TD*
G04 #@! TO.C,MX_P9*
X569278000Y-315595000D03*
D11*
X566738000Y-320675000D03*
D10*
X562928000Y-318135000D03*
G04 #@! TD*
G04 #@! TO.C,MX_P8*
X550228000Y-315595000D03*
D11*
X547688000Y-320675000D03*
D10*
X543878000Y-318135000D03*
G04 #@! TD*
G04 #@! TO.C,MX_P7*
X531178000Y-315595000D03*
D11*
X528638000Y-320675000D03*
D10*
X524828000Y-318135000D03*
G04 #@! TD*
G04 #@! TO.C,MX_P6*
X569278000Y-334645000D03*
D11*
X566738000Y-339725000D03*
D10*
X562928000Y-337185000D03*
G04 #@! TD*
G04 #@! TO.C,MX_P5*
X550228000Y-334645000D03*
D11*
X547688000Y-339725000D03*
D10*
X543878000Y-337185000D03*
G04 #@! TD*
G04 #@! TO.C,MX_P4*
X531178000Y-334645000D03*
D11*
X528638000Y-339725000D03*
D10*
X524828000Y-337185000D03*
G04 #@! TD*
G04 #@! TO.C,MX_P3*
X569278000Y-353695000D03*
D11*
X566738000Y-358775000D03*
D10*
X562928000Y-356235000D03*
G04 #@! TD*
G04 #@! TO.C,MX_P2*
X550228000Y-353695000D03*
D11*
X547688000Y-358775000D03*
D10*
X543878000Y-356235000D03*
G04 #@! TD*
G04 #@! TO.C,MX_P1*
X531178000Y-353695000D03*
D11*
X528638000Y-358775000D03*
D10*
X524828000Y-356235000D03*
G04 #@! TD*
G04 #@! TO.C,MX_O1*
X359728000Y-315595000D03*
D11*
X357188000Y-320675000D03*
D10*
X353378000Y-318135000D03*
G04 #@! TD*
G04 #@! TO.C,MX_NLCK1*
X531178000Y-296545000D03*
D11*
X528638000Y-301625000D03*
D10*
X524828000Y-299085000D03*
G04 #@! TD*
G04 #@! TO.C,MX_MINS1*
X388302000Y-296545000D03*
D11*
X385762000Y-301625000D03*
D10*
X381952000Y-299085000D03*
G04 #@! TD*
G04 #@! TO.C,MX_M1*
X335915000Y-353695000D03*
D11*
X333375000Y-358775000D03*
D10*
X329565000Y-356235000D03*
G04 #@! TD*
G04 #@! TO.C,MX_LEFT1*
X469265000Y-372745000D03*
D11*
X466725000Y-377825000D03*
D10*
X462915000Y-375285000D03*
G04 #@! TD*
G04 #@! TO.C,MX_LBRC1*
X397828000Y-315595000D03*
D11*
X395288000Y-320675000D03*
D10*
X391478000Y-318135000D03*
G04 #@! TD*
G04 #@! TO.C,MX_L1*
X364490000Y-334645000D03*
D11*
X361950000Y-339725000D03*
D10*
X358140000Y-337185000D03*
G04 #@! TD*
G04 #@! TO.C,MX_K1*
X345440000Y-334645000D03*
D11*
X342900000Y-339725000D03*
D10*
X339090000Y-337185000D03*
G04 #@! TD*
G04 #@! TO.C,MX_J1*
X326390000Y-334645000D03*
D11*
X323850000Y-339725000D03*
D10*
X320040000Y-337185000D03*
G04 #@! TD*
G04 #@! TO.C,MX_INS1*
X469265000Y-296545000D03*
D11*
X466725000Y-301625000D03*
D10*
X462915000Y-299085000D03*
G04 #@! TD*
G04 #@! TO.C,MX_I1*
X340678000Y-315595000D03*
D11*
X338138000Y-320675000D03*
D10*
X334328000Y-318135000D03*
G04 #@! TD*
G04 #@! TO.C,MX_HOME1*
X488315000Y-296545000D03*
D11*
X485775000Y-301625000D03*
D10*
X481965000Y-299085000D03*
G04 #@! TD*
G04 #@! TO.C,MX_H1*
X307340000Y-334645000D03*
D11*
X304800000Y-339725000D03*
D10*
X300990000Y-337185000D03*
G04 #@! TD*
G04 #@! TO.C,MX_G1*
X288290000Y-334645000D03*
D11*
X285750000Y-339725000D03*
D10*
X281940000Y-337185000D03*
G04 #@! TD*
G04 #@! TO.C,MX_F13*
X269240000Y-334645000D03*
D11*
X266700000Y-339725000D03*
D10*
X262890000Y-337185000D03*
G04 #@! TD*
G04 #@! TO.C,MX_F9*
X388302000Y-272732000D03*
D11*
X385762000Y-277812000D03*
D10*
X381952000Y-275272000D03*
G04 #@! TD*
G04 #@! TO.C,MX_F8*
X359728000Y-272732000D03*
D11*
X357188000Y-277812000D03*
D10*
X353378000Y-275272000D03*
G04 #@! TD*
G04 #@! TO.C,MX_F7*
X340678000Y-272732000D03*
D11*
X338138000Y-277812000D03*
D10*
X334328000Y-275272000D03*
G04 #@! TD*
G04 #@! TO.C,MX_F5*
X302578000Y-272732000D03*
D11*
X300038000Y-277812000D03*
D10*
X296228000Y-275272000D03*
G04 #@! TD*
G04 #@! TO.C,MX_F4*
X274002000Y-272732000D03*
D11*
X271462000Y-277812000D03*
D10*
X267652000Y-275272000D03*
G04 #@! TD*
G04 #@! TO.C,MX_F3*
X254952000Y-272732000D03*
D11*
X252412000Y-277812000D03*
D10*
X248602000Y-275272000D03*
G04 #@! TD*
G04 #@! TO.C,MX_F1*
X216852000Y-272732000D03*
D11*
X214312000Y-277812000D03*
D10*
X210502000Y-275272000D03*
G04 #@! TD*
G04 #@! TO.C,MX_ESC1*
X178752000Y-272732000D03*
D11*
X176212000Y-277812000D03*
D10*
X172402000Y-275272000D03*
G04 #@! TD*
G04 #@! TO.C,MX_EQL1*
X407352000Y-296545000D03*
D11*
X404812000Y-301625000D03*
D10*
X401002000Y-299085000D03*
G04 #@! TD*
G04 #@! TO.C,MX_END1*
X488315000Y-315595000D03*
D11*
X485775000Y-320675000D03*
D10*
X481965000Y-318135000D03*
G04 #@! TD*
G04 #@! TO.C,MX_E1*
X245428000Y-315595000D03*
D11*
X242888000Y-320675000D03*
D10*
X239078000Y-318135000D03*
G04 #@! TD*
G04 #@! TO.C,MX_DOWN1*
X488315000Y-372745000D03*
D11*
X485775000Y-377825000D03*
D10*
X481965000Y-375285000D03*
G04 #@! TD*
G04 #@! TO.C,MX_DOT1*
X374015000Y-353695000D03*
D11*
X371475000Y-358775000D03*
D10*
X367665000Y-356235000D03*
G04 #@! TD*
G04 #@! TO.C,MX_DEL1*
X469265000Y-315595000D03*
D11*
X466725000Y-320675000D03*
D10*
X462915000Y-318135000D03*
G04 #@! TD*
G04 #@! TO.C,MX_D1*
X250190000Y-334645000D03*
D11*
X247650000Y-339725000D03*
D10*
X243840000Y-337185000D03*
G04 #@! TD*
G04 #@! TO.C,MX_COMM1*
X354965000Y-353695000D03*
D11*
X352425000Y-358775000D03*
D10*
X348615000Y-356235000D03*
G04 #@! TD*
G04 #@! TO.C,MX_C1*
X259715000Y-353695000D03*
D11*
X257175000Y-358775000D03*
D10*
X253365000Y-356235000D03*
G04 #@! TD*
G04 #@! TO.C,MX_B1*
X297815000Y-353695000D03*
D11*
X295275000Y-358775000D03*
D10*
X291465000Y-356235000D03*
G04 #@! TD*
G04 #@! TO.C,MX_A1*
X212090000Y-334645000D03*
D11*
X209550000Y-339725000D03*
D10*
X205740000Y-337185000D03*
G04 #@! TD*
G04 #@! TO.C,MX_8*
X331152000Y-296545000D03*
D11*
X328612000Y-301625000D03*
D10*
X324802000Y-299085000D03*
G04 #@! TD*
G04 #@! TO.C,MX_7*
X312102000Y-296545000D03*
D11*
X309562000Y-301625000D03*
D10*
X305752000Y-299085000D03*
G04 #@! TD*
G04 #@! TO.C,MX_6*
X293052000Y-296545000D03*
D11*
X290512000Y-301625000D03*
D10*
X286702000Y-299085000D03*
G04 #@! TD*
G04 #@! TO.C,MX_4*
X254952000Y-296545000D03*
D11*
X252412000Y-301625000D03*
D10*
X248602000Y-299085000D03*
G04 #@! TD*
G04 #@! TO.C,MX_3*
X235902000Y-296545000D03*
D11*
X233362000Y-301625000D03*
D10*
X229552000Y-299085000D03*
G04 #@! TD*
G04 #@! TO.C,MX_2*
X216852000Y-296545000D03*
D11*
X214312000Y-301625000D03*
D10*
X210502000Y-299085000D03*
G04 #@! TD*
G04 #@! TO.C,MX_1*
X197802000Y-296545000D03*
D11*
X195262000Y-301625000D03*
D10*
X191452000Y-299085000D03*
G04 #@! TD*
G04 #@! TO.C,MX_0*
X369252000Y-296545000D03*
D11*
X366712000Y-301625000D03*
D10*
X362902000Y-299085000D03*
G04 #@! TD*
D17*
G04 #@! TO.C,J1*
X547862000Y-258681000D03*
X566562000Y-258681000D03*
D18*
X549962000Y-255981000D03*
X550462000Y-255981000D03*
X550962000Y-255981000D03*
X551462000Y-255981000D03*
X551962000Y-255981000D03*
X552462000Y-255981000D03*
X552962000Y-255981000D03*
X553462000Y-255981000D03*
X553962000Y-255981000D03*
X554462000Y-255981000D03*
X554962000Y-255981000D03*
X555462000Y-255981000D03*
X555962000Y-255981000D03*
X556462000Y-255981000D03*
X556962000Y-255981000D03*
X557462000Y-255981000D03*
X557962000Y-255981000D03*
X558462000Y-255981000D03*
X558962000Y-255981000D03*
X559462000Y-255981000D03*
X559962000Y-255981000D03*
X560462000Y-255981000D03*
X560962000Y-255981000D03*
X561462000Y-255981000D03*
X561962000Y-255981000D03*
X562462000Y-255981000D03*
X562962000Y-255981000D03*
X563462000Y-255981000D03*
X563962000Y-255981000D03*
X564462000Y-255981000D03*
G04 #@! TD*
D19*
G04 #@! TO.C,J2*
X592042000Y-283750000D03*
X590042000Y-283750000D03*
X592042000Y-285750000D03*
X590042000Y-285750000D03*
X592042000Y-287750000D03*
X590042000Y-287750000D03*
G04 #@! TD*
D20*
G04 #@! TO.C,SW1*
X518743000Y-250626000D03*
X524943000Y-254326000D03*
X518743000Y-254326000D03*
X524943000Y-250626000D03*
G04 #@! TD*
D13*
G04 #@! TO.C,Y1*
G36*
X548271097Y-272027488D02*
G01*
X547422569Y-272876016D01*
X546432619Y-271886066D01*
X547281147Y-271037538D01*
X548271097Y-272027488D01*
G37*
G36*
X546715462Y-270471853D02*
G01*
X545866934Y-271320381D01*
X544876984Y-270330431D01*
X545725512Y-269481903D01*
X546715462Y-270471853D01*
G37*
G36*
X545513381Y-271673934D02*
G01*
X544664853Y-272522462D01*
X543674903Y-271532512D01*
X544523431Y-270683984D01*
X545513381Y-271673934D01*
G37*
G36*
X547069016Y-273229569D02*
G01*
X546220488Y-274078097D01*
X545230538Y-273088147D01*
X546079066Y-272239619D01*
X547069016Y-273229569D01*
G37*
G04 #@! TD*
D21*
G04 #@! TO.C,USB1*
X589584000Y-254678000D03*
X583134000Y-254678000D03*
X588809000Y-254678000D03*
X583909000Y-254678000D03*
D22*
X584609000Y-254678000D03*
X588109000Y-254678000D03*
X585109000Y-254678000D03*
X587609000Y-254678000D03*
X585609000Y-254678000D03*
X587109000Y-254678000D03*
X586609000Y-254678000D03*
X586109000Y-254678000D03*
D23*
X589249000Y-253233000D03*
X583469000Y-253233000D03*
G04 #@! TD*
D24*
G04 #@! TO.C,U4*
X577317000Y-268845000D03*
X577317000Y-273445000D03*
X577317000Y-271145000D03*
D25*
X571017000Y-271145000D03*
G04 #@! TD*
D26*
G04 #@! TO.C,U3*
X571957000Y-286778000D03*
X571957000Y-287278000D03*
X571957000Y-287778000D03*
X571957000Y-288278000D03*
X575107000Y-288278000D03*
X575107000Y-287778000D03*
X575107000Y-287278000D03*
X575107000Y-286778000D03*
G04 #@! TD*
D27*
G04 #@! TO.C,U2*
X525662000Y-266288000D03*
X525662000Y-267088000D03*
X525662000Y-267888000D03*
X525662000Y-268688000D03*
X525662000Y-269488000D03*
X525662000Y-270288000D03*
X525662000Y-271088000D03*
X525662000Y-271888000D03*
X525662000Y-272688000D03*
X525662000Y-273488000D03*
X525662000Y-274288000D03*
X525662000Y-275088000D03*
X525662000Y-275888000D03*
X525662000Y-276688000D03*
X525662000Y-277488000D03*
X525662000Y-278288000D03*
D28*
X527400000Y-280026000D03*
X528200000Y-280026000D03*
X529000000Y-280026000D03*
X529800000Y-280026000D03*
X530600000Y-280026000D03*
X531400000Y-280026000D03*
X532200000Y-280026000D03*
X533000000Y-280026000D03*
X533800000Y-280026000D03*
X534600000Y-280026000D03*
X535400000Y-280026000D03*
X536200000Y-280026000D03*
X537000000Y-280026000D03*
X537800000Y-280026000D03*
X538600000Y-280026000D03*
X539400000Y-280026000D03*
D27*
X541138000Y-278288000D03*
X541138000Y-277488000D03*
X541138000Y-276688000D03*
X541138000Y-275888000D03*
X541138000Y-275088000D03*
X541138000Y-274288000D03*
X541138000Y-273488000D03*
X541138000Y-272688000D03*
X541138000Y-271888000D03*
X541138000Y-271088000D03*
X541138000Y-270288000D03*
X541138000Y-269488000D03*
X541138000Y-268688000D03*
X541138000Y-267888000D03*
X541138000Y-267088000D03*
X541138000Y-266288000D03*
D28*
X539400000Y-264550000D03*
X538600000Y-264550000D03*
X537800000Y-264550000D03*
X537000000Y-264550000D03*
X536200000Y-264550000D03*
X535400000Y-264550000D03*
X534600000Y-264550000D03*
X533800000Y-264550000D03*
X533000000Y-264550000D03*
X532200000Y-264550000D03*
X531400000Y-264550000D03*
X530600000Y-264550000D03*
X529800000Y-264550000D03*
X529000000Y-264550000D03*
X528200000Y-264550000D03*
X527400000Y-264550000D03*
G04 #@! TD*
D29*
G04 #@! TO.C,U1*
X587359000Y-258869750D03*
D30*
X585359000Y-258669750D03*
X587359000Y-260569750D03*
X585359000Y-260569750D03*
G04 #@! TD*
G04 #@! TO.C,R18*
G36*
G01*
X337254002Y-255632000D02*
X336353998Y-255632000D01*
G75*
G02*
X336104000Y-255382002I0J249998D01*
G01*
X336104000Y-254856998D01*
G75*
G02*
X336353998Y-254607000I249998J0D01*
G01*
X337254002Y-254607000D01*
G75*
G02*
X337504000Y-254856998I0J-249998D01*
G01*
X337504000Y-255382002D01*
G75*
G02*
X337254002Y-255632000I-249998J0D01*
G01*
G37*
G36*
G01*
X337254002Y-257457000D02*
X336353998Y-257457000D01*
G75*
G02*
X336104000Y-257207002I0J249998D01*
G01*
X336104000Y-256681998D01*
G75*
G02*
X336353998Y-256432000I249998J0D01*
G01*
X337254002Y-256432000D01*
G75*
G02*
X337504000Y-256681998I0J-249998D01*
G01*
X337504000Y-257207002D01*
G75*
G02*
X337254002Y-257457000I-249998J0D01*
G01*
G37*
G04 #@! TD*
G04 #@! TO.C,R17*
G36*
G01*
X338728000Y-267658002D02*
X338728000Y-266757998D01*
G75*
G02*
X338977998Y-266508000I249998J0D01*
G01*
X339503002Y-266508000D01*
G75*
G02*
X339753000Y-266757998I0J-249998D01*
G01*
X339753000Y-267658002D01*
G75*
G02*
X339503002Y-267908000I-249998J0D01*
G01*
X338977998Y-267908000D01*
G75*
G02*
X338728000Y-267658002I0J249998D01*
G01*
G37*
G36*
G01*
X336903000Y-267658002D02*
X336903000Y-266757998D01*
G75*
G02*
X337152998Y-266508000I249998J0D01*
G01*
X337678002Y-266508000D01*
G75*
G02*
X337928000Y-266757998I0J-249998D01*
G01*
X337928000Y-267658002D01*
G75*
G02*
X337678002Y-267908000I-249998J0D01*
G01*
X337152998Y-267908000D01*
G75*
G02*
X336903000Y-267658002I0J249998D01*
G01*
G37*
G04 #@! TD*
G04 #@! TO.C,R16*
G36*
G01*
X338728000Y-265626002D02*
X338728000Y-264725998D01*
G75*
G02*
X338977998Y-264476000I249998J0D01*
G01*
X339503002Y-264476000D01*
G75*
G02*
X339753000Y-264725998I0J-249998D01*
G01*
X339753000Y-265626002D01*
G75*
G02*
X339503002Y-265876000I-249998J0D01*
G01*
X338977998Y-265876000D01*
G75*
G02*
X338728000Y-265626002I0J249998D01*
G01*
G37*
G36*
G01*
X336903000Y-265626002D02*
X336903000Y-264725998D01*
G75*
G02*
X337152998Y-264476000I249998J0D01*
G01*
X337678002Y-264476000D01*
G75*
G02*
X337928000Y-264725998I0J-249998D01*
G01*
X337928000Y-265626002D01*
G75*
G02*
X337678002Y-265876000I-249998J0D01*
G01*
X337152998Y-265876000D01*
G75*
G02*
X336903000Y-265626002I0J249998D01*
G01*
G37*
G04 #@! TD*
G04 #@! TO.C,R15*
G36*
G01*
X410499356Y-251366957D02*
X409862957Y-252003356D01*
G75*
G02*
X409509407Y-252003356I-176775J176775D01*
G01*
X409138174Y-251632123D01*
G75*
G02*
X409138174Y-251278573I176775J176775D01*
G01*
X409774573Y-250642174D01*
G75*
G02*
X410128123Y-250642174I176775J-176775D01*
G01*
X410499356Y-251013407D01*
G75*
G02*
X410499356Y-251366957I-176775J-176775D01*
G01*
G37*
G36*
G01*
X411789826Y-252657427D02*
X411153427Y-253293826D01*
G75*
G02*
X410799877Y-253293826I-176775J176775D01*
G01*
X410428644Y-252922593D01*
G75*
G02*
X410428644Y-252569043I176775J176775D01*
G01*
X411065043Y-251932644D01*
G75*
G02*
X411418593Y-251932644I176775J-176775D01*
G01*
X411789826Y-252303877D01*
G75*
G02*
X411789826Y-252657427I-176775J-176775D01*
G01*
G37*
G04 #@! TD*
G04 #@! TO.C,R14*
G36*
G01*
X428644000Y-254450002D02*
X428644000Y-253549998D01*
G75*
G02*
X428893998Y-253300000I249998J0D01*
G01*
X429419002Y-253300000D01*
G75*
G02*
X429669000Y-253549998I0J-249998D01*
G01*
X429669000Y-254450002D01*
G75*
G02*
X429419002Y-254700000I-249998J0D01*
G01*
X428893998Y-254700000D01*
G75*
G02*
X428644000Y-254450002I0J249998D01*
G01*
G37*
G36*
G01*
X426819000Y-254450002D02*
X426819000Y-253549998D01*
G75*
G02*
X427068998Y-253300000I249998J0D01*
G01*
X427594002Y-253300000D01*
G75*
G02*
X427844000Y-253549998I0J-249998D01*
G01*
X427844000Y-254450002D01*
G75*
G02*
X427594002Y-254700000I-249998J0D01*
G01*
X427068998Y-254700000D01*
G75*
G02*
X426819000Y-254450002I0J249998D01*
G01*
G37*
G04 #@! TD*
G04 #@! TO.C,R13*
G36*
G01*
X424288000Y-251517998D02*
X424288000Y-252418002D01*
G75*
G02*
X424038002Y-252668000I-249998J0D01*
G01*
X423512998Y-252668000D01*
G75*
G02*
X423263000Y-252418002I0J249998D01*
G01*
X423263000Y-251517998D01*
G75*
G02*
X423512998Y-251268000I249998J0D01*
G01*
X424038002Y-251268000D01*
G75*
G02*
X424288000Y-251517998I0J-249998D01*
G01*
G37*
G36*
G01*
X426113000Y-251517998D02*
X426113000Y-252418002D01*
G75*
G02*
X425863002Y-252668000I-249998J0D01*
G01*
X425337998Y-252668000D01*
G75*
G02*
X425088000Y-252418002I0J249998D01*
G01*
X425088000Y-251517998D01*
G75*
G02*
X425337998Y-251268000I249998J0D01*
G01*
X425863002Y-251268000D01*
G75*
G02*
X426113000Y-251517998I0J-249998D01*
G01*
G37*
G04 #@! TD*
G04 #@! TO.C,R12*
G36*
G01*
X581006000Y-287839998D02*
X581006000Y-288740002D01*
G75*
G02*
X580756002Y-288990000I-249998J0D01*
G01*
X580230998Y-288990000D01*
G75*
G02*
X579981000Y-288740002I0J249998D01*
G01*
X579981000Y-287839998D01*
G75*
G02*
X580230998Y-287590000I249998J0D01*
G01*
X580756002Y-287590000D01*
G75*
G02*
X581006000Y-287839998I0J-249998D01*
G01*
G37*
G36*
G01*
X582831000Y-287839998D02*
X582831000Y-288740002D01*
G75*
G02*
X582581002Y-288990000I-249998J0D01*
G01*
X582055998Y-288990000D01*
G75*
G02*
X581806000Y-288740002I0J249998D01*
G01*
X581806000Y-287839998D01*
G75*
G02*
X582055998Y-287590000I249998J0D01*
G01*
X582581002Y-287590000D01*
G75*
G02*
X582831000Y-287839998I0J-249998D01*
G01*
G37*
G04 #@! TD*
G04 #@! TO.C,R11*
G36*
G01*
X581006000Y-285807998D02*
X581006000Y-286708002D01*
G75*
G02*
X580756002Y-286958000I-249998J0D01*
G01*
X580230998Y-286958000D01*
G75*
G02*
X579981000Y-286708002I0J249998D01*
G01*
X579981000Y-285807998D01*
G75*
G02*
X580230998Y-285558000I249998J0D01*
G01*
X580756002Y-285558000D01*
G75*
G02*
X581006000Y-285807998I0J-249998D01*
G01*
G37*
G36*
G01*
X582831000Y-285807998D02*
X582831000Y-286708002D01*
G75*
G02*
X582581002Y-286958000I-249998J0D01*
G01*
X582055998Y-286958000D01*
G75*
G02*
X581806000Y-286708002I0J249998D01*
G01*
X581806000Y-285807998D01*
G75*
G02*
X582055998Y-285558000I249998J0D01*
G01*
X582581002Y-285558000D01*
G75*
G02*
X582831000Y-285807998I0J-249998D01*
G01*
G37*
G04 #@! TD*
G04 #@! TO.C,R10*
G36*
G01*
X568045002Y-287064000D02*
X567144998Y-287064000D01*
G75*
G02*
X566895000Y-286814002I0J249998D01*
G01*
X566895000Y-286288998D01*
G75*
G02*
X567144998Y-286039000I249998J0D01*
G01*
X568045002Y-286039000D01*
G75*
G02*
X568295000Y-286288998I0J-249998D01*
G01*
X568295000Y-286814002D01*
G75*
G02*
X568045002Y-287064000I-249998J0D01*
G01*
G37*
G36*
G01*
X568045002Y-288889000D02*
X567144998Y-288889000D01*
G75*
G02*
X566895000Y-288639002I0J249998D01*
G01*
X566895000Y-288113998D01*
G75*
G02*
X567144998Y-287864000I249998J0D01*
G01*
X568045002Y-287864000D01*
G75*
G02*
X568295000Y-288113998I0J-249998D01*
G01*
X568295000Y-288639002D01*
G75*
G02*
X568045002Y-288889000I-249998J0D01*
G01*
G37*
G04 #@! TD*
G04 #@! TO.C,R9*
G36*
G01*
X546875000Y-251263998D02*
X546875000Y-252164002D01*
G75*
G02*
X546625002Y-252414000I-249998J0D01*
G01*
X546099998Y-252414000D01*
G75*
G02*
X545850000Y-252164002I0J249998D01*
G01*
X545850000Y-251263998D01*
G75*
G02*
X546099998Y-251014000I249998J0D01*
G01*
X546625002Y-251014000D01*
G75*
G02*
X546875000Y-251263998I0J-249998D01*
G01*
G37*
G36*
G01*
X548700000Y-251263998D02*
X548700000Y-252164002D01*
G75*
G02*
X548450002Y-252414000I-249998J0D01*
G01*
X547924998Y-252414000D01*
G75*
G02*
X547675000Y-252164002I0J249998D01*
G01*
X547675000Y-251263998D01*
G75*
G02*
X547924998Y-251014000I249998J0D01*
G01*
X548450002Y-251014000D01*
G75*
G02*
X548700000Y-251263998I0J-249998D01*
G01*
G37*
G04 #@! TD*
G04 #@! TO.C,R8*
G36*
G01*
X530409998Y-283055000D02*
X531310002Y-283055000D01*
G75*
G02*
X531560000Y-283304998I0J-249998D01*
G01*
X531560000Y-283830002D01*
G75*
G02*
X531310002Y-284080000I-249998J0D01*
G01*
X530409998Y-284080000D01*
G75*
G02*
X530160000Y-283830002I0J249998D01*
G01*
X530160000Y-283304998D01*
G75*
G02*
X530409998Y-283055000I249998J0D01*
G01*
G37*
G36*
G01*
X530409998Y-284880000D02*
X531310002Y-284880000D01*
G75*
G02*
X531560000Y-285129998I0J-249998D01*
G01*
X531560000Y-285655002D01*
G75*
G02*
X531310002Y-285905000I-249998J0D01*
G01*
X530409998Y-285905000D01*
G75*
G02*
X530160000Y-285655002I0J249998D01*
G01*
X530160000Y-285129998D01*
G75*
G02*
X530409998Y-284880000I249998J0D01*
G01*
G37*
G04 #@! TD*
G04 #@! TO.C,R7*
G36*
G01*
X593794002Y-259315000D02*
X592893998Y-259315000D01*
G75*
G02*
X592644000Y-259065002I0J249998D01*
G01*
X592644000Y-258539998D01*
G75*
G02*
X592893998Y-258290000I249998J0D01*
G01*
X593794002Y-258290000D01*
G75*
G02*
X594044000Y-258539998I0J-249998D01*
G01*
X594044000Y-259065002D01*
G75*
G02*
X593794002Y-259315000I-249998J0D01*
G01*
G37*
G36*
G01*
X593794002Y-261140000D02*
X592893998Y-261140000D01*
G75*
G02*
X592644000Y-260890002I0J249998D01*
G01*
X592644000Y-260364998D01*
G75*
G02*
X592893998Y-260115000I249998J0D01*
G01*
X593794002Y-260115000D01*
G75*
G02*
X594044000Y-260364998I0J-249998D01*
G01*
X594044000Y-260890002D01*
G75*
G02*
X593794002Y-261140000I-249998J0D01*
G01*
G37*
G04 #@! TD*
G04 #@! TO.C,R6*
G36*
G01*
X564185000Y-252069002D02*
X564185000Y-251168998D01*
G75*
G02*
X564434998Y-250919000I249998J0D01*
G01*
X564960002Y-250919000D01*
G75*
G02*
X565210000Y-251168998I0J-249998D01*
G01*
X565210000Y-252069002D01*
G75*
G02*
X564960002Y-252319000I-249998J0D01*
G01*
X564434998Y-252319000D01*
G75*
G02*
X564185000Y-252069002I0J249998D01*
G01*
G37*
G36*
G01*
X562360000Y-252069002D02*
X562360000Y-251168998D01*
G75*
G02*
X562609998Y-250919000I249998J0D01*
G01*
X563135002Y-250919000D01*
G75*
G02*
X563385000Y-251168998I0J-249998D01*
G01*
X563385000Y-252069002D01*
G75*
G02*
X563135002Y-252319000I-249998J0D01*
G01*
X562609998Y-252319000D01*
G75*
G02*
X562360000Y-252069002I0J249998D01*
G01*
G37*
G04 #@! TD*
G04 #@! TO.C,R5*
G36*
G01*
X568154000Y-252069002D02*
X568154000Y-251168998D01*
G75*
G02*
X568403998Y-250919000I249998J0D01*
G01*
X568929002Y-250919000D01*
G75*
G02*
X569179000Y-251168998I0J-249998D01*
G01*
X569179000Y-252069002D01*
G75*
G02*
X568929002Y-252319000I-249998J0D01*
G01*
X568403998Y-252319000D01*
G75*
G02*
X568154000Y-252069002I0J249998D01*
G01*
G37*
G36*
G01*
X566329000Y-252069002D02*
X566329000Y-251168998D01*
G75*
G02*
X566578998Y-250919000I249998J0D01*
G01*
X567104002Y-250919000D01*
G75*
G02*
X567354000Y-251168998I0J-249998D01*
G01*
X567354000Y-252069002D01*
G75*
G02*
X567104002Y-252319000I-249998J0D01*
G01*
X566578998Y-252319000D01*
G75*
G02*
X566329000Y-252069002I0J249998D01*
G01*
G37*
G04 #@! TD*
G04 #@! TO.C,R4*
G36*
G01*
X580078002Y-259315000D02*
X579177998Y-259315000D01*
G75*
G02*
X578928000Y-259065002I0J249998D01*
G01*
X578928000Y-258539998D01*
G75*
G02*
X579177998Y-258290000I249998J0D01*
G01*
X580078002Y-258290000D01*
G75*
G02*
X580328000Y-258539998I0J-249998D01*
G01*
X580328000Y-259065002D01*
G75*
G02*
X580078002Y-259315000I-249998J0D01*
G01*
G37*
G36*
G01*
X580078002Y-261140000D02*
X579177998Y-261140000D01*
G75*
G02*
X578928000Y-260890002I0J249998D01*
G01*
X578928000Y-260364998D01*
G75*
G02*
X579177998Y-260115000I249998J0D01*
G01*
X580078002Y-260115000D01*
G75*
G02*
X580328000Y-260364998I0J-249998D01*
G01*
X580328000Y-260890002D01*
G75*
G02*
X580078002Y-261140000I-249998J0D01*
G01*
G37*
G04 #@! TD*
G04 #@! TO.C,R3*
G36*
G01*
X541570500Y-261562002D02*
X541570500Y-260661998D01*
G75*
G02*
X541820498Y-260412000I249998J0D01*
G01*
X542345502Y-260412000D01*
G75*
G02*
X542595500Y-260661998I0J-249998D01*
G01*
X542595500Y-261562002D01*
G75*
G02*
X542345502Y-261812000I-249998J0D01*
G01*
X541820498Y-261812000D01*
G75*
G02*
X541570500Y-261562002I0J249998D01*
G01*
G37*
G36*
G01*
X539745500Y-261562002D02*
X539745500Y-260661998D01*
G75*
G02*
X539995498Y-260412000I249998J0D01*
G01*
X540520502Y-260412000D01*
G75*
G02*
X540770500Y-260661998I0J-249998D01*
G01*
X540770500Y-261562002D01*
G75*
G02*
X540520502Y-261812000I-249998J0D01*
G01*
X539995498Y-261812000D01*
G75*
G02*
X539745500Y-261562002I0J249998D01*
G01*
G37*
G04 #@! TD*
G04 #@! TO.C,R2*
G36*
G01*
X539722000Y-259530002D02*
X539722000Y-258629998D01*
G75*
G02*
X539971998Y-258380000I249998J0D01*
G01*
X540497002Y-258380000D01*
G75*
G02*
X540747000Y-258629998I0J-249998D01*
G01*
X540747000Y-259530002D01*
G75*
G02*
X540497002Y-259780000I-249998J0D01*
G01*
X539971998Y-259780000D01*
G75*
G02*
X539722000Y-259530002I0J249998D01*
G01*
G37*
G36*
G01*
X541547000Y-259530002D02*
X541547000Y-258629998D01*
G75*
G02*
X541796998Y-258380000I249998J0D01*
G01*
X542322002Y-258380000D01*
G75*
G02*
X542572000Y-258629998I0J-249998D01*
G01*
X542572000Y-259530002D01*
G75*
G02*
X542322002Y-259780000I-249998J0D01*
G01*
X541796998Y-259780000D01*
G75*
G02*
X541547000Y-259530002I0J249998D01*
G01*
G37*
G04 #@! TD*
G04 #@! TO.C,R1*
G36*
G01*
X547224000Y-264217998D02*
X547224000Y-265118002D01*
G75*
G02*
X546974002Y-265368000I-249998J0D01*
G01*
X546448998Y-265368000D01*
G75*
G02*
X546199000Y-265118002I0J249998D01*
G01*
X546199000Y-264217998D01*
G75*
G02*
X546448998Y-263968000I249998J0D01*
G01*
X546974002Y-263968000D01*
G75*
G02*
X547224000Y-264217998I0J-249998D01*
G01*
G37*
G36*
G01*
X549049000Y-264217998D02*
X549049000Y-265118002D01*
G75*
G02*
X548799002Y-265368000I-249998J0D01*
G01*
X548273998Y-265368000D01*
G75*
G02*
X548024000Y-265118002I0J249998D01*
G01*
X548024000Y-264217998D01*
G75*
G02*
X548273998Y-263968000I249998J0D01*
G01*
X548799002Y-263968000D01*
G75*
G02*
X549049000Y-264217998I0J-249998D01*
G01*
G37*
G04 #@! TD*
G04 #@! TO.C,F1*
G36*
G01*
X578879000Y-257165000D02*
X578879000Y-255915000D01*
G75*
G02*
X579129000Y-255665000I250000J0D01*
G01*
X579879000Y-255665000D01*
G75*
G02*
X580129000Y-255915000I0J-250000D01*
G01*
X580129000Y-257165000D01*
G75*
G02*
X579879000Y-257415000I-250000J0D01*
G01*
X579129000Y-257415000D01*
G75*
G02*
X578879000Y-257165000I0J250000D01*
G01*
G37*
G36*
G01*
X576079000Y-257165000D02*
X576079000Y-255915000D01*
G75*
G02*
X576329000Y-255665000I250000J0D01*
G01*
X577079000Y-255665000D01*
G75*
G02*
X577329000Y-255915000I0J-250000D01*
G01*
X577329000Y-257165000D01*
G75*
G02*
X577079000Y-257415000I-250000J0D01*
G01*
X576329000Y-257415000D01*
G75*
G02*
X576079000Y-257165000I0J250000D01*
G01*
G37*
G04 #@! TD*
D31*
G04 #@! TO.C,D111*
X574675000Y-373000000D03*
X574675000Y-376300000D03*
G04 #@! TD*
G04 #@! TO.C,D110*
X546100000Y-376175000D03*
X546100000Y-379475000D03*
G04 #@! TD*
G04 #@! TO.C,D109*
X512762000Y-376175000D03*
X512762000Y-379475000D03*
G04 #@! TD*
G04 #@! TO.C,D108*
X493712000Y-376175000D03*
X493712000Y-379475000D03*
G04 #@! TD*
G04 #@! TO.C,D107*
X474662000Y-376175000D03*
X474662000Y-379475000D03*
G04 #@! TD*
G04 #@! TO.C,D106*
X448469000Y-376175000D03*
X448469000Y-379475000D03*
G04 #@! TD*
G04 #@! TO.C,D105*
X424656000Y-376175000D03*
X424656000Y-379475000D03*
G04 #@! TD*
G04 #@! TO.C,D104*
X400844000Y-376175000D03*
X400844000Y-379475000D03*
G04 #@! TD*
G04 #@! TO.C,D103*
X377031000Y-376175000D03*
X377031000Y-379475000D03*
G04 #@! TD*
G04 #@! TO.C,D102*
X305594000Y-376175000D03*
X305594000Y-379475000D03*
G04 #@! TD*
G04 #@! TO.C,D101*
X234156000Y-376175000D03*
X234156000Y-379475000D03*
G04 #@! TD*
G04 #@! TO.C,D100*
X210344000Y-376175000D03*
X210344000Y-379475000D03*
G04 #@! TD*
G04 #@! TO.C,D99*
X186531000Y-376175000D03*
X186531000Y-379475000D03*
G04 #@! TD*
D32*
G04 #@! TO.C,D98*
X587374000Y-376498000D03*
X584074000Y-376498000D03*
G04 #@! TD*
D31*
G04 #@! TO.C,D97*
X574675000Y-360300000D03*
X574675000Y-363600000D03*
G04 #@! TD*
G04 #@! TO.C,D96*
X555625000Y-357125000D03*
X555625000Y-360425000D03*
G04 #@! TD*
G04 #@! TO.C,D95*
X536575000Y-357125000D03*
X536575000Y-360425000D03*
G04 #@! TD*
G04 #@! TO.C,D94*
X493712000Y-357125000D03*
X493712000Y-360425000D03*
G04 #@! TD*
G04 #@! TO.C,D93*
X434181000Y-357125000D03*
X434181000Y-360425000D03*
G04 #@! TD*
G04 #@! TO.C,D92*
X398462000Y-357125000D03*
X398462000Y-360425000D03*
G04 #@! TD*
G04 #@! TO.C,D91*
X379412000Y-357125000D03*
X379412000Y-360425000D03*
G04 #@! TD*
G04 #@! TO.C,D90*
X360362000Y-357125000D03*
X360362000Y-360425000D03*
G04 #@! TD*
G04 #@! TO.C,D89*
X341312000Y-357125000D03*
X341312000Y-360425000D03*
G04 #@! TD*
G04 #@! TO.C,D88*
X322262000Y-357125000D03*
X322262000Y-360425000D03*
G04 #@! TD*
G04 #@! TO.C,D87*
X303212000Y-357125000D03*
X303212000Y-360425000D03*
G04 #@! TD*
G04 #@! TO.C,D86*
X284162000Y-357125000D03*
X284162000Y-360425000D03*
G04 #@! TD*
G04 #@! TO.C,D85*
X265112000Y-357125000D03*
X265112000Y-360425000D03*
G04 #@! TD*
G04 #@! TO.C,D84*
X246062000Y-357125000D03*
X246062000Y-360425000D03*
G04 #@! TD*
G04 #@! TO.C,D83*
X227012000Y-357125000D03*
X227012000Y-360425000D03*
G04 #@! TD*
G04 #@! TO.C,D82*
X196056000Y-357125000D03*
X196056000Y-360425000D03*
G04 #@! TD*
G04 #@! TO.C,D81*
X574675000Y-334900000D03*
X574675000Y-338200000D03*
G04 #@! TD*
G04 #@! TO.C,D80*
X555625000Y-338075000D03*
X555625000Y-341375000D03*
G04 #@! TD*
G04 #@! TO.C,D79*
X536575000Y-338075000D03*
X536575000Y-341375000D03*
G04 #@! TD*
G04 #@! TO.C,D78*
X438944000Y-338075000D03*
X438944000Y-341375000D03*
G04 #@! TD*
G04 #@! TO.C,D77*
X407988000Y-338075000D03*
X407988000Y-341375000D03*
G04 #@! TD*
G04 #@! TO.C,D76*
X388938000Y-338075000D03*
X388938000Y-341375000D03*
G04 #@! TD*
G04 #@! TO.C,D75*
X369888000Y-338075000D03*
X369888000Y-341375000D03*
G04 #@! TD*
G04 #@! TO.C,D74*
X350838000Y-338075000D03*
X350838000Y-341375000D03*
G04 #@! TD*
G04 #@! TO.C,D73*
X331788000Y-338075000D03*
X331788000Y-341375000D03*
G04 #@! TD*
G04 #@! TO.C,D72*
X312738000Y-338075000D03*
X312738000Y-341375000D03*
G04 #@! TD*
G04 #@! TO.C,D71*
X293688000Y-338075000D03*
X293688000Y-341375000D03*
G04 #@! TD*
G04 #@! TO.C,D70*
X274638000Y-338075000D03*
X274638000Y-341375000D03*
G04 #@! TD*
G04 #@! TO.C,D69*
X255588000Y-338075000D03*
X255588000Y-341375000D03*
G04 #@! TD*
G04 #@! TO.C,D68*
X236538000Y-338075000D03*
X236538000Y-341375000D03*
G04 #@! TD*
G04 #@! TO.C,D67*
X217488000Y-338075000D03*
X217488000Y-341375000D03*
G04 #@! TD*
G04 #@! TO.C,D66*
X191294000Y-338075000D03*
X191294000Y-341375000D03*
G04 #@! TD*
D32*
G04 #@! TO.C,D65*
X587374000Y-338268000D03*
X584074000Y-338268000D03*
G04 #@! TD*
D31*
G04 #@! TO.C,D64*
X574675000Y-322200000D03*
X574675000Y-325500000D03*
G04 #@! TD*
G04 #@! TO.C,D63*
X555625000Y-319025000D03*
X555625000Y-322325000D03*
G04 #@! TD*
G04 #@! TO.C,D62*
X536575000Y-319025000D03*
X536575000Y-322325000D03*
G04 #@! TD*
G04 #@! TO.C,D61*
X512762000Y-319025000D03*
X512762000Y-322325000D03*
G04 #@! TD*
G04 #@! TO.C,D60*
X493712000Y-319025000D03*
X493712000Y-322325000D03*
G04 #@! TD*
G04 #@! TO.C,D59*
X474662000Y-319025000D03*
X474662000Y-322325000D03*
G04 #@! TD*
G04 #@! TO.C,D58*
X446088000Y-319025000D03*
X446088000Y-322325000D03*
G04 #@! TD*
G04 #@! TO.C,D57*
X422275000Y-319025000D03*
X422275000Y-322325000D03*
G04 #@! TD*
G04 #@! TO.C,D56*
X403225000Y-319025000D03*
X403225000Y-322325000D03*
G04 #@! TD*
G04 #@! TO.C,D55*
X384175000Y-319025000D03*
X384175000Y-322325000D03*
G04 #@! TD*
G04 #@! TO.C,D54*
X365125000Y-319025000D03*
X365125000Y-322325000D03*
G04 #@! TD*
G04 #@! TO.C,D53*
X346075000Y-319025000D03*
X346075000Y-322325000D03*
G04 #@! TD*
G04 #@! TO.C,D52*
X327025000Y-319025000D03*
X327025000Y-322325000D03*
G04 #@! TD*
G04 #@! TO.C,D51*
X307975000Y-319025000D03*
X307975000Y-322325000D03*
G04 #@! TD*
G04 #@! TO.C,D50*
X288925000Y-319025000D03*
X288925000Y-322325000D03*
G04 #@! TD*
G04 #@! TO.C,D49*
X269875000Y-319025000D03*
X269875000Y-322325000D03*
G04 #@! TD*
G04 #@! TO.C,D48*
X250825000Y-319025000D03*
X250825000Y-322325000D03*
G04 #@! TD*
G04 #@! TO.C,D47*
X231775000Y-319025000D03*
X231775000Y-322325000D03*
G04 #@! TD*
G04 #@! TO.C,D46*
X212725000Y-319025000D03*
X212725000Y-322325000D03*
G04 #@! TD*
G04 #@! TO.C,D45*
X188912000Y-319025000D03*
X188912000Y-322325000D03*
G04 #@! TD*
G04 #@! TO.C,D44*
X593725000Y-299975000D03*
X593725000Y-303275000D03*
G04 #@! TD*
G04 #@! TO.C,D43*
X574675000Y-299975000D03*
X574675000Y-303275000D03*
G04 #@! TD*
G04 #@! TO.C,D42*
X555625000Y-299975000D03*
X555625000Y-303275000D03*
G04 #@! TD*
G04 #@! TO.C,D41*
X536575000Y-299975000D03*
X536575000Y-303275000D03*
G04 #@! TD*
G04 #@! TO.C,D40*
X512762000Y-299975000D03*
X512762000Y-303275000D03*
G04 #@! TD*
G04 #@! TO.C,D39*
X493712000Y-299975000D03*
X493712000Y-303275000D03*
G04 #@! TD*
G04 #@! TO.C,D38*
X474662000Y-299975000D03*
X474662000Y-303275000D03*
G04 #@! TD*
G04 #@! TO.C,D37*
X441325000Y-299975000D03*
X441325000Y-303275000D03*
G04 #@! TD*
G04 #@! TO.C,D36*
X412750000Y-299975000D03*
X412750000Y-303275000D03*
G04 #@! TD*
G04 #@! TO.C,D35*
X393700000Y-299975000D03*
X393700000Y-303275000D03*
G04 #@! TD*
G04 #@! TO.C,D34*
X374650000Y-299975000D03*
X374650000Y-303275000D03*
G04 #@! TD*
G04 #@! TO.C,D33*
X355600000Y-299975000D03*
X355600000Y-303275000D03*
G04 #@! TD*
G04 #@! TO.C,D32*
X336550000Y-299975000D03*
X336550000Y-303275000D03*
G04 #@! TD*
G04 #@! TO.C,D31*
X317500000Y-299975000D03*
X317500000Y-303275000D03*
G04 #@! TD*
G04 #@! TO.C,D30*
X298450000Y-299975000D03*
X298450000Y-303275000D03*
G04 #@! TD*
G04 #@! TO.C,D29*
X279400000Y-299975000D03*
X279400000Y-303275000D03*
G04 #@! TD*
G04 #@! TO.C,D28*
X260350000Y-299975000D03*
X260350000Y-303275000D03*
G04 #@! TD*
G04 #@! TO.C,D27*
X241300000Y-299975000D03*
X241300000Y-303275000D03*
G04 #@! TD*
G04 #@! TO.C,D26*
X222250000Y-299975000D03*
X222250000Y-303275000D03*
G04 #@! TD*
G04 #@! TO.C,D25*
X203200000Y-299975000D03*
X203200000Y-303275000D03*
G04 #@! TD*
G04 #@! TO.C,D24*
X184150000Y-299975000D03*
X184150000Y-303275000D03*
G04 #@! TD*
G04 #@! TO.C,D23*
X512762000Y-276162000D03*
X512762000Y-279462000D03*
G04 #@! TD*
G04 #@! TO.C,D22*
X493712000Y-276162000D03*
X493712000Y-279462000D03*
G04 #@! TD*
G04 #@! TO.C,D21*
X474662000Y-276162000D03*
X474662000Y-279462000D03*
G04 #@! TD*
G04 #@! TO.C,D20*
X450850000Y-276162000D03*
X450850000Y-279462000D03*
G04 #@! TD*
G04 #@! TO.C,D19*
X431800000Y-276162000D03*
X431800000Y-279462000D03*
G04 #@! TD*
G04 #@! TO.C,D18*
X412750000Y-276162000D03*
X412750000Y-279462000D03*
G04 #@! TD*
G04 #@! TO.C,D17*
X393700000Y-276162000D03*
X393700000Y-279462000D03*
G04 #@! TD*
G04 #@! TO.C,D16*
X365125000Y-276162000D03*
X365125000Y-279462000D03*
G04 #@! TD*
G04 #@! TO.C,D15*
X346075000Y-276162000D03*
X346075000Y-279462000D03*
G04 #@! TD*
G04 #@! TO.C,D14*
X327025000Y-276162000D03*
X327025000Y-279462000D03*
G04 #@! TD*
G04 #@! TO.C,D13*
X307975000Y-276162000D03*
X307975000Y-279462000D03*
G04 #@! TD*
G04 #@! TO.C,D12*
X279400000Y-276162000D03*
X279400000Y-279462000D03*
G04 #@! TD*
G04 #@! TO.C,D11*
X260350000Y-276162000D03*
X260350000Y-279462000D03*
G04 #@! TD*
G04 #@! TO.C,D10*
X241300000Y-276162000D03*
X241300000Y-279462000D03*
G04 #@! TD*
G04 #@! TO.C,D9*
X222250000Y-276162000D03*
X222250000Y-279462000D03*
G04 #@! TD*
G04 #@! TO.C,D8*
X184150000Y-276162000D03*
X184150000Y-279462000D03*
G04 #@! TD*
G04 #@! TO.C,D7*
X512762000Y-257112000D03*
X512762000Y-260412000D03*
G04 #@! TD*
G04 #@! TO.C,D6*
X493712000Y-257112000D03*
X493712000Y-260412000D03*
G04 #@! TD*
G04 #@! TO.C,D5*
X474662000Y-257112000D03*
X474662000Y-260412000D03*
G04 #@! TD*
G04 #@! TO.C,D4*
X279400000Y-257112000D03*
X279400000Y-260412000D03*
G04 #@! TD*
G04 #@! TO.C,D3*
X260350000Y-257112000D03*
X260350000Y-260412000D03*
G04 #@! TD*
G04 #@! TO.C,D2*
X241300000Y-257112000D03*
X241300000Y-260412000D03*
G04 #@! TD*
G04 #@! TO.C,D1*
X222250000Y-257112000D03*
X222250000Y-260412000D03*
G04 #@! TD*
G04 #@! TO.C,C30*
G36*
G01*
X340810000Y-261587000D02*
X340810000Y-260637000D01*
G75*
G02*
X341060000Y-260387000I250000J0D01*
G01*
X341560000Y-260387000D01*
G75*
G02*
X341810000Y-260637000I0J-250000D01*
G01*
X341810000Y-261587000D01*
G75*
G02*
X341560000Y-261837000I-250000J0D01*
G01*
X341060000Y-261837000D01*
G75*
G02*
X340810000Y-261587000I0J250000D01*
G01*
G37*
G36*
G01*
X338910000Y-261587000D02*
X338910000Y-260637000D01*
G75*
G02*
X339160000Y-260387000I250000J0D01*
G01*
X339660000Y-260387000D01*
G75*
G02*
X339910000Y-260637000I0J-250000D01*
G01*
X339910000Y-261587000D01*
G75*
G02*
X339660000Y-261837000I-250000J0D01*
G01*
X339160000Y-261837000D01*
G75*
G02*
X338910000Y-261587000I0J250000D01*
G01*
G37*
G04 #@! TD*
G04 #@! TO.C,C29*
G36*
G01*
X332707000Y-252026000D02*
X331757000Y-252026000D01*
G75*
G02*
X331507000Y-251776000I0J250000D01*
G01*
X331507000Y-251276000D01*
G75*
G02*
X331757000Y-251026000I250000J0D01*
G01*
X332707000Y-251026000D01*
G75*
G02*
X332957000Y-251276000I0J-250000D01*
G01*
X332957000Y-251776000D01*
G75*
G02*
X332707000Y-252026000I-250000J0D01*
G01*
G37*
G36*
G01*
X332707000Y-253926000D02*
X331757000Y-253926000D01*
G75*
G02*
X331507000Y-253676000I0J250000D01*
G01*
X331507000Y-253176000D01*
G75*
G02*
X331757000Y-252926000I250000J0D01*
G01*
X332707000Y-252926000D01*
G75*
G02*
X332957000Y-253176000I0J-250000D01*
G01*
X332957000Y-253676000D01*
G75*
G02*
X332707000Y-253926000I-250000J0D01*
G01*
G37*
G04 #@! TD*
G04 #@! TO.C,C28*
G36*
G01*
X340810000Y-263619000D02*
X340810000Y-262669000D01*
G75*
G02*
X341060000Y-262419000I250000J0D01*
G01*
X341560000Y-262419000D01*
G75*
G02*
X341810000Y-262669000I0J-250000D01*
G01*
X341810000Y-263619000D01*
G75*
G02*
X341560000Y-263869000I-250000J0D01*
G01*
X341060000Y-263869000D01*
G75*
G02*
X340810000Y-263619000I0J250000D01*
G01*
G37*
G36*
G01*
X338910000Y-263619000D02*
X338910000Y-262669000D01*
G75*
G02*
X339160000Y-262419000I250000J0D01*
G01*
X339660000Y-262419000D01*
G75*
G02*
X339910000Y-262669000I0J-250000D01*
G01*
X339910000Y-263619000D01*
G75*
G02*
X339660000Y-263869000I-250000J0D01*
G01*
X339160000Y-263869000D01*
G75*
G02*
X338910000Y-263619000I0J250000D01*
G01*
G37*
G04 #@! TD*
G04 #@! TO.C,C27*
G36*
G01*
X320515000Y-253232500D02*
X319565000Y-253232500D01*
G75*
G02*
X319315000Y-252982500I0J250000D01*
G01*
X319315000Y-252482500D01*
G75*
G02*
X319565000Y-252232500I250000J0D01*
G01*
X320515000Y-252232500D01*
G75*
G02*
X320765000Y-252482500I0J-250000D01*
G01*
X320765000Y-252982500D01*
G75*
G02*
X320515000Y-253232500I-250000J0D01*
G01*
G37*
G36*
G01*
X320515000Y-255132500D02*
X319565000Y-255132500D01*
G75*
G02*
X319315000Y-254882500I0J250000D01*
G01*
X319315000Y-254382500D01*
G75*
G02*
X319565000Y-254132500I250000J0D01*
G01*
X320515000Y-254132500D01*
G75*
G02*
X320765000Y-254382500I0J-250000D01*
G01*
X320765000Y-254882500D01*
G75*
G02*
X320515000Y-255132500I-250000J0D01*
G01*
G37*
G04 #@! TD*
G04 #@! TO.C,C26*
G36*
G01*
X322547000Y-253232500D02*
X321597000Y-253232500D01*
G75*
G02*
X321347000Y-252982500I0J250000D01*
G01*
X321347000Y-252482500D01*
G75*
G02*
X321597000Y-252232500I250000J0D01*
G01*
X322547000Y-252232500D01*
G75*
G02*
X322797000Y-252482500I0J-250000D01*
G01*
X322797000Y-252982500D01*
G75*
G02*
X322547000Y-253232500I-250000J0D01*
G01*
G37*
G36*
G01*
X322547000Y-255132500D02*
X321597000Y-255132500D01*
G75*
G02*
X321347000Y-254882500I0J250000D01*
G01*
X321347000Y-254382500D01*
G75*
G02*
X321597000Y-254132500I250000J0D01*
G01*
X322547000Y-254132500D01*
G75*
G02*
X322797000Y-254382500I0J-250000D01*
G01*
X322797000Y-254882500D01*
G75*
G02*
X322547000Y-255132500I-250000J0D01*
G01*
G37*
G04 #@! TD*
G04 #@! TO.C,C25*
G36*
G01*
X574998000Y-266286000D02*
X574998000Y-265336000D01*
G75*
G02*
X575248000Y-265086000I250000J0D01*
G01*
X575748000Y-265086000D01*
G75*
G02*
X575998000Y-265336000I0J-250000D01*
G01*
X575998000Y-266286000D01*
G75*
G02*
X575748000Y-266536000I-250000J0D01*
G01*
X575248000Y-266536000D01*
G75*
G02*
X574998000Y-266286000I0J250000D01*
G01*
G37*
G36*
G01*
X573098000Y-266286000D02*
X573098000Y-265336000D01*
G75*
G02*
X573348000Y-265086000I250000J0D01*
G01*
X573848000Y-265086000D01*
G75*
G02*
X574098000Y-265336000I0J-250000D01*
G01*
X574098000Y-266286000D01*
G75*
G02*
X573848000Y-266536000I-250000J0D01*
G01*
X573348000Y-266536000D01*
G75*
G02*
X573098000Y-266286000I0J250000D01*
G01*
G37*
G04 #@! TD*
G04 #@! TO.C,C24*
G36*
G01*
X577883000Y-287724000D02*
X578833000Y-287724000D01*
G75*
G02*
X579083000Y-287974000I0J-250000D01*
G01*
X579083000Y-288474000D01*
G75*
G02*
X578833000Y-288724000I-250000J0D01*
G01*
X577883000Y-288724000D01*
G75*
G02*
X577633000Y-288474000I0J250000D01*
G01*
X577633000Y-287974000D01*
G75*
G02*
X577883000Y-287724000I250000J0D01*
G01*
G37*
G36*
G01*
X577883000Y-285824000D02*
X578833000Y-285824000D01*
G75*
G02*
X579083000Y-286074000I0J-250000D01*
G01*
X579083000Y-286574000D01*
G75*
G02*
X578833000Y-286824000I-250000J0D01*
G01*
X577883000Y-286824000D01*
G75*
G02*
X577633000Y-286574000I0J250000D01*
G01*
X577633000Y-286074000D01*
G75*
G02*
X577883000Y-285824000I250000J0D01*
G01*
G37*
G04 #@! TD*
G04 #@! TO.C,C23*
G36*
G01*
X340810000Y-259555000D02*
X340810000Y-258605000D01*
G75*
G02*
X341060000Y-258355000I250000J0D01*
G01*
X341560000Y-258355000D01*
G75*
G02*
X341810000Y-258605000I0J-250000D01*
G01*
X341810000Y-259555000D01*
G75*
G02*
X341560000Y-259805000I-250000J0D01*
G01*
X341060000Y-259805000D01*
G75*
G02*
X340810000Y-259555000I0J250000D01*
G01*
G37*
G36*
G01*
X338910000Y-259555000D02*
X338910000Y-258605000D01*
G75*
G02*
X339160000Y-258355000I250000J0D01*
G01*
X339660000Y-258355000D01*
G75*
G02*
X339910000Y-258605000I0J-250000D01*
G01*
X339910000Y-259555000D01*
G75*
G02*
X339660000Y-259805000I-250000J0D01*
G01*
X339160000Y-259805000D01*
G75*
G02*
X338910000Y-259555000I0J250000D01*
G01*
G37*
G04 #@! TD*
G04 #@! TO.C,C22*
G36*
G01*
X334739000Y-252026000D02*
X333789000Y-252026000D01*
G75*
G02*
X333539000Y-251776000I0J250000D01*
G01*
X333539000Y-251276000D01*
G75*
G02*
X333789000Y-251026000I250000J0D01*
G01*
X334739000Y-251026000D01*
G75*
G02*
X334989000Y-251276000I0J-250000D01*
G01*
X334989000Y-251776000D01*
G75*
G02*
X334739000Y-252026000I-250000J0D01*
G01*
G37*
G36*
G01*
X334739000Y-253926000D02*
X333789000Y-253926000D01*
G75*
G02*
X333539000Y-253676000I0J250000D01*
G01*
X333539000Y-253176000D01*
G75*
G02*
X333789000Y-252926000I250000J0D01*
G01*
X334739000Y-252926000D01*
G75*
G02*
X334989000Y-253176000I0J-250000D01*
G01*
X334989000Y-253676000D01*
G75*
G02*
X334739000Y-253926000I-250000J0D01*
G01*
G37*
G04 #@! TD*
G04 #@! TO.C,C21*
G36*
G01*
X423689678Y-260457927D02*
X423017927Y-261129678D01*
G75*
G02*
X422664373Y-261129678I-176777J176777D01*
G01*
X422310820Y-260776125D01*
G75*
G02*
X422310820Y-260422571I176777J176777D01*
G01*
X422982571Y-259750820D01*
G75*
G02*
X423336125Y-259750820I176777J-176777D01*
G01*
X423689678Y-260104373D01*
G75*
G02*
X423689678Y-260457927I-176777J-176777D01*
G01*
G37*
G36*
G01*
X425033180Y-261801429D02*
X424361429Y-262473180D01*
G75*
G02*
X424007875Y-262473180I-176777J176777D01*
G01*
X423654322Y-262119627D01*
G75*
G02*
X423654322Y-261766073I176777J176777D01*
G01*
X424326073Y-261094322D01*
G75*
G02*
X424679627Y-261094322I176777J-176777D01*
G01*
X425033180Y-261447875D01*
G75*
G02*
X425033180Y-261801429I-176777J-176777D01*
G01*
G37*
G04 #@! TD*
G04 #@! TO.C,C20*
G36*
G01*
X425213678Y-258933927D02*
X424541927Y-259605678D01*
G75*
G02*
X424188373Y-259605678I-176777J176777D01*
G01*
X423834820Y-259252125D01*
G75*
G02*
X423834820Y-258898571I176777J176777D01*
G01*
X424506571Y-258226820D01*
G75*
G02*
X424860125Y-258226820I176777J-176777D01*
G01*
X425213678Y-258580373D01*
G75*
G02*
X425213678Y-258933927I-176777J-176777D01*
G01*
G37*
G36*
G01*
X426557180Y-260277429D02*
X425885429Y-260949180D01*
G75*
G02*
X425531875Y-260949180I-176777J176777D01*
G01*
X425178322Y-260595627D01*
G75*
G02*
X425178322Y-260242073I176777J176777D01*
G01*
X425850073Y-259570322D01*
G75*
G02*
X426203627Y-259570322I176777J-176777D01*
G01*
X426557180Y-259923875D01*
G75*
G02*
X426557180Y-260277429I-176777J-176777D01*
G01*
G37*
G04 #@! TD*
G04 #@! TO.C,C19*
G36*
G01*
X418051000Y-251518000D02*
X417101000Y-251518000D01*
G75*
G02*
X416851000Y-251268000I0J250000D01*
G01*
X416851000Y-250768000D01*
G75*
G02*
X417101000Y-250518000I250000J0D01*
G01*
X418051000Y-250518000D01*
G75*
G02*
X418301000Y-250768000I0J-250000D01*
G01*
X418301000Y-251268000D01*
G75*
G02*
X418051000Y-251518000I-250000J0D01*
G01*
G37*
G36*
G01*
X418051000Y-253418000D02*
X417101000Y-253418000D01*
G75*
G02*
X416851000Y-253168000I0J250000D01*
G01*
X416851000Y-252668000D01*
G75*
G02*
X417101000Y-252418000I250000J0D01*
G01*
X418051000Y-252418000D01*
G75*
G02*
X418301000Y-252668000I0J-250000D01*
G01*
X418301000Y-253168000D01*
G75*
G02*
X418051000Y-253418000I-250000J0D01*
G01*
G37*
G04 #@! TD*
G04 #@! TO.C,C18*
G36*
G01*
X548149678Y-269093927D02*
X547477927Y-269765678D01*
G75*
G02*
X547124373Y-269765678I-176777J176777D01*
G01*
X546770820Y-269412125D01*
G75*
G02*
X546770820Y-269058571I176777J176777D01*
G01*
X547442571Y-268386820D01*
G75*
G02*
X547796125Y-268386820I176777J-176777D01*
G01*
X548149678Y-268740373D01*
G75*
G02*
X548149678Y-269093927I-176777J-176777D01*
G01*
G37*
G36*
G01*
X549493180Y-270437429D02*
X548821429Y-271109180D01*
G75*
G02*
X548467875Y-271109180I-176777J176777D01*
G01*
X548114322Y-270755627D01*
G75*
G02*
X548114322Y-270402073I176777J176777D01*
G01*
X548786073Y-269730322D01*
G75*
G02*
X549139627Y-269730322I176777J-176777D01*
G01*
X549493180Y-270083875D01*
G75*
G02*
X549493180Y-270437429I-176777J-176777D01*
G01*
G37*
G04 #@! TD*
G04 #@! TO.C,C17*
G36*
G01*
X408922322Y-254146073D02*
X409594073Y-253474322D01*
G75*
G02*
X409947627Y-253474322I176777J-176777D01*
G01*
X410301180Y-253827875D01*
G75*
G02*
X410301180Y-254181429I-176777J-176777D01*
G01*
X409629429Y-254853180D01*
G75*
G02*
X409275875Y-254853180I-176777J176777D01*
G01*
X408922322Y-254499627D01*
G75*
G02*
X408922322Y-254146073I176777J176777D01*
G01*
G37*
G36*
G01*
X407578820Y-252802571D02*
X408250571Y-252130820D01*
G75*
G02*
X408604125Y-252130820I176777J-176777D01*
G01*
X408957678Y-252484373D01*
G75*
G02*
X408957678Y-252837927I-176777J-176777D01*
G01*
X408285927Y-253509678D01*
G75*
G02*
X407932373Y-253509678I-176777J176777D01*
G01*
X407578820Y-253156125D01*
G75*
G02*
X407578820Y-252802571I176777J176777D01*
G01*
G37*
G04 #@! TD*
G04 #@! TO.C,C16*
G36*
G01*
X419969927Y-252458322D02*
X420641678Y-253130073D01*
G75*
G02*
X420641678Y-253483627I-176777J-176777D01*
G01*
X420288125Y-253837180D01*
G75*
G02*
X419934571Y-253837180I-176777J176777D01*
G01*
X419262820Y-253165429D01*
G75*
G02*
X419262820Y-252811875I176777J176777D01*
G01*
X419616373Y-252458322D01*
G75*
G02*
X419969927Y-252458322I176777J-176777D01*
G01*
G37*
G36*
G01*
X421313429Y-251114820D02*
X421985180Y-251786571D01*
G75*
G02*
X421985180Y-252140125I-176777J-176777D01*
G01*
X421631627Y-252493678D01*
G75*
G02*
X421278073Y-252493678I-176777J176777D01*
G01*
X420606322Y-251821927D01*
G75*
G02*
X420606322Y-251468373I176777J176777D01*
G01*
X420959875Y-251114820D01*
G75*
G02*
X421313429Y-251114820I176777J-176777D01*
G01*
G37*
G04 #@! TD*
G04 #@! TO.C,C15*
G36*
G01*
X547604927Y-274048322D02*
X548276678Y-274720073D01*
G75*
G02*
X548276678Y-275073627I-176777J-176777D01*
G01*
X547923125Y-275427180D01*
G75*
G02*
X547569571Y-275427180I-176777J176777D01*
G01*
X546897820Y-274755429D01*
G75*
G02*
X546897820Y-274401875I176777J176777D01*
G01*
X547251373Y-274048322D01*
G75*
G02*
X547604927Y-274048322I176777J-176777D01*
G01*
G37*
G36*
G01*
X548948429Y-272704820D02*
X549620180Y-273376571D01*
G75*
G02*
X549620180Y-273730125I-176777J-176777D01*
G01*
X549266627Y-274083678D01*
G75*
G02*
X548913073Y-274083678I-176777J176777D01*
G01*
X548241322Y-273411927D01*
G75*
G02*
X548241322Y-273058373I176777J176777D01*
G01*
X548594875Y-272704820D01*
G75*
G02*
X548948429Y-272704820I176777J-176777D01*
G01*
G37*
G04 #@! TD*
G04 #@! TO.C,C14*
G36*
G01*
X426737678Y-257409927D02*
X426065927Y-258081678D01*
G75*
G02*
X425712373Y-258081678I-176777J176777D01*
G01*
X425358820Y-257728125D01*
G75*
G02*
X425358820Y-257374571I176777J176777D01*
G01*
X426030571Y-256702820D01*
G75*
G02*
X426384125Y-256702820I176777J-176777D01*
G01*
X426737678Y-257056373D01*
G75*
G02*
X426737678Y-257409927I-176777J-176777D01*
G01*
G37*
G36*
G01*
X428081180Y-258753429D02*
X427409429Y-259425180D01*
G75*
G02*
X427055875Y-259425180I-176777J176777D01*
G01*
X426702322Y-259071627D01*
G75*
G02*
X426702322Y-258718073I176777J176777D01*
G01*
X427374073Y-258046322D01*
G75*
G02*
X427727627Y-258046322I176777J-176777D01*
G01*
X428081180Y-258399875D01*
G75*
G02*
X428081180Y-258753429I-176777J-176777D01*
G01*
G37*
G04 #@! TD*
G04 #@! TO.C,C13*
G36*
G01*
X422673678Y-266045927D02*
X422001927Y-266717678D01*
G75*
G02*
X421648373Y-266717678I-176777J176777D01*
G01*
X421294820Y-266364125D01*
G75*
G02*
X421294820Y-266010571I176777J176777D01*
G01*
X421966571Y-265338820D01*
G75*
G02*
X422320125Y-265338820I176777J-176777D01*
G01*
X422673678Y-265692373D01*
G75*
G02*
X422673678Y-266045927I-176777J-176777D01*
G01*
G37*
G36*
G01*
X424017180Y-267389429D02*
X423345429Y-268061180D01*
G75*
G02*
X422991875Y-268061180I-176777J176777D01*
G01*
X422638322Y-267707627D01*
G75*
G02*
X422638322Y-267354073I176777J176777D01*
G01*
X423310073Y-266682322D01*
G75*
G02*
X423663627Y-266682322I176777J-176777D01*
G01*
X424017180Y-267035875D01*
G75*
G02*
X424017180Y-267389429I-176777J-176777D01*
G01*
G37*
G04 #@! TD*
G04 #@! TO.C,C12*
G36*
G01*
X555397000Y-251144000D02*
X555397000Y-252094000D01*
G75*
G02*
X555147000Y-252344000I-250000J0D01*
G01*
X554647000Y-252344000D01*
G75*
G02*
X554397000Y-252094000I0J250000D01*
G01*
X554397000Y-251144000D01*
G75*
G02*
X554647000Y-250894000I250000J0D01*
G01*
X555147000Y-250894000D01*
G75*
G02*
X555397000Y-251144000I0J-250000D01*
G01*
G37*
G36*
G01*
X557297000Y-251144000D02*
X557297000Y-252094000D01*
G75*
G02*
X557047000Y-252344000I-250000J0D01*
G01*
X556547000Y-252344000D01*
G75*
G02*
X556297000Y-252094000I0J250000D01*
G01*
X556297000Y-251144000D01*
G75*
G02*
X556547000Y-250894000I250000J0D01*
G01*
X557047000Y-250894000D01*
G75*
G02*
X557297000Y-251144000I0J-250000D01*
G01*
G37*
G04 #@! TD*
G04 #@! TO.C,C10*
G36*
G01*
X519758000Y-276319000D02*
X519758000Y-275369000D01*
G75*
G02*
X520008000Y-275119000I250000J0D01*
G01*
X520508000Y-275119000D01*
G75*
G02*
X520758000Y-275369000I0J-250000D01*
G01*
X520758000Y-276319000D01*
G75*
G02*
X520508000Y-276569000I-250000J0D01*
G01*
X520008000Y-276569000D01*
G75*
G02*
X519758000Y-276319000I0J250000D01*
G01*
G37*
G36*
G01*
X521658000Y-276319000D02*
X521658000Y-275369000D01*
G75*
G02*
X521908000Y-275119000I250000J0D01*
G01*
X522408000Y-275119000D01*
G75*
G02*
X522658000Y-275369000I0J-250000D01*
G01*
X522658000Y-276319000D01*
G75*
G02*
X522408000Y-276569000I-250000J0D01*
G01*
X521908000Y-276569000D01*
G75*
G02*
X521658000Y-276319000I0J250000D01*
G01*
G37*
G04 #@! TD*
G04 #@! TO.C,C8*
G36*
G01*
X528353000Y-258646000D02*
X529303000Y-258646000D01*
G75*
G02*
X529553000Y-258896000I0J-250000D01*
G01*
X529553000Y-259396000D01*
G75*
G02*
X529303000Y-259646000I-250000J0D01*
G01*
X528353000Y-259646000D01*
G75*
G02*
X528103000Y-259396000I0J250000D01*
G01*
X528103000Y-258896000D01*
G75*
G02*
X528353000Y-258646000I250000J0D01*
G01*
G37*
G36*
G01*
X528353000Y-260546000D02*
X529303000Y-260546000D01*
G75*
G02*
X529553000Y-260796000I0J-250000D01*
G01*
X529553000Y-261296000D01*
G75*
G02*
X529303000Y-261546000I-250000J0D01*
G01*
X528353000Y-261546000D01*
G75*
G02*
X528103000Y-261296000I0J250000D01*
G01*
X528103000Y-260796000D01*
G75*
G02*
X528353000Y-260546000I250000J0D01*
G01*
G37*
G04 #@! TD*
G04 #@! TO.C,C7*
G36*
G01*
X559366000Y-251144000D02*
X559366000Y-252094000D01*
G75*
G02*
X559116000Y-252344000I-250000J0D01*
G01*
X558616000Y-252344000D01*
G75*
G02*
X558366000Y-252094000I0J250000D01*
G01*
X558366000Y-251144000D01*
G75*
G02*
X558616000Y-250894000I250000J0D01*
G01*
X559116000Y-250894000D01*
G75*
G02*
X559366000Y-251144000I0J-250000D01*
G01*
G37*
G36*
G01*
X561266000Y-251144000D02*
X561266000Y-252094000D01*
G75*
G02*
X561016000Y-252344000I-250000J0D01*
G01*
X560516000Y-252344000D01*
G75*
G02*
X560266000Y-252094000I0J250000D01*
G01*
X560266000Y-251144000D01*
G75*
G02*
X560516000Y-250894000I250000J0D01*
G01*
X561016000Y-250894000D01*
G75*
G02*
X561266000Y-251144000I0J-250000D01*
G01*
G37*
G04 #@! TD*
G04 #@! TO.C,C6*
G36*
G01*
X552138000Y-252189000D02*
X552138000Y-251239000D01*
G75*
G02*
X552388000Y-250989000I250000J0D01*
G01*
X552888000Y-250989000D01*
G75*
G02*
X553138000Y-251239000I0J-250000D01*
G01*
X553138000Y-252189000D01*
G75*
G02*
X552888000Y-252439000I-250000J0D01*
G01*
X552388000Y-252439000D01*
G75*
G02*
X552138000Y-252189000I0J250000D01*
G01*
G37*
G36*
G01*
X550238000Y-252189000D02*
X550238000Y-251239000D01*
G75*
G02*
X550488000Y-250989000I250000J0D01*
G01*
X550988000Y-250989000D01*
G75*
G02*
X551238000Y-251239000I0J-250000D01*
G01*
X551238000Y-252189000D01*
G75*
G02*
X550988000Y-252439000I-250000J0D01*
G01*
X550488000Y-252439000D01*
G75*
G02*
X550238000Y-252189000I0J250000D01*
G01*
G37*
G04 #@! TD*
G04 #@! TO.C,C5*
G36*
G01*
X531843000Y-259646000D02*
X530893000Y-259646000D01*
G75*
G02*
X530643000Y-259396000I0J250000D01*
G01*
X530643000Y-258896000D01*
G75*
G02*
X530893000Y-258646000I250000J0D01*
G01*
X531843000Y-258646000D01*
G75*
G02*
X532093000Y-258896000I0J-250000D01*
G01*
X532093000Y-259396000D01*
G75*
G02*
X531843000Y-259646000I-250000J0D01*
G01*
G37*
G36*
G01*
X531843000Y-261546000D02*
X530893000Y-261546000D01*
G75*
G02*
X530643000Y-261296000I0J250000D01*
G01*
X530643000Y-260796000D01*
G75*
G02*
X530893000Y-260546000I250000J0D01*
G01*
X531843000Y-260546000D01*
G75*
G02*
X532093000Y-260796000I0J-250000D01*
G01*
X532093000Y-261296000D01*
G75*
G02*
X531843000Y-261546000I-250000J0D01*
G01*
G37*
G04 #@! TD*
G04 #@! TO.C,C4*
G36*
G01*
X543248000Y-252189000D02*
X543248000Y-251239000D01*
G75*
G02*
X543498000Y-250989000I250000J0D01*
G01*
X543998000Y-250989000D01*
G75*
G02*
X544248000Y-251239000I0J-250000D01*
G01*
X544248000Y-252189000D01*
G75*
G02*
X543998000Y-252439000I-250000J0D01*
G01*
X543498000Y-252439000D01*
G75*
G02*
X543248000Y-252189000I0J250000D01*
G01*
G37*
G36*
G01*
X541348000Y-252189000D02*
X541348000Y-251239000D01*
G75*
G02*
X541598000Y-250989000I250000J0D01*
G01*
X542098000Y-250989000D01*
G75*
G02*
X542348000Y-251239000I0J-250000D01*
G01*
X542348000Y-252189000D01*
G75*
G02*
X542098000Y-252439000I-250000J0D01*
G01*
X541598000Y-252439000D01*
G75*
G02*
X541348000Y-252189000I0J250000D01*
G01*
G37*
G04 #@! TD*
G04 #@! TO.C,C3*
G36*
G01*
X540184000Y-251239000D02*
X540184000Y-252189000D01*
G75*
G02*
X539934000Y-252439000I-250000J0D01*
G01*
X539434000Y-252439000D01*
G75*
G02*
X539184000Y-252189000I0J250000D01*
G01*
X539184000Y-251239000D01*
G75*
G02*
X539434000Y-250989000I250000J0D01*
G01*
X539934000Y-250989000D01*
G75*
G02*
X540184000Y-251239000I0J-250000D01*
G01*
G37*
G36*
G01*
X538284000Y-251239000D02*
X538284000Y-252189000D01*
G75*
G02*
X538034000Y-252439000I-250000J0D01*
G01*
X537534000Y-252439000D01*
G75*
G02*
X537284000Y-252189000I0J250000D01*
G01*
X537284000Y-251239000D01*
G75*
G02*
X537534000Y-250989000I250000J0D01*
G01*
X538034000Y-250989000D01*
G75*
G02*
X538284000Y-251239000I0J-250000D01*
G01*
G37*
G04 #@! TD*
G04 #@! TO.C,C2*
G36*
G01*
X575114000Y-251271000D02*
X575114000Y-252221000D01*
G75*
G02*
X574864000Y-252471000I-250000J0D01*
G01*
X574364000Y-252471000D01*
G75*
G02*
X574114000Y-252221000I0J250000D01*
G01*
X574114000Y-251271000D01*
G75*
G02*
X574364000Y-251021000I250000J0D01*
G01*
X574864000Y-251021000D01*
G75*
G02*
X575114000Y-251271000I0J-250000D01*
G01*
G37*
G36*
G01*
X577014000Y-251271000D02*
X577014000Y-252221000D01*
G75*
G02*
X576764000Y-252471000I-250000J0D01*
G01*
X576264000Y-252471000D01*
G75*
G02*
X576014000Y-252221000I0J250000D01*
G01*
X576014000Y-251271000D01*
G75*
G02*
X576264000Y-251021000I250000J0D01*
G01*
X576764000Y-251021000D01*
G75*
G02*
X577014000Y-251271000I0J-250000D01*
G01*
G37*
G04 #@! TD*
G04 #@! TO.C,C1*
G36*
G01*
X572045000Y-252221000D02*
X572045000Y-251271000D01*
G75*
G02*
X572295000Y-251021000I250000J0D01*
G01*
X572795000Y-251021000D01*
G75*
G02*
X573045000Y-251271000I0J-250000D01*
G01*
X573045000Y-252221000D01*
G75*
G02*
X572795000Y-252471000I-250000J0D01*
G01*
X572295000Y-252471000D01*
G75*
G02*
X572045000Y-252221000I0J250000D01*
G01*
G37*
G36*
G01*
X570145000Y-252221000D02*
X570145000Y-251271000D01*
G75*
G02*
X570395000Y-251021000I250000J0D01*
G01*
X570895000Y-251021000D01*
G75*
G02*
X571145000Y-251271000I0J-250000D01*
G01*
X571145000Y-252221000D01*
G75*
G02*
X570895000Y-252471000I-250000J0D01*
G01*
X570395000Y-252471000D01*
G75*
G02*
X570145000Y-252221000I0J250000D01*
G01*
G37*
G04 #@! TD*
D13*
G36*
X575533732Y-287927000D02*
G01*
X575534000Y-287928000D01*
X575534000Y-288128000D01*
X575533000Y-288129732D01*
X575532000Y-288130000D01*
X574682000Y-288130000D01*
X574680268Y-288129000D01*
X574680000Y-288128000D01*
X574680000Y-287928000D01*
X574681000Y-287926268D01*
X574682000Y-287926000D01*
X575532000Y-287926000D01*
X575533732Y-287927000D01*
G37*
G36*
X572383732Y-287927000D02*
G01*
X572384000Y-287928000D01*
X572384000Y-288128000D01*
X572383000Y-288129732D01*
X572382000Y-288130000D01*
X571532000Y-288130000D01*
X571530268Y-288129000D01*
X571530000Y-288128000D01*
X571530000Y-287928000D01*
X571531000Y-287926268D01*
X571532000Y-287926000D01*
X572382000Y-287926000D01*
X572383732Y-287927000D01*
G37*
G36*
X572383732Y-287427000D02*
G01*
X572384000Y-287428000D01*
X572384000Y-287628000D01*
X572383000Y-287629732D01*
X572382000Y-287630000D01*
X571532000Y-287630000D01*
X571530268Y-287629000D01*
X571530000Y-287628000D01*
X571530000Y-287428000D01*
X571531000Y-287426268D01*
X571532000Y-287426000D01*
X572382000Y-287426000D01*
X572383732Y-287427000D01*
G37*
G36*
X575533732Y-287427000D02*
G01*
X575534000Y-287428000D01*
X575534000Y-287628000D01*
X575533000Y-287629732D01*
X575532000Y-287630000D01*
X574682000Y-287630000D01*
X574680268Y-287629000D01*
X574680000Y-287628000D01*
X574680000Y-287428000D01*
X574681000Y-287426268D01*
X574682000Y-287426000D01*
X575532000Y-287426000D01*
X575533732Y-287427000D01*
G37*
G36*
X575533732Y-286927000D02*
G01*
X575534000Y-286928000D01*
X575534000Y-287128000D01*
X575533000Y-287129732D01*
X575532000Y-287130000D01*
X574682000Y-287130000D01*
X574680268Y-287129000D01*
X574680000Y-287128000D01*
X574680000Y-286928000D01*
X574681000Y-286926268D01*
X574682000Y-286926000D01*
X575532000Y-286926000D01*
X575533732Y-286927000D01*
G37*
G36*
X572383732Y-286927000D02*
G01*
X572384000Y-286928000D01*
X572384000Y-287128000D01*
X572383000Y-287129732D01*
X572382000Y-287130000D01*
X571532000Y-287130000D01*
X571530268Y-287129000D01*
X571530000Y-287128000D01*
X571530000Y-286928000D01*
X571531000Y-286926268D01*
X571532000Y-286926000D01*
X572382000Y-286926000D01*
X572383732Y-286927000D01*
G37*
G36*
X532701732Y-279287500D02*
G01*
X532702000Y-279288500D01*
X532702000Y-280763500D01*
X532701000Y-280765232D01*
X532700000Y-280765500D01*
X532500000Y-280765500D01*
X532498268Y-280764500D01*
X532498000Y-280763500D01*
X532498000Y-279288500D01*
X532499000Y-279286768D01*
X532500000Y-279286500D01*
X532700000Y-279286500D01*
X532701732Y-279287500D01*
G37*
G36*
X531901732Y-279287500D02*
G01*
X531902000Y-279288500D01*
X531902000Y-280763500D01*
X531901000Y-280765232D01*
X531900000Y-280765500D01*
X531700000Y-280765500D01*
X531698268Y-280764500D01*
X531698000Y-280763500D01*
X531698000Y-279288500D01*
X531699000Y-279286768D01*
X531700000Y-279286500D01*
X531900000Y-279286500D01*
X531901732Y-279287500D01*
G37*
G36*
X527901732Y-279287500D02*
G01*
X527902000Y-279288500D01*
X527902000Y-280763500D01*
X527901000Y-280765232D01*
X527900000Y-280765500D01*
X527700000Y-280765500D01*
X527698268Y-280764500D01*
X527698000Y-280763500D01*
X527698000Y-279288500D01*
X527699000Y-279286768D01*
X527700000Y-279286500D01*
X527900000Y-279286500D01*
X527901732Y-279287500D01*
G37*
G36*
X528701732Y-279287500D02*
G01*
X528702000Y-279288500D01*
X528702000Y-280763500D01*
X528701000Y-280765232D01*
X528700000Y-280765500D01*
X528500000Y-280765500D01*
X528498268Y-280764500D01*
X528498000Y-280763500D01*
X528498000Y-279288500D01*
X528499000Y-279286768D01*
X528500000Y-279286500D01*
X528700000Y-279286500D01*
X528701732Y-279287500D01*
G37*
G36*
X529501732Y-279287500D02*
G01*
X529502000Y-279288500D01*
X529502000Y-280763500D01*
X529501000Y-280765232D01*
X529500000Y-280765500D01*
X529300000Y-280765500D01*
X529298268Y-280764500D01*
X529298000Y-280763500D01*
X529298000Y-279288500D01*
X529299000Y-279286768D01*
X529300000Y-279286500D01*
X529500000Y-279286500D01*
X529501732Y-279287500D01*
G37*
G36*
X539101732Y-279287500D02*
G01*
X539102000Y-279288500D01*
X539102000Y-280763500D01*
X539101000Y-280765232D01*
X539100000Y-280765500D01*
X538900000Y-280765500D01*
X538898268Y-280764500D01*
X538898000Y-280763500D01*
X538898000Y-279288500D01*
X538899000Y-279286768D01*
X538900000Y-279286500D01*
X539100000Y-279286500D01*
X539101732Y-279287500D01*
G37*
G36*
X537501732Y-279287500D02*
G01*
X537502000Y-279288500D01*
X537502000Y-280763500D01*
X537501000Y-280765232D01*
X537500000Y-280765500D01*
X537300000Y-280765500D01*
X537298268Y-280764500D01*
X537298000Y-280763500D01*
X537298000Y-279288500D01*
X537299000Y-279286768D01*
X537300000Y-279286500D01*
X537500000Y-279286500D01*
X537501732Y-279287500D01*
G37*
G36*
X531101732Y-279287500D02*
G01*
X531102000Y-279288500D01*
X531102000Y-280763500D01*
X531101000Y-280765232D01*
X531100000Y-280765500D01*
X530900000Y-280765500D01*
X530898268Y-280764500D01*
X530898000Y-280763500D01*
X530898000Y-279288500D01*
X530899000Y-279286768D01*
X530900000Y-279286500D01*
X531100000Y-279286500D01*
X531101732Y-279287500D01*
G37*
G36*
X530301732Y-279287500D02*
G01*
X530302000Y-279288500D01*
X530302000Y-280763500D01*
X530301000Y-280765232D01*
X530300000Y-280765500D01*
X530100000Y-280765500D01*
X530098268Y-280764500D01*
X530098000Y-280763500D01*
X530098000Y-279288500D01*
X530099000Y-279286768D01*
X530100000Y-279286500D01*
X530300000Y-279286500D01*
X530301732Y-279287500D01*
G37*
G36*
X536701732Y-279287500D02*
G01*
X536702000Y-279288500D01*
X536702000Y-280763500D01*
X536701000Y-280765232D01*
X536700000Y-280765500D01*
X536500000Y-280765500D01*
X536498268Y-280764500D01*
X536498000Y-280763500D01*
X536498000Y-279288500D01*
X536499000Y-279286768D01*
X536500000Y-279286500D01*
X536700000Y-279286500D01*
X536701732Y-279287500D01*
G37*
G36*
X535901732Y-279287500D02*
G01*
X535902000Y-279288500D01*
X535902000Y-280763500D01*
X535901000Y-280765232D01*
X535900000Y-280765500D01*
X535700000Y-280765500D01*
X535698268Y-280764500D01*
X535698000Y-280763500D01*
X535698000Y-279288500D01*
X535699000Y-279286768D01*
X535700000Y-279286500D01*
X535900000Y-279286500D01*
X535901732Y-279287500D01*
G37*
G36*
X535101732Y-279287500D02*
G01*
X535102000Y-279288500D01*
X535102000Y-280763500D01*
X535101000Y-280765232D01*
X535100000Y-280765500D01*
X534900000Y-280765500D01*
X534898268Y-280764500D01*
X534898000Y-280763500D01*
X534898000Y-279288500D01*
X534899000Y-279286768D01*
X534900000Y-279286500D01*
X535100000Y-279286500D01*
X535101732Y-279287500D01*
G37*
G36*
X534301732Y-279287500D02*
G01*
X534302000Y-279288500D01*
X534302000Y-280763500D01*
X534301000Y-280765232D01*
X534300000Y-280765500D01*
X534100000Y-280765500D01*
X534098268Y-280764500D01*
X534098000Y-280763500D01*
X534098000Y-279288500D01*
X534099000Y-279286768D01*
X534100000Y-279286500D01*
X534300000Y-279286500D01*
X534301732Y-279287500D01*
G37*
G36*
X538301732Y-279287500D02*
G01*
X538302000Y-279288500D01*
X538302000Y-280763500D01*
X538301000Y-280765232D01*
X538300000Y-280765500D01*
X538100000Y-280765500D01*
X538098268Y-280764500D01*
X538098000Y-280763500D01*
X538098000Y-279288500D01*
X538099000Y-279286768D01*
X538100000Y-279286500D01*
X538300000Y-279286500D01*
X538301732Y-279287500D01*
G37*
G36*
X533501732Y-279287500D02*
G01*
X533502000Y-279288500D01*
X533502000Y-280763500D01*
X533501000Y-280765232D01*
X533500000Y-280765500D01*
X533300000Y-280765500D01*
X533298268Y-280764500D01*
X533298000Y-280763500D01*
X533298000Y-279288500D01*
X533299000Y-279286768D01*
X533300000Y-279286500D01*
X533500000Y-279286500D01*
X533501732Y-279287500D01*
G37*
G36*
X526401232Y-277787000D02*
G01*
X526401500Y-277788000D01*
X526401500Y-277988000D01*
X526400500Y-277989732D01*
X526399500Y-277990000D01*
X524924500Y-277990000D01*
X524922768Y-277989000D01*
X524922500Y-277988000D01*
X524922500Y-277788000D01*
X524923500Y-277786268D01*
X524924500Y-277786000D01*
X526399500Y-277786000D01*
X526401232Y-277787000D01*
G37*
G36*
X541877232Y-277787000D02*
G01*
X541877500Y-277788000D01*
X541877500Y-277988000D01*
X541876500Y-277989732D01*
X541875500Y-277990000D01*
X540400500Y-277990000D01*
X540398768Y-277989000D01*
X540398500Y-277988000D01*
X540398500Y-277788000D01*
X540399500Y-277786268D01*
X540400500Y-277786000D01*
X541875500Y-277786000D01*
X541877232Y-277787000D01*
G37*
G36*
X541877232Y-276987000D02*
G01*
X541877500Y-276988000D01*
X541877500Y-277188000D01*
X541876500Y-277189732D01*
X541875500Y-277190000D01*
X540400500Y-277190000D01*
X540398768Y-277189000D01*
X540398500Y-277188000D01*
X540398500Y-276988000D01*
X540399500Y-276986268D01*
X540400500Y-276986000D01*
X541875500Y-276986000D01*
X541877232Y-276987000D01*
G37*
G36*
X526401232Y-276987000D02*
G01*
X526401500Y-276988000D01*
X526401500Y-277188000D01*
X526400500Y-277189732D01*
X526399500Y-277190000D01*
X524924500Y-277190000D01*
X524922768Y-277189000D01*
X524922500Y-277188000D01*
X524922500Y-276988000D01*
X524923500Y-276986268D01*
X524924500Y-276986000D01*
X526399500Y-276986000D01*
X526401232Y-276987000D01*
G37*
G36*
X541877232Y-276187000D02*
G01*
X541877500Y-276188000D01*
X541877500Y-276388000D01*
X541876500Y-276389732D01*
X541875500Y-276390000D01*
X540400500Y-276390000D01*
X540398768Y-276389000D01*
X540398500Y-276388000D01*
X540398500Y-276188000D01*
X540399500Y-276186268D01*
X540400500Y-276186000D01*
X541875500Y-276186000D01*
X541877232Y-276187000D01*
G37*
G36*
X526401232Y-276187000D02*
G01*
X526401500Y-276188000D01*
X526401500Y-276388000D01*
X526400500Y-276389732D01*
X526399500Y-276390000D01*
X524924500Y-276390000D01*
X524922768Y-276389000D01*
X524922500Y-276388000D01*
X524922500Y-276188000D01*
X524923500Y-276186268D01*
X524924500Y-276186000D01*
X526399500Y-276186000D01*
X526401232Y-276187000D01*
G37*
G36*
X526401232Y-275387000D02*
G01*
X526401500Y-275388000D01*
X526401500Y-275588000D01*
X526400500Y-275589732D01*
X526399500Y-275590000D01*
X524924500Y-275590000D01*
X524922768Y-275589000D01*
X524922500Y-275588000D01*
X524922500Y-275388000D01*
X524923500Y-275386268D01*
X524924500Y-275386000D01*
X526399500Y-275386000D01*
X526401232Y-275387000D01*
G37*
G36*
X541877232Y-275387000D02*
G01*
X541877500Y-275388000D01*
X541877500Y-275588000D01*
X541876500Y-275589732D01*
X541875500Y-275590000D01*
X540400500Y-275590000D01*
X540398768Y-275589000D01*
X540398500Y-275588000D01*
X540398500Y-275388000D01*
X540399500Y-275386268D01*
X540400500Y-275386000D01*
X541875500Y-275386000D01*
X541877232Y-275387000D01*
G37*
G36*
X526401232Y-274587000D02*
G01*
X526401500Y-274588000D01*
X526401500Y-274788000D01*
X526400500Y-274789732D01*
X526399500Y-274790000D01*
X524924500Y-274790000D01*
X524922768Y-274789000D01*
X524922500Y-274788000D01*
X524922500Y-274588000D01*
X524923500Y-274586268D01*
X524924500Y-274586000D01*
X526399500Y-274586000D01*
X526401232Y-274587000D01*
G37*
G36*
X541877232Y-274587000D02*
G01*
X541877500Y-274588000D01*
X541877500Y-274788000D01*
X541876500Y-274789732D01*
X541875500Y-274790000D01*
X540400500Y-274790000D01*
X540398768Y-274789000D01*
X540398500Y-274788000D01*
X540398500Y-274588000D01*
X540399500Y-274586268D01*
X540400500Y-274586000D01*
X541875500Y-274586000D01*
X541877232Y-274587000D01*
G37*
G36*
X526401232Y-273787000D02*
G01*
X526401500Y-273788000D01*
X526401500Y-273988000D01*
X526400500Y-273989732D01*
X526399500Y-273990000D01*
X524924500Y-273990000D01*
X524922768Y-273989000D01*
X524922500Y-273988000D01*
X524922500Y-273788000D01*
X524923500Y-273786268D01*
X524924500Y-273786000D01*
X526399500Y-273786000D01*
X526401232Y-273787000D01*
G37*
G36*
X541877232Y-273787000D02*
G01*
X541877500Y-273788000D01*
X541877500Y-273988000D01*
X541876500Y-273989732D01*
X541875500Y-273990000D01*
X540400500Y-273990000D01*
X540398768Y-273989000D01*
X540398500Y-273988000D01*
X540398500Y-273788000D01*
X540399500Y-273786268D01*
X540400500Y-273786000D01*
X541875500Y-273786000D01*
X541877232Y-273787000D01*
G37*
G36*
X526401232Y-272987000D02*
G01*
X526401500Y-272988000D01*
X526401500Y-273188000D01*
X526400500Y-273189732D01*
X526399500Y-273190000D01*
X524924500Y-273190000D01*
X524922768Y-273189000D01*
X524922500Y-273188000D01*
X524922500Y-272988000D01*
X524923500Y-272986268D01*
X524924500Y-272986000D01*
X526399500Y-272986000D01*
X526401232Y-272987000D01*
G37*
G36*
X541877232Y-272987000D02*
G01*
X541877500Y-272988000D01*
X541877500Y-273188000D01*
X541876500Y-273189732D01*
X541875500Y-273190000D01*
X540400500Y-273190000D01*
X540398768Y-273189000D01*
X540398500Y-273188000D01*
X540398500Y-272988000D01*
X540399500Y-272986268D01*
X540400500Y-272986000D01*
X541875500Y-272986000D01*
X541877232Y-272987000D01*
G37*
G36*
X526401232Y-272187000D02*
G01*
X526401500Y-272188000D01*
X526401500Y-272388000D01*
X526400500Y-272389732D01*
X526399500Y-272390000D01*
X524924500Y-272390000D01*
X524922768Y-272389000D01*
X524922500Y-272388000D01*
X524922500Y-272188000D01*
X524923500Y-272186268D01*
X524924500Y-272186000D01*
X526399500Y-272186000D01*
X526401232Y-272187000D01*
G37*
G36*
X541877232Y-272187000D02*
G01*
X541877500Y-272188000D01*
X541877500Y-272388000D01*
X541876500Y-272389732D01*
X541875500Y-272390000D01*
X540400500Y-272390000D01*
X540398768Y-272389000D01*
X540398500Y-272388000D01*
X540398500Y-272188000D01*
X540399500Y-272186268D01*
X540400500Y-272186000D01*
X541875500Y-272186000D01*
X541877232Y-272187000D01*
G37*
G36*
X526401232Y-271387000D02*
G01*
X526401500Y-271388000D01*
X526401500Y-271588000D01*
X526400500Y-271589732D01*
X526399500Y-271590000D01*
X524924500Y-271590000D01*
X524922768Y-271589000D01*
X524922500Y-271588000D01*
X524922500Y-271388000D01*
X524923500Y-271386268D01*
X524924500Y-271386000D01*
X526399500Y-271386000D01*
X526401232Y-271387000D01*
G37*
G36*
X541877232Y-271387000D02*
G01*
X541877500Y-271388000D01*
X541877500Y-271588000D01*
X541876500Y-271589732D01*
X541875500Y-271590000D01*
X540400500Y-271590000D01*
X540398768Y-271589000D01*
X540398500Y-271588000D01*
X540398500Y-271388000D01*
X540399500Y-271386268D01*
X540400500Y-271386000D01*
X541875500Y-271386000D01*
X541877232Y-271387000D01*
G37*
G36*
X541877232Y-270587000D02*
G01*
X541877500Y-270588000D01*
X541877500Y-270788000D01*
X541876500Y-270789732D01*
X541875500Y-270790000D01*
X540400500Y-270790000D01*
X540398768Y-270789000D01*
X540398500Y-270788000D01*
X540398500Y-270588000D01*
X540399500Y-270586268D01*
X540400500Y-270586000D01*
X541875500Y-270586000D01*
X541877232Y-270587000D01*
G37*
G36*
X526401232Y-270587000D02*
G01*
X526401500Y-270588000D01*
X526401500Y-270788000D01*
X526400500Y-270789732D01*
X526399500Y-270790000D01*
X524924500Y-270790000D01*
X524922768Y-270789000D01*
X524922500Y-270788000D01*
X524922500Y-270588000D01*
X524923500Y-270586268D01*
X524924500Y-270586000D01*
X526399500Y-270586000D01*
X526401232Y-270587000D01*
G37*
G36*
X541877232Y-269787000D02*
G01*
X541877500Y-269788000D01*
X541877500Y-269988000D01*
X541876500Y-269989732D01*
X541875500Y-269990000D01*
X540400500Y-269990000D01*
X540398768Y-269989000D01*
X540398500Y-269988000D01*
X540398500Y-269788000D01*
X540399500Y-269786268D01*
X540400500Y-269786000D01*
X541875500Y-269786000D01*
X541877232Y-269787000D01*
G37*
G36*
X526401232Y-269787000D02*
G01*
X526401500Y-269788000D01*
X526401500Y-269988000D01*
X526400500Y-269989732D01*
X526399500Y-269990000D01*
X524924500Y-269990000D01*
X524922768Y-269989000D01*
X524922500Y-269988000D01*
X524922500Y-269788000D01*
X524923500Y-269786268D01*
X524924500Y-269786000D01*
X526399500Y-269786000D01*
X526401232Y-269787000D01*
G37*
G36*
X526401232Y-268987000D02*
G01*
X526401500Y-268988000D01*
X526401500Y-269188000D01*
X526400500Y-269189732D01*
X526399500Y-269190000D01*
X524924500Y-269190000D01*
X524922768Y-269189000D01*
X524922500Y-269188000D01*
X524922500Y-268988000D01*
X524923500Y-268986268D01*
X524924500Y-268986000D01*
X526399500Y-268986000D01*
X526401232Y-268987000D01*
G37*
G36*
X541877232Y-268987000D02*
G01*
X541877500Y-268988000D01*
X541877500Y-269188000D01*
X541876500Y-269189732D01*
X541875500Y-269190000D01*
X540400500Y-269190000D01*
X540398768Y-269189000D01*
X540398500Y-269188000D01*
X540398500Y-268988000D01*
X540399500Y-268986268D01*
X540400500Y-268986000D01*
X541875500Y-268986000D01*
X541877232Y-268987000D01*
G37*
G36*
X526401232Y-268187000D02*
G01*
X526401500Y-268188000D01*
X526401500Y-268388000D01*
X526400500Y-268389732D01*
X526399500Y-268390000D01*
X524924500Y-268390000D01*
X524922768Y-268389000D01*
X524922500Y-268388000D01*
X524922500Y-268188000D01*
X524923500Y-268186268D01*
X524924500Y-268186000D01*
X526399500Y-268186000D01*
X526401232Y-268187000D01*
G37*
G36*
X541877232Y-268187000D02*
G01*
X541877500Y-268188000D01*
X541877500Y-268388000D01*
X541876500Y-268389732D01*
X541875500Y-268390000D01*
X540400500Y-268390000D01*
X540398768Y-268389000D01*
X540398500Y-268388000D01*
X540398500Y-268188000D01*
X540399500Y-268186268D01*
X540400500Y-268186000D01*
X541875500Y-268186000D01*
X541877232Y-268187000D01*
G37*
G36*
X541877232Y-267387000D02*
G01*
X541877500Y-267388000D01*
X541877500Y-267588000D01*
X541876500Y-267589732D01*
X541875500Y-267590000D01*
X540400500Y-267590000D01*
X540398768Y-267589000D01*
X540398500Y-267588000D01*
X540398500Y-267388000D01*
X540399500Y-267386268D01*
X540400500Y-267386000D01*
X541875500Y-267386000D01*
X541877232Y-267387000D01*
G37*
G36*
X526401232Y-267387000D02*
G01*
X526401500Y-267388000D01*
X526401500Y-267588000D01*
X526400500Y-267589732D01*
X526399500Y-267590000D01*
X524924500Y-267590000D01*
X524922768Y-267589000D01*
X524922500Y-267588000D01*
X524922500Y-267388000D01*
X524923500Y-267386268D01*
X524924500Y-267386000D01*
X526399500Y-267386000D01*
X526401232Y-267387000D01*
G37*
G36*
X541877232Y-266587000D02*
G01*
X541877500Y-266588000D01*
X541877500Y-266788000D01*
X541876500Y-266789732D01*
X541875500Y-266790000D01*
X540400500Y-266790000D01*
X540398768Y-266789000D01*
X540398500Y-266788000D01*
X540398500Y-266588000D01*
X540399500Y-266586268D01*
X540400500Y-266586000D01*
X541875500Y-266586000D01*
X541877232Y-266587000D01*
G37*
G36*
X526401232Y-266587000D02*
G01*
X526401500Y-266588000D01*
X526401500Y-266788000D01*
X526400500Y-266789732D01*
X526399500Y-266790000D01*
X524924500Y-266790000D01*
X524922768Y-266789000D01*
X524922500Y-266788000D01*
X524922500Y-266588000D01*
X524923500Y-266586268D01*
X524924500Y-266586000D01*
X526399500Y-266586000D01*
X526401232Y-266587000D01*
G37*
G36*
X327899243Y-264266870D02*
G01*
X328040664Y-264408291D01*
X328041182Y-264410223D01*
X328040664Y-264411119D01*
X326997682Y-265454101D01*
X326995750Y-265454619D01*
X326994854Y-265454101D01*
X326853433Y-265312680D01*
X326852915Y-265310748D01*
X326853433Y-265309852D01*
X327896415Y-264266870D01*
X327898347Y-264266352D01*
X327899243Y-264266870D01*
G37*
G36*
X329455585Y-264266870D02*
G01*
X330498567Y-265309852D01*
X330499085Y-265311784D01*
X330498567Y-265312680D01*
X330357146Y-265454101D01*
X330355214Y-265454619D01*
X330354318Y-265454101D01*
X329311336Y-264411119D01*
X329310818Y-264409187D01*
X329311336Y-264408291D01*
X329452757Y-264266870D01*
X329454689Y-264266352D01*
X329455585Y-264266870D01*
G37*
G36*
X530301732Y-263811500D02*
G01*
X530302000Y-263812500D01*
X530302000Y-265287500D01*
X530301000Y-265289232D01*
X530300000Y-265289500D01*
X530100000Y-265289500D01*
X530098268Y-265288500D01*
X530098000Y-265287500D01*
X530098000Y-263812500D01*
X530099000Y-263810768D01*
X530100000Y-263810500D01*
X530300000Y-263810500D01*
X530301732Y-263811500D01*
G37*
G36*
X529501732Y-263811500D02*
G01*
X529502000Y-263812500D01*
X529502000Y-265287500D01*
X529501000Y-265289232D01*
X529500000Y-265289500D01*
X529300000Y-265289500D01*
X529298268Y-265288500D01*
X529298000Y-265287500D01*
X529298000Y-263812500D01*
X529299000Y-263810768D01*
X529300000Y-263810500D01*
X529500000Y-263810500D01*
X529501732Y-263811500D01*
G37*
G36*
X528701732Y-263811500D02*
G01*
X528702000Y-263812500D01*
X528702000Y-265287500D01*
X528701000Y-265289232D01*
X528700000Y-265289500D01*
X528500000Y-265289500D01*
X528498268Y-265288500D01*
X528498000Y-265287500D01*
X528498000Y-263812500D01*
X528499000Y-263810768D01*
X528500000Y-263810500D01*
X528700000Y-263810500D01*
X528701732Y-263811500D01*
G37*
G36*
X527901732Y-263811500D02*
G01*
X527902000Y-263812500D01*
X527902000Y-265287500D01*
X527901000Y-265289232D01*
X527900000Y-265289500D01*
X527700000Y-265289500D01*
X527698268Y-265288500D01*
X527698000Y-265287500D01*
X527698000Y-263812500D01*
X527699000Y-263810768D01*
X527700000Y-263810500D01*
X527900000Y-263810500D01*
X527901732Y-263811500D01*
G37*
G36*
X531901732Y-263811500D02*
G01*
X531902000Y-263812500D01*
X531902000Y-265287500D01*
X531901000Y-265289232D01*
X531900000Y-265289500D01*
X531700000Y-265289500D01*
X531698268Y-265288500D01*
X531698000Y-265287500D01*
X531698000Y-263812500D01*
X531699000Y-263810768D01*
X531700000Y-263810500D01*
X531900000Y-263810500D01*
X531901732Y-263811500D01*
G37*
G36*
X532701732Y-263811500D02*
G01*
X532702000Y-263812500D01*
X532702000Y-265287500D01*
X532701000Y-265289232D01*
X532700000Y-265289500D01*
X532500000Y-265289500D01*
X532498268Y-265288500D01*
X532498000Y-265287500D01*
X532498000Y-263812500D01*
X532499000Y-263810768D01*
X532500000Y-263810500D01*
X532700000Y-263810500D01*
X532701732Y-263811500D01*
G37*
G36*
X539101732Y-263811500D02*
G01*
X539102000Y-263812500D01*
X539102000Y-265287500D01*
X539101000Y-265289232D01*
X539100000Y-265289500D01*
X538900000Y-265289500D01*
X538898268Y-265288500D01*
X538898000Y-265287500D01*
X538898000Y-263812500D01*
X538899000Y-263810768D01*
X538900000Y-263810500D01*
X539100000Y-263810500D01*
X539101732Y-263811500D01*
G37*
G36*
X538301732Y-263811500D02*
G01*
X538302000Y-263812500D01*
X538302000Y-265287500D01*
X538301000Y-265289232D01*
X538300000Y-265289500D01*
X538100000Y-265289500D01*
X538098268Y-265288500D01*
X538098000Y-265287500D01*
X538098000Y-263812500D01*
X538099000Y-263810768D01*
X538100000Y-263810500D01*
X538300000Y-263810500D01*
X538301732Y-263811500D01*
G37*
G36*
X531101732Y-263811500D02*
G01*
X531102000Y-263812500D01*
X531102000Y-265287500D01*
X531101000Y-265289232D01*
X531100000Y-265289500D01*
X530900000Y-265289500D01*
X530898268Y-265288500D01*
X530898000Y-265287500D01*
X530898000Y-263812500D01*
X530899000Y-263810768D01*
X530900000Y-263810500D01*
X531100000Y-263810500D01*
X531101732Y-263811500D01*
G37*
G36*
X537501732Y-263811500D02*
G01*
X537502000Y-263812500D01*
X537502000Y-265287500D01*
X537501000Y-265289232D01*
X537500000Y-265289500D01*
X537300000Y-265289500D01*
X537298268Y-265288500D01*
X537298000Y-265287500D01*
X537298000Y-263812500D01*
X537299000Y-263810768D01*
X537300000Y-263810500D01*
X537500000Y-263810500D01*
X537501732Y-263811500D01*
G37*
G36*
X536701732Y-263811500D02*
G01*
X536702000Y-263812500D01*
X536702000Y-265287500D01*
X536701000Y-265289232D01*
X536700000Y-265289500D01*
X536500000Y-265289500D01*
X536498268Y-265288500D01*
X536498000Y-265287500D01*
X536498000Y-263812500D01*
X536499000Y-263810768D01*
X536500000Y-263810500D01*
X536700000Y-263810500D01*
X536701732Y-263811500D01*
G37*
G36*
X535901732Y-263811500D02*
G01*
X535902000Y-263812500D01*
X535902000Y-265287500D01*
X535901000Y-265289232D01*
X535900000Y-265289500D01*
X535700000Y-265289500D01*
X535698268Y-265288500D01*
X535698000Y-265287500D01*
X535698000Y-263812500D01*
X535699000Y-263810768D01*
X535700000Y-263810500D01*
X535900000Y-263810500D01*
X535901732Y-263811500D01*
G37*
G36*
X535101732Y-263811500D02*
G01*
X535102000Y-263812500D01*
X535102000Y-265287500D01*
X535101000Y-265289232D01*
X535100000Y-265289500D01*
X534900000Y-265289500D01*
X534898268Y-265288500D01*
X534898000Y-265287500D01*
X534898000Y-263812500D01*
X534899000Y-263810768D01*
X534900000Y-263810500D01*
X535100000Y-263810500D01*
X535101732Y-263811500D01*
G37*
G36*
X533501732Y-263811500D02*
G01*
X533502000Y-263812500D01*
X533502000Y-265287500D01*
X533501000Y-265289232D01*
X533500000Y-265289500D01*
X533300000Y-265289500D01*
X533298268Y-265288500D01*
X533298000Y-265287500D01*
X533298000Y-263812500D01*
X533299000Y-263810768D01*
X533300000Y-263810500D01*
X533500000Y-263810500D01*
X533501732Y-263811500D01*
G37*
G36*
X534301732Y-263811500D02*
G01*
X534302000Y-263812500D01*
X534302000Y-265287500D01*
X534301000Y-265289232D01*
X534300000Y-265289500D01*
X534100000Y-265289500D01*
X534098268Y-265288500D01*
X534098000Y-265287500D01*
X534098000Y-263812500D01*
X534099000Y-263810768D01*
X534100000Y-263810500D01*
X534300000Y-263810500D01*
X534301732Y-263811500D01*
G37*
G36*
X415307585Y-264012870D02*
G01*
X416350567Y-265055852D01*
X416351085Y-265057784D01*
X416350567Y-265058680D01*
X416209146Y-265200101D01*
X416207214Y-265200619D01*
X416206318Y-265200101D01*
X415163336Y-264157119D01*
X415162818Y-264155187D01*
X415163336Y-264154291D01*
X415304757Y-264012870D01*
X415306689Y-264012352D01*
X415307585Y-264012870D01*
G37*
G36*
X413751243Y-264012870D02*
G01*
X413892664Y-264154291D01*
X413893182Y-264156223D01*
X413892664Y-264157119D01*
X412849682Y-265200101D01*
X412847750Y-265200619D01*
X412846854Y-265200101D01*
X412705433Y-265058680D01*
X412704915Y-265056748D01*
X412705433Y-265055852D01*
X413748415Y-264012870D01*
X413750347Y-264012352D01*
X413751243Y-264012870D01*
G37*
G36*
X327545689Y-263913316D02*
G01*
X327687111Y-264054738D01*
X327687629Y-264056670D01*
X327687111Y-264057566D01*
X326644129Y-265100548D01*
X326642197Y-265101066D01*
X326641301Y-265100548D01*
X326499879Y-264959126D01*
X326499361Y-264957194D01*
X326499879Y-264956298D01*
X327542861Y-263913316D01*
X327544793Y-263912798D01*
X327545689Y-263913316D01*
G37*
G36*
X329809139Y-263913316D02*
G01*
X330852121Y-264956298D01*
X330852639Y-264958230D01*
X330852121Y-264959126D01*
X330710699Y-265100548D01*
X330708767Y-265101066D01*
X330707871Y-265100548D01*
X329664889Y-264057566D01*
X329664371Y-264055634D01*
X329664889Y-264054738D01*
X329806311Y-263913316D01*
X329808243Y-263912798D01*
X329809139Y-263913316D01*
G37*
G36*
X413397689Y-263659316D02*
G01*
X413539111Y-263800738D01*
X413539629Y-263802670D01*
X413539111Y-263803566D01*
X412496129Y-264846548D01*
X412494197Y-264847066D01*
X412493301Y-264846548D01*
X412351879Y-264705126D01*
X412351361Y-264703194D01*
X412351879Y-264702298D01*
X413394861Y-263659316D01*
X413396793Y-263658798D01*
X413397689Y-263659316D01*
G37*
G36*
X415661139Y-263659316D02*
G01*
X416704121Y-264702298D01*
X416704639Y-264704230D01*
X416704121Y-264705126D01*
X416562699Y-264846548D01*
X416560767Y-264847066D01*
X416559871Y-264846548D01*
X415516889Y-263803566D01*
X415516371Y-263801634D01*
X415516889Y-263800738D01*
X415658311Y-263659316D01*
X415660243Y-263658798D01*
X415661139Y-263659316D01*
G37*
G36*
X327192136Y-263559763D02*
G01*
X327333557Y-263701184D01*
X327334075Y-263703116D01*
X327333557Y-263704012D01*
X326290575Y-264746994D01*
X326288643Y-264747512D01*
X326287747Y-264746994D01*
X326146326Y-264605573D01*
X326145808Y-264603641D01*
X326146326Y-264602745D01*
X327189308Y-263559763D01*
X327191240Y-263559245D01*
X327192136Y-263559763D01*
G37*
G36*
X330162692Y-263559763D02*
G01*
X331205674Y-264602745D01*
X331206192Y-264604677D01*
X331205674Y-264605573D01*
X331064253Y-264746994D01*
X331062321Y-264747512D01*
X331061425Y-264746994D01*
X330018443Y-263704012D01*
X330017925Y-263702080D01*
X330018443Y-263701184D01*
X330159864Y-263559763D01*
X330161796Y-263559245D01*
X330162692Y-263559763D01*
G37*
G36*
X413044136Y-263305763D02*
G01*
X413185557Y-263447184D01*
X413186075Y-263449116D01*
X413185557Y-263450012D01*
X412142575Y-264492994D01*
X412140643Y-264493512D01*
X412139747Y-264492994D01*
X411998326Y-264351573D01*
X411997808Y-264349641D01*
X411998326Y-264348745D01*
X413041308Y-263305763D01*
X413043240Y-263305245D01*
X413044136Y-263305763D01*
G37*
G36*
X416014692Y-263305763D02*
G01*
X417057674Y-264348745D01*
X417058192Y-264350677D01*
X417057674Y-264351573D01*
X416916253Y-264492994D01*
X416914321Y-264493512D01*
X416913425Y-264492994D01*
X415870443Y-263450012D01*
X415869925Y-263448080D01*
X415870443Y-263447184D01*
X416011864Y-263305763D01*
X416013796Y-263305245D01*
X416014692Y-263305763D01*
G37*
G36*
X326838583Y-263206210D02*
G01*
X326980004Y-263347631D01*
X326980522Y-263349563D01*
X326980004Y-263350459D01*
X325937022Y-264393441D01*
X325935090Y-264393959D01*
X325934194Y-264393441D01*
X325792773Y-264252020D01*
X325792255Y-264250088D01*
X325792773Y-264249192D01*
X326835755Y-263206210D01*
X326837687Y-263205692D01*
X326838583Y-263206210D01*
G37*
G36*
X330516245Y-263206210D02*
G01*
X331559227Y-264249192D01*
X331559745Y-264251124D01*
X331559227Y-264252020D01*
X331417806Y-264393441D01*
X331415874Y-264393959D01*
X331414978Y-264393441D01*
X330371996Y-263350459D01*
X330371478Y-263348527D01*
X330371996Y-263347631D01*
X330513417Y-263206210D01*
X330515349Y-263205692D01*
X330516245Y-263206210D01*
G37*
G36*
X412690583Y-262952210D02*
G01*
X412832004Y-263093631D01*
X412832522Y-263095563D01*
X412832004Y-263096459D01*
X411789022Y-264139441D01*
X411787090Y-264139959D01*
X411786194Y-264139441D01*
X411644773Y-263998020D01*
X411644255Y-263996088D01*
X411644773Y-263995192D01*
X412687755Y-262952210D01*
X412689687Y-262951692D01*
X412690583Y-262952210D01*
G37*
G36*
X416368245Y-262952210D02*
G01*
X417411227Y-263995192D01*
X417411745Y-263997124D01*
X417411227Y-263998020D01*
X417269806Y-264139441D01*
X417267874Y-264139959D01*
X417266978Y-264139441D01*
X416223996Y-263096459D01*
X416223478Y-263094527D01*
X416223996Y-263093631D01*
X416365417Y-262952210D01*
X416367349Y-262951692D01*
X416368245Y-262952210D01*
G37*
G36*
X326485029Y-262852656D02*
G01*
X326626451Y-262994078D01*
X326626969Y-262996010D01*
X326626451Y-262996906D01*
X325583469Y-264039888D01*
X325581537Y-264040406D01*
X325580641Y-264039888D01*
X325439219Y-263898466D01*
X325438701Y-263896534D01*
X325439219Y-263895638D01*
X326482201Y-262852656D01*
X326484133Y-262852138D01*
X326485029Y-262852656D01*
G37*
G36*
X330869799Y-262852656D02*
G01*
X331912781Y-263895638D01*
X331913299Y-263897570D01*
X331912781Y-263898466D01*
X331771359Y-264039888D01*
X331769427Y-264040406D01*
X331768531Y-264039888D01*
X330725549Y-262996906D01*
X330725031Y-262994974D01*
X330725549Y-262994078D01*
X330866971Y-262852656D01*
X330868903Y-262852138D01*
X330869799Y-262852656D01*
G37*
G36*
X416721799Y-262598656D02*
G01*
X417764781Y-263641638D01*
X417765299Y-263643570D01*
X417764781Y-263644466D01*
X417623359Y-263785888D01*
X417621427Y-263786406D01*
X417620531Y-263785888D01*
X416577549Y-262742906D01*
X416577031Y-262740974D01*
X416577549Y-262740078D01*
X416718971Y-262598656D01*
X416720903Y-262598138D01*
X416721799Y-262598656D01*
G37*
G36*
X412337029Y-262598656D02*
G01*
X412478451Y-262740078D01*
X412478969Y-262742010D01*
X412478451Y-262742906D01*
X411435469Y-263785888D01*
X411433537Y-263786406D01*
X411432641Y-263785888D01*
X411291219Y-263644466D01*
X411290701Y-263642534D01*
X411291219Y-263641638D01*
X412334201Y-262598656D01*
X412336133Y-262598138D01*
X412337029Y-262598656D01*
G37*
G36*
X331223352Y-262499103D02*
G01*
X332266334Y-263542085D01*
X332266852Y-263544017D01*
X332266334Y-263544913D01*
X332124913Y-263686334D01*
X332122981Y-263686852D01*
X332122085Y-263686334D01*
X331079103Y-262643352D01*
X331078585Y-262641420D01*
X331079103Y-262640524D01*
X331220524Y-262499103D01*
X331222456Y-262498585D01*
X331223352Y-262499103D01*
G37*
G36*
X326131476Y-262499103D02*
G01*
X326272897Y-262640524D01*
X326273415Y-262642456D01*
X326272897Y-262643352D01*
X325229915Y-263686334D01*
X325227983Y-263686852D01*
X325227087Y-263686334D01*
X325085666Y-263544913D01*
X325085148Y-263542981D01*
X325085666Y-263542085D01*
X326128648Y-262499103D01*
X326130580Y-262498585D01*
X326131476Y-262499103D01*
G37*
G36*
X411983476Y-262245103D02*
G01*
X412124897Y-262386524D01*
X412125415Y-262388456D01*
X412124897Y-262389352D01*
X411081915Y-263432334D01*
X411079983Y-263432852D01*
X411079087Y-263432334D01*
X410937666Y-263290913D01*
X410937148Y-263288981D01*
X410937666Y-263288085D01*
X411980648Y-262245103D01*
X411982580Y-262244585D01*
X411983476Y-262245103D01*
G37*
G36*
X417075352Y-262245103D02*
G01*
X418118334Y-263288085D01*
X418118852Y-263290017D01*
X418118334Y-263290913D01*
X417976913Y-263432334D01*
X417974981Y-263432852D01*
X417974085Y-263432334D01*
X416931103Y-262389352D01*
X416930585Y-262387420D01*
X416931103Y-262386524D01*
X417072524Y-262245103D01*
X417074456Y-262244585D01*
X417075352Y-262245103D01*
G37*
G36*
X325777922Y-262145549D02*
G01*
X325919344Y-262286971D01*
X325919862Y-262288903D01*
X325919344Y-262289799D01*
X324876362Y-263332781D01*
X324874430Y-263333299D01*
X324873534Y-263332781D01*
X324732112Y-263191359D01*
X324731594Y-263189427D01*
X324732112Y-263188531D01*
X325775094Y-262145549D01*
X325777026Y-262145031D01*
X325777922Y-262145549D01*
G37*
G36*
X331576906Y-262145549D02*
G01*
X332619888Y-263188531D01*
X332620406Y-263190463D01*
X332619888Y-263191359D01*
X332478466Y-263332781D01*
X332476534Y-263333299D01*
X332475638Y-263332781D01*
X331432656Y-262289799D01*
X331432138Y-262287867D01*
X331432656Y-262286971D01*
X331574078Y-262145549D01*
X331576010Y-262145031D01*
X331576906Y-262145549D01*
G37*
G36*
X417428906Y-261891549D02*
G01*
X418471888Y-262934531D01*
X418472406Y-262936463D01*
X418471888Y-262937359D01*
X418330466Y-263078781D01*
X418328534Y-263079299D01*
X418327638Y-263078781D01*
X417284656Y-262035799D01*
X417284138Y-262033867D01*
X417284656Y-262032971D01*
X417426078Y-261891549D01*
X417428010Y-261891031D01*
X417428906Y-261891549D01*
G37*
G36*
X411629922Y-261891549D02*
G01*
X411771344Y-262032971D01*
X411771862Y-262034903D01*
X411771344Y-262035799D01*
X410728362Y-263078781D01*
X410726430Y-263079299D01*
X410725534Y-263078781D01*
X410584112Y-262937359D01*
X410583594Y-262935427D01*
X410584112Y-262934531D01*
X411627094Y-261891549D01*
X411629026Y-261891031D01*
X411629922Y-261891549D01*
G37*
G36*
X331930459Y-261791996D02*
G01*
X332973441Y-262834978D01*
X332973959Y-262836910D01*
X332973441Y-262837806D01*
X332832020Y-262979227D01*
X332830088Y-262979745D01*
X332829192Y-262979227D01*
X331786210Y-261936245D01*
X331785692Y-261934313D01*
X331786210Y-261933417D01*
X331927631Y-261791996D01*
X331929563Y-261791478D01*
X331930459Y-261791996D01*
G37*
G36*
X325424369Y-261791996D02*
G01*
X325565790Y-261933417D01*
X325566308Y-261935349D01*
X325565790Y-261936245D01*
X324522808Y-262979227D01*
X324520876Y-262979745D01*
X324519980Y-262979227D01*
X324378559Y-262837806D01*
X324378041Y-262835874D01*
X324378559Y-262834978D01*
X325421541Y-261791996D01*
X325423473Y-261791478D01*
X325424369Y-261791996D01*
G37*
G36*
X411276369Y-261537996D02*
G01*
X411417790Y-261679417D01*
X411418308Y-261681349D01*
X411417790Y-261682245D01*
X410374808Y-262725227D01*
X410372876Y-262725745D01*
X410371980Y-262725227D01*
X410230559Y-262583806D01*
X410230041Y-262581874D01*
X410230559Y-262580978D01*
X411273541Y-261537996D01*
X411275473Y-261537478D01*
X411276369Y-261537996D01*
G37*
G36*
X417782459Y-261537996D02*
G01*
X418825441Y-262580978D01*
X418825959Y-262582910D01*
X418825441Y-262583806D01*
X418684020Y-262725227D01*
X418682088Y-262725745D01*
X418681192Y-262725227D01*
X417638210Y-261682245D01*
X417637692Y-261680313D01*
X417638210Y-261679417D01*
X417779631Y-261537996D01*
X417781563Y-261537478D01*
X417782459Y-261537996D01*
G37*
G36*
X332284012Y-261438443D02*
G01*
X333326994Y-262481425D01*
X333327512Y-262483357D01*
X333326994Y-262484253D01*
X333185573Y-262625674D01*
X333183641Y-262626192D01*
X333182745Y-262625674D01*
X332139763Y-261582692D01*
X332139245Y-261580760D01*
X332139763Y-261579864D01*
X332281184Y-261438443D01*
X332283116Y-261437925D01*
X332284012Y-261438443D01*
G37*
G36*
X325070816Y-261438443D02*
G01*
X325212237Y-261579864D01*
X325212755Y-261581796D01*
X325212237Y-261582692D01*
X324169255Y-262625674D01*
X324167323Y-262626192D01*
X324166427Y-262625674D01*
X324025006Y-262484253D01*
X324024488Y-262482321D01*
X324025006Y-262481425D01*
X325067988Y-261438443D01*
X325069920Y-261437925D01*
X325070816Y-261438443D01*
G37*
G36*
X410922816Y-261184443D02*
G01*
X411064237Y-261325864D01*
X411064755Y-261327796D01*
X411064237Y-261328692D01*
X410021255Y-262371674D01*
X410019323Y-262372192D01*
X410018427Y-262371674D01*
X409877006Y-262230253D01*
X409876488Y-262228321D01*
X409877006Y-262227425D01*
X410919988Y-261184443D01*
X410921920Y-261183925D01*
X410922816Y-261184443D01*
G37*
G36*
X418136012Y-261184443D02*
G01*
X419178994Y-262227425D01*
X419179512Y-262229357D01*
X419178994Y-262230253D01*
X419037573Y-262371674D01*
X419035641Y-262372192D01*
X419034745Y-262371674D01*
X417991763Y-261328692D01*
X417991245Y-261326760D01*
X417991763Y-261325864D01*
X418133184Y-261184443D01*
X418135116Y-261183925D01*
X418136012Y-261184443D01*
G37*
G36*
X324717262Y-261084889D02*
G01*
X324858684Y-261226311D01*
X324859202Y-261228243D01*
X324858684Y-261229139D01*
X323815702Y-262272121D01*
X323813770Y-262272639D01*
X323812874Y-262272121D01*
X323671452Y-262130699D01*
X323670934Y-262128767D01*
X323671452Y-262127871D01*
X324714434Y-261084889D01*
X324716366Y-261084371D01*
X324717262Y-261084889D01*
G37*
G36*
X332637566Y-261084889D02*
G01*
X333680548Y-262127871D01*
X333681066Y-262129803D01*
X333680548Y-262130699D01*
X333539126Y-262272121D01*
X333537194Y-262272639D01*
X333536298Y-262272121D01*
X332493316Y-261229139D01*
X332492798Y-261227207D01*
X332493316Y-261226311D01*
X332634738Y-261084889D01*
X332636670Y-261084371D01*
X332637566Y-261084889D01*
G37*
G36*
X410569262Y-260830889D02*
G01*
X410710684Y-260972311D01*
X410711202Y-260974243D01*
X410710684Y-260975139D01*
X409667702Y-262018121D01*
X409665770Y-262018639D01*
X409664874Y-262018121D01*
X409523452Y-261876699D01*
X409522934Y-261874767D01*
X409523452Y-261873871D01*
X410566434Y-260830889D01*
X410568366Y-260830371D01*
X410569262Y-260830889D01*
G37*
G36*
X418489566Y-260830889D02*
G01*
X419532548Y-261873871D01*
X419533066Y-261875803D01*
X419532548Y-261876699D01*
X419391126Y-262018121D01*
X419389194Y-262018639D01*
X419388298Y-262018121D01*
X418345316Y-260975139D01*
X418344798Y-260973207D01*
X418345316Y-260972311D01*
X418486738Y-260830889D01*
X418488670Y-260830371D01*
X418489566Y-260830889D01*
G37*
G36*
X324363709Y-260731336D02*
G01*
X324505130Y-260872757D01*
X324505648Y-260874689D01*
X324505130Y-260875585D01*
X323462148Y-261918567D01*
X323460216Y-261919085D01*
X323459320Y-261918567D01*
X323317899Y-261777146D01*
X323317381Y-261775214D01*
X323317899Y-261774318D01*
X324360881Y-260731336D01*
X324362813Y-260730818D01*
X324363709Y-260731336D01*
G37*
G36*
X332991119Y-260731336D02*
G01*
X334034101Y-261774318D01*
X334034619Y-261776250D01*
X334034101Y-261777146D01*
X333892680Y-261918567D01*
X333890748Y-261919085D01*
X333889852Y-261918567D01*
X332846870Y-260875585D01*
X332846352Y-260873653D01*
X332846870Y-260872757D01*
X332988291Y-260731336D01*
X332990223Y-260730818D01*
X332991119Y-260731336D01*
G37*
G36*
X410215709Y-260477336D02*
G01*
X410357130Y-260618757D01*
X410357648Y-260620689D01*
X410357130Y-260621585D01*
X409314148Y-261664567D01*
X409312216Y-261665085D01*
X409311320Y-261664567D01*
X409169899Y-261523146D01*
X409169381Y-261521214D01*
X409169899Y-261520318D01*
X410212881Y-260477336D01*
X410214813Y-260476818D01*
X410215709Y-260477336D01*
G37*
G36*
X418843119Y-260477336D02*
G01*
X419886101Y-261520318D01*
X419886619Y-261522250D01*
X419886101Y-261523146D01*
X419744680Y-261664567D01*
X419742748Y-261665085D01*
X419741852Y-261664567D01*
X418698870Y-260621585D01*
X418698352Y-260619653D01*
X418698870Y-260618757D01*
X418840291Y-260477336D01*
X418842223Y-260476818D01*
X418843119Y-260477336D01*
G37*
G36*
X333892680Y-258273433D02*
G01*
X334034101Y-258414854D01*
X334034619Y-258416786D01*
X334034101Y-258417682D01*
X332991119Y-259460664D01*
X332989187Y-259461182D01*
X332988291Y-259460664D01*
X332846870Y-259319243D01*
X332846352Y-259317311D01*
X332846870Y-259316415D01*
X333889852Y-258273433D01*
X333891784Y-258272915D01*
X333892680Y-258273433D01*
G37*
G36*
X323462148Y-258273433D02*
G01*
X324505130Y-259316415D01*
X324505648Y-259318347D01*
X324505130Y-259319243D01*
X324363709Y-259460664D01*
X324361777Y-259461182D01*
X324360881Y-259460664D01*
X323317899Y-258417682D01*
X323317381Y-258415750D01*
X323317899Y-258414854D01*
X323459320Y-258273433D01*
X323461252Y-258272915D01*
X323462148Y-258273433D01*
G37*
G36*
X419744680Y-258019433D02*
G01*
X419886101Y-258160854D01*
X419886619Y-258162786D01*
X419886101Y-258163682D01*
X418843119Y-259206664D01*
X418841187Y-259207182D01*
X418840291Y-259206664D01*
X418698870Y-259065243D01*
X418698352Y-259063311D01*
X418698870Y-259062415D01*
X419741852Y-258019433D01*
X419743784Y-258018915D01*
X419744680Y-258019433D01*
G37*
G36*
X409314148Y-258019433D02*
G01*
X410357130Y-259062415D01*
X410357648Y-259064347D01*
X410357130Y-259065243D01*
X410215709Y-259206664D01*
X410213777Y-259207182D01*
X410212881Y-259206664D01*
X409169899Y-258163682D01*
X409169381Y-258161750D01*
X409169899Y-258160854D01*
X409311320Y-258019433D01*
X409313252Y-258018915D01*
X409314148Y-258019433D01*
G37*
G36*
X333539126Y-257919879D02*
G01*
X333680548Y-258061301D01*
X333681066Y-258063233D01*
X333680548Y-258064129D01*
X332637566Y-259107111D01*
X332635634Y-259107629D01*
X332634738Y-259107111D01*
X332493316Y-258965689D01*
X332492798Y-258963757D01*
X332493316Y-258962861D01*
X333536298Y-257919879D01*
X333538230Y-257919361D01*
X333539126Y-257919879D01*
G37*
G36*
X323815702Y-257919879D02*
G01*
X324858684Y-258962861D01*
X324859202Y-258964793D01*
X324858684Y-258965689D01*
X324717262Y-259107111D01*
X324715330Y-259107629D01*
X324714434Y-259107111D01*
X323671452Y-258064129D01*
X323670934Y-258062197D01*
X323671452Y-258061301D01*
X323812874Y-257919879D01*
X323814806Y-257919361D01*
X323815702Y-257919879D01*
G37*
G36*
X409667702Y-257665879D02*
G01*
X410710684Y-258708861D01*
X410711202Y-258710793D01*
X410710684Y-258711689D01*
X410569262Y-258853111D01*
X410567330Y-258853629D01*
X410566434Y-258853111D01*
X409523452Y-257810129D01*
X409522934Y-257808197D01*
X409523452Y-257807301D01*
X409664874Y-257665879D01*
X409666806Y-257665361D01*
X409667702Y-257665879D01*
G37*
G36*
X419391126Y-257665879D02*
G01*
X419532548Y-257807301D01*
X419533066Y-257809233D01*
X419532548Y-257810129D01*
X418489566Y-258853111D01*
X418487634Y-258853629D01*
X418486738Y-258853111D01*
X418345316Y-258711689D01*
X418344798Y-258709757D01*
X418345316Y-258708861D01*
X419388298Y-257665879D01*
X419390230Y-257665361D01*
X419391126Y-257665879D01*
G37*
G36*
X333185573Y-257566326D02*
G01*
X333326994Y-257707747D01*
X333327512Y-257709679D01*
X333326994Y-257710575D01*
X332284012Y-258753557D01*
X332282080Y-258754075D01*
X332281184Y-258753557D01*
X332139763Y-258612136D01*
X332139245Y-258610204D01*
X332139763Y-258609308D01*
X333182745Y-257566326D01*
X333184677Y-257565808D01*
X333185573Y-257566326D01*
G37*
G36*
X324169255Y-257566326D02*
G01*
X325212237Y-258609308D01*
X325212755Y-258611240D01*
X325212237Y-258612136D01*
X325070816Y-258753557D01*
X325068884Y-258754075D01*
X325067988Y-258753557D01*
X324025006Y-257710575D01*
X324024488Y-257708643D01*
X324025006Y-257707747D01*
X324166427Y-257566326D01*
X324168359Y-257565808D01*
X324169255Y-257566326D01*
G37*
G36*
X410021255Y-257312326D02*
G01*
X411064237Y-258355308D01*
X411064755Y-258357240D01*
X411064237Y-258358136D01*
X410922816Y-258499557D01*
X410920884Y-258500075D01*
X410919988Y-258499557D01*
X409877006Y-257456575D01*
X409876488Y-257454643D01*
X409877006Y-257453747D01*
X410018427Y-257312326D01*
X410020359Y-257311808D01*
X410021255Y-257312326D01*
G37*
G36*
X419037573Y-257312326D02*
G01*
X419178994Y-257453747D01*
X419179512Y-257455679D01*
X419178994Y-257456575D01*
X418136012Y-258499557D01*
X418134080Y-258500075D01*
X418133184Y-258499557D01*
X417991763Y-258358136D01*
X417991245Y-258356204D01*
X417991763Y-258355308D01*
X419034745Y-257312326D01*
X419036677Y-257311808D01*
X419037573Y-257312326D01*
G37*
G36*
X332832020Y-257212773D02*
G01*
X332973441Y-257354194D01*
X332973959Y-257356126D01*
X332973441Y-257357022D01*
X331930459Y-258400004D01*
X331928527Y-258400522D01*
X331927631Y-258400004D01*
X331786210Y-258258583D01*
X331785692Y-258256651D01*
X331786210Y-258255755D01*
X332829192Y-257212773D01*
X332831124Y-257212255D01*
X332832020Y-257212773D01*
G37*
G36*
X324522808Y-257212773D02*
G01*
X325565790Y-258255755D01*
X325566308Y-258257687D01*
X325565790Y-258258583D01*
X325424369Y-258400004D01*
X325422437Y-258400522D01*
X325421541Y-258400004D01*
X324378559Y-257357022D01*
X324378041Y-257355090D01*
X324378559Y-257354194D01*
X324519980Y-257212773D01*
X324521912Y-257212255D01*
X324522808Y-257212773D01*
G37*
G36*
X410374808Y-256958773D02*
G01*
X411417790Y-258001755D01*
X411418308Y-258003687D01*
X411417790Y-258004583D01*
X411276369Y-258146004D01*
X411274437Y-258146522D01*
X411273541Y-258146004D01*
X410230559Y-257103022D01*
X410230041Y-257101090D01*
X410230559Y-257100194D01*
X410371980Y-256958773D01*
X410373912Y-256958255D01*
X410374808Y-256958773D01*
G37*
G36*
X418684020Y-256958773D02*
G01*
X418825441Y-257100194D01*
X418825959Y-257102126D01*
X418825441Y-257103022D01*
X417782459Y-258146004D01*
X417780527Y-258146522D01*
X417779631Y-258146004D01*
X417638210Y-258004583D01*
X417637692Y-258002651D01*
X417638210Y-258001755D01*
X418681192Y-256958773D01*
X418683124Y-256958255D01*
X418684020Y-256958773D01*
G37*
G36*
X332478466Y-256859219D02*
G01*
X332619888Y-257000641D01*
X332620406Y-257002573D01*
X332619888Y-257003469D01*
X331576906Y-258046451D01*
X331574974Y-258046969D01*
X331574078Y-258046451D01*
X331432656Y-257905029D01*
X331432138Y-257903097D01*
X331432656Y-257902201D01*
X332475638Y-256859219D01*
X332477570Y-256858701D01*
X332478466Y-256859219D01*
G37*
G36*
X324876362Y-256859219D02*
G01*
X325919344Y-257902201D01*
X325919862Y-257904133D01*
X325919344Y-257905029D01*
X325777922Y-258046451D01*
X325775990Y-258046969D01*
X325775094Y-258046451D01*
X324732112Y-257003469D01*
X324731594Y-257001537D01*
X324732112Y-257000641D01*
X324873534Y-256859219D01*
X324875466Y-256858701D01*
X324876362Y-256859219D01*
G37*
G36*
X410728362Y-256605219D02*
G01*
X411771344Y-257648201D01*
X411771862Y-257650133D01*
X411771344Y-257651029D01*
X411629922Y-257792451D01*
X411627990Y-257792969D01*
X411627094Y-257792451D01*
X410584112Y-256749469D01*
X410583594Y-256747537D01*
X410584112Y-256746641D01*
X410725534Y-256605219D01*
X410727466Y-256604701D01*
X410728362Y-256605219D01*
G37*
G36*
X418330466Y-256605219D02*
G01*
X418471888Y-256746641D01*
X418472406Y-256748573D01*
X418471888Y-256749469D01*
X417428906Y-257792451D01*
X417426974Y-257792969D01*
X417426078Y-257792451D01*
X417284656Y-257651029D01*
X417284138Y-257649097D01*
X417284656Y-257648201D01*
X418327638Y-256605219D01*
X418329570Y-256604701D01*
X418330466Y-256605219D01*
G37*
G36*
X325229915Y-256505666D02*
G01*
X326272897Y-257548648D01*
X326273415Y-257550580D01*
X326272897Y-257551476D01*
X326131476Y-257692897D01*
X326129544Y-257693415D01*
X326128648Y-257692897D01*
X325085666Y-256649915D01*
X325085148Y-256647983D01*
X325085666Y-256647087D01*
X325227087Y-256505666D01*
X325229019Y-256505148D01*
X325229915Y-256505666D01*
G37*
G36*
X332124913Y-256505666D02*
G01*
X332266334Y-256647087D01*
X332266852Y-256649019D01*
X332266334Y-256649915D01*
X331223352Y-257692897D01*
X331221420Y-257693415D01*
X331220524Y-257692897D01*
X331079103Y-257551476D01*
X331078585Y-257549544D01*
X331079103Y-257548648D01*
X332122085Y-256505666D01*
X332124017Y-256505148D01*
X332124913Y-256505666D01*
G37*
G36*
X411081915Y-256251666D02*
G01*
X412124897Y-257294648D01*
X412125415Y-257296580D01*
X412124897Y-257297476D01*
X411983476Y-257438897D01*
X411981544Y-257439415D01*
X411980648Y-257438897D01*
X410937666Y-256395915D01*
X410937148Y-256393983D01*
X410937666Y-256393087D01*
X411079087Y-256251666D01*
X411081019Y-256251148D01*
X411081915Y-256251666D01*
G37*
G36*
X417976913Y-256251666D02*
G01*
X418118334Y-256393087D01*
X418118852Y-256395019D01*
X418118334Y-256395915D01*
X417075352Y-257438897D01*
X417073420Y-257439415D01*
X417072524Y-257438897D01*
X416931103Y-257297476D01*
X416930585Y-257295544D01*
X416931103Y-257294648D01*
X417974085Y-256251666D01*
X417976017Y-256251148D01*
X417976913Y-256251666D01*
G37*
G36*
X325583469Y-256152112D02*
G01*
X326626451Y-257195094D01*
X326626969Y-257197026D01*
X326626451Y-257197922D01*
X326485029Y-257339344D01*
X326483097Y-257339862D01*
X326482201Y-257339344D01*
X325439219Y-256296362D01*
X325438701Y-256294430D01*
X325439219Y-256293534D01*
X325580641Y-256152112D01*
X325582573Y-256151594D01*
X325583469Y-256152112D01*
G37*
G36*
X331771359Y-256152112D02*
G01*
X331912781Y-256293534D01*
X331913299Y-256295466D01*
X331912781Y-256296362D01*
X330869799Y-257339344D01*
X330867867Y-257339862D01*
X330866971Y-257339344D01*
X330725549Y-257197922D01*
X330725031Y-257195990D01*
X330725549Y-257195094D01*
X331768531Y-256152112D01*
X331770463Y-256151594D01*
X331771359Y-256152112D01*
G37*
G36*
X417623359Y-255898112D02*
G01*
X417764781Y-256039534D01*
X417765299Y-256041466D01*
X417764781Y-256042362D01*
X416721799Y-257085344D01*
X416719867Y-257085862D01*
X416718971Y-257085344D01*
X416577549Y-256943922D01*
X416577031Y-256941990D01*
X416577549Y-256941094D01*
X417620531Y-255898112D01*
X417622463Y-255897594D01*
X417623359Y-255898112D01*
G37*
G36*
X411435469Y-255898112D02*
G01*
X412478451Y-256941094D01*
X412478969Y-256943026D01*
X412478451Y-256943922D01*
X412337029Y-257085344D01*
X412335097Y-257085862D01*
X412334201Y-257085344D01*
X411291219Y-256042362D01*
X411290701Y-256040430D01*
X411291219Y-256039534D01*
X411432641Y-255898112D01*
X411434573Y-255897594D01*
X411435469Y-255898112D01*
G37*
G36*
X331417806Y-255798559D02*
G01*
X331559227Y-255939980D01*
X331559745Y-255941912D01*
X331559227Y-255942808D01*
X330516245Y-256985790D01*
X330514313Y-256986308D01*
X330513417Y-256985790D01*
X330371996Y-256844369D01*
X330371478Y-256842437D01*
X330371996Y-256841541D01*
X331414978Y-255798559D01*
X331416910Y-255798041D01*
X331417806Y-255798559D01*
G37*
G36*
X325937022Y-255798559D02*
G01*
X326980004Y-256841541D01*
X326980522Y-256843473D01*
X326980004Y-256844369D01*
X326838583Y-256985790D01*
X326836651Y-256986308D01*
X326835755Y-256985790D01*
X325792773Y-255942808D01*
X325792255Y-255940876D01*
X325792773Y-255939980D01*
X325934194Y-255798559D01*
X325936126Y-255798041D01*
X325937022Y-255798559D01*
G37*
G36*
X417269806Y-255544559D02*
G01*
X417411227Y-255685980D01*
X417411745Y-255687912D01*
X417411227Y-255688808D01*
X416368245Y-256731790D01*
X416366313Y-256732308D01*
X416365417Y-256731790D01*
X416223996Y-256590369D01*
X416223478Y-256588437D01*
X416223996Y-256587541D01*
X417266978Y-255544559D01*
X417268910Y-255544041D01*
X417269806Y-255544559D01*
G37*
G36*
X411789022Y-255544559D02*
G01*
X412832004Y-256587541D01*
X412832522Y-256589473D01*
X412832004Y-256590369D01*
X412690583Y-256731790D01*
X412688651Y-256732308D01*
X412687755Y-256731790D01*
X411644773Y-255688808D01*
X411644255Y-255686876D01*
X411644773Y-255685980D01*
X411786194Y-255544559D01*
X411788126Y-255544041D01*
X411789022Y-255544559D01*
G37*
G36*
X326290575Y-255445006D02*
G01*
X327333557Y-256487988D01*
X327334075Y-256489920D01*
X327333557Y-256490816D01*
X327192136Y-256632237D01*
X327190204Y-256632755D01*
X327189308Y-256632237D01*
X326146326Y-255589255D01*
X326145808Y-255587323D01*
X326146326Y-255586427D01*
X326287747Y-255445006D01*
X326289679Y-255444488D01*
X326290575Y-255445006D01*
G37*
G36*
X331064253Y-255445006D02*
G01*
X331205674Y-255586427D01*
X331206192Y-255588359D01*
X331205674Y-255589255D01*
X330162692Y-256632237D01*
X330160760Y-256632755D01*
X330159864Y-256632237D01*
X330018443Y-256490816D01*
X330017925Y-256488884D01*
X330018443Y-256487988D01*
X331061425Y-255445006D01*
X331063357Y-255444488D01*
X331064253Y-255445006D01*
G37*
G36*
X559313732Y-255380000D02*
G01*
X559314000Y-255381000D01*
X559314000Y-256581000D01*
X559313000Y-256582732D01*
X559312000Y-256583000D01*
X559112000Y-256583000D01*
X559110268Y-256582000D01*
X559110000Y-256581000D01*
X559110000Y-255381000D01*
X559111000Y-255379268D01*
X559112000Y-255379000D01*
X559312000Y-255379000D01*
X559313732Y-255380000D01*
G37*
G36*
X559813732Y-255380000D02*
G01*
X559814000Y-255381000D01*
X559814000Y-256581000D01*
X559813000Y-256582732D01*
X559812000Y-256583000D01*
X559612000Y-256583000D01*
X559610268Y-256582000D01*
X559610000Y-256581000D01*
X559610000Y-255381000D01*
X559611000Y-255379268D01*
X559612000Y-255379000D01*
X559812000Y-255379000D01*
X559813732Y-255380000D01*
G37*
G36*
X560313732Y-255380000D02*
G01*
X560314000Y-255381000D01*
X560314000Y-256581000D01*
X560313000Y-256582732D01*
X560312000Y-256583000D01*
X560112000Y-256583000D01*
X560110268Y-256582000D01*
X560110000Y-256581000D01*
X560110000Y-255381000D01*
X560111000Y-255379268D01*
X560112000Y-255379000D01*
X560312000Y-255379000D01*
X560313732Y-255380000D01*
G37*
G36*
X560813732Y-255380000D02*
G01*
X560814000Y-255381000D01*
X560814000Y-256581000D01*
X560813000Y-256582732D01*
X560812000Y-256583000D01*
X560612000Y-256583000D01*
X560610268Y-256582000D01*
X560610000Y-256581000D01*
X560610000Y-255381000D01*
X560611000Y-255379268D01*
X560612000Y-255379000D01*
X560812000Y-255379000D01*
X560813732Y-255380000D01*
G37*
G36*
X551813732Y-255380000D02*
G01*
X551814000Y-255381000D01*
X551814000Y-256581000D01*
X551813000Y-256582732D01*
X551812000Y-256583000D01*
X551612000Y-256583000D01*
X551610268Y-256582000D01*
X551610000Y-256581000D01*
X551610000Y-255381000D01*
X551611000Y-255379268D01*
X551612000Y-255379000D01*
X551812000Y-255379000D01*
X551813732Y-255380000D01*
G37*
G36*
X552313732Y-255380000D02*
G01*
X552314000Y-255381000D01*
X552314000Y-256581000D01*
X552313000Y-256582732D01*
X552312000Y-256583000D01*
X552112000Y-256583000D01*
X552110268Y-256582000D01*
X552110000Y-256581000D01*
X552110000Y-255381000D01*
X552111000Y-255379268D01*
X552112000Y-255379000D01*
X552312000Y-255379000D01*
X552313732Y-255380000D01*
G37*
G36*
X562813732Y-255380000D02*
G01*
X562814000Y-255381000D01*
X562814000Y-256581000D01*
X562813000Y-256582732D01*
X562812000Y-256583000D01*
X562612000Y-256583000D01*
X562610268Y-256582000D01*
X562610000Y-256581000D01*
X562610000Y-255381000D01*
X562611000Y-255379268D01*
X562612000Y-255379000D01*
X562812000Y-255379000D01*
X562813732Y-255380000D01*
G37*
G36*
X554313732Y-255380000D02*
G01*
X554314000Y-255381000D01*
X554314000Y-256581000D01*
X554313000Y-256582732D01*
X554312000Y-256583000D01*
X554112000Y-256583000D01*
X554110268Y-256582000D01*
X554110000Y-256581000D01*
X554110000Y-255381000D01*
X554111000Y-255379268D01*
X554112000Y-255379000D01*
X554312000Y-255379000D01*
X554313732Y-255380000D01*
G37*
G36*
X564313732Y-255380000D02*
G01*
X564314000Y-255381000D01*
X564314000Y-256581000D01*
X564313000Y-256582732D01*
X564312000Y-256583000D01*
X564112000Y-256583000D01*
X564110268Y-256582000D01*
X564110000Y-256581000D01*
X564110000Y-255381000D01*
X564111000Y-255379268D01*
X564112000Y-255379000D01*
X564312000Y-255379000D01*
X564313732Y-255380000D01*
G37*
G36*
X563813732Y-255380000D02*
G01*
X563814000Y-255381000D01*
X563814000Y-256581000D01*
X563813000Y-256582732D01*
X563812000Y-256583000D01*
X563612000Y-256583000D01*
X563610268Y-256582000D01*
X563610000Y-256581000D01*
X563610000Y-255381000D01*
X563611000Y-255379268D01*
X563612000Y-255379000D01*
X563812000Y-255379000D01*
X563813732Y-255380000D01*
G37*
G36*
X563313732Y-255380000D02*
G01*
X563314000Y-255381000D01*
X563314000Y-256581000D01*
X563313000Y-256582732D01*
X563312000Y-256583000D01*
X563112000Y-256583000D01*
X563110268Y-256582000D01*
X563110000Y-256581000D01*
X563110000Y-255381000D01*
X563111000Y-255379268D01*
X563112000Y-255379000D01*
X563312000Y-255379000D01*
X563313732Y-255380000D01*
G37*
G36*
X550813732Y-255380000D02*
G01*
X550814000Y-255381000D01*
X550814000Y-256581000D01*
X550813000Y-256582732D01*
X550812000Y-256583000D01*
X550612000Y-256583000D01*
X550610268Y-256582000D01*
X550610000Y-256581000D01*
X550610000Y-255381000D01*
X550611000Y-255379268D01*
X550612000Y-255379000D01*
X550812000Y-255379000D01*
X550813732Y-255380000D01*
G37*
G36*
X551313732Y-255380000D02*
G01*
X551314000Y-255381000D01*
X551314000Y-256581000D01*
X551313000Y-256582732D01*
X551312000Y-256583000D01*
X551112000Y-256583000D01*
X551110268Y-256582000D01*
X551110000Y-256581000D01*
X551110000Y-255381000D01*
X551111000Y-255379268D01*
X551112000Y-255379000D01*
X551312000Y-255379000D01*
X551313732Y-255380000D01*
G37*
G36*
X550313732Y-255380000D02*
G01*
X550314000Y-255381000D01*
X550314000Y-256581000D01*
X550313000Y-256582732D01*
X550312000Y-256583000D01*
X550112000Y-256583000D01*
X550110268Y-256582000D01*
X550110000Y-256581000D01*
X550110000Y-255381000D01*
X550111000Y-255379268D01*
X550112000Y-255379000D01*
X550312000Y-255379000D01*
X550313732Y-255380000D01*
G37*
G36*
X558313732Y-255380000D02*
G01*
X558314000Y-255381000D01*
X558314000Y-256581000D01*
X558313000Y-256582732D01*
X558312000Y-256583000D01*
X558112000Y-256583000D01*
X558110268Y-256582000D01*
X558110000Y-256581000D01*
X558110000Y-255381000D01*
X558111000Y-255379268D01*
X558112000Y-255379000D01*
X558312000Y-255379000D01*
X558313732Y-255380000D01*
G37*
G36*
X557813732Y-255380000D02*
G01*
X557814000Y-255381000D01*
X557814000Y-256581000D01*
X557813000Y-256582732D01*
X557812000Y-256583000D01*
X557612000Y-256583000D01*
X557610268Y-256582000D01*
X557610000Y-256581000D01*
X557610000Y-255381000D01*
X557611000Y-255379268D01*
X557612000Y-255379000D01*
X557812000Y-255379000D01*
X557813732Y-255380000D01*
G37*
G36*
X557313732Y-255380000D02*
G01*
X557314000Y-255381000D01*
X557314000Y-256581000D01*
X557313000Y-256582732D01*
X557312000Y-256583000D01*
X557112000Y-256583000D01*
X557110268Y-256582000D01*
X557110000Y-256581000D01*
X557110000Y-255381000D01*
X557111000Y-255379268D01*
X557112000Y-255379000D01*
X557312000Y-255379000D01*
X557313732Y-255380000D01*
G37*
G36*
X556813732Y-255380000D02*
G01*
X556814000Y-255381000D01*
X556814000Y-256581000D01*
X556813000Y-256582732D01*
X556812000Y-256583000D01*
X556612000Y-256583000D01*
X556610268Y-256582000D01*
X556610000Y-256581000D01*
X556610000Y-255381000D01*
X556611000Y-255379268D01*
X556612000Y-255379000D01*
X556812000Y-255379000D01*
X556813732Y-255380000D01*
G37*
G36*
X562313732Y-255380000D02*
G01*
X562314000Y-255381000D01*
X562314000Y-256581000D01*
X562313000Y-256582732D01*
X562312000Y-256583000D01*
X562112000Y-256583000D01*
X562110268Y-256582000D01*
X562110000Y-256581000D01*
X562110000Y-255381000D01*
X562111000Y-255379268D01*
X562112000Y-255379000D01*
X562312000Y-255379000D01*
X562313732Y-255380000D01*
G37*
G36*
X552813732Y-255380000D02*
G01*
X552814000Y-255381000D01*
X552814000Y-256581000D01*
X552813000Y-256582732D01*
X552812000Y-256583000D01*
X552612000Y-256583000D01*
X552610268Y-256582000D01*
X552610000Y-256581000D01*
X552610000Y-255381000D01*
X552611000Y-255379268D01*
X552612000Y-255379000D01*
X552812000Y-255379000D01*
X552813732Y-255380000D01*
G37*
G36*
X553313732Y-255380000D02*
G01*
X553314000Y-255381000D01*
X553314000Y-256581000D01*
X553313000Y-256582732D01*
X553312000Y-256583000D01*
X553112000Y-256583000D01*
X553110268Y-256582000D01*
X553110000Y-256581000D01*
X553110000Y-255381000D01*
X553111000Y-255379268D01*
X553112000Y-255379000D01*
X553312000Y-255379000D01*
X553313732Y-255380000D01*
G37*
G36*
X561813732Y-255380000D02*
G01*
X561814000Y-255381000D01*
X561814000Y-256581000D01*
X561813000Y-256582732D01*
X561812000Y-256583000D01*
X561612000Y-256583000D01*
X561610268Y-256582000D01*
X561610000Y-256581000D01*
X561610000Y-255381000D01*
X561611000Y-255379268D01*
X561612000Y-255379000D01*
X561812000Y-255379000D01*
X561813732Y-255380000D01*
G37*
G36*
X556313732Y-255380000D02*
G01*
X556314000Y-255381000D01*
X556314000Y-256581000D01*
X556313000Y-256582732D01*
X556312000Y-256583000D01*
X556112000Y-256583000D01*
X556110268Y-256582000D01*
X556110000Y-256581000D01*
X556110000Y-255381000D01*
X556111000Y-255379268D01*
X556112000Y-255379000D01*
X556312000Y-255379000D01*
X556313732Y-255380000D01*
G37*
G36*
X555813732Y-255380000D02*
G01*
X555814000Y-255381000D01*
X555814000Y-256581000D01*
X555813000Y-256582732D01*
X555812000Y-256583000D01*
X555612000Y-256583000D01*
X555610268Y-256582000D01*
X555610000Y-256581000D01*
X555610000Y-255381000D01*
X555611000Y-255379268D01*
X555612000Y-255379000D01*
X555812000Y-255379000D01*
X555813732Y-255380000D01*
G37*
G36*
X555313732Y-255380000D02*
G01*
X555314000Y-255381000D01*
X555314000Y-256581000D01*
X555313000Y-256582732D01*
X555312000Y-256583000D01*
X555112000Y-256583000D01*
X555110268Y-256582000D01*
X555110000Y-256581000D01*
X555110000Y-255381000D01*
X555111000Y-255379268D01*
X555112000Y-255379000D01*
X555312000Y-255379000D01*
X555313732Y-255380000D01*
G37*
G36*
X554813732Y-255380000D02*
G01*
X554814000Y-255381000D01*
X554814000Y-256581000D01*
X554813000Y-256582732D01*
X554812000Y-256583000D01*
X554612000Y-256583000D01*
X554610268Y-256582000D01*
X554610000Y-256581000D01*
X554610000Y-255381000D01*
X554611000Y-255379268D01*
X554612000Y-255379000D01*
X554812000Y-255379000D01*
X554813732Y-255380000D01*
G37*
G36*
X561313732Y-255380000D02*
G01*
X561314000Y-255381000D01*
X561314000Y-256581000D01*
X561313000Y-256582732D01*
X561312000Y-256583000D01*
X561112000Y-256583000D01*
X561110268Y-256582000D01*
X561110000Y-256581000D01*
X561110000Y-255381000D01*
X561111000Y-255379268D01*
X561112000Y-255379000D01*
X561312000Y-255379000D01*
X561313732Y-255380000D01*
G37*
G36*
X553813732Y-255380000D02*
G01*
X553814000Y-255381000D01*
X553814000Y-256581000D01*
X553813000Y-256582732D01*
X553812000Y-256583000D01*
X553612000Y-256583000D01*
X553610268Y-256582000D01*
X553610000Y-256581000D01*
X553610000Y-255381000D01*
X553611000Y-255379268D01*
X553612000Y-255379000D01*
X553812000Y-255379000D01*
X553813732Y-255380000D01*
G37*
G36*
X558813732Y-255380000D02*
G01*
X558814000Y-255381000D01*
X558814000Y-256581000D01*
X558813000Y-256582732D01*
X558812000Y-256583000D01*
X558612000Y-256583000D01*
X558610268Y-256582000D01*
X558610000Y-256581000D01*
X558610000Y-255381000D01*
X558611000Y-255379268D01*
X558612000Y-255379000D01*
X558812000Y-255379000D01*
X558813732Y-255380000D01*
G37*
G36*
X412142575Y-255191006D02*
G01*
X413185557Y-256233988D01*
X413186075Y-256235920D01*
X413185557Y-256236816D01*
X413044136Y-256378237D01*
X413042204Y-256378755D01*
X413041308Y-256378237D01*
X411998326Y-255335255D01*
X411997808Y-255333323D01*
X411998326Y-255332427D01*
X412139747Y-255191006D01*
X412141679Y-255190488D01*
X412142575Y-255191006D01*
G37*
G36*
X416916253Y-255191006D02*
G01*
X417057674Y-255332427D01*
X417058192Y-255334359D01*
X417057674Y-255335255D01*
X416014692Y-256378237D01*
X416012760Y-256378755D01*
X416011864Y-256378237D01*
X415870443Y-256236816D01*
X415869925Y-256234884D01*
X415870443Y-256233988D01*
X416913425Y-255191006D01*
X416915357Y-255190488D01*
X416916253Y-255191006D01*
G37*
G36*
X326644129Y-255091452D02*
G01*
X327687111Y-256134434D01*
X327687629Y-256136366D01*
X327687111Y-256137262D01*
X327545689Y-256278684D01*
X327543757Y-256279202D01*
X327542861Y-256278684D01*
X326499879Y-255235702D01*
X326499361Y-255233770D01*
X326499879Y-255232874D01*
X326641301Y-255091452D01*
X326643233Y-255090934D01*
X326644129Y-255091452D01*
G37*
G36*
X330710699Y-255091452D02*
G01*
X330852121Y-255232874D01*
X330852639Y-255234806D01*
X330852121Y-255235702D01*
X329809139Y-256278684D01*
X329807207Y-256279202D01*
X329806311Y-256278684D01*
X329664889Y-256137262D01*
X329664371Y-256135330D01*
X329664889Y-256134434D01*
X330707871Y-255091452D01*
X330709803Y-255090934D01*
X330710699Y-255091452D01*
G37*
G36*
X412496129Y-254837452D02*
G01*
X413539111Y-255880434D01*
X413539629Y-255882366D01*
X413539111Y-255883262D01*
X413397689Y-256024684D01*
X413395757Y-256025202D01*
X413394861Y-256024684D01*
X412351879Y-254981702D01*
X412351361Y-254979770D01*
X412351879Y-254978874D01*
X412493301Y-254837452D01*
X412495233Y-254836934D01*
X412496129Y-254837452D01*
G37*
G36*
X416562699Y-254837452D02*
G01*
X416704121Y-254978874D01*
X416704639Y-254980806D01*
X416704121Y-254981702D01*
X415661139Y-256024684D01*
X415659207Y-256025202D01*
X415658311Y-256024684D01*
X415516889Y-255883262D01*
X415516371Y-255881330D01*
X415516889Y-255880434D01*
X416559871Y-254837452D01*
X416561803Y-254836934D01*
X416562699Y-254837452D01*
G37*
G36*
X326997682Y-254737899D02*
G01*
X328040664Y-255780881D01*
X328041182Y-255782813D01*
X328040664Y-255783709D01*
X327899243Y-255925130D01*
X327897311Y-255925648D01*
X327896415Y-255925130D01*
X326853433Y-254882148D01*
X326852915Y-254880216D01*
X326853433Y-254879320D01*
X326994854Y-254737899D01*
X326996786Y-254737381D01*
X326997682Y-254737899D01*
G37*
G36*
X330357146Y-254737899D02*
G01*
X330498567Y-254879320D01*
X330499085Y-254881252D01*
X330498567Y-254882148D01*
X329455585Y-255925130D01*
X329453653Y-255925648D01*
X329452757Y-255925130D01*
X329311336Y-255783709D01*
X329310818Y-255781777D01*
X329311336Y-255780881D01*
X330354318Y-254737899D01*
X330356250Y-254737381D01*
X330357146Y-254737899D01*
G37*
G36*
X412849682Y-254483899D02*
G01*
X413892664Y-255526881D01*
X413893182Y-255528813D01*
X413892664Y-255529709D01*
X413751243Y-255671130D01*
X413749311Y-255671648D01*
X413748415Y-255671130D01*
X412705433Y-254628148D01*
X412704915Y-254626216D01*
X412705433Y-254625320D01*
X412846854Y-254483899D01*
X412848786Y-254483381D01*
X412849682Y-254483899D01*
G37*
G36*
X416209146Y-254483899D02*
G01*
X416350567Y-254625320D01*
X416351085Y-254627252D01*
X416350567Y-254628148D01*
X415307585Y-255671130D01*
X415305653Y-255671648D01*
X415304757Y-255671130D01*
X415163336Y-255529709D01*
X415162818Y-255527777D01*
X415163336Y-255526881D01*
X416206318Y-254483899D01*
X416208250Y-254483381D01*
X416209146Y-254483899D01*
G37*
G36*
X589285732Y-253952000D02*
G01*
X589286000Y-253953000D01*
X589286000Y-255403000D01*
X589285000Y-255404732D01*
X589284000Y-255405000D01*
X589109000Y-255405000D01*
X589107268Y-255404000D01*
X589107000Y-255403000D01*
X589107000Y-253953000D01*
X589108000Y-253951268D01*
X589109000Y-253951000D01*
X589284000Y-253951000D01*
X589285732Y-253952000D01*
G37*
G36*
X585460732Y-253952000D02*
G01*
X585461000Y-253953000D01*
X585461000Y-255403000D01*
X585460000Y-255404732D01*
X585459000Y-255405000D01*
X585259000Y-255405000D01*
X585257268Y-255404000D01*
X585257000Y-255403000D01*
X585257000Y-253953000D01*
X585258000Y-253951268D01*
X585259000Y-253951000D01*
X585459000Y-253951000D01*
X585460732Y-253952000D01*
G37*
G36*
X583610732Y-253952000D02*
G01*
X583611000Y-253953000D01*
X583611000Y-255403000D01*
X583610000Y-255404732D01*
X583609000Y-255405000D01*
X583434000Y-255405000D01*
X583432268Y-255404000D01*
X583432000Y-255403000D01*
X583432000Y-253953000D01*
X583433000Y-253951268D01*
X583434000Y-253951000D01*
X583609000Y-253951000D01*
X583610732Y-253952000D01*
G37*
G36*
X586460732Y-253952000D02*
G01*
X586461000Y-253953000D01*
X586461000Y-255403000D01*
X586460000Y-255404732D01*
X586459000Y-255405000D01*
X586259000Y-255405000D01*
X586257268Y-255404000D01*
X586257000Y-255403000D01*
X586257000Y-253953000D01*
X586258000Y-253951268D01*
X586259000Y-253951000D01*
X586459000Y-253951000D01*
X586460732Y-253952000D01*
G37*
G36*
X585960732Y-253952000D02*
G01*
X585961000Y-253953000D01*
X585961000Y-255403000D01*
X585960000Y-255404732D01*
X585959000Y-255405000D01*
X585759000Y-255405000D01*
X585757268Y-255404000D01*
X585757000Y-255403000D01*
X585757000Y-253953000D01*
X585758000Y-253951268D01*
X585759000Y-253951000D01*
X585959000Y-253951000D01*
X585960732Y-253952000D01*
G37*
G36*
X587460732Y-253952000D02*
G01*
X587461000Y-253953000D01*
X587461000Y-255403000D01*
X587460000Y-255404732D01*
X587459000Y-255405000D01*
X587259000Y-255405000D01*
X587257268Y-255404000D01*
X587257000Y-255403000D01*
X587257000Y-253953000D01*
X587258000Y-253951268D01*
X587259000Y-253951000D01*
X587459000Y-253951000D01*
X587460732Y-253952000D01*
G37*
G36*
X587960732Y-253952000D02*
G01*
X587961000Y-253953000D01*
X587961000Y-255403000D01*
X587960000Y-255404732D01*
X587959000Y-255405000D01*
X587759000Y-255405000D01*
X587757268Y-255404000D01*
X587757000Y-255403000D01*
X587757000Y-253953000D01*
X587758000Y-253951268D01*
X587759000Y-253951000D01*
X587959000Y-253951000D01*
X587960732Y-253952000D01*
G37*
G36*
X584960732Y-253952000D02*
G01*
X584961000Y-253953000D01*
X584961000Y-255403000D01*
X584960000Y-255404732D01*
X584959000Y-255405000D01*
X584759000Y-255405000D01*
X584757268Y-255404000D01*
X584757000Y-255403000D01*
X584757000Y-253953000D01*
X584758000Y-253951268D01*
X584759000Y-253951000D01*
X584959000Y-253951000D01*
X584960732Y-253952000D01*
G37*
G36*
X586960732Y-253952000D02*
G01*
X586961000Y-253953000D01*
X586961000Y-255403000D01*
X586960000Y-255404732D01*
X586959000Y-255405000D01*
X586759000Y-255405000D01*
X586757268Y-255404000D01*
X586757000Y-255403000D01*
X586757000Y-253953000D01*
X586758000Y-253951268D01*
X586759000Y-253951000D01*
X586959000Y-253951000D01*
X586960732Y-253952000D01*
G37*
G36*
X411279688Y-251838336D02*
G01*
X411280073Y-251838412D01*
X411316306Y-251849402D01*
X411316668Y-251849552D01*
X411350055Y-251867398D01*
X411350381Y-251867616D01*
X411383845Y-251895079D01*
X411383990Y-251895211D01*
X411827259Y-252338480D01*
X411827391Y-252338625D01*
X411854854Y-252372089D01*
X411855072Y-252372415D01*
X411872918Y-252405802D01*
X411873068Y-252406164D01*
X411884058Y-252442397D01*
X411884134Y-252442782D01*
X411887845Y-252480456D01*
X411887845Y-252480848D01*
X411884134Y-252518522D01*
X411884058Y-252518907D01*
X411873068Y-252555140D01*
X411872918Y-252555502D01*
X411855072Y-252588889D01*
X411854854Y-252589215D01*
X411827391Y-252622679D01*
X411827259Y-252622824D01*
X411118824Y-253331259D01*
X411118679Y-253331391D01*
X411085215Y-253358854D01*
X411084889Y-253359072D01*
X411051502Y-253376918D01*
X411051140Y-253377068D01*
X411014907Y-253388058D01*
X411014522Y-253388134D01*
X410976848Y-253391845D01*
X410976456Y-253391845D01*
X410938782Y-253388134D01*
X410938397Y-253388058D01*
X410902164Y-253377068D01*
X410901802Y-253376918D01*
X410868415Y-253359072D01*
X410868089Y-253358854D01*
X410834625Y-253331391D01*
X410834480Y-253331259D01*
X410391211Y-252887990D01*
X410391079Y-252887845D01*
X410363616Y-252854381D01*
X410363398Y-252854055D01*
X410345552Y-252820668D01*
X410345402Y-252820306D01*
X410334412Y-252784073D01*
X410334336Y-252783688D01*
X410330625Y-252746014D01*
X410330625Y-252745818D01*
X410357430Y-252745818D01*
X410362195Y-252794195D01*
X410376308Y-252840719D01*
X410399224Y-252883593D01*
X410430131Y-252921252D01*
X410801218Y-253292339D01*
X410838877Y-253323246D01*
X410881751Y-253346162D01*
X410928275Y-253360275D01*
X410976652Y-253365040D01*
X411025029Y-253360275D01*
X411071553Y-253346162D01*
X411114427Y-253323246D01*
X411152086Y-253292339D01*
X411788339Y-252656086D01*
X411819246Y-252618427D01*
X411842162Y-252575553D01*
X411856275Y-252529029D01*
X411861040Y-252480652D01*
X411856275Y-252432275D01*
X411842162Y-252385751D01*
X411819246Y-252342877D01*
X411788339Y-252305218D01*
X411417252Y-251934131D01*
X411379593Y-251903224D01*
X411336719Y-251880308D01*
X411290195Y-251866195D01*
X411241818Y-251861430D01*
X411193441Y-251866195D01*
X411146917Y-251880308D01*
X411104043Y-251903224D01*
X411066384Y-251934131D01*
X410430131Y-252570384D01*
X410399224Y-252608043D01*
X410376308Y-252650917D01*
X410362195Y-252697441D01*
X410357430Y-252745818D01*
X410330625Y-252745818D01*
X410330625Y-252745622D01*
X410334336Y-252707948D01*
X410334412Y-252707563D01*
X410345402Y-252671330D01*
X410345552Y-252670968D01*
X410363398Y-252637581D01*
X410363616Y-252637255D01*
X410391079Y-252603791D01*
X410391211Y-252603646D01*
X411099646Y-251895211D01*
X411099791Y-251895079D01*
X411133255Y-251867616D01*
X411133581Y-251867398D01*
X411166968Y-251849552D01*
X411167330Y-251849402D01*
X411203563Y-251838412D01*
X411203948Y-251838336D01*
X411241622Y-251834625D01*
X411242014Y-251834625D01*
X411279688Y-251838336D01*
G37*
G36*
X409989218Y-250547866D02*
G01*
X409989603Y-250547942D01*
X410025836Y-250558932D01*
X410026198Y-250559082D01*
X410059585Y-250576928D01*
X410059911Y-250577146D01*
X410093375Y-250604609D01*
X410093520Y-250604741D01*
X410536789Y-251048010D01*
X410536921Y-251048155D01*
X410564384Y-251081619D01*
X410564602Y-251081945D01*
X410582448Y-251115332D01*
X410582598Y-251115694D01*
X410593588Y-251151927D01*
X410593664Y-251152312D01*
X410597375Y-251189986D01*
X410597375Y-251190378D01*
X410593664Y-251228052D01*
X410593588Y-251228437D01*
X410582598Y-251264670D01*
X410582448Y-251265032D01*
X410564602Y-251298419D01*
X410564384Y-251298745D01*
X410536921Y-251332209D01*
X410536789Y-251332354D01*
X409828354Y-252040789D01*
X409828209Y-252040921D01*
X409794745Y-252068384D01*
X409794419Y-252068602D01*
X409761032Y-252086448D01*
X409760670Y-252086598D01*
X409724437Y-252097588D01*
X409724052Y-252097664D01*
X409686378Y-252101375D01*
X409685986Y-252101375D01*
X409648312Y-252097664D01*
X409647927Y-252097588D01*
X409611694Y-252086598D01*
X409611332Y-252086448D01*
X409577945Y-252068602D01*
X409577619Y-252068384D01*
X409544155Y-252040921D01*
X409544010Y-252040789D01*
X409100741Y-251597520D01*
X409100609Y-251597375D01*
X409073146Y-251563911D01*
X409072928Y-251563585D01*
X409055082Y-251530198D01*
X409054932Y-251529836D01*
X409043942Y-251493603D01*
X409043866Y-251493218D01*
X409040155Y-251455544D01*
X409040155Y-251455348D01*
X409066960Y-251455348D01*
X409071725Y-251503725D01*
X409085838Y-251550249D01*
X409108754Y-251593123D01*
X409139661Y-251630782D01*
X409510748Y-252001869D01*
X409548407Y-252032776D01*
X409591281Y-252055692D01*
X409637805Y-252069805D01*
X409686182Y-252074570D01*
X409734559Y-252069805D01*
X409781083Y-252055692D01*
X409823957Y-252032776D01*
X409861616Y-252001869D01*
X410497869Y-251365616D01*
X410528776Y-251327957D01*
X410551692Y-251285083D01*
X410565805Y-251238559D01*
X410570570Y-251190182D01*
X410565805Y-251141805D01*
X410551692Y-251095281D01*
X410528776Y-251052407D01*
X410497869Y-251014748D01*
X410126782Y-250643661D01*
X410089123Y-250612754D01*
X410046249Y-250589838D01*
X409999725Y-250575725D01*
X409951348Y-250570960D01*
X409902971Y-250575725D01*
X409856447Y-250589838D01*
X409813573Y-250612754D01*
X409775914Y-250643661D01*
X409139661Y-251279914D01*
X409108754Y-251317573D01*
X409085838Y-251360447D01*
X409071725Y-251406971D01*
X409066960Y-251455348D01*
X409040155Y-251455348D01*
X409040155Y-251455152D01*
X409043866Y-251417478D01*
X409043942Y-251417093D01*
X409054932Y-251380860D01*
X409055082Y-251380498D01*
X409072928Y-251347111D01*
X409073146Y-251346785D01*
X409100609Y-251313321D01*
X409100741Y-251313176D01*
X409809176Y-250604741D01*
X409809321Y-250604609D01*
X409842785Y-250577146D01*
X409843111Y-250576928D01*
X409876498Y-250559082D01*
X409876860Y-250558932D01*
X409913093Y-250547942D01*
X409913478Y-250547866D01*
X409951152Y-250544155D01*
X409951544Y-250544155D01*
X409989218Y-250547866D01*
G37*
M02*
