M48
INCH,TZ
T1C0.0157
T2C0.0236
T3C0.0315
T4C0.0579
%
G90
G05
T1
X67206Y-112100
X67206Y-112994
X67206Y-121500
X67214Y-122386
X68700Y-143150
X69050Y-129900
X69056Y-129000
X69075Y-143436
X69450Y-129000
X70000Y-137350
X70006Y-136500
X70475Y-115150
X71150Y-111350
X71150Y-120650
X71600Y-112100
X71600Y-113272
X71600Y-121500
X71600Y-122672
X71850Y-144886
X71856Y-144000
X72500Y-151500
X72500Y-152672
X72900Y-146900
X72900Y-150400
X73000Y-128150
X73450Y-129000
X73450Y-130172
X73600Y-146200
X73800Y-138550
X73900Y-135650
X74100Y-139200
X74400Y-136500
X74400Y-137672
X74706Y-121500
X74714Y-122386
X75800Y-143150
X76200Y-99600
X76200Y-100000
X76250Y-143750
X76250Y-145172
X76600Y-99200
X77506Y-151500
X77514Y-152386
X77850Y-114914
X78386Y-129886
X78406Y-129000
X78707Y-120600
X79075Y-98444
X79100Y-121500
X79100Y-122672
X80300Y-137386
X80306Y-136500
X80998Y-114698
X81450Y-150650
X81900Y-151500
X81900Y-152672
X82200Y-112986
X82206Y-112100
X82206Y-121500
X82214Y-122386
X82400Y-128150
X82589Y-113559
X82800Y-129000
X82800Y-130172
X84050Y-144886
X84056Y-144000
X84250Y-135650
X84700Y-136500
X84700Y-137672
X85829Y-114714
X85950Y-129886
X85956Y-129000
X86141Y-113559
X86150Y-103800
X86150Y-106075
X86150Y-111300
X86157Y-120650
X86600Y-104650
X86600Y-105822
X86600Y-112100
X86600Y-113272
X86600Y-121500
X86600Y-122672
X86850Y-152386
X86856Y-151500
X87806Y-136500
X87806Y-137386
X87886Y-143186
X88450Y-144000
X88450Y-145172
X89700Y-105536
X89700Y-112986
X89700Y-122386
X89706Y-104650
X89706Y-112100
X89706Y-121500
X90089Y-113559
X90350Y-129000
X90350Y-130172
X90400Y-128150
X90850Y-150650
X91250Y-151500
X91250Y-152672
X91550Y-144886
X91556Y-144000
X91650Y-135650
X92200Y-136500
X92200Y-137672
X93450Y-129886
X93456Y-129000
X93600Y-114535
X93600Y-120650
X93650Y-103800
X93650Y-111300
X93650Y-113600
X94100Y-104650
X94100Y-105822
X94100Y-112100
X94100Y-113272
X94100Y-121500
X94100Y-122672
X95300Y-137386
X95306Y-136500
X95400Y-143150
X95950Y-144000
X95950Y-145172
X96600Y-99600
X97200Y-105536
X97200Y-112986
X97200Y-122386
X97206Y-104600
X97206Y-112100
X97206Y-121500
X97350Y-128180
X97589Y-113559
X97850Y-129000
X97850Y-130172
X99050Y-144886
X99056Y-144000
X99150Y-135650
X99700Y-136500
X99700Y-137672
X100950Y-129886
X100956Y-129000
X101100Y-103800
X101100Y-106750
X101100Y-111250
X101100Y-113559
X101100Y-120650
X101250Y-114356
X101600Y-104600
X101600Y-105850
X101600Y-112100
X101600Y-113272
X101600Y-121500
X101600Y-122672
X102806Y-136500
X102806Y-137386
X102900Y-143150
X102900Y-152986
X103450Y-144000
X103450Y-145172
X104700Y-105550
X104700Y-112986
X104700Y-122386
X104706Y-104600
X104706Y-112100
X104706Y-121500
X105002Y-114178
X105089Y-113559
X105350Y-129000
X105350Y-130172
X105475Y-128125
X106550Y-144886
X106556Y-144000
X106700Y-135650
X107200Y-136500
X107200Y-137672
X108200Y-112400
X108225Y-114178
X108450Y-129886
X108456Y-129000
X108600Y-103800
X108600Y-111300
X108600Y-113559
X108600Y-120650
X108800Y-101200
X108950Y-114178
X109100Y-104600
X109100Y-105850
X109100Y-112100
X109100Y-113272
X109100Y-121500
X109100Y-122672
X109736Y-106150
X110233Y-99570
X110300Y-137386
X110306Y-136500
X110393Y-106763
X110400Y-143150
X110516Y-99284
X110519Y-99866
X110775Y-110736
X110798Y-100145
X110950Y-144000
X110950Y-145172
X111150Y-113575
X111291Y-108091
X111300Y-107036
X111388Y-120412
X111400Y-115525
X111528Y-113903
X111600Y-103000
X111800Y-104400
X111800Y-149200
X111875Y-121814
X112200Y-122386
X112206Y-121500
X112350Y-128150
X112525Y-115525
X112700Y-113559
X112850Y-129000
X112850Y-130172
X113856Y-105928
X114050Y-144886
X114056Y-144000
X114150Y-135700
X114200Y-100800
X114249Y-104754
X114250Y-105928
X114250Y-105150
X115000Y-152386
X115006Y-151500
X115238Y-98997
X115250Y-115486
X115400Y-152100
X115428Y-137672
X115475Y-136225
X115700Y-105355
X115950Y-112986
X115950Y-129886
X115956Y-112100
X115956Y-129000
X116100Y-113845
X116100Y-120650
X116600Y-121500
X116600Y-122672
X117800Y-137386
X117806Y-136500
X117900Y-143150
X118200Y-136500
X118400Y-103200
X118450Y-144000
X118450Y-145172
X118900Y-150700
X118900Y-152986
X119223Y-117002
X119265Y-98210
X119350Y-151200
X119400Y-152700
X119540Y-116510
X119648Y-117427
X119700Y-122386
X119706Y-121500
X119714Y-152959
X119950Y-111250
X119950Y-113600
X119975Y-100575
X120350Y-112100
X120350Y-113272
X120350Y-130172
X120400Y-104000
X120450Y-128150
X120500Y-151200
X120600Y-128750
X120705Y-100880
X120715Y-113845
X120800Y-115665
X121098Y-100852
X121550Y-144886
X121556Y-144000
X121650Y-135650
X121950Y-101200
X121950Y-103518
X122050Y-101772
X122200Y-136500
X122200Y-137672
X122340Y-103460
X122600Y-115665
X122650Y-101700
X122675Y-103775
X122685Y-107036
X123025Y-98532
X123257Y-99284
X123282Y-100063
X123400Y-101600
X123436Y-104611
X123436Y-107050
X123436Y-112986
X123450Y-129886
X123456Y-112100
X123456Y-129000
X123548Y-100352
X123550Y-120650
X123600Y-103476
X123708Y-99308
X123800Y-102600
X123807Y-103811
X124086Y-104611
X124100Y-121500
X124100Y-122672
X124200Y-100200
X124203Y-103839
X124886Y-101651
X125200Y-100000
X125306Y-136500
X125306Y-137386
X125400Y-115844
X125400Y-143150
X125400Y-146300
X125800Y-102600
X125950Y-144000
X125950Y-145172
X126600Y-115850
X127200Y-122386
X127206Y-121500
X127449Y-100249
X127498Y-111298
X127499Y-113559
X127850Y-112100
X127850Y-113272
X127850Y-129000
X127850Y-130172
X127950Y-107150
X127950Y-128150
X128400Y-99400
X128400Y-102400
X128400Y-113999
X128800Y-101800
X128800Y-103200
X129050Y-144886
X129056Y-144000
X129200Y-108000
X129200Y-135650
X129400Y-99400
X129400Y-100000
X129400Y-101200
X129400Y-102400
X129400Y-103600
X129400Y-104800
X129700Y-136500
X129700Y-137672
X129750Y-115844
X129816Y-101256
X130000Y-103000
X130272Y-100066
X130400Y-102000
X130550Y-100425
X130800Y-105200
X130802Y-104798
X130950Y-112986
X130950Y-129886
X130956Y-112100
X130956Y-129000
X131100Y-120650
X131282Y-100531
X131600Y-121500
X131600Y-122672
X131746Y-100587
X132000Y-100200
X132009Y-101445
X132025Y-100873
X132250Y-105200
X132275Y-102875
X132400Y-104600
X132600Y-100200
X132800Y-99400
X132800Y-116022
X132806Y-136500
X132814Y-137386
X132900Y-143150
X132900Y-145459
X132925Y-103600
X133250Y-100750
X133250Y-101450
X133450Y-144000
X133450Y-145172
X133800Y-99760
X133937Y-101375
X134223Y-101075
X134600Y-101400
X134600Y-116400
X134665Y-100390
X134700Y-122386
X134706Y-121500
X134800Y-111386
X134800Y-113999
X135050Y-105318
X135350Y-112100
X135350Y-113272
X135350Y-128200
X135350Y-129000
X135350Y-130172
X135600Y-100000
X136025Y-107475
X136363Y-117763
X136400Y-101400
X136425Y-107189
X136550Y-144886
X136556Y-144000
X136650Y-116022
X136700Y-135650
X137200Y-136500
X137200Y-137672
X137500Y-107825
X137525Y-108661
X138125Y-107761
X138136Y-108661
X138450Y-112986
X138450Y-129886
X138456Y-112100
X138456Y-129000
X138550Y-122959
X138600Y-120600
X138750Y-113999
X139100Y-121500
X139100Y-122672
X140000Y-116200
X140200Y-100400
X140306Y-136500
X140314Y-137386
X140400Y-143150
X140400Y-146700
X140950Y-144000
X140950Y-145172
X141400Y-105600
X141960Y-117240
X142200Y-122386
X142206Y-121500
X142400Y-111300
X142400Y-113999
X142850Y-112100
X142850Y-113272
X142850Y-129000
X142850Y-130172
X142950Y-128150
X143100Y-152386
X143106Y-151500
X143900Y-116201
X144050Y-144886
X144056Y-144000
X144100Y-149514
X144200Y-135650
X144361Y-112164
X144375Y-113950
X144450Y-116201
X144700Y-136500
X144700Y-137672
X144800Y-99000
X145200Y-113999
X145200Y-146700
X145950Y-129886
X145956Y-129000
X145964Y-110686
X146089Y-104800
X146100Y-120650
X146100Y-122959
X146375Y-103453
X146386Y-109961
X146600Y-121500
X146600Y-122672
X146661Y-103800
X146672Y-113975
X147000Y-101704
X147013Y-103453
X147250Y-116600
X147350Y-150650
X147500Y-151500
X147500Y-152672
X147600Y-100400
X147800Y-137386
X147806Y-136500
X147850Y-143150
X148450Y-144000
X148450Y-145172
X149350Y-113559
X149650Y-107100
X149700Y-112986
X149700Y-122386
X149706Y-112100
X149706Y-121500
X149775Y-107525
X149800Y-105318
X149850Y-128180
X150350Y-129000
X150350Y-130172
X150600Y-101600
X150725Y-110686
X151500Y-116201
X151550Y-144886
X151556Y-144000
X151700Y-135650
X152090Y-116440
X152200Y-136500
X152200Y-137672
X152500Y-152386
X152506Y-151500
X153241Y-113999
X153375Y-109661
X153450Y-129886
X153456Y-129000
X153600Y-120650
X153635Y-113999
X153800Y-111300
X154025Y-113820
X154100Y-112100
X154100Y-113272
X154100Y-121500
X154100Y-122672
X154450Y-113559
X155300Y-137386
X155306Y-136500
X155450Y-143150
X155550Y-116201
X155775Y-109350
X155950Y-144000
X155950Y-145172
X156500Y-150650
X156500Y-152572
X156624Y-104096
X156846Y-116949
X156900Y-151500
X156914Y-152286
X157000Y-102400
X157200Y-112986
X157200Y-122386
X157206Y-112100
X157206Y-121500
X157391Y-152859
X157400Y-101600
X157400Y-109364
X157598Y-104002
X157650Y-131100
X157660Y-99374
X157850Y-129000
X157850Y-130172
X157975Y-99088
X158127Y-107148
X158216Y-102916
X158360Y-128140
X158525Y-104776
X158600Y-144200
X158724Y-123276
X158800Y-99400
X158900Y-104597
X159150Y-135650
X159150Y-139350
X159200Y-101022
X159400Y-105600
X159450Y-149514
X159600Y-102200
X159700Y-136500
X159700Y-137672
X159795Y-100844
X159800Y-104025
X160000Y-144200
X160400Y-99000
X160750Y-131386
X160800Y-103489
X160950Y-129886
X160956Y-129000
X161000Y-104465
X161100Y-111300
X161100Y-113559
X161100Y-120650
X161225Y-123250
X161400Y-105400
X161510Y-100527
X161600Y-111850
X161600Y-113272
X161600Y-121500
X161600Y-122672
X161750Y-116800
X161800Y-100200
X161800Y-102400
X161800Y-107800
X161821Y-105200
X161821Y-107400
X161850Y-152386
X161856Y-151500
X161914Y-112986
X162098Y-99902
X162150Y-117150
X162200Y-105400
X162200Y-106500
X162214Y-112700
X162380Y-101620
X162600Y-99400
X162700Y-122386
X162800Y-103200
X163014Y-122100
X163116Y-146266
X163200Y-102000
X163200Y-102400
X163200Y-104800
X163400Y-109650
X163475Y-103525
X163575Y-98787
X163586Y-116416
X163586Y-122959
X163600Y-105200
X163602Y-101202
X163700Y-115844
X164000Y-102800
X164100Y-115665
X164100Y-132000
X164200Y-102200
X164598Y-105198
X164600Y-100200
X164600Y-105676
X164600Y-115486
X164650Y-113000
X164800Y-128150
X165000Y-105676
X165057Y-115486
X165200Y-100800
X165252Y-111252
X165257Y-113881
X165350Y-129000
X165350Y-130172
X165400Y-103804
X165400Y-105676
X165400Y-103400
X165600Y-102200
X165600Y-144886
X165606Y-144000
X165650Y-113950
X165800Y-150650
X165803Y-103397
X166050Y-113999
X166250Y-151500
X166250Y-152672
X166400Y-99800
X166400Y-100886
X166472Y-104067
X166779Y-113463
X166806Y-101101
X167200Y-100600
X167200Y-104000
X167223Y-137973
X167400Y-101000
X167410Y-99714
X167500Y-137386
X167506Y-136500
X167625Y-104013
X167800Y-100000
X167800Y-103200
X168450Y-122386
X168456Y-121500
X168600Y-111300
X168875Y-131086
X169000Y-105000
X169050Y-109300
X169050Y-112100
X169050Y-115665
X169375Y-105928
X169500Y-132000
X169500Y-138600
X169500Y-143150
X169798Y-99402
X170000Y-144000
X170000Y-145172
X170278Y-99478
X170300Y-129886
X170306Y-129000
X170636Y-99841
X170925Y-109350
X171000Y-100600
X171121Y-99881
X171200Y-142650
X171214Y-135664
X171250Y-152386
X171256Y-151500
X171276Y-99215
X171400Y-99600
X171400Y-103600
X171600Y-105000
X171800Y-99501
X171800Y-145800
X171900Y-136500
X171900Y-137672
X172350Y-122959
X172400Y-120650
X172425Y-110736
X172850Y-121500
X172850Y-122672
X173200Y-116800
X173250Y-115486
X173351Y-110774
X173400Y-103600
X173700Y-122959
X174700Y-129000
X174700Y-130172
X175100Y-128150
X175150Y-150650
X175200Y-130459
X175650Y-151500
X175650Y-152672
X176000Y-111300
X176500Y-111850
X176500Y-117086
X177375Y-110800
X177400Y-107600
X177675Y-99501
X177972Y-100725
X177972Y-111600
X178973Y-100137
X179043Y-123231
X179325Y-99675
X179328Y-122959
X179593Y-130904
X179614Y-115818
X179900Y-115486
X179900Y-131150
X180275Y-104299
X180932Y-126193
X180984Y-104998
X181250Y-131700
X181501Y-106801
X181550Y-105550
X181550Y-122386
X181550Y-129886
X181550Y-152386
X181556Y-104600
X181556Y-121500
X181556Y-129000
X181556Y-151500
X181675Y-107425
X181839Y-106464
X181950Y-112100
X182536Y-116250
X182750Y-110736
X183250Y-146150
X183475Y-100225
X184000Y-115844
X185164Y-110736
X185400Y-128150
X185400Y-131100
X185436Y-111413
X185450Y-103800
X185450Y-123245
X185450Y-150650
X185450Y-152959
X185657Y-120650
X185850Y-99215
X185860Y-124990
X185950Y-104600
X185950Y-105772
X185950Y-112100
X185950Y-115750
X185950Y-121500
X185950Y-122672
X185950Y-123245
X185950Y-129000
X185950Y-130172
X185950Y-151500
X185950Y-152672
X186250Y-152959
X186300Y-130750
X187150Y-142014
X187350Y-115315
X187650Y-145459
X188123Y-143877
X188200Y-145459
X188650Y-144000
X188650Y-145459
X188769Y-109031
X189050Y-105486
X189050Y-122386
X189050Y-129886
X189050Y-144886
X189050Y-152386
X189056Y-104600
X189056Y-121500
X189056Y-129000
X189056Y-144000
X189056Y-151500
X189464Y-111800
X190350Y-110736
X190500Y-115315
X192007Y-115315
X192600Y-108200
X192764Y-110825
X192950Y-120650
X192950Y-128150
X192950Y-137959
X192950Y-143150
X192950Y-145500
X192950Y-150650
X192950Y-152959
X193000Y-122959
X193050Y-103750
X193050Y-111250
X193450Y-104600
X193450Y-105772
X193450Y-129000
X193450Y-130172
X193450Y-144000
X193450Y-145172
X193450Y-151500
X193450Y-152672
X193450Y-99501
X193725Y-98164
X194022Y-99525
X195300Y-115494
X195600Y-112235
X195600Y-115780
X196000Y-107200
X196457Y-107252
X196550Y-105486
X196550Y-122400
X196550Y-129900
X196550Y-152386
X196556Y-104600
X196556Y-121500
X196556Y-129000
X196556Y-151500
X196950Y-121500
X196950Y-129000
X196961Y-109275
X196964Y-111800
X197050Y-99215
X199200Y-106450
X200400Y-146072
X200400Y-150650
X200450Y-103750
X200450Y-111250
X200450Y-115500
X200491Y-122959
X200500Y-128150
X200950Y-112100
X200950Y-115800
X200950Y-122672
X200950Y-128750
X200950Y-130172
X200950Y-151500
X200950Y-152672
X200950Y-116450
X200950Y-120650
X201236Y-121214
X201550Y-116475
X202000Y-107000
X202000Y-107600
X202550Y-102950
X202850Y-109738
X203050Y-98900
X203050Y-100850
X203500Y-109100
X203750Y-111750
X203800Y-107600
X203850Y-119800
X203875Y-122959
X203899Y-110713
X203900Y-123817
X204050Y-112050
X204150Y-127300
X204252Y-110999
X204300Y-134800
X204350Y-112350
X204350Y-142300
X204470Y-105998
X204645Y-111174
X204650Y-112650
X204799Y-106213
X204900Y-112955
X204900Y-149800
X204910Y-111466
X204936Y-106582
X205186Y-131986
X205206Y-106869
X205435Y-107189
X205743Y-107435
X205800Y-105000
X205900Y-122386
X205900Y-129886
X205900Y-137386
X205906Y-121500
X205906Y-129000
X205906Y-136500
X205921Y-107800
X205950Y-144886
X205956Y-144000
X206100Y-108157
X206339Y-123975
X206400Y-110000
X206600Y-111000
X206911Y-130459
X206950Y-123950
X207000Y-110200
X207626Y-102774
X207800Y-105200
X207800Y-112800
X208200Y-108400
X208200Y-112400
X208250Y-131425
X208600Y-103200
X208600Y-105000
X209200Y-105200
X209650Y-152386
X209656Y-151500
X209850Y-128150
X209850Y-130750
X209850Y-135650
X209850Y-143150
X209900Y-120650
X210200Y-105000
X210300Y-121500
X210300Y-122672
X210300Y-129000
X210300Y-130172
X210300Y-136500
X210300Y-137672
X210350Y-144000
X210350Y-145172
X210400Y-99000
X210400Y-100000
X210600Y-102800
X210825Y-130814
X211144Y-104950
X211150Y-103550
X211537Y-104950
X211600Y-101800
X212200Y-106400
X213400Y-122386
X213400Y-144886
X213406Y-121500
X213406Y-144000
X213450Y-129886
X213450Y-137386
X213456Y-129000
X213456Y-136500
X213500Y-146050
X213550Y-150650
X213600Y-100200
X213800Y-106800
X214000Y-101800
X214050Y-151500
X214050Y-152672
X214400Y-113800
X214411Y-123245
X214500Y-102600
X214500Y-103900
X214600Y-113400
X214800Y-105000
X214975Y-99900
X215025Y-103075
X215400Y-100400
X215850Y-100250
X215900Y-101100
X216000Y-98200
X216200Y-99800
X216900Y-99700
X217300Y-120650
X217350Y-131100
X217350Y-135650
X217350Y-143150
X217397Y-100250
X217400Y-102200
X217400Y-128150
X217450Y-145550
X217505Y-101295
X217800Y-121500
X217800Y-122672
X217800Y-144000
X217800Y-145172
X217850Y-129000
X217850Y-130172
X217850Y-136500
X217850Y-137672
X218000Y-98400
X218200Y-99700
X218275Y-130787
X218489Y-101561
X218883Y-101233
X219050Y-99750
X219200Y-101800
X219300Y-102600
X219600Y-98800
X219800Y-100200
X220400Y-102600
X220600Y-98200
X220600Y-101400
X220900Y-122386
X220900Y-144886
X220906Y-121500
X220906Y-144000
X220906Y-151500
X220921Y-152279
X220950Y-129886
X220950Y-137386
X220956Y-129000
X220956Y-136500
X221295Y-100062
X221300Y-103117
X221450Y-99700
X222200Y-101400
X222725Y-99175
X222800Y-100800
X223800Y-104400
X223850Y-105150
X224400Y-113500
X224764Y-124020
X224764Y-128136
X224800Y-105200
X224800Y-122959
X224800Y-143150
X224848Y-135652
X224850Y-120650
X224950Y-148550
X224950Y-150650
X225450Y-112450
X226800Y-112600
X227000Y-103000
X227000Y-128950
X227000Y-132250
X227050Y-103950
X227200Y-113400
X227250Y-143950
X227250Y-147250
X227600Y-104600
X227800Y-131800
X228150Y-146800
X228400Y-151250
X228400Y-152700
X228406Y-121500
X228700Y-131800
X228800Y-121500
X229094Y-146750
X229100Y-143300
X229100Y-152400
X229150Y-142750
X229300Y-128250
X229500Y-146750
X229500Y-152000
X229564Y-100964
X229600Y-127950
X230050Y-101800
X230100Y-113300
X230100Y-114250
X230400Y-105600
X231000Y-111700
X231750Y-151250
X231886Y-135686
X232000Y-100950
X232300Y-120650
X232643Y-121657
X232650Y-130050
X232800Y-105600
X234152Y-114452
T3
X232300Y-111713
X232300Y-112500
X232300Y-113287
X233087Y-111713
X233087Y-112500
X233087Y-113287
T4
X67875Y-108375
X67875Y-117750
X68813Y-147750
X69750Y-125250
X70375Y-107375
X70375Y-116750
X70687Y-132750
X71313Y-146750
X72250Y-124250
X72563Y-140250
X73187Y-131750
X75063Y-139250
X75375Y-117750
X77875Y-116750
X78187Y-147750
X79125Y-125250
X80687Y-146750
X81000Y-132750
X81625Y-124250
X82875Y-100875
X82875Y-108375
X82875Y-117750
X83500Y-131750
X84750Y-140250
X85375Y-99875
X85375Y-107375
X85375Y-116750
X86625Y-125250
X87250Y-139250
X87563Y-147750
X88500Y-132750
X89125Y-124250
X90063Y-146750
X90375Y-100875
X90375Y-108375
X90375Y-117750
X91000Y-131750
X92250Y-140250
X92875Y-99875
X92875Y-107375
X92875Y-116750
X94125Y-125250
X94750Y-139250
X96000Y-132750
X96625Y-124250
X97875Y-100875
X97875Y-108375
X97875Y-117750
X98500Y-131750
X99750Y-140250
X100375Y-99875
X100375Y-107375
X100375Y-116750
X101625Y-125250
X102250Y-139250
X103500Y-132750
X104125Y-124250
X105375Y-100875
X105375Y-108375
X105375Y-117750
X106000Y-131750
X107250Y-140250
X107875Y-99875
X107875Y-107375
X107875Y-116750
X109125Y-125250
X109750Y-139250
X111000Y-132750
X111625Y-124250
X112875Y-117750
X113500Y-131750
X114750Y-140250
X115375Y-116750
X115687Y-147750
X116625Y-108375
X116625Y-125250
X117250Y-139250
X118187Y-146750
X118500Y-132750
X119125Y-107375
X119125Y-124250
X120375Y-117750
X121000Y-131750
X122250Y-140250
X122875Y-116750
X124125Y-108375
X124125Y-125250
X124750Y-139250
X126000Y-132750
X126625Y-107375
X126625Y-124250
X127875Y-117750
X128500Y-131750
X129750Y-140250
X130375Y-116750
X131625Y-108375
X131625Y-125250
X132250Y-139250
X133500Y-132750
X134125Y-107375
X134125Y-124250
X135375Y-117750
X136000Y-131750
X137250Y-140250
X137875Y-116750
X139125Y-108375
X139125Y-125250
X139750Y-139250
X141000Y-132750
X141625Y-107375
X141625Y-124250
X142875Y-117750
X143500Y-131750
X143813Y-147750
X144750Y-140250
X145375Y-116750
X146313Y-146750
X146625Y-125250
X147250Y-139250
X148500Y-132750
X149125Y-124250
X150375Y-108375
X150375Y-117750
X151000Y-131750
X152250Y-140250
X152875Y-107375
X152875Y-116750
X153187Y-147750
X154125Y-125250
X154750Y-139250
X155687Y-146750
X156000Y-132750
X156625Y-124250
X157869Y-108374
X157875Y-117750
X158500Y-131750
X160369Y-107374
X160375Y-116750
X161625Y-125250
X162563Y-147750
X164125Y-124250
X165063Y-146750
X165375Y-108375
X166312Y-140250
X167875Y-107375
X168187Y-132750
X168812Y-139250
X169125Y-117750
X170687Y-131750
X171000Y-125250
X171625Y-116750
X171937Y-147750
X172875Y-108375
X173500Y-124250
X174437Y-146750
X175375Y-107375
X182250Y-100875
X182250Y-108375
X182250Y-117750
X182250Y-125250
X182250Y-147750
X184750Y-99875
X184750Y-107375
X184750Y-116750
X184750Y-124250
X184750Y-146750
X189750Y-100875
X189750Y-108375
X189750Y-117750
X189750Y-125250
X189750Y-140250
X189750Y-147750
X192250Y-99875
X192250Y-107375
X192250Y-116750
X192250Y-124250
X192250Y-139250
X192250Y-146750
X197250Y-100875
X197250Y-108375
X197250Y-117750
X197250Y-125250
X197250Y-147750
X199750Y-99875
X199750Y-107375
X199750Y-116750
X199750Y-124250
X199750Y-146750
X206625Y-117750
X206625Y-125250
X206625Y-132750
X206625Y-140250
X209125Y-116750
X209125Y-124250
X209125Y-131750
X209125Y-139250
X210375Y-147750
X212875Y-146750
X214125Y-117750
X214125Y-125250
X214125Y-132750
X214125Y-140250
X216625Y-116750
X216625Y-124250
X216625Y-131750
X216625Y-139250
X221625Y-117750
X221625Y-125250
X221625Y-132750
X221625Y-140250
X221625Y-147750
X224125Y-116750
X224125Y-124250
X224125Y-131750
X224125Y-139250
X224125Y-146750
X229125Y-117750
X231625Y-128500
X231625Y-143500
X231625Y-116750
X232625Y-131000
X232625Y-146000
T2
G00X229149Y-98143
M15
G01X229149Y-98379
M16
G05
G00X229149Y-99690
M15
G01X229149Y-100123
M16
G05
G00X232551Y-98143
M15
G01X232551Y-98379
M16
G05
G00X232551Y-99690
M15
G01X232551Y-100123
M16
G05
T0
M30
