M48
; DRILL file {KiCad (5.1.9)-1} date 02/01/21 17:40:33
; FORMAT={-:-/ absolute / inch / decimal}
; #@! TF.CreationDate,2021-02-01T17:40:33-05:00
; #@! TF.GenerationSoftware,Kicad,Pcbnew,(5.1.9)-1
; #@! TF.FileFunction,NonPlated,1,2,NPTH
FMAT,2
INCH
T1C0.0256
T2C0.1200
T3C0.1570
T4C0.1772
%
G90
G05
T1
X22.9712Y-9.9698
X23.1988Y-9.9698
T2
X6.9375Y-13.85
X7.875Y-13.85
X9.7502Y-14.6
X13.6872Y-14.6
X16.3125Y-13.85
X16.5Y-13.1
X16.5938Y-11.6
X17.25Y-13.85
X17.4375Y-13.1
X17.5313Y-11.6
X20.7187Y-14.6
X21.6562Y-14.6
X23.3375Y-12.5312
X23.3375Y-13.4688
X23.3375Y-14.0312
X23.3375Y-14.9688
T3
X6.9375Y-10.9375
X6.9375Y-11.875
X6.9375Y-14.45
X7.0313Y-14.875
X7.125Y-12.625
X7.2187Y-13.375
X7.4063Y-14.125
X7.6875Y-11.875
X7.875Y-14.45
X7.9687Y-14.875
X8.0625Y-12.625
X8.25Y-13.375
X8.4375Y-10.1875
X8.4375Y-10.9375
X8.4375Y-11.875
X8.625Y-14.125
X8.8125Y-12.625
X8.9063Y-14.875
X9.0Y-13.375
X9.1875Y-10.1875
X9.1875Y-10.9375
X9.1875Y-11.875
X9.375Y-14.125
X9.5625Y-12.625
X9.75Y-13.375
X9.7502Y-15.2
X9.9375Y-10.1875
X9.9375Y-10.9375
X9.9375Y-11.875
X10.125Y-14.125
X10.3125Y-12.625
X10.5Y-13.375
X10.6875Y-10.1875
X10.6875Y-10.9375
X10.6875Y-11.875
X10.875Y-14.125
X11.0625Y-12.625
X11.25Y-13.375
X11.4375Y-11.875
X11.625Y-14.125
X11.7187Y-14.875
X11.8125Y-10.9375
X11.8125Y-12.625
X12.0Y-13.375
X12.1875Y-11.875
X12.375Y-14.125
X12.5625Y-10.9375
X12.5625Y-12.625
X12.75Y-13.375
X12.9375Y-11.875
X13.125Y-14.125
X13.3125Y-10.9375
X13.3125Y-12.625
X13.5Y-13.375
X13.6872Y-15.2
X13.6875Y-11.875
X13.875Y-14.125
X14.0625Y-10.9375
X14.0625Y-12.625
X14.25Y-13.375
X14.4375Y-11.875
X14.5313Y-14.875
X14.625Y-14.125
X14.8125Y-12.625
X15.0Y-13.375
X15.1875Y-10.9375
X15.1875Y-11.875
X15.375Y-14.125
X15.4687Y-14.875
X15.5625Y-12.625
X15.75Y-13.375
X15.9369Y-10.9374
X15.9375Y-11.875
X16.3125Y-14.45
X16.3125Y-12.625
X16.4063Y-14.875
X16.5Y-13.7
X16.5938Y-12.2
X16.6875Y-10.9375
X16.7813Y-14.125
X16.9687Y-13.375
X17.0625Y-11.875
X17.25Y-12.625
X17.25Y-14.45
X17.3437Y-14.875
X17.4375Y-10.9375
X17.4375Y-13.7
X17.5313Y-12.2
X18.375Y-10.1875
X18.375Y-10.9375
X18.375Y-11.875
X18.375Y-12.625
X18.375Y-14.875
X19.125Y-10.1875
X19.125Y-10.9375
X19.125Y-11.875
X19.125Y-12.625
X19.125Y-14.125
X19.125Y-14.875
X19.875Y-10.1875
X19.875Y-10.9375
X19.875Y-11.875
X19.875Y-12.625
X19.875Y-14.875
X20.7187Y-15.2
X20.8125Y-11.875
X20.8125Y-12.625
X20.8125Y-13.375
X20.8125Y-14.125
X21.1875Y-14.875
X21.5625Y-11.875
X21.5625Y-12.625
X21.5625Y-13.375
X21.5625Y-14.125
X21.6562Y-15.2
X22.3125Y-11.875
X22.3125Y-12.625
X22.3125Y-13.375
X22.3125Y-14.125
X22.3125Y-14.875
X22.7375Y-12.5312
X22.7375Y-13.4688
X22.7375Y-14.0312
X22.7375Y-14.9688
X23.0625Y-13.0
X23.0625Y-14.5
X23.0625Y-11.875
T4
X6.9375Y-11.1563
X6.9375Y-12.0937
X7.0313Y-15.0937
X7.125Y-12.8437
X7.2187Y-13.5937
X7.4063Y-14.3437
X7.6875Y-12.0937
X7.9687Y-15.0937
X8.0625Y-12.8437
X8.25Y-13.5937
X8.4375Y-10.4063
X8.4375Y-11.1563
X8.4375Y-12.0937
X8.625Y-14.3437
X8.8125Y-12.8437
X8.9063Y-15.0937
X9.0Y-13.5937
X9.1875Y-10.4063
X9.1875Y-11.1563
X9.1875Y-12.0937
X9.375Y-14.3437
X9.5625Y-12.8437
X9.75Y-13.5937
X9.9375Y-10.4063
X9.9375Y-11.1563
X9.9375Y-12.0937
X10.125Y-14.3437
X10.3125Y-12.8437
X10.5Y-13.5937
X10.6875Y-10.4063
X10.6875Y-11.1563
X10.6875Y-12.0937
X10.875Y-14.3437
X11.0625Y-12.8437
X11.25Y-13.5937
X11.4375Y-12.0937
X11.625Y-14.3437
X11.7187Y-15.0937
X11.8125Y-11.1563
X11.8125Y-12.8437
X12.0Y-13.5937
X12.1875Y-12.0937
X12.375Y-14.3437
X12.5625Y-11.1565
X12.5625Y-12.8437
X12.75Y-13.5937
X12.9375Y-12.0937
X13.125Y-14.3437
X13.3125Y-11.1563
X13.3125Y-12.8437
X13.5Y-13.5937
X13.6875Y-12.0937
X13.875Y-14.3437
X14.0625Y-11.1563
X14.0625Y-12.8437
X14.25Y-13.5937
X14.4375Y-12.0937
X14.5313Y-15.0937
X14.625Y-14.3437
X14.8125Y-12.8437
X15.0Y-13.5937
X15.1875Y-11.1563
X15.1875Y-12.0937
X15.375Y-14.3437
X15.4687Y-15.0937
X15.5625Y-12.8437
X15.75Y-13.5937
X15.9375Y-11.1563
X15.9375Y-12.0937
X16.3125Y-12.8437
X16.4063Y-15.0937
X16.6875Y-11.1563
X16.7813Y-14.3437
X16.9687Y-13.5937
X17.0625Y-12.0937
X17.25Y-12.8437
X17.3437Y-15.0937
X17.4375Y-11.1563
X18.37Y-11.15
X18.375Y-10.4063
X18.375Y-12.0937
X18.375Y-12.8437
X18.375Y-15.0937
X19.125Y-10.405
X19.125Y-11.15
X19.125Y-12.0937
X19.125Y-12.8437
X19.125Y-14.3437
X19.125Y-15.0937
X19.875Y-10.4063
X19.875Y-11.15
X19.875Y-12.0937
X19.875Y-12.8437
X19.875Y-15.0937
X20.81Y-12.0937
X20.81Y-12.8437
X20.8125Y-13.5937
X20.8125Y-14.3437
X21.1875Y-15.0937
X21.56Y-12.0937
X21.5625Y-12.8437
X21.5625Y-13.5937
X21.5625Y-14.3437
X22.31Y-12.0937
X22.3125Y-12.8437
X22.3125Y-13.5937
X22.3125Y-14.3437
X22.3125Y-15.0937
X22.8412Y-13.005
X22.8412Y-14.51
X23.06Y-12.0937
T0
M30
