G04 #@! TF.GenerationSoftware,KiCad,Pcbnew,(5.1.10)-1*
G04 #@! TF.CreationDate,2021-05-20T12:19:27-04:00*
G04 #@! TF.ProjectId,TooManyKeys,546f6f4d-616e-4794-9b65-79732e6b6963,1.5*
G04 #@! TF.SameCoordinates,Original*
G04 #@! TF.FileFunction,Soldermask,Top*
G04 #@! TF.FilePolarity,Negative*
%FSLAX46Y46*%
G04 Gerber Fmt 4.6, Leading zero omitted, Abs format (unit mm)*
G04 Created by KiCad (PCBNEW (5.1.10)-1) date 2021-05-20 12:19:27*
%MOMM*%
%LPD*%
G01*
G04 APERTURE LIST*
%ADD10C,3.987800*%
%ADD11C,3.048000*%
%ADD12C,4.500000*%
%ADD13C,1.300000*%
%ADD14C,0.650000*%
%ADD15O,1.000000X2.100000*%
%ADD16O,1.000000X1.600000*%
G04 APERTURE END LIST*
D10*
X438150000Y-367030000D03*
X414337500Y-367030000D03*
D11*
X438150000Y-351790000D03*
X414337500Y-351790000D03*
D10*
X426243750Y-358775000D03*
X347662000Y-301625000D03*
X442912000Y-277812000D03*
X271462000Y-301625000D03*
X176212000Y-301625000D03*
X252412000Y-258762000D03*
X214312000Y-258762000D03*
X271462000Y-258762000D03*
X423862000Y-277812000D03*
X319088000Y-277812000D03*
X466725000Y-258762000D03*
X233362000Y-277812000D03*
X314325000Y-358775000D03*
X504825000Y-320675000D03*
X504825000Y-377825000D03*
X219075000Y-358775000D03*
X300038000Y-320675000D03*
X238125000Y-358775000D03*
X223838000Y-320675000D03*
X485775000Y-258762000D03*
X504825000Y-258762000D03*
X276225000Y-358775000D03*
X485775000Y-358775000D03*
X319088000Y-320675000D03*
X280988000Y-320675000D03*
X233362000Y-258762000D03*
X390525000Y-358775000D03*
X485775000Y-277812000D03*
X381000000Y-339725000D03*
X228600000Y-339725000D03*
X414338000Y-320675000D03*
X261938000Y-320675000D03*
X400050000Y-339725000D03*
X204788000Y-320675000D03*
X466725000Y-277812000D03*
X504825000Y-301625000D03*
X566738000Y-377825000D03*
X504825000Y-277812000D03*
X547688000Y-301625000D03*
X585788000Y-301625000D03*
X566738000Y-301625000D03*
X376238000Y-320675000D03*
X566738000Y-320675000D03*
X547688000Y-320675000D03*
X528638000Y-320675000D03*
X566738000Y-339725000D03*
X547688000Y-339725000D03*
X528638000Y-339725000D03*
X566738000Y-358775000D03*
X547688000Y-358775000D03*
X528638000Y-358775000D03*
X357188000Y-320675000D03*
X528638000Y-301625000D03*
X385762000Y-301625000D03*
X333375000Y-358775000D03*
X466725000Y-377825000D03*
X395288000Y-320675000D03*
X361950000Y-339725000D03*
X342900000Y-339725000D03*
X323850000Y-339725000D03*
X466725000Y-301625000D03*
X338138000Y-320675000D03*
X485775000Y-301625000D03*
X304800000Y-339725000D03*
X285750000Y-339725000D03*
X266700000Y-339725000D03*
X385762000Y-277812000D03*
X357188000Y-277812000D03*
X338138000Y-277812000D03*
X300038000Y-277812000D03*
X271462000Y-277812000D03*
X252412000Y-277812000D03*
X214312000Y-277812000D03*
X176212000Y-277812000D03*
X404812000Y-301625000D03*
X485775000Y-320675000D03*
X242888000Y-320675000D03*
X485775000Y-377825000D03*
X371475000Y-358775000D03*
X466725000Y-320675000D03*
X247650000Y-339725000D03*
X352425000Y-358775000D03*
X257175000Y-358775000D03*
X295275000Y-358775000D03*
X209550000Y-339725000D03*
X328612000Y-301625000D03*
X309562000Y-301625000D03*
X290512000Y-301625000D03*
X252412000Y-301625000D03*
X233362000Y-301625000D03*
X214312000Y-301625000D03*
X195262000Y-301625000D03*
X366712000Y-301625000D03*
X404797260Y-277809960D03*
D12*
X176212000Y-283369000D03*
X323850000Y-345281000D03*
X585724000Y-307181000D03*
X504825000Y-283210000D03*
X342900000Y-345281000D03*
X580167000Y-330327000D03*
X580167000Y-368554000D03*
X566738000Y-383381000D03*
X538162000Y-383381000D03*
X504825000Y-383381000D03*
X485775000Y-383381000D03*
X466725000Y-383381000D03*
X440531000Y-383381000D03*
X416719000Y-383381000D03*
X392906000Y-383381000D03*
X369094000Y-383381000D03*
X297656000Y-383381000D03*
X226219000Y-383381000D03*
X202406000Y-383381000D03*
X178594000Y-383381000D03*
X566738000Y-364331000D03*
X547688000Y-364331000D03*
X528638000Y-364331000D03*
X485775000Y-364331000D03*
X426244000Y-364331000D03*
X390525000Y-364331000D03*
X371475000Y-364331000D03*
X352425000Y-364331000D03*
X333375000Y-364331000D03*
X314325000Y-364331000D03*
X295275000Y-364331000D03*
X276225000Y-364331000D03*
X257175000Y-364331000D03*
X238125000Y-364331000D03*
X219075000Y-364331000D03*
X188119000Y-364331000D03*
X566738000Y-345281000D03*
X547688000Y-345281000D03*
X528638000Y-345281000D03*
X431006000Y-345281000D03*
X400050000Y-345281000D03*
X381000000Y-345281000D03*
X361950000Y-345281000D03*
X304800000Y-345281000D03*
X285750000Y-345281000D03*
X266700000Y-345281000D03*
X247650000Y-345281000D03*
X228600000Y-345281000D03*
X209550000Y-345281000D03*
X183356000Y-345281000D03*
X485775000Y-326231000D03*
X466725000Y-326231000D03*
X438150000Y-326231000D03*
X414338000Y-326230000D03*
X395288000Y-326231000D03*
X376238000Y-326231000D03*
X357188000Y-326231000D03*
X338138000Y-326231000D03*
X319088000Y-326231000D03*
X300038000Y-326231000D03*
X280988000Y-326231000D03*
X261938000Y-326231000D03*
X242888000Y-326231000D03*
X223838000Y-326231000D03*
X204788000Y-326231000D03*
X180975000Y-326231000D03*
X504825000Y-326231000D03*
X528574000Y-326231000D03*
X547688000Y-326231000D03*
X566738000Y-326231000D03*
X566674000Y-307181000D03*
X547624000Y-307181000D03*
X528574000Y-307181000D03*
X504825000Y-307181000D03*
X485775000Y-307181000D03*
X466725000Y-307181000D03*
X433388000Y-307181000D03*
X404812000Y-307181000D03*
X385762000Y-307181000D03*
X366712000Y-307181000D03*
X347662000Y-307181000D03*
X328612000Y-307181000D03*
X309562000Y-307181000D03*
X290512000Y-307181000D03*
X271462000Y-307181000D03*
X252412000Y-307181000D03*
X233362000Y-307181000D03*
X214312000Y-307181000D03*
X195262000Y-307181000D03*
X176212000Y-307181000D03*
X485775000Y-283210000D03*
X466598000Y-283210000D03*
X442912000Y-283369000D03*
X423862000Y-283369000D03*
X404812000Y-283369000D03*
X385762000Y-283369000D03*
X357188000Y-283369000D03*
X338138000Y-283369000D03*
X319088000Y-283374000D03*
X300038000Y-283369000D03*
X271462000Y-283369000D03*
X252412000Y-283369000D03*
X233362000Y-283369000D03*
X214312000Y-283369000D03*
X504825000Y-264319000D03*
X485775000Y-264287000D03*
X466725000Y-264319000D03*
X271462000Y-264319000D03*
X252412000Y-264319000D03*
X233362000Y-264319000D03*
X214312000Y-264319000D03*
D10*
X431006000Y-339725000D03*
D11*
X419099750Y-332740000D03*
X442912250Y-332740000D03*
D10*
X419099750Y-347980000D03*
X442912250Y-347980000D03*
X180975000Y-320675000D03*
X438150000Y-320675000D03*
X183356000Y-339725000D03*
X188119000Y-358775000D03*
D11*
X176212750Y-351790000D03*
X200025250Y-351790000D03*
D10*
X176212750Y-367030000D03*
X200025250Y-367030000D03*
X297656000Y-377825000D03*
D11*
X247656100Y-370840000D03*
X347655900Y-370840000D03*
D10*
X247656100Y-386080000D03*
X347655900Y-386080000D03*
X585787500Y-330200000D03*
D11*
X592772500Y-318293750D03*
X592772500Y-342106250D03*
D10*
X577532500Y-318293750D03*
X577532500Y-342106250D03*
X585787500Y-368300000D03*
D11*
X592772500Y-356393750D03*
X592772500Y-380206250D03*
D10*
X577532500Y-356393750D03*
X577532500Y-380206250D03*
X538162000Y-377825000D03*
D11*
X526255750Y-370840000D03*
X550068250Y-370840000D03*
D10*
X526255750Y-386080000D03*
X550068250Y-386080000D03*
X433388000Y-301625000D03*
D11*
X421481750Y-294640000D03*
X445294250Y-294640000D03*
D10*
X421481750Y-309880000D03*
X445294250Y-309880000D03*
X440531000Y-377825000D03*
X392906000Y-377825000D03*
X369094000Y-377825000D03*
X416719000Y-377825000D03*
X202406000Y-377825000D03*
X178594000Y-377825000D03*
X226219000Y-377825000D03*
D13*
X592042000Y-283750000D03*
X590042000Y-283750000D03*
X592042000Y-285750000D03*
X590042000Y-285750000D03*
X592042000Y-287750000D03*
X590042000Y-287750000D03*
D14*
X589249000Y-253233000D03*
X583469000Y-253233000D03*
D15*
X582039000Y-253763000D03*
X590679000Y-253763000D03*
D16*
X582039000Y-249583000D03*
X590679000Y-249583000D03*
M02*
