G04 #@! TF.GenerationSoftware,KiCad,Pcbnew,(5.1.9)-1*
G04 #@! TF.CreationDate,2021-02-01T14:50:25-05:00*
G04 #@! TF.ProjectId,TooManyKeys,546f6f4d-616e-4794-9b65-79732e6b6963,rev?*
G04 #@! TF.SameCoordinates,Original*
G04 #@! TF.FileFunction,Soldermask,Bot*
G04 #@! TF.FilePolarity,Negative*
%FSLAX46Y46*%
G04 Gerber Fmt 4.6, Leading zero omitted, Abs format (unit mm)*
G04 Created by KiCad (PCBNEW (5.1.9)-1) date 2021-02-01 14:50:25*
%MOMM*%
%LPD*%
G01*
G04 APERTURE LIST*
%ADD10C,2.250000*%
%ADD11C,3.987800*%
%ADD12C,3.048000*%
%ADD13C,0.100000*%
%ADD14C,4.500000*%
%ADD15R,1.400000X0.800000*%
%ADD16R,0.800000X1.400000*%
%ADD17R,2.400000X2.400000*%
%ADD18R,0.300000X1.200000*%
%ADD19C,1.300000*%
%ADD20R,1.800000X1.100000*%
%ADD21R,0.600000X1.450000*%
%ADD22R,0.300000X1.450000*%
%ADD23C,0.650000*%
%ADD24R,2.000000X1.500000*%
%ADD25R,2.000000X3.800000*%
%ADD26R,0.850000X0.300000*%
%ADD27R,1.475000X0.600000*%
%ADD28R,0.600000X1.475000*%
%ADD29R,0.700000X1.000000*%
%ADD30R,0.700000X0.600000*%
%ADD31R,1.200000X0.900000*%
%ADD32R,0.900000X1.200000*%
G04 APERTURE END LIST*
D10*
G04 #@! TO.C,MX_ENT1*
X433546000Y-334645000D03*
D11*
X431006000Y-339725000D03*
D10*
X427196000Y-337185000D03*
D12*
X419099750Y-332740000D03*
X442912250Y-332740000D03*
D11*
X419099750Y-347980000D03*
X442912250Y-347980000D03*
G04 #@! TD*
D10*
G04 #@! TO.C,MX_F10*
X400987260Y-275269960D03*
D11*
X404797260Y-277809960D03*
D10*
X407337260Y-272729960D03*
G04 #@! TD*
D13*
G04 #@! TO.C,MASTER_U1*
G36*
X328676000Y-261510214D02*
G01*
X327261786Y-260096000D01*
X328676000Y-258681786D01*
X330090214Y-260096000D01*
X328676000Y-261510214D01*
G37*
G36*
X330143600Y-265664819D02*
G01*
X329100618Y-264621837D01*
X329312750Y-264409705D01*
X330355732Y-265452687D01*
X330143600Y-265664819D01*
G37*
G36*
X330497153Y-265311266D02*
G01*
X329454171Y-264268284D01*
X329666303Y-264056152D01*
X330709285Y-265099134D01*
X330497153Y-265311266D01*
G37*
G36*
X330850707Y-264957712D02*
G01*
X329807725Y-263914730D01*
X330019857Y-263702598D01*
X331062839Y-264745580D01*
X330850707Y-264957712D01*
G37*
G36*
X331204260Y-264604159D02*
G01*
X330161278Y-263561177D01*
X330373410Y-263349045D01*
X331416392Y-264392027D01*
X331204260Y-264604159D01*
G37*
G36*
X331557813Y-264250606D02*
G01*
X330514831Y-263207624D01*
X330726963Y-262995492D01*
X331769945Y-264038474D01*
X331557813Y-264250606D01*
G37*
G36*
X331911367Y-263897052D02*
G01*
X330868385Y-262854070D01*
X331080517Y-262641938D01*
X332123499Y-263684920D01*
X331911367Y-263897052D01*
G37*
G36*
X332264920Y-263543499D02*
G01*
X331221938Y-262500517D01*
X331434070Y-262288385D01*
X332477052Y-263331367D01*
X332264920Y-263543499D01*
G37*
G36*
X332618474Y-263189945D02*
G01*
X331575492Y-262146963D01*
X331787624Y-261934831D01*
X332830606Y-262977813D01*
X332618474Y-263189945D01*
G37*
G36*
X332972027Y-262836392D02*
G01*
X331929045Y-261793410D01*
X332141177Y-261581278D01*
X333184159Y-262624260D01*
X332972027Y-262836392D01*
G37*
G36*
X333325580Y-262482839D02*
G01*
X332282598Y-261439857D01*
X332494730Y-261227725D01*
X333537712Y-262270707D01*
X333325580Y-262482839D01*
G37*
G36*
X333679134Y-262129285D02*
G01*
X332636152Y-261086303D01*
X332848284Y-260874171D01*
X333891266Y-261917153D01*
X333679134Y-262129285D01*
G37*
G36*
X334032687Y-261775732D02*
G01*
X332989705Y-260732750D01*
X333201837Y-260520618D01*
X334244819Y-261563600D01*
X334032687Y-261775732D01*
G37*
G36*
X332989705Y-259459250D02*
G01*
X334032687Y-258416268D01*
X334244819Y-258628400D01*
X333201837Y-259671382D01*
X332989705Y-259459250D01*
G37*
G36*
X332636152Y-259105697D02*
G01*
X333679134Y-258062715D01*
X333891266Y-258274847D01*
X332848284Y-259317829D01*
X332636152Y-259105697D01*
G37*
G36*
X332282598Y-258752143D02*
G01*
X333325580Y-257709161D01*
X333537712Y-257921293D01*
X332494730Y-258964275D01*
X332282598Y-258752143D01*
G37*
G36*
X331929045Y-258398590D02*
G01*
X332972027Y-257355608D01*
X333184159Y-257567740D01*
X332141177Y-258610722D01*
X331929045Y-258398590D01*
G37*
G36*
X331575492Y-258045037D02*
G01*
X332618474Y-257002055D01*
X332830606Y-257214187D01*
X331787624Y-258257169D01*
X331575492Y-258045037D01*
G37*
G36*
X331221938Y-257691483D02*
G01*
X332264920Y-256648501D01*
X332477052Y-256860633D01*
X331434070Y-257903615D01*
X331221938Y-257691483D01*
G37*
G36*
X330868385Y-257337930D02*
G01*
X331911367Y-256294948D01*
X332123499Y-256507080D01*
X331080517Y-257550062D01*
X330868385Y-257337930D01*
G37*
G36*
X330514831Y-256984376D02*
G01*
X331557813Y-255941394D01*
X331769945Y-256153526D01*
X330726963Y-257196508D01*
X330514831Y-256984376D01*
G37*
G36*
X330161278Y-256630823D02*
G01*
X331204260Y-255587841D01*
X331416392Y-255799973D01*
X330373410Y-256842955D01*
X330161278Y-256630823D01*
G37*
G36*
X329807725Y-256277270D02*
G01*
X330850707Y-255234288D01*
X331062839Y-255446420D01*
X330019857Y-256489402D01*
X329807725Y-256277270D01*
G37*
G36*
X329454171Y-255923716D02*
G01*
X330497153Y-254880734D01*
X330709285Y-255092866D01*
X329666303Y-256135848D01*
X329454171Y-255923716D01*
G37*
G36*
X329100618Y-255570163D02*
G01*
X330143600Y-254527181D01*
X330355732Y-254739313D01*
X329312750Y-255782295D01*
X329100618Y-255570163D01*
G37*
G36*
X328039250Y-255782295D02*
G01*
X326996268Y-254739313D01*
X327208400Y-254527181D01*
X328251382Y-255570163D01*
X328039250Y-255782295D01*
G37*
G36*
X327685697Y-256135848D02*
G01*
X326642715Y-255092866D01*
X326854847Y-254880734D01*
X327897829Y-255923716D01*
X327685697Y-256135848D01*
G37*
G36*
X327332143Y-256489402D02*
G01*
X326289161Y-255446420D01*
X326501293Y-255234288D01*
X327544275Y-256277270D01*
X327332143Y-256489402D01*
G37*
G36*
X326978590Y-256842955D02*
G01*
X325935608Y-255799973D01*
X326147740Y-255587841D01*
X327190722Y-256630823D01*
X326978590Y-256842955D01*
G37*
G36*
X326625037Y-257196508D02*
G01*
X325582055Y-256153526D01*
X325794187Y-255941394D01*
X326837169Y-256984376D01*
X326625037Y-257196508D01*
G37*
G36*
X326271483Y-257550062D02*
G01*
X325228501Y-256507080D01*
X325440633Y-256294948D01*
X326483615Y-257337930D01*
X326271483Y-257550062D01*
G37*
G36*
X325917930Y-257903615D02*
G01*
X324874948Y-256860633D01*
X325087080Y-256648501D01*
X326130062Y-257691483D01*
X325917930Y-257903615D01*
G37*
G36*
X325564376Y-258257169D02*
G01*
X324521394Y-257214187D01*
X324733526Y-257002055D01*
X325776508Y-258045037D01*
X325564376Y-258257169D01*
G37*
G36*
X325210823Y-258610722D02*
G01*
X324167841Y-257567740D01*
X324379973Y-257355608D01*
X325422955Y-258398590D01*
X325210823Y-258610722D01*
G37*
G36*
X324857270Y-258964275D02*
G01*
X323814288Y-257921293D01*
X324026420Y-257709161D01*
X325069402Y-258752143D01*
X324857270Y-258964275D01*
G37*
G36*
X324503716Y-259317829D02*
G01*
X323460734Y-258274847D01*
X323672866Y-258062715D01*
X324715848Y-259105697D01*
X324503716Y-259317829D01*
G37*
G36*
X324150163Y-259671382D02*
G01*
X323107181Y-258628400D01*
X323319313Y-258416268D01*
X324362295Y-259459250D01*
X324150163Y-259671382D01*
G37*
G36*
X323107181Y-261563600D02*
G01*
X324150163Y-260520618D01*
X324362295Y-260732750D01*
X323319313Y-261775732D01*
X323107181Y-261563600D01*
G37*
G36*
X323460734Y-261917153D02*
G01*
X324503716Y-260874171D01*
X324715848Y-261086303D01*
X323672866Y-262129285D01*
X323460734Y-261917153D01*
G37*
G36*
X323814288Y-262270707D02*
G01*
X324857270Y-261227725D01*
X325069402Y-261439857D01*
X324026420Y-262482839D01*
X323814288Y-262270707D01*
G37*
G36*
X324167841Y-262624260D02*
G01*
X325210823Y-261581278D01*
X325422955Y-261793410D01*
X324379973Y-262836392D01*
X324167841Y-262624260D01*
G37*
G36*
X324521394Y-262977813D02*
G01*
X325564376Y-261934831D01*
X325776508Y-262146963D01*
X324733526Y-263189945D01*
X324521394Y-262977813D01*
G37*
G36*
X324874948Y-263331367D02*
G01*
X325917930Y-262288385D01*
X326130062Y-262500517D01*
X325087080Y-263543499D01*
X324874948Y-263331367D01*
G37*
G36*
X325228501Y-263684920D02*
G01*
X326271483Y-262641938D01*
X326483615Y-262854070D01*
X325440633Y-263897052D01*
X325228501Y-263684920D01*
G37*
G36*
X325582055Y-264038474D02*
G01*
X326625037Y-262995492D01*
X326837169Y-263207624D01*
X325794187Y-264250606D01*
X325582055Y-264038474D01*
G37*
G36*
X325935608Y-264392027D02*
G01*
X326978590Y-263349045D01*
X327190722Y-263561177D01*
X326147740Y-264604159D01*
X325935608Y-264392027D01*
G37*
G36*
X326289161Y-264745580D02*
G01*
X327332143Y-263702598D01*
X327544275Y-263914730D01*
X326501293Y-264957712D01*
X326289161Y-264745580D01*
G37*
G36*
X326642715Y-265099134D02*
G01*
X327685697Y-264056152D01*
X327897829Y-264268284D01*
X326854847Y-265311266D01*
X326642715Y-265099134D01*
G37*
G36*
X326996268Y-265452687D02*
G01*
X328039250Y-264409705D01*
X328251382Y-264621837D01*
X327208400Y-265664819D01*
X326996268Y-265452687D01*
G37*
G04 #@! TD*
D10*
G04 #@! TO.C,MX_9*
X350202000Y-296545000D03*
D11*
X347662000Y-301625000D03*
D10*
X343852000Y-299085000D03*
G04 #@! TD*
G04 #@! TO.C,MX_F12*
X445452000Y-272732000D03*
D11*
X442912000Y-277812000D03*
D10*
X439102000Y-275272000D03*
G04 #@! TD*
G04 #@! TO.C,MX_5*
X274002000Y-296545000D03*
D11*
X271462000Y-301625000D03*
D10*
X267652000Y-299085000D03*
G04 #@! TD*
D14*
G04 #@! TO.C,LED72*
X342900000Y-345281000D03*
D15*
X345500000Y-344556000D03*
X340300000Y-344556000D03*
X340300000Y-346006000D03*
X345500000Y-346006000D03*
G04 #@! TD*
D10*
G04 #@! TO.C,MX_GRV1*
X178752000Y-296545000D03*
D11*
X176212000Y-301625000D03*
D10*
X172402000Y-299085000D03*
G04 #@! TD*
G04 #@! TO.C,MX_PREV1*
X254952000Y-253682000D03*
D11*
X252412000Y-258762000D03*
D10*
X248602000Y-256222000D03*
G04 #@! TD*
G04 #@! TO.C,MX_PLAY1*
X216852000Y-253682000D03*
D11*
X214312000Y-258762000D03*
D10*
X210502000Y-256222000D03*
G04 #@! TD*
G04 #@! TO.C,MX_NEXT1*
X274002000Y-253682000D03*
D11*
X271462000Y-258762000D03*
D10*
X267652000Y-256222000D03*
G04 #@! TD*
D13*
G04 #@! TO.C,SLAVE_U1*
G36*
X415942214Y-259842000D02*
G01*
X414528000Y-261256214D01*
X413113786Y-259842000D01*
X414528000Y-258427786D01*
X415942214Y-259842000D01*
G37*
G36*
X420096819Y-258374400D02*
G01*
X419053837Y-259417382D01*
X418841705Y-259205250D01*
X419884687Y-258162268D01*
X420096819Y-258374400D01*
G37*
G36*
X419743266Y-258020847D02*
G01*
X418700284Y-259063829D01*
X418488152Y-258851697D01*
X419531134Y-257808715D01*
X419743266Y-258020847D01*
G37*
G36*
X419389712Y-257667293D02*
G01*
X418346730Y-258710275D01*
X418134598Y-258498143D01*
X419177580Y-257455161D01*
X419389712Y-257667293D01*
G37*
G36*
X419036159Y-257313740D02*
G01*
X417993177Y-258356722D01*
X417781045Y-258144590D01*
X418824027Y-257101608D01*
X419036159Y-257313740D01*
G37*
G36*
X418682606Y-256960187D02*
G01*
X417639624Y-258003169D01*
X417427492Y-257791037D01*
X418470474Y-256748055D01*
X418682606Y-256960187D01*
G37*
G36*
X418329052Y-256606633D02*
G01*
X417286070Y-257649615D01*
X417073938Y-257437483D01*
X418116920Y-256394501D01*
X418329052Y-256606633D01*
G37*
G36*
X417975499Y-256253080D02*
G01*
X416932517Y-257296062D01*
X416720385Y-257083930D01*
X417763367Y-256040948D01*
X417975499Y-256253080D01*
G37*
G36*
X417621945Y-255899526D02*
G01*
X416578963Y-256942508D01*
X416366831Y-256730376D01*
X417409813Y-255687394D01*
X417621945Y-255899526D01*
G37*
G36*
X417268392Y-255545973D02*
G01*
X416225410Y-256588955D01*
X416013278Y-256376823D01*
X417056260Y-255333841D01*
X417268392Y-255545973D01*
G37*
G36*
X416914839Y-255192420D02*
G01*
X415871857Y-256235402D01*
X415659725Y-256023270D01*
X416702707Y-254980288D01*
X416914839Y-255192420D01*
G37*
G36*
X416561285Y-254838866D02*
G01*
X415518303Y-255881848D01*
X415306171Y-255669716D01*
X416349153Y-254626734D01*
X416561285Y-254838866D01*
G37*
G36*
X416207732Y-254485313D02*
G01*
X415164750Y-255528295D01*
X414952618Y-255316163D01*
X415995600Y-254273181D01*
X416207732Y-254485313D01*
G37*
G36*
X413891250Y-255528295D02*
G01*
X412848268Y-254485313D01*
X413060400Y-254273181D01*
X414103382Y-255316163D01*
X413891250Y-255528295D01*
G37*
G36*
X413537697Y-255881848D02*
G01*
X412494715Y-254838866D01*
X412706847Y-254626734D01*
X413749829Y-255669716D01*
X413537697Y-255881848D01*
G37*
G36*
X413184143Y-256235402D02*
G01*
X412141161Y-255192420D01*
X412353293Y-254980288D01*
X413396275Y-256023270D01*
X413184143Y-256235402D01*
G37*
G36*
X412830590Y-256588955D02*
G01*
X411787608Y-255545973D01*
X411999740Y-255333841D01*
X413042722Y-256376823D01*
X412830590Y-256588955D01*
G37*
G36*
X412477037Y-256942508D02*
G01*
X411434055Y-255899526D01*
X411646187Y-255687394D01*
X412689169Y-256730376D01*
X412477037Y-256942508D01*
G37*
G36*
X412123483Y-257296062D02*
G01*
X411080501Y-256253080D01*
X411292633Y-256040948D01*
X412335615Y-257083930D01*
X412123483Y-257296062D01*
G37*
G36*
X411769930Y-257649615D02*
G01*
X410726948Y-256606633D01*
X410939080Y-256394501D01*
X411982062Y-257437483D01*
X411769930Y-257649615D01*
G37*
G36*
X411416376Y-258003169D02*
G01*
X410373394Y-256960187D01*
X410585526Y-256748055D01*
X411628508Y-257791037D01*
X411416376Y-258003169D01*
G37*
G36*
X411062823Y-258356722D02*
G01*
X410019841Y-257313740D01*
X410231973Y-257101608D01*
X411274955Y-258144590D01*
X411062823Y-258356722D01*
G37*
G36*
X410709270Y-258710275D02*
G01*
X409666288Y-257667293D01*
X409878420Y-257455161D01*
X410921402Y-258498143D01*
X410709270Y-258710275D01*
G37*
G36*
X410355716Y-259063829D02*
G01*
X409312734Y-258020847D01*
X409524866Y-257808715D01*
X410567848Y-258851697D01*
X410355716Y-259063829D01*
G37*
G36*
X410002163Y-259417382D02*
G01*
X408959181Y-258374400D01*
X409171313Y-258162268D01*
X410214295Y-259205250D01*
X410002163Y-259417382D01*
G37*
G36*
X410214295Y-260478750D02*
G01*
X409171313Y-261521732D01*
X408959181Y-261309600D01*
X410002163Y-260266618D01*
X410214295Y-260478750D01*
G37*
G36*
X410567848Y-260832303D02*
G01*
X409524866Y-261875285D01*
X409312734Y-261663153D01*
X410355716Y-260620171D01*
X410567848Y-260832303D01*
G37*
G36*
X410921402Y-261185857D02*
G01*
X409878420Y-262228839D01*
X409666288Y-262016707D01*
X410709270Y-260973725D01*
X410921402Y-261185857D01*
G37*
G36*
X411274955Y-261539410D02*
G01*
X410231973Y-262582392D01*
X410019841Y-262370260D01*
X411062823Y-261327278D01*
X411274955Y-261539410D01*
G37*
G36*
X411628508Y-261892963D02*
G01*
X410585526Y-262935945D01*
X410373394Y-262723813D01*
X411416376Y-261680831D01*
X411628508Y-261892963D01*
G37*
G36*
X411982062Y-262246517D02*
G01*
X410939080Y-263289499D01*
X410726948Y-263077367D01*
X411769930Y-262034385D01*
X411982062Y-262246517D01*
G37*
G36*
X412335615Y-262600070D02*
G01*
X411292633Y-263643052D01*
X411080501Y-263430920D01*
X412123483Y-262387938D01*
X412335615Y-262600070D01*
G37*
G36*
X412689169Y-262953624D02*
G01*
X411646187Y-263996606D01*
X411434055Y-263784474D01*
X412477037Y-262741492D01*
X412689169Y-262953624D01*
G37*
G36*
X413042722Y-263307177D02*
G01*
X411999740Y-264350159D01*
X411787608Y-264138027D01*
X412830590Y-263095045D01*
X413042722Y-263307177D01*
G37*
G36*
X413396275Y-263660730D02*
G01*
X412353293Y-264703712D01*
X412141161Y-264491580D01*
X413184143Y-263448598D01*
X413396275Y-263660730D01*
G37*
G36*
X413749829Y-264014284D02*
G01*
X412706847Y-265057266D01*
X412494715Y-264845134D01*
X413537697Y-263802152D01*
X413749829Y-264014284D01*
G37*
G36*
X414103382Y-264367837D02*
G01*
X413060400Y-265410819D01*
X412848268Y-265198687D01*
X413891250Y-264155705D01*
X414103382Y-264367837D01*
G37*
G36*
X415995600Y-265410819D02*
G01*
X414952618Y-264367837D01*
X415164750Y-264155705D01*
X416207732Y-265198687D01*
X415995600Y-265410819D01*
G37*
G36*
X416349153Y-265057266D02*
G01*
X415306171Y-264014284D01*
X415518303Y-263802152D01*
X416561285Y-264845134D01*
X416349153Y-265057266D01*
G37*
G36*
X416702707Y-264703712D02*
G01*
X415659725Y-263660730D01*
X415871857Y-263448598D01*
X416914839Y-264491580D01*
X416702707Y-264703712D01*
G37*
G36*
X417056260Y-264350159D02*
G01*
X416013278Y-263307177D01*
X416225410Y-263095045D01*
X417268392Y-264138027D01*
X417056260Y-264350159D01*
G37*
G36*
X417409813Y-263996606D02*
G01*
X416366831Y-262953624D01*
X416578963Y-262741492D01*
X417621945Y-263784474D01*
X417409813Y-263996606D01*
G37*
G36*
X417763367Y-263643052D02*
G01*
X416720385Y-262600070D01*
X416932517Y-262387938D01*
X417975499Y-263430920D01*
X417763367Y-263643052D01*
G37*
G36*
X418116920Y-263289499D02*
G01*
X417073938Y-262246517D01*
X417286070Y-262034385D01*
X418329052Y-263077367D01*
X418116920Y-263289499D01*
G37*
G36*
X418470474Y-262935945D02*
G01*
X417427492Y-261892963D01*
X417639624Y-261680831D01*
X418682606Y-262723813D01*
X418470474Y-262935945D01*
G37*
G36*
X418824027Y-262582392D02*
G01*
X417781045Y-261539410D01*
X417993177Y-261327278D01*
X419036159Y-262370260D01*
X418824027Y-262582392D01*
G37*
G36*
X419177580Y-262228839D02*
G01*
X418134598Y-261185857D01*
X418346730Y-260973725D01*
X419389712Y-262016707D01*
X419177580Y-262228839D01*
G37*
G36*
X419531134Y-261875285D02*
G01*
X418488152Y-260832303D01*
X418700284Y-260620171D01*
X419743266Y-261663153D01*
X419531134Y-261875285D01*
G37*
G36*
X419884687Y-261521732D02*
G01*
X418841705Y-260478750D01*
X419053837Y-260266618D01*
X420096819Y-261309600D01*
X419884687Y-261521732D01*
G37*
G04 #@! TD*
D10*
G04 #@! TO.C,MX_F11*
X426402000Y-272732000D03*
D11*
X423862000Y-277812000D03*
D10*
X420052000Y-275272000D03*
G04 #@! TD*
G04 #@! TO.C,MX_F6*
X321628000Y-272732000D03*
D11*
X319088000Y-277812000D03*
D10*
X315278000Y-275272000D03*
G04 #@! TD*
G04 #@! TO.C,MX_MUTE1*
X469265000Y-253682000D03*
D11*
X466725000Y-258762000D03*
D10*
X462915000Y-256222000D03*
G04 #@! TD*
G04 #@! TO.C,MX_F2*
X235902000Y-272732000D03*
D11*
X233362000Y-277812000D03*
D10*
X229552000Y-275272000D03*
G04 #@! TD*
D14*
G04 #@! TO.C,LED111*
X585724000Y-307181000D03*
D15*
X588324000Y-306456000D03*
X583124000Y-306456000D03*
X583124000Y-307906000D03*
X588324000Y-307906000D03*
G04 #@! TD*
D14*
G04 #@! TO.C,LED110*
X580167000Y-330327000D03*
D16*
X580892000Y-332927000D03*
X580892000Y-327727000D03*
X579442000Y-327727000D03*
X579442000Y-332927000D03*
G04 #@! TD*
D14*
G04 #@! TO.C,LED109*
X580167000Y-368554000D03*
D16*
X580892000Y-371154000D03*
X580892000Y-365954000D03*
X579442000Y-365954000D03*
X579442000Y-371154000D03*
G04 #@! TD*
D14*
G04 #@! TO.C,LED108*
X566738000Y-383381000D03*
D15*
X569338000Y-382656000D03*
X564138000Y-382656000D03*
X564138000Y-384106000D03*
X569338000Y-384106000D03*
G04 #@! TD*
D14*
G04 #@! TO.C,LED107*
X538162000Y-383381000D03*
D15*
X540762000Y-382656000D03*
X535562000Y-382656000D03*
X535562000Y-384106000D03*
X540762000Y-384106000D03*
G04 #@! TD*
D14*
G04 #@! TO.C,LED106*
X504825000Y-383381000D03*
D15*
X507425000Y-382656000D03*
X502225000Y-382656000D03*
X502225000Y-384106000D03*
X507425000Y-384106000D03*
G04 #@! TD*
D14*
G04 #@! TO.C,LED105*
X485775000Y-383381000D03*
D15*
X488375000Y-382656000D03*
X483175000Y-382656000D03*
X483175000Y-384106000D03*
X488375000Y-384106000D03*
G04 #@! TD*
D14*
G04 #@! TO.C,LED104*
X466725000Y-383381000D03*
D15*
X469325000Y-382656000D03*
X464125000Y-382656000D03*
X464125000Y-384106000D03*
X469325000Y-384106000D03*
G04 #@! TD*
D14*
G04 #@! TO.C,LED103*
X440531000Y-383381000D03*
D15*
X443131000Y-382656000D03*
X437931000Y-382656000D03*
X437931000Y-384106000D03*
X443131000Y-384106000D03*
G04 #@! TD*
D14*
G04 #@! TO.C,LED102*
X416719000Y-383381000D03*
D15*
X419319000Y-382656000D03*
X414119000Y-382656000D03*
X414119000Y-384106000D03*
X419319000Y-384106000D03*
G04 #@! TD*
D14*
G04 #@! TO.C,LED101*
X392906000Y-383381000D03*
D15*
X395506000Y-382656000D03*
X390306000Y-382656000D03*
X390306000Y-384106000D03*
X395506000Y-384106000D03*
G04 #@! TD*
D14*
G04 #@! TO.C,LED100*
X369094000Y-383381000D03*
D15*
X371694000Y-382656000D03*
X366494000Y-382656000D03*
X366494000Y-384106000D03*
X371694000Y-384106000D03*
G04 #@! TD*
D14*
G04 #@! TO.C,LED99*
X297656000Y-383381000D03*
D15*
X300256000Y-382656000D03*
X295056000Y-382656000D03*
X295056000Y-384106000D03*
X300256000Y-384106000D03*
G04 #@! TD*
D14*
G04 #@! TO.C,LED98*
X226219000Y-383381000D03*
D15*
X228819000Y-382656000D03*
X223619000Y-382656000D03*
X223619000Y-384106000D03*
X228819000Y-384106000D03*
G04 #@! TD*
D14*
G04 #@! TO.C,LED97*
X202406000Y-383381000D03*
D15*
X205006000Y-382656000D03*
X199806000Y-382656000D03*
X199806000Y-384106000D03*
X205006000Y-384106000D03*
G04 #@! TD*
D14*
G04 #@! TO.C,LED96*
X178594000Y-383381000D03*
D15*
X181194000Y-382656000D03*
X175994000Y-382656000D03*
X175994000Y-384106000D03*
X181194000Y-384106000D03*
G04 #@! TD*
D14*
G04 #@! TO.C,LED95*
X566738000Y-364331000D03*
D15*
X569338000Y-363606000D03*
X564138000Y-363606000D03*
X564138000Y-365056000D03*
X569338000Y-365056000D03*
G04 #@! TD*
D14*
G04 #@! TO.C,LED94*
X547688000Y-364331000D03*
D15*
X550288000Y-363606000D03*
X545088000Y-363606000D03*
X545088000Y-365056000D03*
X550288000Y-365056000D03*
G04 #@! TD*
D14*
G04 #@! TO.C,LED93*
X528638000Y-364331000D03*
D15*
X531238000Y-363606000D03*
X526038000Y-363606000D03*
X526038000Y-365056000D03*
X531238000Y-365056000D03*
G04 #@! TD*
D14*
G04 #@! TO.C,LED92*
X485775000Y-364331000D03*
D15*
X488375000Y-363606000D03*
X483175000Y-363606000D03*
X483175000Y-365056000D03*
X488375000Y-365056000D03*
G04 #@! TD*
D14*
G04 #@! TO.C,LED91*
X426244000Y-364331000D03*
D15*
X428844000Y-363606000D03*
X423644000Y-363606000D03*
X423644000Y-365056000D03*
X428844000Y-365056000D03*
G04 #@! TD*
D14*
G04 #@! TO.C,LED90*
X390525000Y-364331000D03*
D15*
X393125000Y-363606000D03*
X387925000Y-363606000D03*
X387925000Y-365056000D03*
X393125000Y-365056000D03*
G04 #@! TD*
D14*
G04 #@! TO.C,LED89*
X371475000Y-364331000D03*
D15*
X374075000Y-363606000D03*
X368875000Y-363606000D03*
X368875000Y-365056000D03*
X374075000Y-365056000D03*
G04 #@! TD*
D14*
G04 #@! TO.C,LED88*
X352425000Y-364331000D03*
D15*
X355025000Y-363606000D03*
X349825000Y-363606000D03*
X349825000Y-365056000D03*
X355025000Y-365056000D03*
G04 #@! TD*
D14*
G04 #@! TO.C,LED87*
X333375000Y-364331000D03*
D15*
X335975000Y-363606000D03*
X330775000Y-363606000D03*
X330775000Y-365056000D03*
X335975000Y-365056000D03*
G04 #@! TD*
D14*
G04 #@! TO.C,LED86*
X314325000Y-364331000D03*
D15*
X316925000Y-363606000D03*
X311725000Y-363606000D03*
X311725000Y-365056000D03*
X316925000Y-365056000D03*
G04 #@! TD*
D14*
G04 #@! TO.C,LED85*
X295275000Y-364331000D03*
D15*
X297875000Y-363606000D03*
X292675000Y-363606000D03*
X292675000Y-365056000D03*
X297875000Y-365056000D03*
G04 #@! TD*
D14*
G04 #@! TO.C,LED84*
X276225000Y-364331000D03*
D15*
X278825000Y-363606000D03*
X273625000Y-363606000D03*
X273625000Y-365056000D03*
X278825000Y-365056000D03*
G04 #@! TD*
D14*
G04 #@! TO.C,LED83*
X257175000Y-364331000D03*
D15*
X259775000Y-363606000D03*
X254575000Y-363606000D03*
X254575000Y-365056000D03*
X259775000Y-365056000D03*
G04 #@! TD*
D14*
G04 #@! TO.C,LED82*
X238125000Y-364331000D03*
D15*
X240725000Y-363606000D03*
X235525000Y-363606000D03*
X235525000Y-365056000D03*
X240725000Y-365056000D03*
G04 #@! TD*
D14*
G04 #@! TO.C,LED81*
X219075000Y-364331000D03*
D15*
X221675000Y-363606000D03*
X216475000Y-363606000D03*
X216475000Y-365056000D03*
X221675000Y-365056000D03*
G04 #@! TD*
D14*
G04 #@! TO.C,LED80*
X188119000Y-364331000D03*
D15*
X190719000Y-363606000D03*
X185519000Y-363606000D03*
X185519000Y-365056000D03*
X190719000Y-365056000D03*
G04 #@! TD*
D14*
G04 #@! TO.C,LED79*
X566738000Y-345281000D03*
D15*
X569338000Y-344556000D03*
X564138000Y-344556000D03*
X564138000Y-346006000D03*
X569338000Y-346006000D03*
G04 #@! TD*
D14*
G04 #@! TO.C,LED78*
X547688000Y-345281000D03*
D15*
X550288000Y-344556000D03*
X545088000Y-344556000D03*
X545088000Y-346006000D03*
X550288000Y-346006000D03*
G04 #@! TD*
D14*
G04 #@! TO.C,LED77*
X528638000Y-345281000D03*
D15*
X531238000Y-344556000D03*
X526038000Y-344556000D03*
X526038000Y-346006000D03*
X531238000Y-346006000D03*
G04 #@! TD*
D14*
G04 #@! TO.C,LED76*
X431006000Y-345281000D03*
D15*
X433606000Y-344556000D03*
X428406000Y-344556000D03*
X428406000Y-346006000D03*
X433606000Y-346006000D03*
G04 #@! TD*
D14*
G04 #@! TO.C,LED75*
X400050000Y-345281000D03*
D15*
X402650000Y-344556000D03*
X397450000Y-344556000D03*
X397450000Y-346006000D03*
X402650000Y-346006000D03*
G04 #@! TD*
D14*
G04 #@! TO.C,LED74*
X381000000Y-345281000D03*
D15*
X383600000Y-344556000D03*
X378400000Y-344556000D03*
X378400000Y-346006000D03*
X383600000Y-346006000D03*
G04 #@! TD*
D14*
G04 #@! TO.C,LED73*
X361950000Y-345281000D03*
D15*
X364550000Y-344556000D03*
X359350000Y-344556000D03*
X359350000Y-346006000D03*
X364550000Y-346006000D03*
G04 #@! TD*
D14*
G04 #@! TO.C,LED71*
X323850000Y-345281000D03*
D15*
X326450000Y-344556000D03*
X321250000Y-344556000D03*
X321250000Y-346006000D03*
X326450000Y-346006000D03*
G04 #@! TD*
D14*
G04 #@! TO.C,LED70*
X304800000Y-345281000D03*
D15*
X307400000Y-344556000D03*
X302200000Y-344556000D03*
X302200000Y-346006000D03*
X307400000Y-346006000D03*
G04 #@! TD*
D14*
G04 #@! TO.C,LED69*
X285750000Y-345281000D03*
D15*
X288350000Y-344556000D03*
X283150000Y-344556000D03*
X283150000Y-346006000D03*
X288350000Y-346006000D03*
G04 #@! TD*
D14*
G04 #@! TO.C,LED68*
X266700000Y-345281000D03*
D15*
X269300000Y-344556000D03*
X264100000Y-344556000D03*
X264100000Y-346006000D03*
X269300000Y-346006000D03*
G04 #@! TD*
D14*
G04 #@! TO.C,LED67*
X247650000Y-345281000D03*
D15*
X250250000Y-344556000D03*
X245050000Y-344556000D03*
X245050000Y-346006000D03*
X250250000Y-346006000D03*
G04 #@! TD*
D14*
G04 #@! TO.C,LED66*
X228600000Y-345281000D03*
D15*
X231200000Y-344556000D03*
X226000000Y-344556000D03*
X226000000Y-346006000D03*
X231200000Y-346006000D03*
G04 #@! TD*
D14*
G04 #@! TO.C,LED65*
X209550000Y-345281000D03*
D15*
X212150000Y-344556000D03*
X206950000Y-344556000D03*
X206950000Y-346006000D03*
X212150000Y-346006000D03*
G04 #@! TD*
D14*
G04 #@! TO.C,LED64*
X183356000Y-345281000D03*
D15*
X185956000Y-344556000D03*
X180756000Y-344556000D03*
X180756000Y-346006000D03*
X185956000Y-346006000D03*
G04 #@! TD*
D14*
G04 #@! TO.C,LED63*
X485775000Y-326231000D03*
D15*
X488375000Y-325506000D03*
X483175000Y-325506000D03*
X483175000Y-326956000D03*
X488375000Y-326956000D03*
G04 #@! TD*
D14*
G04 #@! TO.C,LED62*
X466725000Y-326231000D03*
D15*
X469325000Y-325506000D03*
X464125000Y-325506000D03*
X464125000Y-326956000D03*
X469325000Y-326956000D03*
G04 #@! TD*
D14*
G04 #@! TO.C,LED61*
X438150000Y-326231000D03*
D15*
X440750000Y-325506000D03*
X435550000Y-325506000D03*
X435550000Y-326956000D03*
X440750000Y-326956000D03*
G04 #@! TD*
D14*
G04 #@! TO.C,LED60*
X414338000Y-326230000D03*
D15*
X416938000Y-325505000D03*
X411738000Y-325505000D03*
X411738000Y-326955000D03*
X416938000Y-326955000D03*
G04 #@! TD*
D14*
G04 #@! TO.C,LED59*
X395288000Y-326231000D03*
D15*
X397888000Y-325506000D03*
X392688000Y-325506000D03*
X392688000Y-326956000D03*
X397888000Y-326956000D03*
G04 #@! TD*
D14*
G04 #@! TO.C,LED58*
X376238000Y-326231000D03*
D15*
X378838000Y-325506000D03*
X373638000Y-325506000D03*
X373638000Y-326956000D03*
X378838000Y-326956000D03*
G04 #@! TD*
D14*
G04 #@! TO.C,LED57*
X357188000Y-326231000D03*
D15*
X359788000Y-325506000D03*
X354588000Y-325506000D03*
X354588000Y-326956000D03*
X359788000Y-326956000D03*
G04 #@! TD*
D14*
G04 #@! TO.C,LED56*
X338138000Y-326231000D03*
D15*
X340738000Y-325506000D03*
X335538000Y-325506000D03*
X335538000Y-326956000D03*
X340738000Y-326956000D03*
G04 #@! TD*
D14*
G04 #@! TO.C,LED55*
X319088000Y-326231000D03*
D15*
X321688000Y-325506000D03*
X316488000Y-325506000D03*
X316488000Y-326956000D03*
X321688000Y-326956000D03*
G04 #@! TD*
D14*
G04 #@! TO.C,LED54*
X300038000Y-326231000D03*
D15*
X302638000Y-325506000D03*
X297438000Y-325506000D03*
X297438000Y-326956000D03*
X302638000Y-326956000D03*
G04 #@! TD*
D14*
G04 #@! TO.C,LED53*
X280988000Y-326231000D03*
D15*
X283588000Y-325506000D03*
X278388000Y-325506000D03*
X278388000Y-326956000D03*
X283588000Y-326956000D03*
G04 #@! TD*
D14*
G04 #@! TO.C,LED52*
X261938000Y-326231000D03*
D15*
X264538000Y-325506000D03*
X259338000Y-325506000D03*
X259338000Y-326956000D03*
X264538000Y-326956000D03*
G04 #@! TD*
D14*
G04 #@! TO.C,LED51*
X242888000Y-326231000D03*
D15*
X245488000Y-325506000D03*
X240288000Y-325506000D03*
X240288000Y-326956000D03*
X245488000Y-326956000D03*
G04 #@! TD*
D14*
G04 #@! TO.C,LED50*
X223838000Y-326231000D03*
D15*
X226438000Y-325506000D03*
X221238000Y-325506000D03*
X221238000Y-326956000D03*
X226438000Y-326956000D03*
G04 #@! TD*
D14*
G04 #@! TO.C,LED49*
X204788000Y-326231000D03*
D15*
X207388000Y-325506000D03*
X202188000Y-325506000D03*
X202188000Y-326956000D03*
X207388000Y-326956000D03*
G04 #@! TD*
D14*
G04 #@! TO.C,LED48*
X180975000Y-326231000D03*
D15*
X183575000Y-325506000D03*
X178375000Y-325506000D03*
X178375000Y-326956000D03*
X183575000Y-326956000D03*
G04 #@! TD*
D14*
G04 #@! TO.C,LED47*
X504825000Y-326231000D03*
D15*
X507425000Y-325506000D03*
X502225000Y-325506000D03*
X502225000Y-326956000D03*
X507425000Y-326956000D03*
G04 #@! TD*
D14*
G04 #@! TO.C,LED46*
X528574000Y-326231000D03*
D15*
X531174000Y-325506000D03*
X525974000Y-325506000D03*
X525974000Y-326956000D03*
X531174000Y-326956000D03*
G04 #@! TD*
D14*
G04 #@! TO.C,LED45*
X547688000Y-326231000D03*
D15*
X550288000Y-325506000D03*
X545088000Y-325506000D03*
X545088000Y-326956000D03*
X550288000Y-326956000D03*
G04 #@! TD*
D14*
G04 #@! TO.C,LED44*
X566738000Y-326231000D03*
D15*
X569338000Y-325506000D03*
X564138000Y-325506000D03*
X564138000Y-326956000D03*
X569338000Y-326956000D03*
G04 #@! TD*
D14*
G04 #@! TO.C,LED43*
X566674000Y-307181000D03*
D15*
X569274000Y-306456000D03*
X564074000Y-306456000D03*
X564074000Y-307906000D03*
X569274000Y-307906000D03*
G04 #@! TD*
D14*
G04 #@! TO.C,LED42*
X547624000Y-307181000D03*
D15*
X550224000Y-306456000D03*
X545024000Y-306456000D03*
X545024000Y-307906000D03*
X550224000Y-307906000D03*
G04 #@! TD*
D14*
G04 #@! TO.C,LED41*
X528574000Y-307181000D03*
D15*
X531174000Y-306456000D03*
X525974000Y-306456000D03*
X525974000Y-307906000D03*
X531174000Y-307906000D03*
G04 #@! TD*
D14*
G04 #@! TO.C,LED40*
X504825000Y-307181000D03*
D15*
X507425000Y-306456000D03*
X502225000Y-306456000D03*
X502225000Y-307906000D03*
X507425000Y-307906000D03*
G04 #@! TD*
D14*
G04 #@! TO.C,LED39*
X485775000Y-307181000D03*
D15*
X488375000Y-306456000D03*
X483175000Y-306456000D03*
X483175000Y-307906000D03*
X488375000Y-307906000D03*
G04 #@! TD*
D14*
G04 #@! TO.C,LED38*
X466725000Y-307181000D03*
D15*
X469325000Y-306456000D03*
X464125000Y-306456000D03*
X464125000Y-307906000D03*
X469325000Y-307906000D03*
G04 #@! TD*
D14*
G04 #@! TO.C,LED37*
X433388000Y-307181000D03*
D15*
X435988000Y-306456000D03*
X430788000Y-306456000D03*
X430788000Y-307906000D03*
X435988000Y-307906000D03*
G04 #@! TD*
D14*
G04 #@! TO.C,LED36*
X404812000Y-307181000D03*
D15*
X407412000Y-306456000D03*
X402212000Y-306456000D03*
X402212000Y-307906000D03*
X407412000Y-307906000D03*
G04 #@! TD*
D14*
G04 #@! TO.C,LED35*
X385762000Y-307181000D03*
D15*
X388362000Y-306456000D03*
X383162000Y-306456000D03*
X383162000Y-307906000D03*
X388362000Y-307906000D03*
G04 #@! TD*
D14*
G04 #@! TO.C,LED34*
X366712000Y-307181000D03*
D15*
X369312000Y-306456000D03*
X364112000Y-306456000D03*
X364112000Y-307906000D03*
X369312000Y-307906000D03*
G04 #@! TD*
D14*
G04 #@! TO.C,LED33*
X347662000Y-307181000D03*
D15*
X350262000Y-306456000D03*
X345062000Y-306456000D03*
X345062000Y-307906000D03*
X350262000Y-307906000D03*
G04 #@! TD*
D14*
G04 #@! TO.C,LED32*
X328612000Y-307181000D03*
D15*
X331212000Y-306456000D03*
X326012000Y-306456000D03*
X326012000Y-307906000D03*
X331212000Y-307906000D03*
G04 #@! TD*
D14*
G04 #@! TO.C,LED31*
X309562000Y-307181000D03*
D15*
X312162000Y-306456000D03*
X306962000Y-306456000D03*
X306962000Y-307906000D03*
X312162000Y-307906000D03*
G04 #@! TD*
D14*
G04 #@! TO.C,LED30*
X290512000Y-307181000D03*
D15*
X293112000Y-306456000D03*
X287912000Y-306456000D03*
X287912000Y-307906000D03*
X293112000Y-307906000D03*
G04 #@! TD*
D14*
G04 #@! TO.C,LED29*
X271462000Y-307181000D03*
D15*
X274062000Y-306456000D03*
X268862000Y-306456000D03*
X268862000Y-307906000D03*
X274062000Y-307906000D03*
G04 #@! TD*
D14*
G04 #@! TO.C,LED28*
X252412000Y-307181000D03*
D15*
X255012000Y-306456000D03*
X249812000Y-306456000D03*
X249812000Y-307906000D03*
X255012000Y-307906000D03*
G04 #@! TD*
D14*
G04 #@! TO.C,LED27*
X233362000Y-307181000D03*
D15*
X235962000Y-306456000D03*
X230762000Y-306456000D03*
X230762000Y-307906000D03*
X235962000Y-307906000D03*
G04 #@! TD*
D14*
G04 #@! TO.C,LED26*
X214312000Y-307181000D03*
D15*
X216912000Y-306456000D03*
X211712000Y-306456000D03*
X211712000Y-307906000D03*
X216912000Y-307906000D03*
G04 #@! TD*
D14*
G04 #@! TO.C,LED25*
X195262000Y-307181000D03*
D15*
X197862000Y-306456000D03*
X192662000Y-306456000D03*
X192662000Y-307906000D03*
X197862000Y-307906000D03*
G04 #@! TD*
D14*
G04 #@! TO.C,LED24*
X176212000Y-307181000D03*
D15*
X178812000Y-306456000D03*
X173612000Y-306456000D03*
X173612000Y-307906000D03*
X178812000Y-307906000D03*
G04 #@! TD*
D14*
G04 #@! TO.C,LED23*
X504825000Y-283210000D03*
D15*
X507425000Y-282485000D03*
X502225000Y-282485000D03*
X502225000Y-283935000D03*
X507425000Y-283935000D03*
G04 #@! TD*
D14*
G04 #@! TO.C,LED22*
X485775000Y-283210000D03*
D15*
X488375000Y-282485000D03*
X483175000Y-282485000D03*
X483175000Y-283935000D03*
X488375000Y-283935000D03*
G04 #@! TD*
D14*
G04 #@! TO.C,LED21*
X466598000Y-283210000D03*
D15*
X469198000Y-282485000D03*
X463998000Y-282485000D03*
X463998000Y-283935000D03*
X469198000Y-283935000D03*
G04 #@! TD*
D14*
G04 #@! TO.C,LED20*
X442912000Y-283369000D03*
D15*
X445512000Y-282644000D03*
X440312000Y-282644000D03*
X440312000Y-284094000D03*
X445512000Y-284094000D03*
G04 #@! TD*
D14*
G04 #@! TO.C,LED19*
X423862000Y-283369000D03*
D15*
X426462000Y-282644000D03*
X421262000Y-282644000D03*
X421262000Y-284094000D03*
X426462000Y-284094000D03*
G04 #@! TD*
D14*
G04 #@! TO.C,LED18*
X404812000Y-283369000D03*
D15*
X407412000Y-282644000D03*
X402212000Y-282644000D03*
X402212000Y-284094000D03*
X407412000Y-284094000D03*
G04 #@! TD*
D14*
G04 #@! TO.C,LED17*
X385762000Y-283369000D03*
D15*
X388362000Y-282644000D03*
X383162000Y-282644000D03*
X383162000Y-284094000D03*
X388362000Y-284094000D03*
G04 #@! TD*
D14*
G04 #@! TO.C,LED16*
X357188000Y-283369000D03*
D15*
X359788000Y-282644000D03*
X354588000Y-282644000D03*
X354588000Y-284094000D03*
X359788000Y-284094000D03*
G04 #@! TD*
D14*
G04 #@! TO.C,LED15*
X338138000Y-283369000D03*
D15*
X340738000Y-282644000D03*
X335538000Y-282644000D03*
X335538000Y-284094000D03*
X340738000Y-284094000D03*
G04 #@! TD*
D14*
G04 #@! TO.C,LED14*
X319088000Y-283374000D03*
D15*
X321688000Y-282649000D03*
X316488000Y-282649000D03*
X316488000Y-284099000D03*
X321688000Y-284099000D03*
G04 #@! TD*
D14*
G04 #@! TO.C,LED13*
X300038000Y-283369000D03*
D15*
X302638000Y-282644000D03*
X297438000Y-282644000D03*
X297438000Y-284094000D03*
X302638000Y-284094000D03*
G04 #@! TD*
D14*
G04 #@! TO.C,LED12*
X271462000Y-283369000D03*
D15*
X274062000Y-282644000D03*
X268862000Y-282644000D03*
X268862000Y-284094000D03*
X274062000Y-284094000D03*
G04 #@! TD*
D14*
G04 #@! TO.C,LED11*
X252412000Y-283369000D03*
D15*
X255012000Y-282644000D03*
X249812000Y-282644000D03*
X249812000Y-284094000D03*
X255012000Y-284094000D03*
G04 #@! TD*
D14*
G04 #@! TO.C,LED10*
X233362000Y-283369000D03*
D15*
X235962000Y-282644000D03*
X230762000Y-282644000D03*
X230762000Y-284094000D03*
X235962000Y-284094000D03*
G04 #@! TD*
D14*
G04 #@! TO.C,LED9*
X214312000Y-283369000D03*
D15*
X216912000Y-282644000D03*
X211712000Y-282644000D03*
X211712000Y-284094000D03*
X216912000Y-284094000D03*
G04 #@! TD*
D14*
G04 #@! TO.C,LED8*
X176212000Y-283369000D03*
D15*
X178812000Y-282644000D03*
X173612000Y-282644000D03*
X173612000Y-284094000D03*
X178812000Y-284094000D03*
G04 #@! TD*
D14*
G04 #@! TO.C,LED7*
X504825000Y-264319000D03*
D15*
X507425000Y-263594000D03*
X502225000Y-263594000D03*
X502225000Y-265044000D03*
X507425000Y-265044000D03*
G04 #@! TD*
D14*
G04 #@! TO.C,LED6*
X485775000Y-264287000D03*
D15*
X488375000Y-263562000D03*
X483175000Y-263562000D03*
X483175000Y-265012000D03*
X488375000Y-265012000D03*
G04 #@! TD*
D14*
G04 #@! TO.C,LED5*
X466725000Y-264319000D03*
D15*
X469325000Y-263594000D03*
X464125000Y-263594000D03*
X464125000Y-265044000D03*
X469325000Y-265044000D03*
G04 #@! TD*
D14*
G04 #@! TO.C,LED4*
X271462000Y-264319000D03*
D15*
X274062000Y-263594000D03*
X268862000Y-263594000D03*
X268862000Y-265044000D03*
X274062000Y-265044000D03*
G04 #@! TD*
D14*
G04 #@! TO.C,LED3*
X252412000Y-264319000D03*
D15*
X255012000Y-263594000D03*
X249812000Y-263594000D03*
X249812000Y-265044000D03*
X255012000Y-265044000D03*
G04 #@! TD*
D14*
G04 #@! TO.C,LED2*
X233362000Y-264319000D03*
D15*
X235962000Y-263594000D03*
X230762000Y-263594000D03*
X230762000Y-265044000D03*
X235962000Y-265044000D03*
G04 #@! TD*
D14*
G04 #@! TO.C,LED1*
X214312000Y-264319000D03*
D15*
X216912000Y-263594000D03*
X211712000Y-263594000D03*
X211712000Y-265044000D03*
X216912000Y-265044000D03*
G04 #@! TD*
D10*
G04 #@! TO.C,MX_N1*
X316865000Y-353695000D03*
D11*
X314325000Y-358775000D03*
D10*
X310515000Y-356235000D03*
G04 #@! TD*
G04 #@! TO.C,MX_PGDN1*
X507365000Y-315595000D03*
D11*
X504825000Y-320675000D03*
D10*
X501015000Y-318135000D03*
G04 #@! TD*
G04 #@! TO.C,C11*
G36*
G01*
X533433000Y-258646000D02*
X534383000Y-258646000D01*
G75*
G02*
X534633000Y-258896000I0J-250000D01*
G01*
X534633000Y-259396000D01*
G75*
G02*
X534383000Y-259646000I-250000J0D01*
G01*
X533433000Y-259646000D01*
G75*
G02*
X533183000Y-259396000I0J250000D01*
G01*
X533183000Y-258896000D01*
G75*
G02*
X533433000Y-258646000I250000J0D01*
G01*
G37*
G36*
G01*
X533433000Y-260546000D02*
X534383000Y-260546000D01*
G75*
G02*
X534633000Y-260796000I0J-250000D01*
G01*
X534633000Y-261296000D01*
G75*
G02*
X534383000Y-261546000I-250000J0D01*
G01*
X533433000Y-261546000D01*
G75*
G02*
X533183000Y-261296000I0J250000D01*
G01*
X533183000Y-260796000D01*
G75*
G02*
X533433000Y-260546000I250000J0D01*
G01*
G37*
G04 #@! TD*
G04 #@! TO.C,C9*
G36*
G01*
X549074000Y-266225000D02*
X549074000Y-267175000D01*
G75*
G02*
X548824000Y-267425000I-250000J0D01*
G01*
X548324000Y-267425000D01*
G75*
G02*
X548074000Y-267175000I0J250000D01*
G01*
X548074000Y-266225000D01*
G75*
G02*
X548324000Y-265975000I250000J0D01*
G01*
X548824000Y-265975000D01*
G75*
G02*
X549074000Y-266225000I0J-250000D01*
G01*
G37*
G36*
G01*
X547174000Y-266225000D02*
X547174000Y-267175000D01*
G75*
G02*
X546924000Y-267425000I-250000J0D01*
G01*
X546424000Y-267425000D01*
G75*
G02*
X546174000Y-267175000I0J250000D01*
G01*
X546174000Y-266225000D01*
G75*
G02*
X546424000Y-265975000I250000J0D01*
G01*
X546924000Y-265975000D01*
G75*
G02*
X547174000Y-266225000I0J-250000D01*
G01*
G37*
G04 #@! TD*
G04 #@! TO.C,MX_TAB1*
X183515000Y-315595000D03*
D11*
X180975000Y-320675000D03*
D10*
X177165000Y-318135000D03*
G04 #@! TD*
G04 #@! TO.C,MX_BSLS1*
X440690000Y-315595000D03*
D11*
X438150000Y-320675000D03*
D10*
X434340000Y-318135000D03*
G04 #@! TD*
G04 #@! TO.C,MX_RSFT1*
X428784000Y-353695000D03*
D11*
X426244000Y-358775000D03*
D10*
X422434000Y-356235000D03*
D12*
X414337750Y-351790000D03*
X438150250Y-351790000D03*
D11*
X414337750Y-367030000D03*
X438150250Y-367030000D03*
G04 #@! TD*
D10*
G04 #@! TO.C,MX_CAPS1*
X185896000Y-334645000D03*
D11*
X183356000Y-339725000D03*
D10*
X179546000Y-337185000D03*
G04 #@! TD*
G04 #@! TO.C,MX_LSFT1*
X190659000Y-353695000D03*
D11*
X188119000Y-358775000D03*
D10*
X184309000Y-356235000D03*
D12*
X176212750Y-351790000D03*
X200025250Y-351790000D03*
D11*
X176212750Y-367030000D03*
X200025250Y-367030000D03*
G04 #@! TD*
D10*
G04 #@! TO.C,MX_SPC1*
X300196000Y-372745000D03*
D11*
X297656000Y-377825000D03*
D10*
X293846000Y-375285000D03*
D12*
X247656100Y-370840000D03*
X347655900Y-370840000D03*
D11*
X247656100Y-386080000D03*
X347655900Y-386080000D03*
G04 #@! TD*
D10*
G04 #@! TO.C,MX_P+1*
X590867500Y-332740000D03*
D11*
X585787500Y-330200000D03*
D10*
X588327500Y-326390000D03*
D12*
X592772500Y-318293750D03*
X592772500Y-342106250D03*
D11*
X577532500Y-318293750D03*
X577532500Y-342106250D03*
G04 #@! TD*
D10*
G04 #@! TO.C,MX_PENT1*
X590867500Y-370840000D03*
D11*
X585787500Y-368300000D03*
D10*
X588327500Y-364490000D03*
D12*
X592772500Y-356393750D03*
X592772500Y-380206250D03*
D11*
X577532500Y-356393750D03*
X577532500Y-380206250D03*
G04 #@! TD*
D10*
G04 #@! TO.C,MX_P0*
X540702000Y-372745000D03*
D11*
X538162000Y-377825000D03*
D10*
X534352000Y-375285000D03*
D12*
X526255750Y-370840000D03*
X550068250Y-370840000D03*
D11*
X526255750Y-386080000D03*
X550068250Y-386080000D03*
G04 #@! TD*
D10*
G04 #@! TO.C,MX_BSPC1*
X435928000Y-296545000D03*
D11*
X433388000Y-301625000D03*
D10*
X429578000Y-299085000D03*
D12*
X421481750Y-294640000D03*
X445294250Y-294640000D03*
D11*
X421481750Y-309880000D03*
X445294250Y-309880000D03*
G04 #@! TD*
D10*
G04 #@! TO.C,MX_RCTL1*
X443071000Y-372745000D03*
D11*
X440531000Y-377825000D03*
D10*
X436721000Y-375285000D03*
G04 #@! TD*
G04 #@! TO.C,MX_RGUI1*
X395446000Y-372745000D03*
D11*
X392906000Y-377825000D03*
D10*
X389096000Y-375285000D03*
G04 #@! TD*
G04 #@! TO.C,MX_RALT1*
X371634000Y-372745000D03*
D11*
X369094000Y-377825000D03*
D10*
X365284000Y-375285000D03*
G04 #@! TD*
G04 #@! TO.C,MX_MENU1*
X419259000Y-372745000D03*
D11*
X416719000Y-377825000D03*
D10*
X412909000Y-375285000D03*
G04 #@! TD*
G04 #@! TO.C,MX_LGUI1*
X204946000Y-372745000D03*
D11*
X202406000Y-377825000D03*
D10*
X198596000Y-375285000D03*
G04 #@! TD*
G04 #@! TO.C,MX_LCTL1*
X181134000Y-372745000D03*
D11*
X178594000Y-377825000D03*
D10*
X174784000Y-375285000D03*
G04 #@! TD*
G04 #@! TO.C,MX_LALT1*
X228759000Y-372745000D03*
D11*
X226219000Y-377825000D03*
D10*
X222409000Y-375285000D03*
G04 #@! TD*
G04 #@! TO.C,MX_RGHT1*
X507365000Y-372745000D03*
D11*
X504825000Y-377825000D03*
D10*
X501015000Y-375285000D03*
G04 #@! TD*
G04 #@! TO.C,MX_Z1*
X221615000Y-353695000D03*
D11*
X219075000Y-358775000D03*
D10*
X215265000Y-356235000D03*
G04 #@! TD*
G04 #@! TO.C,MX_Y1*
X302578000Y-315595000D03*
D11*
X300038000Y-320675000D03*
D10*
X296228000Y-318135000D03*
G04 #@! TD*
G04 #@! TO.C,MX_X1*
X240665000Y-353695000D03*
D11*
X238125000Y-358775000D03*
D10*
X234315000Y-356235000D03*
G04 #@! TD*
G04 #@! TO.C,MX_W1*
X226378000Y-315595000D03*
D11*
X223838000Y-320675000D03*
D10*
X220028000Y-318135000D03*
G04 #@! TD*
G04 #@! TO.C,MX_VOLD1*
X488315000Y-253682000D03*
D11*
X485775000Y-258762000D03*
D10*
X481965000Y-256222000D03*
G04 #@! TD*
G04 #@! TO.C,MX_VOLU1*
X507365000Y-253682000D03*
D11*
X504825000Y-258762000D03*
D10*
X501015000Y-256222000D03*
G04 #@! TD*
G04 #@! TO.C,MX_V1*
X278765000Y-353695000D03*
D11*
X276225000Y-358775000D03*
D10*
X272415000Y-356235000D03*
G04 #@! TD*
G04 #@! TO.C,MX_UP1*
X488315000Y-353695000D03*
D11*
X485775000Y-358775000D03*
D10*
X481965000Y-356235000D03*
G04 #@! TD*
G04 #@! TO.C,MX_U1*
X321628000Y-315595000D03*
D11*
X319088000Y-320675000D03*
D10*
X315278000Y-318135000D03*
G04 #@! TD*
G04 #@! TO.C,MX_T1*
X283528000Y-315595000D03*
D11*
X280988000Y-320675000D03*
D10*
X277178000Y-318135000D03*
G04 #@! TD*
G04 #@! TO.C,MX_STOP1*
X235902000Y-253682000D03*
D11*
X233362000Y-258762000D03*
D10*
X229552000Y-256222000D03*
G04 #@! TD*
G04 #@! TO.C,MX_SLSH1*
X393065000Y-353695000D03*
D11*
X390525000Y-358775000D03*
D10*
X386715000Y-356235000D03*
G04 #@! TD*
G04 #@! TO.C,MX_SLCK1*
X488315000Y-272732000D03*
D11*
X485775000Y-277812000D03*
D10*
X481965000Y-275272000D03*
G04 #@! TD*
G04 #@! TO.C,MX_SCLN1*
X383540000Y-334645000D03*
D11*
X381000000Y-339725000D03*
D10*
X377190000Y-337185000D03*
G04 #@! TD*
G04 #@! TO.C,MX_S1*
X231140000Y-334645000D03*
D11*
X228600000Y-339725000D03*
D10*
X224790000Y-337185000D03*
G04 #@! TD*
G04 #@! TO.C,MX_RBRC1*
X416878000Y-315595000D03*
D11*
X414338000Y-320675000D03*
D10*
X410528000Y-318135000D03*
G04 #@! TD*
G04 #@! TO.C,MX_R1*
X264478000Y-315595000D03*
D11*
X261938000Y-320675000D03*
D10*
X258128000Y-318135000D03*
G04 #@! TD*
G04 #@! TO.C,MX_QUOT1*
X402590000Y-334645000D03*
D11*
X400050000Y-339725000D03*
D10*
X396240000Y-337185000D03*
G04 #@! TD*
G04 #@! TO.C,MX_Q1*
X207328000Y-315595000D03*
D11*
X204788000Y-320675000D03*
D10*
X200978000Y-318135000D03*
G04 #@! TD*
G04 #@! TO.C,MX_PSCR1*
X469265000Y-272732000D03*
D11*
X466725000Y-277812000D03*
D10*
X462915000Y-275272000D03*
G04 #@! TD*
G04 #@! TO.C,MX_PGUP1*
X507365000Y-296545000D03*
D11*
X504825000Y-301625000D03*
D10*
X501015000Y-299085000D03*
G04 #@! TD*
G04 #@! TO.C,MX_PDOT1*
X569278000Y-372745000D03*
D11*
X566738000Y-377825000D03*
D10*
X562928000Y-375285000D03*
G04 #@! TD*
G04 #@! TO.C,MX_PAUSE1*
X507365000Y-272732000D03*
D11*
X504825000Y-277812000D03*
D10*
X501015000Y-275272000D03*
G04 #@! TD*
G04 #@! TO.C,MX_P/1*
X550228000Y-296545000D03*
D11*
X547688000Y-301625000D03*
D10*
X543878000Y-299085000D03*
G04 #@! TD*
G04 #@! TO.C,MX_P-1*
X588328000Y-296545000D03*
D11*
X585788000Y-301625000D03*
D10*
X581978000Y-299085000D03*
G04 #@! TD*
G04 #@! TO.C,MX_P\u002A1*
X569278000Y-296545000D03*
D11*
X566738000Y-301625000D03*
D10*
X562928000Y-299085000D03*
G04 #@! TD*
G04 #@! TO.C,MX_P10*
X378778000Y-315595000D03*
D11*
X376238000Y-320675000D03*
D10*
X372428000Y-318135000D03*
G04 #@! TD*
G04 #@! TO.C,MX_P9*
X569278000Y-315595000D03*
D11*
X566738000Y-320675000D03*
D10*
X562928000Y-318135000D03*
G04 #@! TD*
G04 #@! TO.C,MX_P8*
X550228000Y-315595000D03*
D11*
X547688000Y-320675000D03*
D10*
X543878000Y-318135000D03*
G04 #@! TD*
G04 #@! TO.C,MX_P7*
X531178000Y-315595000D03*
D11*
X528638000Y-320675000D03*
D10*
X524828000Y-318135000D03*
G04 #@! TD*
G04 #@! TO.C,MX_P6*
X569278000Y-334645000D03*
D11*
X566738000Y-339725000D03*
D10*
X562928000Y-337185000D03*
G04 #@! TD*
G04 #@! TO.C,MX_P5*
X550228000Y-334645000D03*
D11*
X547688000Y-339725000D03*
D10*
X543878000Y-337185000D03*
G04 #@! TD*
G04 #@! TO.C,MX_P4*
X531178000Y-334645000D03*
D11*
X528638000Y-339725000D03*
D10*
X524828000Y-337185000D03*
G04 #@! TD*
G04 #@! TO.C,MX_P3*
X569278000Y-353695000D03*
D11*
X566738000Y-358775000D03*
D10*
X562928000Y-356235000D03*
G04 #@! TD*
G04 #@! TO.C,MX_P2*
X550228000Y-353695000D03*
D11*
X547688000Y-358775000D03*
D10*
X543878000Y-356235000D03*
G04 #@! TD*
G04 #@! TO.C,MX_P1*
X531178000Y-353695000D03*
D11*
X528638000Y-358775000D03*
D10*
X524828000Y-356235000D03*
G04 #@! TD*
G04 #@! TO.C,MX_O1*
X359728000Y-315595000D03*
D11*
X357188000Y-320675000D03*
D10*
X353378000Y-318135000D03*
G04 #@! TD*
G04 #@! TO.C,MX_NLCK1*
X531178000Y-296545000D03*
D11*
X528638000Y-301625000D03*
D10*
X524828000Y-299085000D03*
G04 #@! TD*
G04 #@! TO.C,MX_MINS1*
X388302000Y-296545000D03*
D11*
X385762000Y-301625000D03*
D10*
X381952000Y-299085000D03*
G04 #@! TD*
G04 #@! TO.C,MX_M1*
X335915000Y-353695000D03*
D11*
X333375000Y-358775000D03*
D10*
X329565000Y-356235000D03*
G04 #@! TD*
G04 #@! TO.C,MX_LEFT1*
X469265000Y-372745000D03*
D11*
X466725000Y-377825000D03*
D10*
X462915000Y-375285000D03*
G04 #@! TD*
G04 #@! TO.C,MX_LBRC1*
X397828000Y-315595000D03*
D11*
X395288000Y-320675000D03*
D10*
X391478000Y-318135000D03*
G04 #@! TD*
G04 #@! TO.C,MX_L1*
X364490000Y-334645000D03*
D11*
X361950000Y-339725000D03*
D10*
X358140000Y-337185000D03*
G04 #@! TD*
G04 #@! TO.C,MX_K1*
X345440000Y-334645000D03*
D11*
X342900000Y-339725000D03*
D10*
X339090000Y-337185000D03*
G04 #@! TD*
G04 #@! TO.C,MX_J1*
X326390000Y-334645000D03*
D11*
X323850000Y-339725000D03*
D10*
X320040000Y-337185000D03*
G04 #@! TD*
G04 #@! TO.C,MX_INS1*
X469265000Y-296545000D03*
D11*
X466725000Y-301625000D03*
D10*
X462915000Y-299085000D03*
G04 #@! TD*
G04 #@! TO.C,MX_I1*
X340678000Y-315595000D03*
D11*
X338138000Y-320675000D03*
D10*
X334328000Y-318135000D03*
G04 #@! TD*
G04 #@! TO.C,MX_HOME1*
X488315000Y-296545000D03*
D11*
X485775000Y-301625000D03*
D10*
X481965000Y-299085000D03*
G04 #@! TD*
G04 #@! TO.C,MX_H1*
X307340000Y-334645000D03*
D11*
X304800000Y-339725000D03*
D10*
X300990000Y-337185000D03*
G04 #@! TD*
G04 #@! TO.C,MX_G1*
X288290000Y-334645000D03*
D11*
X285750000Y-339725000D03*
D10*
X281940000Y-337185000D03*
G04 #@! TD*
G04 #@! TO.C,MX_F13*
X269240000Y-334645000D03*
D11*
X266700000Y-339725000D03*
D10*
X262890000Y-337185000D03*
G04 #@! TD*
G04 #@! TO.C,MX_F9*
X388302000Y-272732000D03*
D11*
X385762000Y-277812000D03*
D10*
X381952000Y-275272000D03*
G04 #@! TD*
G04 #@! TO.C,MX_F8*
X359728000Y-272732000D03*
D11*
X357188000Y-277812000D03*
D10*
X353378000Y-275272000D03*
G04 #@! TD*
G04 #@! TO.C,MX_F7*
X340678000Y-272732000D03*
D11*
X338138000Y-277812000D03*
D10*
X334328000Y-275272000D03*
G04 #@! TD*
G04 #@! TO.C,MX_F5*
X302578000Y-272732000D03*
D11*
X300038000Y-277812000D03*
D10*
X296228000Y-275272000D03*
G04 #@! TD*
G04 #@! TO.C,MX_F4*
X274002000Y-272732000D03*
D11*
X271462000Y-277812000D03*
D10*
X267652000Y-275272000D03*
G04 #@! TD*
G04 #@! TO.C,MX_F3*
X254952000Y-272732000D03*
D11*
X252412000Y-277812000D03*
D10*
X248602000Y-275272000D03*
G04 #@! TD*
G04 #@! TO.C,MX_F1*
X216852000Y-272732000D03*
D11*
X214312000Y-277812000D03*
D10*
X210502000Y-275272000D03*
G04 #@! TD*
G04 #@! TO.C,MX_ESC1*
X178752000Y-272732000D03*
D11*
X176212000Y-277812000D03*
D10*
X172402000Y-275272000D03*
G04 #@! TD*
G04 #@! TO.C,MX_EQL1*
X407352000Y-296545000D03*
D11*
X404812000Y-301625000D03*
D10*
X401002000Y-299085000D03*
G04 #@! TD*
G04 #@! TO.C,MX_END1*
X488315000Y-315595000D03*
D11*
X485775000Y-320675000D03*
D10*
X481965000Y-318135000D03*
G04 #@! TD*
G04 #@! TO.C,MX_E1*
X245428000Y-315595000D03*
D11*
X242888000Y-320675000D03*
D10*
X239078000Y-318135000D03*
G04 #@! TD*
G04 #@! TO.C,MX_DOWN1*
X488315000Y-372745000D03*
D11*
X485775000Y-377825000D03*
D10*
X481965000Y-375285000D03*
G04 #@! TD*
G04 #@! TO.C,MX_DOT1*
X374015000Y-353695000D03*
D11*
X371475000Y-358775000D03*
D10*
X367665000Y-356235000D03*
G04 #@! TD*
G04 #@! TO.C,MX_DEL1*
X469265000Y-315595000D03*
D11*
X466725000Y-320675000D03*
D10*
X462915000Y-318135000D03*
G04 #@! TD*
G04 #@! TO.C,MX_D1*
X250190000Y-334645000D03*
D11*
X247650000Y-339725000D03*
D10*
X243840000Y-337185000D03*
G04 #@! TD*
G04 #@! TO.C,MX_COMM1*
X354965000Y-353695000D03*
D11*
X352425000Y-358775000D03*
D10*
X348615000Y-356235000D03*
G04 #@! TD*
G04 #@! TO.C,MX_C1*
X259715000Y-353695000D03*
D11*
X257175000Y-358775000D03*
D10*
X253365000Y-356235000D03*
G04 #@! TD*
G04 #@! TO.C,MX_B1*
X297815000Y-353695000D03*
D11*
X295275000Y-358775000D03*
D10*
X291465000Y-356235000D03*
G04 #@! TD*
G04 #@! TO.C,MX_A1*
X212090000Y-334645000D03*
D11*
X209550000Y-339725000D03*
D10*
X205740000Y-337185000D03*
G04 #@! TD*
G04 #@! TO.C,MX_8*
X331152000Y-296545000D03*
D11*
X328612000Y-301625000D03*
D10*
X324802000Y-299085000D03*
G04 #@! TD*
G04 #@! TO.C,MX_7*
X312102000Y-296545000D03*
D11*
X309562000Y-301625000D03*
D10*
X305752000Y-299085000D03*
G04 #@! TD*
G04 #@! TO.C,MX_6*
X293052000Y-296545000D03*
D11*
X290512000Y-301625000D03*
D10*
X286702000Y-299085000D03*
G04 #@! TD*
G04 #@! TO.C,MX_4*
X254952000Y-296545000D03*
D11*
X252412000Y-301625000D03*
D10*
X248602000Y-299085000D03*
G04 #@! TD*
G04 #@! TO.C,MX_3*
X235902000Y-296545000D03*
D11*
X233362000Y-301625000D03*
D10*
X229552000Y-299085000D03*
G04 #@! TD*
G04 #@! TO.C,MX_2*
X216852000Y-296545000D03*
D11*
X214312000Y-301625000D03*
D10*
X210502000Y-299085000D03*
G04 #@! TD*
G04 #@! TO.C,MX_1*
X197802000Y-296545000D03*
D11*
X195262000Y-301625000D03*
D10*
X191452000Y-299085000D03*
G04 #@! TD*
G04 #@! TO.C,MX_0*
X369252000Y-296545000D03*
D11*
X366712000Y-301625000D03*
D10*
X362902000Y-299085000D03*
G04 #@! TD*
D17*
G04 #@! TO.C,J1*
X547862000Y-258681000D03*
X566562000Y-258681000D03*
D18*
X549962000Y-255981000D03*
X550462000Y-255981000D03*
X550962000Y-255981000D03*
X551462000Y-255981000D03*
X551962000Y-255981000D03*
X552462000Y-255981000D03*
X552962000Y-255981000D03*
X553462000Y-255981000D03*
X553962000Y-255981000D03*
X554462000Y-255981000D03*
X554962000Y-255981000D03*
X555462000Y-255981000D03*
X555962000Y-255981000D03*
X556462000Y-255981000D03*
X556962000Y-255981000D03*
X557462000Y-255981000D03*
X557962000Y-255981000D03*
X558462000Y-255981000D03*
X558962000Y-255981000D03*
X559462000Y-255981000D03*
X559962000Y-255981000D03*
X560462000Y-255981000D03*
X560962000Y-255981000D03*
X561462000Y-255981000D03*
X561962000Y-255981000D03*
X562462000Y-255981000D03*
X562962000Y-255981000D03*
X563462000Y-255981000D03*
X563962000Y-255981000D03*
X564462000Y-255981000D03*
G04 #@! TD*
D19*
G04 #@! TO.C,J2*
X592042000Y-283750000D03*
X590042000Y-283750000D03*
X592042000Y-285750000D03*
X590042000Y-285750000D03*
X592042000Y-287750000D03*
X590042000Y-287750000D03*
G04 #@! TD*
D20*
G04 #@! TO.C,SW1*
X518743000Y-250626000D03*
X524943000Y-254326000D03*
X518743000Y-254326000D03*
X524943000Y-250626000D03*
G04 #@! TD*
D13*
G04 #@! TO.C,Y1*
G36*
X548271097Y-272027488D02*
G01*
X547422569Y-272876016D01*
X546432619Y-271886066D01*
X547281147Y-271037538D01*
X548271097Y-272027488D01*
G37*
G36*
X546715462Y-270471853D02*
G01*
X545866934Y-271320381D01*
X544876984Y-270330431D01*
X545725512Y-269481903D01*
X546715462Y-270471853D01*
G37*
G36*
X545513381Y-271673934D02*
G01*
X544664853Y-272522462D01*
X543674903Y-271532512D01*
X544523431Y-270683984D01*
X545513381Y-271673934D01*
G37*
G36*
X547069016Y-273229569D02*
G01*
X546220488Y-274078097D01*
X545230538Y-273088147D01*
X546079066Y-272239619D01*
X547069016Y-273229569D01*
G37*
G04 #@! TD*
D21*
G04 #@! TO.C,USB1*
X589584000Y-254678000D03*
X583134000Y-254678000D03*
X588809000Y-254678000D03*
X583909000Y-254678000D03*
D22*
X584609000Y-254678000D03*
X588109000Y-254678000D03*
X585109000Y-254678000D03*
X587609000Y-254678000D03*
X585609000Y-254678000D03*
X587109000Y-254678000D03*
X586609000Y-254678000D03*
X586109000Y-254678000D03*
D23*
X589249000Y-253233000D03*
X583469000Y-253233000D03*
G04 #@! TD*
D24*
G04 #@! TO.C,U4*
X577317000Y-268845000D03*
X577317000Y-273445000D03*
X577317000Y-271145000D03*
D25*
X571017000Y-271145000D03*
G04 #@! TD*
D26*
G04 #@! TO.C,U3*
X571957000Y-286778000D03*
X571957000Y-287278000D03*
X571957000Y-287778000D03*
X571957000Y-288278000D03*
X575107000Y-288278000D03*
X575107000Y-287778000D03*
X575107000Y-287278000D03*
X575107000Y-286778000D03*
G04 #@! TD*
D27*
G04 #@! TO.C,U2*
X525662000Y-266288000D03*
X525662000Y-267088000D03*
X525662000Y-267888000D03*
X525662000Y-268688000D03*
X525662000Y-269488000D03*
X525662000Y-270288000D03*
X525662000Y-271088000D03*
X525662000Y-271888000D03*
X525662000Y-272688000D03*
X525662000Y-273488000D03*
X525662000Y-274288000D03*
X525662000Y-275088000D03*
X525662000Y-275888000D03*
X525662000Y-276688000D03*
X525662000Y-277488000D03*
X525662000Y-278288000D03*
D28*
X527400000Y-280026000D03*
X528200000Y-280026000D03*
X529000000Y-280026000D03*
X529800000Y-280026000D03*
X530600000Y-280026000D03*
X531400000Y-280026000D03*
X532200000Y-280026000D03*
X533000000Y-280026000D03*
X533800000Y-280026000D03*
X534600000Y-280026000D03*
X535400000Y-280026000D03*
X536200000Y-280026000D03*
X537000000Y-280026000D03*
X537800000Y-280026000D03*
X538600000Y-280026000D03*
X539400000Y-280026000D03*
D27*
X541138000Y-278288000D03*
X541138000Y-277488000D03*
X541138000Y-276688000D03*
X541138000Y-275888000D03*
X541138000Y-275088000D03*
X541138000Y-274288000D03*
X541138000Y-273488000D03*
X541138000Y-272688000D03*
X541138000Y-271888000D03*
X541138000Y-271088000D03*
X541138000Y-270288000D03*
X541138000Y-269488000D03*
X541138000Y-268688000D03*
X541138000Y-267888000D03*
X541138000Y-267088000D03*
X541138000Y-266288000D03*
D28*
X539400000Y-264550000D03*
X538600000Y-264550000D03*
X537800000Y-264550000D03*
X537000000Y-264550000D03*
X536200000Y-264550000D03*
X535400000Y-264550000D03*
X534600000Y-264550000D03*
X533800000Y-264550000D03*
X533000000Y-264550000D03*
X532200000Y-264550000D03*
X531400000Y-264550000D03*
X530600000Y-264550000D03*
X529800000Y-264550000D03*
X529000000Y-264550000D03*
X528200000Y-264550000D03*
X527400000Y-264550000D03*
G04 #@! TD*
D29*
G04 #@! TO.C,U1*
X587359000Y-258869750D03*
D30*
X585359000Y-258669750D03*
X587359000Y-260569750D03*
X585359000Y-260569750D03*
G04 #@! TD*
G04 #@! TO.C,R18*
G36*
G01*
X337254002Y-255632000D02*
X336353998Y-255632000D01*
G75*
G02*
X336104000Y-255382002I0J249998D01*
G01*
X336104000Y-254856998D01*
G75*
G02*
X336353998Y-254607000I249998J0D01*
G01*
X337254002Y-254607000D01*
G75*
G02*
X337504000Y-254856998I0J-249998D01*
G01*
X337504000Y-255382002D01*
G75*
G02*
X337254002Y-255632000I-249998J0D01*
G01*
G37*
G36*
G01*
X337254002Y-257457000D02*
X336353998Y-257457000D01*
G75*
G02*
X336104000Y-257207002I0J249998D01*
G01*
X336104000Y-256681998D01*
G75*
G02*
X336353998Y-256432000I249998J0D01*
G01*
X337254002Y-256432000D01*
G75*
G02*
X337504000Y-256681998I0J-249998D01*
G01*
X337504000Y-257207002D01*
G75*
G02*
X337254002Y-257457000I-249998J0D01*
G01*
G37*
G04 #@! TD*
G04 #@! TO.C,R17*
G36*
G01*
X338728000Y-267658002D02*
X338728000Y-266757998D01*
G75*
G02*
X338977998Y-266508000I249998J0D01*
G01*
X339503002Y-266508000D01*
G75*
G02*
X339753000Y-266757998I0J-249998D01*
G01*
X339753000Y-267658002D01*
G75*
G02*
X339503002Y-267908000I-249998J0D01*
G01*
X338977998Y-267908000D01*
G75*
G02*
X338728000Y-267658002I0J249998D01*
G01*
G37*
G36*
G01*
X336903000Y-267658002D02*
X336903000Y-266757998D01*
G75*
G02*
X337152998Y-266508000I249998J0D01*
G01*
X337678002Y-266508000D01*
G75*
G02*
X337928000Y-266757998I0J-249998D01*
G01*
X337928000Y-267658002D01*
G75*
G02*
X337678002Y-267908000I-249998J0D01*
G01*
X337152998Y-267908000D01*
G75*
G02*
X336903000Y-267658002I0J249998D01*
G01*
G37*
G04 #@! TD*
G04 #@! TO.C,R16*
G36*
G01*
X338728000Y-265626002D02*
X338728000Y-264725998D01*
G75*
G02*
X338977998Y-264476000I249998J0D01*
G01*
X339503002Y-264476000D01*
G75*
G02*
X339753000Y-264725998I0J-249998D01*
G01*
X339753000Y-265626002D01*
G75*
G02*
X339503002Y-265876000I-249998J0D01*
G01*
X338977998Y-265876000D01*
G75*
G02*
X338728000Y-265626002I0J249998D01*
G01*
G37*
G36*
G01*
X336903000Y-265626002D02*
X336903000Y-264725998D01*
G75*
G02*
X337152998Y-264476000I249998J0D01*
G01*
X337678002Y-264476000D01*
G75*
G02*
X337928000Y-264725998I0J-249998D01*
G01*
X337928000Y-265626002D01*
G75*
G02*
X337678002Y-265876000I-249998J0D01*
G01*
X337152998Y-265876000D01*
G75*
G02*
X336903000Y-265626002I0J249998D01*
G01*
G37*
G04 #@! TD*
G04 #@! TO.C,R15*
G36*
G01*
X410499356Y-251366957D02*
X409862957Y-252003356D01*
G75*
G02*
X409509407Y-252003356I-176775J176775D01*
G01*
X409138174Y-251632123D01*
G75*
G02*
X409138174Y-251278573I176775J176775D01*
G01*
X409774573Y-250642174D01*
G75*
G02*
X410128123Y-250642174I176775J-176775D01*
G01*
X410499356Y-251013407D01*
G75*
G02*
X410499356Y-251366957I-176775J-176775D01*
G01*
G37*
G36*
G01*
X411789826Y-252657427D02*
X411153427Y-253293826D01*
G75*
G02*
X410799877Y-253293826I-176775J176775D01*
G01*
X410428644Y-252922593D01*
G75*
G02*
X410428644Y-252569043I176775J176775D01*
G01*
X411065043Y-251932644D01*
G75*
G02*
X411418593Y-251932644I176775J-176775D01*
G01*
X411789826Y-252303877D01*
G75*
G02*
X411789826Y-252657427I-176775J-176775D01*
G01*
G37*
G04 #@! TD*
G04 #@! TO.C,R14*
G36*
G01*
X428644000Y-254450002D02*
X428644000Y-253549998D01*
G75*
G02*
X428893998Y-253300000I249998J0D01*
G01*
X429419002Y-253300000D01*
G75*
G02*
X429669000Y-253549998I0J-249998D01*
G01*
X429669000Y-254450002D01*
G75*
G02*
X429419002Y-254700000I-249998J0D01*
G01*
X428893998Y-254700000D01*
G75*
G02*
X428644000Y-254450002I0J249998D01*
G01*
G37*
G36*
G01*
X426819000Y-254450002D02*
X426819000Y-253549998D01*
G75*
G02*
X427068998Y-253300000I249998J0D01*
G01*
X427594002Y-253300000D01*
G75*
G02*
X427844000Y-253549998I0J-249998D01*
G01*
X427844000Y-254450002D01*
G75*
G02*
X427594002Y-254700000I-249998J0D01*
G01*
X427068998Y-254700000D01*
G75*
G02*
X426819000Y-254450002I0J249998D01*
G01*
G37*
G04 #@! TD*
G04 #@! TO.C,R13*
G36*
G01*
X424288000Y-251517998D02*
X424288000Y-252418002D01*
G75*
G02*
X424038002Y-252668000I-249998J0D01*
G01*
X423512998Y-252668000D01*
G75*
G02*
X423263000Y-252418002I0J249998D01*
G01*
X423263000Y-251517998D01*
G75*
G02*
X423512998Y-251268000I249998J0D01*
G01*
X424038002Y-251268000D01*
G75*
G02*
X424288000Y-251517998I0J-249998D01*
G01*
G37*
G36*
G01*
X426113000Y-251517998D02*
X426113000Y-252418002D01*
G75*
G02*
X425863002Y-252668000I-249998J0D01*
G01*
X425337998Y-252668000D01*
G75*
G02*
X425088000Y-252418002I0J249998D01*
G01*
X425088000Y-251517998D01*
G75*
G02*
X425337998Y-251268000I249998J0D01*
G01*
X425863002Y-251268000D01*
G75*
G02*
X426113000Y-251517998I0J-249998D01*
G01*
G37*
G04 #@! TD*
G04 #@! TO.C,R12*
G36*
G01*
X581006000Y-287839998D02*
X581006000Y-288740002D01*
G75*
G02*
X580756002Y-288990000I-249998J0D01*
G01*
X580230998Y-288990000D01*
G75*
G02*
X579981000Y-288740002I0J249998D01*
G01*
X579981000Y-287839998D01*
G75*
G02*
X580230998Y-287590000I249998J0D01*
G01*
X580756002Y-287590000D01*
G75*
G02*
X581006000Y-287839998I0J-249998D01*
G01*
G37*
G36*
G01*
X582831000Y-287839998D02*
X582831000Y-288740002D01*
G75*
G02*
X582581002Y-288990000I-249998J0D01*
G01*
X582055998Y-288990000D01*
G75*
G02*
X581806000Y-288740002I0J249998D01*
G01*
X581806000Y-287839998D01*
G75*
G02*
X582055998Y-287590000I249998J0D01*
G01*
X582581002Y-287590000D01*
G75*
G02*
X582831000Y-287839998I0J-249998D01*
G01*
G37*
G04 #@! TD*
G04 #@! TO.C,R11*
G36*
G01*
X581006000Y-285807998D02*
X581006000Y-286708002D01*
G75*
G02*
X580756002Y-286958000I-249998J0D01*
G01*
X580230998Y-286958000D01*
G75*
G02*
X579981000Y-286708002I0J249998D01*
G01*
X579981000Y-285807998D01*
G75*
G02*
X580230998Y-285558000I249998J0D01*
G01*
X580756002Y-285558000D01*
G75*
G02*
X581006000Y-285807998I0J-249998D01*
G01*
G37*
G36*
G01*
X582831000Y-285807998D02*
X582831000Y-286708002D01*
G75*
G02*
X582581002Y-286958000I-249998J0D01*
G01*
X582055998Y-286958000D01*
G75*
G02*
X581806000Y-286708002I0J249998D01*
G01*
X581806000Y-285807998D01*
G75*
G02*
X582055998Y-285558000I249998J0D01*
G01*
X582581002Y-285558000D01*
G75*
G02*
X582831000Y-285807998I0J-249998D01*
G01*
G37*
G04 #@! TD*
G04 #@! TO.C,R10*
G36*
G01*
X568045002Y-287064000D02*
X567144998Y-287064000D01*
G75*
G02*
X566895000Y-286814002I0J249998D01*
G01*
X566895000Y-286288998D01*
G75*
G02*
X567144998Y-286039000I249998J0D01*
G01*
X568045002Y-286039000D01*
G75*
G02*
X568295000Y-286288998I0J-249998D01*
G01*
X568295000Y-286814002D01*
G75*
G02*
X568045002Y-287064000I-249998J0D01*
G01*
G37*
G36*
G01*
X568045002Y-288889000D02*
X567144998Y-288889000D01*
G75*
G02*
X566895000Y-288639002I0J249998D01*
G01*
X566895000Y-288113998D01*
G75*
G02*
X567144998Y-287864000I249998J0D01*
G01*
X568045002Y-287864000D01*
G75*
G02*
X568295000Y-288113998I0J-249998D01*
G01*
X568295000Y-288639002D01*
G75*
G02*
X568045002Y-288889000I-249998J0D01*
G01*
G37*
G04 #@! TD*
G04 #@! TO.C,R9*
G36*
G01*
X546875000Y-251263998D02*
X546875000Y-252164002D01*
G75*
G02*
X546625002Y-252414000I-249998J0D01*
G01*
X546099998Y-252414000D01*
G75*
G02*
X545850000Y-252164002I0J249998D01*
G01*
X545850000Y-251263998D01*
G75*
G02*
X546099998Y-251014000I249998J0D01*
G01*
X546625002Y-251014000D01*
G75*
G02*
X546875000Y-251263998I0J-249998D01*
G01*
G37*
G36*
G01*
X548700000Y-251263998D02*
X548700000Y-252164002D01*
G75*
G02*
X548450002Y-252414000I-249998J0D01*
G01*
X547924998Y-252414000D01*
G75*
G02*
X547675000Y-252164002I0J249998D01*
G01*
X547675000Y-251263998D01*
G75*
G02*
X547924998Y-251014000I249998J0D01*
G01*
X548450002Y-251014000D01*
G75*
G02*
X548700000Y-251263998I0J-249998D01*
G01*
G37*
G04 #@! TD*
G04 #@! TO.C,R8*
G36*
G01*
X530409998Y-283055000D02*
X531310002Y-283055000D01*
G75*
G02*
X531560000Y-283304998I0J-249998D01*
G01*
X531560000Y-283830002D01*
G75*
G02*
X531310002Y-284080000I-249998J0D01*
G01*
X530409998Y-284080000D01*
G75*
G02*
X530160000Y-283830002I0J249998D01*
G01*
X530160000Y-283304998D01*
G75*
G02*
X530409998Y-283055000I249998J0D01*
G01*
G37*
G36*
G01*
X530409998Y-284880000D02*
X531310002Y-284880000D01*
G75*
G02*
X531560000Y-285129998I0J-249998D01*
G01*
X531560000Y-285655002D01*
G75*
G02*
X531310002Y-285905000I-249998J0D01*
G01*
X530409998Y-285905000D01*
G75*
G02*
X530160000Y-285655002I0J249998D01*
G01*
X530160000Y-285129998D01*
G75*
G02*
X530409998Y-284880000I249998J0D01*
G01*
G37*
G04 #@! TD*
G04 #@! TO.C,R7*
G36*
G01*
X593794002Y-259315000D02*
X592893998Y-259315000D01*
G75*
G02*
X592644000Y-259065002I0J249998D01*
G01*
X592644000Y-258539998D01*
G75*
G02*
X592893998Y-258290000I249998J0D01*
G01*
X593794002Y-258290000D01*
G75*
G02*
X594044000Y-258539998I0J-249998D01*
G01*
X594044000Y-259065002D01*
G75*
G02*
X593794002Y-259315000I-249998J0D01*
G01*
G37*
G36*
G01*
X593794002Y-261140000D02*
X592893998Y-261140000D01*
G75*
G02*
X592644000Y-260890002I0J249998D01*
G01*
X592644000Y-260364998D01*
G75*
G02*
X592893998Y-260115000I249998J0D01*
G01*
X593794002Y-260115000D01*
G75*
G02*
X594044000Y-260364998I0J-249998D01*
G01*
X594044000Y-260890002D01*
G75*
G02*
X593794002Y-261140000I-249998J0D01*
G01*
G37*
G04 #@! TD*
G04 #@! TO.C,R6*
G36*
G01*
X564185000Y-252069002D02*
X564185000Y-251168998D01*
G75*
G02*
X564434998Y-250919000I249998J0D01*
G01*
X564960002Y-250919000D01*
G75*
G02*
X565210000Y-251168998I0J-249998D01*
G01*
X565210000Y-252069002D01*
G75*
G02*
X564960002Y-252319000I-249998J0D01*
G01*
X564434998Y-252319000D01*
G75*
G02*
X564185000Y-252069002I0J249998D01*
G01*
G37*
G36*
G01*
X562360000Y-252069002D02*
X562360000Y-251168998D01*
G75*
G02*
X562609998Y-250919000I249998J0D01*
G01*
X563135002Y-250919000D01*
G75*
G02*
X563385000Y-251168998I0J-249998D01*
G01*
X563385000Y-252069002D01*
G75*
G02*
X563135002Y-252319000I-249998J0D01*
G01*
X562609998Y-252319000D01*
G75*
G02*
X562360000Y-252069002I0J249998D01*
G01*
G37*
G04 #@! TD*
G04 #@! TO.C,R5*
G36*
G01*
X568154000Y-252069002D02*
X568154000Y-251168998D01*
G75*
G02*
X568403998Y-250919000I249998J0D01*
G01*
X568929002Y-250919000D01*
G75*
G02*
X569179000Y-251168998I0J-249998D01*
G01*
X569179000Y-252069002D01*
G75*
G02*
X568929002Y-252319000I-249998J0D01*
G01*
X568403998Y-252319000D01*
G75*
G02*
X568154000Y-252069002I0J249998D01*
G01*
G37*
G36*
G01*
X566329000Y-252069002D02*
X566329000Y-251168998D01*
G75*
G02*
X566578998Y-250919000I249998J0D01*
G01*
X567104002Y-250919000D01*
G75*
G02*
X567354000Y-251168998I0J-249998D01*
G01*
X567354000Y-252069002D01*
G75*
G02*
X567104002Y-252319000I-249998J0D01*
G01*
X566578998Y-252319000D01*
G75*
G02*
X566329000Y-252069002I0J249998D01*
G01*
G37*
G04 #@! TD*
G04 #@! TO.C,R4*
G36*
G01*
X580078002Y-259315000D02*
X579177998Y-259315000D01*
G75*
G02*
X578928000Y-259065002I0J249998D01*
G01*
X578928000Y-258539998D01*
G75*
G02*
X579177998Y-258290000I249998J0D01*
G01*
X580078002Y-258290000D01*
G75*
G02*
X580328000Y-258539998I0J-249998D01*
G01*
X580328000Y-259065002D01*
G75*
G02*
X580078002Y-259315000I-249998J0D01*
G01*
G37*
G36*
G01*
X580078002Y-261140000D02*
X579177998Y-261140000D01*
G75*
G02*
X578928000Y-260890002I0J249998D01*
G01*
X578928000Y-260364998D01*
G75*
G02*
X579177998Y-260115000I249998J0D01*
G01*
X580078002Y-260115000D01*
G75*
G02*
X580328000Y-260364998I0J-249998D01*
G01*
X580328000Y-260890002D01*
G75*
G02*
X580078002Y-261140000I-249998J0D01*
G01*
G37*
G04 #@! TD*
G04 #@! TO.C,R3*
G36*
G01*
X541570500Y-261562002D02*
X541570500Y-260661998D01*
G75*
G02*
X541820498Y-260412000I249998J0D01*
G01*
X542345502Y-260412000D01*
G75*
G02*
X542595500Y-260661998I0J-249998D01*
G01*
X542595500Y-261562002D01*
G75*
G02*
X542345502Y-261812000I-249998J0D01*
G01*
X541820498Y-261812000D01*
G75*
G02*
X541570500Y-261562002I0J249998D01*
G01*
G37*
G36*
G01*
X539745500Y-261562002D02*
X539745500Y-260661998D01*
G75*
G02*
X539995498Y-260412000I249998J0D01*
G01*
X540520502Y-260412000D01*
G75*
G02*
X540770500Y-260661998I0J-249998D01*
G01*
X540770500Y-261562002D01*
G75*
G02*
X540520502Y-261812000I-249998J0D01*
G01*
X539995498Y-261812000D01*
G75*
G02*
X539745500Y-261562002I0J249998D01*
G01*
G37*
G04 #@! TD*
G04 #@! TO.C,R2*
G36*
G01*
X539722000Y-259530002D02*
X539722000Y-258629998D01*
G75*
G02*
X539971998Y-258380000I249998J0D01*
G01*
X540497002Y-258380000D01*
G75*
G02*
X540747000Y-258629998I0J-249998D01*
G01*
X540747000Y-259530002D01*
G75*
G02*
X540497002Y-259780000I-249998J0D01*
G01*
X539971998Y-259780000D01*
G75*
G02*
X539722000Y-259530002I0J249998D01*
G01*
G37*
G36*
G01*
X541547000Y-259530002D02*
X541547000Y-258629998D01*
G75*
G02*
X541796998Y-258380000I249998J0D01*
G01*
X542322002Y-258380000D01*
G75*
G02*
X542572000Y-258629998I0J-249998D01*
G01*
X542572000Y-259530002D01*
G75*
G02*
X542322002Y-259780000I-249998J0D01*
G01*
X541796998Y-259780000D01*
G75*
G02*
X541547000Y-259530002I0J249998D01*
G01*
G37*
G04 #@! TD*
G04 #@! TO.C,R1*
G36*
G01*
X547224000Y-264217998D02*
X547224000Y-265118002D01*
G75*
G02*
X546974002Y-265368000I-249998J0D01*
G01*
X546448998Y-265368000D01*
G75*
G02*
X546199000Y-265118002I0J249998D01*
G01*
X546199000Y-264217998D01*
G75*
G02*
X546448998Y-263968000I249998J0D01*
G01*
X546974002Y-263968000D01*
G75*
G02*
X547224000Y-264217998I0J-249998D01*
G01*
G37*
G36*
G01*
X549049000Y-264217998D02*
X549049000Y-265118002D01*
G75*
G02*
X548799002Y-265368000I-249998J0D01*
G01*
X548273998Y-265368000D01*
G75*
G02*
X548024000Y-265118002I0J249998D01*
G01*
X548024000Y-264217998D01*
G75*
G02*
X548273998Y-263968000I249998J0D01*
G01*
X548799002Y-263968000D01*
G75*
G02*
X549049000Y-264217998I0J-249998D01*
G01*
G37*
G04 #@! TD*
G04 #@! TO.C,F1*
G36*
G01*
X578879000Y-257165000D02*
X578879000Y-255915000D01*
G75*
G02*
X579129000Y-255665000I250000J0D01*
G01*
X579879000Y-255665000D01*
G75*
G02*
X580129000Y-255915000I0J-250000D01*
G01*
X580129000Y-257165000D01*
G75*
G02*
X579879000Y-257415000I-250000J0D01*
G01*
X579129000Y-257415000D01*
G75*
G02*
X578879000Y-257165000I0J250000D01*
G01*
G37*
G36*
G01*
X576079000Y-257165000D02*
X576079000Y-255915000D01*
G75*
G02*
X576329000Y-255665000I250000J0D01*
G01*
X577079000Y-255665000D01*
G75*
G02*
X577329000Y-255915000I0J-250000D01*
G01*
X577329000Y-257165000D01*
G75*
G02*
X577079000Y-257415000I-250000J0D01*
G01*
X576329000Y-257415000D01*
G75*
G02*
X576079000Y-257165000I0J250000D01*
G01*
G37*
G04 #@! TD*
D31*
G04 #@! TO.C,D111*
X574675000Y-373000000D03*
X574675000Y-376300000D03*
G04 #@! TD*
G04 #@! TO.C,D110*
X546100000Y-376175000D03*
X546100000Y-379475000D03*
G04 #@! TD*
G04 #@! TO.C,D109*
X512762000Y-376175000D03*
X512762000Y-379475000D03*
G04 #@! TD*
G04 #@! TO.C,D108*
X493712000Y-376175000D03*
X493712000Y-379475000D03*
G04 #@! TD*
G04 #@! TO.C,D107*
X474662000Y-376175000D03*
X474662000Y-379475000D03*
G04 #@! TD*
G04 #@! TO.C,D106*
X448469000Y-376175000D03*
X448469000Y-379475000D03*
G04 #@! TD*
G04 #@! TO.C,D105*
X424656000Y-376175000D03*
X424656000Y-379475000D03*
G04 #@! TD*
G04 #@! TO.C,D104*
X400844000Y-376175000D03*
X400844000Y-379475000D03*
G04 #@! TD*
G04 #@! TO.C,D103*
X377031000Y-376175000D03*
X377031000Y-379475000D03*
G04 #@! TD*
G04 #@! TO.C,D102*
X305594000Y-376175000D03*
X305594000Y-379475000D03*
G04 #@! TD*
G04 #@! TO.C,D101*
X234156000Y-376175000D03*
X234156000Y-379475000D03*
G04 #@! TD*
G04 #@! TO.C,D100*
X210344000Y-376175000D03*
X210344000Y-379475000D03*
G04 #@! TD*
G04 #@! TO.C,D99*
X186531000Y-376175000D03*
X186531000Y-379475000D03*
G04 #@! TD*
D32*
G04 #@! TO.C,D98*
X587374000Y-376498000D03*
X584074000Y-376498000D03*
G04 #@! TD*
D31*
G04 #@! TO.C,D97*
X574675000Y-360300000D03*
X574675000Y-363600000D03*
G04 #@! TD*
G04 #@! TO.C,D96*
X555625000Y-357125000D03*
X555625000Y-360425000D03*
G04 #@! TD*
G04 #@! TO.C,D95*
X536575000Y-357125000D03*
X536575000Y-360425000D03*
G04 #@! TD*
G04 #@! TO.C,D94*
X493712000Y-357125000D03*
X493712000Y-360425000D03*
G04 #@! TD*
G04 #@! TO.C,D93*
X434181000Y-357125000D03*
X434181000Y-360425000D03*
G04 #@! TD*
G04 #@! TO.C,D92*
X398462000Y-357125000D03*
X398462000Y-360425000D03*
G04 #@! TD*
G04 #@! TO.C,D91*
X379412000Y-357125000D03*
X379412000Y-360425000D03*
G04 #@! TD*
G04 #@! TO.C,D90*
X360362000Y-357125000D03*
X360362000Y-360425000D03*
G04 #@! TD*
G04 #@! TO.C,D89*
X341312000Y-357125000D03*
X341312000Y-360425000D03*
G04 #@! TD*
G04 #@! TO.C,D88*
X322262000Y-357125000D03*
X322262000Y-360425000D03*
G04 #@! TD*
G04 #@! TO.C,D87*
X303212000Y-357125000D03*
X303212000Y-360425000D03*
G04 #@! TD*
G04 #@! TO.C,D86*
X284162000Y-357125000D03*
X284162000Y-360425000D03*
G04 #@! TD*
G04 #@! TO.C,D85*
X265112000Y-357125000D03*
X265112000Y-360425000D03*
G04 #@! TD*
G04 #@! TO.C,D84*
X246062000Y-357125000D03*
X246062000Y-360425000D03*
G04 #@! TD*
G04 #@! TO.C,D83*
X227012000Y-357125000D03*
X227012000Y-360425000D03*
G04 #@! TD*
G04 #@! TO.C,D82*
X196056000Y-357125000D03*
X196056000Y-360425000D03*
G04 #@! TD*
G04 #@! TO.C,D81*
X574675000Y-334900000D03*
X574675000Y-338200000D03*
G04 #@! TD*
G04 #@! TO.C,D80*
X555625000Y-338075000D03*
X555625000Y-341375000D03*
G04 #@! TD*
G04 #@! TO.C,D79*
X536575000Y-338075000D03*
X536575000Y-341375000D03*
G04 #@! TD*
G04 #@! TO.C,D78*
X438944000Y-338075000D03*
X438944000Y-341375000D03*
G04 #@! TD*
G04 #@! TO.C,D77*
X407988000Y-338075000D03*
X407988000Y-341375000D03*
G04 #@! TD*
G04 #@! TO.C,D76*
X388938000Y-338075000D03*
X388938000Y-341375000D03*
G04 #@! TD*
G04 #@! TO.C,D75*
X369888000Y-338075000D03*
X369888000Y-341375000D03*
G04 #@! TD*
G04 #@! TO.C,D74*
X350838000Y-338075000D03*
X350838000Y-341375000D03*
G04 #@! TD*
G04 #@! TO.C,D73*
X331788000Y-338075000D03*
X331788000Y-341375000D03*
G04 #@! TD*
G04 #@! TO.C,D72*
X312738000Y-338075000D03*
X312738000Y-341375000D03*
G04 #@! TD*
G04 #@! TO.C,D71*
X293688000Y-338075000D03*
X293688000Y-341375000D03*
G04 #@! TD*
G04 #@! TO.C,D70*
X274638000Y-338075000D03*
X274638000Y-341375000D03*
G04 #@! TD*
G04 #@! TO.C,D69*
X255588000Y-338075000D03*
X255588000Y-341375000D03*
G04 #@! TD*
G04 #@! TO.C,D68*
X236538000Y-338075000D03*
X236538000Y-341375000D03*
G04 #@! TD*
G04 #@! TO.C,D67*
X217488000Y-338075000D03*
X217488000Y-341375000D03*
G04 #@! TD*
G04 #@! TO.C,D66*
X191294000Y-338075000D03*
X191294000Y-341375000D03*
G04 #@! TD*
D32*
G04 #@! TO.C,D65*
X587374000Y-338268000D03*
X584074000Y-338268000D03*
G04 #@! TD*
D31*
G04 #@! TO.C,D64*
X574675000Y-322200000D03*
X574675000Y-325500000D03*
G04 #@! TD*
G04 #@! TO.C,D63*
X555625000Y-319025000D03*
X555625000Y-322325000D03*
G04 #@! TD*
G04 #@! TO.C,D62*
X536575000Y-319025000D03*
X536575000Y-322325000D03*
G04 #@! TD*
G04 #@! TO.C,D61*
X512762000Y-319025000D03*
X512762000Y-322325000D03*
G04 #@! TD*
G04 #@! TO.C,D60*
X493712000Y-319025000D03*
X493712000Y-322325000D03*
G04 #@! TD*
G04 #@! TO.C,D59*
X474662000Y-319025000D03*
X474662000Y-322325000D03*
G04 #@! TD*
G04 #@! TO.C,D58*
X446088000Y-319025000D03*
X446088000Y-322325000D03*
G04 #@! TD*
G04 #@! TO.C,D57*
X422275000Y-319025000D03*
X422275000Y-322325000D03*
G04 #@! TD*
G04 #@! TO.C,D56*
X403225000Y-319025000D03*
X403225000Y-322325000D03*
G04 #@! TD*
G04 #@! TO.C,D55*
X384175000Y-319025000D03*
X384175000Y-322325000D03*
G04 #@! TD*
G04 #@! TO.C,D54*
X365125000Y-319025000D03*
X365125000Y-322325000D03*
G04 #@! TD*
G04 #@! TO.C,D53*
X346075000Y-319025000D03*
X346075000Y-322325000D03*
G04 #@! TD*
G04 #@! TO.C,D52*
X327025000Y-319025000D03*
X327025000Y-322325000D03*
G04 #@! TD*
G04 #@! TO.C,D51*
X307975000Y-319025000D03*
X307975000Y-322325000D03*
G04 #@! TD*
G04 #@! TO.C,D50*
X288925000Y-319025000D03*
X288925000Y-322325000D03*
G04 #@! TD*
G04 #@! TO.C,D49*
X269875000Y-319025000D03*
X269875000Y-322325000D03*
G04 #@! TD*
G04 #@! TO.C,D48*
X250825000Y-319025000D03*
X250825000Y-322325000D03*
G04 #@! TD*
G04 #@! TO.C,D47*
X231775000Y-319025000D03*
X231775000Y-322325000D03*
G04 #@! TD*
G04 #@! TO.C,D46*
X212725000Y-319025000D03*
X212725000Y-322325000D03*
G04 #@! TD*
G04 #@! TO.C,D45*
X188912000Y-319025000D03*
X188912000Y-322325000D03*
G04 #@! TD*
G04 #@! TO.C,D44*
X593725000Y-299975000D03*
X593725000Y-303275000D03*
G04 #@! TD*
G04 #@! TO.C,D43*
X574675000Y-299975000D03*
X574675000Y-303275000D03*
G04 #@! TD*
G04 #@! TO.C,D42*
X555625000Y-299975000D03*
X555625000Y-303275000D03*
G04 #@! TD*
G04 #@! TO.C,D41*
X536575000Y-299975000D03*
X536575000Y-303275000D03*
G04 #@! TD*
G04 #@! TO.C,D40*
X512762000Y-299975000D03*
X512762000Y-303275000D03*
G04 #@! TD*
G04 #@! TO.C,D39*
X493712000Y-299975000D03*
X493712000Y-303275000D03*
G04 #@! TD*
G04 #@! TO.C,D38*
X474662000Y-299975000D03*
X474662000Y-303275000D03*
G04 #@! TD*
G04 #@! TO.C,D37*
X441325000Y-299975000D03*
X441325000Y-303275000D03*
G04 #@! TD*
G04 #@! TO.C,D36*
X412750000Y-299975000D03*
X412750000Y-303275000D03*
G04 #@! TD*
G04 #@! TO.C,D35*
X393700000Y-299975000D03*
X393700000Y-303275000D03*
G04 #@! TD*
G04 #@! TO.C,D34*
X374650000Y-299975000D03*
X374650000Y-303275000D03*
G04 #@! TD*
G04 #@! TO.C,D33*
X355600000Y-299975000D03*
X355600000Y-303275000D03*
G04 #@! TD*
G04 #@! TO.C,D32*
X336550000Y-299975000D03*
X336550000Y-303275000D03*
G04 #@! TD*
G04 #@! TO.C,D31*
X317500000Y-299975000D03*
X317500000Y-303275000D03*
G04 #@! TD*
G04 #@! TO.C,D30*
X298450000Y-299975000D03*
X298450000Y-303275000D03*
G04 #@! TD*
G04 #@! TO.C,D29*
X279400000Y-299975000D03*
X279400000Y-303275000D03*
G04 #@! TD*
G04 #@! TO.C,D28*
X260350000Y-299975000D03*
X260350000Y-303275000D03*
G04 #@! TD*
G04 #@! TO.C,D27*
X241300000Y-299975000D03*
X241300000Y-303275000D03*
G04 #@! TD*
G04 #@! TO.C,D26*
X222250000Y-299975000D03*
X222250000Y-303275000D03*
G04 #@! TD*
G04 #@! TO.C,D25*
X203200000Y-299975000D03*
X203200000Y-303275000D03*
G04 #@! TD*
G04 #@! TO.C,D24*
X184150000Y-299975000D03*
X184150000Y-303275000D03*
G04 #@! TD*
G04 #@! TO.C,D23*
X512762000Y-276162000D03*
X512762000Y-279462000D03*
G04 #@! TD*
G04 #@! TO.C,D22*
X493712000Y-276162000D03*
X493712000Y-279462000D03*
G04 #@! TD*
G04 #@! TO.C,D21*
X474662000Y-276162000D03*
X474662000Y-279462000D03*
G04 #@! TD*
G04 #@! TO.C,D20*
X450850000Y-276162000D03*
X450850000Y-279462000D03*
G04 #@! TD*
G04 #@! TO.C,D19*
X431800000Y-276162000D03*
X431800000Y-279462000D03*
G04 #@! TD*
G04 #@! TO.C,D18*
X412750000Y-276162000D03*
X412750000Y-279462000D03*
G04 #@! TD*
G04 #@! TO.C,D17*
X393700000Y-276162000D03*
X393700000Y-279462000D03*
G04 #@! TD*
G04 #@! TO.C,D16*
X365125000Y-276162000D03*
X365125000Y-279462000D03*
G04 #@! TD*
G04 #@! TO.C,D15*
X346075000Y-276162000D03*
X346075000Y-279462000D03*
G04 #@! TD*
G04 #@! TO.C,D14*
X327025000Y-276162000D03*
X327025000Y-279462000D03*
G04 #@! TD*
G04 #@! TO.C,D13*
X307975000Y-276162000D03*
X307975000Y-279462000D03*
G04 #@! TD*
G04 #@! TO.C,D12*
X279400000Y-276162000D03*
X279400000Y-279462000D03*
G04 #@! TD*
G04 #@! TO.C,D11*
X260350000Y-276162000D03*
X260350000Y-279462000D03*
G04 #@! TD*
G04 #@! TO.C,D10*
X241300000Y-276162000D03*
X241300000Y-279462000D03*
G04 #@! TD*
G04 #@! TO.C,D9*
X222250000Y-276162000D03*
X222250000Y-279462000D03*
G04 #@! TD*
G04 #@! TO.C,D8*
X184150000Y-276162000D03*
X184150000Y-279462000D03*
G04 #@! TD*
G04 #@! TO.C,D7*
X512762000Y-257112000D03*
X512762000Y-260412000D03*
G04 #@! TD*
G04 #@! TO.C,D6*
X493712000Y-257112000D03*
X493712000Y-260412000D03*
G04 #@! TD*
G04 #@! TO.C,D5*
X474662000Y-257112000D03*
X474662000Y-260412000D03*
G04 #@! TD*
G04 #@! TO.C,D4*
X279400000Y-257112000D03*
X279400000Y-260412000D03*
G04 #@! TD*
G04 #@! TO.C,D3*
X260350000Y-257112000D03*
X260350000Y-260412000D03*
G04 #@! TD*
G04 #@! TO.C,D2*
X241300000Y-257112000D03*
X241300000Y-260412000D03*
G04 #@! TD*
G04 #@! TO.C,D1*
X222250000Y-257112000D03*
X222250000Y-260412000D03*
G04 #@! TD*
G04 #@! TO.C,C30*
G36*
G01*
X340810000Y-261587000D02*
X340810000Y-260637000D01*
G75*
G02*
X341060000Y-260387000I250000J0D01*
G01*
X341560000Y-260387000D01*
G75*
G02*
X341810000Y-260637000I0J-250000D01*
G01*
X341810000Y-261587000D01*
G75*
G02*
X341560000Y-261837000I-250000J0D01*
G01*
X341060000Y-261837000D01*
G75*
G02*
X340810000Y-261587000I0J250000D01*
G01*
G37*
G36*
G01*
X338910000Y-261587000D02*
X338910000Y-260637000D01*
G75*
G02*
X339160000Y-260387000I250000J0D01*
G01*
X339660000Y-260387000D01*
G75*
G02*
X339910000Y-260637000I0J-250000D01*
G01*
X339910000Y-261587000D01*
G75*
G02*
X339660000Y-261837000I-250000J0D01*
G01*
X339160000Y-261837000D01*
G75*
G02*
X338910000Y-261587000I0J250000D01*
G01*
G37*
G04 #@! TD*
G04 #@! TO.C,C29*
G36*
G01*
X332707000Y-252026000D02*
X331757000Y-252026000D01*
G75*
G02*
X331507000Y-251776000I0J250000D01*
G01*
X331507000Y-251276000D01*
G75*
G02*
X331757000Y-251026000I250000J0D01*
G01*
X332707000Y-251026000D01*
G75*
G02*
X332957000Y-251276000I0J-250000D01*
G01*
X332957000Y-251776000D01*
G75*
G02*
X332707000Y-252026000I-250000J0D01*
G01*
G37*
G36*
G01*
X332707000Y-253926000D02*
X331757000Y-253926000D01*
G75*
G02*
X331507000Y-253676000I0J250000D01*
G01*
X331507000Y-253176000D01*
G75*
G02*
X331757000Y-252926000I250000J0D01*
G01*
X332707000Y-252926000D01*
G75*
G02*
X332957000Y-253176000I0J-250000D01*
G01*
X332957000Y-253676000D01*
G75*
G02*
X332707000Y-253926000I-250000J0D01*
G01*
G37*
G04 #@! TD*
G04 #@! TO.C,C28*
G36*
G01*
X340810000Y-263619000D02*
X340810000Y-262669000D01*
G75*
G02*
X341060000Y-262419000I250000J0D01*
G01*
X341560000Y-262419000D01*
G75*
G02*
X341810000Y-262669000I0J-250000D01*
G01*
X341810000Y-263619000D01*
G75*
G02*
X341560000Y-263869000I-250000J0D01*
G01*
X341060000Y-263869000D01*
G75*
G02*
X340810000Y-263619000I0J250000D01*
G01*
G37*
G36*
G01*
X338910000Y-263619000D02*
X338910000Y-262669000D01*
G75*
G02*
X339160000Y-262419000I250000J0D01*
G01*
X339660000Y-262419000D01*
G75*
G02*
X339910000Y-262669000I0J-250000D01*
G01*
X339910000Y-263619000D01*
G75*
G02*
X339660000Y-263869000I-250000J0D01*
G01*
X339160000Y-263869000D01*
G75*
G02*
X338910000Y-263619000I0J250000D01*
G01*
G37*
G04 #@! TD*
G04 #@! TO.C,C27*
G36*
G01*
X320515000Y-253232500D02*
X319565000Y-253232500D01*
G75*
G02*
X319315000Y-252982500I0J250000D01*
G01*
X319315000Y-252482500D01*
G75*
G02*
X319565000Y-252232500I250000J0D01*
G01*
X320515000Y-252232500D01*
G75*
G02*
X320765000Y-252482500I0J-250000D01*
G01*
X320765000Y-252982500D01*
G75*
G02*
X320515000Y-253232500I-250000J0D01*
G01*
G37*
G36*
G01*
X320515000Y-255132500D02*
X319565000Y-255132500D01*
G75*
G02*
X319315000Y-254882500I0J250000D01*
G01*
X319315000Y-254382500D01*
G75*
G02*
X319565000Y-254132500I250000J0D01*
G01*
X320515000Y-254132500D01*
G75*
G02*
X320765000Y-254382500I0J-250000D01*
G01*
X320765000Y-254882500D01*
G75*
G02*
X320515000Y-255132500I-250000J0D01*
G01*
G37*
G04 #@! TD*
G04 #@! TO.C,C26*
G36*
G01*
X322547000Y-253232500D02*
X321597000Y-253232500D01*
G75*
G02*
X321347000Y-252982500I0J250000D01*
G01*
X321347000Y-252482500D01*
G75*
G02*
X321597000Y-252232500I250000J0D01*
G01*
X322547000Y-252232500D01*
G75*
G02*
X322797000Y-252482500I0J-250000D01*
G01*
X322797000Y-252982500D01*
G75*
G02*
X322547000Y-253232500I-250000J0D01*
G01*
G37*
G36*
G01*
X322547000Y-255132500D02*
X321597000Y-255132500D01*
G75*
G02*
X321347000Y-254882500I0J250000D01*
G01*
X321347000Y-254382500D01*
G75*
G02*
X321597000Y-254132500I250000J0D01*
G01*
X322547000Y-254132500D01*
G75*
G02*
X322797000Y-254382500I0J-250000D01*
G01*
X322797000Y-254882500D01*
G75*
G02*
X322547000Y-255132500I-250000J0D01*
G01*
G37*
G04 #@! TD*
G04 #@! TO.C,C25*
G36*
G01*
X574998000Y-266286000D02*
X574998000Y-265336000D01*
G75*
G02*
X575248000Y-265086000I250000J0D01*
G01*
X575748000Y-265086000D01*
G75*
G02*
X575998000Y-265336000I0J-250000D01*
G01*
X575998000Y-266286000D01*
G75*
G02*
X575748000Y-266536000I-250000J0D01*
G01*
X575248000Y-266536000D01*
G75*
G02*
X574998000Y-266286000I0J250000D01*
G01*
G37*
G36*
G01*
X573098000Y-266286000D02*
X573098000Y-265336000D01*
G75*
G02*
X573348000Y-265086000I250000J0D01*
G01*
X573848000Y-265086000D01*
G75*
G02*
X574098000Y-265336000I0J-250000D01*
G01*
X574098000Y-266286000D01*
G75*
G02*
X573848000Y-266536000I-250000J0D01*
G01*
X573348000Y-266536000D01*
G75*
G02*
X573098000Y-266286000I0J250000D01*
G01*
G37*
G04 #@! TD*
G04 #@! TO.C,C24*
G36*
G01*
X577883000Y-287724000D02*
X578833000Y-287724000D01*
G75*
G02*
X579083000Y-287974000I0J-250000D01*
G01*
X579083000Y-288474000D01*
G75*
G02*
X578833000Y-288724000I-250000J0D01*
G01*
X577883000Y-288724000D01*
G75*
G02*
X577633000Y-288474000I0J250000D01*
G01*
X577633000Y-287974000D01*
G75*
G02*
X577883000Y-287724000I250000J0D01*
G01*
G37*
G36*
G01*
X577883000Y-285824000D02*
X578833000Y-285824000D01*
G75*
G02*
X579083000Y-286074000I0J-250000D01*
G01*
X579083000Y-286574000D01*
G75*
G02*
X578833000Y-286824000I-250000J0D01*
G01*
X577883000Y-286824000D01*
G75*
G02*
X577633000Y-286574000I0J250000D01*
G01*
X577633000Y-286074000D01*
G75*
G02*
X577883000Y-285824000I250000J0D01*
G01*
G37*
G04 #@! TD*
G04 #@! TO.C,C23*
G36*
G01*
X340810000Y-259555000D02*
X340810000Y-258605000D01*
G75*
G02*
X341060000Y-258355000I250000J0D01*
G01*
X341560000Y-258355000D01*
G75*
G02*
X341810000Y-258605000I0J-250000D01*
G01*
X341810000Y-259555000D01*
G75*
G02*
X341560000Y-259805000I-250000J0D01*
G01*
X341060000Y-259805000D01*
G75*
G02*
X340810000Y-259555000I0J250000D01*
G01*
G37*
G36*
G01*
X338910000Y-259555000D02*
X338910000Y-258605000D01*
G75*
G02*
X339160000Y-258355000I250000J0D01*
G01*
X339660000Y-258355000D01*
G75*
G02*
X339910000Y-258605000I0J-250000D01*
G01*
X339910000Y-259555000D01*
G75*
G02*
X339660000Y-259805000I-250000J0D01*
G01*
X339160000Y-259805000D01*
G75*
G02*
X338910000Y-259555000I0J250000D01*
G01*
G37*
G04 #@! TD*
G04 #@! TO.C,C22*
G36*
G01*
X334739000Y-252026000D02*
X333789000Y-252026000D01*
G75*
G02*
X333539000Y-251776000I0J250000D01*
G01*
X333539000Y-251276000D01*
G75*
G02*
X333789000Y-251026000I250000J0D01*
G01*
X334739000Y-251026000D01*
G75*
G02*
X334989000Y-251276000I0J-250000D01*
G01*
X334989000Y-251776000D01*
G75*
G02*
X334739000Y-252026000I-250000J0D01*
G01*
G37*
G36*
G01*
X334739000Y-253926000D02*
X333789000Y-253926000D01*
G75*
G02*
X333539000Y-253676000I0J250000D01*
G01*
X333539000Y-253176000D01*
G75*
G02*
X333789000Y-252926000I250000J0D01*
G01*
X334739000Y-252926000D01*
G75*
G02*
X334989000Y-253176000I0J-250000D01*
G01*
X334989000Y-253676000D01*
G75*
G02*
X334739000Y-253926000I-250000J0D01*
G01*
G37*
G04 #@! TD*
G04 #@! TO.C,C21*
G36*
G01*
X423689678Y-260457927D02*
X423017927Y-261129678D01*
G75*
G02*
X422664373Y-261129678I-176777J176777D01*
G01*
X422310820Y-260776125D01*
G75*
G02*
X422310820Y-260422571I176777J176777D01*
G01*
X422982571Y-259750820D01*
G75*
G02*
X423336125Y-259750820I176777J-176777D01*
G01*
X423689678Y-260104373D01*
G75*
G02*
X423689678Y-260457927I-176777J-176777D01*
G01*
G37*
G36*
G01*
X425033180Y-261801429D02*
X424361429Y-262473180D01*
G75*
G02*
X424007875Y-262473180I-176777J176777D01*
G01*
X423654322Y-262119627D01*
G75*
G02*
X423654322Y-261766073I176777J176777D01*
G01*
X424326073Y-261094322D01*
G75*
G02*
X424679627Y-261094322I176777J-176777D01*
G01*
X425033180Y-261447875D01*
G75*
G02*
X425033180Y-261801429I-176777J-176777D01*
G01*
G37*
G04 #@! TD*
G04 #@! TO.C,C20*
G36*
G01*
X425213678Y-258933927D02*
X424541927Y-259605678D01*
G75*
G02*
X424188373Y-259605678I-176777J176777D01*
G01*
X423834820Y-259252125D01*
G75*
G02*
X423834820Y-258898571I176777J176777D01*
G01*
X424506571Y-258226820D01*
G75*
G02*
X424860125Y-258226820I176777J-176777D01*
G01*
X425213678Y-258580373D01*
G75*
G02*
X425213678Y-258933927I-176777J-176777D01*
G01*
G37*
G36*
G01*
X426557180Y-260277429D02*
X425885429Y-260949180D01*
G75*
G02*
X425531875Y-260949180I-176777J176777D01*
G01*
X425178322Y-260595627D01*
G75*
G02*
X425178322Y-260242073I176777J176777D01*
G01*
X425850073Y-259570322D01*
G75*
G02*
X426203627Y-259570322I176777J-176777D01*
G01*
X426557180Y-259923875D01*
G75*
G02*
X426557180Y-260277429I-176777J-176777D01*
G01*
G37*
G04 #@! TD*
G04 #@! TO.C,C19*
G36*
G01*
X418051000Y-251518000D02*
X417101000Y-251518000D01*
G75*
G02*
X416851000Y-251268000I0J250000D01*
G01*
X416851000Y-250768000D01*
G75*
G02*
X417101000Y-250518000I250000J0D01*
G01*
X418051000Y-250518000D01*
G75*
G02*
X418301000Y-250768000I0J-250000D01*
G01*
X418301000Y-251268000D01*
G75*
G02*
X418051000Y-251518000I-250000J0D01*
G01*
G37*
G36*
G01*
X418051000Y-253418000D02*
X417101000Y-253418000D01*
G75*
G02*
X416851000Y-253168000I0J250000D01*
G01*
X416851000Y-252668000D01*
G75*
G02*
X417101000Y-252418000I250000J0D01*
G01*
X418051000Y-252418000D01*
G75*
G02*
X418301000Y-252668000I0J-250000D01*
G01*
X418301000Y-253168000D01*
G75*
G02*
X418051000Y-253418000I-250000J0D01*
G01*
G37*
G04 #@! TD*
G04 #@! TO.C,C18*
G36*
G01*
X548149678Y-269093927D02*
X547477927Y-269765678D01*
G75*
G02*
X547124373Y-269765678I-176777J176777D01*
G01*
X546770820Y-269412125D01*
G75*
G02*
X546770820Y-269058571I176777J176777D01*
G01*
X547442571Y-268386820D01*
G75*
G02*
X547796125Y-268386820I176777J-176777D01*
G01*
X548149678Y-268740373D01*
G75*
G02*
X548149678Y-269093927I-176777J-176777D01*
G01*
G37*
G36*
G01*
X549493180Y-270437429D02*
X548821429Y-271109180D01*
G75*
G02*
X548467875Y-271109180I-176777J176777D01*
G01*
X548114322Y-270755627D01*
G75*
G02*
X548114322Y-270402073I176777J176777D01*
G01*
X548786073Y-269730322D01*
G75*
G02*
X549139627Y-269730322I176777J-176777D01*
G01*
X549493180Y-270083875D01*
G75*
G02*
X549493180Y-270437429I-176777J-176777D01*
G01*
G37*
G04 #@! TD*
G04 #@! TO.C,C17*
G36*
G01*
X408922322Y-254146073D02*
X409594073Y-253474322D01*
G75*
G02*
X409947627Y-253474322I176777J-176777D01*
G01*
X410301180Y-253827875D01*
G75*
G02*
X410301180Y-254181429I-176777J-176777D01*
G01*
X409629429Y-254853180D01*
G75*
G02*
X409275875Y-254853180I-176777J176777D01*
G01*
X408922322Y-254499627D01*
G75*
G02*
X408922322Y-254146073I176777J176777D01*
G01*
G37*
G36*
G01*
X407578820Y-252802571D02*
X408250571Y-252130820D01*
G75*
G02*
X408604125Y-252130820I176777J-176777D01*
G01*
X408957678Y-252484373D01*
G75*
G02*
X408957678Y-252837927I-176777J-176777D01*
G01*
X408285927Y-253509678D01*
G75*
G02*
X407932373Y-253509678I-176777J176777D01*
G01*
X407578820Y-253156125D01*
G75*
G02*
X407578820Y-252802571I176777J176777D01*
G01*
G37*
G04 #@! TD*
G04 #@! TO.C,C16*
G36*
G01*
X419969927Y-252458322D02*
X420641678Y-253130073D01*
G75*
G02*
X420641678Y-253483627I-176777J-176777D01*
G01*
X420288125Y-253837180D01*
G75*
G02*
X419934571Y-253837180I-176777J176777D01*
G01*
X419262820Y-253165429D01*
G75*
G02*
X419262820Y-252811875I176777J176777D01*
G01*
X419616373Y-252458322D01*
G75*
G02*
X419969927Y-252458322I176777J-176777D01*
G01*
G37*
G36*
G01*
X421313429Y-251114820D02*
X421985180Y-251786571D01*
G75*
G02*
X421985180Y-252140125I-176777J-176777D01*
G01*
X421631627Y-252493678D01*
G75*
G02*
X421278073Y-252493678I-176777J176777D01*
G01*
X420606322Y-251821927D01*
G75*
G02*
X420606322Y-251468373I176777J176777D01*
G01*
X420959875Y-251114820D01*
G75*
G02*
X421313429Y-251114820I176777J-176777D01*
G01*
G37*
G04 #@! TD*
G04 #@! TO.C,C15*
G36*
G01*
X547604927Y-274048322D02*
X548276678Y-274720073D01*
G75*
G02*
X548276678Y-275073627I-176777J-176777D01*
G01*
X547923125Y-275427180D01*
G75*
G02*
X547569571Y-275427180I-176777J176777D01*
G01*
X546897820Y-274755429D01*
G75*
G02*
X546897820Y-274401875I176777J176777D01*
G01*
X547251373Y-274048322D01*
G75*
G02*
X547604927Y-274048322I176777J-176777D01*
G01*
G37*
G36*
G01*
X548948429Y-272704820D02*
X549620180Y-273376571D01*
G75*
G02*
X549620180Y-273730125I-176777J-176777D01*
G01*
X549266627Y-274083678D01*
G75*
G02*
X548913073Y-274083678I-176777J176777D01*
G01*
X548241322Y-273411927D01*
G75*
G02*
X548241322Y-273058373I176777J176777D01*
G01*
X548594875Y-272704820D01*
G75*
G02*
X548948429Y-272704820I176777J-176777D01*
G01*
G37*
G04 #@! TD*
G04 #@! TO.C,C14*
G36*
G01*
X426737678Y-257409927D02*
X426065927Y-258081678D01*
G75*
G02*
X425712373Y-258081678I-176777J176777D01*
G01*
X425358820Y-257728125D01*
G75*
G02*
X425358820Y-257374571I176777J176777D01*
G01*
X426030571Y-256702820D01*
G75*
G02*
X426384125Y-256702820I176777J-176777D01*
G01*
X426737678Y-257056373D01*
G75*
G02*
X426737678Y-257409927I-176777J-176777D01*
G01*
G37*
G36*
G01*
X428081180Y-258753429D02*
X427409429Y-259425180D01*
G75*
G02*
X427055875Y-259425180I-176777J176777D01*
G01*
X426702322Y-259071627D01*
G75*
G02*
X426702322Y-258718073I176777J176777D01*
G01*
X427374073Y-258046322D01*
G75*
G02*
X427727627Y-258046322I176777J-176777D01*
G01*
X428081180Y-258399875D01*
G75*
G02*
X428081180Y-258753429I-176777J-176777D01*
G01*
G37*
G04 #@! TD*
G04 #@! TO.C,C13*
G36*
G01*
X422673678Y-266045927D02*
X422001927Y-266717678D01*
G75*
G02*
X421648373Y-266717678I-176777J176777D01*
G01*
X421294820Y-266364125D01*
G75*
G02*
X421294820Y-266010571I176777J176777D01*
G01*
X421966571Y-265338820D01*
G75*
G02*
X422320125Y-265338820I176777J-176777D01*
G01*
X422673678Y-265692373D01*
G75*
G02*
X422673678Y-266045927I-176777J-176777D01*
G01*
G37*
G36*
G01*
X424017180Y-267389429D02*
X423345429Y-268061180D01*
G75*
G02*
X422991875Y-268061180I-176777J176777D01*
G01*
X422638322Y-267707627D01*
G75*
G02*
X422638322Y-267354073I176777J176777D01*
G01*
X423310073Y-266682322D01*
G75*
G02*
X423663627Y-266682322I176777J-176777D01*
G01*
X424017180Y-267035875D01*
G75*
G02*
X424017180Y-267389429I-176777J-176777D01*
G01*
G37*
G04 #@! TD*
G04 #@! TO.C,C12*
G36*
G01*
X555397000Y-251144000D02*
X555397000Y-252094000D01*
G75*
G02*
X555147000Y-252344000I-250000J0D01*
G01*
X554647000Y-252344000D01*
G75*
G02*
X554397000Y-252094000I0J250000D01*
G01*
X554397000Y-251144000D01*
G75*
G02*
X554647000Y-250894000I250000J0D01*
G01*
X555147000Y-250894000D01*
G75*
G02*
X555397000Y-251144000I0J-250000D01*
G01*
G37*
G36*
G01*
X557297000Y-251144000D02*
X557297000Y-252094000D01*
G75*
G02*
X557047000Y-252344000I-250000J0D01*
G01*
X556547000Y-252344000D01*
G75*
G02*
X556297000Y-252094000I0J250000D01*
G01*
X556297000Y-251144000D01*
G75*
G02*
X556547000Y-250894000I250000J0D01*
G01*
X557047000Y-250894000D01*
G75*
G02*
X557297000Y-251144000I0J-250000D01*
G01*
G37*
G04 #@! TD*
G04 #@! TO.C,C10*
G36*
G01*
X519758000Y-276319000D02*
X519758000Y-275369000D01*
G75*
G02*
X520008000Y-275119000I250000J0D01*
G01*
X520508000Y-275119000D01*
G75*
G02*
X520758000Y-275369000I0J-250000D01*
G01*
X520758000Y-276319000D01*
G75*
G02*
X520508000Y-276569000I-250000J0D01*
G01*
X520008000Y-276569000D01*
G75*
G02*
X519758000Y-276319000I0J250000D01*
G01*
G37*
G36*
G01*
X521658000Y-276319000D02*
X521658000Y-275369000D01*
G75*
G02*
X521908000Y-275119000I250000J0D01*
G01*
X522408000Y-275119000D01*
G75*
G02*
X522658000Y-275369000I0J-250000D01*
G01*
X522658000Y-276319000D01*
G75*
G02*
X522408000Y-276569000I-250000J0D01*
G01*
X521908000Y-276569000D01*
G75*
G02*
X521658000Y-276319000I0J250000D01*
G01*
G37*
G04 #@! TD*
G04 #@! TO.C,C8*
G36*
G01*
X528353000Y-258646000D02*
X529303000Y-258646000D01*
G75*
G02*
X529553000Y-258896000I0J-250000D01*
G01*
X529553000Y-259396000D01*
G75*
G02*
X529303000Y-259646000I-250000J0D01*
G01*
X528353000Y-259646000D01*
G75*
G02*
X528103000Y-259396000I0J250000D01*
G01*
X528103000Y-258896000D01*
G75*
G02*
X528353000Y-258646000I250000J0D01*
G01*
G37*
G36*
G01*
X528353000Y-260546000D02*
X529303000Y-260546000D01*
G75*
G02*
X529553000Y-260796000I0J-250000D01*
G01*
X529553000Y-261296000D01*
G75*
G02*
X529303000Y-261546000I-250000J0D01*
G01*
X528353000Y-261546000D01*
G75*
G02*
X528103000Y-261296000I0J250000D01*
G01*
X528103000Y-260796000D01*
G75*
G02*
X528353000Y-260546000I250000J0D01*
G01*
G37*
G04 #@! TD*
G04 #@! TO.C,C7*
G36*
G01*
X559366000Y-251144000D02*
X559366000Y-252094000D01*
G75*
G02*
X559116000Y-252344000I-250000J0D01*
G01*
X558616000Y-252344000D01*
G75*
G02*
X558366000Y-252094000I0J250000D01*
G01*
X558366000Y-251144000D01*
G75*
G02*
X558616000Y-250894000I250000J0D01*
G01*
X559116000Y-250894000D01*
G75*
G02*
X559366000Y-251144000I0J-250000D01*
G01*
G37*
G36*
G01*
X561266000Y-251144000D02*
X561266000Y-252094000D01*
G75*
G02*
X561016000Y-252344000I-250000J0D01*
G01*
X560516000Y-252344000D01*
G75*
G02*
X560266000Y-252094000I0J250000D01*
G01*
X560266000Y-251144000D01*
G75*
G02*
X560516000Y-250894000I250000J0D01*
G01*
X561016000Y-250894000D01*
G75*
G02*
X561266000Y-251144000I0J-250000D01*
G01*
G37*
G04 #@! TD*
G04 #@! TO.C,C6*
G36*
G01*
X552138000Y-252189000D02*
X552138000Y-251239000D01*
G75*
G02*
X552388000Y-250989000I250000J0D01*
G01*
X552888000Y-250989000D01*
G75*
G02*
X553138000Y-251239000I0J-250000D01*
G01*
X553138000Y-252189000D01*
G75*
G02*
X552888000Y-252439000I-250000J0D01*
G01*
X552388000Y-252439000D01*
G75*
G02*
X552138000Y-252189000I0J250000D01*
G01*
G37*
G36*
G01*
X550238000Y-252189000D02*
X550238000Y-251239000D01*
G75*
G02*
X550488000Y-250989000I250000J0D01*
G01*
X550988000Y-250989000D01*
G75*
G02*
X551238000Y-251239000I0J-250000D01*
G01*
X551238000Y-252189000D01*
G75*
G02*
X550988000Y-252439000I-250000J0D01*
G01*
X550488000Y-252439000D01*
G75*
G02*
X550238000Y-252189000I0J250000D01*
G01*
G37*
G04 #@! TD*
G04 #@! TO.C,C5*
G36*
G01*
X531843000Y-259646000D02*
X530893000Y-259646000D01*
G75*
G02*
X530643000Y-259396000I0J250000D01*
G01*
X530643000Y-258896000D01*
G75*
G02*
X530893000Y-258646000I250000J0D01*
G01*
X531843000Y-258646000D01*
G75*
G02*
X532093000Y-258896000I0J-250000D01*
G01*
X532093000Y-259396000D01*
G75*
G02*
X531843000Y-259646000I-250000J0D01*
G01*
G37*
G36*
G01*
X531843000Y-261546000D02*
X530893000Y-261546000D01*
G75*
G02*
X530643000Y-261296000I0J250000D01*
G01*
X530643000Y-260796000D01*
G75*
G02*
X530893000Y-260546000I250000J0D01*
G01*
X531843000Y-260546000D01*
G75*
G02*
X532093000Y-260796000I0J-250000D01*
G01*
X532093000Y-261296000D01*
G75*
G02*
X531843000Y-261546000I-250000J0D01*
G01*
G37*
G04 #@! TD*
G04 #@! TO.C,C4*
G36*
G01*
X543248000Y-252189000D02*
X543248000Y-251239000D01*
G75*
G02*
X543498000Y-250989000I250000J0D01*
G01*
X543998000Y-250989000D01*
G75*
G02*
X544248000Y-251239000I0J-250000D01*
G01*
X544248000Y-252189000D01*
G75*
G02*
X543998000Y-252439000I-250000J0D01*
G01*
X543498000Y-252439000D01*
G75*
G02*
X543248000Y-252189000I0J250000D01*
G01*
G37*
G36*
G01*
X541348000Y-252189000D02*
X541348000Y-251239000D01*
G75*
G02*
X541598000Y-250989000I250000J0D01*
G01*
X542098000Y-250989000D01*
G75*
G02*
X542348000Y-251239000I0J-250000D01*
G01*
X542348000Y-252189000D01*
G75*
G02*
X542098000Y-252439000I-250000J0D01*
G01*
X541598000Y-252439000D01*
G75*
G02*
X541348000Y-252189000I0J250000D01*
G01*
G37*
G04 #@! TD*
G04 #@! TO.C,C3*
G36*
G01*
X540184000Y-251239000D02*
X540184000Y-252189000D01*
G75*
G02*
X539934000Y-252439000I-250000J0D01*
G01*
X539434000Y-252439000D01*
G75*
G02*
X539184000Y-252189000I0J250000D01*
G01*
X539184000Y-251239000D01*
G75*
G02*
X539434000Y-250989000I250000J0D01*
G01*
X539934000Y-250989000D01*
G75*
G02*
X540184000Y-251239000I0J-250000D01*
G01*
G37*
G36*
G01*
X538284000Y-251239000D02*
X538284000Y-252189000D01*
G75*
G02*
X538034000Y-252439000I-250000J0D01*
G01*
X537534000Y-252439000D01*
G75*
G02*
X537284000Y-252189000I0J250000D01*
G01*
X537284000Y-251239000D01*
G75*
G02*
X537534000Y-250989000I250000J0D01*
G01*
X538034000Y-250989000D01*
G75*
G02*
X538284000Y-251239000I0J-250000D01*
G01*
G37*
G04 #@! TD*
G04 #@! TO.C,C2*
G36*
G01*
X575114000Y-251271000D02*
X575114000Y-252221000D01*
G75*
G02*
X574864000Y-252471000I-250000J0D01*
G01*
X574364000Y-252471000D01*
G75*
G02*
X574114000Y-252221000I0J250000D01*
G01*
X574114000Y-251271000D01*
G75*
G02*
X574364000Y-251021000I250000J0D01*
G01*
X574864000Y-251021000D01*
G75*
G02*
X575114000Y-251271000I0J-250000D01*
G01*
G37*
G36*
G01*
X577014000Y-251271000D02*
X577014000Y-252221000D01*
G75*
G02*
X576764000Y-252471000I-250000J0D01*
G01*
X576264000Y-252471000D01*
G75*
G02*
X576014000Y-252221000I0J250000D01*
G01*
X576014000Y-251271000D01*
G75*
G02*
X576264000Y-251021000I250000J0D01*
G01*
X576764000Y-251021000D01*
G75*
G02*
X577014000Y-251271000I0J-250000D01*
G01*
G37*
G04 #@! TD*
G04 #@! TO.C,C1*
G36*
G01*
X572045000Y-252221000D02*
X572045000Y-251271000D01*
G75*
G02*
X572295000Y-251021000I250000J0D01*
G01*
X572795000Y-251021000D01*
G75*
G02*
X573045000Y-251271000I0J-250000D01*
G01*
X573045000Y-252221000D01*
G75*
G02*
X572795000Y-252471000I-250000J0D01*
G01*
X572295000Y-252471000D01*
G75*
G02*
X572045000Y-252221000I0J250000D01*
G01*
G37*
G36*
G01*
X570145000Y-252221000D02*
X570145000Y-251271000D01*
G75*
G02*
X570395000Y-251021000I250000J0D01*
G01*
X570895000Y-251021000D01*
G75*
G02*
X571145000Y-251271000I0J-250000D01*
G01*
X571145000Y-252221000D01*
G75*
G02*
X570895000Y-252471000I-250000J0D01*
G01*
X570395000Y-252471000D01*
G75*
G02*
X570145000Y-252221000I0J250000D01*
G01*
G37*
G04 #@! TD*
M02*
