M48
; DRILL file {KiCad (5.1.9)-1} date 02/01/21 17:40:33
; FORMAT={-:-/ absolute / inch / decimal}
; #@! TF.CreationDate,2021-02-01T17:40:33-05:00
; #@! TF.GenerationSoftware,Kicad,Pcbnew,(5.1.9)-1
; #@! TF.FileFunction,Plated,1,2,PTH
FMAT,2
INCH
T1C0.0157
T2C0.0236
T3C0.0315
T4C0.0579
%
G90
G05
T1
X6.7206Y-11.21
X6.7206Y-11.2994
X6.7206Y-12.15
X6.7214Y-12.2386
X6.81Y-15.23
X6.8106Y-15.15
X6.87Y-14.315
X6.905Y-12.99
X6.9056Y-12.9
X6.9075Y-14.3436
X6.945Y-12.9
X7.0Y-13.735
X7.0006Y-13.65
X7.0475Y-11.515
X7.115Y-11.19
X7.115Y-12.125
X7.16Y-11.21
X7.16Y-11.3272
X7.16Y-12.15
X7.16Y-12.2672
X7.185Y-14.4886
X7.1856Y-14.4
X7.205Y-15.125
X7.25Y-15.15
X7.25Y-15.2672
X7.29Y-14.69
X7.3Y-12.875
X7.345Y-12.9
X7.345Y-13.0172
X7.36Y-14.62
X7.38Y-13.855
X7.39Y-13.625
X7.41Y-13.92
X7.44Y-13.65
X7.44Y-13.7672
X7.4706Y-12.15
X7.4714Y-12.2386
X7.58Y-14.375
X7.62Y-9.96
X7.62Y-10.0
X7.625Y-14.4
X7.625Y-14.5172
X7.66Y-9.92
X7.75Y-15.23
X7.7506Y-15.15
X7.785Y-11.4914
X7.8386Y-12.9886
X7.8406Y-12.9
X7.86Y-12.125
X7.9075Y-9.8444
X7.91Y-12.15
X7.91Y-12.2672
X8.03Y-13.7386
X8.0306Y-13.65
X8.0998Y-11.4698
X8.145Y-15.125
X8.19Y-15.15
X8.19Y-15.2672
X8.22Y-11.2986
X8.2206Y-11.21
X8.2206Y-12.15
X8.2214Y-12.2386
X8.24Y-12.875
X8.2589Y-11.3559
X8.28Y-12.9
X8.28Y-13.0172
X8.405Y-14.4886
X8.4056Y-14.4
X8.425Y-13.625
X8.47Y-13.65
X8.47Y-13.7672
X8.5829Y-11.4714
X8.595Y-12.9886
X8.5956Y-12.9
X8.605Y-12.125
X8.6141Y-11.3559
X8.615Y-10.435
X8.615Y-10.6075
X8.615Y-11.185
X8.66Y-10.465
X8.66Y-10.5822
X8.66Y-11.21
X8.66Y-11.3272
X8.66Y-12.15
X8.66Y-12.2672
X8.685Y-15.2386
X8.6856Y-15.15
X8.7806Y-13.65
X8.7806Y-13.7386
X8.7886Y-14.3736
X8.845Y-14.4
X8.845Y-14.5172
X8.97Y-10.5536
X8.97Y-11.2986
X8.97Y-12.2386
X8.9706Y-10.465
X8.9706Y-11.21
X8.9706Y-12.15
X8.98Y-12.875
X9.0089Y-11.3559
X9.035Y-12.9
X9.035Y-13.0172
X9.08Y-15.125
X9.125Y-15.15
X9.125Y-15.2672
X9.155Y-14.4886
X9.1556Y-14.4
X9.165Y-13.62
X9.22Y-13.65
X9.22Y-13.7672
X9.345Y-12.9886
X9.3456Y-12.9
X9.36Y-11.4535
X9.36Y-12.125
X9.365Y-10.435
X9.365Y-11.185
X9.365Y-11.36
X9.41Y-10.465
X9.41Y-10.5822
X9.41Y-11.21
X9.41Y-11.3272
X9.41Y-12.15
X9.41Y-12.2672
X9.53Y-13.7386
X9.5306Y-13.65
X9.535Y-14.375
X9.595Y-14.4
X9.595Y-14.5172
X9.66Y-9.96
X9.72Y-10.5536
X9.72Y-11.2986
X9.72Y-12.2386
X9.7206Y-10.46
X9.7206Y-11.21
X9.7206Y-12.15
X9.735Y-12.875
X9.7589Y-11.3559
X9.785Y-12.9
X9.785Y-13.0172
X9.905Y-14.4886
X9.9056Y-14.4
X9.915Y-13.625
X9.97Y-13.65
X9.97Y-13.7672
X10.095Y-12.9886
X10.0956Y-12.9
X10.11Y-10.435
X10.11Y-10.675
X10.11Y-11.185
X10.11Y-11.3559
X10.11Y-12.125
X10.125Y-11.4356
X10.16Y-10.46
X10.16Y-10.585
X10.16Y-11.21
X10.16Y-11.3272
X10.16Y-12.15
X10.16Y-12.2672
X10.2806Y-13.65
X10.2806Y-13.7386
X10.29Y-14.375
X10.29Y-15.2986
X10.345Y-14.4
X10.345Y-14.5172
X10.47Y-10.555
X10.47Y-11.2986
X10.47Y-12.2386
X10.4706Y-10.46
X10.4706Y-11.21
X10.4706Y-12.15
X10.485Y-12.875
X10.5002Y-11.4178
X10.5089Y-11.3559
X10.535Y-12.9
X10.535Y-13.0172
X10.655Y-14.4886
X10.6556Y-14.4
X10.67Y-13.625
X10.72Y-13.65
X10.72Y-13.7672
X10.82Y-11.24
X10.8225Y-11.4178
X10.845Y-12.9886
X10.8456Y-12.9
X10.86Y-10.435
X10.86Y-11.185
X10.86Y-11.3559
X10.86Y-12.125
X10.88Y-10.12
X10.895Y-11.4178
X10.91Y-10.46
X10.91Y-10.585
X10.91Y-11.21
X10.91Y-11.3272
X10.91Y-12.15
X10.91Y-12.2672
X10.9736Y-10.615
X11.0233Y-9.957
X11.03Y-13.7386
X11.0306Y-13.65
X11.0393Y-10.6763
X11.04Y-14.375
X11.0516Y-9.9284
X11.0519Y-9.9866
X11.0775Y-11.0736
X11.0798Y-10.0145
X11.095Y-14.4
X11.095Y-14.5172
X11.115Y-11.3575
X11.1291Y-10.8091
X11.13Y-10.7036
X11.1388Y-12.0412
X11.14Y-11.5525
X11.1528Y-11.3903
X11.16Y-10.3
X11.18Y-10.44
X11.18Y-14.92
X11.1875Y-12.1814
X11.22Y-12.2386
X11.2206Y-12.15
X11.235Y-12.875
X11.2525Y-11.5525
X11.27Y-11.3559
X11.285Y-12.9
X11.285Y-13.0172
X11.3856Y-10.5928
X11.405Y-14.4886
X11.4056Y-14.4
X11.415Y-13.62
X11.42Y-10.08
X11.4249Y-10.4754
X11.425Y-10.5928
X11.425Y-10.515
X11.47Y-13.65
X11.47Y-13.7672
X11.5Y-15.2386
X11.5006Y-15.15
X11.5237Y-9.8997
X11.525Y-11.5486
X11.54Y-15.21
X11.5475Y-13.6475
X11.57Y-10.5355
X11.595Y-11.2986
X11.595Y-12.9886
X11.5956Y-11.21
X11.5956Y-12.9
X11.61Y-11.3845
X11.61Y-12.125
X11.66Y-12.15
X11.66Y-12.2672
X11.78Y-13.7386
X11.7806Y-13.65
X11.79Y-14.375
X11.82Y-13.65
X11.84Y-10.32
X11.845Y-14.4
X11.845Y-14.5172
X11.89Y-15.125
X11.89Y-15.2986
X11.9223Y-11.7002
X11.9265Y-9.821
X11.94Y-15.15
X11.94Y-15.2672
X11.954Y-11.651
X11.9648Y-11.7427
X11.97Y-12.2386
X11.9706Y-12.15
X11.9714Y-15.2959
X11.985Y-12.875
X11.995Y-11.185
X11.995Y-11.36
X11.9975Y-10.0575
X12.035Y-11.21
X12.035Y-11.3272
X12.035Y-12.9
X12.035Y-13.0172
X12.04Y-10.4
X12.05Y-15.15
X12.0705Y-10.088
X12.0715Y-11.3845
X12.08Y-11.5665
X12.1098Y-10.0852
X12.155Y-14.4886
X12.1556Y-14.4
X12.165Y-13.625
X12.195Y-10.12
X12.195Y-10.3518
X12.205Y-10.1772
X12.22Y-13.65
X12.22Y-13.7672
X12.234Y-10.346
X12.26Y-11.5665
X12.265Y-10.17
X12.2675Y-10.3775
X12.2685Y-10.7036
X12.3025Y-9.8532
X12.3257Y-9.9284
X12.3282Y-10.0063
X12.34Y-10.16
X12.3436Y-10.4611
X12.3436Y-10.705
X12.3436Y-11.2986
X12.345Y-12.9886
X12.3456Y-11.21
X12.3456Y-12.9
X12.3548Y-10.0352
X12.355Y-12.125
X12.36Y-10.3476
X12.3708Y-9.9308
X12.38Y-10.26
X12.3807Y-10.3811
X12.4086Y-10.4611
X12.41Y-12.15
X12.41Y-12.2672
X12.42Y-10.02
X12.4203Y-10.3839
X12.4886Y-10.1651
X12.52Y-10.0
X12.5306Y-13.65
X12.5306Y-13.7386
X12.54Y-11.5844
X12.54Y-14.37
X12.54Y-14.63
X12.58Y-10.26
X12.595Y-14.4
X12.595Y-14.5172
X12.66Y-11.585
X12.72Y-12.2386
X12.7206Y-12.15
X12.735Y-12.875
X12.7449Y-10.0249
X12.7498Y-11.1852
X12.7499Y-11.3559
X12.785Y-11.21
X12.785Y-11.3272
X12.785Y-12.9
X12.785Y-13.0172
X12.795Y-10.715
X12.84Y-9.94
X12.84Y-10.24
X12.84Y-11.3999
X12.88Y-10.18
X12.88Y-10.32
X12.905Y-14.4886
X12.9056Y-14.4
X12.92Y-10.8
X12.92Y-13.625
X12.94Y-9.94
X12.94Y-10.0
X12.94Y-10.12
X12.94Y-10.24
X12.94Y-10.36
X12.94Y-10.48
X12.97Y-13.65
X12.97Y-13.7672
X12.975Y-11.5844
X12.9816Y-10.1256
X13.0Y-10.3
X13.0272Y-10.0066
X13.04Y-10.2
X13.055Y-10.0425
X13.08Y-10.52
X13.0802Y-10.4798
X13.095Y-11.2986
X13.095Y-12.9886
X13.0956Y-11.21
X13.0956Y-12.9
X13.11Y-12.125
X13.1282Y-10.0531
X13.16Y-12.15
X13.16Y-12.2672
X13.1746Y-10.0587
X13.2Y-10.02
X13.2009Y-10.1445
X13.2025Y-10.0873
X13.225Y-10.52
X13.2275Y-10.2875
X13.24Y-10.46
X13.26Y-10.02
X13.28Y-9.94
X13.28Y-11.6022
X13.2806Y-13.65
X13.2814Y-13.7386
X13.29Y-14.375
X13.29Y-14.5459
X13.2925Y-10.36
X13.32Y-10.08
X13.325Y-10.145
X13.345Y-14.4
X13.345Y-14.5172
X13.38Y-9.976
X13.3937Y-10.1375
X13.4223Y-10.1075
X13.46Y-10.14
X13.46Y-11.64
X13.4665Y-10.039
X13.47Y-12.2386
X13.4706Y-12.15
X13.48Y-11.185
X13.48Y-11.3999
X13.48Y-12.875
X13.505Y-10.5318
X13.535Y-11.21
X13.535Y-11.3272
X13.535Y-12.9
X13.535Y-13.0172
X13.56Y-10.0
X13.6025Y-10.7475
X13.6363Y-11.7762
X13.64Y-10.14
X13.6425Y-10.7189
X13.655Y-14.4886
X13.6556Y-14.4
X13.665Y-11.6022
X13.67Y-13.625
X13.72Y-13.65
X13.72Y-13.7672
X13.75Y-10.7825
X13.7525Y-10.8661
X13.8125Y-10.7761
X13.8136Y-10.8661
X13.845Y-11.2986
X13.845Y-12.9886
X13.8456Y-11.21
X13.8456Y-12.9
X13.855Y-12.2959
X13.86Y-12.125
X13.875Y-11.3999
X13.91Y-12.15
X13.91Y-12.2672
X14.0Y-11.62
X14.02Y-10.04
X14.0306Y-13.65
X14.0314Y-13.7386
X14.04Y-14.375
X14.04Y-14.67
X14.095Y-14.4
X14.095Y-14.5172
X14.14Y-10.56
X14.196Y-11.724
X14.22Y-12.2386
X14.2206Y-12.15
X14.235Y-12.875
X14.24Y-11.185
X14.24Y-11.3999
X14.285Y-11.21
X14.285Y-11.3272
X14.285Y-12.9
X14.285Y-13.0172
X14.31Y-15.2386
X14.3106Y-15.15
X14.39Y-11.6201
X14.405Y-14.4886
X14.4056Y-14.4
X14.41Y-14.9514
X14.42Y-13.625
X14.4361Y-11.2164
X14.4375Y-11.395
X14.445Y-11.6201
X14.47Y-13.65
X14.47Y-13.7672
X14.48Y-9.9
X14.52Y-11.3999
X14.52Y-14.67
X14.595Y-12.9886
X14.5956Y-12.9
X14.5964Y-11.0686
X14.605Y-12.12
X14.6089Y-10.48
X14.61Y-12.2959
X14.6375Y-10.3453
X14.6386Y-10.9961
X14.66Y-12.15
X14.66Y-12.2672
X14.6661Y-10.38
X14.6672Y-11.3975
X14.7Y-10.1704
X14.7Y-15.125
X14.7013Y-10.3453
X14.725Y-11.66
X14.75Y-15.15
X14.75Y-15.2672
X14.76Y-10.04
X14.78Y-13.7386
X14.7806Y-13.65
X14.785Y-14.37
X14.845Y-14.4
X14.845Y-14.5172
X14.935Y-11.3559
X14.965Y-10.71
X14.97Y-11.2986
X14.97Y-12.2386
X14.9706Y-11.21
X14.9706Y-12.15
X14.9775Y-10.7525
X14.98Y-10.5318
X14.985Y-12.875
X15.035Y-12.9
X15.035Y-13.0172
X15.06Y-10.16
X15.0725Y-11.0686
X15.15Y-11.6201
X15.155Y-14.4886
X15.1556Y-14.4
X15.17Y-13.625
X15.209Y-11.644
X15.22Y-13.65
X15.22Y-13.7672
X15.25Y-15.2386
X15.2506Y-15.15
X15.3241Y-11.3999
X15.3375Y-10.9661
X15.345Y-12.9886
X15.3456Y-12.9
X15.36Y-12.13
X15.3635Y-11.3999
X15.365Y-11.185
X15.4025Y-11.382
X15.41Y-11.21
X15.41Y-11.3272
X15.41Y-12.15
X15.41Y-12.2672
X15.445Y-11.3559
X15.53Y-13.7386
X15.5306Y-13.65
X15.545Y-14.37
X15.555Y-11.6201
X15.5775Y-10.935
X15.595Y-14.4
X15.595Y-14.5172
X15.625Y-15.2572
X15.63Y-15.125
X15.6624Y-10.4096
X15.675Y-15.2286
X15.6846Y-11.6949
X15.69Y-15.15
X15.7Y-10.24
X15.72Y-11.2986
X15.72Y-12.2386
X15.7206Y-11.21
X15.7206Y-12.15
X15.735Y-12.875
X15.74Y-10.16
X15.74Y-10.9364
X15.75Y-15.275
X15.7598Y-10.4002
X15.765Y-13.11
X15.766Y-9.9374
X15.785Y-12.9
X15.785Y-13.0172
X15.7975Y-9.9088
X15.8127Y-10.7148
X15.82Y-14.28
X15.8216Y-10.2916
X15.8525Y-10.4776
X15.86Y-14.42
X15.8724Y-12.3276
X15.88Y-9.94
X15.89Y-10.4597
X15.915Y-13.62
X15.915Y-13.935
X15.92Y-10.1022
X15.94Y-10.56
X15.945Y-14.9514
X15.96Y-10.22
X15.97Y-13.65
X15.97Y-13.7672
X15.9795Y-10.0844
X15.98Y-10.4025
X16.0Y-14.28
X16.0Y-14.42
X16.04Y-9.9
X16.075Y-13.1386
X16.08Y-10.3489
X16.095Y-12.9886
X16.0956Y-12.9
X16.1Y-10.4465
X16.11Y-11.19
X16.11Y-11.3559
X16.11Y-12.125
X16.1225Y-12.325
X16.14Y-10.54
X16.151Y-10.0527
X16.16Y-11.21
X16.16Y-11.3272
X16.16Y-12.15
X16.16Y-12.2672
X16.175Y-11.68
X16.18Y-10.02
X16.18Y-10.24
X16.18Y-10.78
X16.1821Y-10.52
X16.1821Y-10.74
X16.185Y-15.2386
X16.1856Y-15.15
X16.1914Y-11.2986
X16.2098Y-9.9902
X16.215Y-11.715
X16.22Y-10.54
X16.22Y-10.65
X16.2214Y-11.27
X16.238Y-10.162
X16.26Y-9.94
X16.27Y-12.2386
X16.28Y-10.32
X16.3014Y-12.21
X16.3116Y-14.6266
X16.32Y-10.2
X16.32Y-10.24
X16.32Y-10.48
X16.34Y-10.965
X16.3475Y-10.3525
X16.3575Y-9.8787
X16.3586Y-11.6416
X16.3586Y-12.2959
X16.36Y-10.52
X16.3602Y-10.1202
X16.37Y-11.5844
X16.4Y-10.28
X16.41Y-11.5665
X16.41Y-13.2
X16.42Y-10.22
X16.4598Y-10.5198
X16.46Y-10.02
X16.46Y-10.5676
X16.46Y-11.5486
X16.465Y-11.3
X16.48Y-12.88
X16.5Y-10.5676
X16.5057Y-11.5486
X16.52Y-10.08
X16.5252Y-11.1252
X16.5257Y-11.3881
X16.535Y-12.9
X16.535Y-13.0172
X16.54Y-10.3804
X16.54Y-10.5676
X16.54Y-10.34
X16.56Y-10.22
X16.56Y-14.4886
X16.5606Y-14.4
X16.565Y-11.395
X16.58Y-15.12
X16.5803Y-10.3397
X16.605Y-11.3999
X16.625Y-15.15
X16.625Y-15.2672
X16.64Y-9.98
X16.64Y-10.0886
X16.6472Y-10.4067
X16.6779Y-11.3463
X16.6806Y-10.1101
X16.72Y-10.06
X16.72Y-10.4
X16.7223Y-13.7973
X16.74Y-10.1
X16.741Y-9.9714
X16.75Y-13.7386
X16.7506Y-13.65
X16.7625Y-10.4013
X16.78Y-10.0
X16.78Y-10.32
X16.845Y-12.2386
X16.8456Y-12.15
X16.86Y-11.19
X16.8875Y-13.1086
X16.9Y-10.5
X16.905Y-10.93
X16.905Y-11.21
X16.905Y-11.5665
X16.9375Y-10.5928
X16.95Y-13.2
X16.95Y-13.86
X16.95Y-14.375
X16.9798Y-9.9402
X17.0Y-14.4
X17.0Y-14.5172
X17.0278Y-9.9478
X17.03Y-12.9886
X17.0306Y-12.9
X17.0636Y-9.9841
X17.0925Y-10.935
X17.1Y-10.06
X17.1121Y-9.9881
X17.12Y-14.265
X17.1214Y-13.625
X17.125Y-15.2386
X17.1256Y-15.15
X17.1276Y-9.9215
X17.14Y-9.96
X17.14Y-10.36
X17.16Y-10.5
X17.18Y-9.9501
X17.18Y-14.58
X17.19Y-13.65
X17.19Y-13.7672
X17.235Y-12.2959
X17.24Y-12.12
X17.2425Y-11.0736
X17.285Y-12.15
X17.285Y-12.2672
X17.32Y-11.68
X17.325Y-11.5486
X17.3351Y-11.0774
X17.34Y-10.36
X17.37Y-12.2959
X17.47Y-12.9
X17.47Y-13.0172
X17.51Y-12.9314
X17.515Y-15.125
X17.52Y-13.0459
X17.565Y-15.15
X17.565Y-15.2672
X17.6Y-11.185
X17.6175Y-11.1425
X17.65Y-11.7086
X17.7375Y-11.08
X17.74Y-10.76
X17.7675Y-9.9501
X17.7972Y-10.0725
X17.7972Y-11.16
X17.8973Y-10.0137
X17.9043Y-12.3231
X17.9325Y-9.9675
X17.9328Y-12.2959
X17.9593Y-13.0904
X17.9614Y-11.5818
X17.99Y-11.5486
X17.99Y-13.115
X18.0275Y-10.4299
X18.0932Y-12.6193
X18.0984Y-10.4998
X18.125Y-13.17
X18.1501Y-10.6801
X18.155Y-10.555
X18.155Y-12.2386
X18.155Y-12.9886
X18.155Y-15.2386
X18.1556Y-10.46
X18.1556Y-12.15
X18.1556Y-12.9
X18.1556Y-15.15
X18.1675Y-10.7425
X18.1839Y-10.6464
X18.195Y-11.21
X18.2536Y-11.625
X18.275Y-11.0736
X18.325Y-14.615
X18.3475Y-10.0225
X18.4Y-11.5844
X18.5164Y-11.0736
X18.54Y-12.875
X18.54Y-13.11
X18.545Y-10.435
X18.545Y-11.185
X18.545Y-12.125
X18.545Y-12.3245
X18.545Y-15.125
X18.545Y-15.2959
X18.585Y-9.9215
X18.586Y-12.499
X18.595Y-10.46
X18.595Y-10.5772
X18.595Y-11.21
X18.595Y-11.575
X18.595Y-12.15
X18.595Y-12.2672
X18.595Y-12.3245
X18.595Y-12.9
X18.595Y-13.0172
X18.595Y-15.15
X18.595Y-15.2672
X18.625Y-15.2959
X18.63Y-13.075
X18.715Y-14.2014
X18.735Y-11.5315
X18.765Y-14.5459
X18.8123Y-14.3877
X18.82Y-14.5459
X18.865Y-14.4
X18.865Y-14.5459
X18.8769Y-10.9031
X18.905Y-10.5486
X18.905Y-12.2386
X18.905Y-12.9886
X18.905Y-14.4886
X18.905Y-15.2386
X18.9056Y-10.46
X18.9056Y-12.15
X18.9056Y-12.9
X18.9056Y-14.4
X18.9056Y-15.15
X18.9464Y-11.18
X19.035Y-11.0736
X19.05Y-11.5315
X19.2007Y-11.5315
X19.26Y-10.82
X19.2764Y-11.0825
X19.295Y-12.12
X19.295Y-12.875
X19.295Y-13.7959
X19.295Y-14.375
X19.295Y-14.55
X19.295Y-15.125
X19.295Y-15.2959
X19.3Y-12.2959
X19.3048Y-10.4302
X19.305Y-11.18
X19.345Y-10.46
X19.345Y-10.5772
X19.345Y-12.9
X19.345Y-13.0172
X19.345Y-14.4
X19.345Y-14.5172
X19.345Y-15.15
X19.345Y-15.2672
X19.345Y-9.9501
X19.3725Y-9.8164
X19.4022Y-9.9525
X19.53Y-11.5494
X19.56Y-11.2235
X19.56Y-11.578
X19.6Y-10.72
X19.6457Y-10.7252
X19.655Y-10.5486
X19.655Y-12.24
X19.655Y-12.99
X19.655Y-15.2386
X19.6556Y-10.46
X19.6556Y-12.15
X19.6556Y-12.9
X19.6556Y-15.15
X19.695Y-12.15
X19.695Y-12.9
X19.6961Y-10.9275
X19.6964Y-11.18
X19.705Y-9.9215
X19.92Y-10.645
X20.04Y-14.6072
X20.04Y-15.12
X20.045Y-10.435
X20.045Y-11.18
X20.045Y-11.55
X20.0491Y-12.2959
X20.05Y-12.875
X20.0525Y-12.12
X20.095Y-10.46
X20.095Y-11.21
X20.095Y-11.58
X20.095Y-12.15
X20.095Y-12.2672
X20.095Y-12.9
X20.095Y-13.0172
X20.095Y-15.15
X20.095Y-15.2672
X20.095Y-11.645
X20.155Y-11.6475
X20.2Y-10.7
X20.2Y-10.76
X20.255Y-10.295
X20.285Y-10.9738
X20.305Y-9.89
X20.305Y-10.085
X20.35Y-10.91
X20.375Y-11.175
X20.38Y-10.76
X20.385Y-11.98
X20.3875Y-12.2959
X20.3899Y-11.0713
X20.39Y-12.3817
X20.405Y-11.205
X20.415Y-12.73
X20.4252Y-11.0999
X20.43Y-13.48
X20.435Y-11.235
X20.435Y-14.23
X20.447Y-10.5998
X20.46Y-14.98
X20.4645Y-11.1174
X20.465Y-11.265
X20.4799Y-10.6213
X20.49Y-11.2955
X20.491Y-11.1466
X20.4936Y-10.6582
X20.5186Y-13.1986
X20.5206Y-10.6869
X20.5435Y-10.7189
X20.5743Y-10.7435
X20.58Y-10.5
X20.59Y-12.2386
X20.59Y-12.9886
X20.59Y-13.7386
X20.5906Y-12.15
X20.5906Y-12.9
X20.5906Y-13.65
X20.5921Y-10.78
X20.595Y-14.4886
X20.5956Y-14.4
X20.61Y-10.8157
X20.6339Y-12.3975
X20.64Y-11.0
X20.66Y-11.1
X20.6911Y-13.0459
X20.695Y-12.395
X20.7Y-11.02
X20.7626Y-10.2774
X20.78Y-10.52
X20.78Y-11.28
X20.82Y-10.84
X20.82Y-11.24
X20.825Y-13.1425
X20.86Y-10.32
X20.86Y-10.5
X20.915Y-12.9314
X20.915Y-13.08
X20.9175Y-12.165
X20.92Y-10.52
X20.965Y-15.2386
X20.9656Y-15.15
X20.985Y-13.625
X20.985Y-14.375
X21.02Y-10.5
X21.03Y-12.15
X21.03Y-12.2672
X21.03Y-12.9
X21.03Y-13.0172
X21.03Y-13.65
X21.03Y-13.7672
X21.035Y-14.4
X21.035Y-14.5172
X21.04Y-9.9
X21.04Y-10.0
X21.06Y-10.28
X21.0825Y-13.0814
X21.1144Y-10.495
X21.115Y-10.355
X21.1537Y-10.495
X21.16Y-10.18
X21.22Y-10.64
X21.34Y-12.2386
X21.34Y-14.4886
X21.3406Y-12.15
X21.3406Y-14.4
X21.345Y-12.9886
X21.345Y-13.7386
X21.3456Y-12.9
X21.3456Y-13.65
X21.35Y-14.605
X21.355Y-15.125
X21.36Y-10.02
X21.38Y-10.68
X21.4Y-10.18
X21.405Y-15.15
X21.405Y-15.2672
X21.44Y-11.38
X21.4411Y-12.3245
X21.45Y-10.26
X21.45Y-10.39
X21.46Y-11.34
X21.48Y-10.5
X21.4975Y-9.99
X21.5025Y-10.3075
X21.54Y-10.04
X21.585Y-10.025
X21.59Y-10.11
X21.6Y-9.82
X21.62Y-9.98
X21.69Y-9.97
X21.73Y-12.13
X21.735Y-13.11
X21.735Y-13.625
X21.735Y-14.375
X21.7397Y-10.025
X21.74Y-10.22
X21.74Y-12.875
X21.745Y-14.555
X21.7505Y-10.1295
X21.78Y-12.15
X21.78Y-12.2672
X21.78Y-14.4
X21.78Y-14.5172
X21.785Y-12.9
X21.785Y-13.0172
X21.785Y-13.65
X21.785Y-13.7672
X21.8Y-9.84
X21.82Y-9.97
X21.8275Y-13.0787
X21.8489Y-10.1561
X21.8883Y-10.1233
X21.905Y-9.975
X21.92Y-10.18
X21.93Y-10.26
X21.96Y-9.88
X21.98Y-10.02
X22.04Y-10.26
X22.06Y-9.82
X22.06Y-10.14
X22.09Y-12.2386
X22.09Y-14.4886
X22.0906Y-12.15
X22.0906Y-14.4
X22.0906Y-15.15
X22.0906Y-15.2094
X22.095Y-12.9886
X22.095Y-13.7386
X22.0956Y-12.9
X22.0956Y-13.65
X22.1295Y-10.0062
X22.13Y-10.3117
X22.145Y-9.97
X22.22Y-10.14
X22.2725Y-9.9175
X22.28Y-10.08
X22.38Y-10.44
X22.385Y-10.515
X22.44Y-11.35
X22.4712Y-13.6786
X22.4764Y-12.402
X22.4764Y-12.8564
X22.48Y-10.52
X22.48Y-12.2959
X22.48Y-13.8
X22.48Y-14.375
X22.4825Y-12.12
X22.4948Y-15.1252
X22.495Y-14.855
X22.53Y-14.4
X22.53Y-14.5172
X22.53Y-15.15
X22.53Y-15.2672
X22.535Y-13.65
X22.535Y-13.7672
X22.545Y-11.245
X22.68Y-11.26
X22.7Y-10.3
X22.7Y-12.895
X22.7Y-13.225
X22.705Y-10.395
X22.72Y-11.34
X22.725Y-14.395
X22.725Y-14.725
X22.76Y-10.46
X22.7648Y-14.8052
X22.815Y-14.67
X22.8406Y-12.15
X22.87Y-14.675
X22.87Y-15.15
X22.88Y-12.15
X22.9094Y-14.675
X22.91Y-14.33
X22.91Y-15.24
X22.915Y-14.275
X22.93Y-12.825
X22.95Y-14.675
X22.95Y-15.2
X22.9564Y-10.0964
X22.96Y-12.795
X23.005Y-10.18
X23.01Y-11.33
X23.01Y-11.425
X23.04Y-10.56
X23.1Y-11.17
X23.175Y-15.155
X23.1886Y-13.675
X23.2Y-10.095
X23.23Y-12.125
X23.265Y-13.005
X23.28Y-10.56
X23.28Y-12.15
X23.4152Y-11.4452
T3
X23.23Y-11.1713
X23.23Y-11.25
X23.23Y-11.3287
X23.3087Y-11.1713
X23.3087Y-11.25
X23.3087Y-11.3287
T4
X6.7875Y-10.8375
X6.7875Y-11.775
X6.8813Y-14.775
X6.975Y-12.525
X7.0375Y-10.7375
X7.0375Y-11.675
X7.0687Y-13.275
X7.1313Y-14.675
X7.225Y-12.425
X7.2563Y-14.025
X7.3187Y-13.175
X7.5063Y-13.925
X7.5375Y-11.775
X7.7875Y-11.675
X7.8187Y-14.775
X7.9125Y-12.525
X8.0687Y-14.675
X8.1Y-13.275
X8.1625Y-12.425
X8.2875Y-10.0875
X8.2875Y-10.8375
X8.2875Y-11.775
X8.35Y-13.175
X8.475Y-14.025
X8.5375Y-9.9875
X8.5375Y-10.7375
X8.5375Y-11.675
X8.6625Y-12.525
X8.725Y-13.925
X8.7563Y-14.775
X8.85Y-13.275
X8.9125Y-12.425
X9.0063Y-14.675
X9.0375Y-10.0875
X9.0375Y-10.8375
X9.0375Y-11.775
X9.1Y-13.175
X9.225Y-14.025
X9.2875Y-9.9875
X9.2875Y-10.7375
X9.2875Y-11.675
X9.4125Y-12.525
X9.475Y-13.925
X9.6Y-13.275
X9.6625Y-12.425
X9.7875Y-10.0875
X9.7875Y-10.8375
X9.7875Y-11.775
X9.85Y-13.175
X9.975Y-14.025
X10.0375Y-9.9875
X10.0375Y-10.7375
X10.0375Y-11.675
X10.1625Y-12.525
X10.225Y-13.925
X10.35Y-13.275
X10.4125Y-12.425
X10.5375Y-10.0875
X10.5375Y-10.8375
X10.5375Y-11.775
X10.6Y-13.175
X10.725Y-14.025
X10.7875Y-9.9875
X10.7875Y-10.7375
X10.7875Y-11.675
X10.9125Y-12.525
X10.975Y-13.925
X11.1Y-13.275
X11.1625Y-12.425
X11.2875Y-11.775
X11.35Y-13.175
X11.475Y-14.025
X11.5375Y-11.675
X11.5687Y-14.775
X11.6625Y-10.8375
X11.6625Y-12.525
X11.725Y-13.925
X11.8187Y-14.675
X11.85Y-13.275
X11.9125Y-10.7375
X11.9125Y-12.425
X12.0375Y-11.775
X12.1Y-13.175
X12.225Y-14.025
X12.2875Y-11.675
X12.4125Y-10.8375
X12.4125Y-12.525
X12.475Y-13.925
X12.6Y-13.275
X12.6625Y-10.7375
X12.6625Y-12.425
X12.7875Y-11.775
X12.85Y-13.175
X12.975Y-14.025
X13.0375Y-11.675
X13.1625Y-10.8375
X13.1625Y-12.525
X13.225Y-13.925
X13.35Y-13.275
X13.4125Y-10.7375
X13.4125Y-12.425
X13.5375Y-11.775
X13.6Y-13.175
X13.725Y-14.025
X13.7875Y-11.675
X13.9125Y-10.8375
X13.9125Y-12.525
X13.975Y-13.925
X14.1Y-13.275
X14.1625Y-10.7375
X14.1625Y-12.425
X14.2875Y-11.775
X14.35Y-13.175
X14.3813Y-14.775
X14.475Y-14.025
X14.5375Y-11.675
X14.6313Y-14.675
X14.6625Y-12.525
X14.725Y-13.925
X14.85Y-13.275
X14.9125Y-12.425
X15.0375Y-10.8375
X15.0375Y-11.775
X15.1Y-13.175
X15.225Y-14.025
X15.2875Y-10.7375
X15.2875Y-11.675
X15.3187Y-14.775
X15.4125Y-12.525
X15.475Y-13.925
X15.5687Y-14.675
X15.6Y-13.275
X15.6625Y-12.425
X15.7869Y-10.8374
X15.7875Y-11.775
X15.85Y-13.175
X16.0369Y-10.7374
X16.0375Y-11.675
X16.1625Y-12.525
X16.2563Y-14.775
X16.4125Y-12.425
X16.5063Y-14.675
X16.5375Y-10.8375
X16.6313Y-14.025
X16.7875Y-10.7375
X16.8187Y-13.275
X16.8813Y-13.925
X16.9125Y-11.775
X17.0687Y-13.175
X17.1Y-12.525
X17.1625Y-11.675
X17.1937Y-14.775
X17.2875Y-10.8375
X17.35Y-12.425
X17.4437Y-14.675
X17.5375Y-10.7375
X18.225Y-10.0875
X18.225Y-10.8375
X18.225Y-11.775
X18.225Y-12.525
X18.225Y-14.775
X18.475Y-9.9875
X18.475Y-10.7375
X18.475Y-11.675
X18.475Y-12.425
X18.475Y-14.675
X18.975Y-10.0875
X18.975Y-10.8375
X18.975Y-11.775
X18.975Y-12.525
X18.975Y-14.025
X18.975Y-14.775
X19.225Y-9.9875
X19.225Y-10.7375
X19.225Y-11.675
X19.225Y-12.425
X19.225Y-13.925
X19.225Y-14.675
X19.725Y-10.0875
X19.725Y-10.8375
X19.725Y-11.775
X19.725Y-12.525
X19.725Y-14.775
X19.975Y-9.9875
X19.975Y-10.7375
X19.975Y-11.675
X19.975Y-12.425
X19.975Y-14.675
X20.6625Y-11.775
X20.6625Y-12.525
X20.6625Y-13.275
X20.6625Y-14.025
X20.9125Y-11.675
X20.9125Y-12.425
X20.9125Y-13.175
X20.9125Y-13.925
X21.0375Y-14.775
X21.2875Y-14.675
X21.4125Y-11.775
X21.4125Y-12.525
X21.4125Y-13.275
X21.4125Y-14.025
X21.6625Y-11.675
X21.6625Y-12.425
X21.6625Y-13.175
X21.6625Y-13.925
X22.1625Y-11.775
X22.1625Y-12.525
X22.1625Y-13.275
X22.1625Y-14.025
X22.1625Y-14.775
X22.4125Y-11.675
X22.4125Y-12.425
X22.4125Y-13.175
X22.4125Y-13.925
X22.4125Y-14.675
X22.9125Y-11.775
X23.1625Y-12.85
X23.1625Y-14.35
X23.1625Y-11.675
X23.2625Y-13.1
X23.2625Y-14.6
T2
G00X22.9149Y-9.8143
M15
G01X22.9149Y-9.8379
M16
G05
G00X22.9149Y-9.969
M15
G01X22.9149Y-10.0123
M16
G05
G00X23.2551Y-9.8143
M15
G01X23.2551Y-9.8379
M16
G05
G00X23.2551Y-9.969
M15
G01X23.2551Y-10.0123
M16
G05
T0
M30
