M48
INCH,TZ
T1C0.0256
T2C0.1200
T3C0.1570
T4C0.1772
%
G90
G05
T1
X229712Y-99698
X231988Y-99698
T2
X69375Y-138500
X78750Y-138500
X97502Y-146000
X136872Y-146000
X163125Y-138500
X165000Y-131000
X165938Y-116000
X172500Y-138500
X174375Y-131000
X175313Y-116000
X207187Y-146000
X216562Y-146000
X233375Y-125313
X233375Y-134688
X233375Y-140313
X233375Y-149688
T3
X69375Y-109375
X69375Y-118750
X69375Y-144500
X70313Y-148750
X71250Y-126250
X72187Y-133750
X74063Y-141250
X76875Y-118750
X78750Y-144500
X79687Y-148750
X80625Y-126250
X82500Y-133750
X84375Y-101875
X84375Y-109375
X84375Y-118750
X86250Y-141250
X88125Y-126250
X89063Y-148750
X90000Y-133750
X91875Y-101875
X91875Y-109375
X91875Y-118750
X93750Y-141250
X95625Y-126250
X97500Y-133750
X97502Y-152000
X99375Y-101875
X99375Y-109375
X99375Y-118750
X101250Y-141250
X103125Y-126250
X105000Y-133750
X106875Y-101875
X106875Y-109375
X106875Y-118750
X108750Y-141250
X110625Y-126250
X112500Y-133750
X114375Y-118750
X116250Y-141250
X117187Y-148750
X118125Y-109375
X118125Y-126250
X120000Y-133750
X121875Y-118750
X123750Y-141250
X125625Y-109375
X125625Y-126250
X127500Y-133750
X129375Y-118750
X131250Y-141250
X133125Y-109375
X133125Y-126250
X135000Y-133750
X136872Y-152000
X136875Y-118750
X138750Y-141250
X140625Y-109375
X140625Y-126250
X142500Y-133750
X144375Y-118750
X145313Y-148750
X146250Y-141250
X148125Y-126250
X150000Y-133750
X151875Y-109375
X151875Y-118750
X153750Y-141250
X154687Y-148750
X155625Y-126250
X157500Y-133750
X159369Y-109374
X159375Y-118750
X163125Y-144500
X163125Y-126250
X164063Y-148750
X165000Y-137000
X165938Y-122000
X166875Y-109375
X167813Y-141250
X169687Y-133750
X170625Y-118750
X172500Y-126250
X172500Y-144500
X173437Y-148750
X174375Y-109375
X174375Y-137000
X175313Y-122000
X183750Y-101875
X183750Y-109375
X183750Y-118750
X183750Y-126250
X183750Y-148750
X191250Y-101875
X191250Y-109375
X191250Y-118750
X191250Y-126250
X191250Y-141250
X191250Y-148750
X198750Y-101875
X198750Y-109375
X198750Y-118750
X198750Y-126250
X198750Y-148750
X207187Y-152000
X208125Y-118750
X208125Y-126250
X208125Y-133750
X208125Y-141250
X211875Y-148750
X215625Y-118750
X215625Y-126250
X215625Y-133750
X215625Y-141250
X216562Y-152000
X223125Y-118750
X223125Y-126250
X223125Y-133750
X223125Y-141250
X223125Y-148750
X227375Y-125313
X227375Y-134688
X227375Y-140313
X227375Y-149688
X230625Y-130000
X230625Y-145000
X230625Y-118750
T4
X69375Y-111563
X69375Y-120937
X70313Y-150937
X71250Y-128437
X72187Y-135937
X74063Y-143437
X76875Y-120937
X79687Y-150937
X80625Y-128437
X82500Y-135937
X84375Y-104063
X84375Y-111563
X84375Y-120937
X86250Y-143437
X88125Y-128437
X89063Y-150937
X90000Y-135937
X91875Y-104063
X91875Y-111563
X91875Y-120937
X93750Y-143437
X95625Y-128437
X97500Y-135937
X99375Y-104063
X99375Y-111563
X99375Y-120937
X101250Y-143437
X103125Y-128437
X105000Y-135937
X106875Y-104063
X106875Y-111563
X106875Y-120937
X108750Y-143437
X110625Y-128437
X112500Y-135937
X114375Y-120937
X116250Y-143437
X117187Y-150937
X118125Y-111563
X118125Y-128437
X120000Y-135937
X121875Y-120937
X123750Y-143437
X125625Y-111565
X125625Y-128437
X127500Y-135937
X129375Y-120937
X131250Y-143437
X133125Y-111563
X133125Y-128437
X135000Y-135937
X136875Y-120937
X138750Y-143437
X140625Y-111563
X140625Y-128437
X142500Y-135937
X144375Y-120937
X145313Y-150937
X146250Y-143437
X148125Y-128437
X150000Y-135937
X151875Y-111563
X151875Y-120937
X153750Y-143437
X154687Y-150937
X155625Y-128437
X157500Y-135937
X159375Y-111563
X159375Y-120937
X163125Y-128437
X164063Y-150937
X166875Y-111563
X167813Y-143437
X169687Y-135937
X170625Y-120937
X172500Y-128437
X173437Y-150937
X174375Y-111563
X183700Y-111500
X183750Y-104063
X183750Y-120937
X183750Y-128437
X183750Y-150937
X191250Y-104050
X191250Y-111500
X191250Y-120937
X191250Y-128437
X191250Y-143437
X191250Y-150937
X198750Y-104063
X198750Y-111500
X198750Y-120937
X198750Y-128437
X198750Y-150937
X208100Y-120937
X208100Y-128437
X208125Y-135937
X208125Y-143437
X211875Y-150937
X215600Y-120937
X215625Y-128437
X215625Y-135937
X215625Y-143437
X223100Y-120937
X223125Y-128437
X223125Y-135937
X223125Y-143437
X223125Y-150937
X228412Y-130050
X228412Y-145100
X230600Y-120937
T0
M30
