<?xml version="1.0"?>
<!-- Generated by SVGo -->
<svg width="454.627mm" height="164.877mm"
     viewBox="0.000 0.000 454.627 164.877"
     xmlns="http://www.w3.org/2000/svg" 
     xmlns:xlink="http://www.w3.org/1999/xlink">
<polygon points="447.627,5.001 447.783,5.007 447.939,5.025 448.093,5.056 448.245,5.098 448.392,5.153 448.534,5.218 448.671,5.295 448.802,5.382 448.925,5.480 449.041,5.586 449.147,5.702 449.245,5.825 449.332,5.956 449.409,6.093 449.474,6.235 449.529,6.382 449.571,6.534 449.602,6.688 449.620,6.844 449.627,7.001 449.627,157.877 449.620,158.033 449.602,158.189 449.571,158.343 449.529,158.495 449.474,158.642 449.409,158.784 449.332,158.921 449.245,159.052 449.147,159.175 449.041,159.291 448.925,159.397 448.802,159.495 448.671,159.582 448.534,159.659 448.392,159.724 448.245,159.779 448.093,159.821 447.939,159.852 447.783,159.870 447.627,159.877 7.001,159.877 6.844,159.870 6.688,159.852 6.534,159.821 6.382,159.779 6.235,159.724 6.093,159.659 5.956,159.582 5.825,159.495 5.702,159.397 5.586,159.291 5.480,159.175 5.382,159.052 5.295,158.921 5.218,158.784 5.153,158.642 5.098,158.495 5.056,158.343 5.025,158.189 5.007,158.033 5.000,157.876 5.001,7.001 5.007,6.844 5.025,6.688 5.056,6.534 5.098,6.382 5.153,6.235 5.218,6.093 5.295,5.956 5.382,5.825 5.480,5.702 5.586,5.586 5.702,5.480 5.825,5.382 5.956,5.295 6.093,5.218 6.235,5.153 6.382,5.098 6.534,5.056 6.688,5.025 6.844,5.007 7.001,5.000" style="fill:none;stroke-width:0.050000mm;stroke:black"/>
<polygon points="7.506,155.355 7.060,155.582 6.706,155.936 6.479,156.382 6.400,156.877 6.479,157.371 6.706,157.817 7.060,158.171 7.506,158.398 8.001,158.477 8.495,158.398 8.941,158.171 9.295,157.817 9.522,157.371 9.601,156.877 9.522,156.382 9.295,155.936 8.941,155.582 8.495,155.355 8.001,155.277" style="fill:none;stroke-width:0.050000mm;stroke:black"/>
<polygon points="226.819,155.355 226.373,155.582 226.019,155.936 225.792,156.382 225.714,156.877 225.792,157.371 226.019,157.817 226.373,158.171 226.819,158.398 227.314,158.477 227.808,158.398 228.254,158.171 228.608,157.817 228.835,157.371 228.914,156.877 228.835,156.382 228.608,155.936 228.254,155.582 227.808,155.355 227.314,155.277" style="fill:none;stroke-width:0.050000mm;stroke:black"/>
<polygon points="446.132,155.355 445.686,155.582 445.332,155.936 445.105,156.382 445.027,156.877 445.105,157.371 445.332,157.817 445.686,158.171 446.132,158.398 446.627,158.477 447.121,158.398 447.567,158.171 447.921,157.817 448.148,157.371 448.227,156.877 448.148,156.382 447.921,155.936 447.567,155.582 447.121,155.355 446.627,155.277" style="fill:none;stroke-width:0.050000mm;stroke:black"/>
<polygon points="377.476,137.351 377.476,138.351 376.676,138.351 376.676,141.451 377.476,141.451 377.476,142.050 375.951,142.050 375.951,138.821 369.201,138.821 369.201,142.050 368.376,142.050 368.376,144.851 369.201,144.851 369.201,151.121 370.926,151.121 370.926,152.321 374.226,152.321 374.226,151.121 375.951,151.121 375.951,146.651 377.476,146.651 377.476,147.251 376.676,147.251 376.676,150.351 377.476,150.351 377.476,151.351 391.476,151.351 391.476,150.351 392.276,150.351 392.276,147.251 391.476,147.251 391.476,146.651 393.001,146.651 393.001,151.121 394.726,151.121 394.726,152.321 398.026,152.321 398.026,151.121 399.751,151.121 399.751,144.851 400.576,144.851 400.576,142.050 399.751,142.050 399.751,138.821 393.001,138.821 393.001,142.050 391.476,142.050 391.476,141.451 392.276,141.451 392.276,138.351 391.476,138.351 391.476,137.351" style="fill:none;stroke-width:0.050000mm;stroke:black"/>
<polygon points="136.969,137.351 136.969,138.351 136.169,138.351 136.169,141.451 136.969,141.451 136.969,142.050 97.344,142.050 97.344,138.821 90.594,138.821 90.594,142.050 89.769,142.050 89.769,144.851 90.594,144.851 90.594,151.121 92.319,151.121 92.319,152.321 95.619,152.321 95.619,151.121 97.344,151.121 97.344,146.651 136.969,146.651 136.969,147.251 136.169,147.251 136.169,150.351 136.969,150.351 136.969,151.351 150.969,151.351 150.969,150.351 151.769,150.351 151.769,147.251 150.969,147.251 150.969,146.651 190.594,146.651 190.594,151.121 192.319,151.121 192.319,152.321 195.619,152.321 195.619,151.121 197.344,151.121 197.344,144.851 198.169,144.851 198.169,142.050 197.344,142.050 197.344,138.821 190.594,138.821 190.594,142.050 150.969,142.050 150.969,141.451 151.769,141.451 151.769,138.351 150.969,138.351 150.969,137.351" style="fill:none;stroke-width:0.050000mm;stroke:black"/>
<polygon points="406.051,137.351 406.051,138.351 405.251,138.351 405.251,141.451 406.051,141.451 406.051,147.251 405.251,147.251 405.251,150.351 406.051,150.351 406.051,151.351 420.051,151.351 420.051,150.351 420.851,150.351 420.851,147.251 420.051,147.251 420.051,141.451 420.851,141.451 420.851,138.351 420.051,138.351 420.051,137.351" style="fill:none;stroke-width:0.050000mm;stroke:black"/>
<polygon points="344.138,137.351 344.138,138.351 343.338,138.351 343.338,141.451 344.138,141.451 344.138,147.251 343.338,147.251 343.338,150.351 344.138,150.351 344.138,151.351 358.138,151.351 358.138,150.351 358.938,150.351 358.938,147.251 358.138,147.251 358.138,141.451 358.938,141.451 358.938,138.351 358.138,138.351 358.138,137.351" style="fill:none;stroke-width:0.050000mm;stroke:black"/>
<polygon points="325.088,137.351 325.088,138.351 324.288,138.351 324.288,141.451 325.088,141.451 325.088,147.251 324.288,147.251 324.288,150.351 325.088,150.351 325.088,151.351 339.088,151.351 339.088,150.351 339.888,150.351 339.888,147.251 339.088,147.251 339.088,141.451 339.888,141.451 339.888,138.351 339.088,138.351 339.088,137.351" style="fill:none;stroke-width:0.050000mm;stroke:black"/>
<polygon points="306.038,137.351 306.038,138.351 305.238,138.351 305.238,141.451 306.038,141.451 306.038,147.251 305.238,147.251 305.238,150.351 306.038,150.351 306.038,151.351 320.038,151.351 320.038,150.351 320.838,150.351 320.838,147.251 320.038,147.251 320.038,141.451 320.838,141.451 320.838,138.351 320.038,138.351 320.038,137.351" style="fill:none;stroke-width:0.050000mm;stroke:black"/>
<polygon points="279.844,137.351 279.844,138.351 279.044,138.351 279.044,141.451 279.844,141.451 279.844,147.251 279.044,147.251 279.044,150.351 279.844,150.351 279.844,151.351 293.844,151.351 293.844,150.351 294.644,150.351 294.644,147.251 293.844,147.251 293.844,141.451 294.644,141.451 294.644,138.351 293.844,138.351 293.844,137.351" style="fill:none;stroke-width:0.050000mm;stroke:black"/>
<polygon points="256.032,137.351 256.032,138.351 255.232,138.351 255.232,141.451 256.032,141.451 256.032,147.251 255.232,147.251 255.232,150.351 256.032,150.351 256.032,151.351 270.032,151.351 270.032,150.351 270.832,150.351 270.832,147.251 270.032,147.251 270.032,141.451 270.832,141.451 270.832,138.351 270.032,138.351 270.032,137.351" style="fill:none;stroke-width:0.050000mm;stroke:black"/>
<polygon points="232.219,137.351 232.219,138.351 231.419,138.351 231.419,141.451 232.219,141.451 232.219,147.251 231.419,147.251 231.419,150.351 232.219,150.351 232.219,151.351 246.219,151.351 246.219,150.351 247.019,150.351 247.019,147.251 246.219,147.251 246.219,141.451 247.019,141.451 247.019,138.351 246.219,138.351 246.219,137.351" style="fill:none;stroke-width:0.050000mm;stroke:black"/>
<polygon points="208.407,137.351 208.407,138.351 207.607,138.351 207.607,141.451 208.407,141.451 208.407,147.251 207.607,147.251 207.607,150.351 208.407,150.351 208.407,151.351 222.407,151.351 222.407,150.351 223.207,150.351 223.207,147.251 222.407,147.251 222.407,141.451 223.207,141.451 223.207,138.351 222.407,138.351 222.407,137.351" style="fill:none;stroke-width:0.050000mm;stroke:black"/>
<polygon points="65.532,137.351 65.532,138.351 64.731,138.351 64.731,141.451 65.532,141.451 65.532,147.251 64.731,147.251 64.731,150.351 65.532,150.351 65.532,151.351 79.532,151.351 79.532,150.351 80.332,150.351 80.332,147.251 79.532,147.251 79.532,141.451 80.332,141.451 80.332,138.351 79.532,138.351 79.532,137.351" style="fill:none;stroke-width:0.050000mm;stroke:black"/>
<polygon points="41.719,137.351 41.719,138.351 40.919,138.351 40.919,141.451 41.719,141.451 41.719,147.251 40.919,147.251 40.919,150.351 41.719,150.351 41.719,151.351 55.719,151.351 55.719,150.351 56.519,150.351 56.519,147.251 55.719,147.251 55.719,141.451 56.519,141.451 56.519,138.351 55.719,138.351 55.719,137.351" style="fill:none;stroke-width:0.050000mm;stroke:black"/>
<polygon points="17.907,137.351 17.907,138.351 17.107,138.351 17.107,141.451 17.907,141.451 17.907,147.251 17.107,147.251 17.107,150.351 17.907,150.351 17.907,151.351 31.907,151.351 31.907,150.351 32.707,150.351 32.707,147.251 31.907,147.251 31.907,141.451 32.707,141.451 32.707,138.351 31.907,138.351 31.907,137.351" style="fill:none;stroke-width:0.050000mm;stroke:black"/>
<polygon points="431.601,118.726 431.601,119.550 425.331,119.550 425.331,121.275 424.131,121.275 424.131,124.575 425.331,124.575 425.331,126.300 429.801,126.300 429.801,127.825 429.201,127.825 429.201,127.025 426.101,127.025 426.101,127.825 425.101,127.825 425.101,141.826 426.101,141.826 426.101,142.626 429.201,142.626 429.201,141.826 429.801,141.826 429.801,143.351 425.331,143.351 425.331,145.076 424.131,145.076 424.131,148.376 425.331,148.376 425.331,150.101 431.601,150.101 431.601,150.925 434.401,150.925 434.401,150.101 437.631,150.101 437.631,143.351 434.401,143.351 434.401,141.826 435.001,141.826 435.001,142.626 438.101,142.626 438.101,141.826 439.101,141.826 439.101,127.825 438.101,127.825 438.101,127.025 435.001,127.025 435.001,127.825 434.401,127.825 434.401,126.300 437.631,126.300 437.631,119.550 434.401,119.550 434.401,118.726" style="fill:none;stroke-width:0.050000mm;stroke:black"/>
<polygon points="265.557,118.301 265.557,119.301 264.757,119.301 264.757,122.400 265.557,122.400 265.557,123.001 264.032,123.001 264.032,119.771 257.282,119.771 257.282,123.001 256.457,123.001 256.457,125.801 257.282,125.801 257.282,132.071 259.006,132.071 259.006,133.271 262.307,133.271 262.307,132.071 264.032,132.071 264.032,127.601 265.557,127.601 265.557,128.200 264.757,128.200 264.757,131.301 265.557,131.301 265.557,132.301 279.557,132.301 279.557,131.301 280.357,131.301 280.357,128.200 279.557,128.200 279.557,127.601 281.082,127.601 281.082,132.071 282.807,132.071 282.807,133.271 286.107,133.271 286.107,132.071 287.832,132.071 287.832,125.801 288.657,125.801 288.657,123.001 287.832,123.001 287.832,119.771 281.082,119.771 281.082,123.001 279.557,123.001 279.557,122.400 280.357,122.400 280.357,119.301 279.557,119.301 279.557,118.301" style="fill:none;stroke-width:0.050000mm;stroke:black"/>
<polygon points="27.432,118.301 27.432,119.301 26.632,119.301 26.632,122.400 27.432,122.400 27.432,123.001 25.907,123.001 25.907,119.771 19.157,119.771 19.157,123.001 18.332,123.001 18.332,125.801 19.157,125.801 19.157,132.071 20.882,132.071 20.882,133.271 24.182,133.271 24.182,132.071 25.907,132.071 25.907,127.601 27.432,127.601 27.432,128.200 26.632,128.200 26.632,131.301 27.432,131.301 27.432,132.301 41.432,132.301 41.432,131.301 42.232,131.301 42.232,128.200 41.432,128.200 41.432,127.601 42.957,127.601 42.957,132.071 44.682,132.071 44.682,133.271 47.982,133.271 47.982,132.071 49.707,132.071 49.707,125.801 50.532,125.801 50.532,123.001 49.707,123.001 49.707,119.771 42.957,119.771 42.957,123.001 41.432,123.001 41.432,122.400 42.232,122.400 42.232,119.301 41.432,119.301 41.432,118.301" style="fill:none;stroke-width:0.050000mm;stroke:black"/>
<polygon points="406.051,118.301 406.051,119.301 405.251,119.301 405.251,122.400 406.051,122.400 406.051,128.200 405.251,128.200 405.251,131.301 406.051,131.301 406.051,132.301 420.051,132.301 420.051,131.301 420.851,131.301 420.851,128.200 420.051,128.200 420.051,122.400 420.851,122.400 420.851,119.301 420.051,119.301 420.051,118.301" style="fill:none;stroke-width:0.050000mm;stroke:black"/>
<polygon points="387.001,118.301 387.001,119.301 386.201,119.301 386.201,122.400 387.001,122.400 387.001,128.200 386.201,128.200 386.201,131.301 387.001,131.301 387.001,132.301 401.001,132.301 401.001,131.301 401.801,131.301 401.801,128.200 401.001,128.200 401.001,122.400 401.801,122.400 401.801,119.301 401.001,119.301 401.001,118.301" style="fill:none;stroke-width:0.050000mm;stroke:black"/>
<polygon points="367.951,118.301 367.951,119.301 367.151,119.301 367.151,122.400 367.951,122.400 367.951,128.200 367.151,128.200 367.151,131.301 367.951,131.301 367.951,132.301 381.951,132.301 381.951,131.301 382.751,131.301 382.751,128.200 381.951,128.200 381.951,122.400 382.751,122.400 382.751,119.301 381.951,119.301 381.951,118.301" style="fill:none;stroke-width:0.050000mm;stroke:black"/>
<polygon points="325.088,118.301 325.088,119.301 324.288,119.301 324.288,122.400 325.088,122.400 325.088,128.200 324.288,128.200 324.288,131.301 325.088,131.301 325.088,132.301 339.088,132.301 339.088,131.301 339.888,131.301 339.888,128.200 339.088,128.200 339.088,122.400 339.888,122.400 339.888,119.301 339.088,119.301 339.088,118.301" style="fill:none;stroke-width:0.050000mm;stroke:black"/>
<polygon points="229.838,118.301 229.838,119.301 229.038,119.301 229.038,122.400 229.838,122.400 229.838,128.200 229.038,128.200 229.038,131.301 229.838,131.301 229.838,132.301 243.838,132.301 243.838,131.301 244.638,131.301 244.638,128.200 243.838,128.200 243.838,122.400 244.638,122.400 244.638,119.301 243.838,119.301 243.838,118.301" style="fill:none;stroke-width:0.050000mm;stroke:black"/>
<polygon points="210.788,118.301 210.788,119.301 209.988,119.301 209.988,122.400 210.788,122.400 210.788,128.200 209.988,128.200 209.988,131.301 210.788,131.301 210.788,132.301 224.788,132.301 224.788,131.301 225.588,131.301 225.588,128.200 224.788,128.200 224.788,122.400 225.588,122.400 225.588,119.301 224.788,119.301 224.788,118.301" style="fill:none;stroke-width:0.050000mm;stroke:black"/>
<polygon points="191.738,118.301 191.738,119.301 190.938,119.301 190.938,122.400 191.738,122.400 191.738,128.200 190.938,128.200 190.938,131.301 191.738,131.301 191.738,132.301 205.738,132.301 205.738,131.301 206.538,131.301 206.538,128.200 205.738,128.200 205.738,122.400 206.538,122.400 206.538,119.301 205.738,119.301 205.738,118.301" style="fill:none;stroke-width:0.050000mm;stroke:black"/>
<polygon points="172.688,118.301 172.688,119.301 171.888,119.301 171.888,122.400 172.688,122.400 172.688,128.200 171.888,128.200 171.888,131.301 172.688,131.301 172.688,132.301 186.688,132.301 186.688,131.301 187.488,131.301 187.488,128.200 186.688,128.200 186.688,122.400 187.488,122.400 187.488,119.301 186.688,119.301 186.688,118.301" style="fill:none;stroke-width:0.050000mm;stroke:black"/>
<polygon points="153.638,118.301 153.638,119.301 152.838,119.301 152.838,122.400 153.638,122.400 153.638,128.200 152.838,128.200 152.838,131.301 153.638,131.301 153.638,132.301 167.638,132.301 167.638,131.301 168.438,131.301 168.438,128.200 167.638,128.200 167.638,122.400 168.438,122.400 168.438,119.301 167.638,119.301 167.638,118.301" style="fill:none;stroke-width:0.050000mm;stroke:black"/>
<polygon points="134.588,118.301 134.588,119.301 133.788,119.301 133.788,122.400 134.588,122.400 134.588,128.200 133.788,128.200 133.788,131.301 134.588,131.301 134.588,132.301 148.588,132.301 148.588,131.301 149.388,131.301 149.388,128.200 148.588,128.200 148.588,122.400 149.388,122.400 149.388,119.301 148.588,119.301 148.588,118.301" style="fill:none;stroke-width:0.050000mm;stroke:black"/>
<polygon points="115.538,118.301 115.538,119.301 114.738,119.301 114.738,122.400 115.538,122.400 115.538,128.200 114.738,128.200 114.738,131.301 115.538,131.301 115.538,132.301 129.538,132.301 129.538,131.301 130.337,131.301 130.337,128.200 129.538,128.200 129.538,122.400 130.337,122.400 130.337,119.301 129.538,119.301 129.538,118.301" style="fill:none;stroke-width:0.050000mm;stroke:black"/>
<polygon points="96.488,118.301 96.488,119.301 95.688,119.301 95.688,122.400 96.488,122.400 96.488,128.200 95.688,128.200 95.688,131.301 96.488,131.301 96.488,132.301 110.488,132.301 110.488,131.301 111.288,131.301 111.288,128.200 110.488,128.200 110.488,122.400 111.288,122.400 111.288,119.301 110.488,119.301 110.488,118.301" style="fill:none;stroke-width:0.050000mm;stroke:black"/>
<polygon points="77.438,118.301 77.438,119.301 76.638,119.301 76.638,122.400 77.438,122.400 77.438,128.200 76.638,128.200 76.638,131.301 77.438,131.301 77.438,132.301 91.438,132.301 91.438,131.301 92.238,131.301 92.238,128.200 91.438,128.200 91.438,122.400 92.238,122.400 92.238,119.301 91.438,119.301 91.438,118.301" style="fill:none;stroke-width:0.050000mm;stroke:black"/>
<polygon points="58.388,118.301 58.388,119.301 57.588,119.301 57.588,122.400 58.388,122.400 58.388,128.200 57.588,128.200 57.588,131.301 58.388,131.301 58.388,132.301 72.388,132.301 72.388,131.301 73.188,131.301 73.188,128.200 72.388,128.200 72.388,122.400 73.188,122.400 73.188,119.301 72.388,119.301 72.388,118.301" style="fill:none;stroke-width:0.050000mm;stroke:black"/>
<polygon points="270.319,99.251 270.319,100.251 269.519,100.251 269.519,103.351 270.319,103.351 270.319,103.951 268.794,103.951 268.794,100.721 262.044,100.721 262.044,103.951 261.219,103.951 261.219,106.751 262.044,106.751 262.044,113.021 263.769,113.021 263.769,114.221 267.069,114.221 267.069,113.021 268.794,113.021 268.794,108.551 270.319,108.551 270.319,109.151 269.519,109.151 269.519,112.251 270.319,112.251 270.319,113.251 284.319,113.251 284.319,112.251 285.119,112.251 285.119,109.151 284.319,109.151 284.319,108.551 285.844,108.551 285.844,113.021 287.569,113.021 287.569,114.221 290.869,114.221 290.869,113.021 292.594,113.021 292.594,106.751 293.419,106.751 293.419,103.951 292.594,103.951 292.594,100.721 285.844,100.721 285.844,103.951 284.319,103.951 284.319,103.351 285.119,103.351 285.119,100.251 284.319,100.251 284.319,99.251" style="fill:none;stroke-width:0.050000mm;stroke:black"/>
<polygon points="406.051,99.251 406.051,100.251 405.251,100.251 405.251,103.351 406.051,103.351 406.051,109.151 405.251,109.151 405.251,112.251 406.051,112.251 406.051,113.251 420.051,113.251 420.051,112.251 420.851,112.251 420.851,109.151 420.051,109.151 420.051,103.351 420.851,103.351 420.851,100.251 420.051,100.251 420.051,99.251" style="fill:none;stroke-width:0.050000mm;stroke:black"/>
<polygon points="387.001,99.251 387.001,100.251 386.201,100.251 386.201,103.351 387.001,103.351 387.001,109.151 386.201,109.151 386.201,112.251 387.001,112.251 387.001,113.251 401.001,113.251 401.001,112.251 401.801,112.251 401.801,109.151 401.001,109.151 401.001,103.351 401.801,103.351 401.801,100.251 401.001,100.251 401.001,99.251" style="fill:none;stroke-width:0.050000mm;stroke:black"/>
<polygon points="367.951,99.251 367.951,100.251 367.151,100.251 367.151,103.351 367.951,103.351 367.951,109.151 367.151,109.151 367.151,112.251 367.951,112.251 367.951,113.251 381.951,113.251 381.951,112.251 382.751,112.251 382.751,109.151 381.951,109.151 381.951,103.351 382.751,103.351 382.751,100.251 381.951,100.251 381.951,99.251" style="fill:none;stroke-width:0.050000mm;stroke:black"/>
<polygon points="239.363,99.251 239.363,100.251 238.563,100.251 238.563,103.351 239.363,103.351 239.363,109.151 238.563,109.151 238.563,112.251 239.363,112.251 239.363,113.251 253.363,113.251 253.363,112.251 254.163,112.251 254.163,109.151 253.363,109.151 253.363,103.351 254.163,103.351 254.163,100.251 253.363,100.251 253.363,99.251" style="fill:none;stroke-width:0.050000mm;stroke:black"/>
<polygon points="220.313,99.251 220.313,100.251 219.513,100.251 219.513,103.351 220.313,103.351 220.313,109.151 219.513,109.151 219.513,112.251 220.313,112.251 220.313,113.251 234.313,113.251 234.313,112.251 235.113,112.251 235.113,109.151 234.313,109.151 234.313,103.351 235.113,103.351 235.113,100.251 234.313,100.251 234.313,99.251" style="fill:none;stroke-width:0.050000mm;stroke:black"/>
<polygon points="201.263,99.251 201.263,100.251 200.463,100.251 200.463,103.351 201.263,103.351 201.263,109.151 200.463,109.151 200.463,112.251 201.263,112.251 201.263,113.251 215.263,113.251 215.263,112.251 216.063,112.251 216.063,109.151 215.263,109.151 215.263,103.351 216.063,103.351 216.063,100.251 215.263,100.251 215.263,99.251" style="fill:none;stroke-width:0.050000mm;stroke:black"/>
<polygon points="182.213,99.251 182.213,100.251 181.413,100.251 181.413,103.351 182.213,103.351 182.213,109.151 181.413,109.151 181.413,112.251 182.213,112.251 182.213,113.251 196.213,113.251 196.213,112.251 197.013,112.251 197.013,109.151 196.213,109.151 196.213,103.351 197.013,103.351 197.013,100.251 196.213,100.251 196.213,99.251" style="fill:none;stroke-width:0.050000mm;stroke:black"/>
<polygon points="163.163,99.251 163.163,100.251 162.363,100.251 162.363,103.351 163.163,103.351 163.163,109.151 162.363,109.151 162.363,112.251 163.163,112.251 163.163,113.251 177.163,113.251 177.163,112.251 177.963,112.251 177.963,109.151 177.163,109.151 177.163,103.351 177.963,103.351 177.963,100.251 177.163,100.251 177.163,99.251" style="fill:none;stroke-width:0.050000mm;stroke:black"/>
<polygon points="144.113,99.251 144.113,100.251 143.313,100.251 143.313,103.351 144.113,103.351 144.113,109.151 143.313,109.151 143.313,112.251 144.113,112.251 144.113,113.251 158.113,113.251 158.113,112.251 158.913,112.251 158.913,109.151 158.113,109.151 158.113,103.351 158.913,103.351 158.913,100.251 158.113,100.251 158.113,99.251" style="fill:none;stroke-width:0.050000mm;stroke:black"/>
<polygon points="125.063,99.251 125.063,100.251 124.263,100.251 124.263,103.351 125.063,103.351 125.063,109.151 124.263,109.151 124.263,112.251 125.063,112.251 125.063,113.251 139.063,113.251 139.063,112.251 139.863,112.251 139.863,109.151 139.063,109.151 139.063,103.351 139.863,103.351 139.863,100.251 139.063,100.251 139.063,99.251" style="fill:none;stroke-width:0.050000mm;stroke:black"/>
<polygon points="106.013,99.251 106.013,100.251 105.213,100.251 105.213,103.351 106.013,103.351 106.013,109.151 105.213,109.151 105.213,112.251 106.013,112.251 106.013,113.251 120.013,113.251 120.013,112.251 120.813,112.251 120.813,109.151 120.013,109.151 120.013,103.351 120.813,103.351 120.813,100.251 120.013,100.251 120.013,99.251" style="fill:none;stroke-width:0.050000mm;stroke:black"/>
<polygon points="86.963,99.251 86.963,100.251 86.163,100.251 86.163,103.351 86.963,103.351 86.963,109.151 86.163,109.151 86.163,112.251 86.963,112.251 86.963,113.251 100.963,113.251 100.963,112.251 101.763,112.251 101.763,109.151 100.963,109.151 100.963,103.351 101.763,103.351 101.763,100.251 100.963,100.251 100.963,99.251" style="fill:none;stroke-width:0.050000mm;stroke:black"/>
<polygon points="67.913,99.251 67.913,100.251 67.113,100.251 67.113,103.351 67.913,103.351 67.913,109.151 67.113,109.151 67.113,112.251 67.913,112.251 67.913,113.251 81.913,113.251 81.913,112.251 82.713,112.251 82.713,109.151 81.913,109.151 81.913,103.351 82.713,103.351 82.713,100.251 81.913,100.251 81.913,99.251" style="fill:none;stroke-width:0.050000mm;stroke:black"/>
<polygon points="48.863,99.251 48.863,100.251 48.063,100.251 48.063,103.351 48.863,103.351 48.863,109.151 48.063,109.151 48.063,112.251 48.863,112.251 48.863,113.251 62.863,113.251 62.863,112.251 63.663,112.251 63.663,109.151 62.863,109.151 62.863,103.351 63.663,103.351 63.663,100.251 62.863,100.251 62.863,99.251" style="fill:none;stroke-width:0.050000mm;stroke:black"/>
<polygon points="22.669,99.251 22.669,100.251 21.869,100.251 21.869,103.351 22.669,103.351 22.669,109.151 21.869,109.151 21.869,112.251 22.669,112.251 22.669,113.251 36.669,113.251 36.669,112.251 37.469,112.251 37.469,109.151 36.669,109.151 36.669,103.351 37.469,103.351 37.469,100.251 36.669,100.251 36.669,99.251" style="fill:none;stroke-width:0.050000mm;stroke:black"/>
<polygon points="431.601,80.626 431.601,81.451 425.331,81.451 425.331,83.176 424.131,83.176 424.131,86.476 425.331,86.476 425.331,88.201 429.801,88.201 429.801,89.726 429.201,89.726 429.201,88.926 426.101,88.926 426.101,89.726 425.101,89.726 425.101,103.726 426.101,103.726 426.101,104.526 429.201,104.526 429.201,103.726 429.801,103.726 429.801,105.251 425.331,105.251 425.331,106.976 424.131,106.976 424.131,110.276 425.331,110.276 425.331,112.001 431.601,112.001 431.601,112.826 434.401,112.826 434.401,112.001 437.631,112.001 437.631,105.251 434.401,105.251 434.401,103.726 435.001,103.726 435.001,104.526 438.101,104.526 438.101,103.726 439.101,103.726 439.101,89.726 438.101,89.726 438.101,88.926 435.001,88.926 435.001,89.726 434.401,89.726 434.401,88.201 437.631,88.201 437.631,81.451 434.401,81.451 434.401,80.626" style="fill:none;stroke-width:0.050000mm;stroke:black"/>
<polygon points="406.051,80.201 406.051,81.201 405.251,81.201 405.251,84.301 406.051,84.301 406.051,90.101 405.251,90.101 405.251,93.201 406.051,93.201 406.051,94.201 420.051,94.201 420.051,93.201 420.851,93.201 420.851,90.101 420.051,90.101 420.051,84.301 420.851,84.301 420.851,81.201 420.051,81.201 420.051,80.201" style="fill:none;stroke-width:0.050000mm;stroke:black"/>
<polygon points="387.001,80.201 387.001,81.201 386.201,81.201 386.201,84.301 387.001,84.301 387.001,90.101 386.201,90.101 386.201,93.201 387.001,93.201 387.001,94.201 401.001,94.201 401.001,93.201 401.801,93.201 401.801,90.101 401.001,90.101 401.001,84.301 401.801,84.301 401.801,81.201 401.001,81.201 401.001,80.201" style="fill:none;stroke-width:0.050000mm;stroke:black"/>
<polygon points="367.951,80.201 367.951,81.201 367.151,81.201 367.151,84.301 367.951,84.301 367.951,90.101 367.151,90.101 367.151,93.201 367.951,93.201 367.951,94.201 381.951,94.201 381.951,93.201 382.751,93.201 382.751,90.101 381.951,90.101 381.951,84.301 382.751,84.301 382.751,81.201 381.951,81.201 381.951,80.201" style="fill:none;stroke-width:0.050000mm;stroke:black"/>
<polygon points="344.138,80.201 344.138,81.201 343.338,81.201 343.338,84.301 344.138,84.301 344.138,90.101 343.338,90.101 343.338,93.201 344.138,93.201 344.138,94.201 358.138,94.201 358.138,93.201 358.938,93.201 358.938,90.101 358.138,90.101 358.138,84.301 358.938,84.301 358.938,81.201 358.138,81.201 358.138,80.201" style="fill:none;stroke-width:0.050000mm;stroke:black"/>
<polygon points="325.088,80.201 325.088,81.201 324.288,81.201 324.288,84.301 325.088,84.301 325.088,90.101 324.288,90.101 324.288,93.201 325.088,93.201 325.088,94.201 339.088,94.201 339.088,93.201 339.888,93.201 339.888,90.101 339.088,90.101 339.088,84.301 339.888,84.301 339.888,81.201 339.088,81.201 339.088,80.201" style="fill:none;stroke-width:0.050000mm;stroke:black"/>
<polygon points="306.038,80.201 306.038,81.201 305.238,81.201 305.238,84.301 306.038,84.301 306.038,90.101 305.238,90.101 305.238,93.201 306.038,93.201 306.038,94.201 320.038,94.201 320.038,93.201 320.838,93.201 320.838,90.101 320.038,90.101 320.038,84.301 320.838,84.301 320.838,81.201 320.038,81.201 320.038,80.201" style="fill:none;stroke-width:0.050000mm;stroke:black"/>
<polygon points="277.463,80.201 277.463,81.201 276.663,81.201 276.663,84.301 277.463,84.301 277.463,90.101 276.663,90.101 276.663,93.201 277.463,93.201 277.463,94.201 291.463,94.201 291.463,93.201 292.263,93.201 292.263,90.101 291.463,90.101 291.463,84.301 292.263,84.301 292.263,81.201 291.463,81.201 291.463,80.201" style="fill:none;stroke-width:0.050000mm;stroke:black"/>
<polygon points="253.651,80.201 253.651,81.201 252.851,81.201 252.851,84.301 253.651,84.301 253.651,90.101 252.851,90.101 252.851,93.201 253.651,93.201 253.651,94.201 267.651,94.201 267.651,93.201 268.451,93.201 268.451,90.101 267.651,90.101 267.651,84.301 268.451,84.301 268.451,81.201 267.651,81.201 267.651,80.201" style="fill:none;stroke-width:0.050000mm;stroke:black"/>
<polygon points="234.601,80.201 234.601,81.201 233.801,81.201 233.801,84.301 234.601,84.301 234.601,90.101 233.801,90.101 233.801,93.201 234.601,93.201 234.601,94.201 248.601,94.201 248.601,93.201 249.401,93.201 249.401,90.101 248.601,90.101 248.601,84.301 249.401,84.301 249.401,81.201 248.601,81.201 248.601,80.201" style="fill:none;stroke-width:0.050000mm;stroke:black"/>
<polygon points="215.551,80.201 215.551,81.201 214.751,81.201 214.751,84.301 215.551,84.301 215.551,90.101 214.751,90.101 214.751,93.201 215.551,93.201 215.551,94.201 229.551,94.201 229.551,93.201 230.351,93.201 230.351,90.101 229.551,90.101 229.551,84.301 230.351,84.301 230.351,81.201 229.551,81.201 229.551,80.201" style="fill:none;stroke-width:0.050000mm;stroke:black"/>
<polygon points="196.501,80.201 196.501,81.201 195.701,81.201 195.701,84.301 196.501,84.301 196.501,90.101 195.701,90.101 195.701,93.201 196.501,93.201 196.501,94.201 210.501,94.201 210.501,93.201 211.301,93.201 211.301,90.101 210.501,90.101 210.501,84.301 211.301,84.301 211.301,81.201 210.501,81.201 210.501,80.201" style="fill:none;stroke-width:0.050000mm;stroke:black"/>
<polygon points="177.451,80.201 177.451,81.201 176.651,81.201 176.651,84.301 177.451,84.301 177.451,90.101 176.651,90.101 176.651,93.201 177.451,93.201 177.451,94.201 191.451,94.201 191.451,93.201 192.251,93.201 192.251,90.101 191.451,90.101 191.451,84.301 192.251,84.301 192.251,81.201 191.451,81.201 191.451,80.201" style="fill:none;stroke-width:0.050000mm;stroke:black"/>
<polygon points="158.401,80.201 158.401,81.201 157.601,81.201 157.601,84.301 158.401,84.301 158.401,90.101 157.601,90.101 157.601,93.201 158.401,93.201 158.401,94.201 172.401,94.201 172.401,93.201 173.201,93.201 173.201,90.101 172.401,90.101 172.401,84.301 173.201,84.301 173.201,81.201 172.401,81.201 172.401,80.201" style="fill:none;stroke-width:0.050000mm;stroke:black"/>
<polygon points="139.351,80.201 139.351,81.201 138.550,81.201 138.550,84.301 139.351,84.301 139.351,90.101 138.550,90.101 138.550,93.201 139.351,93.201 139.351,94.201 153.351,94.201 153.351,93.201 154.151,93.201 154.151,90.101 153.351,90.101 153.351,84.301 154.151,84.301 154.151,81.201 153.351,81.201 153.351,80.201" style="fill:none;stroke-width:0.050000mm;stroke:black"/>
<polygon points="120.301,80.201 120.301,81.201 119.501,81.201 119.501,84.301 120.301,84.301 120.301,90.101 119.501,90.101 119.501,93.201 120.301,93.201 120.301,94.201 134.301,94.201 134.301,93.201 135.101,93.201 135.101,90.101 134.301,90.101 134.301,84.301 135.101,84.301 135.101,81.201 134.301,81.201 134.301,80.201" style="fill:none;stroke-width:0.050000mm;stroke:black"/>
<polygon points="101.251,80.201 101.251,81.201 100.451,81.201 100.451,84.301 101.251,84.301 101.251,90.101 100.451,90.101 100.451,93.201 101.251,93.201 101.251,94.201 115.251,94.201 115.251,93.201 116.051,93.201 116.051,90.101 115.251,90.101 115.251,84.301 116.051,84.301 116.051,81.201 115.251,81.201 115.251,80.201" style="fill:none;stroke-width:0.050000mm;stroke:black"/>
<polygon points="82.201,80.201 82.201,81.201 81.401,81.201 81.401,84.301 82.201,84.301 82.201,90.101 81.401,90.101 81.401,93.201 82.201,93.201 82.201,94.201 96.201,94.201 96.201,93.201 97.001,93.201 97.001,90.101 96.201,90.101 96.201,84.301 97.001,84.301 97.001,81.201 96.201,81.201 96.201,80.201" style="fill:none;stroke-width:0.050000mm;stroke:black"/>
<polygon points="63.151,80.201 63.151,81.201 62.351,81.201 62.351,84.301 63.151,84.301 63.151,90.101 62.351,90.101 62.351,93.201 63.151,93.201 63.151,94.201 77.151,94.201 77.151,93.201 77.951,93.201 77.951,90.101 77.151,90.101 77.151,84.301 77.951,84.301 77.951,81.201 77.151,81.201 77.151,80.201" style="fill:none;stroke-width:0.050000mm;stroke:black"/>
<polygon points="44.101,80.201 44.101,81.201 43.301,81.201 43.301,84.301 44.101,84.301 44.101,90.101 43.301,90.101 43.301,93.201 44.101,93.201 44.101,94.201 58.101,94.201 58.101,93.201 58.901,93.201 58.901,90.101 58.101,90.101 58.101,84.301 58.901,84.301 58.901,81.201 58.101,81.201 58.101,80.201" style="fill:none;stroke-width:0.050000mm;stroke:black"/>
<polygon points="20.288,80.201 20.288,81.201 19.488,81.201 19.488,84.301 20.288,84.301 20.288,90.101 19.488,90.101 19.488,93.201 20.288,93.201 20.288,94.201 34.288,94.201 34.288,93.201 35.088,93.201 35.088,90.101 34.288,90.101 34.288,84.301 35.088,84.301 35.088,81.201 34.288,81.201 34.288,80.201" style="fill:none;stroke-width:0.050000mm;stroke:black"/>
<polygon points="272.701,61.151 272.701,62.151 271.901,62.151 271.901,65.251 272.701,65.251 272.701,65.851 271.176,65.851 271.176,62.621 264.426,62.621 264.426,65.851 263.601,65.851 263.601,68.651 264.426,68.651 264.426,74.921 266.151,74.921 266.151,76.121 269.451,76.121 269.451,74.921 271.176,74.921 271.176,70.451 272.701,70.451 272.701,71.051 271.901,71.051 271.901,74.151 272.701,74.151 272.701,75.151 286.701,75.151 286.701,74.151 287.501,74.151 287.501,71.051 286.701,71.051 286.701,70.451 288.226,70.451 288.226,74.921 289.951,74.921 289.951,76.121 293.251,76.121 293.251,74.921 294.976,74.921 294.976,68.651 295.801,68.651 295.801,65.851 294.976,65.851 294.976,62.621 288.226,62.621 288.226,65.851 286.701,65.851 286.701,65.251 287.501,65.251 287.501,62.151 286.701,62.151 286.701,61.151" style="fill:none;stroke-width:0.050000mm;stroke:black"/>
<polygon points="425.101,61.151 425.101,62.151 424.301,62.151 424.301,65.251 425.101,65.251 425.101,71.051 424.301,71.051 424.301,74.151 425.101,74.151 425.101,75.151 439.101,75.151 439.101,74.151 439.901,74.151 439.901,71.051 439.101,71.051 439.101,65.251 439.901,65.251 439.901,62.151 439.101,62.151 439.101,61.151" style="fill:none;stroke-width:0.050000mm;stroke:black"/>
<polygon points="406.051,61.151 406.051,62.151 405.251,62.151 405.251,65.251 406.051,65.251 406.051,71.051 405.251,71.051 405.251,74.151 406.051,74.151 406.051,75.151 420.051,75.151 420.051,74.151 420.851,74.151 420.851,71.051 420.051,71.051 420.051,65.251 420.851,65.251 420.851,62.151 420.051,62.151 420.051,61.151" style="fill:none;stroke-width:0.050000mm;stroke:black"/>
<polygon points="387.001,61.151 387.001,62.151 386.201,62.151 386.201,65.251 387.001,65.251 387.001,71.051 386.201,71.051 386.201,74.151 387.001,74.151 387.001,75.151 401.001,75.151 401.001,74.151 401.801,74.151 401.801,71.051 401.001,71.051 401.001,65.251 401.801,65.251 401.801,62.151 401.001,62.151 401.001,61.151" style="fill:none;stroke-width:0.050000mm;stroke:black"/>
<polygon points="367.951,61.151 367.951,62.151 367.151,62.151 367.151,65.251 367.951,65.251 367.951,71.051 367.151,71.051 367.151,74.151 367.951,74.151 367.951,75.151 381.951,75.151 381.951,74.151 382.751,74.151 382.751,71.051 381.951,71.051 381.951,65.251 382.751,65.251 382.751,62.151 381.951,62.151 381.951,61.151" style="fill:none;stroke-width:0.050000mm;stroke:black"/>
<polygon points="344.138,61.151 344.138,62.151 343.338,62.151 343.338,65.251 344.138,65.251 344.138,71.051 343.338,71.051 343.338,74.151 344.138,74.151 344.138,75.151 358.138,75.151 358.138,74.151 358.938,74.151 358.938,71.051 358.138,71.051 358.138,65.251 358.938,65.251 358.938,62.151 358.138,62.151 358.138,61.151" style="fill:none;stroke-width:0.050000mm;stroke:black"/>
<polygon points="325.088,61.151 325.088,62.151 324.288,62.151 324.288,65.251 325.088,65.251 325.088,71.051 324.288,71.051 324.288,74.151 325.088,74.151 325.088,75.151 339.088,75.151 339.088,74.151 339.888,74.151 339.888,71.051 339.088,71.051 339.088,65.251 339.888,65.251 339.888,62.151 339.088,62.151 339.088,61.151" style="fill:none;stroke-width:0.050000mm;stroke:black"/>
<polygon points="306.038,61.151 306.038,62.151 305.238,62.151 305.238,65.251 306.038,65.251 306.038,71.051 305.238,71.051 305.238,74.151 306.038,74.151 306.038,75.151 320.038,75.151 320.038,74.151 320.838,74.151 320.838,71.051 320.038,71.051 320.038,65.251 320.838,65.251 320.838,62.151 320.038,62.151 320.038,61.151" style="fill:none;stroke-width:0.050000mm;stroke:black"/>
<polygon points="244.126,61.151 244.126,62.151 243.326,62.151 243.326,65.251 244.126,65.251 244.126,71.051 243.326,71.051 243.326,74.151 244.126,74.151 244.126,75.151 258.126,75.151 258.126,74.151 258.926,74.151 258.926,71.051 258.126,71.051 258.126,65.251 258.926,65.251 258.926,62.151 258.126,62.151 258.126,61.151" style="fill:none;stroke-width:0.050000mm;stroke:black"/>
<polygon points="225.076,61.151 225.076,62.151 224.276,62.151 224.276,65.251 225.076,65.251 225.076,71.051 224.276,71.051 224.276,74.151 225.076,74.151 225.076,75.151 239.076,75.151 239.076,74.151 239.876,74.151 239.876,71.051 239.076,71.051 239.076,65.251 239.876,65.251 239.876,62.151 239.076,62.151 239.076,61.151" style="fill:none;stroke-width:0.050000mm;stroke:black"/>
<polygon points="206.026,61.151 206.026,62.151 205.226,62.151 205.226,65.251 206.026,65.251 206.026,71.051 205.226,71.051 205.226,74.151 206.026,74.151 206.026,75.151 220.026,75.151 220.026,74.151 220.826,74.151 220.826,71.051 220.026,71.051 220.026,65.251 220.826,65.251 220.826,62.151 220.026,62.151 220.026,61.151" style="fill:none;stroke-width:0.050000mm;stroke:black"/>
<polygon points="186.976,61.151 186.976,62.151 186.176,62.151 186.176,65.251 186.976,65.251 186.976,71.051 186.176,71.051 186.176,74.151 186.976,74.151 186.976,75.151 200.976,75.151 200.976,74.151 201.776,74.151 201.776,71.051 200.976,71.051 200.976,65.251 201.776,65.251 201.776,62.151 200.976,62.151 200.976,61.151" style="fill:none;stroke-width:0.050000mm;stroke:black"/>
<polygon points="167.926,61.151 167.926,62.151 167.126,62.151 167.126,65.251 167.926,65.251 167.926,71.051 167.126,71.051 167.126,74.151 167.926,74.151 167.926,75.151 181.926,75.151 181.926,74.151 182.726,74.151 182.726,71.051 181.926,71.051 181.926,65.251 182.726,65.251 182.726,62.151 181.926,62.151 181.926,61.151" style="fill:none;stroke-width:0.050000mm;stroke:black"/>
<polygon points="148.876,61.151 148.876,62.151 148.076,62.151 148.076,65.251 148.876,65.251 148.876,71.051 148.076,71.051 148.076,74.151 148.876,74.151 148.876,75.151 162.876,75.151 162.876,74.151 163.676,74.151 163.676,71.051 162.876,71.051 162.876,65.251 163.676,65.251 163.676,62.151 162.876,62.151 162.876,61.151" style="fill:none;stroke-width:0.050000mm;stroke:black"/>
<polygon points="129.825,61.151 129.825,62.151 129.025,62.151 129.025,65.251 129.825,65.251 129.825,71.051 129.025,71.051 129.025,74.151 129.825,74.151 129.825,75.151 143.826,75.151 143.826,74.151 144.626,74.151 144.626,71.051 143.826,71.051 143.826,65.251 144.626,65.251 144.626,62.151 143.826,62.151 143.826,61.151" style="fill:none;stroke-width:0.050000mm;stroke:black"/>
<polygon points="110.775,61.151 110.775,62.151 109.976,62.151 109.976,65.251 110.775,65.251 110.775,71.051 109.976,71.051 109.976,74.151 110.775,74.151 110.775,75.151 124.775,75.151 124.775,74.151 125.575,74.151 125.575,71.051 124.775,71.051 124.775,65.251 125.575,65.251 125.575,62.151 124.775,62.151 124.775,61.151" style="fill:none;stroke-width:0.050000mm;stroke:black"/>
<polygon points="91.726,61.151 91.726,62.151 90.926,62.151 90.926,65.251 91.726,65.251 91.726,71.051 90.926,71.051 90.926,74.151 91.726,74.151 91.726,75.151 105.726,75.151 105.726,74.151 106.525,74.151 106.525,71.051 105.726,71.051 105.726,65.251 106.525,65.251 106.525,62.151 105.726,62.151 105.726,61.151" style="fill:none;stroke-width:0.050000mm;stroke:black"/>
<polygon points="72.676,61.151 72.676,62.151 71.876,62.151 71.876,65.251 72.676,65.251 72.676,71.051 71.876,71.051 71.876,74.151 72.676,74.151 72.676,75.151 86.676,75.151 86.676,74.151 87.476,74.151 87.476,71.051 86.676,71.051 86.676,65.251 87.476,65.251 87.476,62.151 86.676,62.151 86.676,61.151" style="fill:none;stroke-width:0.050000mm;stroke:black"/>
<polygon points="53.626,61.151 53.626,62.151 52.826,62.151 52.826,65.251 53.626,65.251 53.626,71.051 52.826,71.051 52.826,74.151 53.626,74.151 53.626,75.151 67.626,75.151 67.626,74.151 68.426,74.151 68.426,71.051 67.626,71.051 67.626,65.251 68.426,65.251 68.426,62.151 67.626,62.151 67.626,61.151" style="fill:none;stroke-width:0.050000mm;stroke:black"/>
<polygon points="34.576,61.151 34.576,62.151 33.776,62.151 33.776,65.251 34.576,65.251 34.576,71.051 33.776,71.051 33.776,74.151 34.576,74.151 34.576,75.151 48.576,75.151 48.576,74.151 49.376,74.151 49.376,71.051 48.576,71.051 48.576,65.251 49.376,65.251 49.376,62.151 48.576,62.151 48.576,61.151" style="fill:none;stroke-width:0.050000mm;stroke:black"/>
<polygon points="15.525,61.151 15.525,62.151 14.725,62.151 14.725,65.251 15.525,65.251 15.525,71.051 14.725,71.051 14.725,74.151 15.525,74.151 15.525,75.151 29.526,75.151 29.526,74.151 30.326,74.151 30.326,71.051 29.526,71.051 29.526,65.251 30.326,65.251 30.326,62.151 29.526,62.151 29.526,61.151" style="fill:none;stroke-width:0.050000mm;stroke:black"/>
<polygon points="344.138,32.576 344.138,33.576 343.338,33.576 343.338,36.676 344.138,36.676 344.138,42.476 343.338,42.476 343.338,45.576 344.138,45.576 344.138,46.576 358.138,46.576 358.138,45.576 358.938,45.576 358.938,42.476 358.138,42.476 358.138,36.676 358.938,36.676 358.938,33.576 358.138,33.576 358.138,32.576" style="fill:none;stroke-width:0.050000mm;stroke:black"/>
<polygon points="325.088,32.576 325.088,33.576 324.288,33.576 324.288,36.676 325.088,36.676 325.088,42.476 324.288,42.476 324.288,45.576 325.088,45.576 325.088,46.576 339.088,46.576 339.088,45.576 339.888,45.576 339.888,42.476 339.088,42.476 339.088,36.676 339.888,36.676 339.888,33.576 339.088,33.576 339.088,32.576" style="fill:none;stroke-width:0.050000mm;stroke:black"/>
<polygon points="306.038,32.576 306.038,33.576 305.238,33.576 305.238,36.676 306.038,36.676 306.038,42.476 305.238,42.476 305.238,45.576 306.038,45.576 306.038,46.576 320.038,46.576 320.038,45.576 320.838,45.576 320.838,42.476 320.038,42.476 320.038,36.676 320.838,36.676 320.838,33.576 320.038,33.576 320.038,32.576" style="fill:none;stroke-width:0.050000mm;stroke:black"/>
<polygon points="282.226,32.576 282.226,33.576 281.426,33.576 281.426,36.676 282.226,36.676 282.226,42.476 281.426,42.476 281.426,45.576 282.226,45.576 282.226,46.576 296.226,46.576 296.226,45.576 297.026,45.576 297.026,42.476 296.226,42.476 296.226,36.676 297.026,36.676 297.026,33.576 296.226,33.576 296.226,32.576" style="fill:none;stroke-width:0.050000mm;stroke:black"/>
<polygon points="263.176,32.576 263.176,33.576 262.376,33.576 262.376,36.676 263.176,36.676 263.176,42.476 262.376,42.476 262.376,45.576 263.176,45.576 263.176,46.576 277.176,46.576 277.176,45.576 277.976,45.576 277.976,42.476 277.176,42.476 277.176,36.676 277.976,36.676 277.976,33.576 277.176,33.576 277.176,32.576" style="fill:none;stroke-width:0.050000mm;stroke:black"/>
<polygon points="244.126,32.576 244.126,33.576 243.326,33.576 243.326,36.676 244.126,36.676 244.126,42.476 243.326,42.476 243.326,45.576 244.126,45.576 244.126,46.576 258.126,46.576 258.126,45.576 258.926,45.576 258.926,42.476 258.126,42.476 258.126,36.676 258.926,36.676 258.926,33.576 258.126,33.576 258.126,32.576" style="fill:none;stroke-width:0.050000mm;stroke:black"/>
<polygon points="225.076,32.576 225.076,33.576 224.276,33.576 224.276,36.676 225.076,36.676 225.076,42.476 224.276,42.476 224.276,45.576 225.076,45.576 225.076,46.576 239.076,46.576 239.076,45.576 239.876,45.576 239.876,42.476 239.076,42.476 239.076,36.676 239.876,36.676 239.876,33.576 239.076,33.576 239.076,32.576" style="fill:none;stroke-width:0.050000mm;stroke:black"/>
<polygon points="196.501,32.576 196.501,33.576 195.701,33.576 195.701,36.676 196.501,36.676 196.501,42.476 195.701,42.476 195.701,45.576 196.501,45.576 196.501,46.576 210.501,46.576 210.501,45.576 211.301,45.576 211.301,42.476 210.501,42.476 210.501,36.676 211.301,36.676 211.301,33.576 210.501,33.576 210.501,32.576" style="fill:none;stroke-width:0.050000mm;stroke:black"/>
<polygon points="177.451,32.576 177.451,33.576 176.651,33.576 176.651,36.676 177.451,36.676 177.451,42.476 176.651,42.476 176.651,45.576 177.451,45.576 177.451,46.576 191.451,46.576 191.451,45.576 192.251,45.576 192.251,42.476 191.451,42.476 191.451,36.676 192.251,36.676 192.251,33.576 191.451,33.576 191.451,32.576" style="fill:none;stroke-width:0.050000mm;stroke:black"/>
<polygon points="158.401,32.576 158.401,33.576 157.601,33.576 157.601,36.676 158.401,36.676 158.401,42.476 157.601,42.476 157.601,45.576 158.401,45.576 158.401,46.576 172.401,46.576 172.401,45.576 173.201,45.576 173.201,42.476 172.401,42.476 172.401,36.676 173.201,36.676 173.201,33.576 172.401,33.576 172.401,32.576" style="fill:none;stroke-width:0.050000mm;stroke:black"/>
<polygon points="139.351,32.576 139.351,33.576 138.550,33.576 138.550,36.676 139.351,36.676 139.351,42.476 138.550,42.476 138.550,45.576 139.351,45.576 139.351,46.576 153.351,46.576 153.351,45.576 154.151,45.576 154.151,42.476 153.351,42.476 153.351,36.676 154.151,36.676 154.151,33.576 153.351,33.576 153.351,32.576" style="fill:none;stroke-width:0.050000mm;stroke:black"/>
<polygon points="110.775,32.576 110.775,33.576 109.976,33.576 109.976,36.676 110.775,36.676 110.775,42.476 109.976,42.476 109.976,45.576 110.775,45.576 110.775,46.576 124.775,46.576 124.775,45.576 125.575,45.576 125.575,42.476 124.775,42.476 124.775,36.676 125.575,36.676 125.575,33.576 124.775,33.576 124.775,32.576" style="fill:none;stroke-width:0.050000mm;stroke:black"/>
<polygon points="91.726,32.576 91.726,33.576 90.926,33.576 90.926,36.676 91.726,36.676 91.726,42.476 90.926,42.476 90.926,45.576 91.726,45.576 91.726,46.576 105.726,46.576 105.726,45.576 106.525,45.576 106.525,42.476 105.726,42.476 105.726,36.676 106.525,36.676 106.525,33.576 105.726,33.576 105.726,32.576" style="fill:none;stroke-width:0.050000mm;stroke:black"/>
<polygon points="72.676,32.576 72.676,33.576 71.876,33.576 71.876,36.676 72.676,36.676 72.676,42.476 71.876,42.476 71.876,45.576 72.676,45.576 72.676,46.576 86.676,46.576 86.676,45.576 87.476,45.576 87.476,42.476 86.676,42.476 86.676,36.676 87.476,36.676 87.476,33.576 86.676,33.576 86.676,32.576" style="fill:none;stroke-width:0.050000mm;stroke:black"/>
<polygon points="53.626,32.576 53.626,33.576 52.826,33.576 52.826,36.676 53.626,36.676 53.626,42.476 52.826,42.476 52.826,45.576 53.626,45.576 53.626,46.576 67.626,46.576 67.626,45.576 68.426,45.576 68.426,42.476 67.626,42.476 67.626,36.676 68.426,36.676 68.426,33.576 67.626,33.576 67.626,32.576" style="fill:none;stroke-width:0.050000mm;stroke:black"/>
<polygon points="15.525,32.576 15.525,33.576 14.725,33.576 14.725,36.676 15.525,36.676 15.525,42.476 14.725,42.476 14.725,45.576 15.525,45.576 15.525,46.576 29.526,46.576 29.526,45.576 30.326,45.576 30.326,42.476 29.526,42.476 29.526,36.676 30.326,36.676 30.326,33.576 29.526,33.576 29.526,32.576" style="fill:none;stroke-width:0.050000mm;stroke:black"/>
<polygon points="344.138,13.525 344.138,14.525 343.338,14.525 343.338,17.626 344.138,17.626 344.138,23.425 343.338,23.425 343.338,26.526 344.138,26.526 344.138,27.526 358.138,27.526 358.138,26.526 358.938,26.526 358.938,23.425 358.138,23.425 358.138,17.626 358.938,17.626 358.938,14.525 358.138,14.525 358.138,13.525" style="fill:none;stroke-width:0.050000mm;stroke:black"/>
<polygon points="325.088,13.525 325.088,14.525 324.288,14.525 324.288,17.626 325.088,17.626 325.088,23.425 324.288,23.425 324.288,26.526 325.088,26.526 325.088,27.526 339.088,27.526 339.088,26.526 339.888,26.526 339.888,23.425 339.088,23.425 339.088,17.626 339.888,17.626 339.888,14.525 339.088,14.525 339.088,13.525" style="fill:none;stroke-width:0.050000mm;stroke:black"/>
<polygon points="306.038,13.525 306.038,14.525 305.238,14.525 305.238,17.626 306.038,17.626 306.038,23.425 305.238,23.425 305.238,26.526 306.038,26.526 306.038,27.526 320.038,27.526 320.038,26.526 320.838,26.526 320.838,23.425 320.038,23.425 320.038,17.626 320.838,17.626 320.838,14.525 320.038,14.525 320.038,13.525" style="fill:none;stroke-width:0.050000mm;stroke:black"/>
<polygon points="110.775,13.525 110.775,14.525 109.976,14.525 109.976,17.626 110.775,17.626 110.775,23.425 109.976,23.425 109.976,26.526 110.775,26.526 110.775,27.526 124.775,27.526 124.775,26.526 125.575,26.526 125.575,23.425 124.775,23.425 124.775,17.626 125.575,17.626 125.575,14.525 124.775,14.525 124.775,13.525" style="fill:none;stroke-width:0.050000mm;stroke:black"/>
<polygon points="91.726,13.525 91.726,14.525 90.926,14.525 90.926,17.626 91.726,17.626 91.726,23.425 90.926,23.425 90.926,26.526 91.726,26.526 91.726,27.526 105.726,27.526 105.726,26.526 106.525,26.526 106.525,23.425 105.726,23.425 105.726,17.626 106.525,17.626 106.525,14.525 105.726,14.525 105.726,13.525" style="fill:none;stroke-width:0.050000mm;stroke:black"/>
<polygon points="72.676,13.525 72.676,14.525 71.876,14.525 71.876,17.626 72.676,17.626 72.676,23.425 71.876,23.425 71.876,26.526 72.676,26.526 72.676,27.526 86.676,27.526 86.676,26.526 87.476,26.526 87.476,23.425 86.676,23.425 86.676,17.626 87.476,17.626 87.476,14.525 86.676,14.525 86.676,13.525" style="fill:none;stroke-width:0.050000mm;stroke:black"/>
<polygon points="53.626,13.525 53.626,14.525 52.826,14.525 52.826,17.626 53.626,17.626 53.626,23.425 52.826,23.425 52.826,26.526 53.626,26.526 53.626,27.526 67.626,27.526 67.626,26.526 68.426,26.526 68.426,23.425 67.626,23.425 67.626,17.626 68.426,17.626 68.426,14.525 67.626,14.525 67.626,13.525" style="fill:none;stroke-width:0.050000mm;stroke:black"/>
<polygon points="7.506,6.479 7.060,6.706 6.706,7.060 6.479,7.506 6.400,8.001 6.479,8.495 6.706,8.941 7.060,9.295 7.506,9.522 8.001,9.601 8.495,9.522 8.941,9.295 9.295,8.941 9.522,8.495 9.601,8.001 9.522,7.506 9.295,7.060 8.941,6.706 8.495,6.479 8.001,6.401" style="fill:none;stroke-width:0.050000mm;stroke:black"/>
<polygon points="446.132,6.479 445.686,6.706 445.332,7.060 445.105,7.506 445.027,8.001 445.105,8.495 445.332,8.941 445.686,9.295 446.132,9.522 446.627,9.601 447.121,9.522 447.567,9.295 447.921,8.941 448.148,8.495 448.227,8.001 448.148,7.506 447.921,7.060 447.567,6.706 447.121,6.479 446.627,6.401" style="fill:none;stroke-width:0.050000mm;stroke:black"/>
<polygon points="226.819,6.479 226.373,6.706 226.019,7.060 225.792,7.506 225.714,8.001 225.792,8.495 226.019,8.941 226.373,9.295 226.819,9.522 227.314,9.601 227.808,9.522 228.254,9.295 228.608,8.941 228.835,8.495 228.914,8.001 228.835,7.506 228.608,7.060 228.254,6.706 227.808,6.479 227.314,6.401" style="fill:none;stroke-width:0.050000mm;stroke:black"/>
</svg>
