<?xml version="1.0" encoding="UTF-8" standalone="no"?>
<svg
   xmlns:dc="http://purl.org/dc/elements/1.1/"
   xmlns:cc="http://creativecommons.org/ns#"
   xmlns:rdf="http://www.w3.org/1999/02/22-rdf-syntax-ns#"
   xmlns:svg="http://www.w3.org/2000/svg"
   xmlns="http://www.w3.org/2000/svg"
   xmlns:sodipodi="http://sodipodi.sourceforge.net/DTD/sodipodi-0.dtd"
   xmlns:inkscape="http://www.inkscape.org/namespaces/inkscape"
   width="450.627mm"
   height="162.364mm"
   viewBox="0.000 0.000 450.627 162.364"
   version="1.1"
   id="svg253987"
   sodipodi:docname="44eeba771a5b6c852af2286e39a3858f011b3c9f_switch_v2.svg"
   inkscape:version="1.0.1 (3bc2e813f5, 2020-09-07)">
  <metadata
     id="metadata253993">
    <rdf:RDF>
      <cc:Work
         rdf:about="">
        <dc:format>image/svg+xml</dc:format>
        <dc:type
           rdf:resource="http://purl.org/dc/dcmitype/StillImage" />
        <dc:title></dc:title>
      </cc:Work>
    </rdf:RDF>
  </metadata>
  <defs
     id="defs253991" />
  <sodipodi:namedview
     pagecolor="#ffffff"
     bordercolor="#666666"
     borderopacity="1"
     objecttolerance="10"
     gridtolerance="10"
     guidetolerance="10"
     inkscape:pageopacity="0"
     inkscape:pageshadow="2"
     inkscape:window-width="1920"
     inkscape:window-height="1027"
     id="namedview253989"
     showgrid="false"
     inkscape:zoom="0.70710678"
     inkscape:cx="759.94715"
     inkscape:cy="254.29547"
     inkscape:window-x="1912"
     inkscape:window-y="-8"
     inkscape:window-maximized="1"
     inkscape:current-layer="svg253987" />
  <polygon
     points="443.627,5.001 443.783,5.007 443.939,5.025 444.093,5.056 444.245,5.098 444.392,5.153 444.534,5.218 444.671,5.295 444.802,5.382 444.925,5.480 445.041,5.586 445.147,5.702 445.245,5.825 445.332,5.956 445.409,6.093 445.474,6.235 445.529,6.382 445.571,6.534 445.602,6.688 445.620,6.844 445.627,7.001 445.627,155.364 445.620,155.521 445.602,155.677 445.571,155.831 445.529,155.982 445.474,156.129 445.409,156.272 445.332,156.409 445.245,156.540 445.147,156.663 445.041,156.778 444.925,156.885 444.802,156.982 444.671,157.069 444.534,157.146 444.392,157.212 444.245,157.266 444.093,157.309 443.939,157.339 443.783,157.358 443.627,157.364 7.001,157.364 6.844,157.358 6.688,157.339 6.534,157.309 6.382,157.266 6.235,157.212 6.093,157.146 5.956,157.069 5.825,156.982 5.702,156.885 5.586,156.778 5.480,156.663 5.382,156.540 5.295,156.409 5.218,156.272 5.153,156.129 5.098,155.982 5.056,155.831 5.025,155.677 5.007,155.521 5.000,155.364 5.001,7.001 5.007,6.844 5.025,6.688 5.056,6.534 5.098,6.382 5.153,6.235 5.218,6.093 5.295,5.956 5.382,5.825 5.480,5.702 5.586,5.586 5.702,5.480 5.825,5.382 5.956,5.295 6.093,5.218 6.235,5.153 6.382,5.098 6.534,5.056 6.688,5.025 6.844,5.007 7.001,5.000"
     style="fill:none;stroke-width:0.050000mm;stroke:black"
     id="polygon253751" />
  <polygon
     points="7.506,152.842 7.060,153.070 6.706,153.424 6.479,153.870 6.400,154.364 6.479,154.858 6.706,155.304 7.060,155.658 7.506,155.886 8.001,155.964 8.495,155.886 8.941,155.658 9.295,155.304 9.522,154.858 9.601,154.364 9.522,153.870 9.295,153.424 8.941,153.070 8.495,152.842 8.001,152.764"
     style="fill:none;stroke-width:0.050000mm;stroke:black"
     id="polygon253753" />
  <polygon
     points="224.819,152.842 224.373,153.070 224.019,153.424 223.792,153.870 223.714,154.364 223.792,154.858 224.019,155.304 224.373,155.658 224.819,155.886 225.314,155.964 225.808,155.886 226.254,155.658 226.608,155.304 226.835,154.858 226.914,154.364 226.835,153.870 226.608,153.424 226.254,153.070 225.808,152.842 225.314,152.764"
     style="fill:none;stroke-width:0.050000mm;stroke:black"
     id="polygon253755" />
  <polygon
     points="442.132,152.842 441.686,153.070 441.332,153.424 441.105,153.870 441.027,154.364 441.105,154.858 441.332,155.304 441.686,155.658 442.132,155.886 442.627,155.964 443.121,155.886 443.567,155.658 443.921,155.304 444.148,154.858 444.227,154.364 444.148,153.870 443.921,153.424 443.567,153.070 443.121,152.842 442.627,152.764"
     style="fill:none;stroke-width:0.050000mm;stroke:black"
     id="polygon253757" />
  <polygon
     points="375.476,132.838 375.476,133.838 374.676,133.838 374.676,136.938 375.476,136.938 375.476,137.538 373.951,137.538 373.951,134.308 367.201,134.308 367.201,137.538 366.376,137.538 366.376,140.338 367.201,140.338 367.201,146.608 368.926,146.608 368.926,147.808 372.226,147.808 372.226,146.608 373.951,146.608 373.951,142.138 375.476,142.138 375.476,142.738 374.676,142.738 374.676,145.838 375.476,145.838 375.476,146.838 389.476,146.838 389.476,145.838 390.276,145.838 390.276,142.738 389.476,142.738 389.476,142.138 391.001,142.138 391.001,146.608 392.726,146.608 392.726,147.808 396.026,147.808 396.026,146.608 397.751,146.608 397.751,140.338 398.576,140.338 398.576,137.538 397.751,137.538 397.751,134.308 391.001,134.308 391.001,137.538 389.476,137.538 389.476,136.938 390.276,136.938 390.276,133.838 389.476,133.838 389.476,132.838"
     style="fill:none;stroke-width:0.050000mm;stroke:black"
     id="polygon253759" />
  <polygon
     points="134.969,132.838 134.969,133.838 134.169,133.838 134.169,136.938 134.969,136.938 134.969,137.538 95.344,137.538 95.344,134.308 88.594,134.308 88.594,137.538 87.769,137.538 87.769,140.338 88.594,140.338 88.594,146.608 90.319,146.608 90.319,147.808 93.619,147.808 93.619,146.608 95.344,146.608 95.344,142.138 134.969,142.138 134.969,142.738 134.169,142.738 134.169,145.838 134.969,145.838 134.969,146.838 148.969,146.838 148.969,145.838 149.769,145.838 149.769,142.738 148.969,142.738 148.969,142.138 188.594,142.138 188.594,146.608 190.319,146.608 190.319,147.808 193.619,147.808 193.619,146.608 195.344,146.608 195.344,140.338 196.169,140.338 196.169,137.538 195.344,137.538 195.344,134.308 188.594,134.308 188.594,137.538 148.969,137.538 148.969,136.938 149.769,136.938 149.769,133.838 148.969,133.838 148.969,132.838"
     style="fill:none;stroke-width:0.050000mm;stroke:black"
     id="polygon253761" />
  <polygon
     points="404.051,132.838 404.051,133.838 403.251,133.838 403.251,136.938 404.051,136.938 404.051,142.738 403.251,142.738 403.251,145.838 404.051,145.838 404.051,146.838 418.051,146.838 418.051,145.838 418.851,145.838 418.851,142.738 418.051,142.738 418.051,136.938 418.851,136.938 418.851,133.838 418.051,133.838 418.051,132.838"
     style="fill:none;stroke-width:0.050000mm;stroke:black"
     id="polygon253763" />
  <polygon
     points="342.138,132.838 342.138,133.838 341.338,133.838 341.338,136.938 342.138,136.938 342.138,142.738 341.338,142.738 341.338,145.838 342.138,145.838 342.138,146.838 356.138,146.838 356.138,145.838 356.938,145.838 356.938,142.738 356.138,142.738 356.138,136.938 356.938,136.938 356.938,133.838 356.138,133.838 356.138,132.838"
     style="fill:none;stroke-width:0.050000mm;stroke:black"
     id="polygon253765" />
  <polygon
     points="323.088,132.838 323.088,133.838 322.288,133.838 322.288,136.938 323.088,136.938 323.088,142.738 322.288,142.738 322.288,145.838 323.088,145.838 323.088,146.838 337.088,146.838 337.088,145.838 337.888,145.838 337.888,142.738 337.088,142.738 337.088,136.938 337.888,136.938 337.888,133.838 337.088,133.838 337.088,132.838"
     style="fill:none;stroke-width:0.050000mm;stroke:black"
     id="polygon253767" />
  <polygon
     points="304.038,132.838 304.038,133.838 303.238,133.838 303.238,136.938 304.038,136.938 304.038,142.738 303.238,142.738 303.238,145.838 304.038,145.838 304.038,146.838 318.038,146.838 318.038,145.838 318.838,145.838 318.838,142.738 318.038,142.738 318.038,136.938 318.838,136.938 318.838,133.838 318.038,133.838 318.038,132.838"
     style="fill:none;stroke-width:0.050000mm;stroke:black"
     id="polygon253769" />
  <polygon
     points="277.844,132.838 277.844,133.838 277.044,133.838 277.044,136.938 277.844,136.938 277.844,142.738 277.044,142.738 277.044,145.838 277.844,145.838 277.844,146.838 291.844,146.838 291.844,145.838 292.644,145.838 292.644,142.738 291.844,142.738 291.844,136.938 292.644,136.938 292.644,133.838 291.844,133.838 291.844,132.838"
     style="fill:none;stroke-width:0.050000mm;stroke:black"
     id="polygon253771" />
  <polygon
     points="254.032,132.838 254.032,133.838 253.232,133.838 253.232,136.938 254.032,136.938 254.032,142.738 253.232,142.738 253.232,145.838 254.032,145.838 254.032,146.838 268.032,146.838 268.032,145.838 268.832,145.838 268.832,142.738 268.032,142.738 268.032,136.938 268.832,136.938 268.832,133.838 268.032,133.838 268.032,132.838"
     style="fill:none;stroke-width:0.050000mm;stroke:black"
     id="polygon253773" />
  <polygon
     points="230.219,132.838 230.219,133.838 229.419,133.838 229.419,136.938 230.219,136.938 230.219,142.738 229.419,142.738 229.419,145.838 230.219,145.838 230.219,146.838 244.219,146.838 244.219,145.838 245.019,145.838 245.019,142.738 244.219,142.738 244.219,136.938 245.019,136.938 245.019,133.838 244.219,133.838 244.219,132.838"
     style="fill:none;stroke-width:0.050000mm;stroke:black"
     id="polygon253775" />
  <polygon
     points="206.407,132.838 206.407,133.838 205.607,133.838 205.607,136.938 206.407,136.938 206.407,142.738 205.607,142.738 205.607,145.838 206.407,145.838 206.407,146.838 220.407,146.838 220.407,145.838 221.207,145.838 221.207,142.738 220.407,142.738 220.407,136.938 221.207,136.938 221.207,133.838 220.407,133.838 220.407,132.838"
     style="fill:none;stroke-width:0.050000mm;stroke:black"
     id="polygon253777" />
  <polygon
     points="63.532,132.838 63.532,133.838 62.732,133.838 62.732,136.938 63.532,136.938 63.532,142.738 62.732,142.738 62.732,145.838 63.532,145.838 63.532,146.838 77.532,146.838 77.532,145.838 78.332,145.838 78.332,142.738 77.532,142.738 77.532,136.938 78.332,136.938 78.332,133.838 77.532,133.838 77.532,132.838"
     style="fill:none;stroke-width:0.050000mm;stroke:black"
     id="polygon253779" />
  <polygon
     points="39.719,132.838 39.719,133.838 38.919,133.838 38.919,136.938 39.719,136.938 39.719,142.738 38.919,142.738 38.919,145.838 39.719,145.838 39.719,146.838 53.719,146.838 53.719,145.838 54.519,145.838 54.519,142.738 53.719,142.738 53.719,136.938 54.519,136.938 54.519,133.838 53.719,133.838 53.719,132.838"
     style="fill:none;stroke-width:0.050000mm;stroke:black"
     id="polygon253781" />
  <polygon
     points="15.907,132.838 15.907,133.838 15.107,133.838 15.107,136.938 15.907,136.938 15.907,142.738 15.107,142.738 15.107,145.838 15.907,145.838 15.907,146.838 29.907,146.838 29.907,145.838 30.707,145.838 30.707,142.738 29.907,142.738 29.907,136.938 30.707,136.938 30.707,133.838 29.907,133.838 29.907,132.838"
     style="fill:none;stroke-width:0.050000mm;stroke:black"
     id="polygon253783" />
  <polygon
     points="429.601,114.213 429.601,115.038 423.331,115.038 423.331,116.763 422.131,116.763 422.131,120.063 423.331,120.063 423.331,121.788 427.801,121.788 427.801,123.313 427.201,123.313 427.201,122.513 424.101,122.513 424.101,123.313 423.101,123.313 423.101,137.313 424.101,137.313 424.101,138.113 427.201,138.113 427.201,137.313 427.801,137.313 427.801,138.838 423.331,138.838 423.331,140.563 422.131,140.563 422.131,143.863 423.331,143.863 423.331,145.588 429.601,145.588 429.601,146.413 432.401,146.413 432.401,145.588 435.631,145.588 435.631,138.838 432.401,138.838 432.401,137.313 433.001,137.313 433.001,138.113 436.101,138.113 436.101,137.313 437.101,137.313 437.101,123.313 436.101,123.313 436.101,122.513 433.001,122.513 433.001,123.313 432.401,123.313 432.401,121.788 435.631,121.788 435.631,115.038 432.401,115.038 432.401,114.213"
     style="fill:none;stroke-width:0.050000mm;stroke:black"
     id="polygon253785" />
  <polygon
     points="263.557,113.788 263.557,114.788 262.757,114.788 262.757,117.888 263.557,117.888 263.557,118.488 262.032,118.488 262.032,115.258 255.282,115.258 255.282,118.488 254.457,118.488 254.457,121.288 255.282,121.288 255.282,127.558 257.006,127.558 257.006,128.758 260.306,128.758 260.306,127.558 262.032,127.558 262.032,123.088 263.557,123.088 263.557,123.688 262.757,123.688 262.757,126.788 263.557,126.788 263.557,127.788 277.557,127.788 277.557,126.788 278.357,126.788 278.357,123.688 277.557,123.688 277.557,123.088 279.082,123.088 279.082,127.558 280.807,127.558 280.807,128.758 284.107,128.758 284.107,127.558 285.832,127.558 285.832,121.288 286.657,121.288 286.657,118.488 285.832,118.488 285.832,115.258 279.082,115.258 279.082,118.488 277.557,118.488 277.557,117.888 278.357,117.888 278.357,114.788 277.557,114.788 277.557,113.788"
     style="fill:none;stroke-width:0.050000mm;stroke:black"
     id="polygon253787" />
  <polygon
     points="25.432,113.788 25.432,114.788 24.632,114.788 24.632,117.888 25.432,117.888 25.432,118.488 23.907,118.488 23.907,115.258 17.157,115.258 17.157,118.488 16.332,118.488 16.332,121.288 17.157,121.288 17.157,127.558 18.882,127.558 18.882,128.758 22.182,128.758 22.182,127.558 23.907,127.558 23.907,123.088 25.432,123.088 25.432,123.688 24.632,123.688 24.632,126.788 25.432,126.788 25.432,127.788 39.432,127.788 39.432,126.788 40.232,126.788 40.232,123.688 39.432,123.688 39.432,123.088 40.957,123.088 40.957,127.558 42.682,127.558 42.682,128.758 45.982,128.758 45.982,127.558 47.707,127.558 47.707,121.288 48.532,121.288 48.532,118.488 47.707,118.488 47.707,115.258 40.957,115.258 40.957,118.488 39.432,118.488 39.432,117.888 40.232,117.888 40.232,114.788 39.432,114.788 39.432,113.788"
     style="fill:none;stroke-width:0.050000mm;stroke:black"
     id="polygon253789" />
  <polygon
     points="404.051,113.788 404.051,114.788 403.251,114.788 403.251,117.888 404.051,117.888 404.051,123.688 403.251,123.688 403.251,126.788 404.051,126.788 404.051,127.788 418.051,127.788 418.051,126.788 418.851,126.788 418.851,123.688 418.051,123.688 418.051,117.888 418.851,117.888 418.851,114.788 418.051,114.788 418.051,113.788"
     style="fill:none;stroke-width:0.050000mm;stroke:black"
     id="polygon253791" />
  <polygon
     points="385.001,113.788 385.001,114.788 384.201,114.788 384.201,117.888 385.001,117.888 385.001,123.688 384.201,123.688 384.201,126.788 385.001,126.788 385.001,127.788 399.001,127.788 399.001,126.788 399.801,126.788 399.801,123.688 399.001,123.688 399.001,117.888 399.801,117.888 399.801,114.788 399.001,114.788 399.001,113.788"
     style="fill:none;stroke-width:0.050000mm;stroke:black"
     id="polygon253793" />
  <polygon
     points="365.951,113.788 365.951,114.788 365.151,114.788 365.151,117.888 365.951,117.888 365.951,123.688 365.151,123.688 365.151,126.788 365.951,126.788 365.951,127.788 379.951,127.788 379.951,126.788 380.751,126.788 380.751,123.688 379.951,123.688 379.951,117.888 380.751,117.888 380.751,114.788 379.951,114.788 379.951,113.788"
     style="fill:none;stroke-width:0.050000mm;stroke:black"
     id="polygon253795" />
  <polygon
     points="323.088,113.788 323.088,114.788 322.288,114.788 322.288,117.888 323.088,117.888 323.088,123.688 322.288,123.688 322.288,126.788 323.088,126.788 323.088,127.788 337.088,127.788 337.088,126.788 337.888,126.788 337.888,123.688 337.088,123.688 337.088,117.888 337.888,117.888 337.888,114.788 337.088,114.788 337.088,113.788"
     style="fill:none;stroke-width:0.050000mm;stroke:black"
     id="polygon253797" />
  <polygon
     points="227.838,113.788 227.838,114.788 227.038,114.788 227.038,117.888 227.838,117.888 227.838,123.688 227.038,123.688 227.038,126.788 227.838,126.788 227.838,127.788 241.838,127.788 241.838,126.788 242.638,126.788 242.638,123.688 241.838,123.688 241.838,117.888 242.638,117.888 242.638,114.788 241.838,114.788 241.838,113.788"
     style="fill:none;stroke-width:0.050000mm;stroke:black"
     id="polygon253799" />
  <polygon
     points="208.788,113.788 208.788,114.788 207.988,114.788 207.988,117.888 208.788,117.888 208.788,123.688 207.988,123.688 207.988,126.788 208.788,126.788 208.788,127.788 222.788,127.788 222.788,126.788 223.588,126.788 223.588,123.688 222.788,123.688 222.788,117.888 223.588,117.888 223.588,114.788 222.788,114.788 222.788,113.788"
     style="fill:none;stroke-width:0.050000mm;stroke:black"
     id="polygon253801" />
  <polygon
     points="189.738,113.788 189.738,114.788 188.938,114.788 188.938,117.888 189.738,117.888 189.738,123.688 188.938,123.688 188.938,126.788 189.738,126.788 189.738,127.788 203.738,127.788 203.738,126.788 204.538,126.788 204.538,123.688 203.738,123.688 203.738,117.888 204.538,117.888 204.538,114.788 203.738,114.788 203.738,113.788"
     style="fill:none;stroke-width:0.050000mm;stroke:black"
     id="polygon253803" />
  <polygon
     points="170.688,113.788 170.688,114.788 169.888,114.788 169.888,117.888 170.688,117.888 170.688,123.688 169.888,123.688 169.888,126.788 170.688,126.788 170.688,127.788 184.688,127.788 184.688,126.788 185.488,126.788 185.488,123.688 184.688,123.688 184.688,117.888 185.488,117.888 185.488,114.788 184.688,114.788 184.688,113.788"
     style="fill:none;stroke-width:0.050000mm;stroke:black"
     id="polygon253805" />
  <polygon
     points="151.638,113.788 151.638,114.788 150.838,114.788 150.838,117.888 151.638,117.888 151.638,123.688 150.838,123.688 150.838,126.788 151.638,126.788 151.638,127.788 165.638,127.788 165.638,126.788 166.438,126.788 166.438,123.688 165.638,123.688 165.638,117.888 166.438,117.888 166.438,114.788 165.638,114.788 165.638,113.788"
     style="fill:none;stroke-width:0.050000mm;stroke:black"
     id="polygon253807" />
  <polygon
     points="132.588,113.788 132.588,114.788 131.788,114.788 131.788,117.888 132.588,117.888 132.588,123.688 131.788,123.688 131.788,126.788 132.588,126.788 132.588,127.788 146.588,127.788 146.588,126.788 147.388,126.788 147.388,123.688 146.588,123.688 146.588,117.888 147.388,117.888 147.388,114.788 146.588,114.788 146.588,113.788"
     style="fill:none;stroke-width:0.050000mm;stroke:black"
     id="polygon253809" />
  <polygon
     points="113.538,113.788 113.538,114.788 112.738,114.788 112.738,117.888 113.538,117.888 113.538,123.688 112.738,123.688 112.738,126.788 113.538,126.788 113.538,127.788 127.538,127.788 127.538,126.788 128.337,126.788 128.337,123.688 127.538,123.688 127.538,117.888 128.337,117.888 128.337,114.788 127.538,114.788 127.538,113.788"
     style="fill:none;stroke-width:0.050000mm;stroke:black"
     id="polygon253811" />
  <polygon
     points="94.488,113.788 94.488,114.788 93.688,114.788 93.688,117.888 94.488,117.888 94.488,123.688 93.688,123.688 93.688,126.788 94.488,126.788 94.488,127.788 108.488,127.788 108.488,126.788 109.288,126.788 109.288,123.688 108.488,123.688 108.488,117.888 109.288,117.888 109.288,114.788 108.488,114.788 108.488,113.788"
     style="fill:none;stroke-width:0.050000mm;stroke:black"
     id="polygon253813" />
  <polygon
     points="75.438,113.788 75.438,114.788 74.638,114.788 74.638,117.888 75.438,117.888 75.438,123.688 74.638,123.688 74.638,126.788 75.438,126.788 75.438,127.788 89.438,127.788 89.438,126.788 90.238,126.788 90.238,123.688 89.438,123.688 89.438,117.888 90.238,117.888 90.238,114.788 89.438,114.788 89.438,113.788"
     style="fill:none;stroke-width:0.050000mm;stroke:black"
     id="polygon253815" />
  <polygon
     points="56.388,113.788 56.388,114.788 55.588,114.788 55.588,117.888 56.388,117.888 56.388,123.688 55.588,123.688 55.588,126.788 56.388,126.788 56.388,127.788 70.388,127.788 70.388,126.788 71.188,126.788 71.188,123.688 70.388,123.688 70.388,117.888 71.188,117.888 71.188,114.788 70.388,114.788 70.388,113.788"
     style="fill:none;stroke-width:0.050000mm;stroke:black"
     id="polygon253817" />
  <polygon
     points="268.319,94.738 268.319,95.738 267.519,95.738 267.519,98.838 268.319,98.838 268.319,99.438 266.794,99.438 266.794,96.208 260.044,96.208 260.044,99.438 259.219,99.438 259.219,102.238 260.044,102.238 260.044,108.508 261.768,108.508 261.768,109.708 265.069,109.708 265.069,108.508 266.794,108.508 266.794,104.038 268.319,104.038 268.319,104.638 267.519,104.638 267.519,107.738 268.319,107.738 268.319,108.738 282.319,108.738 282.319,107.738 283.119,107.738 283.119,104.638 282.319,104.638 282.319,104.038 283.844,104.038 283.844,108.508 285.569,108.508 285.569,109.708 288.869,109.708 288.869,108.508 290.594,108.508 290.594,102.238 291.419,102.238 291.419,99.438 290.594,99.438 290.594,96.208 283.844,96.208 283.844,99.438 282.319,99.438 282.319,98.838 283.119,98.838 283.119,95.738 282.319,95.738 282.319,94.738"
     style="fill:none;stroke-width:0.050000mm;stroke:black"
     id="polygon253819" />
  <polygon
     points="404.051,94.738 404.051,95.738 403.251,95.738 403.251,98.838 404.051,98.838 404.051,104.638 403.251,104.638 403.251,107.738 404.051,107.738 404.051,108.738 418.051,108.738 418.051,107.738 418.851,107.738 418.851,104.638 418.051,104.638 418.051,98.838 418.851,98.838 418.851,95.738 418.051,95.738 418.051,94.738"
     style="fill:none;stroke-width:0.050000mm;stroke:black"
     id="polygon253821" />
  <polygon
     points="385.001,94.738 385.001,95.738 384.201,95.738 384.201,98.838 385.001,98.838 385.001,104.638 384.201,104.638 384.201,107.738 385.001,107.738 385.001,108.738 399.001,108.738 399.001,107.738 399.801,107.738 399.801,104.638 399.001,104.638 399.001,98.838 399.801,98.838 399.801,95.738 399.001,95.738 399.001,94.738"
     style="fill:none;stroke-width:0.050000mm;stroke:black"
     id="polygon253823" />
  <polygon
     points="365.951,94.738 365.951,95.738 365.151,95.738 365.151,98.838 365.951,98.838 365.951,104.638 365.151,104.638 365.151,107.738 365.951,107.738 365.951,108.738 379.951,108.738 379.951,107.738 380.751,107.738 380.751,104.638 379.951,104.638 379.951,98.838 380.751,98.838 380.751,95.738 379.951,95.738 379.951,94.738"
     style="fill:none;stroke-width:0.050000mm;stroke:black"
     id="polygon253825" />
  <polygon
     points="237.363,94.738 237.363,95.738 236.563,95.738 236.563,98.838 237.363,98.838 237.363,104.638 236.563,104.638 236.563,107.738 237.363,107.738 237.363,108.738 251.363,108.738 251.363,107.738 252.163,107.738 252.163,104.638 251.363,104.638 251.363,98.838 252.163,98.838 252.163,95.738 251.363,95.738 251.363,94.738"
     style="fill:none;stroke-width:0.050000mm;stroke:black"
     id="polygon253827" />
  <polygon
     points="218.313,94.738 218.313,95.738 217.513,95.738 217.513,98.838 218.313,98.838 218.313,104.638 217.513,104.638 217.513,107.738 218.313,107.738 218.313,108.738 232.313,108.738 232.313,107.738 233.113,107.738 233.113,104.638 232.313,104.638 232.313,98.838 233.113,98.838 233.113,95.738 232.313,95.738 232.313,94.738"
     style="fill:none;stroke-width:0.050000mm;stroke:black"
     id="polygon253829" />
  <polygon
     points="199.263,94.738 199.263,95.738 198.463,95.738 198.463,98.838 199.263,98.838 199.263,104.638 198.463,104.638 198.463,107.738 199.263,107.738 199.263,108.738 213.263,108.738 213.263,107.738 214.063,107.738 214.063,104.638 213.263,104.638 213.263,98.838 214.063,98.838 214.063,95.738 213.263,95.738 213.263,94.738"
     style="fill:none;stroke-width:0.050000mm;stroke:black"
     id="polygon253831" />
  <polygon
     points="180.213,94.738 180.213,95.738 179.413,95.738 179.413,98.838 180.213,98.838 180.213,104.638 179.413,104.638 179.413,107.738 180.213,107.738 180.213,108.738 194.213,108.738 194.213,107.738 195.013,107.738 195.013,104.638 194.213,104.638 194.213,98.838 195.013,98.838 195.013,95.738 194.213,95.738 194.213,94.738"
     style="fill:none;stroke-width:0.050000mm;stroke:black"
     id="polygon253833" />
  <polygon
     points="161.163,94.738 161.163,95.738 160.363,95.738 160.363,98.838 161.163,98.838 161.163,104.638 160.363,104.638 160.363,107.738 161.163,107.738 161.163,108.738 175.163,108.738 175.163,107.738 175.963,107.738 175.963,104.638 175.163,104.638 175.163,98.838 175.963,98.838 175.963,95.738 175.163,95.738 175.163,94.738"
     style="fill:none;stroke-width:0.050000mm;stroke:black"
     id="polygon253835" />
  <polygon
     points="142.113,94.738 142.113,95.738 141.313,95.738 141.313,98.838 142.113,98.838 142.113,104.638 141.313,104.638 141.313,107.738 142.113,107.738 142.113,108.738 156.113,108.738 156.113,107.738 156.913,107.738 156.913,104.638 156.113,104.638 156.113,98.838 156.913,98.838 156.913,95.738 156.113,95.738 156.113,94.738"
     style="fill:none;stroke-width:0.050000mm;stroke:black"
     id="polygon253837" />
  <polygon
     points="123.063,94.738 123.063,95.738 122.263,95.738 122.263,98.838 123.063,98.838 123.063,104.638 122.263,104.638 122.263,107.738 123.063,107.738 123.063,108.738 137.063,108.738 137.063,107.738 137.863,107.738 137.863,104.638 137.063,104.638 137.063,98.838 137.863,98.838 137.863,95.738 137.063,95.738 137.063,94.738"
     style="fill:none;stroke-width:0.050000mm;stroke:black"
     id="polygon253839" />
  <polygon
     points="104.013,94.738 104.013,95.738 103.213,95.738 103.213,98.838 104.013,98.838 104.013,104.638 103.213,104.638 103.213,107.738 104.013,107.738 104.013,108.738 118.013,108.738 118.013,107.738 118.813,107.738 118.813,104.638 118.013,104.638 118.013,98.838 118.813,98.838 118.813,95.738 118.013,95.738 118.013,94.738"
     style="fill:none;stroke-width:0.050000mm;stroke:black"
     id="polygon253841" />
  <polygon
     points="84.963,94.738 84.963,95.738 84.163,95.738 84.163,98.838 84.963,98.838 84.963,104.638 84.163,104.638 84.163,107.738 84.963,107.738 84.963,108.738 98.963,108.738 98.963,107.738 99.763,107.738 99.763,104.638 98.963,104.638 98.963,98.838 99.763,98.838 99.763,95.738 98.963,95.738 98.963,94.738"
     style="fill:none;stroke-width:0.050000mm;stroke:black"
     id="polygon253843" />
  <polygon
     points="65.913,94.738 65.913,95.738 65.112,95.738 65.112,98.838 65.913,98.838 65.913,104.638 65.112,104.638 65.112,107.738 65.913,107.738 65.913,108.738 79.913,108.738 79.913,107.738 80.713,107.738 80.713,104.638 79.913,104.638 79.913,98.838 80.713,98.838 80.713,95.738 79.913,95.738 79.913,94.738"
     style="fill:none;stroke-width:0.050000mm;stroke:black"
     id="polygon253845" />
  <polygon
     points="46.863,94.738 46.863,95.738 46.063,95.738 46.063,98.838 46.863,98.838 46.863,104.638 46.063,104.638 46.063,107.738 46.863,107.738 46.863,108.738 60.863,108.738 60.863,107.738 61.663,107.738 61.663,104.638 60.863,104.638 60.863,98.838 61.663,98.838 61.663,95.738 60.863,95.738 60.863,94.738"
     style="fill:none;stroke-width:0.050000mm;stroke:black"
     id="polygon253847" />
  <polygon
     points="20.669,94.738 20.669,95.738 19.869,95.738 19.869,98.838 20.669,98.838 20.669,104.638 19.869,104.638 19.869,107.738 20.669,107.738 20.669,108.738 34.669,108.738 34.669,107.738 35.469,107.738 35.469,104.638 34.669,104.638 34.669,98.838 35.469,98.838 35.469,95.738 34.669,95.738 34.669,94.738"
     style="fill:none;stroke-width:0.050000mm;stroke:black"
     id="polygon253849" />
  <polygon
     points="429.601,76.113 429.601,76.938 423.331,76.938 423.331,78.663 422.131,78.663 422.131,81.963 423.331,81.963 423.331,83.688 427.801,83.688 427.801,85.213 427.201,85.213 427.201,84.413 424.101,84.413 424.101,85.213 423.101,85.213 423.101,99.213 424.101,99.213 424.101,100.013 427.201,100.013 427.201,99.213 427.801,99.213 427.801,100.738 423.331,100.738 423.331,102.463 422.131,102.463 422.131,105.763 423.331,105.763 423.331,107.488 429.601,107.488 429.601,108.313 432.401,108.313 432.401,107.488 435.631,107.488 435.631,100.738 432.401,100.738 432.401,99.213 433.001,99.213 433.001,100.013 436.101,100.013 436.101,99.213 437.101,99.213 437.101,85.213 436.101,85.213 436.101,84.413 433.001,84.413 433.001,85.213 432.401,85.213 432.401,83.688 435.631,83.688 435.631,76.938 432.401,76.938 432.401,76.113"
     style="fill:none;stroke-width:0.050000mm;stroke:black"
     id="polygon253851" />
  <polygon
     points="404.051,75.688 404.051,76.688 403.251,76.688 403.251,79.788 404.051,79.788 404.051,85.588 403.251,85.588 403.251,88.688 404.051,88.688 404.051,89.688 418.051,89.688 418.051,88.688 418.851,88.688 418.851,85.588 418.051,85.588 418.051,79.788 418.851,79.788 418.851,76.688 418.051,76.688 418.051,75.688"
     style="fill:none;stroke-width:0.050000mm;stroke:black"
     id="polygon253853" />
  <polygon
     points="385.001,75.688 385.001,76.688 384.201,76.688 384.201,79.788 385.001,79.788 385.001,85.588 384.201,85.588 384.201,88.688 385.001,88.688 385.001,89.688 399.001,89.688 399.001,88.688 399.801,88.688 399.801,85.588 399.001,85.588 399.001,79.788 399.801,79.788 399.801,76.688 399.001,76.688 399.001,75.688"
     style="fill:none;stroke-width:0.050000mm;stroke:black"
     id="polygon253855" />
  <polygon
     points="365.951,75.688 365.951,76.688 365.151,76.688 365.151,79.788 365.951,79.788 365.951,85.588 365.151,85.588 365.151,88.688 365.951,88.688 365.951,89.688 379.951,89.688 379.951,88.688 380.751,88.688 380.751,85.588 379.951,85.588 379.951,79.788 380.751,79.788 380.751,76.688 379.951,76.688 379.951,75.688"
     style="fill:none;stroke-width:0.050000mm;stroke:black"
     id="polygon253857" />
  <polygon
     points="342.138,75.688 342.138,76.688 341.338,76.688 341.338,79.788 342.138,79.788 342.138,85.588 341.338,85.588 341.338,88.688 342.138,88.688 342.138,89.688 356.138,89.688 356.138,88.688 356.938,88.688 356.938,85.588 356.138,85.588 356.138,79.788 356.938,79.788 356.938,76.688 356.138,76.688 356.138,75.688"
     style="fill:none;stroke-width:0.050000mm;stroke:black"
     id="polygon253859" />
  <polygon
     points="323.088,75.688 323.088,76.688 322.288,76.688 322.288,79.788 323.088,79.788 323.088,85.588 322.288,85.588 322.288,88.688 323.088,88.688 323.088,89.688 337.088,89.688 337.088,88.688 337.888,88.688 337.888,85.588 337.088,85.588 337.088,79.788 337.888,79.788 337.888,76.688 337.088,76.688 337.088,75.688"
     style="fill:none;stroke-width:0.050000mm;stroke:black"
     id="polygon253861" />
  <polygon
     points="304.038,75.688 304.038,76.688 303.238,76.688 303.238,79.788 304.038,79.788 304.038,85.588 303.238,85.588 303.238,88.688 304.038,88.688 304.038,89.688 318.038,89.688 318.038,88.688 318.838,88.688 318.838,85.588 318.038,85.588 318.038,79.788 318.838,79.788 318.838,76.688 318.038,76.688 318.038,75.688"
     style="fill:none;stroke-width:0.050000mm;stroke:black"
     id="polygon253863" />
  <polygon
     points="275.463,75.688 275.463,76.688 274.663,76.688 274.663,79.788 275.463,79.788 275.463,85.588 274.663,85.588 274.663,88.688 275.463,88.688 275.463,89.688 289.463,89.688 289.463,88.688 290.263,88.688 290.263,85.588 289.463,85.588 289.463,79.788 290.263,79.788 290.263,76.688 289.463,76.688 289.463,75.688"
     style="fill:none;stroke-width:0.050000mm;stroke:black"
     id="polygon253865" />
  <polygon
     points="251.651,75.688 251.651,76.688 250.851,76.688 250.851,79.788 251.651,79.788 251.651,85.588 250.851,85.588 250.851,88.688 251.651,88.688 251.651,89.688 265.651,89.688 265.651,88.688 266.451,88.688 266.451,85.588 265.651,85.588 265.651,79.788 266.451,79.788 266.451,76.688 265.651,76.688 265.651,75.688"
     style="fill:none;stroke-width:0.050000mm;stroke:black"
     id="polygon253867" />
  <polygon
     points="232.601,75.688 232.601,76.688 231.801,76.688 231.801,79.788 232.601,79.788 232.601,85.588 231.801,85.588 231.801,88.688 232.601,88.688 232.601,89.688 246.601,89.688 246.601,88.688 247.401,88.688 247.401,85.588 246.601,85.588 246.601,79.788 247.401,79.788 247.401,76.688 246.601,76.688 246.601,75.688"
     style="fill:none;stroke-width:0.050000mm;stroke:black"
     id="polygon253869" />
  <polygon
     points="213.551,75.688 213.551,76.688 212.751,76.688 212.751,79.788 213.551,79.788 213.551,85.588 212.751,85.588 212.751,88.688 213.551,88.688 213.551,89.688 227.551,89.688 227.551,88.688 228.351,88.688 228.351,85.588 227.551,85.588 227.551,79.788 228.351,79.788 228.351,76.688 227.551,76.688 227.551,75.688"
     style="fill:none;stroke-width:0.050000mm;stroke:black"
     id="polygon253871" />
  <polygon
     points="194.501,75.688 194.501,76.688 193.701,76.688 193.701,79.788 194.501,79.788 194.501,85.588 193.701,85.588 193.701,88.688 194.501,88.688 194.501,89.688 208.501,89.688 208.501,88.688 209.301,88.688 209.301,85.588 208.501,85.588 208.501,79.788 209.301,79.788 209.301,76.688 208.501,76.688 208.501,75.688"
     style="fill:none;stroke-width:0.050000mm;stroke:black"
     id="polygon253873" />
  <polygon
     points="175.451,75.688 175.451,76.688 174.651,76.688 174.651,79.788 175.451,79.788 175.451,85.588 174.651,85.588 174.651,88.688 175.451,88.688 175.451,89.688 189.451,89.688 189.451,88.688 190.251,88.688 190.251,85.588 189.451,85.588 189.451,79.788 190.251,79.788 190.251,76.688 189.451,76.688 189.451,75.688"
     style="fill:none;stroke-width:0.050000mm;stroke:black"
     id="polygon253875" />
  <polygon
     points="156.401,75.688 156.401,76.688 155.601,76.688 155.601,79.788 156.401,79.788 156.401,85.588 155.601,85.588 155.601,88.688 156.401,88.688 156.401,89.688 170.401,89.688 170.401,88.688 171.201,88.688 171.201,85.588 170.401,85.588 170.401,79.788 171.201,79.788 171.201,76.688 170.401,76.688 170.401,75.688"
     style="fill:none;stroke-width:0.050000mm;stroke:black"
     id="polygon253877" />
  <polygon
     points="137.351,75.688 137.351,76.688 136.550,76.688 136.550,79.788 137.351,79.788 137.351,85.588 136.550,85.588 136.550,88.688 137.351,88.688 137.351,89.688 151.351,89.688 151.351,88.688 152.151,88.688 152.151,85.588 151.351,85.588 151.351,79.788 152.151,79.788 152.151,76.688 151.351,76.688 151.351,75.688"
     style="fill:none;stroke-width:0.050000mm;stroke:black"
     id="polygon253879" />
  <polygon
     points="118.301,75.688 118.301,76.688 117.501,76.688 117.501,79.788 118.301,79.788 118.301,85.588 117.501,85.588 117.501,88.688 118.301,88.688 118.301,89.688 132.301,89.688 132.301,88.688 133.101,88.688 133.101,85.588 132.301,85.588 132.301,79.788 133.101,79.788 133.101,76.688 132.301,76.688 132.301,75.688"
     style="fill:none;stroke-width:0.050000mm;stroke:black"
     id="polygon253881" />
  <polygon
     points="99.251,75.688 99.251,76.688 98.451,76.688 98.451,79.788 99.251,79.788 99.251,85.588 98.451,85.588 98.451,88.688 99.251,88.688 99.251,89.688 113.251,89.688 113.251,88.688 114.051,88.688 114.051,85.588 113.251,85.588 113.251,79.788 114.051,79.788 114.051,76.688 113.251,76.688 113.251,75.688"
     style="fill:none;stroke-width:0.050000mm;stroke:black"
     id="polygon253883" />
  <polygon
     points="80.201,75.688 80.201,76.688 79.401,76.688 79.401,79.788 80.201,79.788 80.201,85.588 79.401,85.588 79.401,88.688 80.201,88.688 80.201,89.688 94.201,89.688 94.201,88.688 95.001,88.688 95.001,85.588 94.201,85.588 94.201,79.788 95.001,79.788 95.001,76.688 94.201,76.688 94.201,75.688"
     style="fill:none;stroke-width:0.050000mm;stroke:black"
     id="polygon253885" />
  <polygon
     points="61.151,75.688 61.151,76.688 60.351,76.688 60.351,79.788 61.151,79.788 61.151,85.588 60.351,85.588 60.351,88.688 61.151,88.688 61.151,89.688 75.151,89.688 75.151,88.688 75.951,88.688 75.951,85.588 75.151,85.588 75.151,79.788 75.951,79.788 75.951,76.688 75.151,76.688 75.151,75.688"
     style="fill:none;stroke-width:0.050000mm;stroke:black"
     id="polygon253887" />
  <polygon
     points="42.101,75.688 42.101,76.688 41.301,76.688 41.301,79.788 42.101,79.788 42.101,85.588 41.301,85.588 41.301,88.688 42.101,88.688 42.101,89.688 56.101,89.688 56.101,88.688 56.901,88.688 56.901,85.588 56.101,85.588 56.101,79.788 56.901,79.788 56.901,76.688 56.101,76.688 56.101,75.688"
     style="fill:none;stroke-width:0.050000mm;stroke:black"
     id="polygon253889" />
  <polygon
     points="18.288,75.688 18.288,76.688 17.488,76.688 17.488,79.788 18.288,79.788 18.288,85.588 17.488,85.588 17.488,88.688 18.288,88.688 18.288,89.688 32.288,89.688 32.288,88.688 33.088,88.688 33.088,85.588 32.288,85.588 32.288,79.788 33.088,79.788 33.088,76.688 32.288,76.688 32.288,75.688"
     style="fill:none;stroke-width:0.050000mm;stroke:black"
     id="polygon253891" />
  <polygon
     points="270.701,56.638 270.701,57.638 269.901,57.638 269.901,60.738 270.701,60.738 270.701,61.338 269.176,61.338 269.176,58.108 262.426,58.108 262.426,61.338 261.601,61.338 261.601,64.138 262.426,64.138 262.426,70.408 264.151,70.408 264.151,71.608 267.451,71.608 267.451,70.408 269.176,70.408 269.176,65.938 270.701,65.938 270.701,66.538 269.901,66.538 269.901,69.638 270.701,69.638 270.701,70.638 284.701,70.638 284.701,69.638 285.501,69.638 285.501,66.538 284.701,66.538 284.701,65.938 286.226,65.938 286.226,70.408 287.951,70.408 287.951,71.608 291.251,71.608 291.251,70.408 292.976,70.408 292.976,64.138 293.801,64.138 293.801,61.338 292.976,61.338 292.976,58.108 286.226,58.108 286.226,61.338 284.701,61.338 284.701,60.738 285.501,60.738 285.501,57.638 284.701,57.638 284.701,56.638"
     style="fill:none;stroke-width:0.050000mm;stroke:black"
     id="polygon253893" />
  <polygon
     points="423.101,56.638 423.101,57.638 422.301,57.638 422.301,60.738 423.101,60.738 423.101,66.538 422.301,66.538 422.301,69.638 423.101,69.638 423.101,70.638 437.101,70.638 437.101,69.638 437.901,69.638 437.901,66.538 437.101,66.538 437.101,60.738 437.901,60.738 437.901,57.638 437.101,57.638 437.101,56.638"
     style="fill:none;stroke-width:0.050000mm;stroke:black"
     id="polygon253895" />
  <polygon
     points="404.051,56.638 404.051,57.638 403.251,57.638 403.251,60.738 404.051,60.738 404.051,66.538 403.251,66.538 403.251,69.638 404.051,69.638 404.051,70.638 418.051,70.638 418.051,69.638 418.851,69.638 418.851,66.538 418.051,66.538 418.051,60.738 418.851,60.738 418.851,57.638 418.051,57.638 418.051,56.638"
     style="fill:none;stroke-width:0.050000mm;stroke:black"
     id="polygon253897" />
  <polygon
     points="385.001,56.638 385.001,57.638 384.201,57.638 384.201,60.738 385.001,60.738 385.001,66.538 384.201,66.538 384.201,69.638 385.001,69.638 385.001,70.638 399.001,70.638 399.001,69.638 399.801,69.638 399.801,66.538 399.001,66.538 399.001,60.738 399.801,60.738 399.801,57.638 399.001,57.638 399.001,56.638"
     style="fill:none;stroke-width:0.050000mm;stroke:black"
     id="polygon253899" />
  <polygon
     points="365.951,56.638 365.951,57.638 365.151,57.638 365.151,60.738 365.951,60.738 365.951,66.538 365.151,66.538 365.151,69.638 365.951,69.638 365.951,70.638 379.951,70.638 379.951,69.638 380.751,69.638 380.751,66.538 379.951,66.538 379.951,60.738 380.751,60.738 380.751,57.638 379.951,57.638 379.951,56.638"
     style="fill:none;stroke-width:0.050000mm;stroke:black"
     id="polygon253901" />
  <polygon
     points="342.138,56.638 342.138,57.638 341.338,57.638 341.338,60.738 342.138,60.738 342.138,66.538 341.338,66.538 341.338,69.638 342.138,69.638 342.138,70.638 356.138,70.638 356.138,69.638 356.938,69.638 356.938,66.538 356.138,66.538 356.138,60.738 356.938,60.738 356.938,57.638 356.138,57.638 356.138,56.638"
     style="fill:none;stroke-width:0.050000mm;stroke:black"
     id="polygon253903" />
  <polygon
     points="323.088,56.638 323.088,57.638 322.288,57.638 322.288,60.738 323.088,60.738 323.088,66.538 322.288,66.538 322.288,69.638 323.088,69.638 323.088,70.638 337.088,70.638 337.088,69.638 337.888,69.638 337.888,66.538 337.088,66.538 337.088,60.738 337.888,60.738 337.888,57.638 337.088,57.638 337.088,56.638"
     style="fill:none;stroke-width:0.050000mm;stroke:black"
     id="polygon253905" />
  <polygon
     points="304.038,56.638 304.038,57.638 303.238,57.638 303.238,60.738 304.038,60.738 304.038,66.538 303.238,66.538 303.238,69.638 304.038,69.638 304.038,70.638 318.038,70.638 318.038,69.638 318.838,69.638 318.838,66.538 318.038,66.538 318.038,60.738 318.838,60.738 318.838,57.638 318.038,57.638 318.038,56.638"
     style="fill:none;stroke-width:0.050000mm;stroke:black"
     id="polygon253907" />
  <polygon
     points="242.126,56.638 242.126,57.638 241.326,57.638 241.326,60.738 242.126,60.738 242.126,66.538 241.326,66.538 241.326,69.638 242.126,69.638 242.126,70.638 256.126,70.638 256.126,69.638 256.926,69.638 256.926,66.538 256.126,66.538 256.126,60.738 256.926,60.738 256.926,57.638 256.126,57.638 256.126,56.638"
     style="fill:none;stroke-width:0.050000mm;stroke:black"
     id="polygon253909" />
  <polygon
     points="223.076,56.638 223.076,57.638 222.276,57.638 222.276,60.738 223.076,60.738 223.076,66.538 222.276,66.538 222.276,69.638 223.076,69.638 223.076,70.638 237.076,70.638 237.076,69.638 237.876,69.638 237.876,66.538 237.076,66.538 237.076,60.738 237.876,60.738 237.876,57.638 237.076,57.638 237.076,56.638"
     style="fill:none;stroke-width:0.050000mm;stroke:black"
     id="polygon253911" />
  <polygon
     points="204.026,56.638 204.026,57.638 203.226,57.638 203.226,60.738 204.026,60.738 204.026,66.538 203.226,66.538 203.226,69.638 204.026,69.638 204.026,70.638 218.026,70.638 218.026,69.638 218.826,69.638 218.826,66.538 218.026,66.538 218.026,60.738 218.826,60.738 218.826,57.638 218.026,57.638 218.026,56.638"
     style="fill:none;stroke-width:0.050000mm;stroke:black"
     id="polygon253913" />
  <polygon
     points="184.976,56.638 184.976,57.638 184.176,57.638 184.176,60.738 184.976,60.738 184.976,66.538 184.176,66.538 184.176,69.638 184.976,69.638 184.976,70.638 198.976,70.638 198.976,69.638 199.776,69.638 199.776,66.538 198.976,66.538 198.976,60.738 199.776,60.738 199.776,57.638 198.976,57.638 198.976,56.638"
     style="fill:none;stroke-width:0.050000mm;stroke:black"
     id="polygon253915" />
  <polygon
     points="165.926,56.638 165.926,57.638 165.126,57.638 165.126,60.738 165.926,60.738 165.926,66.538 165.126,66.538 165.126,69.638 165.926,69.638 165.926,70.638 179.926,70.638 179.926,69.638 180.726,69.638 180.726,66.538 179.926,66.538 179.926,60.738 180.726,60.738 180.726,57.638 179.926,57.638 179.926,56.638"
     style="fill:none;stroke-width:0.050000mm;stroke:black"
     id="polygon253917" />
  <polygon
     points="146.876,56.638 146.876,57.638 146.076,57.638 146.076,60.738 146.876,60.738 146.876,66.538 146.076,66.538 146.076,69.638 146.876,69.638 146.876,70.638 160.876,70.638 160.876,69.638 161.676,69.638 161.676,66.538 160.876,66.538 160.876,60.738 161.676,60.738 161.676,57.638 160.876,57.638 160.876,56.638"
     style="fill:none;stroke-width:0.050000mm;stroke:black"
     id="polygon253919" />
  <polygon
     points="127.825,56.638 127.825,57.638 127.025,57.638 127.025,60.738 127.825,60.738 127.825,66.538 127.025,66.538 127.025,69.638 127.825,69.638 127.825,70.638 141.826,70.638 141.826,69.638 142.626,69.638 142.626,66.538 141.826,66.538 141.826,60.738 142.626,60.738 142.626,57.638 141.826,57.638 141.826,56.638"
     style="fill:none;stroke-width:0.050000mm;stroke:black"
     id="polygon253921" />
  <polygon
     points="108.775,56.638 108.775,57.638 107.976,57.638 107.976,60.738 108.775,60.738 108.775,66.538 107.976,66.538 107.976,69.638 108.775,69.638 108.775,70.638 122.775,70.638 122.775,69.638 123.575,69.638 123.575,66.538 122.775,66.538 122.775,60.738 123.575,60.738 123.575,57.638 122.775,57.638 122.775,56.638"
     style="fill:none;stroke-width:0.050000mm;stroke:black"
     id="polygon253923" />
  <polygon
     points="89.726,56.638 89.726,57.638 88.926,57.638 88.926,60.738 89.726,60.738 89.726,66.538 88.926,66.538 88.926,69.638 89.726,69.638 89.726,70.638 103.726,70.638 103.726,69.638 104.525,69.638 104.525,66.538 103.726,66.538 103.726,60.738 104.525,60.738 104.525,57.638 103.726,57.638 103.726,56.638"
     style="fill:none;stroke-width:0.050000mm;stroke:black"
     id="polygon253925" />
  <polygon
     points="70.676,56.638 70.676,57.638 69.876,57.638 69.876,60.738 70.676,60.738 70.676,66.538 69.876,66.538 69.876,69.638 70.676,69.638 70.676,70.638 84.676,70.638 84.676,69.638 85.476,69.638 85.476,66.538 84.676,66.538 84.676,60.738 85.476,60.738 85.476,57.638 84.676,57.638 84.676,56.638"
     style="fill:none;stroke-width:0.050000mm;stroke:black"
     id="polygon253927" />
  <polygon
     points="51.626,56.638 51.626,57.638 50.826,57.638 50.826,60.738 51.626,60.738 51.626,66.538 50.826,66.538 50.826,69.638 51.626,69.638 51.626,70.638 65.626,70.638 65.626,69.638 66.426,69.638 66.426,66.538 65.626,66.538 65.626,60.738 66.426,60.738 66.426,57.638 65.626,57.638 65.626,56.638"
     style="fill:none;stroke-width:0.050000mm;stroke:black"
     id="polygon253929" />
  <polygon
     points="32.576,56.638 32.576,57.638 31.776,57.638 31.776,60.738 32.576,60.738 32.576,66.538 31.776,66.538 31.776,69.638 32.576,69.638 32.576,70.638 46.576,70.638 46.576,69.638 47.376,69.638 47.376,66.538 46.576,66.538 46.576,60.738 47.376,60.738 47.376,57.638 46.576,57.638 46.576,56.638"
     style="fill:none;stroke-width:0.050000mm;stroke:black"
     id="polygon253931" />
  <polygon
     points="13.525,56.638 13.525,57.638 12.725,57.638 12.725,60.738 13.525,60.738 13.525,66.538 12.725,66.538 12.725,69.638 13.525,69.638 13.525,70.638 27.526,70.638 27.526,69.638 28.326,69.638 28.326,66.538 27.526,66.538 27.526,60.738 28.326,60.738 28.326,57.638 27.526,57.638 27.526,56.638"
     style="fill:none;stroke-width:0.050000mm;stroke:black"
     id="polygon253933" />
  <polygon
     points="342.138,32.826 342.138,33.826 341.338,33.826 341.338,36.926 342.138,36.926 342.138,42.726 341.338,42.726 341.338,45.826 342.138,45.826 342.138,46.826 356.138,46.826 356.138,45.826 356.938,45.826 356.938,42.726 356.138,42.726 356.138,36.926 356.938,36.926 356.938,33.826 356.138,33.826 356.138,32.826"
     style="fill:none;stroke-width:0.050000mm;stroke:black"
     id="polygon253935" />
  <polygon
     points="323.088,32.826 323.088,33.826 322.288,33.826 322.288,36.926 323.088,36.926 323.088,42.726 322.288,42.726 322.288,45.826 323.088,45.826 323.088,46.826 337.088,46.826 337.088,45.826 337.888,45.826 337.888,42.726 337.088,42.726 337.088,36.926 337.888,36.926 337.888,33.826 337.088,33.826 337.088,32.826"
     style="fill:none;stroke-width:0.050000mm;stroke:black"
     id="polygon253937" />
  <polygon
     points="304.038,32.826 304.038,33.826 303.238,33.826 303.238,36.926 304.038,36.926 304.038,42.726 303.238,42.726 303.238,45.826 304.038,45.826 304.038,46.826 318.038,46.826 318.038,45.826 318.838,45.826 318.838,42.726 318.038,42.726 318.038,36.926 318.838,36.926 318.838,33.826 318.038,33.826 318.038,32.826"
     style="fill:none;stroke-width:0.050000mm;stroke:black"
     id="polygon253939" />
  <polygon
     points="280.226,32.826 280.226,33.826 279.426,33.826 279.426,36.926 280.226,36.926 280.226,42.726 279.426,42.726 279.426,45.826 280.226,45.826 280.226,46.826 294.226,46.826 294.226,45.826 295.026,45.826 295.026,42.726 294.226,42.726 294.226,36.926 295.026,36.926 295.026,33.826 294.226,33.826 294.226,32.826"
     style="fill:none;stroke-width:0.050000mm;stroke:black"
     id="polygon253941" />
  <polygon
     points="261.176,32.826 261.176,33.826 260.376,33.826 260.376,36.926 261.176,36.926 261.176,42.726 260.376,42.726 260.376,45.826 261.176,45.826 261.176,46.826 275.176,46.826 275.176,45.826 275.976,45.826 275.976,42.726 275.176,42.726 275.176,36.926 275.976,36.926 275.976,33.826 275.176,33.826 275.176,32.826"
     style="fill:none;stroke-width:0.050000mm;stroke:black"
     id="polygon253943" />
  <polygon
     points="242.126,32.826 242.126,33.826 241.326,33.826 241.326,36.926 242.126,36.926 242.126,42.726 241.326,42.726 241.326,45.826 242.126,45.826 242.126,46.826 256.126,46.826 256.126,45.826 256.926,45.826 256.926,42.726 256.126,42.726 256.126,36.926 256.926,36.926 256.926,33.826 256.126,33.826 256.126,32.826"
     style="fill:none;stroke-width:0.050000mm;stroke:black"
     id="polygon253945" />
  <polygon
     points="223.076,32.826 223.076,33.826 222.276,33.826 222.276,36.926 223.076,36.926 223.076,42.726 222.276,42.726 222.276,45.826 223.076,45.826 223.076,46.826 237.076,46.826 237.076,45.826 237.876,45.826 237.876,42.726 237.076,42.726 237.076,36.926 237.876,36.926 237.876,33.826 237.076,33.826 237.076,32.826"
     style="fill:none;stroke-width:0.050000mm;stroke:black"
     id="polygon253947" />
  <polygon
     points="194.501,32.826 194.501,33.826 193.701,33.826 193.701,36.926 194.501,36.926 194.501,42.726 193.701,42.726 193.701,45.826 194.501,45.826 194.501,46.826 208.501,46.826 208.501,45.826 209.301,45.826 209.301,42.726 208.501,42.726 208.501,36.926 209.301,36.926 209.301,33.826 208.501,33.826 208.501,32.826"
     style="fill:none;stroke-width:0.050000mm;stroke:black"
     id="polygon253949" />
  <polygon
     points="175.451,32.826 175.451,33.826 174.651,33.826 174.651,36.926 175.451,36.926 175.451,42.726 174.651,42.726 174.651,45.826 175.451,45.826 175.451,46.826 189.451,46.826 189.451,45.826 190.251,45.826 190.251,42.726 189.451,42.726 189.451,36.926 190.251,36.926 190.251,33.826 189.451,33.826 189.451,32.826"
     style="fill:none;stroke-width:0.050000mm;stroke:black"
     id="polygon253951" />
  <polygon
     points="156.401,32.826 156.401,33.826 155.601,33.826 155.601,36.926 156.401,36.926 156.401,42.726 155.601,42.726 155.601,45.826 156.401,45.826 156.401,46.826 170.401,46.826 170.401,45.826 171.201,45.826 171.201,42.726 170.401,42.726 170.401,36.926 171.201,36.926 171.201,33.826 170.401,33.826 170.401,32.826"
     style="fill:none;stroke-width:0.050000mm;stroke:black"
     id="polygon253953" />
  <polygon
     points="137.351,32.826 137.351,33.826 136.550,33.826 136.550,36.926 137.351,36.926 137.351,42.726 136.550,42.726 136.550,45.826 137.351,45.826 137.351,46.826 151.351,46.826 151.351,45.826 152.151,45.826 152.151,42.726 151.351,42.726 151.351,36.926 152.151,36.926 152.151,33.826 151.351,33.826 151.351,32.826"
     style="fill:none;stroke-width:0.050000mm;stroke:black"
     id="polygon253955" />
  <polygon
     points="108.775,32.826 108.775,33.826 107.976,33.826 107.976,36.926 108.775,36.926 108.775,42.726 107.976,42.726 107.976,45.826 108.775,45.826 108.775,46.826 122.775,46.826 122.775,45.826 123.575,45.826 123.575,42.726 122.775,42.726 122.775,36.926 123.575,36.926 123.575,33.826 122.775,33.826 122.775,32.826"
     style="fill:none;stroke-width:0.050000mm;stroke:black"
     id="polygon253957" />
  <polygon
     points="89.726,32.826 89.726,33.826 88.926,33.826 88.926,36.926 89.726,36.926 89.726,42.726 88.926,42.726 88.926,45.826 89.726,45.826 89.726,46.826 103.726,46.826 103.726,45.826 104.525,45.826 104.525,42.726 103.726,42.726 103.726,36.926 104.525,36.926 104.525,33.826 103.726,33.826 103.726,32.826"
     style="fill:none;stroke-width:0.050000mm;stroke:black"
     id="polygon253959" />
  <polygon
     points="70.676,32.826 70.676,33.826 69.876,33.826 69.876,36.926 70.676,36.926 70.676,42.726 69.876,42.726 69.876,45.826 70.676,45.826 70.676,46.826 84.676,46.826 84.676,45.826 85.476,45.826 85.476,42.726 84.676,42.726 84.676,36.926 85.476,36.926 85.476,33.826 84.676,33.826 84.676,32.826"
     style="fill:none;stroke-width:0.050000mm;stroke:black"
     id="polygon253961" />
  <polygon
     points="51.626,32.826 51.626,33.826 50.826,33.826 50.826,36.926 51.626,36.926 51.626,42.726 50.826,42.726 50.826,45.826 51.626,45.826 51.626,46.826 65.626,46.826 65.626,45.826 66.426,45.826 66.426,42.726 65.626,42.726 65.626,36.926 66.426,36.926 66.426,33.826 65.626,33.826 65.626,32.826"
     style="fill:none;stroke-width:0.050000mm;stroke:black"
     id="polygon253963" />
  <polygon
     points="13.525,32.826 13.525,33.826 12.725,33.826 12.725,36.926 13.525,36.926 13.525,42.726 12.725,42.726 12.725,45.826 13.525,45.826 13.525,46.826 27.526,46.826 27.526,45.826 28.326,45.826 28.326,42.726 27.526,42.726 27.526,36.926 28.326,36.926 28.326,33.826 27.526,33.826 27.526,32.826"
     style="fill:none;stroke-width:0.050000mm;stroke:black"
     id="polygon253965" />
  <polygon
     points="342.138,13.775 342.138,14.775 341.338,14.775 341.338,17.876 342.138,17.876 342.138,23.675 341.338,23.675 341.338,26.776 342.138,26.776 342.138,27.776 356.138,27.776 356.138,26.776 356.938,26.776 356.938,23.675 356.138,23.675 356.138,17.876 356.938,17.876 356.938,14.775 356.138,14.775 356.138,13.775"
     style="fill:none;stroke-width:0.050000mm;stroke:black"
     id="polygon253967" />
  <polygon
     points="323.088,13.775 323.088,14.775 322.288,14.775 322.288,17.876 323.088,17.876 323.088,23.675 322.288,23.675 322.288,26.776 323.088,26.776 323.088,27.776 337.088,27.776 337.088,26.776 337.888,26.776 337.888,23.675 337.088,23.675 337.088,17.876 337.888,17.876 337.888,14.775 337.088,14.775 337.088,13.775"
     style="fill:none;stroke-width:0.050000mm;stroke:black"
     id="polygon253969" />
  <polygon
     points="304.038,13.775 304.038,14.775 303.238,14.775 303.238,17.876 304.038,17.876 304.038,23.675 303.238,23.675 303.238,26.776 304.038,26.776 304.038,27.776 318.038,27.776 318.038,26.776 318.838,26.776 318.838,23.675 318.038,23.675 318.038,17.876 318.838,17.876 318.838,14.775 318.038,14.775 318.038,13.775"
     style="fill:none;stroke-width:0.050000mm;stroke:black"
     id="polygon253971" />
  <polygon
     points="108.775,13.775 108.775,14.775 107.976,14.775 107.976,17.876 108.775,17.876 108.775,23.675 107.976,23.675 107.976,26.776 108.775,26.776 108.775,27.776 122.775,27.776 122.775,26.776 123.575,26.776 123.575,23.675 122.775,23.675 122.775,17.876 123.575,17.876 123.575,14.775 122.775,14.775 122.775,13.775"
     style="fill:none;stroke-width:0.050000mm;stroke:black"
     id="polygon253973" />
  <polygon
     points="89.726,13.775 89.726,14.775 88.926,14.775 88.926,17.876 89.726,17.876 89.726,23.675 88.926,23.675 88.926,26.776 89.726,26.776 89.726,27.776 103.726,27.776 103.726,26.776 104.525,26.776 104.525,23.675 103.726,23.675 103.726,17.876 104.525,17.876 104.525,14.775 103.726,14.775 103.726,13.775"
     style="fill:none;stroke-width:0.050000mm;stroke:black"
     id="polygon253975" />
  <polygon
     points="70.676,13.775 70.676,14.775 69.876,14.775 69.876,17.876 70.676,17.876 70.676,23.675 69.876,23.675 69.876,26.776 70.676,26.776 70.676,27.776 84.676,27.776 84.676,26.776 85.476,26.776 85.476,23.675 84.676,23.675 84.676,17.876 85.476,17.876 85.476,14.775 84.676,14.775 84.676,13.775"
     style="fill:none;stroke-width:0.050000mm;stroke:black"
     id="polygon253977" />
  <polygon
     points="51.626,13.775 51.626,14.775 50.826,14.775 50.826,17.876 51.626,17.876 51.626,23.675 50.826,23.675 50.826,26.776 51.626,26.776 51.626,27.776 65.626,27.776 65.626,26.776 66.426,26.776 66.426,23.675 65.626,23.675 65.626,17.876 66.426,17.876 66.426,14.775 65.626,14.775 65.626,13.775"
     style="fill:none;stroke-width:0.050000mm;stroke:black"
     id="polygon253979" />
  <polygon
     points="7.506,6.479 7.060,6.706 6.706,7.060 6.479,7.506 6.400,8.001 6.479,8.495 6.706,8.941 7.060,9.295 7.506,9.522 8.001,9.601 8.495,9.522 8.941,9.295 9.295,8.941 9.522,8.495 9.601,8.001 9.522,7.506 9.295,7.060 8.941,6.706 8.495,6.479 8.001,6.401"
     style="fill:none;stroke-width:0.050000mm;stroke:black"
     id="polygon253981" />
  <polygon
     points="442.132,6.479 441.686,6.706 441.332,7.060 441.105,7.506 441.027,8.001 441.105,8.495 441.332,8.941 441.686,9.295 442.132,9.522 442.627,9.601 443.121,9.522 443.567,9.295 443.921,8.941 444.148,8.495 444.227,8.001 444.148,7.506 443.921,7.060 443.567,6.706 443.121,6.479 442.627,6.401"
     style="fill:none;stroke-width:0.050000mm;stroke:black"
     id="polygon253983" />
  <polygon
     points="224.819,6.479 224.373,6.706 224.019,7.060 223.792,7.506 223.714,8.001 223.792,8.495 224.019,8.941 224.373,9.295 224.819,9.522 225.314,9.601 225.808,9.522 226.254,9.295 226.608,8.941 226.835,8.495 226.914,8.001 226.835,7.506 226.608,7.060 226.254,6.706 225.808,6.479 225.314,6.401"
     style="fill:none;stroke-width:0.050000mm;stroke:black"
     id="polygon253985" />
  <rect
     style="opacity:0.997;fill:none;stroke:#000000;stroke-width:0.1889125;stroke-miterlimit:4;stroke-dasharray:none"
     id="rect275211"
     width="21.828125"
     height="4.5640626"
     x="390.59116"
     y="40.811981" />
</svg>
