<?xml version="1.0" encoding="UTF-8" standalone="no"?>
<svg
   xmlns:dc="http://purl.org/dc/elements/1.1/"
   xmlns:cc="http://creativecommons.org/ns#"
   xmlns:rdf="http://www.w3.org/1999/02/22-rdf-syntax-ns#"
   xmlns:svg="http://www.w3.org/2000/svg"
   xmlns="http://www.w3.org/2000/svg"
   xmlns:sodipodi="http://sodipodi.sourceforge.net/DTD/sodipodi-0.dtd"
   xmlns:inkscape="http://www.inkscape.org/namespaces/inkscape"
   width="450.627mm"
   height="164.877mm"
   viewBox="0.000 0.000 450.627 164.877"
   version="1.1"
   id="svg1069"
   sodipodi:docname="board_switch_v2.svg"
   inkscape:version="1.0.1 (3bc2e813f5, 2020-09-07)">
  <metadata
     id="metadata1075">
    <rdf:RDF>
      <cc:Work
         rdf:about="">
        <dc:format>image/svg+xml</dc:format>
        <dc:type
           rdf:resource="http://purl.org/dc/dcmitype/StillImage" />
        <dc:title></dc:title>
      </cc:Work>
    </rdf:RDF>
  </metadata>
  <defs
     id="defs1073" />
  <sodipodi:namedview
     pagecolor="#ffffff"
     bordercolor="#666666"
     borderopacity="1"
     objecttolerance="10"
     gridtolerance="10"
     guidetolerance="10"
     inkscape:pageopacity="0"
     inkscape:pageshadow="2"
     inkscape:window-width="1920"
     inkscape:window-height="1027"
     id="namedview1071"
     showgrid="false"
     inkscape:zoom="3.1377021"
     inkscape:cx="1410.9421"
     inkscape:cy="152.35186"
     inkscape:window-x="1912"
     inkscape:window-y="-8"
     inkscape:window-maximized="1"
     inkscape:current-layer="svg1069" />
  <polygon
     points="443.627,5.001 443.783,5.007 443.939,5.025 444.093,5.056 444.245,5.098 444.392,5.153 444.534,5.218 444.671,5.295 444.802,5.382 444.925,5.480 445.041,5.586 445.147,5.702 445.245,5.825 445.332,5.956 445.409,6.093 445.474,6.235 445.529,6.382 445.571,6.534 445.602,6.688 445.620,6.844 445.627,7.001 445.627,157.877 445.620,158.033 445.602,158.189 445.571,158.343 445.529,158.495 445.474,158.642 445.409,158.784 445.332,158.921 445.245,159.052 445.147,159.175 445.041,159.291 444.925,159.397 444.802,159.495 444.671,159.582 444.534,159.659 444.392,159.724 444.245,159.779 444.093,159.821 443.939,159.852 443.783,159.870 443.627,159.877 7.001,159.877 6.844,159.870 6.688,159.852 6.534,159.821 6.382,159.779 6.235,159.724 6.093,159.659 5.956,159.582 5.825,159.495 5.702,159.397 5.586,159.291 5.480,159.175 5.382,159.052 5.295,158.921 5.218,158.784 5.153,158.642 5.098,158.495 5.056,158.343 5.025,158.189 5.007,158.033 5.000,157.876 5.001,7.001 5.007,6.844 5.025,6.688 5.056,6.534 5.098,6.382 5.153,6.235 5.218,6.093 5.295,5.956 5.382,5.825 5.480,5.702 5.586,5.586 5.702,5.480 5.825,5.382 5.956,5.295 6.093,5.218 6.235,5.153 6.382,5.098 6.534,5.056 6.688,5.025 6.844,5.007 7.001,5.000"
     style="fill:none;stroke-width:0.050000mm;stroke:black"
     id="polygon833" />
  <polygon
     points="7.506,155.355 7.060,155.582 6.706,155.936 6.479,156.382 6.400,156.877 6.479,157.371 6.706,157.817 7.060,158.171 7.506,158.398 8.001,158.477 8.495,158.398 8.941,158.171 9.295,157.817 9.522,157.371 9.601,156.877 9.522,156.382 9.295,155.936 8.941,155.582 8.495,155.355 8.001,155.277"
     style="fill:none;stroke-width:0.050000mm;stroke:black"
     id="polygon835" />
  <polygon
     points="224.819,155.355 224.373,155.582 224.019,155.936 223.792,156.382 223.714,156.877 223.792,157.371 224.019,157.817 224.373,158.171 224.819,158.398 225.314,158.477 225.808,158.398 226.254,158.171 226.608,157.817 226.835,157.371 226.914,156.877 226.835,156.382 226.608,155.936 226.254,155.582 225.808,155.355 225.314,155.277"
     style="fill:none;stroke-width:0.050000mm;stroke:black"
     id="polygon837" />
  <polygon
     points="442.132,155.355 441.686,155.582 441.332,155.936 441.105,156.382 441.027,156.877 441.105,157.371 441.332,157.817 441.686,158.171 442.132,158.398 442.627,158.477 443.121,158.398 443.567,158.171 443.921,157.817 444.148,157.371 444.227,156.877 444.148,156.382 443.921,155.936 443.567,155.582 443.121,155.355 442.627,155.277"
     style="fill:none;stroke-width:0.050000mm;stroke:black"
     id="polygon839" />
  <polygon
     points="375.476,137.351 375.476,138.351 374.676,138.351 374.676,141.451 375.476,141.451 375.476,142.050 373.951,142.050 373.951,138.821 367.201,138.821 367.201,142.050 366.376,142.050 366.376,144.851 367.201,144.851 367.201,151.121 368.926,151.121 368.926,152.321 372.226,152.321 372.226,151.121 373.951,151.121 373.951,146.651 375.476,146.651 375.476,147.251 374.676,147.251 374.676,150.351 375.476,150.351 375.476,151.351 389.476,151.351 389.476,150.351 390.276,150.351 390.276,147.251 389.476,147.251 389.476,146.651 391.001,146.651 391.001,151.121 392.726,151.121 392.726,152.321 396.026,152.321 396.026,151.121 397.751,151.121 397.751,144.851 398.576,144.851 398.576,142.050 397.751,142.050 397.751,138.821 391.001,138.821 391.001,142.050 389.476,142.050 389.476,141.451 390.276,141.451 390.276,138.351 389.476,138.351 389.476,137.351"
     style="fill:none;stroke-width:0.050000mm;stroke:black"
     id="polygon841" />
  <polygon
     points="134.969,137.351 134.969,138.351 134.169,138.351 134.169,141.451 134.969,141.451 134.969,142.050 95.344,142.050 95.344,138.821 88.594,138.821 88.594,142.050 87.769,142.050 87.769,144.851 88.594,144.851 88.594,151.121 90.319,151.121 90.319,152.321 93.619,152.321 93.619,151.121 95.344,151.121 95.344,146.651 134.969,146.651 134.969,147.251 134.169,147.251 134.169,150.351 134.969,150.351 134.969,151.351 148.969,151.351 148.969,150.351 149.769,150.351 149.769,147.251 148.969,147.251 148.969,146.651 188.594,146.651 188.594,151.121 190.319,151.121 190.319,152.321 193.619,152.321 193.619,151.121 195.344,151.121 195.344,144.851 196.169,144.851 196.169,142.050 195.344,142.050 195.344,138.821 188.594,138.821 188.594,142.050 148.969,142.050 148.969,141.451 149.769,141.451 149.769,138.351 148.969,138.351 148.969,137.351"
     style="fill:none;stroke-width:0.050000mm;stroke:black"
     id="polygon843" />
  <polygon
     points="404.051,137.351 404.051,138.351 403.251,138.351 403.251,141.451 404.051,141.451 404.051,147.251 403.251,147.251 403.251,150.351 404.051,150.351 404.051,151.351 418.051,151.351 418.051,150.351 418.851,150.351 418.851,147.251 418.051,147.251 418.051,141.451 418.851,141.451 418.851,138.351 418.051,138.351 418.051,137.351"
     style="fill:none;stroke-width:0.050000mm;stroke:black"
     id="polygon845" />
  <polygon
     points="342.138,137.351 342.138,138.351 341.338,138.351 341.338,141.451 342.138,141.451 342.138,147.251 341.338,147.251 341.338,150.351 342.138,150.351 342.138,151.351 356.138,151.351 356.138,150.351 356.938,150.351 356.938,147.251 356.138,147.251 356.138,141.451 356.938,141.451 356.938,138.351 356.138,138.351 356.138,137.351"
     style="fill:none;stroke-width:0.050000mm;stroke:black"
     id="polygon847" />
  <polygon
     points="323.088,137.351 323.088,138.351 322.288,138.351 322.288,141.451 323.088,141.451 323.088,147.251 322.288,147.251 322.288,150.351 323.088,150.351 323.088,151.351 337.088,151.351 337.088,150.351 337.888,150.351 337.888,147.251 337.088,147.251 337.088,141.451 337.888,141.451 337.888,138.351 337.088,138.351 337.088,137.351"
     style="fill:none;stroke-width:0.050000mm;stroke:black"
     id="polygon849" />
  <polygon
     points="304.038,137.351 304.038,138.351 303.238,138.351 303.238,141.451 304.038,141.451 304.038,147.251 303.238,147.251 303.238,150.351 304.038,150.351 304.038,151.351 318.038,151.351 318.038,150.351 318.838,150.351 318.838,147.251 318.038,147.251 318.038,141.451 318.838,141.451 318.838,138.351 318.038,138.351 318.038,137.351"
     style="fill:none;stroke-width:0.050000mm;stroke:black"
     id="polygon851" />
  <polygon
     points="277.844,137.351 277.844,138.351 277.044,138.351 277.044,141.451 277.844,141.451 277.844,147.251 277.044,147.251 277.044,150.351 277.844,150.351 277.844,151.351 291.844,151.351 291.844,150.351 292.644,150.351 292.644,147.251 291.844,147.251 291.844,141.451 292.644,141.451 292.644,138.351 291.844,138.351 291.844,137.351"
     style="fill:none;stroke-width:0.050000mm;stroke:black"
     id="polygon853" />
  <polygon
     points="254.032,137.351 254.032,138.351 253.232,138.351 253.232,141.451 254.032,141.451 254.032,147.251 253.232,147.251 253.232,150.351 254.032,150.351 254.032,151.351 268.032,151.351 268.032,150.351 268.832,150.351 268.832,147.251 268.032,147.251 268.032,141.451 268.832,141.451 268.832,138.351 268.032,138.351 268.032,137.351"
     style="fill:none;stroke-width:0.050000mm;stroke:black"
     id="polygon855" />
  <polygon
     points="230.219,137.351 230.219,138.351 229.419,138.351 229.419,141.451 230.219,141.451 230.219,147.251 229.419,147.251 229.419,150.351 230.219,150.351 230.219,151.351 244.219,151.351 244.219,150.351 245.019,150.351 245.019,147.251 244.219,147.251 244.219,141.451 245.019,141.451 245.019,138.351 244.219,138.351 244.219,137.351"
     style="fill:none;stroke-width:0.050000mm;stroke:black"
     id="polygon857" />
  <polygon
     points="206.407,137.351 206.407,138.351 205.607,138.351 205.607,141.451 206.407,141.451 206.407,147.251 205.607,147.251 205.607,150.351 206.407,150.351 206.407,151.351 220.407,151.351 220.407,150.351 221.207,150.351 221.207,147.251 220.407,147.251 220.407,141.451 221.207,141.451 221.207,138.351 220.407,138.351 220.407,137.351"
     style="fill:none;stroke-width:0.050000mm;stroke:black"
     id="polygon859" />
  <polygon
     points="63.532,137.351 63.532,138.351 62.732,138.351 62.732,141.451 63.532,141.451 63.532,147.251 62.732,147.251 62.732,150.351 63.532,150.351 63.532,151.351 77.532,151.351 77.532,150.351 78.332,150.351 78.332,147.251 77.532,147.251 77.532,141.451 78.332,141.451 78.332,138.351 77.532,138.351 77.532,137.351"
     style="fill:none;stroke-width:0.050000mm;stroke:black"
     id="polygon861" />
  <polygon
     points="39.719,137.351 39.719,138.351 38.919,138.351 38.919,141.451 39.719,141.451 39.719,147.251 38.919,147.251 38.919,150.351 39.719,150.351 39.719,151.351 53.719,151.351 53.719,150.351 54.519,150.351 54.519,147.251 53.719,147.251 53.719,141.451 54.519,141.451 54.519,138.351 53.719,138.351 53.719,137.351"
     style="fill:none;stroke-width:0.050000mm;stroke:black"
     id="polygon863" />
  <polygon
     points="15.907,137.351 15.907,138.351 15.107,138.351 15.107,141.451 15.907,141.451 15.907,147.251 15.107,147.251 15.107,150.351 15.907,150.351 15.907,151.351 29.907,151.351 29.907,150.351 30.707,150.351 30.707,147.251 29.907,147.251 29.907,141.451 30.707,141.451 30.707,138.351 29.907,138.351 29.907,137.351"
     style="fill:none;stroke-width:0.050000mm;stroke:black"
     id="polygon865" />
  <polygon
     points="429.601,118.726 429.601,119.550 423.331,119.550 423.331,121.275 422.131,121.275 422.131,124.575 423.331,124.575 423.331,126.300 427.801,126.300 427.801,127.825 427.201,127.825 427.201,127.025 424.101,127.025 424.101,127.825 423.101,127.825 423.101,141.826 424.101,141.826 424.101,142.626 427.201,142.626 427.201,141.826 427.801,141.826 427.801,143.351 423.331,143.351 423.331,145.076 422.131,145.076 422.131,148.376 423.331,148.376 423.331,150.101 429.601,150.101 429.601,150.925 432.401,150.925 432.401,150.101 435.631,150.101 435.631,143.351 432.401,143.351 432.401,141.826 433.001,141.826 433.001,142.626 436.101,142.626 436.101,141.826 437.101,141.826 437.101,127.825 436.101,127.825 436.101,127.025 433.001,127.025 433.001,127.825 432.401,127.825 432.401,126.300 435.631,126.300 435.631,119.550 432.401,119.550 432.401,118.726"
     style="fill:none;stroke-width:0.050000mm;stroke:black"
     id="polygon867" />
  <polygon
     points="263.557,118.301 263.557,119.301 262.757,119.301 262.757,122.400 263.557,122.400 263.557,123.001 262.032,123.001 262.032,119.771 255.282,119.771 255.282,123.001 254.457,123.001 254.457,125.801 255.282,125.801 255.282,132.071 257.006,132.071 257.006,133.271 260.306,133.271 260.306,132.071 262.032,132.071 262.032,127.601 263.557,127.601 263.557,128.200 262.757,128.200 262.757,131.301 263.557,131.301 263.557,132.301 277.557,132.301 277.557,131.301 278.357,131.301 278.357,128.200 277.557,128.200 277.557,127.601 279.082,127.601 279.082,132.071 280.807,132.071 280.807,133.271 284.107,133.271 284.107,132.071 285.832,132.071 285.832,125.801 286.657,125.801 286.657,123.001 285.832,123.001 285.832,119.771 279.082,119.771 279.082,123.001 277.557,123.001 277.557,122.400 278.357,122.400 278.357,119.301 277.557,119.301 277.557,118.301"
     style="fill:none;stroke-width:0.050000mm;stroke:black"
     id="polygon869" />
  <polygon
     points="25.432,118.301 25.432,119.301 24.632,119.301 24.632,122.400 25.432,122.400 25.432,123.001 23.907,123.001 23.907,119.771 17.157,119.771 17.157,123.001 16.332,123.001 16.332,125.801 17.157,125.801 17.157,132.071 18.882,132.071 18.882,133.271 22.182,133.271 22.182,132.071 23.907,132.071 23.907,127.601 25.432,127.601 25.432,128.200 24.632,128.200 24.632,131.301 25.432,131.301 25.432,132.301 39.432,132.301 39.432,131.301 40.232,131.301 40.232,128.200 39.432,128.200 39.432,127.601 40.957,127.601 40.957,132.071 42.682,132.071 42.682,133.271 45.982,133.271 45.982,132.071 47.707,132.071 47.707,125.801 48.532,125.801 48.532,123.001 47.707,123.001 47.707,119.771 40.957,119.771 40.957,123.001 39.432,123.001 39.432,122.400 40.232,122.400 40.232,119.301 39.432,119.301 39.432,118.301"
     style="fill:none;stroke-width:0.050000mm;stroke:black"
     id="polygon871" />
  <polygon
     points="404.051,118.301 404.051,119.301 403.251,119.301 403.251,122.400 404.051,122.400 404.051,128.200 403.251,128.200 403.251,131.301 404.051,131.301 404.051,132.301 418.051,132.301 418.051,131.301 418.851,131.301 418.851,128.200 418.051,128.200 418.051,122.400 418.851,122.400 418.851,119.301 418.051,119.301 418.051,118.301"
     style="fill:none;stroke-width:0.050000mm;stroke:black"
     id="polygon873" />
  <polygon
     points="385.001,118.301 385.001,119.301 384.201,119.301 384.201,122.400 385.001,122.400 385.001,128.200 384.201,128.200 384.201,131.301 385.001,131.301 385.001,132.301 399.001,132.301 399.001,131.301 399.801,131.301 399.801,128.200 399.001,128.200 399.001,122.400 399.801,122.400 399.801,119.301 399.001,119.301 399.001,118.301"
     style="fill:none;stroke-width:0.050000mm;stroke:black"
     id="polygon875" />
  <polygon
     points="365.951,118.301 365.951,119.301 365.151,119.301 365.151,122.400 365.951,122.400 365.951,128.200 365.151,128.200 365.151,131.301 365.951,131.301 365.951,132.301 379.951,132.301 379.951,131.301 380.751,131.301 380.751,128.200 379.951,128.200 379.951,122.400 380.751,122.400 380.751,119.301 379.951,119.301 379.951,118.301"
     style="fill:none;stroke-width:0.050000mm;stroke:black"
     id="polygon877" />
  <polygon
     points="323.088,118.301 323.088,119.301 322.288,119.301 322.288,122.400 323.088,122.400 323.088,128.200 322.288,128.200 322.288,131.301 323.088,131.301 323.088,132.301 337.088,132.301 337.088,131.301 337.888,131.301 337.888,128.200 337.088,128.200 337.088,122.400 337.888,122.400 337.888,119.301 337.088,119.301 337.088,118.301"
     style="fill:none;stroke-width:0.050000mm;stroke:black"
     id="polygon879" />
  <polygon
     points="227.838,118.301 227.838,119.301 227.038,119.301 227.038,122.400 227.838,122.400 227.838,128.200 227.038,128.200 227.038,131.301 227.838,131.301 227.838,132.301 241.838,132.301 241.838,131.301 242.638,131.301 242.638,128.200 241.838,128.200 241.838,122.400 242.638,122.400 242.638,119.301 241.838,119.301 241.838,118.301"
     style="fill:none;stroke-width:0.050000mm;stroke:black"
     id="polygon881" />
  <polygon
     points="208.788,118.301 208.788,119.301 207.988,119.301 207.988,122.400 208.788,122.400 208.788,128.200 207.988,128.200 207.988,131.301 208.788,131.301 208.788,132.301 222.788,132.301 222.788,131.301 223.588,131.301 223.588,128.200 222.788,128.200 222.788,122.400 223.588,122.400 223.588,119.301 222.788,119.301 222.788,118.301"
     style="fill:none;stroke-width:0.050000mm;stroke:black"
     id="polygon883" />
  <polygon
     points="189.738,118.301 189.738,119.301 188.938,119.301 188.938,122.400 189.738,122.400 189.738,128.200 188.938,128.200 188.938,131.301 189.738,131.301 189.738,132.301 203.738,132.301 203.738,131.301 204.538,131.301 204.538,128.200 203.738,128.200 203.738,122.400 204.538,122.400 204.538,119.301 203.738,119.301 203.738,118.301"
     style="fill:none;stroke-width:0.050000mm;stroke:black"
     id="polygon885" />
  <polygon
     points="170.688,118.301 170.688,119.301 169.888,119.301 169.888,122.400 170.688,122.400 170.688,128.200 169.888,128.200 169.888,131.301 170.688,131.301 170.688,132.301 184.688,132.301 184.688,131.301 185.488,131.301 185.488,128.200 184.688,128.200 184.688,122.400 185.488,122.400 185.488,119.301 184.688,119.301 184.688,118.301"
     style="fill:none;stroke-width:0.050000mm;stroke:black"
     id="polygon887" />
  <polygon
     points="151.638,118.301 151.638,119.301 150.838,119.301 150.838,122.400 151.638,122.400 151.638,128.200 150.838,128.200 150.838,131.301 151.638,131.301 151.638,132.301 165.638,132.301 165.638,131.301 166.438,131.301 166.438,128.200 165.638,128.200 165.638,122.400 166.438,122.400 166.438,119.301 165.638,119.301 165.638,118.301"
     style="fill:none;stroke-width:0.050000mm;stroke:black"
     id="polygon889" />
  <polygon
     points="132.588,118.301 132.588,119.301 131.788,119.301 131.788,122.400 132.588,122.400 132.588,128.200 131.788,128.200 131.788,131.301 132.588,131.301 132.588,132.301 146.588,132.301 146.588,131.301 147.388,131.301 147.388,128.200 146.588,128.200 146.588,122.400 147.388,122.400 147.388,119.301 146.588,119.301 146.588,118.301"
     style="fill:none;stroke-width:0.050000mm;stroke:black"
     id="polygon891" />
  <polygon
     points="113.538,118.301 113.538,119.301 112.738,119.301 112.738,122.400 113.538,122.400 113.538,128.200 112.738,128.200 112.738,131.301 113.538,131.301 113.538,132.301 127.538,132.301 127.538,131.301 128.337,131.301 128.337,128.200 127.538,128.200 127.538,122.400 128.337,122.400 128.337,119.301 127.538,119.301 127.538,118.301"
     style="fill:none;stroke-width:0.050000mm;stroke:black"
     id="polygon893" />
  <polygon
     points="94.488,118.301 94.488,119.301 93.688,119.301 93.688,122.400 94.488,122.400 94.488,128.200 93.688,128.200 93.688,131.301 94.488,131.301 94.488,132.301 108.488,132.301 108.488,131.301 109.288,131.301 109.288,128.200 108.488,128.200 108.488,122.400 109.288,122.400 109.288,119.301 108.488,119.301 108.488,118.301"
     style="fill:none;stroke-width:0.050000mm;stroke:black"
     id="polygon895" />
  <polygon
     points="75.438,118.301 75.438,119.301 74.638,119.301 74.638,122.400 75.438,122.400 75.438,128.200 74.638,128.200 74.638,131.301 75.438,131.301 75.438,132.301 89.438,132.301 89.438,131.301 90.238,131.301 90.238,128.200 89.438,128.200 89.438,122.400 90.238,122.400 90.238,119.301 89.438,119.301 89.438,118.301"
     style="fill:none;stroke-width:0.050000mm;stroke:black"
     id="polygon897" />
  <polygon
     points="56.388,118.301 56.388,119.301 55.588,119.301 55.588,122.400 56.388,122.400 56.388,128.200 55.588,128.200 55.588,131.301 56.388,131.301 56.388,132.301 70.388,132.301 70.388,131.301 71.188,131.301 71.188,128.200 70.388,128.200 70.388,122.400 71.188,122.400 71.188,119.301 70.388,119.301 70.388,118.301"
     style="fill:none;stroke-width:0.050000mm;stroke:black"
     id="polygon899" />
  <polygon
     points="268.319,99.251 268.319,100.251 267.519,100.251 267.519,103.351 268.319,103.351 268.319,103.951 266.794,103.951 266.794,100.721 260.044,100.721 260.044,103.951 259.219,103.951 259.219,106.751 260.044,106.751 260.044,113.021 261.768,113.021 261.768,114.221 265.069,114.221 265.069,113.021 266.794,113.021 266.794,108.551 268.319,108.551 268.319,109.151 267.519,109.151 267.519,112.251 268.319,112.251 268.319,113.251 282.319,113.251 282.319,112.251 283.119,112.251 283.119,109.151 282.319,109.151 282.319,108.551 283.844,108.551 283.844,113.021 285.569,113.021 285.569,114.221 288.869,114.221 288.869,113.021 290.594,113.021 290.594,106.751 291.419,106.751 291.419,103.951 290.594,103.951 290.594,100.721 283.844,100.721 283.844,103.951 282.319,103.951 282.319,103.351 283.119,103.351 283.119,100.251 282.319,100.251 282.319,99.251"
     style="fill:none;stroke-width:0.050000mm;stroke:black"
     id="polygon901" />
  <polygon
     points="404.051,99.251 404.051,100.251 403.251,100.251 403.251,103.351 404.051,103.351 404.051,109.151 403.251,109.151 403.251,112.251 404.051,112.251 404.051,113.251 418.051,113.251 418.051,112.251 418.851,112.251 418.851,109.151 418.051,109.151 418.051,103.351 418.851,103.351 418.851,100.251 418.051,100.251 418.051,99.251"
     style="fill:none;stroke-width:0.050000mm;stroke:black"
     id="polygon903" />
  <polygon
     points="385.001,99.251 385.001,100.251 384.201,100.251 384.201,103.351 385.001,103.351 385.001,109.151 384.201,109.151 384.201,112.251 385.001,112.251 385.001,113.251 399.001,113.251 399.001,112.251 399.801,112.251 399.801,109.151 399.001,109.151 399.001,103.351 399.801,103.351 399.801,100.251 399.001,100.251 399.001,99.251"
     style="fill:none;stroke-width:0.050000mm;stroke:black"
     id="polygon905" />
  <polygon
     points="365.951,99.251 365.951,100.251 365.151,100.251 365.151,103.351 365.951,103.351 365.951,109.151 365.151,109.151 365.151,112.251 365.951,112.251 365.951,113.251 379.951,113.251 379.951,112.251 380.751,112.251 380.751,109.151 379.951,109.151 379.951,103.351 380.751,103.351 380.751,100.251 379.951,100.251 379.951,99.251"
     style="fill:none;stroke-width:0.050000mm;stroke:black"
     id="polygon907" />
  <polygon
     points="237.363,99.251 237.363,100.251 236.563,100.251 236.563,103.351 237.363,103.351 237.363,109.151 236.563,109.151 236.563,112.251 237.363,112.251 237.363,113.251 251.363,113.251 251.363,112.251 252.163,112.251 252.163,109.151 251.363,109.151 251.363,103.351 252.163,103.351 252.163,100.251 251.363,100.251 251.363,99.251"
     style="fill:none;stroke-width:0.050000mm;stroke:black"
     id="polygon909" />
  <polygon
     points="218.313,99.251 218.313,100.251 217.513,100.251 217.513,103.351 218.313,103.351 218.313,109.151 217.513,109.151 217.513,112.251 218.313,112.251 218.313,113.251 232.313,113.251 232.313,112.251 233.113,112.251 233.113,109.151 232.313,109.151 232.313,103.351 233.113,103.351 233.113,100.251 232.313,100.251 232.313,99.251"
     style="fill:none;stroke-width:0.050000mm;stroke:black"
     id="polygon911" />
  <polygon
     points="199.263,99.251 199.263,100.251 198.463,100.251 198.463,103.351 199.263,103.351 199.263,109.151 198.463,109.151 198.463,112.251 199.263,112.251 199.263,113.251 213.263,113.251 213.263,112.251 214.063,112.251 214.063,109.151 213.263,109.151 213.263,103.351 214.063,103.351 214.063,100.251 213.263,100.251 213.263,99.251"
     style="fill:none;stroke-width:0.050000mm;stroke:black"
     id="polygon913" />
  <polygon
     points="180.213,99.251 180.213,100.251 179.413,100.251 179.413,103.351 180.213,103.351 180.213,109.151 179.413,109.151 179.413,112.251 180.213,112.251 180.213,113.251 194.213,113.251 194.213,112.251 195.013,112.251 195.013,109.151 194.213,109.151 194.213,103.351 195.013,103.351 195.013,100.251 194.213,100.251 194.213,99.251"
     style="fill:none;stroke-width:0.050000mm;stroke:black"
     id="polygon915" />
  <polygon
     points="161.163,99.251 161.163,100.251 160.363,100.251 160.363,103.351 161.163,103.351 161.163,109.151 160.363,109.151 160.363,112.251 161.163,112.251 161.163,113.251 175.163,113.251 175.163,112.251 175.963,112.251 175.963,109.151 175.163,109.151 175.163,103.351 175.963,103.351 175.963,100.251 175.163,100.251 175.163,99.251"
     style="fill:none;stroke-width:0.050000mm;stroke:black"
     id="polygon917" />
  <polygon
     points="142.113,99.251 142.113,100.251 141.313,100.251 141.313,103.351 142.113,103.351 142.113,109.151 141.313,109.151 141.313,112.251 142.113,112.251 142.113,113.251 156.113,113.251 156.113,112.251 156.913,112.251 156.913,109.151 156.113,109.151 156.113,103.351 156.913,103.351 156.913,100.251 156.113,100.251 156.113,99.251"
     style="fill:none;stroke-width:0.050000mm;stroke:black"
     id="polygon919" />
  <polygon
     points="123.063,99.251 123.063,100.251 122.263,100.251 122.263,103.351 123.063,103.351 123.063,109.151 122.263,109.151 122.263,112.251 123.063,112.251 123.063,113.251 137.063,113.251 137.063,112.251 137.863,112.251 137.863,109.151 137.063,109.151 137.063,103.351 137.863,103.351 137.863,100.251 137.063,100.251 137.063,99.251"
     style="fill:none;stroke-width:0.050000mm;stroke:black"
     id="polygon921" />
  <polygon
     points="104.013,99.251 104.013,100.251 103.213,100.251 103.213,103.351 104.013,103.351 104.013,109.151 103.213,109.151 103.213,112.251 104.013,112.251 104.013,113.251 118.013,113.251 118.013,112.251 118.813,112.251 118.813,109.151 118.013,109.151 118.013,103.351 118.813,103.351 118.813,100.251 118.013,100.251 118.013,99.251"
     style="fill:none;stroke-width:0.050000mm;stroke:black"
     id="polygon923" />
  <polygon
     points="84.963,99.251 84.963,100.251 84.163,100.251 84.163,103.351 84.963,103.351 84.963,109.151 84.163,109.151 84.163,112.251 84.963,112.251 84.963,113.251 98.963,113.251 98.963,112.251 99.763,112.251 99.763,109.151 98.963,109.151 98.963,103.351 99.763,103.351 99.763,100.251 98.963,100.251 98.963,99.251"
     style="fill:none;stroke-width:0.050000mm;stroke:black"
     id="polygon925" />
  <polygon
     points="65.913,99.251 65.913,100.251 65.112,100.251 65.112,103.351 65.913,103.351 65.913,109.151 65.112,109.151 65.112,112.251 65.913,112.251 65.913,113.251 79.913,113.251 79.913,112.251 80.713,112.251 80.713,109.151 79.913,109.151 79.913,103.351 80.713,103.351 80.713,100.251 79.913,100.251 79.913,99.251"
     style="fill:none;stroke-width:0.050000mm;stroke:black"
     id="polygon927" />
  <polygon
     points="46.863,99.251 46.863,100.251 46.063,100.251 46.063,103.351 46.863,103.351 46.863,109.151 46.063,109.151 46.063,112.251 46.863,112.251 46.863,113.251 60.863,113.251 60.863,112.251 61.663,112.251 61.663,109.151 60.863,109.151 60.863,103.351 61.663,103.351 61.663,100.251 60.863,100.251 60.863,99.251"
     style="fill:none;stroke-width:0.050000mm;stroke:black"
     id="polygon929" />
  <polygon
     points="20.669,99.251 20.669,100.251 19.869,100.251 19.869,103.351 20.669,103.351 20.669,109.151 19.869,109.151 19.869,112.251 20.669,112.251 20.669,113.251 34.669,113.251 34.669,112.251 35.469,112.251 35.469,109.151 34.669,109.151 34.669,103.351 35.469,103.351 35.469,100.251 34.669,100.251 34.669,99.251"
     style="fill:none;stroke-width:0.050000mm;stroke:black"
     id="polygon931" />
  <polygon
     points="429.601,80.626 429.601,81.451 423.331,81.451 423.331,83.176 422.131,83.176 422.131,86.476 423.331,86.476 423.331,88.201 427.801,88.201 427.801,89.726 427.201,89.726 427.201,88.926 424.101,88.926 424.101,89.726 423.101,89.726 423.101,103.726 424.101,103.726 424.101,104.526 427.201,104.526 427.201,103.726 427.801,103.726 427.801,105.251 423.331,105.251 423.331,106.976 422.131,106.976 422.131,110.276 423.331,110.276 423.331,112.001 429.601,112.001 429.601,112.826 432.401,112.826 432.401,112.001 435.631,112.001 435.631,105.251 432.401,105.251 432.401,103.726 433.001,103.726 433.001,104.526 436.101,104.526 436.101,103.726 437.101,103.726 437.101,89.726 436.101,89.726 436.101,88.926 433.001,88.926 433.001,89.726 432.401,89.726 432.401,88.201 435.631,88.201 435.631,81.451 432.401,81.451 432.401,80.626"
     style="fill:none;stroke-width:0.050000mm;stroke:black"
     id="polygon933" />
  <polygon
     points="404.051,80.201 404.051,81.201 403.251,81.201 403.251,84.301 404.051,84.301 404.051,90.101 403.251,90.101 403.251,93.201 404.051,93.201 404.051,94.201 418.051,94.201 418.051,93.201 418.851,93.201 418.851,90.101 418.051,90.101 418.051,84.301 418.851,84.301 418.851,81.201 418.051,81.201 418.051,80.201"
     style="fill:none;stroke-width:0.050000mm;stroke:black"
     id="polygon935" />
  <polygon
     points="385.001,80.201 385.001,81.201 384.201,81.201 384.201,84.301 385.001,84.301 385.001,90.101 384.201,90.101 384.201,93.201 385.001,93.201 385.001,94.201 399.001,94.201 399.001,93.201 399.801,93.201 399.801,90.101 399.001,90.101 399.001,84.301 399.801,84.301 399.801,81.201 399.001,81.201 399.001,80.201"
     style="fill:none;stroke-width:0.050000mm;stroke:black"
     id="polygon937" />
  <polygon
     points="365.951,80.201 365.951,81.201 365.151,81.201 365.151,84.301 365.951,84.301 365.951,90.101 365.151,90.101 365.151,93.201 365.951,93.201 365.951,94.201 379.951,94.201 379.951,93.201 380.751,93.201 380.751,90.101 379.951,90.101 379.951,84.301 380.751,84.301 380.751,81.201 379.951,81.201 379.951,80.201"
     style="fill:none;stroke-width:0.050000mm;stroke:black"
     id="polygon939" />
  <polygon
     points="342.138,80.201 342.138,81.201 341.338,81.201 341.338,84.301 342.138,84.301 342.138,90.101 341.338,90.101 341.338,93.201 342.138,93.201 342.138,94.201 356.138,94.201 356.138,93.201 356.938,93.201 356.938,90.101 356.138,90.101 356.138,84.301 356.938,84.301 356.938,81.201 356.138,81.201 356.138,80.201"
     style="fill:none;stroke-width:0.050000mm;stroke:black"
     id="polygon941" />
  <polygon
     points="323.088,80.201 323.088,81.201 322.288,81.201 322.288,84.301 323.088,84.301 323.088,90.101 322.288,90.101 322.288,93.201 323.088,93.201 323.088,94.201 337.088,94.201 337.088,93.201 337.888,93.201 337.888,90.101 337.088,90.101 337.088,84.301 337.888,84.301 337.888,81.201 337.088,81.201 337.088,80.201"
     style="fill:none;stroke-width:0.050000mm;stroke:black"
     id="polygon943" />
  <polygon
     points="304.038,80.201 304.038,81.201 303.238,81.201 303.238,84.301 304.038,84.301 304.038,90.101 303.238,90.101 303.238,93.201 304.038,93.201 304.038,94.201 318.038,94.201 318.038,93.201 318.838,93.201 318.838,90.101 318.038,90.101 318.038,84.301 318.838,84.301 318.838,81.201 318.038,81.201 318.038,80.201"
     style="fill:none;stroke-width:0.050000mm;stroke:black"
     id="polygon945" />
  <polygon
     points="275.463,80.201 275.463,81.201 274.663,81.201 274.663,84.301 275.463,84.301 275.463,90.101 274.663,90.101 274.663,93.201 275.463,93.201 275.463,94.201 289.463,94.201 289.463,93.201 290.263,93.201 290.263,90.101 289.463,90.101 289.463,84.301 290.263,84.301 290.263,81.201 289.463,81.201 289.463,80.201"
     style="fill:none;stroke-width:0.050000mm;stroke:black"
     id="polygon947" />
  <polygon
     points="251.651,80.201 251.651,81.201 250.851,81.201 250.851,84.301 251.651,84.301 251.651,90.101 250.851,90.101 250.851,93.201 251.651,93.201 251.651,94.201 265.651,94.201 265.651,93.201 266.451,93.201 266.451,90.101 265.651,90.101 265.651,84.301 266.451,84.301 266.451,81.201 265.651,81.201 265.651,80.201"
     style="fill:none;stroke-width:0.050000mm;stroke:black"
     id="polygon949" />
  <polygon
     points="232.601,80.201 232.601,81.201 231.801,81.201 231.801,84.301 232.601,84.301 232.601,90.101 231.801,90.101 231.801,93.201 232.601,93.201 232.601,94.201 246.601,94.201 246.601,93.201 247.401,93.201 247.401,90.101 246.601,90.101 246.601,84.301 247.401,84.301 247.401,81.201 246.601,81.201 246.601,80.201"
     style="fill:none;stroke-width:0.050000mm;stroke:black"
     id="polygon951" />
  <polygon
     points="213.551,80.201 213.551,81.201 212.751,81.201 212.751,84.301 213.551,84.301 213.551,90.101 212.751,90.101 212.751,93.201 213.551,93.201 213.551,94.201 227.551,94.201 227.551,93.201 228.351,93.201 228.351,90.101 227.551,90.101 227.551,84.301 228.351,84.301 228.351,81.201 227.551,81.201 227.551,80.201"
     style="fill:none;stroke-width:0.050000mm;stroke:black"
     id="polygon953" />
  <polygon
     points="194.501,80.201 194.501,81.201 193.701,81.201 193.701,84.301 194.501,84.301 194.501,90.101 193.701,90.101 193.701,93.201 194.501,93.201 194.501,94.201 208.501,94.201 208.501,93.201 209.301,93.201 209.301,90.101 208.501,90.101 208.501,84.301 209.301,84.301 209.301,81.201 208.501,81.201 208.501,80.201"
     style="fill:none;stroke-width:0.050000mm;stroke:black"
     id="polygon955" />
  <polygon
     points="175.451,80.201 175.451,81.201 174.651,81.201 174.651,84.301 175.451,84.301 175.451,90.101 174.651,90.101 174.651,93.201 175.451,93.201 175.451,94.201 189.451,94.201 189.451,93.201 190.251,93.201 190.251,90.101 189.451,90.101 189.451,84.301 190.251,84.301 190.251,81.201 189.451,81.201 189.451,80.201"
     style="fill:none;stroke-width:0.050000mm;stroke:black"
     id="polygon957" />
  <polygon
     points="156.401,80.201 156.401,81.201 155.601,81.201 155.601,84.301 156.401,84.301 156.401,90.101 155.601,90.101 155.601,93.201 156.401,93.201 156.401,94.201 170.401,94.201 170.401,93.201 171.201,93.201 171.201,90.101 170.401,90.101 170.401,84.301 171.201,84.301 171.201,81.201 170.401,81.201 170.401,80.201"
     style="fill:none;stroke-width:0.050000mm;stroke:black"
     id="polygon959" />
  <polygon
     points="137.351,80.201 137.351,81.201 136.550,81.201 136.550,84.301 137.351,84.301 137.351,90.101 136.550,90.101 136.550,93.201 137.351,93.201 137.351,94.201 151.351,94.201 151.351,93.201 152.151,93.201 152.151,90.101 151.351,90.101 151.351,84.301 152.151,84.301 152.151,81.201 151.351,81.201 151.351,80.201"
     style="fill:none;stroke-width:0.050000mm;stroke:black"
     id="polygon961" />
  <polygon
     points="118.301,80.201 118.301,81.201 117.501,81.201 117.501,84.301 118.301,84.301 118.301,90.101 117.501,90.101 117.501,93.201 118.301,93.201 118.301,94.201 132.301,94.201 132.301,93.201 133.101,93.201 133.101,90.101 132.301,90.101 132.301,84.301 133.101,84.301 133.101,81.201 132.301,81.201 132.301,80.201"
     style="fill:none;stroke-width:0.050000mm;stroke:black"
     id="polygon963" />
  <polygon
     points="99.251,80.201 99.251,81.201 98.451,81.201 98.451,84.301 99.251,84.301 99.251,90.101 98.451,90.101 98.451,93.201 99.251,93.201 99.251,94.201 113.251,94.201 113.251,93.201 114.051,93.201 114.051,90.101 113.251,90.101 113.251,84.301 114.051,84.301 114.051,81.201 113.251,81.201 113.251,80.201"
     style="fill:none;stroke-width:0.050000mm;stroke:black"
     id="polygon965" />
  <polygon
     points="80.201,80.201 80.201,81.201 79.401,81.201 79.401,84.301 80.201,84.301 80.201,90.101 79.401,90.101 79.401,93.201 80.201,93.201 80.201,94.201 94.201,94.201 94.201,93.201 95.001,93.201 95.001,90.101 94.201,90.101 94.201,84.301 95.001,84.301 95.001,81.201 94.201,81.201 94.201,80.201"
     style="fill:none;stroke-width:0.050000mm;stroke:black"
     id="polygon967" />
  <polygon
     points="61.151,80.201 61.151,81.201 60.351,81.201 60.351,84.301 61.151,84.301 61.151,90.101 60.351,90.101 60.351,93.201 61.151,93.201 61.151,94.201 75.151,94.201 75.151,93.201 75.951,93.201 75.951,90.101 75.151,90.101 75.151,84.301 75.951,84.301 75.951,81.201 75.151,81.201 75.151,80.201"
     style="fill:none;stroke-width:0.050000mm;stroke:black"
     id="polygon969" />
  <polygon
     points="42.101,80.201 42.101,81.201 41.301,81.201 41.301,84.301 42.101,84.301 42.101,90.101 41.301,90.101 41.301,93.201 42.101,93.201 42.101,94.201 56.101,94.201 56.101,93.201 56.901,93.201 56.901,90.101 56.101,90.101 56.101,84.301 56.901,84.301 56.901,81.201 56.101,81.201 56.101,80.201"
     style="fill:none;stroke-width:0.050000mm;stroke:black"
     id="polygon971" />
  <polygon
     points="18.288,80.201 18.288,81.201 17.488,81.201 17.488,84.301 18.288,84.301 18.288,90.101 17.488,90.101 17.488,93.201 18.288,93.201 18.288,94.201 32.288,94.201 32.288,93.201 33.088,93.201 33.088,90.101 32.288,90.101 32.288,84.301 33.088,84.301 33.088,81.201 32.288,81.201 32.288,80.201"
     style="fill:none;stroke-width:0.050000mm;stroke:black"
     id="polygon973" />
  <polygon
     points="270.701,61.151 270.701,62.151 269.901,62.151 269.901,65.251 270.701,65.251 270.701,65.851 269.176,65.851 269.176,62.621 262.426,62.621 262.426,65.851 261.601,65.851 261.601,68.651 262.426,68.651 262.426,74.921 264.151,74.921 264.151,76.121 267.451,76.121 267.451,74.921 269.176,74.921 269.176,70.451 270.701,70.451 270.701,71.051 269.901,71.051 269.901,74.151 270.701,74.151 270.701,75.151 284.701,75.151 284.701,74.151 285.501,74.151 285.501,71.051 284.701,71.051 284.701,70.451 286.226,70.451 286.226,74.921 287.951,74.921 287.951,76.121 291.251,76.121 291.251,74.921 292.976,74.921 292.976,68.651 293.801,68.651 293.801,65.851 292.976,65.851 292.976,62.621 286.226,62.621 286.226,65.851 284.701,65.851 284.701,65.251 285.501,65.251 285.501,62.151 284.701,62.151 284.701,61.151"
     style="fill:none;stroke-width:0.050000mm;stroke:black"
     id="polygon975" />
  <polygon
     points="423.101,61.151 423.101,62.151 422.301,62.151 422.301,65.251 423.101,65.251 423.101,71.051 422.301,71.051 422.301,74.151 423.101,74.151 423.101,75.151 437.101,75.151 437.101,74.151 437.901,74.151 437.901,71.051 437.101,71.051 437.101,65.251 437.901,65.251 437.901,62.151 437.101,62.151 437.101,61.151"
     style="fill:none;stroke-width:0.050000mm;stroke:black"
     id="polygon977" />
  <polygon
     points="404.051,61.151 404.051,62.151 403.251,62.151 403.251,65.251 404.051,65.251 404.051,71.051 403.251,71.051 403.251,74.151 404.051,74.151 404.051,75.151 418.051,75.151 418.051,74.151 418.851,74.151 418.851,71.051 418.051,71.051 418.051,65.251 418.851,65.251 418.851,62.151 418.051,62.151 418.051,61.151"
     style="fill:none;stroke-width:0.189;stroke:black;stroke-miterlimit:4;stroke-dasharray:none"
     id="polygon979" />
  <polygon
     points="385.001,61.151 385.001,62.151 384.201,62.151 384.201,65.251 385.001,65.251 385.001,71.051 384.201,71.051 384.201,74.151 385.001,74.151 385.001,75.151 399.001,75.151 399.001,74.151 399.801,74.151 399.801,71.051 399.001,71.051 399.001,65.251 399.801,65.251 399.801,62.151 399.001,62.151 399.001,61.151"
     style="fill:none;stroke-width:0.050000mm;stroke:black"
     id="polygon981" />
  <polygon
     points="365.951,61.151 365.951,62.151 365.151,62.151 365.151,65.251 365.951,65.251 365.951,71.051 365.151,71.051 365.151,74.151 365.951,74.151 365.951,75.151 379.951,75.151 379.951,74.151 380.751,74.151 380.751,71.051 379.951,71.051 379.951,65.251 380.751,65.251 380.751,62.151 379.951,62.151 379.951,61.151"
     style="fill:none;stroke-width:0.050000mm;stroke:black"
     id="polygon983" />
  <polygon
     points="342.138,61.151 342.138,62.151 341.338,62.151 341.338,65.251 342.138,65.251 342.138,71.051 341.338,71.051 341.338,74.151 342.138,74.151 342.138,75.151 356.138,75.151 356.138,74.151 356.938,74.151 356.938,71.051 356.138,71.051 356.138,65.251 356.938,65.251 356.938,62.151 356.138,62.151 356.138,61.151"
     style="fill:none;stroke-width:0.050000mm;stroke:black"
     id="polygon985" />
  <polygon
     points="323.088,61.151 323.088,62.151 322.288,62.151 322.288,65.251 323.088,65.251 323.088,71.051 322.288,71.051 322.288,74.151 323.088,74.151 323.088,75.151 337.088,75.151 337.088,74.151 337.888,74.151 337.888,71.051 337.088,71.051 337.088,65.251 337.888,65.251 337.888,62.151 337.088,62.151 337.088,61.151"
     style="fill:none;stroke-width:0.050000mm;stroke:black"
     id="polygon987" />
  <polygon
     points="304.038,61.151 304.038,62.151 303.238,62.151 303.238,65.251 304.038,65.251 304.038,71.051 303.238,71.051 303.238,74.151 304.038,74.151 304.038,75.151 318.038,75.151 318.038,74.151 318.838,74.151 318.838,71.051 318.038,71.051 318.038,65.251 318.838,65.251 318.838,62.151 318.038,62.151 318.038,61.151"
     style="fill:none;stroke-width:0.050000mm;stroke:black"
     id="polygon989" />
  <polygon
     points="242.126,61.151 242.126,62.151 241.326,62.151 241.326,65.251 242.126,65.251 242.126,71.051 241.326,71.051 241.326,74.151 242.126,74.151 242.126,75.151 256.126,75.151 256.126,74.151 256.926,74.151 256.926,71.051 256.126,71.051 256.126,65.251 256.926,65.251 256.926,62.151 256.126,62.151 256.126,61.151"
     style="fill:none;stroke-width:0.050000mm;stroke:black"
     id="polygon991" />
  <polygon
     points="223.076,61.151 223.076,62.151 222.276,62.151 222.276,65.251 223.076,65.251 223.076,71.051 222.276,71.051 222.276,74.151 223.076,74.151 223.076,75.151 237.076,75.151 237.076,74.151 237.876,74.151 237.876,71.051 237.076,71.051 237.076,65.251 237.876,65.251 237.876,62.151 237.076,62.151 237.076,61.151"
     style="fill:none;stroke-width:0.050000mm;stroke:black"
     id="polygon993" />
  <polygon
     points="204.026,61.151 204.026,62.151 203.226,62.151 203.226,65.251 204.026,65.251 204.026,71.051 203.226,71.051 203.226,74.151 204.026,74.151 204.026,75.151 218.026,75.151 218.026,74.151 218.826,74.151 218.826,71.051 218.026,71.051 218.026,65.251 218.826,65.251 218.826,62.151 218.026,62.151 218.026,61.151"
     style="fill:none;stroke-width:0.050000mm;stroke:black"
     id="polygon995" />
  <polygon
     points="184.976,61.151 184.976,62.151 184.176,62.151 184.176,65.251 184.976,65.251 184.976,71.051 184.176,71.051 184.176,74.151 184.976,74.151 184.976,75.151 198.976,75.151 198.976,74.151 199.776,74.151 199.776,71.051 198.976,71.051 198.976,65.251 199.776,65.251 199.776,62.151 198.976,62.151 198.976,61.151"
     style="fill:none;stroke-width:0.050000mm;stroke:black"
     id="polygon997" />
  <polygon
     points="165.926,61.151 165.926,62.151 165.126,62.151 165.126,65.251 165.926,65.251 165.926,71.051 165.126,71.051 165.126,74.151 165.926,74.151 165.926,75.151 179.926,75.151 179.926,74.151 180.726,74.151 180.726,71.051 179.926,71.051 179.926,65.251 180.726,65.251 180.726,62.151 179.926,62.151 179.926,61.151"
     style="fill:none;stroke-width:0.050000mm;stroke:black"
     id="polygon999" />
  <polygon
     points="146.876,61.151 146.876,62.151 146.076,62.151 146.076,65.251 146.876,65.251 146.876,71.051 146.076,71.051 146.076,74.151 146.876,74.151 146.876,75.151 160.876,75.151 160.876,74.151 161.676,74.151 161.676,71.051 160.876,71.051 160.876,65.251 161.676,65.251 161.676,62.151 160.876,62.151 160.876,61.151"
     style="fill:none;stroke-width:0.050000mm;stroke:black"
     id="polygon1001" />
  <polygon
     points="127.825,61.151 127.825,62.151 127.025,62.151 127.025,65.251 127.825,65.251 127.825,71.051 127.025,71.051 127.025,74.151 127.825,74.151 127.825,75.151 141.826,75.151 141.826,74.151 142.626,74.151 142.626,71.051 141.826,71.051 141.826,65.251 142.626,65.251 142.626,62.151 141.826,62.151 141.826,61.151"
     style="fill:none;stroke-width:0.050000mm;stroke:black"
     id="polygon1003" />
  <polygon
     points="108.775,61.151 108.775,62.151 107.976,62.151 107.976,65.251 108.775,65.251 108.775,71.051 107.976,71.051 107.976,74.151 108.775,74.151 108.775,75.151 122.775,75.151 122.775,74.151 123.575,74.151 123.575,71.051 122.775,71.051 122.775,65.251 123.575,65.251 123.575,62.151 122.775,62.151 122.775,61.151"
     style="fill:none;stroke-width:0.050000mm;stroke:black"
     id="polygon1005" />
  <polygon
     points="89.726,61.151 89.726,62.151 88.926,62.151 88.926,65.251 89.726,65.251 89.726,71.051 88.926,71.051 88.926,74.151 89.726,74.151 89.726,75.151 103.726,75.151 103.726,74.151 104.525,74.151 104.525,71.051 103.726,71.051 103.726,65.251 104.525,65.251 104.525,62.151 103.726,62.151 103.726,61.151"
     style="fill:none;stroke-width:0.050000mm;stroke:black"
     id="polygon1007" />
  <polygon
     points="70.676,61.151 70.676,62.151 69.876,62.151 69.876,65.251 70.676,65.251 70.676,71.051 69.876,71.051 69.876,74.151 70.676,74.151 70.676,75.151 84.676,75.151 84.676,74.151 85.476,74.151 85.476,71.051 84.676,71.051 84.676,65.251 85.476,65.251 85.476,62.151 84.676,62.151 84.676,61.151"
     style="fill:none;stroke-width:0.050000mm;stroke:black"
     id="polygon1009" />
  <polygon
     points="51.626,61.151 51.626,62.151 50.826,62.151 50.826,65.251 51.626,65.251 51.626,71.051 50.826,71.051 50.826,74.151 51.626,74.151 51.626,75.151 65.626,75.151 65.626,74.151 66.426,74.151 66.426,71.051 65.626,71.051 65.626,65.251 66.426,65.251 66.426,62.151 65.626,62.151 65.626,61.151"
     style="fill:none;stroke-width:0.050000mm;stroke:black"
     id="polygon1011" />
  <polygon
     points="32.576,61.151 32.576,62.151 31.776,62.151 31.776,65.251 32.576,65.251 32.576,71.051 31.776,71.051 31.776,74.151 32.576,74.151 32.576,75.151 46.576,75.151 46.576,74.151 47.376,74.151 47.376,71.051 46.576,71.051 46.576,65.251 47.376,65.251 47.376,62.151 46.576,62.151 46.576,61.151"
     style="fill:none;stroke-width:0.050000mm;stroke:black"
     id="polygon1013" />
  <polygon
     points="13.525,61.151 13.525,62.151 12.725,62.151 12.725,65.251 13.525,65.251 13.525,71.051 12.725,71.051 12.725,74.151 13.525,74.151 13.525,75.151 27.526,75.151 27.526,74.151 28.326,74.151 28.326,71.051 27.526,71.051 27.526,65.251 28.326,65.251 28.326,62.151 27.526,62.151 27.526,61.151"
     style="fill:none;stroke-width:0.050000mm;stroke:black"
     id="polygon1015" />
  <polygon
     points="342.138,32.576 342.138,33.576 341.338,33.576 341.338,36.676 342.138,36.676 342.138,42.476 341.338,42.476 341.338,45.576 342.138,45.576 342.138,46.576 356.138,46.576 356.138,45.576 356.938,45.576 356.938,42.476 356.138,42.476 356.138,36.676 356.938,36.676 356.938,33.576 356.138,33.576 356.138,32.576"
     style="fill:none;stroke-width:0.050000mm;stroke:black"
     id="polygon1017" />
  <polygon
     points="323.088,32.576 323.088,33.576 322.288,33.576 322.288,36.676 323.088,36.676 323.088,42.476 322.288,42.476 322.288,45.576 323.088,45.576 323.088,46.576 337.088,46.576 337.088,45.576 337.888,45.576 337.888,42.476 337.088,42.476 337.088,36.676 337.888,36.676 337.888,33.576 337.088,33.576 337.088,32.576"
     style="fill:none;stroke-width:0.050000mm;stroke:black"
     id="polygon1019" />
  <polygon
     points="304.038,32.576 304.038,33.576 303.238,33.576 303.238,36.676 304.038,36.676 304.038,42.476 303.238,42.476 303.238,45.576 304.038,45.576 304.038,46.576 318.038,46.576 318.038,45.576 318.838,45.576 318.838,42.476 318.038,42.476 318.038,36.676 318.838,36.676 318.838,33.576 318.038,33.576 318.038,32.576"
     style="fill:none;stroke-width:0.050000mm;stroke:black"
     id="polygon1021" />
  <polygon
     points="280.226,32.576 280.226,33.576 279.426,33.576 279.426,36.676 280.226,36.676 280.226,42.476 279.426,42.476 279.426,45.576 280.226,45.576 280.226,46.576 294.226,46.576 294.226,45.576 295.026,45.576 295.026,42.476 294.226,42.476 294.226,36.676 295.026,36.676 295.026,33.576 294.226,33.576 294.226,32.576"
     style="fill:none;stroke-width:0.050000mm;stroke:black"
     id="polygon1023" />
  <polygon
     points="261.176,32.576 261.176,33.576 260.376,33.576 260.376,36.676 261.176,36.676 261.176,42.476 260.376,42.476 260.376,45.576 261.176,45.576 261.176,46.576 275.176,46.576 275.176,45.576 275.976,45.576 275.976,42.476 275.176,42.476 275.176,36.676 275.976,36.676 275.976,33.576 275.176,33.576 275.176,32.576"
     style="fill:none;stroke-width:0.050000mm;stroke:black"
     id="polygon1025" />
  <polygon
     points="242.126,32.576 242.126,33.576 241.326,33.576 241.326,36.676 242.126,36.676 242.126,42.476 241.326,42.476 241.326,45.576 242.126,45.576 242.126,46.576 256.126,46.576 256.126,45.576 256.926,45.576 256.926,42.476 256.126,42.476 256.126,36.676 256.926,36.676 256.926,33.576 256.126,33.576 256.126,32.576"
     style="fill:none;stroke-width:0.050000mm;stroke:black"
     id="polygon1027" />
  <polygon
     points="223.076,32.576 223.076,33.576 222.276,33.576 222.276,36.676 223.076,36.676 223.076,42.476 222.276,42.476 222.276,45.576 223.076,45.576 223.076,46.576 237.076,46.576 237.076,45.576 237.876,45.576 237.876,42.476 237.076,42.476 237.076,36.676 237.876,36.676 237.876,33.576 237.076,33.576 237.076,32.576"
     style="fill:none;stroke-width:0.050000mm;stroke:black"
     id="polygon1029" />
  <polygon
     points="194.501,32.576 194.501,33.576 193.701,33.576 193.701,36.676 194.501,36.676 194.501,42.476 193.701,42.476 193.701,45.576 194.501,45.576 194.501,46.576 208.501,46.576 208.501,45.576 209.301,45.576 209.301,42.476 208.501,42.476 208.501,36.676 209.301,36.676 209.301,33.576 208.501,33.576 208.501,32.576"
     style="fill:none;stroke-width:0.050000mm;stroke:black"
     id="polygon1031" />
  <polygon
     points="175.451,32.576 175.451,33.576 174.651,33.576 174.651,36.676 175.451,36.676 175.451,42.476 174.651,42.476 174.651,45.576 175.451,45.576 175.451,46.576 189.451,46.576 189.451,45.576 190.251,45.576 190.251,42.476 189.451,42.476 189.451,36.676 190.251,36.676 190.251,33.576 189.451,33.576 189.451,32.576"
     style="fill:none;stroke-width:0.050000mm;stroke:black"
     id="polygon1033" />
  <polygon
     points="156.401,32.576 156.401,33.576 155.601,33.576 155.601,36.676 156.401,36.676 156.401,42.476 155.601,42.476 155.601,45.576 156.401,45.576 156.401,46.576 170.401,46.576 170.401,45.576 171.201,45.576 171.201,42.476 170.401,42.476 170.401,36.676 171.201,36.676 171.201,33.576 170.401,33.576 170.401,32.576"
     style="fill:none;stroke-width:0.050000mm;stroke:black"
     id="polygon1035" />
  <polygon
     points="137.351,32.576 137.351,33.576 136.550,33.576 136.550,36.676 137.351,36.676 137.351,42.476 136.550,42.476 136.550,45.576 137.351,45.576 137.351,46.576 151.351,46.576 151.351,45.576 152.151,45.576 152.151,42.476 151.351,42.476 151.351,36.676 152.151,36.676 152.151,33.576 151.351,33.576 151.351,32.576"
     style="fill:none;stroke-width:0.050000mm;stroke:black"
     id="polygon1037" />
  <polygon
     points="108.775,32.576 108.775,33.576 107.976,33.576 107.976,36.676 108.775,36.676 108.775,42.476 107.976,42.476 107.976,45.576 108.775,45.576 108.775,46.576 122.775,46.576 122.775,45.576 123.575,45.576 123.575,42.476 122.775,42.476 122.775,36.676 123.575,36.676 123.575,33.576 122.775,33.576 122.775,32.576"
     style="fill:none;stroke-width:0.050000mm;stroke:black"
     id="polygon1039" />
  <polygon
     points="89.726,32.576 89.726,33.576 88.926,33.576 88.926,36.676 89.726,36.676 89.726,42.476 88.926,42.476 88.926,45.576 89.726,45.576 89.726,46.576 103.726,46.576 103.726,45.576 104.525,45.576 104.525,42.476 103.726,42.476 103.726,36.676 104.525,36.676 104.525,33.576 103.726,33.576 103.726,32.576"
     style="fill:none;stroke-width:0.050000mm;stroke:black"
     id="polygon1041" />
  <polygon
     points="70.676,32.576 70.676,33.576 69.876,33.576 69.876,36.676 70.676,36.676 70.676,42.476 69.876,42.476 69.876,45.576 70.676,45.576 70.676,46.576 84.676,46.576 84.676,45.576 85.476,45.576 85.476,42.476 84.676,42.476 84.676,36.676 85.476,36.676 85.476,33.576 84.676,33.576 84.676,32.576"
     style="fill:none;stroke-width:0.050000mm;stroke:black"
     id="polygon1043" />
  <polygon
     points="51.626,32.576 51.626,33.576 50.826,33.576 50.826,36.676 51.626,36.676 51.626,42.476 50.826,42.476 50.826,45.576 51.626,45.576 51.626,46.576 65.626,46.576 65.626,45.576 66.426,45.576 66.426,42.476 65.626,42.476 65.626,36.676 66.426,36.676 66.426,33.576 65.626,33.576 65.626,32.576"
     style="fill:none;stroke-width:0.050000mm;stroke:black"
     id="polygon1045" />
  <polygon
     points="13.525,32.576 13.525,33.576 12.725,33.576 12.725,36.676 13.525,36.676 13.525,42.476 12.725,42.476 12.725,45.576 13.525,45.576 13.525,46.576 27.526,46.576 27.526,45.576 28.326,45.576 28.326,42.476 27.526,42.476 27.526,36.676 28.326,36.676 28.326,33.576 27.526,33.576 27.526,32.576"
     style="fill:none;stroke-width:0.050000mm;stroke:black"
     id="polygon1047" />
  <polygon
     points="342.138,13.525 342.138,14.525 341.338,14.525 341.338,17.626 342.138,17.626 342.138,23.425 341.338,23.425 341.338,26.526 342.138,26.526 342.138,27.526 356.138,27.526 356.138,26.526 356.938,26.526 356.938,23.425 356.138,23.425 356.138,17.626 356.938,17.626 356.938,14.525 356.138,14.525 356.138,13.525"
     style="fill:none;stroke-width:0.050000mm;stroke:black"
     id="polygon1049" />
  <polygon
     points="323.088,13.525 323.088,14.525 322.288,14.525 322.288,17.626 323.088,17.626 323.088,23.425 322.288,23.425 322.288,26.526 323.088,26.526 323.088,27.526 337.088,27.526 337.088,26.526 337.888,26.526 337.888,23.425 337.088,23.425 337.088,17.626 337.888,17.626 337.888,14.525 337.088,14.525 337.088,13.525"
     style="fill:none;stroke-width:0.050000mm;stroke:black"
     id="polygon1051" />
  <polygon
     points="304.038,13.525 304.038,14.525 303.238,14.525 303.238,17.626 304.038,17.626 304.038,23.425 303.238,23.425 303.238,26.526 304.038,26.526 304.038,27.526 318.038,27.526 318.038,26.526 318.838,26.526 318.838,23.425 318.038,23.425 318.038,17.626 318.838,17.626 318.838,14.525 318.038,14.525 318.038,13.525"
     style="fill:none;stroke-width:0.050000mm;stroke:black"
     id="polygon1053" />
  <polygon
     points="108.775,13.525 108.775,14.525 107.976,14.525 107.976,17.626 108.775,17.626 108.775,23.425 107.976,23.425 107.976,26.526 108.775,26.526 108.775,27.526 122.775,27.526 122.775,26.526 123.575,26.526 123.575,23.425 122.775,23.425 122.775,17.626 123.575,17.626 123.575,14.525 122.775,14.525 122.775,13.525"
     style="fill:none;stroke-width:0.050000mm;stroke:black"
     id="polygon1055" />
  <polygon
     points="89.726,13.525 89.726,14.525 88.926,14.525 88.926,17.626 89.726,17.626 89.726,23.425 88.926,23.425 88.926,26.526 89.726,26.526 89.726,27.526 103.726,27.526 103.726,26.526 104.525,26.526 104.525,23.425 103.726,23.425 103.726,17.626 104.525,17.626 104.525,14.525 103.726,14.525 103.726,13.525"
     style="fill:none;stroke-width:0.050000mm;stroke:black"
     id="polygon1057" />
  <polygon
     points="70.676,13.525 70.676,14.525 69.876,14.525 69.876,17.626 70.676,17.626 70.676,23.425 69.876,23.425 69.876,26.526 70.676,26.526 70.676,27.526 84.676,27.526 84.676,26.526 85.476,26.526 85.476,23.425 84.676,23.425 84.676,17.626 85.476,17.626 85.476,14.525 84.676,14.525 84.676,13.525"
     style="fill:none;stroke-width:0.050000mm;stroke:black"
     id="polygon1059" />
  <polygon
     points="51.626,13.525 51.626,14.525 50.826,14.525 50.826,17.626 51.626,17.626 51.626,23.425 50.826,23.425 50.826,26.526 51.626,26.526 51.626,27.526 65.626,27.526 65.626,26.526 66.426,26.526 66.426,23.425 65.626,23.425 65.626,17.626 66.426,17.626 66.426,14.525 65.626,14.525 65.626,13.525"
     style="fill:none;stroke-width:0.050000mm;stroke:black"
     id="polygon1061" />
  <polygon
     points="7.506,6.479 7.060,6.706 6.706,7.060 6.479,7.506 6.400,8.001 6.479,8.495 6.706,8.941 7.060,9.295 7.506,9.522 8.001,9.601 8.495,9.522 8.941,9.295 9.295,8.941 9.522,8.495 9.601,8.001 9.522,7.506 9.295,7.060 8.941,6.706 8.495,6.479 8.001,6.401"
     style="fill:none;stroke-width:0.050000mm;stroke:black"
     id="polygon1063" />
  <polygon
     points="442.132,6.479 441.686,6.706 441.332,7.060 441.105,7.506 441.027,8.001 441.105,8.495 441.332,8.941 441.686,9.295 442.132,9.522 442.627,9.601 443.121,9.522 443.567,9.295 443.921,8.941 444.148,8.495 444.227,8.001 444.148,7.506 443.921,7.060 443.567,6.706 443.121,6.479 442.627,6.401"
     style="fill:none;stroke-width:0.050000mm;stroke:black"
     id="polygon1065" />
  <polygon
     points="224.819,6.479 224.373,6.706 224.019,7.060 223.792,7.506 223.714,8.001 223.792,8.495 224.019,8.941 224.373,9.295 224.819,9.522 225.314,9.601 225.808,9.522 226.254,9.295 226.608,8.941 226.835,8.495 226.914,8.001 226.835,7.506 226.608,7.060 226.254,6.706 225.808,6.479 225.314,6.401"
     style="fill:none;stroke-width:0.050000mm;stroke:black"
     id="polygon1067" />
  <rect
     style="opacity:0.997;fill:none;stroke:#000000;stroke-width:0.188912"
     id="rect6183"
     width="20.637499"
     height="3.175"
     x="391.20599"
     y="42.750999" />
</svg>
